%FSLAX45Y45*%
G04 Gerber Fmt 4.5, Leading zero omitted, Abs format (unit mm)*
G04 Created by KiCad (PCBNEW 5.1.10) date 2021-07-20 18:14:27*
%MOMM*%
%LPD*%
G01*
G04 APERTURE LIST*
%TA.AperFunction,Profile*%
%ADD10C,0.100000*%
%TD*%
%ADD11C,0.200000*%
%ADD12C,0.300000*%
G04 APERTURE END LIST*
D10*
X3750000Y-13000000D02*
X3750000Y-3250000D01*
X7500000Y-13000000D02*
X3750000Y-13000000D01*
X7500000Y-3250000D02*
X7500000Y-13000000D01*
X3750000Y-3250000D02*
X7500000Y-3250000D01*
D11*
D12*
X4031428Y-13470714D02*
X4031428Y-13170714D01*
X4102857Y-13170714D01*
X4145714Y-13185000D01*
X4174286Y-13213571D01*
X4188571Y-13242143D01*
X4202857Y-13299286D01*
X4202857Y-13342143D01*
X4188571Y-13399286D01*
X4174286Y-13427857D01*
X4145714Y-13456429D01*
X4102857Y-13470714D01*
X4031428Y-13470714D01*
X4331428Y-13470714D02*
X4331428Y-13270714D01*
X4331428Y-13327857D02*
X4345714Y-13299286D01*
X4360000Y-13285000D01*
X4388571Y-13270714D01*
X4417143Y-13270714D01*
X4517143Y-13470714D02*
X4517143Y-13270714D01*
X4517143Y-13170714D02*
X4502857Y-13185000D01*
X4517143Y-13199286D01*
X4531428Y-13185000D01*
X4517143Y-13170714D01*
X4517143Y-13199286D01*
X4702857Y-13470714D02*
X4674286Y-13456429D01*
X4660000Y-13427857D01*
X4660000Y-13170714D01*
X4860000Y-13470714D02*
X4831428Y-13456429D01*
X4817143Y-13427857D01*
X4817143Y-13170714D01*
X5202857Y-13470714D02*
X5202857Y-13170714D01*
X5302857Y-13385000D01*
X5402857Y-13170714D01*
X5402857Y-13470714D01*
X5674286Y-13470714D02*
X5674286Y-13313571D01*
X5660000Y-13285000D01*
X5631428Y-13270714D01*
X5574286Y-13270714D01*
X5545714Y-13285000D01*
X5674286Y-13456429D02*
X5645714Y-13470714D01*
X5574286Y-13470714D01*
X5545714Y-13456429D01*
X5531428Y-13427857D01*
X5531428Y-13399286D01*
X5545714Y-13370714D01*
X5574286Y-13356429D01*
X5645714Y-13356429D01*
X5674286Y-13342143D01*
X5817143Y-13270714D02*
X5817143Y-13570714D01*
X5817143Y-13285000D02*
X5845714Y-13270714D01*
X5902857Y-13270714D01*
X5931428Y-13285000D01*
X5945714Y-13299286D01*
X5960000Y-13327857D01*
X5960000Y-13413571D01*
X5945714Y-13442143D01*
X5931428Y-13456429D01*
X5902857Y-13470714D01*
X5845714Y-13470714D01*
X5817143Y-13456429D01*
X6088571Y-13442143D02*
X6102857Y-13456429D01*
X6088571Y-13470714D01*
X6074286Y-13456429D01*
X6088571Y-13442143D01*
X6088571Y-13470714D01*
X6088571Y-13285000D02*
X6102857Y-13299286D01*
X6088571Y-13313571D01*
X6074286Y-13299286D01*
X6088571Y-13285000D01*
X6088571Y-13313571D01*
M02*
