%TF.GenerationSoftware,KiCad,Pcbnew,5.1.10*%
%TF.CreationDate,2021-07-01T02:04:03+02:00*%
%TF.ProjectId,double-gain,646f7562-6c65-42d6-9761-696e2e6b6963,rev?*%
%TF.SameCoordinates,Original*%
%TF.FileFunction,Copper,L1,Top*%
%TF.FilePolarity,Positive*%
%FSLAX46Y46*%
G04 Gerber Fmt 4.6, Leading zero omitted, Abs format (unit mm)*
G04 Created by KiCad (PCBNEW 5.1.10) date 2021-07-01 02:04:03*
%MOMM*%
%LPD*%
G01*
G04 APERTURE LIST*
%TA.AperFunction,ComponentPad*%
%ADD10C,3.500000*%
%TD*%
%TA.AperFunction,ComponentPad*%
%ADD11O,1.600000X1.600000*%
%TD*%
%TA.AperFunction,ComponentPad*%
%ADD12R,1.600000X1.600000*%
%TD*%
%TA.AperFunction,ComponentPad*%
%ADD13C,1.600000*%
%TD*%
%TA.AperFunction,ComponentPad*%
%ADD14O,1.400000X1.400000*%
%TD*%
%TA.AperFunction,ComponentPad*%
%ADD15C,1.400000*%
%TD*%
%TA.AperFunction,ViaPad*%
%ADD16C,0.800000*%
%TD*%
%TA.AperFunction,Conductor*%
%ADD17C,0.800000*%
%TD*%
%TA.AperFunction,Conductor*%
%ADD18C,0.254000*%
%TD*%
%TA.AperFunction,Conductor*%
%ADD19C,0.100000*%
%TD*%
G04 APERTURE END LIST*
D10*
%TO.P,J1,1*%
%TO.N,Net-(D2-Pad2)*%
X46000000Y-119000000D03*
%TD*%
%TO.P,J11,1*%
%TO.N,V-*%
X56000000Y-119000000D03*
%TD*%
%TO.P,J10,1*%
%TO.N,ind*%
X66000000Y-119000000D03*
%TD*%
D11*
%TO.P,U2,8*%
%TO.N,Net-(U2-Pad8)*%
X62000000Y-86000000D03*
%TO.P,U2,4*%
%TO.N,V-*%
X69620000Y-78380000D03*
%TO.P,U2,7*%
%TO.N,VCC*%
X62000000Y-83460000D03*
%TO.P,U2,3*%
%TO.N,ind*%
X69620000Y-80920000D03*
%TO.P,U2,6*%
%TO.N,Net-(R13-Pad1)*%
X62000000Y-80920000D03*
%TO.P,U2,2*%
%TO.N,Net-(R12-Pad2)*%
X69620000Y-83460000D03*
%TO.P,U2,5*%
%TO.N,Net-(U2-Pad5)*%
X62000000Y-78380000D03*
D12*
%TO.P,U2,1*%
%TO.N,Net-(U2-Pad1)*%
X69620000Y-86000000D03*
%TD*%
D13*
%TO.P,C1,2*%
%TO.N,V-*%
X61500000Y-52000000D03*
%TO.P,C1,1*%
%TO.N,VCC*%
X61500000Y-54500000D03*
%TD*%
%TO.P,C2,1*%
%TO.N,VCC*%
X56500000Y-54500000D03*
%TO.P,C2,2*%
%TO.N,V-*%
X56500000Y-52000000D03*
%TD*%
%TO.P,C3,2*%
%TO.N,V-*%
X51500000Y-52000000D03*
%TO.P,C3,1*%
%TO.N,VCC*%
X51500000Y-54500000D03*
%TD*%
%TO.P,C4,1*%
%TO.N,/2*%
X46500000Y-54500000D03*
%TO.P,C4,2*%
%TO.N,Net-(C4-Pad2)*%
X46500000Y-52000000D03*
%TD*%
%TO.P,C6,1*%
%TO.N,V-*%
X51000000Y-73500000D03*
%TO.P,C6,2*%
%TO.N,Net-(C6-Pad2)*%
X48500000Y-73500000D03*
%TD*%
%TO.P,C7,2*%
%TO.N,Net-(C7-Pad2)*%
X66500000Y-52000000D03*
%TO.P,C7,1*%
%TO.N,/3*%
X66500000Y-54500000D03*
%TD*%
%TO.P,C8,1*%
%TO.N,Net-(C8-Pad1)*%
X57500000Y-113000000D03*
%TO.P,C8,2*%
%TO.N,V-*%
X55000000Y-113000000D03*
%TD*%
D11*
%TO.P,D1,2*%
%TO.N,V-*%
X52380000Y-68000000D03*
D12*
%TO.P,D1,1*%
%TO.N,Net-(D1-Pad1)*%
X60000000Y-68000000D03*
%TD*%
%TO.P,D2,1*%
%TO.N,VCC*%
X46380000Y-98000000D03*
D11*
%TO.P,D2,2*%
%TO.N,Net-(D2-Pad2)*%
X54000000Y-98000000D03*
%TD*%
D12*
%TO.P,D3,1*%
%TO.N,Net-(D2-Pad2)*%
X59000000Y-98000000D03*
D11*
%TO.P,D3,2*%
%TO.N,V-*%
X66620000Y-98000000D03*
%TD*%
D10*
%TO.P,J6,1*%
%TO.N,Earth*%
X42500000Y-125000000D03*
%TD*%
%TO.P,J7,1*%
%TO.N,Earth*%
X70000000Y-37500000D03*
%TD*%
%TO.P,J8,1*%
%TO.N,Earth*%
X42500000Y-37500000D03*
%TD*%
%TO.P,J9,1*%
%TO.N,Earth*%
X70000000Y-125000000D03*
%TD*%
D14*
%TO.P,R1,2*%
%TO.N,VCC*%
X65000000Y-69080000D03*
D15*
%TO.P,R1,1*%
%TO.N,Net-(D1-Pad1)*%
X65000000Y-64000000D03*
%TD*%
D14*
%TO.P,R2,2*%
%TO.N,Net-(R2-Pad2)*%
X54500000Y-84000000D03*
D15*
%TO.P,R2,1*%
%TO.N,Net-(R2-Pad1)*%
X54500000Y-78920000D03*
%TD*%
%TO.P,R3,1*%
%TO.N,Net-(D1-Pad1)*%
X44000000Y-69000000D03*
D14*
%TO.P,R3,2*%
%TO.N,/2*%
X44000000Y-63920000D03*
%TD*%
%TO.P,R4,2*%
%TO.N,/3*%
X53920000Y-64000000D03*
D15*
%TO.P,R4,1*%
%TO.N,Net-(D1-Pad1)*%
X59000000Y-64000000D03*
%TD*%
%TO.P,R5,1*%
%TO.N,Net-(C4-Pad2)*%
X48000000Y-64000000D03*
D14*
%TO.P,R5,2*%
%TO.N,Net-(R2-Pad1)*%
X48000000Y-69080000D03*
%TD*%
%TO.P,R6,2*%
%TO.N,Net-(C8-Pad1)*%
X54500000Y-108000000D03*
D15*
%TO.P,R6,1*%
%TO.N,VCC*%
X49420000Y-108000000D03*
%TD*%
D14*
%TO.P,R7,2*%
%TO.N,Net-(D2-Pad2)*%
X46500000Y-110080000D03*
D15*
%TO.P,R7,1*%
%TO.N,Net-(C8-Pad1)*%
X46500000Y-105000000D03*
%TD*%
%TO.P,R8,1*%
%TO.N,Net-(C7-Pad2)*%
X69000000Y-64000000D03*
D14*
%TO.P,R8,2*%
%TO.N,Net-(R13-Pad1)*%
X69000000Y-69080000D03*
%TD*%
D15*
%TO.P,R9,1*%
%TO.N,Net-(C6-Pad2)*%
X44420000Y-91000000D03*
D14*
%TO.P,R9,2*%
%TO.N,Net-(R2-Pad2)*%
X49500000Y-91000000D03*
%TD*%
D15*
%TO.P,R10,1*%
%TO.N,Net-(C8-Pad1)*%
X62580000Y-108000000D03*
D14*
%TO.P,R10,2*%
%TO.N,V-*%
X57500000Y-108000000D03*
%TD*%
D12*
%TO.P,U1,1*%
%TO.N,Net-(U1-Pad1)*%
X51000000Y-86000000D03*
D11*
%TO.P,U1,5*%
%TO.N,Net-(U1-Pad5)*%
X43380000Y-78380000D03*
%TO.P,U1,2*%
%TO.N,Net-(R2-Pad2)*%
X51000000Y-83460000D03*
%TO.P,U1,6*%
%TO.N,Net-(R2-Pad1)*%
X43380000Y-80920000D03*
%TO.P,U1,3*%
%TO.N,Net-(D2-Pad2)*%
X51000000Y-80920000D03*
%TO.P,U1,7*%
%TO.N,VCC*%
X43380000Y-83460000D03*
%TO.P,U1,4*%
%TO.N,V-*%
X51000000Y-78380000D03*
%TO.P,U1,8*%
%TO.N,Net-(U1-Pad8)*%
X43380000Y-86000000D03*
%TD*%
D13*
%TO.P,C10,1*%
%TO.N,V-*%
X61500000Y-73500000D03*
%TO.P,C10,2*%
%TO.N,Net-(C10-Pad2)*%
X64000000Y-73500000D03*
%TD*%
D11*
%TO.P,D4,2*%
%TO.N,ind*%
X54120000Y-102000000D03*
D12*
%TO.P,D4,1*%
%TO.N,VCC*%
X46500000Y-102000000D03*
%TD*%
%TO.P,D5,1*%
%TO.N,ind*%
X59000000Y-102000000D03*
D11*
%TO.P,D5,2*%
%TO.N,V-*%
X66620000Y-102000000D03*
%TD*%
D15*
%TO.P,R11,1*%
%TO.N,Net-(C8-Pad1)*%
X66500000Y-104500000D03*
D14*
%TO.P,R11,2*%
%TO.N,ind*%
X66500000Y-109580000D03*
%TD*%
D15*
%TO.P,R12,1*%
%TO.N,Net-(C10-Pad2)*%
X63000000Y-91000000D03*
D14*
%TO.P,R12,2*%
%TO.N,Net-(R12-Pad2)*%
X68080000Y-91000000D03*
%TD*%
%TO.P,R13,2*%
%TO.N,Net-(R12-Pad2)*%
X58500000Y-84080000D03*
D15*
%TO.P,R13,1*%
%TO.N,Net-(R13-Pad1)*%
X58500000Y-79000000D03*
%TD*%
D10*
%TO.P,J2,1*%
%TO.N,/2*%
X56000000Y-39800000D03*
%TD*%
%TO.P,J3,1*%
%TO.N,/3*%
X50800000Y-39800000D03*
%TD*%
%TO.P,J4,1*%
%TO.N,V-*%
X61400000Y-39800000D03*
%TD*%
D16*
%TO.N,Earth*%
X59000000Y-53200000D03*
X69600000Y-88600000D03*
X55200000Y-53400000D03*
X60200000Y-75600000D03*
X49600000Y-79600000D03*
X67400000Y-78000000D03*
X60800000Y-82200000D03*
%TD*%
D17*
%TO.N,Net-(C6-Pad2)*%
X44420000Y-91000000D02*
X48500000Y-86920000D01*
X48500000Y-86920000D02*
X48500000Y-73500000D01*
%TO.N,V-*%
X69620000Y-78380000D02*
X69620000Y-76780000D01*
X61500000Y-73500000D02*
X62910400Y-72089600D01*
X62910400Y-72089600D02*
X64929600Y-72089600D01*
X64929600Y-72089600D02*
X69620000Y-76780000D01*
X66620000Y-102000000D02*
X66620000Y-98000000D01*
X55000000Y-113000000D02*
X55000000Y-118000000D01*
X55000000Y-118000000D02*
X56000000Y-119000000D01*
X57500000Y-109500000D02*
X55000000Y-112000000D01*
X55000000Y-112000000D02*
X55000000Y-113000000D01*
X52380000Y-68000000D02*
X52380000Y-66400000D01*
X52380000Y-66400000D02*
X50050200Y-64070200D01*
X50050200Y-64070200D02*
X50050200Y-53449800D01*
X50050200Y-53449800D02*
X51500000Y-52000000D01*
X57500000Y-108000000D02*
X57500000Y-109500000D01*
X61400000Y-52000000D02*
X61500000Y-52000000D01*
X61400000Y-52000000D02*
X61400000Y-39800000D01*
X51000000Y-78380000D02*
X51000000Y-73500000D01*
X60200000Y-50800000D02*
X61400000Y-52000000D01*
X57700000Y-50800000D02*
X60200000Y-50800000D01*
X56500000Y-52000000D02*
X57700000Y-50800000D01*
X66620000Y-88794229D02*
X67000011Y-88414218D01*
X66620000Y-98000000D02*
X66620000Y-88794229D01*
X67000011Y-80999989D02*
X69620000Y-78380000D01*
X67000011Y-88414218D02*
X67000011Y-80999989D01*
%TO.N,VCC*%
X65000000Y-69080000D02*
X65000000Y-68330000D01*
X62000000Y-83460000D02*
X60400000Y-83460000D01*
X46380000Y-98800000D02*
X60400000Y-84780000D01*
X60400000Y-84780000D02*
X60400000Y-83460000D01*
X46380000Y-98800000D02*
X46380000Y-99600000D01*
X46380000Y-98000000D02*
X46380000Y-98800000D01*
X46380000Y-99600000D02*
X46500000Y-99720000D01*
X46500000Y-99720000D02*
X46500000Y-102000000D01*
X65000000Y-68330000D02*
X65000000Y-67580000D01*
X46500000Y-102000000D02*
X46500000Y-103600000D01*
X46500000Y-103600000D02*
X47000000Y-103600000D01*
X47000000Y-103600000D02*
X49420000Y-106020000D01*
X49420000Y-106020000D02*
X49420000Y-108000000D01*
X65000000Y-67580000D02*
X61500000Y-64080000D01*
X61500000Y-64080000D02*
X61500000Y-54500000D01*
X60400000Y-55600000D02*
X61500000Y-54500000D01*
X57600000Y-55600000D02*
X60400000Y-55600000D01*
X56500000Y-54500000D02*
X57600000Y-55600000D01*
X59000000Y-82060000D02*
X60400000Y-83460000D01*
X59000000Y-80300001D02*
X59000000Y-82060000D01*
X59124001Y-80300001D02*
X59000000Y-80300001D01*
X59800001Y-79624001D02*
X59124001Y-80300001D01*
X59124001Y-77699999D02*
X59800001Y-78375999D01*
X59800001Y-78375999D02*
X59800001Y-79624001D01*
X59000000Y-77699999D02*
X59124001Y-77699999D01*
X59000000Y-73580000D02*
X59000000Y-77699999D01*
X63500000Y-69080000D02*
X59000000Y-73580000D01*
X65000000Y-69080000D02*
X63500000Y-69080000D01*
%TO.N,Net-(R2-Pad2)*%
X49500000Y-91000000D02*
X49500000Y-89500000D01*
X51000000Y-83460000D02*
X49550000Y-84910000D01*
X49550000Y-84910000D02*
X49550000Y-89450000D01*
X49550000Y-89450000D02*
X49500000Y-89500000D01*
%TO.N,Earth*%
X70000000Y-125000000D02*
X71021200Y-123978800D01*
X71021200Y-38521200D02*
X70000000Y-37500000D01*
%TO.N,ind*%
X59000000Y-102000000D02*
X60600000Y-102000000D01*
X66500000Y-109580000D02*
X66500000Y-108080000D01*
X66500000Y-108080000D02*
X60600000Y-102180000D01*
X60600000Y-102180000D02*
X60600000Y-102000000D01*
X66500000Y-110184200D02*
X66500000Y-109580000D01*
X66500000Y-110184200D02*
X66500000Y-111080000D01*
X66500000Y-111080000D02*
X66000000Y-111580000D01*
X66000000Y-111580000D02*
X66000000Y-119000000D01*
%TO.N,Net-(C10-Pad2)*%
X66000000Y-75500000D02*
X64000000Y-73500000D01*
X66000000Y-88000000D02*
X66000000Y-75500000D01*
X63000000Y-91000000D02*
X66000000Y-88000000D01*
%TO.N,/3*%
X53920000Y-64000000D02*
X53920000Y-42920000D01*
X53920000Y-42920000D02*
X50800000Y-39800000D01*
%TO.N,Net-(D2-Pad2)*%
X59000000Y-98000000D02*
X57400000Y-98000000D01*
X54000000Y-98800000D02*
X56600000Y-98800000D01*
X56600000Y-98800000D02*
X57400000Y-98000000D01*
X54000000Y-98800000D02*
X54000000Y-99600000D01*
X54000000Y-98000000D02*
X54000000Y-98800000D01*
X46500000Y-110830000D02*
X48466600Y-110830000D01*
X48466600Y-110830000D02*
X51400400Y-107896200D01*
X51400400Y-107896200D02*
X51400400Y-102199600D01*
X51400400Y-102199600D02*
X54000000Y-99600000D01*
X46500000Y-110830000D02*
X46500000Y-111580000D01*
X46500000Y-110080000D02*
X46500000Y-110830000D01*
X46500000Y-111580000D02*
X46000000Y-112080000D01*
X46000000Y-112080000D02*
X46000000Y-119000000D01*
%TD*%
D18*
%TO.N,Earth*%
X74315001Y-129315000D02*
X38185000Y-129315000D01*
X38185000Y-118765098D01*
X43615000Y-118765098D01*
X43615000Y-119234902D01*
X43706654Y-119695679D01*
X43886440Y-120129721D01*
X44147450Y-120520349D01*
X44479651Y-120852550D01*
X44870279Y-121113560D01*
X45304321Y-121293346D01*
X45765098Y-121385000D01*
X46234902Y-121385000D01*
X46695679Y-121293346D01*
X47129721Y-121113560D01*
X47520349Y-120852550D01*
X47852550Y-120520349D01*
X48113560Y-120129721D01*
X48293346Y-119695679D01*
X48385000Y-119234902D01*
X48385000Y-118765098D01*
X48293346Y-118304321D01*
X48113560Y-117870279D01*
X47852550Y-117479651D01*
X47520349Y-117147450D01*
X47129721Y-116886440D01*
X47035000Y-116847205D01*
X47035000Y-112858665D01*
X53565000Y-112858665D01*
X53565000Y-113141335D01*
X53620147Y-113418574D01*
X53728320Y-113679727D01*
X53885363Y-113914759D01*
X53965000Y-113994396D01*
X53965001Y-117752705D01*
X53886440Y-117870279D01*
X53706654Y-118304321D01*
X53615000Y-118765098D01*
X53615000Y-119234902D01*
X53706654Y-119695679D01*
X53886440Y-120129721D01*
X54147450Y-120520349D01*
X54479651Y-120852550D01*
X54870279Y-121113560D01*
X55304321Y-121293346D01*
X55765098Y-121385000D01*
X56234902Y-121385000D01*
X56695679Y-121293346D01*
X57129721Y-121113560D01*
X57520349Y-120852550D01*
X57852550Y-120520349D01*
X58113560Y-120129721D01*
X58293346Y-119695679D01*
X58385000Y-119234902D01*
X58385000Y-118765098D01*
X58293346Y-118304321D01*
X58113560Y-117870279D01*
X57852550Y-117479651D01*
X57520349Y-117147450D01*
X57129721Y-116886440D01*
X56695679Y-116706654D01*
X56234902Y-116615000D01*
X56035000Y-116615000D01*
X56035000Y-113994396D01*
X56114637Y-113914759D01*
X56250000Y-113712173D01*
X56385363Y-113914759D01*
X56585241Y-114114637D01*
X56820273Y-114271680D01*
X57081426Y-114379853D01*
X57358665Y-114435000D01*
X57641335Y-114435000D01*
X57918574Y-114379853D01*
X58179727Y-114271680D01*
X58414759Y-114114637D01*
X58614637Y-113914759D01*
X58771680Y-113679727D01*
X58879853Y-113418574D01*
X58935000Y-113141335D01*
X58935000Y-112858665D01*
X58879853Y-112581426D01*
X58771680Y-112320273D01*
X58614637Y-112085241D01*
X58414759Y-111885363D01*
X58179727Y-111728320D01*
X57918574Y-111620147D01*
X57641335Y-111565000D01*
X57358665Y-111565000D01*
X57081426Y-111620147D01*
X56820273Y-111728320D01*
X56585241Y-111885363D01*
X56385363Y-112085241D01*
X56250000Y-112287827D01*
X56220313Y-112243397D01*
X58195908Y-110267803D01*
X58235396Y-110235396D01*
X58299080Y-110157797D01*
X58364734Y-110077798D01*
X58460840Y-109897994D01*
X58460841Y-109897993D01*
X58520024Y-109702895D01*
X58535000Y-109550838D01*
X58535000Y-109550836D01*
X58540007Y-109500000D01*
X58535000Y-109449165D01*
X58535000Y-108852975D01*
X58536962Y-108851013D01*
X58683061Y-108632359D01*
X58783696Y-108389405D01*
X58835000Y-108131486D01*
X58835000Y-107868514D01*
X61245000Y-107868514D01*
X61245000Y-108131486D01*
X61296304Y-108389405D01*
X61396939Y-108632359D01*
X61543038Y-108851013D01*
X61728987Y-109036962D01*
X61947641Y-109183061D01*
X62190595Y-109283696D01*
X62448514Y-109335000D01*
X62711486Y-109335000D01*
X62969405Y-109283696D01*
X63212359Y-109183061D01*
X63431013Y-109036962D01*
X63616962Y-108851013D01*
X63763061Y-108632359D01*
X63863696Y-108389405D01*
X63915000Y-108131486D01*
X63915000Y-107868514D01*
X63863696Y-107610595D01*
X63763061Y-107367641D01*
X63616962Y-107148987D01*
X63431013Y-106963038D01*
X63212359Y-106816939D01*
X62969405Y-106716304D01*
X62711486Y-106665000D01*
X62448514Y-106665000D01*
X62190595Y-106716304D01*
X61947641Y-106816939D01*
X61728987Y-106963038D01*
X61543038Y-107148987D01*
X61396939Y-107367641D01*
X61296304Y-107610595D01*
X61245000Y-107868514D01*
X58835000Y-107868514D01*
X58783696Y-107610595D01*
X58683061Y-107367641D01*
X58536962Y-107148987D01*
X58351013Y-106963038D01*
X58132359Y-106816939D01*
X57889405Y-106716304D01*
X57631486Y-106665000D01*
X57368514Y-106665000D01*
X57110595Y-106716304D01*
X56867641Y-106816939D01*
X56648987Y-106963038D01*
X56463038Y-107148987D01*
X56316939Y-107367641D01*
X56216304Y-107610595D01*
X56165000Y-107868514D01*
X56165000Y-108131486D01*
X56216304Y-108389405D01*
X56316939Y-108632359D01*
X56463038Y-108851013D01*
X56465001Y-108852976D01*
X56465001Y-109071288D01*
X54304097Y-111232193D01*
X54264604Y-111264604D01*
X54135266Y-111422203D01*
X54039159Y-111602008D01*
X53979976Y-111797106D01*
X53965000Y-111949163D01*
X53965000Y-111949172D01*
X53959994Y-112000000D01*
X53960945Y-112009659D01*
X53885363Y-112085241D01*
X53728320Y-112320273D01*
X53620147Y-112581426D01*
X53565000Y-112858665D01*
X47035000Y-112858665D01*
X47035000Y-112508710D01*
X47195903Y-112347807D01*
X47235396Y-112315396D01*
X47364734Y-112157797D01*
X47460841Y-111977993D01*
X47495117Y-111865000D01*
X48415772Y-111865000D01*
X48466600Y-111870006D01*
X48517428Y-111865000D01*
X48517438Y-111865000D01*
X48669495Y-111850024D01*
X48864593Y-111790841D01*
X49044397Y-111694734D01*
X49201996Y-111565396D01*
X49234407Y-111525903D01*
X52096308Y-108664003D01*
X52135796Y-108631596D01*
X52210973Y-108539993D01*
X52265134Y-108473998D01*
X52316504Y-108377891D01*
X52361241Y-108294193D01*
X52420424Y-108099095D01*
X52435400Y-107947038D01*
X52435400Y-107947035D01*
X52440407Y-107896200D01*
X52437681Y-107868514D01*
X53165000Y-107868514D01*
X53165000Y-108131486D01*
X53216304Y-108389405D01*
X53316939Y-108632359D01*
X53463038Y-108851013D01*
X53648987Y-109036962D01*
X53867641Y-109183061D01*
X54110595Y-109283696D01*
X54368514Y-109335000D01*
X54631486Y-109335000D01*
X54889405Y-109283696D01*
X55132359Y-109183061D01*
X55351013Y-109036962D01*
X55536962Y-108851013D01*
X55683061Y-108632359D01*
X55783696Y-108389405D01*
X55835000Y-108131486D01*
X55835000Y-107868514D01*
X55783696Y-107610595D01*
X55683061Y-107367641D01*
X55536962Y-107148987D01*
X55351013Y-106963038D01*
X55132359Y-106816939D01*
X54889405Y-106716304D01*
X54631486Y-106665000D01*
X54368514Y-106665000D01*
X54110595Y-106716304D01*
X53867641Y-106816939D01*
X53648987Y-106963038D01*
X53463038Y-107148987D01*
X53316939Y-107367641D01*
X53216304Y-107610595D01*
X53165000Y-107868514D01*
X52437681Y-107868514D01*
X52435400Y-107845365D01*
X52435400Y-102628310D01*
X52724384Y-102339327D01*
X52740147Y-102418574D01*
X52848320Y-102679727D01*
X53005363Y-102914759D01*
X53205241Y-103114637D01*
X53440273Y-103271680D01*
X53701426Y-103379853D01*
X53978665Y-103435000D01*
X54261335Y-103435000D01*
X54538574Y-103379853D01*
X54799727Y-103271680D01*
X55034759Y-103114637D01*
X55234637Y-102914759D01*
X55391680Y-102679727D01*
X55499853Y-102418574D01*
X55555000Y-102141335D01*
X55555000Y-101858665D01*
X55499853Y-101581426D01*
X55391680Y-101320273D01*
X55311317Y-101200000D01*
X57561928Y-101200000D01*
X57561928Y-102800000D01*
X57574188Y-102924482D01*
X57610498Y-103044180D01*
X57669463Y-103154494D01*
X57748815Y-103251185D01*
X57845506Y-103330537D01*
X57955820Y-103389502D01*
X58075518Y-103425812D01*
X58200000Y-103438072D01*
X59800000Y-103438072D01*
X59924482Y-103425812D01*
X60044180Y-103389502D01*
X60154494Y-103330537D01*
X60227177Y-103270887D01*
X65465001Y-108508712D01*
X65465001Y-108727024D01*
X65463038Y-108728987D01*
X65316939Y-108947641D01*
X65216304Y-109190595D01*
X65165000Y-109448514D01*
X65165000Y-109711486D01*
X65216304Y-109969405D01*
X65316939Y-110212359D01*
X65463038Y-110431013D01*
X65465000Y-110432975D01*
X65465000Y-110651290D01*
X65304097Y-110812193D01*
X65264604Y-110844604D01*
X65135266Y-111002203D01*
X65039159Y-111182008D01*
X64979976Y-111377106D01*
X64965000Y-111529163D01*
X64965000Y-111529172D01*
X64959994Y-111580000D01*
X64965000Y-111630828D01*
X64965001Y-116847205D01*
X64870279Y-116886440D01*
X64479651Y-117147450D01*
X64147450Y-117479651D01*
X63886440Y-117870279D01*
X63706654Y-118304321D01*
X63615000Y-118765098D01*
X63615000Y-119234902D01*
X63706654Y-119695679D01*
X63886440Y-120129721D01*
X64147450Y-120520349D01*
X64479651Y-120852550D01*
X64870279Y-121113560D01*
X65304321Y-121293346D01*
X65765098Y-121385000D01*
X66234902Y-121385000D01*
X66695679Y-121293346D01*
X67129721Y-121113560D01*
X67520349Y-120852550D01*
X67852550Y-120520349D01*
X68113560Y-120129721D01*
X68293346Y-119695679D01*
X68385000Y-119234902D01*
X68385000Y-118765098D01*
X68293346Y-118304321D01*
X68113560Y-117870279D01*
X67852550Y-117479651D01*
X67520349Y-117147450D01*
X67129721Y-116886440D01*
X67035000Y-116847205D01*
X67035000Y-112008710D01*
X67195903Y-111847807D01*
X67235396Y-111815396D01*
X67364734Y-111657797D01*
X67460841Y-111477993D01*
X67520024Y-111282895D01*
X67535000Y-111130837D01*
X67535000Y-111130835D01*
X67540007Y-111080000D01*
X67535000Y-111029165D01*
X67535000Y-110432975D01*
X67536962Y-110431013D01*
X67683061Y-110212359D01*
X67783696Y-109969405D01*
X67835000Y-109711486D01*
X67835000Y-109448514D01*
X67783696Y-109190595D01*
X67683061Y-108947641D01*
X67536962Y-108728987D01*
X67535000Y-108727025D01*
X67535000Y-108130827D01*
X67540006Y-108079999D01*
X67535000Y-108029171D01*
X67535000Y-108029162D01*
X67520024Y-107877105D01*
X67460841Y-107682007D01*
X67416104Y-107598309D01*
X67364734Y-107502202D01*
X67267803Y-107384092D01*
X67235396Y-107344604D01*
X67195908Y-107312197D01*
X61593553Y-101709843D01*
X61560841Y-101602007D01*
X61464734Y-101422203D01*
X61335396Y-101264604D01*
X61177797Y-101135266D01*
X60997993Y-101039159D01*
X60802895Y-100979976D01*
X60650838Y-100965000D01*
X60600000Y-100959993D01*
X60549162Y-100965000D01*
X60392287Y-100965000D01*
X60389502Y-100955820D01*
X60330537Y-100845506D01*
X60251185Y-100748815D01*
X60154494Y-100669463D01*
X60044180Y-100610498D01*
X59924482Y-100574188D01*
X59800000Y-100561928D01*
X58200000Y-100561928D01*
X58075518Y-100574188D01*
X57955820Y-100610498D01*
X57845506Y-100669463D01*
X57748815Y-100748815D01*
X57669463Y-100845506D01*
X57610498Y-100955820D01*
X57574188Y-101075518D01*
X57561928Y-101200000D01*
X55311317Y-101200000D01*
X55234637Y-101085241D01*
X55034759Y-100885363D01*
X54799727Y-100728320D01*
X54538574Y-100620147D01*
X54459327Y-100604384D01*
X54695908Y-100367803D01*
X54735396Y-100335396D01*
X54767804Y-100295907D01*
X54864734Y-100177798D01*
X54960841Y-99997994D01*
X54983622Y-99922895D01*
X55010285Y-99835000D01*
X56549172Y-99835000D01*
X56600000Y-99840006D01*
X56650828Y-99835000D01*
X56650838Y-99835000D01*
X56802895Y-99820024D01*
X56997993Y-99760841D01*
X57177797Y-99664734D01*
X57335396Y-99535396D01*
X57367807Y-99495903D01*
X57687382Y-99176328D01*
X57748815Y-99251185D01*
X57845506Y-99330537D01*
X57955820Y-99389502D01*
X58075518Y-99425812D01*
X58200000Y-99438072D01*
X59800000Y-99438072D01*
X59924482Y-99425812D01*
X60044180Y-99389502D01*
X60154494Y-99330537D01*
X60251185Y-99251185D01*
X60330537Y-99154494D01*
X60389502Y-99044180D01*
X60425812Y-98924482D01*
X60438072Y-98800000D01*
X60438072Y-97200000D01*
X60425812Y-97075518D01*
X60389502Y-96955820D01*
X60330537Y-96845506D01*
X60251185Y-96748815D01*
X60154494Y-96669463D01*
X60044180Y-96610498D01*
X59924482Y-96574188D01*
X59800000Y-96561928D01*
X58200000Y-96561928D01*
X58075518Y-96574188D01*
X57955820Y-96610498D01*
X57845506Y-96669463D01*
X57748815Y-96748815D01*
X57669463Y-96845506D01*
X57610498Y-96955820D01*
X57607713Y-96965000D01*
X57450835Y-96965000D01*
X57400000Y-96959993D01*
X57349165Y-96965000D01*
X57349162Y-96965000D01*
X57197105Y-96979976D01*
X57002007Y-97039159D01*
X56933984Y-97075518D01*
X56822202Y-97135266D01*
X56743324Y-97200000D01*
X56664604Y-97264604D01*
X56632197Y-97304092D01*
X56171290Y-97765000D01*
X55416369Y-97765000D01*
X55379853Y-97581426D01*
X55271680Y-97320273D01*
X55114637Y-97085241D01*
X54914759Y-96885363D01*
X54679727Y-96728320D01*
X54418574Y-96620147D01*
X54141335Y-96565000D01*
X53858665Y-96565000D01*
X53581426Y-96620147D01*
X53320273Y-96728320D01*
X53085241Y-96885363D01*
X52885363Y-97085241D01*
X52728320Y-97320273D01*
X52620147Y-97581426D01*
X52565000Y-97858665D01*
X52565000Y-98141335D01*
X52620147Y-98418574D01*
X52728320Y-98679727D01*
X52885363Y-98914759D01*
X52965000Y-98994396D01*
X52965000Y-99171289D01*
X50704492Y-101431798D01*
X50665005Y-101464204D01*
X50632598Y-101503692D01*
X50632597Y-101503693D01*
X50535666Y-101621803D01*
X50439560Y-101801607D01*
X50380377Y-101996705D01*
X50360394Y-102199600D01*
X50365401Y-102250438D01*
X50365400Y-105593120D01*
X50335384Y-105536962D01*
X50284734Y-105442202D01*
X50187803Y-105324092D01*
X50155396Y-105284604D01*
X50115908Y-105252197D01*
X47893782Y-103030072D01*
X47925812Y-102924482D01*
X47938072Y-102800000D01*
X47938072Y-101200000D01*
X47925812Y-101075518D01*
X47889502Y-100955820D01*
X47830537Y-100845506D01*
X47751185Y-100748815D01*
X47654494Y-100669463D01*
X47544180Y-100610498D01*
X47535000Y-100607713D01*
X47535000Y-99770835D01*
X47540007Y-99720000D01*
X47528188Y-99600000D01*
X47520024Y-99517105D01*
X47473344Y-99363223D01*
X47534494Y-99330537D01*
X47631185Y-99251185D01*
X47710537Y-99154494D01*
X47769502Y-99044180D01*
X47805812Y-98924482D01*
X47815271Y-98828439D01*
X60565000Y-86078711D01*
X60565000Y-86141335D01*
X60620147Y-86418574D01*
X60728320Y-86679727D01*
X60885363Y-86914759D01*
X61085241Y-87114637D01*
X61320273Y-87271680D01*
X61581426Y-87379853D01*
X61858665Y-87435000D01*
X62141335Y-87435000D01*
X62418574Y-87379853D01*
X62679727Y-87271680D01*
X62914759Y-87114637D01*
X63114637Y-86914759D01*
X63271680Y-86679727D01*
X63379853Y-86418574D01*
X63435000Y-86141335D01*
X63435000Y-85858665D01*
X63379853Y-85581426D01*
X63271680Y-85320273D01*
X63114637Y-85085241D01*
X62914759Y-84885363D01*
X62682241Y-84730000D01*
X62914759Y-84574637D01*
X63114637Y-84374759D01*
X63271680Y-84139727D01*
X63379853Y-83878574D01*
X63435000Y-83601335D01*
X63435000Y-83318665D01*
X63379853Y-83041426D01*
X63271680Y-82780273D01*
X63114637Y-82545241D01*
X62914759Y-82345363D01*
X62682241Y-82190000D01*
X62914759Y-82034637D01*
X63114637Y-81834759D01*
X63271680Y-81599727D01*
X63379853Y-81338574D01*
X63435000Y-81061335D01*
X63435000Y-80778665D01*
X63379853Y-80501426D01*
X63271680Y-80240273D01*
X63114637Y-80005241D01*
X62914759Y-79805363D01*
X62682241Y-79650000D01*
X62914759Y-79494637D01*
X63114637Y-79294759D01*
X63271680Y-79059727D01*
X63379853Y-78798574D01*
X63435000Y-78521335D01*
X63435000Y-78238665D01*
X63379853Y-77961426D01*
X63271680Y-77700273D01*
X63114637Y-77465241D01*
X62914759Y-77265363D01*
X62679727Y-77108320D01*
X62418574Y-77000147D01*
X62141335Y-76945000D01*
X61858665Y-76945000D01*
X61581426Y-77000147D01*
X61320273Y-77108320D01*
X61085241Y-77265363D01*
X60885363Y-77465241D01*
X60728320Y-77700273D01*
X60677705Y-77822467D01*
X60664735Y-77798201D01*
X60597523Y-77716304D01*
X60535397Y-77640603D01*
X60495904Y-77608192D01*
X60035000Y-77147288D01*
X60035000Y-74008710D01*
X60121608Y-73922102D01*
X60228320Y-74179727D01*
X60385363Y-74414759D01*
X60585241Y-74614637D01*
X60820273Y-74771680D01*
X61081426Y-74879853D01*
X61358665Y-74935000D01*
X61641335Y-74935000D01*
X61918574Y-74879853D01*
X62179727Y-74771680D01*
X62414759Y-74614637D01*
X62614637Y-74414759D01*
X62750000Y-74212173D01*
X62885363Y-74414759D01*
X63085241Y-74614637D01*
X63320273Y-74771680D01*
X63581426Y-74879853D01*
X63858665Y-74935000D01*
X63971290Y-74935000D01*
X64965001Y-75928712D01*
X64965000Y-87571289D01*
X62871290Y-89665000D01*
X62868514Y-89665000D01*
X62610595Y-89716304D01*
X62367641Y-89816939D01*
X62148987Y-89963038D01*
X61963038Y-90148987D01*
X61816939Y-90367641D01*
X61716304Y-90610595D01*
X61665000Y-90868514D01*
X61665000Y-91131486D01*
X61716304Y-91389405D01*
X61816939Y-91632359D01*
X61963038Y-91851013D01*
X62148987Y-92036962D01*
X62367641Y-92183061D01*
X62610595Y-92283696D01*
X62868514Y-92335000D01*
X63131486Y-92335000D01*
X63389405Y-92283696D01*
X63632359Y-92183061D01*
X63851013Y-92036962D01*
X64036962Y-91851013D01*
X64183061Y-91632359D01*
X64283696Y-91389405D01*
X64335000Y-91131486D01*
X64335000Y-91128710D01*
X65585001Y-89878710D01*
X65585000Y-97005604D01*
X65505363Y-97085241D01*
X65348320Y-97320273D01*
X65240147Y-97581426D01*
X65185000Y-97858665D01*
X65185000Y-98141335D01*
X65240147Y-98418574D01*
X65348320Y-98679727D01*
X65505363Y-98914759D01*
X65585001Y-98994397D01*
X65585000Y-101005604D01*
X65505363Y-101085241D01*
X65348320Y-101320273D01*
X65240147Y-101581426D01*
X65185000Y-101858665D01*
X65185000Y-102141335D01*
X65240147Y-102418574D01*
X65348320Y-102679727D01*
X65505363Y-102914759D01*
X65705241Y-103114637D01*
X65940273Y-103271680D01*
X65958589Y-103279267D01*
X65867641Y-103316939D01*
X65648987Y-103463038D01*
X65463038Y-103648987D01*
X65316939Y-103867641D01*
X65216304Y-104110595D01*
X65165000Y-104368514D01*
X65165000Y-104631486D01*
X65216304Y-104889405D01*
X65316939Y-105132359D01*
X65463038Y-105351013D01*
X65648987Y-105536962D01*
X65867641Y-105683061D01*
X66110595Y-105783696D01*
X66368514Y-105835000D01*
X66631486Y-105835000D01*
X66889405Y-105783696D01*
X67132359Y-105683061D01*
X67351013Y-105536962D01*
X67536962Y-105351013D01*
X67683061Y-105132359D01*
X67783696Y-104889405D01*
X67835000Y-104631486D01*
X67835000Y-104368514D01*
X67783696Y-104110595D01*
X67683061Y-103867641D01*
X67536962Y-103648987D01*
X67351013Y-103463038D01*
X67154594Y-103331796D01*
X67299727Y-103271680D01*
X67534759Y-103114637D01*
X67734637Y-102914759D01*
X67891680Y-102679727D01*
X67999853Y-102418574D01*
X68055000Y-102141335D01*
X68055000Y-101858665D01*
X67999853Y-101581426D01*
X67891680Y-101320273D01*
X67734637Y-101085241D01*
X67655000Y-101005604D01*
X67655000Y-98994396D01*
X67734637Y-98914759D01*
X67891680Y-98679727D01*
X67999853Y-98418574D01*
X68055000Y-98141335D01*
X68055000Y-97858665D01*
X67999853Y-97581426D01*
X67891680Y-97320273D01*
X67734637Y-97085241D01*
X67655000Y-97005604D01*
X67655000Y-92268952D01*
X67690595Y-92283696D01*
X67948514Y-92335000D01*
X68211486Y-92335000D01*
X68469405Y-92283696D01*
X68712359Y-92183061D01*
X68931013Y-92036962D01*
X69116962Y-91851013D01*
X69263061Y-91632359D01*
X69363696Y-91389405D01*
X69415000Y-91131486D01*
X69415000Y-90868514D01*
X69363696Y-90610595D01*
X69263061Y-90367641D01*
X69116962Y-90148987D01*
X68931013Y-89963038D01*
X68712359Y-89816939D01*
X68469405Y-89716304D01*
X68211486Y-89665000D01*
X67948514Y-89665000D01*
X67690595Y-89716304D01*
X67655000Y-89731048D01*
X67655000Y-89222939D01*
X67695914Y-89182025D01*
X67735407Y-89149614D01*
X67864745Y-88992015D01*
X67960852Y-88812211D01*
X68020035Y-88617113D01*
X68035011Y-88465056D01*
X68035011Y-88465053D01*
X68040018Y-88414218D01*
X68035011Y-88363383D01*
X68035011Y-81428699D01*
X68221065Y-81242645D01*
X68240147Y-81338574D01*
X68348320Y-81599727D01*
X68505363Y-81834759D01*
X68705241Y-82034637D01*
X68937759Y-82190000D01*
X68705241Y-82345363D01*
X68505363Y-82545241D01*
X68348320Y-82780273D01*
X68240147Y-83041426D01*
X68185000Y-83318665D01*
X68185000Y-83601335D01*
X68240147Y-83878574D01*
X68348320Y-84139727D01*
X68505363Y-84374759D01*
X68703961Y-84573357D01*
X68695518Y-84574188D01*
X68575820Y-84610498D01*
X68465506Y-84669463D01*
X68368815Y-84748815D01*
X68289463Y-84845506D01*
X68230498Y-84955820D01*
X68194188Y-85075518D01*
X68181928Y-85200000D01*
X68181928Y-86800000D01*
X68194188Y-86924482D01*
X68230498Y-87044180D01*
X68289463Y-87154494D01*
X68368815Y-87251185D01*
X68465506Y-87330537D01*
X68575820Y-87389502D01*
X68695518Y-87425812D01*
X68820000Y-87438072D01*
X70420000Y-87438072D01*
X70544482Y-87425812D01*
X70664180Y-87389502D01*
X70774494Y-87330537D01*
X70871185Y-87251185D01*
X70950537Y-87154494D01*
X71009502Y-87044180D01*
X71045812Y-86924482D01*
X71058072Y-86800000D01*
X71058072Y-85200000D01*
X71045812Y-85075518D01*
X71009502Y-84955820D01*
X70950537Y-84845506D01*
X70871185Y-84748815D01*
X70774494Y-84669463D01*
X70664180Y-84610498D01*
X70544482Y-84574188D01*
X70536039Y-84573357D01*
X70734637Y-84374759D01*
X70891680Y-84139727D01*
X70999853Y-83878574D01*
X71055000Y-83601335D01*
X71055000Y-83318665D01*
X70999853Y-83041426D01*
X70891680Y-82780273D01*
X70734637Y-82545241D01*
X70534759Y-82345363D01*
X70302241Y-82190000D01*
X70534759Y-82034637D01*
X70734637Y-81834759D01*
X70891680Y-81599727D01*
X70999853Y-81338574D01*
X71055000Y-81061335D01*
X71055000Y-80778665D01*
X70999853Y-80501426D01*
X70891680Y-80240273D01*
X70734637Y-80005241D01*
X70534759Y-79805363D01*
X70302241Y-79650000D01*
X70534759Y-79494637D01*
X70734637Y-79294759D01*
X70891680Y-79059727D01*
X70999853Y-78798574D01*
X71055000Y-78521335D01*
X71055000Y-78238665D01*
X70999853Y-77961426D01*
X70891680Y-77700273D01*
X70734637Y-77465241D01*
X70655000Y-77385604D01*
X70655000Y-76830827D01*
X70660006Y-76779999D01*
X70655000Y-76729171D01*
X70655000Y-76729162D01*
X70640024Y-76577105D01*
X70580841Y-76382007D01*
X70519798Y-76267803D01*
X70484734Y-76202202D01*
X70387803Y-76084092D01*
X70355396Y-76044604D01*
X70315908Y-76012197D01*
X65697407Y-71393697D01*
X65664996Y-71354204D01*
X65507397Y-71224866D01*
X65327593Y-71128759D01*
X65132495Y-71069576D01*
X64980438Y-71054600D01*
X64980428Y-71054600D01*
X64929600Y-71049594D01*
X64878772Y-71054600D01*
X62989111Y-71054600D01*
X63928711Y-70115000D01*
X64147025Y-70115000D01*
X64148987Y-70116962D01*
X64367641Y-70263061D01*
X64610595Y-70363696D01*
X64868514Y-70415000D01*
X65131486Y-70415000D01*
X65389405Y-70363696D01*
X65632359Y-70263061D01*
X65851013Y-70116962D01*
X66036962Y-69931013D01*
X66183061Y-69712359D01*
X66283696Y-69469405D01*
X66335000Y-69211486D01*
X66335000Y-68948514D01*
X67665000Y-68948514D01*
X67665000Y-69211486D01*
X67716304Y-69469405D01*
X67816939Y-69712359D01*
X67963038Y-69931013D01*
X68148987Y-70116962D01*
X68367641Y-70263061D01*
X68610595Y-70363696D01*
X68868514Y-70415000D01*
X69131486Y-70415000D01*
X69389405Y-70363696D01*
X69632359Y-70263061D01*
X69851013Y-70116962D01*
X70036962Y-69931013D01*
X70183061Y-69712359D01*
X70283696Y-69469405D01*
X70335000Y-69211486D01*
X70335000Y-68948514D01*
X70283696Y-68690595D01*
X70183061Y-68447641D01*
X70036962Y-68228987D01*
X69851013Y-68043038D01*
X69632359Y-67896939D01*
X69389405Y-67796304D01*
X69131486Y-67745000D01*
X68868514Y-67745000D01*
X68610595Y-67796304D01*
X68367641Y-67896939D01*
X68148987Y-68043038D01*
X67963038Y-68228987D01*
X67816939Y-68447641D01*
X67716304Y-68690595D01*
X67665000Y-68948514D01*
X66335000Y-68948514D01*
X66283696Y-68690595D01*
X66183061Y-68447641D01*
X66036962Y-68228987D01*
X66035000Y-68227025D01*
X66035000Y-67630827D01*
X66040006Y-67579999D01*
X66035000Y-67529171D01*
X66035000Y-67529163D01*
X66020024Y-67377106D01*
X65960841Y-67182007D01*
X65864734Y-67002203D01*
X65735396Y-66844604D01*
X65695908Y-66812197D01*
X62752225Y-63868514D01*
X63665000Y-63868514D01*
X63665000Y-64131486D01*
X63716304Y-64389405D01*
X63816939Y-64632359D01*
X63963038Y-64851013D01*
X64148987Y-65036962D01*
X64367641Y-65183061D01*
X64610595Y-65283696D01*
X64868514Y-65335000D01*
X65131486Y-65335000D01*
X65389405Y-65283696D01*
X65632359Y-65183061D01*
X65851013Y-65036962D01*
X66036962Y-64851013D01*
X66183061Y-64632359D01*
X66283696Y-64389405D01*
X66335000Y-64131486D01*
X66335000Y-63868514D01*
X67665000Y-63868514D01*
X67665000Y-64131486D01*
X67716304Y-64389405D01*
X67816939Y-64632359D01*
X67963038Y-64851013D01*
X68148987Y-65036962D01*
X68367641Y-65183061D01*
X68610595Y-65283696D01*
X68868514Y-65335000D01*
X69131486Y-65335000D01*
X69389405Y-65283696D01*
X69632359Y-65183061D01*
X69851013Y-65036962D01*
X70036962Y-64851013D01*
X70183061Y-64632359D01*
X70283696Y-64389405D01*
X70335000Y-64131486D01*
X70335000Y-63868514D01*
X70283696Y-63610595D01*
X70183061Y-63367641D01*
X70036962Y-63148987D01*
X69851013Y-62963038D01*
X69632359Y-62816939D01*
X69389405Y-62716304D01*
X69131486Y-62665000D01*
X68868514Y-62665000D01*
X68610595Y-62716304D01*
X68367641Y-62816939D01*
X68148987Y-62963038D01*
X67963038Y-63148987D01*
X67816939Y-63367641D01*
X67716304Y-63610595D01*
X67665000Y-63868514D01*
X66335000Y-63868514D01*
X66283696Y-63610595D01*
X66183061Y-63367641D01*
X66036962Y-63148987D01*
X65851013Y-62963038D01*
X65632359Y-62816939D01*
X65389405Y-62716304D01*
X65131486Y-62665000D01*
X64868514Y-62665000D01*
X64610595Y-62716304D01*
X64367641Y-62816939D01*
X64148987Y-62963038D01*
X63963038Y-63148987D01*
X63816939Y-63367641D01*
X63716304Y-63610595D01*
X63665000Y-63868514D01*
X62752225Y-63868514D01*
X62535000Y-63651290D01*
X62535000Y-55494396D01*
X62614637Y-55414759D01*
X62771680Y-55179727D01*
X62879853Y-54918574D01*
X62935000Y-54641335D01*
X62935000Y-54358665D01*
X62879853Y-54081426D01*
X62771680Y-53820273D01*
X62614637Y-53585241D01*
X62414759Y-53385363D01*
X62212173Y-53250000D01*
X62414759Y-53114637D01*
X62614637Y-52914759D01*
X62771680Y-52679727D01*
X62879853Y-52418574D01*
X62935000Y-52141335D01*
X62935000Y-51858665D01*
X65065000Y-51858665D01*
X65065000Y-52141335D01*
X65120147Y-52418574D01*
X65228320Y-52679727D01*
X65385363Y-52914759D01*
X65585241Y-53114637D01*
X65787827Y-53250000D01*
X65585241Y-53385363D01*
X65385363Y-53585241D01*
X65228320Y-53820273D01*
X65120147Y-54081426D01*
X65065000Y-54358665D01*
X65065000Y-54641335D01*
X65120147Y-54918574D01*
X65228320Y-55179727D01*
X65385363Y-55414759D01*
X65585241Y-55614637D01*
X65820273Y-55771680D01*
X66081426Y-55879853D01*
X66358665Y-55935000D01*
X66641335Y-55935000D01*
X66918574Y-55879853D01*
X67179727Y-55771680D01*
X67414759Y-55614637D01*
X67614637Y-55414759D01*
X67771680Y-55179727D01*
X67879853Y-54918574D01*
X67935000Y-54641335D01*
X67935000Y-54358665D01*
X67879853Y-54081426D01*
X67771680Y-53820273D01*
X67614637Y-53585241D01*
X67414759Y-53385363D01*
X67212173Y-53250000D01*
X67414759Y-53114637D01*
X67614637Y-52914759D01*
X67771680Y-52679727D01*
X67879853Y-52418574D01*
X67935000Y-52141335D01*
X67935000Y-51858665D01*
X67879853Y-51581426D01*
X67771680Y-51320273D01*
X67614637Y-51085241D01*
X67414759Y-50885363D01*
X67179727Y-50728320D01*
X66918574Y-50620147D01*
X66641335Y-50565000D01*
X66358665Y-50565000D01*
X66081426Y-50620147D01*
X65820273Y-50728320D01*
X65585241Y-50885363D01*
X65385363Y-51085241D01*
X65228320Y-51320273D01*
X65120147Y-51581426D01*
X65065000Y-51858665D01*
X62935000Y-51858665D01*
X62879853Y-51581426D01*
X62771680Y-51320273D01*
X62614637Y-51085241D01*
X62435000Y-50905604D01*
X62435000Y-41952795D01*
X62529721Y-41913560D01*
X62920349Y-41652550D01*
X63252550Y-41320349D01*
X63513560Y-40929721D01*
X63693346Y-40495679D01*
X63785000Y-40034902D01*
X63785000Y-39565098D01*
X63693346Y-39104321D01*
X63513560Y-38670279D01*
X63252550Y-38279651D01*
X62920349Y-37947450D01*
X62529721Y-37686440D01*
X62095679Y-37506654D01*
X61634902Y-37415000D01*
X61165098Y-37415000D01*
X60704321Y-37506654D01*
X60270279Y-37686440D01*
X59879651Y-37947450D01*
X59547450Y-38279651D01*
X59286440Y-38670279D01*
X59106654Y-39104321D01*
X59015000Y-39565098D01*
X59015000Y-40034902D01*
X59106654Y-40495679D01*
X59286440Y-40929721D01*
X59547450Y-41320349D01*
X59879651Y-41652550D01*
X60270279Y-41913560D01*
X60365001Y-41952795D01*
X60365000Y-49776244D01*
X60250838Y-49765000D01*
X60250828Y-49765000D01*
X60200000Y-49759994D01*
X60149172Y-49765000D01*
X57750827Y-49765000D01*
X57699999Y-49759994D01*
X57649171Y-49765000D01*
X57649162Y-49765000D01*
X57497105Y-49779976D01*
X57302007Y-49839159D01*
X57218309Y-49883896D01*
X57122202Y-49935266D01*
X57004092Y-50032197D01*
X56964604Y-50064604D01*
X56932197Y-50104092D01*
X56471289Y-50565000D01*
X56358665Y-50565000D01*
X56081426Y-50620147D01*
X55820273Y-50728320D01*
X55585241Y-50885363D01*
X55385363Y-51085241D01*
X55228320Y-51320273D01*
X55120147Y-51581426D01*
X55065000Y-51858665D01*
X55065000Y-52141335D01*
X55120147Y-52418574D01*
X55228320Y-52679727D01*
X55385363Y-52914759D01*
X55585241Y-53114637D01*
X55787827Y-53250000D01*
X55585241Y-53385363D01*
X55385363Y-53585241D01*
X55228320Y-53820273D01*
X55120147Y-54081426D01*
X55065000Y-54358665D01*
X55065000Y-54641335D01*
X55120147Y-54918574D01*
X55228320Y-55179727D01*
X55385363Y-55414759D01*
X55585241Y-55614637D01*
X55820273Y-55771680D01*
X56081426Y-55879853D01*
X56358665Y-55935000D01*
X56471289Y-55935000D01*
X56832197Y-56295908D01*
X56864604Y-56335396D01*
X56904092Y-56367803D01*
X57022202Y-56464734D01*
X57118309Y-56516104D01*
X57202007Y-56560841D01*
X57397105Y-56620024D01*
X57549162Y-56635000D01*
X57549164Y-56635000D01*
X57600000Y-56640007D01*
X57650835Y-56635000D01*
X60349172Y-56635000D01*
X60400000Y-56640006D01*
X60450828Y-56635000D01*
X60450838Y-56635000D01*
X60465001Y-56633605D01*
X60465000Y-64029172D01*
X60459994Y-64080000D01*
X60465000Y-64130828D01*
X60465000Y-64130837D01*
X60479976Y-64282894D01*
X60539159Y-64477992D01*
X60635266Y-64657797D01*
X60764604Y-64815396D01*
X60804097Y-64847807D01*
X63965000Y-68008711D01*
X63965000Y-68045000D01*
X63550827Y-68045000D01*
X63499999Y-68039994D01*
X63449171Y-68045000D01*
X63449162Y-68045000D01*
X63297105Y-68059976D01*
X63102007Y-68119159D01*
X63060519Y-68141335D01*
X62922202Y-68215266D01*
X62844345Y-68279162D01*
X62764604Y-68344604D01*
X62732197Y-68384092D01*
X58304097Y-72812193D01*
X58264604Y-72844604D01*
X58135266Y-73002203D01*
X58039159Y-73182008D01*
X57979976Y-73377106D01*
X57965000Y-73529163D01*
X57965000Y-73529172D01*
X57959994Y-73580000D01*
X57965000Y-73630828D01*
X57965001Y-77649151D01*
X57959993Y-77699999D01*
X57967439Y-77775601D01*
X57867641Y-77816939D01*
X57648987Y-77963038D01*
X57463038Y-78148987D01*
X57316939Y-78367641D01*
X57216304Y-78610595D01*
X57165000Y-78868514D01*
X57165000Y-79131486D01*
X57216304Y-79389405D01*
X57316939Y-79632359D01*
X57463038Y-79851013D01*
X57648987Y-80036962D01*
X57867641Y-80183061D01*
X57967439Y-80224399D01*
X57959993Y-80300001D01*
X57965000Y-80350840D01*
X57965001Y-82009163D01*
X57959994Y-82060000D01*
X57979977Y-82262895D01*
X58039160Y-82457993D01*
X58135266Y-82637797D01*
X58223246Y-82745000D01*
X58243632Y-82769841D01*
X58110595Y-82796304D01*
X57867641Y-82896939D01*
X57648987Y-83043038D01*
X57463038Y-83228987D01*
X57316939Y-83447641D01*
X57216304Y-83690595D01*
X57165000Y-83948514D01*
X57165000Y-84211486D01*
X57216304Y-84469405D01*
X57316939Y-84712359D01*
X57463038Y-84931013D01*
X57648987Y-85116962D01*
X57867641Y-85263061D01*
X58110595Y-85363696D01*
X58312443Y-85403847D01*
X47154362Y-96561928D01*
X45580000Y-96561928D01*
X45455518Y-96574188D01*
X45335820Y-96610498D01*
X45225506Y-96669463D01*
X45128815Y-96748815D01*
X45049463Y-96845506D01*
X44990498Y-96955820D01*
X44954188Y-97075518D01*
X44941928Y-97200000D01*
X44941928Y-98800000D01*
X44954188Y-98924482D01*
X44990498Y-99044180D01*
X45049463Y-99154494D01*
X45128815Y-99251185D01*
X45225506Y-99330537D01*
X45335820Y-99389502D01*
X45345000Y-99392287D01*
X45345000Y-99549172D01*
X45339994Y-99600000D01*
X45345000Y-99650828D01*
X45345000Y-99650838D01*
X45355835Y-99760840D01*
X45359977Y-99802895D01*
X45419160Y-99997993D01*
X45465000Y-100083755D01*
X45465000Y-100607713D01*
X45455820Y-100610498D01*
X45345506Y-100669463D01*
X45248815Y-100748815D01*
X45169463Y-100845506D01*
X45110498Y-100955820D01*
X45074188Y-101075518D01*
X45061928Y-101200000D01*
X45061928Y-102800000D01*
X45074188Y-102924482D01*
X45110498Y-103044180D01*
X45169463Y-103154494D01*
X45248815Y-103251185D01*
X45345506Y-103330537D01*
X45455820Y-103389502D01*
X45465001Y-103392287D01*
X45465001Y-103549152D01*
X45459993Y-103600000D01*
X45479976Y-103802895D01*
X45539159Y-103997993D01*
X45565239Y-104046786D01*
X45463038Y-104148987D01*
X45316939Y-104367641D01*
X45216304Y-104610595D01*
X45165000Y-104868514D01*
X45165000Y-105131486D01*
X45216304Y-105389405D01*
X45316939Y-105632359D01*
X45463038Y-105851013D01*
X45648987Y-106036962D01*
X45867641Y-106183061D01*
X46110595Y-106283696D01*
X46368514Y-106335000D01*
X46631486Y-106335000D01*
X46889405Y-106283696D01*
X47132359Y-106183061D01*
X47351013Y-106036962D01*
X47536962Y-105851013D01*
X47637234Y-105700944D01*
X48385000Y-106448711D01*
X48385001Y-107147024D01*
X48383038Y-107148987D01*
X48236939Y-107367641D01*
X48136304Y-107610595D01*
X48085000Y-107868514D01*
X48085000Y-108131486D01*
X48136304Y-108389405D01*
X48236939Y-108632359D01*
X48383038Y-108851013D01*
X48568987Y-109036962D01*
X48705028Y-109127861D01*
X48037890Y-109795000D01*
X47804464Y-109795000D01*
X47783696Y-109690595D01*
X47683061Y-109447641D01*
X47536962Y-109228987D01*
X47351013Y-109043038D01*
X47132359Y-108896939D01*
X46889405Y-108796304D01*
X46631486Y-108745000D01*
X46368514Y-108745000D01*
X46110595Y-108796304D01*
X45867641Y-108896939D01*
X45648987Y-109043038D01*
X45463038Y-109228987D01*
X45316939Y-109447641D01*
X45216304Y-109690595D01*
X45165000Y-109948514D01*
X45165000Y-110211486D01*
X45216304Y-110469405D01*
X45316939Y-110712359D01*
X45463038Y-110931013D01*
X45465000Y-110932975D01*
X45465000Y-111151290D01*
X45304097Y-111312193D01*
X45264604Y-111344604D01*
X45135266Y-111502203D01*
X45039159Y-111682008D01*
X44979976Y-111877106D01*
X44965000Y-112029163D01*
X44965000Y-112029172D01*
X44959994Y-112080000D01*
X44965000Y-112130828D01*
X44965001Y-116847205D01*
X44870279Y-116886440D01*
X44479651Y-117147450D01*
X44147450Y-117479651D01*
X43886440Y-117870279D01*
X43706654Y-118304321D01*
X43615000Y-118765098D01*
X38185000Y-118765098D01*
X38185000Y-90868514D01*
X43085000Y-90868514D01*
X43085000Y-91131486D01*
X43136304Y-91389405D01*
X43236939Y-91632359D01*
X43383038Y-91851013D01*
X43568987Y-92036962D01*
X43787641Y-92183061D01*
X44030595Y-92283696D01*
X44288514Y-92335000D01*
X44551486Y-92335000D01*
X44809405Y-92283696D01*
X45052359Y-92183061D01*
X45271013Y-92036962D01*
X45456962Y-91851013D01*
X45603061Y-91632359D01*
X45703696Y-91389405D01*
X45755000Y-91131486D01*
X45755000Y-91128710D01*
X48515001Y-88368710D01*
X48515001Y-89181648D01*
X48479977Y-89297105D01*
X48459994Y-89500000D01*
X48465001Y-89550837D01*
X48465001Y-90147024D01*
X48463038Y-90148987D01*
X48316939Y-90367641D01*
X48216304Y-90610595D01*
X48165000Y-90868514D01*
X48165000Y-91131486D01*
X48216304Y-91389405D01*
X48316939Y-91632359D01*
X48463038Y-91851013D01*
X48648987Y-92036962D01*
X48867641Y-92183061D01*
X49110595Y-92283696D01*
X49368514Y-92335000D01*
X49631486Y-92335000D01*
X49889405Y-92283696D01*
X50132359Y-92183061D01*
X50351013Y-92036962D01*
X50536962Y-91851013D01*
X50683061Y-91632359D01*
X50783696Y-91389405D01*
X50835000Y-91131486D01*
X50835000Y-90868514D01*
X50783696Y-90610595D01*
X50683061Y-90367641D01*
X50536962Y-90148987D01*
X50535000Y-90147025D01*
X50535000Y-89768352D01*
X50570024Y-89652895D01*
X50585000Y-89500838D01*
X50585000Y-89500835D01*
X50590007Y-89450000D01*
X50585000Y-89399165D01*
X50585000Y-87438072D01*
X51800000Y-87438072D01*
X51924482Y-87425812D01*
X52044180Y-87389502D01*
X52154494Y-87330537D01*
X52251185Y-87251185D01*
X52330537Y-87154494D01*
X52389502Y-87044180D01*
X52425812Y-86924482D01*
X52438072Y-86800000D01*
X52438072Y-85200000D01*
X52425812Y-85075518D01*
X52389502Y-84955820D01*
X52330537Y-84845506D01*
X52251185Y-84748815D01*
X52154494Y-84669463D01*
X52044180Y-84610498D01*
X51924482Y-84574188D01*
X51916039Y-84573357D01*
X52114637Y-84374759D01*
X52271680Y-84139727D01*
X52379853Y-83878574D01*
X52381854Y-83868514D01*
X53165000Y-83868514D01*
X53165000Y-84131486D01*
X53216304Y-84389405D01*
X53316939Y-84632359D01*
X53463038Y-84851013D01*
X53648987Y-85036962D01*
X53867641Y-85183061D01*
X54110595Y-85283696D01*
X54368514Y-85335000D01*
X54631486Y-85335000D01*
X54889405Y-85283696D01*
X55132359Y-85183061D01*
X55351013Y-85036962D01*
X55536962Y-84851013D01*
X55683061Y-84632359D01*
X55783696Y-84389405D01*
X55835000Y-84131486D01*
X55835000Y-83868514D01*
X55783696Y-83610595D01*
X55683061Y-83367641D01*
X55536962Y-83148987D01*
X55351013Y-82963038D01*
X55132359Y-82816939D01*
X54889405Y-82716304D01*
X54631486Y-82665000D01*
X54368514Y-82665000D01*
X54110595Y-82716304D01*
X53867641Y-82816939D01*
X53648987Y-82963038D01*
X53463038Y-83148987D01*
X53316939Y-83367641D01*
X53216304Y-83610595D01*
X53165000Y-83868514D01*
X52381854Y-83868514D01*
X52435000Y-83601335D01*
X52435000Y-83318665D01*
X52379853Y-83041426D01*
X52271680Y-82780273D01*
X52114637Y-82545241D01*
X51914759Y-82345363D01*
X51682241Y-82190000D01*
X51914759Y-82034637D01*
X52114637Y-81834759D01*
X52271680Y-81599727D01*
X52379853Y-81338574D01*
X52435000Y-81061335D01*
X52435000Y-80778665D01*
X52379853Y-80501426D01*
X52271680Y-80240273D01*
X52114637Y-80005241D01*
X51914759Y-79805363D01*
X51682241Y-79650000D01*
X51914759Y-79494637D01*
X52114637Y-79294759D01*
X52271680Y-79059727D01*
X52379853Y-78798574D01*
X52381854Y-78788514D01*
X53165000Y-78788514D01*
X53165000Y-79051486D01*
X53216304Y-79309405D01*
X53316939Y-79552359D01*
X53463038Y-79771013D01*
X53648987Y-79956962D01*
X53867641Y-80103061D01*
X54110595Y-80203696D01*
X54368514Y-80255000D01*
X54631486Y-80255000D01*
X54889405Y-80203696D01*
X55132359Y-80103061D01*
X55351013Y-79956962D01*
X55536962Y-79771013D01*
X55683061Y-79552359D01*
X55783696Y-79309405D01*
X55835000Y-79051486D01*
X55835000Y-78788514D01*
X55783696Y-78530595D01*
X55683061Y-78287641D01*
X55536962Y-78068987D01*
X55351013Y-77883038D01*
X55132359Y-77736939D01*
X54889405Y-77636304D01*
X54631486Y-77585000D01*
X54368514Y-77585000D01*
X54110595Y-77636304D01*
X53867641Y-77736939D01*
X53648987Y-77883038D01*
X53463038Y-78068987D01*
X53316939Y-78287641D01*
X53216304Y-78530595D01*
X53165000Y-78788514D01*
X52381854Y-78788514D01*
X52435000Y-78521335D01*
X52435000Y-78238665D01*
X52379853Y-77961426D01*
X52271680Y-77700273D01*
X52114637Y-77465241D01*
X52035000Y-77385604D01*
X52035000Y-74494396D01*
X52114637Y-74414759D01*
X52271680Y-74179727D01*
X52379853Y-73918574D01*
X52435000Y-73641335D01*
X52435000Y-73358665D01*
X52379853Y-73081426D01*
X52271680Y-72820273D01*
X52114637Y-72585241D01*
X51914759Y-72385363D01*
X51679727Y-72228320D01*
X51418574Y-72120147D01*
X51141335Y-72065000D01*
X50858665Y-72065000D01*
X50581426Y-72120147D01*
X50320273Y-72228320D01*
X50085241Y-72385363D01*
X49885363Y-72585241D01*
X49750000Y-72787827D01*
X49614637Y-72585241D01*
X49414759Y-72385363D01*
X49179727Y-72228320D01*
X48918574Y-72120147D01*
X48641335Y-72065000D01*
X48358665Y-72065000D01*
X48081426Y-72120147D01*
X47820273Y-72228320D01*
X47585241Y-72385363D01*
X47385363Y-72585241D01*
X47228320Y-72820273D01*
X47120147Y-73081426D01*
X47065000Y-73358665D01*
X47065000Y-73641335D01*
X47120147Y-73918574D01*
X47228320Y-74179727D01*
X47385363Y-74414759D01*
X47465001Y-74494397D01*
X47465000Y-86491289D01*
X44291290Y-89665000D01*
X44288514Y-89665000D01*
X44030595Y-89716304D01*
X43787641Y-89816939D01*
X43568987Y-89963038D01*
X43383038Y-90148987D01*
X43236939Y-90367641D01*
X43136304Y-90610595D01*
X43085000Y-90868514D01*
X38185000Y-90868514D01*
X38185000Y-78238665D01*
X41945000Y-78238665D01*
X41945000Y-78521335D01*
X42000147Y-78798574D01*
X42108320Y-79059727D01*
X42265363Y-79294759D01*
X42465241Y-79494637D01*
X42697759Y-79650000D01*
X42465241Y-79805363D01*
X42265363Y-80005241D01*
X42108320Y-80240273D01*
X42000147Y-80501426D01*
X41945000Y-80778665D01*
X41945000Y-81061335D01*
X42000147Y-81338574D01*
X42108320Y-81599727D01*
X42265363Y-81834759D01*
X42465241Y-82034637D01*
X42697759Y-82190000D01*
X42465241Y-82345363D01*
X42265363Y-82545241D01*
X42108320Y-82780273D01*
X42000147Y-83041426D01*
X41945000Y-83318665D01*
X41945000Y-83601335D01*
X42000147Y-83878574D01*
X42108320Y-84139727D01*
X42265363Y-84374759D01*
X42465241Y-84574637D01*
X42697759Y-84730000D01*
X42465241Y-84885363D01*
X42265363Y-85085241D01*
X42108320Y-85320273D01*
X42000147Y-85581426D01*
X41945000Y-85858665D01*
X41945000Y-86141335D01*
X42000147Y-86418574D01*
X42108320Y-86679727D01*
X42265363Y-86914759D01*
X42465241Y-87114637D01*
X42700273Y-87271680D01*
X42961426Y-87379853D01*
X43238665Y-87435000D01*
X43521335Y-87435000D01*
X43798574Y-87379853D01*
X44059727Y-87271680D01*
X44294759Y-87114637D01*
X44494637Y-86914759D01*
X44651680Y-86679727D01*
X44759853Y-86418574D01*
X44815000Y-86141335D01*
X44815000Y-85858665D01*
X44759853Y-85581426D01*
X44651680Y-85320273D01*
X44494637Y-85085241D01*
X44294759Y-84885363D01*
X44062241Y-84730000D01*
X44294759Y-84574637D01*
X44494637Y-84374759D01*
X44651680Y-84139727D01*
X44759853Y-83878574D01*
X44815000Y-83601335D01*
X44815000Y-83318665D01*
X44759853Y-83041426D01*
X44651680Y-82780273D01*
X44494637Y-82545241D01*
X44294759Y-82345363D01*
X44062241Y-82190000D01*
X44294759Y-82034637D01*
X44494637Y-81834759D01*
X44651680Y-81599727D01*
X44759853Y-81338574D01*
X44815000Y-81061335D01*
X44815000Y-80778665D01*
X44759853Y-80501426D01*
X44651680Y-80240273D01*
X44494637Y-80005241D01*
X44294759Y-79805363D01*
X44062241Y-79650000D01*
X44294759Y-79494637D01*
X44494637Y-79294759D01*
X44651680Y-79059727D01*
X44759853Y-78798574D01*
X44815000Y-78521335D01*
X44815000Y-78238665D01*
X44759853Y-77961426D01*
X44651680Y-77700273D01*
X44494637Y-77465241D01*
X44294759Y-77265363D01*
X44059727Y-77108320D01*
X43798574Y-77000147D01*
X43521335Y-76945000D01*
X43238665Y-76945000D01*
X42961426Y-77000147D01*
X42700273Y-77108320D01*
X42465241Y-77265363D01*
X42265363Y-77465241D01*
X42108320Y-77700273D01*
X42000147Y-77961426D01*
X41945000Y-78238665D01*
X38185000Y-78238665D01*
X38185000Y-68868514D01*
X42665000Y-68868514D01*
X42665000Y-69131486D01*
X42716304Y-69389405D01*
X42816939Y-69632359D01*
X42963038Y-69851013D01*
X43148987Y-70036962D01*
X43367641Y-70183061D01*
X43610595Y-70283696D01*
X43868514Y-70335000D01*
X44131486Y-70335000D01*
X44389405Y-70283696D01*
X44632359Y-70183061D01*
X44851013Y-70036962D01*
X45036962Y-69851013D01*
X45183061Y-69632359D01*
X45283696Y-69389405D01*
X45335000Y-69131486D01*
X45335000Y-68948514D01*
X46665000Y-68948514D01*
X46665000Y-69211486D01*
X46716304Y-69469405D01*
X46816939Y-69712359D01*
X46963038Y-69931013D01*
X47148987Y-70116962D01*
X47367641Y-70263061D01*
X47610595Y-70363696D01*
X47868514Y-70415000D01*
X48131486Y-70415000D01*
X48389405Y-70363696D01*
X48632359Y-70263061D01*
X48851013Y-70116962D01*
X49036962Y-69931013D01*
X49183061Y-69712359D01*
X49283696Y-69469405D01*
X49335000Y-69211486D01*
X49335000Y-68948514D01*
X49283696Y-68690595D01*
X49183061Y-68447641D01*
X49036962Y-68228987D01*
X48851013Y-68043038D01*
X48632359Y-67896939D01*
X48389405Y-67796304D01*
X48131486Y-67745000D01*
X47868514Y-67745000D01*
X47610595Y-67796304D01*
X47367641Y-67896939D01*
X47148987Y-68043038D01*
X46963038Y-68228987D01*
X46816939Y-68447641D01*
X46716304Y-68690595D01*
X46665000Y-68948514D01*
X45335000Y-68948514D01*
X45335000Y-68868514D01*
X45283696Y-68610595D01*
X45183061Y-68367641D01*
X45036962Y-68148987D01*
X44851013Y-67963038D01*
X44632359Y-67816939D01*
X44389405Y-67716304D01*
X44131486Y-67665000D01*
X43868514Y-67665000D01*
X43610595Y-67716304D01*
X43367641Y-67816939D01*
X43148987Y-67963038D01*
X42963038Y-68148987D01*
X42816939Y-68367641D01*
X42716304Y-68610595D01*
X42665000Y-68868514D01*
X38185000Y-68868514D01*
X38185000Y-63788514D01*
X42665000Y-63788514D01*
X42665000Y-64051486D01*
X42716304Y-64309405D01*
X42816939Y-64552359D01*
X42963038Y-64771013D01*
X43148987Y-64956962D01*
X43367641Y-65103061D01*
X43610595Y-65203696D01*
X43868514Y-65255000D01*
X44131486Y-65255000D01*
X44389405Y-65203696D01*
X44632359Y-65103061D01*
X44851013Y-64956962D01*
X45036962Y-64771013D01*
X45183061Y-64552359D01*
X45283696Y-64309405D01*
X45335000Y-64051486D01*
X45335000Y-63868514D01*
X46665000Y-63868514D01*
X46665000Y-64131486D01*
X46716304Y-64389405D01*
X46816939Y-64632359D01*
X46963038Y-64851013D01*
X47148987Y-65036962D01*
X47367641Y-65183061D01*
X47610595Y-65283696D01*
X47868514Y-65335000D01*
X48131486Y-65335000D01*
X48389405Y-65283696D01*
X48632359Y-65183061D01*
X48851013Y-65036962D01*
X49036962Y-64851013D01*
X49179753Y-64637309D01*
X49185466Y-64647997D01*
X49314804Y-64805596D01*
X49354297Y-64838007D01*
X51345001Y-66828712D01*
X51345001Y-67005603D01*
X51265363Y-67085241D01*
X51108320Y-67320273D01*
X51000147Y-67581426D01*
X50945000Y-67858665D01*
X50945000Y-68141335D01*
X51000147Y-68418574D01*
X51108320Y-68679727D01*
X51265363Y-68914759D01*
X51465241Y-69114637D01*
X51700273Y-69271680D01*
X51961426Y-69379853D01*
X52238665Y-69435000D01*
X52521335Y-69435000D01*
X52798574Y-69379853D01*
X53059727Y-69271680D01*
X53294759Y-69114637D01*
X53494637Y-68914759D01*
X53651680Y-68679727D01*
X53759853Y-68418574D01*
X53815000Y-68141335D01*
X53815000Y-67858665D01*
X53759853Y-67581426D01*
X53651680Y-67320273D01*
X53571317Y-67200000D01*
X58561928Y-67200000D01*
X58561928Y-68800000D01*
X58574188Y-68924482D01*
X58610498Y-69044180D01*
X58669463Y-69154494D01*
X58748815Y-69251185D01*
X58845506Y-69330537D01*
X58955820Y-69389502D01*
X59075518Y-69425812D01*
X59200000Y-69438072D01*
X60800000Y-69438072D01*
X60924482Y-69425812D01*
X61044180Y-69389502D01*
X61154494Y-69330537D01*
X61251185Y-69251185D01*
X61330537Y-69154494D01*
X61389502Y-69044180D01*
X61425812Y-68924482D01*
X61438072Y-68800000D01*
X61438072Y-67200000D01*
X61425812Y-67075518D01*
X61389502Y-66955820D01*
X61330537Y-66845506D01*
X61251185Y-66748815D01*
X61154494Y-66669463D01*
X61044180Y-66610498D01*
X60924482Y-66574188D01*
X60800000Y-66561928D01*
X59200000Y-66561928D01*
X59075518Y-66574188D01*
X58955820Y-66610498D01*
X58845506Y-66669463D01*
X58748815Y-66748815D01*
X58669463Y-66845506D01*
X58610498Y-66955820D01*
X58574188Y-67075518D01*
X58561928Y-67200000D01*
X53571317Y-67200000D01*
X53494637Y-67085241D01*
X53415000Y-67005604D01*
X53415000Y-66450835D01*
X53420007Y-66400000D01*
X53415000Y-66349162D01*
X53400024Y-66197105D01*
X53340841Y-66002007D01*
X53296104Y-65918309D01*
X53244734Y-65822202D01*
X53147803Y-65704092D01*
X53115396Y-65664604D01*
X53075908Y-65632197D01*
X51085200Y-63641490D01*
X51085200Y-55880604D01*
X51358665Y-55935000D01*
X51641335Y-55935000D01*
X51918574Y-55879853D01*
X52179727Y-55771680D01*
X52414759Y-55614637D01*
X52614637Y-55414759D01*
X52771680Y-55179727D01*
X52879853Y-54918574D01*
X52885000Y-54892696D01*
X52885000Y-63147025D01*
X52883038Y-63148987D01*
X52736939Y-63367641D01*
X52636304Y-63610595D01*
X52585000Y-63868514D01*
X52585000Y-64131486D01*
X52636304Y-64389405D01*
X52736939Y-64632359D01*
X52883038Y-64851013D01*
X53068987Y-65036962D01*
X53287641Y-65183061D01*
X53530595Y-65283696D01*
X53788514Y-65335000D01*
X54051486Y-65335000D01*
X54309405Y-65283696D01*
X54552359Y-65183061D01*
X54771013Y-65036962D01*
X54956962Y-64851013D01*
X55103061Y-64632359D01*
X55203696Y-64389405D01*
X55255000Y-64131486D01*
X55255000Y-63868514D01*
X57665000Y-63868514D01*
X57665000Y-64131486D01*
X57716304Y-64389405D01*
X57816939Y-64632359D01*
X57963038Y-64851013D01*
X58148987Y-65036962D01*
X58367641Y-65183061D01*
X58610595Y-65283696D01*
X58868514Y-65335000D01*
X59131486Y-65335000D01*
X59389405Y-65283696D01*
X59632359Y-65183061D01*
X59851013Y-65036962D01*
X60036962Y-64851013D01*
X60183061Y-64632359D01*
X60283696Y-64389405D01*
X60335000Y-64131486D01*
X60335000Y-63868514D01*
X60283696Y-63610595D01*
X60183061Y-63367641D01*
X60036962Y-63148987D01*
X59851013Y-62963038D01*
X59632359Y-62816939D01*
X59389405Y-62716304D01*
X59131486Y-62665000D01*
X58868514Y-62665000D01*
X58610595Y-62716304D01*
X58367641Y-62816939D01*
X58148987Y-62963038D01*
X57963038Y-63148987D01*
X57816939Y-63367641D01*
X57716304Y-63610595D01*
X57665000Y-63868514D01*
X55255000Y-63868514D01*
X55203696Y-63610595D01*
X55103061Y-63367641D01*
X54956962Y-63148987D01*
X54955000Y-63147025D01*
X54955000Y-42970827D01*
X54960006Y-42919999D01*
X54955000Y-42869171D01*
X54955000Y-42869162D01*
X54940024Y-42717105D01*
X54880841Y-42522007D01*
X54836104Y-42438309D01*
X54784734Y-42342202D01*
X54687803Y-42224092D01*
X54655396Y-42184604D01*
X54615908Y-42152197D01*
X53054111Y-40590401D01*
X53093346Y-40495679D01*
X53185000Y-40034902D01*
X53185000Y-39565098D01*
X53615000Y-39565098D01*
X53615000Y-40034902D01*
X53706654Y-40495679D01*
X53886440Y-40929721D01*
X54147450Y-41320349D01*
X54479651Y-41652550D01*
X54870279Y-41913560D01*
X55304321Y-42093346D01*
X55765098Y-42185000D01*
X56234902Y-42185000D01*
X56695679Y-42093346D01*
X57129721Y-41913560D01*
X57520349Y-41652550D01*
X57852550Y-41320349D01*
X58113560Y-40929721D01*
X58293346Y-40495679D01*
X58385000Y-40034902D01*
X58385000Y-39565098D01*
X58293346Y-39104321D01*
X58113560Y-38670279D01*
X57852550Y-38279651D01*
X57520349Y-37947450D01*
X57129721Y-37686440D01*
X56695679Y-37506654D01*
X56234902Y-37415000D01*
X55765098Y-37415000D01*
X55304321Y-37506654D01*
X54870279Y-37686440D01*
X54479651Y-37947450D01*
X54147450Y-38279651D01*
X53886440Y-38670279D01*
X53706654Y-39104321D01*
X53615000Y-39565098D01*
X53185000Y-39565098D01*
X53093346Y-39104321D01*
X52913560Y-38670279D01*
X52652550Y-38279651D01*
X52320349Y-37947450D01*
X51929721Y-37686440D01*
X51495679Y-37506654D01*
X51034902Y-37415000D01*
X50565098Y-37415000D01*
X50104321Y-37506654D01*
X49670279Y-37686440D01*
X49279651Y-37947450D01*
X48947450Y-38279651D01*
X48686440Y-38670279D01*
X48506654Y-39104321D01*
X48415000Y-39565098D01*
X48415000Y-40034902D01*
X48506654Y-40495679D01*
X48686440Y-40929721D01*
X48947450Y-41320349D01*
X49279651Y-41652550D01*
X49670279Y-41913560D01*
X50104321Y-42093346D01*
X50565098Y-42185000D01*
X51034902Y-42185000D01*
X51495679Y-42093346D01*
X51590401Y-42054111D01*
X52885001Y-43348712D01*
X52885001Y-51607304D01*
X52879853Y-51581426D01*
X52771680Y-51320273D01*
X52614637Y-51085241D01*
X52414759Y-50885363D01*
X52179727Y-50728320D01*
X51918574Y-50620147D01*
X51641335Y-50565000D01*
X51358665Y-50565000D01*
X51081426Y-50620147D01*
X50820273Y-50728320D01*
X50585241Y-50885363D01*
X50385363Y-51085241D01*
X50228320Y-51320273D01*
X50120147Y-51581426D01*
X50065000Y-51858665D01*
X50065000Y-51971289D01*
X49354292Y-52681998D01*
X49314805Y-52714404D01*
X49282398Y-52753892D01*
X49282397Y-52753893D01*
X49185466Y-52872003D01*
X49089360Y-53051807D01*
X49030177Y-53246905D01*
X49010194Y-53449800D01*
X49015201Y-53500638D01*
X49015200Y-63127225D01*
X48851013Y-62963038D01*
X48632359Y-62816939D01*
X48389405Y-62716304D01*
X48131486Y-62665000D01*
X47868514Y-62665000D01*
X47610595Y-62716304D01*
X47367641Y-62816939D01*
X47148987Y-62963038D01*
X46963038Y-63148987D01*
X46816939Y-63367641D01*
X46716304Y-63610595D01*
X46665000Y-63868514D01*
X45335000Y-63868514D01*
X45335000Y-63788514D01*
X45283696Y-63530595D01*
X45183061Y-63287641D01*
X45036962Y-63068987D01*
X44851013Y-62883038D01*
X44632359Y-62736939D01*
X44389405Y-62636304D01*
X44131486Y-62585000D01*
X43868514Y-62585000D01*
X43610595Y-62636304D01*
X43367641Y-62736939D01*
X43148987Y-62883038D01*
X42963038Y-63068987D01*
X42816939Y-63287641D01*
X42716304Y-63530595D01*
X42665000Y-63788514D01*
X38185000Y-63788514D01*
X38185000Y-51858665D01*
X45065000Y-51858665D01*
X45065000Y-52141335D01*
X45120147Y-52418574D01*
X45228320Y-52679727D01*
X45385363Y-52914759D01*
X45585241Y-53114637D01*
X45787827Y-53250000D01*
X45585241Y-53385363D01*
X45385363Y-53585241D01*
X45228320Y-53820273D01*
X45120147Y-54081426D01*
X45065000Y-54358665D01*
X45065000Y-54641335D01*
X45120147Y-54918574D01*
X45228320Y-55179727D01*
X45385363Y-55414759D01*
X45585241Y-55614637D01*
X45820273Y-55771680D01*
X46081426Y-55879853D01*
X46358665Y-55935000D01*
X46641335Y-55935000D01*
X46918574Y-55879853D01*
X47179727Y-55771680D01*
X47414759Y-55614637D01*
X47614637Y-55414759D01*
X47771680Y-55179727D01*
X47879853Y-54918574D01*
X47935000Y-54641335D01*
X47935000Y-54358665D01*
X47879853Y-54081426D01*
X47771680Y-53820273D01*
X47614637Y-53585241D01*
X47414759Y-53385363D01*
X47212173Y-53250000D01*
X47414759Y-53114637D01*
X47614637Y-52914759D01*
X47771680Y-52679727D01*
X47879853Y-52418574D01*
X47935000Y-52141335D01*
X47935000Y-51858665D01*
X47879853Y-51581426D01*
X47771680Y-51320273D01*
X47614637Y-51085241D01*
X47414759Y-50885363D01*
X47179727Y-50728320D01*
X46918574Y-50620147D01*
X46641335Y-50565000D01*
X46358665Y-50565000D01*
X46081426Y-50620147D01*
X45820273Y-50728320D01*
X45585241Y-50885363D01*
X45385363Y-51085241D01*
X45228320Y-51320273D01*
X45120147Y-51581426D01*
X45065000Y-51858665D01*
X38185000Y-51858665D01*
X38185000Y-33185000D01*
X74315000Y-33185000D01*
X74315001Y-129315000D01*
%TA.AperFunction,Conductor*%
D19*
G36*
X74315001Y-129315000D02*
G01*
X38185000Y-129315000D01*
X38185000Y-118765098D01*
X43615000Y-118765098D01*
X43615000Y-119234902D01*
X43706654Y-119695679D01*
X43886440Y-120129721D01*
X44147450Y-120520349D01*
X44479651Y-120852550D01*
X44870279Y-121113560D01*
X45304321Y-121293346D01*
X45765098Y-121385000D01*
X46234902Y-121385000D01*
X46695679Y-121293346D01*
X47129721Y-121113560D01*
X47520349Y-120852550D01*
X47852550Y-120520349D01*
X48113560Y-120129721D01*
X48293346Y-119695679D01*
X48385000Y-119234902D01*
X48385000Y-118765098D01*
X48293346Y-118304321D01*
X48113560Y-117870279D01*
X47852550Y-117479651D01*
X47520349Y-117147450D01*
X47129721Y-116886440D01*
X47035000Y-116847205D01*
X47035000Y-112858665D01*
X53565000Y-112858665D01*
X53565000Y-113141335D01*
X53620147Y-113418574D01*
X53728320Y-113679727D01*
X53885363Y-113914759D01*
X53965000Y-113994396D01*
X53965001Y-117752705D01*
X53886440Y-117870279D01*
X53706654Y-118304321D01*
X53615000Y-118765098D01*
X53615000Y-119234902D01*
X53706654Y-119695679D01*
X53886440Y-120129721D01*
X54147450Y-120520349D01*
X54479651Y-120852550D01*
X54870279Y-121113560D01*
X55304321Y-121293346D01*
X55765098Y-121385000D01*
X56234902Y-121385000D01*
X56695679Y-121293346D01*
X57129721Y-121113560D01*
X57520349Y-120852550D01*
X57852550Y-120520349D01*
X58113560Y-120129721D01*
X58293346Y-119695679D01*
X58385000Y-119234902D01*
X58385000Y-118765098D01*
X58293346Y-118304321D01*
X58113560Y-117870279D01*
X57852550Y-117479651D01*
X57520349Y-117147450D01*
X57129721Y-116886440D01*
X56695679Y-116706654D01*
X56234902Y-116615000D01*
X56035000Y-116615000D01*
X56035000Y-113994396D01*
X56114637Y-113914759D01*
X56250000Y-113712173D01*
X56385363Y-113914759D01*
X56585241Y-114114637D01*
X56820273Y-114271680D01*
X57081426Y-114379853D01*
X57358665Y-114435000D01*
X57641335Y-114435000D01*
X57918574Y-114379853D01*
X58179727Y-114271680D01*
X58414759Y-114114637D01*
X58614637Y-113914759D01*
X58771680Y-113679727D01*
X58879853Y-113418574D01*
X58935000Y-113141335D01*
X58935000Y-112858665D01*
X58879853Y-112581426D01*
X58771680Y-112320273D01*
X58614637Y-112085241D01*
X58414759Y-111885363D01*
X58179727Y-111728320D01*
X57918574Y-111620147D01*
X57641335Y-111565000D01*
X57358665Y-111565000D01*
X57081426Y-111620147D01*
X56820273Y-111728320D01*
X56585241Y-111885363D01*
X56385363Y-112085241D01*
X56250000Y-112287827D01*
X56220313Y-112243397D01*
X58195908Y-110267803D01*
X58235396Y-110235396D01*
X58299080Y-110157797D01*
X58364734Y-110077798D01*
X58460840Y-109897994D01*
X58460841Y-109897993D01*
X58520024Y-109702895D01*
X58535000Y-109550838D01*
X58535000Y-109550836D01*
X58540007Y-109500000D01*
X58535000Y-109449165D01*
X58535000Y-108852975D01*
X58536962Y-108851013D01*
X58683061Y-108632359D01*
X58783696Y-108389405D01*
X58835000Y-108131486D01*
X58835000Y-107868514D01*
X61245000Y-107868514D01*
X61245000Y-108131486D01*
X61296304Y-108389405D01*
X61396939Y-108632359D01*
X61543038Y-108851013D01*
X61728987Y-109036962D01*
X61947641Y-109183061D01*
X62190595Y-109283696D01*
X62448514Y-109335000D01*
X62711486Y-109335000D01*
X62969405Y-109283696D01*
X63212359Y-109183061D01*
X63431013Y-109036962D01*
X63616962Y-108851013D01*
X63763061Y-108632359D01*
X63863696Y-108389405D01*
X63915000Y-108131486D01*
X63915000Y-107868514D01*
X63863696Y-107610595D01*
X63763061Y-107367641D01*
X63616962Y-107148987D01*
X63431013Y-106963038D01*
X63212359Y-106816939D01*
X62969405Y-106716304D01*
X62711486Y-106665000D01*
X62448514Y-106665000D01*
X62190595Y-106716304D01*
X61947641Y-106816939D01*
X61728987Y-106963038D01*
X61543038Y-107148987D01*
X61396939Y-107367641D01*
X61296304Y-107610595D01*
X61245000Y-107868514D01*
X58835000Y-107868514D01*
X58783696Y-107610595D01*
X58683061Y-107367641D01*
X58536962Y-107148987D01*
X58351013Y-106963038D01*
X58132359Y-106816939D01*
X57889405Y-106716304D01*
X57631486Y-106665000D01*
X57368514Y-106665000D01*
X57110595Y-106716304D01*
X56867641Y-106816939D01*
X56648987Y-106963038D01*
X56463038Y-107148987D01*
X56316939Y-107367641D01*
X56216304Y-107610595D01*
X56165000Y-107868514D01*
X56165000Y-108131486D01*
X56216304Y-108389405D01*
X56316939Y-108632359D01*
X56463038Y-108851013D01*
X56465001Y-108852976D01*
X56465001Y-109071288D01*
X54304097Y-111232193D01*
X54264604Y-111264604D01*
X54135266Y-111422203D01*
X54039159Y-111602008D01*
X53979976Y-111797106D01*
X53965000Y-111949163D01*
X53965000Y-111949172D01*
X53959994Y-112000000D01*
X53960945Y-112009659D01*
X53885363Y-112085241D01*
X53728320Y-112320273D01*
X53620147Y-112581426D01*
X53565000Y-112858665D01*
X47035000Y-112858665D01*
X47035000Y-112508710D01*
X47195903Y-112347807D01*
X47235396Y-112315396D01*
X47364734Y-112157797D01*
X47460841Y-111977993D01*
X47495117Y-111865000D01*
X48415772Y-111865000D01*
X48466600Y-111870006D01*
X48517428Y-111865000D01*
X48517438Y-111865000D01*
X48669495Y-111850024D01*
X48864593Y-111790841D01*
X49044397Y-111694734D01*
X49201996Y-111565396D01*
X49234407Y-111525903D01*
X52096308Y-108664003D01*
X52135796Y-108631596D01*
X52210973Y-108539993D01*
X52265134Y-108473998D01*
X52316504Y-108377891D01*
X52361241Y-108294193D01*
X52420424Y-108099095D01*
X52435400Y-107947038D01*
X52435400Y-107947035D01*
X52440407Y-107896200D01*
X52437681Y-107868514D01*
X53165000Y-107868514D01*
X53165000Y-108131486D01*
X53216304Y-108389405D01*
X53316939Y-108632359D01*
X53463038Y-108851013D01*
X53648987Y-109036962D01*
X53867641Y-109183061D01*
X54110595Y-109283696D01*
X54368514Y-109335000D01*
X54631486Y-109335000D01*
X54889405Y-109283696D01*
X55132359Y-109183061D01*
X55351013Y-109036962D01*
X55536962Y-108851013D01*
X55683061Y-108632359D01*
X55783696Y-108389405D01*
X55835000Y-108131486D01*
X55835000Y-107868514D01*
X55783696Y-107610595D01*
X55683061Y-107367641D01*
X55536962Y-107148987D01*
X55351013Y-106963038D01*
X55132359Y-106816939D01*
X54889405Y-106716304D01*
X54631486Y-106665000D01*
X54368514Y-106665000D01*
X54110595Y-106716304D01*
X53867641Y-106816939D01*
X53648987Y-106963038D01*
X53463038Y-107148987D01*
X53316939Y-107367641D01*
X53216304Y-107610595D01*
X53165000Y-107868514D01*
X52437681Y-107868514D01*
X52435400Y-107845365D01*
X52435400Y-102628310D01*
X52724384Y-102339327D01*
X52740147Y-102418574D01*
X52848320Y-102679727D01*
X53005363Y-102914759D01*
X53205241Y-103114637D01*
X53440273Y-103271680D01*
X53701426Y-103379853D01*
X53978665Y-103435000D01*
X54261335Y-103435000D01*
X54538574Y-103379853D01*
X54799727Y-103271680D01*
X55034759Y-103114637D01*
X55234637Y-102914759D01*
X55391680Y-102679727D01*
X55499853Y-102418574D01*
X55555000Y-102141335D01*
X55555000Y-101858665D01*
X55499853Y-101581426D01*
X55391680Y-101320273D01*
X55311317Y-101200000D01*
X57561928Y-101200000D01*
X57561928Y-102800000D01*
X57574188Y-102924482D01*
X57610498Y-103044180D01*
X57669463Y-103154494D01*
X57748815Y-103251185D01*
X57845506Y-103330537D01*
X57955820Y-103389502D01*
X58075518Y-103425812D01*
X58200000Y-103438072D01*
X59800000Y-103438072D01*
X59924482Y-103425812D01*
X60044180Y-103389502D01*
X60154494Y-103330537D01*
X60227177Y-103270887D01*
X65465001Y-108508712D01*
X65465001Y-108727024D01*
X65463038Y-108728987D01*
X65316939Y-108947641D01*
X65216304Y-109190595D01*
X65165000Y-109448514D01*
X65165000Y-109711486D01*
X65216304Y-109969405D01*
X65316939Y-110212359D01*
X65463038Y-110431013D01*
X65465000Y-110432975D01*
X65465000Y-110651290D01*
X65304097Y-110812193D01*
X65264604Y-110844604D01*
X65135266Y-111002203D01*
X65039159Y-111182008D01*
X64979976Y-111377106D01*
X64965000Y-111529163D01*
X64965000Y-111529172D01*
X64959994Y-111580000D01*
X64965000Y-111630828D01*
X64965001Y-116847205D01*
X64870279Y-116886440D01*
X64479651Y-117147450D01*
X64147450Y-117479651D01*
X63886440Y-117870279D01*
X63706654Y-118304321D01*
X63615000Y-118765098D01*
X63615000Y-119234902D01*
X63706654Y-119695679D01*
X63886440Y-120129721D01*
X64147450Y-120520349D01*
X64479651Y-120852550D01*
X64870279Y-121113560D01*
X65304321Y-121293346D01*
X65765098Y-121385000D01*
X66234902Y-121385000D01*
X66695679Y-121293346D01*
X67129721Y-121113560D01*
X67520349Y-120852550D01*
X67852550Y-120520349D01*
X68113560Y-120129721D01*
X68293346Y-119695679D01*
X68385000Y-119234902D01*
X68385000Y-118765098D01*
X68293346Y-118304321D01*
X68113560Y-117870279D01*
X67852550Y-117479651D01*
X67520349Y-117147450D01*
X67129721Y-116886440D01*
X67035000Y-116847205D01*
X67035000Y-112008710D01*
X67195903Y-111847807D01*
X67235396Y-111815396D01*
X67364734Y-111657797D01*
X67460841Y-111477993D01*
X67520024Y-111282895D01*
X67535000Y-111130837D01*
X67535000Y-111130835D01*
X67540007Y-111080000D01*
X67535000Y-111029165D01*
X67535000Y-110432975D01*
X67536962Y-110431013D01*
X67683061Y-110212359D01*
X67783696Y-109969405D01*
X67835000Y-109711486D01*
X67835000Y-109448514D01*
X67783696Y-109190595D01*
X67683061Y-108947641D01*
X67536962Y-108728987D01*
X67535000Y-108727025D01*
X67535000Y-108130827D01*
X67540006Y-108079999D01*
X67535000Y-108029171D01*
X67535000Y-108029162D01*
X67520024Y-107877105D01*
X67460841Y-107682007D01*
X67416104Y-107598309D01*
X67364734Y-107502202D01*
X67267803Y-107384092D01*
X67235396Y-107344604D01*
X67195908Y-107312197D01*
X61593553Y-101709843D01*
X61560841Y-101602007D01*
X61464734Y-101422203D01*
X61335396Y-101264604D01*
X61177797Y-101135266D01*
X60997993Y-101039159D01*
X60802895Y-100979976D01*
X60650838Y-100965000D01*
X60600000Y-100959993D01*
X60549162Y-100965000D01*
X60392287Y-100965000D01*
X60389502Y-100955820D01*
X60330537Y-100845506D01*
X60251185Y-100748815D01*
X60154494Y-100669463D01*
X60044180Y-100610498D01*
X59924482Y-100574188D01*
X59800000Y-100561928D01*
X58200000Y-100561928D01*
X58075518Y-100574188D01*
X57955820Y-100610498D01*
X57845506Y-100669463D01*
X57748815Y-100748815D01*
X57669463Y-100845506D01*
X57610498Y-100955820D01*
X57574188Y-101075518D01*
X57561928Y-101200000D01*
X55311317Y-101200000D01*
X55234637Y-101085241D01*
X55034759Y-100885363D01*
X54799727Y-100728320D01*
X54538574Y-100620147D01*
X54459327Y-100604384D01*
X54695908Y-100367803D01*
X54735396Y-100335396D01*
X54767804Y-100295907D01*
X54864734Y-100177798D01*
X54960841Y-99997994D01*
X54983622Y-99922895D01*
X55010285Y-99835000D01*
X56549172Y-99835000D01*
X56600000Y-99840006D01*
X56650828Y-99835000D01*
X56650838Y-99835000D01*
X56802895Y-99820024D01*
X56997993Y-99760841D01*
X57177797Y-99664734D01*
X57335396Y-99535396D01*
X57367807Y-99495903D01*
X57687382Y-99176328D01*
X57748815Y-99251185D01*
X57845506Y-99330537D01*
X57955820Y-99389502D01*
X58075518Y-99425812D01*
X58200000Y-99438072D01*
X59800000Y-99438072D01*
X59924482Y-99425812D01*
X60044180Y-99389502D01*
X60154494Y-99330537D01*
X60251185Y-99251185D01*
X60330537Y-99154494D01*
X60389502Y-99044180D01*
X60425812Y-98924482D01*
X60438072Y-98800000D01*
X60438072Y-97200000D01*
X60425812Y-97075518D01*
X60389502Y-96955820D01*
X60330537Y-96845506D01*
X60251185Y-96748815D01*
X60154494Y-96669463D01*
X60044180Y-96610498D01*
X59924482Y-96574188D01*
X59800000Y-96561928D01*
X58200000Y-96561928D01*
X58075518Y-96574188D01*
X57955820Y-96610498D01*
X57845506Y-96669463D01*
X57748815Y-96748815D01*
X57669463Y-96845506D01*
X57610498Y-96955820D01*
X57607713Y-96965000D01*
X57450835Y-96965000D01*
X57400000Y-96959993D01*
X57349165Y-96965000D01*
X57349162Y-96965000D01*
X57197105Y-96979976D01*
X57002007Y-97039159D01*
X56933984Y-97075518D01*
X56822202Y-97135266D01*
X56743324Y-97200000D01*
X56664604Y-97264604D01*
X56632197Y-97304092D01*
X56171290Y-97765000D01*
X55416369Y-97765000D01*
X55379853Y-97581426D01*
X55271680Y-97320273D01*
X55114637Y-97085241D01*
X54914759Y-96885363D01*
X54679727Y-96728320D01*
X54418574Y-96620147D01*
X54141335Y-96565000D01*
X53858665Y-96565000D01*
X53581426Y-96620147D01*
X53320273Y-96728320D01*
X53085241Y-96885363D01*
X52885363Y-97085241D01*
X52728320Y-97320273D01*
X52620147Y-97581426D01*
X52565000Y-97858665D01*
X52565000Y-98141335D01*
X52620147Y-98418574D01*
X52728320Y-98679727D01*
X52885363Y-98914759D01*
X52965000Y-98994396D01*
X52965000Y-99171289D01*
X50704492Y-101431798D01*
X50665005Y-101464204D01*
X50632598Y-101503692D01*
X50632597Y-101503693D01*
X50535666Y-101621803D01*
X50439560Y-101801607D01*
X50380377Y-101996705D01*
X50360394Y-102199600D01*
X50365401Y-102250438D01*
X50365400Y-105593120D01*
X50335384Y-105536962D01*
X50284734Y-105442202D01*
X50187803Y-105324092D01*
X50155396Y-105284604D01*
X50115908Y-105252197D01*
X47893782Y-103030072D01*
X47925812Y-102924482D01*
X47938072Y-102800000D01*
X47938072Y-101200000D01*
X47925812Y-101075518D01*
X47889502Y-100955820D01*
X47830537Y-100845506D01*
X47751185Y-100748815D01*
X47654494Y-100669463D01*
X47544180Y-100610498D01*
X47535000Y-100607713D01*
X47535000Y-99770835D01*
X47540007Y-99720000D01*
X47528188Y-99600000D01*
X47520024Y-99517105D01*
X47473344Y-99363223D01*
X47534494Y-99330537D01*
X47631185Y-99251185D01*
X47710537Y-99154494D01*
X47769502Y-99044180D01*
X47805812Y-98924482D01*
X47815271Y-98828439D01*
X60565000Y-86078711D01*
X60565000Y-86141335D01*
X60620147Y-86418574D01*
X60728320Y-86679727D01*
X60885363Y-86914759D01*
X61085241Y-87114637D01*
X61320273Y-87271680D01*
X61581426Y-87379853D01*
X61858665Y-87435000D01*
X62141335Y-87435000D01*
X62418574Y-87379853D01*
X62679727Y-87271680D01*
X62914759Y-87114637D01*
X63114637Y-86914759D01*
X63271680Y-86679727D01*
X63379853Y-86418574D01*
X63435000Y-86141335D01*
X63435000Y-85858665D01*
X63379853Y-85581426D01*
X63271680Y-85320273D01*
X63114637Y-85085241D01*
X62914759Y-84885363D01*
X62682241Y-84730000D01*
X62914759Y-84574637D01*
X63114637Y-84374759D01*
X63271680Y-84139727D01*
X63379853Y-83878574D01*
X63435000Y-83601335D01*
X63435000Y-83318665D01*
X63379853Y-83041426D01*
X63271680Y-82780273D01*
X63114637Y-82545241D01*
X62914759Y-82345363D01*
X62682241Y-82190000D01*
X62914759Y-82034637D01*
X63114637Y-81834759D01*
X63271680Y-81599727D01*
X63379853Y-81338574D01*
X63435000Y-81061335D01*
X63435000Y-80778665D01*
X63379853Y-80501426D01*
X63271680Y-80240273D01*
X63114637Y-80005241D01*
X62914759Y-79805363D01*
X62682241Y-79650000D01*
X62914759Y-79494637D01*
X63114637Y-79294759D01*
X63271680Y-79059727D01*
X63379853Y-78798574D01*
X63435000Y-78521335D01*
X63435000Y-78238665D01*
X63379853Y-77961426D01*
X63271680Y-77700273D01*
X63114637Y-77465241D01*
X62914759Y-77265363D01*
X62679727Y-77108320D01*
X62418574Y-77000147D01*
X62141335Y-76945000D01*
X61858665Y-76945000D01*
X61581426Y-77000147D01*
X61320273Y-77108320D01*
X61085241Y-77265363D01*
X60885363Y-77465241D01*
X60728320Y-77700273D01*
X60677705Y-77822467D01*
X60664735Y-77798201D01*
X60597523Y-77716304D01*
X60535397Y-77640603D01*
X60495904Y-77608192D01*
X60035000Y-77147288D01*
X60035000Y-74008710D01*
X60121608Y-73922102D01*
X60228320Y-74179727D01*
X60385363Y-74414759D01*
X60585241Y-74614637D01*
X60820273Y-74771680D01*
X61081426Y-74879853D01*
X61358665Y-74935000D01*
X61641335Y-74935000D01*
X61918574Y-74879853D01*
X62179727Y-74771680D01*
X62414759Y-74614637D01*
X62614637Y-74414759D01*
X62750000Y-74212173D01*
X62885363Y-74414759D01*
X63085241Y-74614637D01*
X63320273Y-74771680D01*
X63581426Y-74879853D01*
X63858665Y-74935000D01*
X63971290Y-74935000D01*
X64965001Y-75928712D01*
X64965000Y-87571289D01*
X62871290Y-89665000D01*
X62868514Y-89665000D01*
X62610595Y-89716304D01*
X62367641Y-89816939D01*
X62148987Y-89963038D01*
X61963038Y-90148987D01*
X61816939Y-90367641D01*
X61716304Y-90610595D01*
X61665000Y-90868514D01*
X61665000Y-91131486D01*
X61716304Y-91389405D01*
X61816939Y-91632359D01*
X61963038Y-91851013D01*
X62148987Y-92036962D01*
X62367641Y-92183061D01*
X62610595Y-92283696D01*
X62868514Y-92335000D01*
X63131486Y-92335000D01*
X63389405Y-92283696D01*
X63632359Y-92183061D01*
X63851013Y-92036962D01*
X64036962Y-91851013D01*
X64183061Y-91632359D01*
X64283696Y-91389405D01*
X64335000Y-91131486D01*
X64335000Y-91128710D01*
X65585001Y-89878710D01*
X65585000Y-97005604D01*
X65505363Y-97085241D01*
X65348320Y-97320273D01*
X65240147Y-97581426D01*
X65185000Y-97858665D01*
X65185000Y-98141335D01*
X65240147Y-98418574D01*
X65348320Y-98679727D01*
X65505363Y-98914759D01*
X65585001Y-98994397D01*
X65585000Y-101005604D01*
X65505363Y-101085241D01*
X65348320Y-101320273D01*
X65240147Y-101581426D01*
X65185000Y-101858665D01*
X65185000Y-102141335D01*
X65240147Y-102418574D01*
X65348320Y-102679727D01*
X65505363Y-102914759D01*
X65705241Y-103114637D01*
X65940273Y-103271680D01*
X65958589Y-103279267D01*
X65867641Y-103316939D01*
X65648987Y-103463038D01*
X65463038Y-103648987D01*
X65316939Y-103867641D01*
X65216304Y-104110595D01*
X65165000Y-104368514D01*
X65165000Y-104631486D01*
X65216304Y-104889405D01*
X65316939Y-105132359D01*
X65463038Y-105351013D01*
X65648987Y-105536962D01*
X65867641Y-105683061D01*
X66110595Y-105783696D01*
X66368514Y-105835000D01*
X66631486Y-105835000D01*
X66889405Y-105783696D01*
X67132359Y-105683061D01*
X67351013Y-105536962D01*
X67536962Y-105351013D01*
X67683061Y-105132359D01*
X67783696Y-104889405D01*
X67835000Y-104631486D01*
X67835000Y-104368514D01*
X67783696Y-104110595D01*
X67683061Y-103867641D01*
X67536962Y-103648987D01*
X67351013Y-103463038D01*
X67154594Y-103331796D01*
X67299727Y-103271680D01*
X67534759Y-103114637D01*
X67734637Y-102914759D01*
X67891680Y-102679727D01*
X67999853Y-102418574D01*
X68055000Y-102141335D01*
X68055000Y-101858665D01*
X67999853Y-101581426D01*
X67891680Y-101320273D01*
X67734637Y-101085241D01*
X67655000Y-101005604D01*
X67655000Y-98994396D01*
X67734637Y-98914759D01*
X67891680Y-98679727D01*
X67999853Y-98418574D01*
X68055000Y-98141335D01*
X68055000Y-97858665D01*
X67999853Y-97581426D01*
X67891680Y-97320273D01*
X67734637Y-97085241D01*
X67655000Y-97005604D01*
X67655000Y-92268952D01*
X67690595Y-92283696D01*
X67948514Y-92335000D01*
X68211486Y-92335000D01*
X68469405Y-92283696D01*
X68712359Y-92183061D01*
X68931013Y-92036962D01*
X69116962Y-91851013D01*
X69263061Y-91632359D01*
X69363696Y-91389405D01*
X69415000Y-91131486D01*
X69415000Y-90868514D01*
X69363696Y-90610595D01*
X69263061Y-90367641D01*
X69116962Y-90148987D01*
X68931013Y-89963038D01*
X68712359Y-89816939D01*
X68469405Y-89716304D01*
X68211486Y-89665000D01*
X67948514Y-89665000D01*
X67690595Y-89716304D01*
X67655000Y-89731048D01*
X67655000Y-89222939D01*
X67695914Y-89182025D01*
X67735407Y-89149614D01*
X67864745Y-88992015D01*
X67960852Y-88812211D01*
X68020035Y-88617113D01*
X68035011Y-88465056D01*
X68035011Y-88465053D01*
X68040018Y-88414218D01*
X68035011Y-88363383D01*
X68035011Y-81428699D01*
X68221065Y-81242645D01*
X68240147Y-81338574D01*
X68348320Y-81599727D01*
X68505363Y-81834759D01*
X68705241Y-82034637D01*
X68937759Y-82190000D01*
X68705241Y-82345363D01*
X68505363Y-82545241D01*
X68348320Y-82780273D01*
X68240147Y-83041426D01*
X68185000Y-83318665D01*
X68185000Y-83601335D01*
X68240147Y-83878574D01*
X68348320Y-84139727D01*
X68505363Y-84374759D01*
X68703961Y-84573357D01*
X68695518Y-84574188D01*
X68575820Y-84610498D01*
X68465506Y-84669463D01*
X68368815Y-84748815D01*
X68289463Y-84845506D01*
X68230498Y-84955820D01*
X68194188Y-85075518D01*
X68181928Y-85200000D01*
X68181928Y-86800000D01*
X68194188Y-86924482D01*
X68230498Y-87044180D01*
X68289463Y-87154494D01*
X68368815Y-87251185D01*
X68465506Y-87330537D01*
X68575820Y-87389502D01*
X68695518Y-87425812D01*
X68820000Y-87438072D01*
X70420000Y-87438072D01*
X70544482Y-87425812D01*
X70664180Y-87389502D01*
X70774494Y-87330537D01*
X70871185Y-87251185D01*
X70950537Y-87154494D01*
X71009502Y-87044180D01*
X71045812Y-86924482D01*
X71058072Y-86800000D01*
X71058072Y-85200000D01*
X71045812Y-85075518D01*
X71009502Y-84955820D01*
X70950537Y-84845506D01*
X70871185Y-84748815D01*
X70774494Y-84669463D01*
X70664180Y-84610498D01*
X70544482Y-84574188D01*
X70536039Y-84573357D01*
X70734637Y-84374759D01*
X70891680Y-84139727D01*
X70999853Y-83878574D01*
X71055000Y-83601335D01*
X71055000Y-83318665D01*
X70999853Y-83041426D01*
X70891680Y-82780273D01*
X70734637Y-82545241D01*
X70534759Y-82345363D01*
X70302241Y-82190000D01*
X70534759Y-82034637D01*
X70734637Y-81834759D01*
X70891680Y-81599727D01*
X70999853Y-81338574D01*
X71055000Y-81061335D01*
X71055000Y-80778665D01*
X70999853Y-80501426D01*
X70891680Y-80240273D01*
X70734637Y-80005241D01*
X70534759Y-79805363D01*
X70302241Y-79650000D01*
X70534759Y-79494637D01*
X70734637Y-79294759D01*
X70891680Y-79059727D01*
X70999853Y-78798574D01*
X71055000Y-78521335D01*
X71055000Y-78238665D01*
X70999853Y-77961426D01*
X70891680Y-77700273D01*
X70734637Y-77465241D01*
X70655000Y-77385604D01*
X70655000Y-76830827D01*
X70660006Y-76779999D01*
X70655000Y-76729171D01*
X70655000Y-76729162D01*
X70640024Y-76577105D01*
X70580841Y-76382007D01*
X70519798Y-76267803D01*
X70484734Y-76202202D01*
X70387803Y-76084092D01*
X70355396Y-76044604D01*
X70315908Y-76012197D01*
X65697407Y-71393697D01*
X65664996Y-71354204D01*
X65507397Y-71224866D01*
X65327593Y-71128759D01*
X65132495Y-71069576D01*
X64980438Y-71054600D01*
X64980428Y-71054600D01*
X64929600Y-71049594D01*
X64878772Y-71054600D01*
X62989111Y-71054600D01*
X63928711Y-70115000D01*
X64147025Y-70115000D01*
X64148987Y-70116962D01*
X64367641Y-70263061D01*
X64610595Y-70363696D01*
X64868514Y-70415000D01*
X65131486Y-70415000D01*
X65389405Y-70363696D01*
X65632359Y-70263061D01*
X65851013Y-70116962D01*
X66036962Y-69931013D01*
X66183061Y-69712359D01*
X66283696Y-69469405D01*
X66335000Y-69211486D01*
X66335000Y-68948514D01*
X67665000Y-68948514D01*
X67665000Y-69211486D01*
X67716304Y-69469405D01*
X67816939Y-69712359D01*
X67963038Y-69931013D01*
X68148987Y-70116962D01*
X68367641Y-70263061D01*
X68610595Y-70363696D01*
X68868514Y-70415000D01*
X69131486Y-70415000D01*
X69389405Y-70363696D01*
X69632359Y-70263061D01*
X69851013Y-70116962D01*
X70036962Y-69931013D01*
X70183061Y-69712359D01*
X70283696Y-69469405D01*
X70335000Y-69211486D01*
X70335000Y-68948514D01*
X70283696Y-68690595D01*
X70183061Y-68447641D01*
X70036962Y-68228987D01*
X69851013Y-68043038D01*
X69632359Y-67896939D01*
X69389405Y-67796304D01*
X69131486Y-67745000D01*
X68868514Y-67745000D01*
X68610595Y-67796304D01*
X68367641Y-67896939D01*
X68148987Y-68043038D01*
X67963038Y-68228987D01*
X67816939Y-68447641D01*
X67716304Y-68690595D01*
X67665000Y-68948514D01*
X66335000Y-68948514D01*
X66283696Y-68690595D01*
X66183061Y-68447641D01*
X66036962Y-68228987D01*
X66035000Y-68227025D01*
X66035000Y-67630827D01*
X66040006Y-67579999D01*
X66035000Y-67529171D01*
X66035000Y-67529163D01*
X66020024Y-67377106D01*
X65960841Y-67182007D01*
X65864734Y-67002203D01*
X65735396Y-66844604D01*
X65695908Y-66812197D01*
X62752225Y-63868514D01*
X63665000Y-63868514D01*
X63665000Y-64131486D01*
X63716304Y-64389405D01*
X63816939Y-64632359D01*
X63963038Y-64851013D01*
X64148987Y-65036962D01*
X64367641Y-65183061D01*
X64610595Y-65283696D01*
X64868514Y-65335000D01*
X65131486Y-65335000D01*
X65389405Y-65283696D01*
X65632359Y-65183061D01*
X65851013Y-65036962D01*
X66036962Y-64851013D01*
X66183061Y-64632359D01*
X66283696Y-64389405D01*
X66335000Y-64131486D01*
X66335000Y-63868514D01*
X67665000Y-63868514D01*
X67665000Y-64131486D01*
X67716304Y-64389405D01*
X67816939Y-64632359D01*
X67963038Y-64851013D01*
X68148987Y-65036962D01*
X68367641Y-65183061D01*
X68610595Y-65283696D01*
X68868514Y-65335000D01*
X69131486Y-65335000D01*
X69389405Y-65283696D01*
X69632359Y-65183061D01*
X69851013Y-65036962D01*
X70036962Y-64851013D01*
X70183061Y-64632359D01*
X70283696Y-64389405D01*
X70335000Y-64131486D01*
X70335000Y-63868514D01*
X70283696Y-63610595D01*
X70183061Y-63367641D01*
X70036962Y-63148987D01*
X69851013Y-62963038D01*
X69632359Y-62816939D01*
X69389405Y-62716304D01*
X69131486Y-62665000D01*
X68868514Y-62665000D01*
X68610595Y-62716304D01*
X68367641Y-62816939D01*
X68148987Y-62963038D01*
X67963038Y-63148987D01*
X67816939Y-63367641D01*
X67716304Y-63610595D01*
X67665000Y-63868514D01*
X66335000Y-63868514D01*
X66283696Y-63610595D01*
X66183061Y-63367641D01*
X66036962Y-63148987D01*
X65851013Y-62963038D01*
X65632359Y-62816939D01*
X65389405Y-62716304D01*
X65131486Y-62665000D01*
X64868514Y-62665000D01*
X64610595Y-62716304D01*
X64367641Y-62816939D01*
X64148987Y-62963038D01*
X63963038Y-63148987D01*
X63816939Y-63367641D01*
X63716304Y-63610595D01*
X63665000Y-63868514D01*
X62752225Y-63868514D01*
X62535000Y-63651290D01*
X62535000Y-55494396D01*
X62614637Y-55414759D01*
X62771680Y-55179727D01*
X62879853Y-54918574D01*
X62935000Y-54641335D01*
X62935000Y-54358665D01*
X62879853Y-54081426D01*
X62771680Y-53820273D01*
X62614637Y-53585241D01*
X62414759Y-53385363D01*
X62212173Y-53250000D01*
X62414759Y-53114637D01*
X62614637Y-52914759D01*
X62771680Y-52679727D01*
X62879853Y-52418574D01*
X62935000Y-52141335D01*
X62935000Y-51858665D01*
X65065000Y-51858665D01*
X65065000Y-52141335D01*
X65120147Y-52418574D01*
X65228320Y-52679727D01*
X65385363Y-52914759D01*
X65585241Y-53114637D01*
X65787827Y-53250000D01*
X65585241Y-53385363D01*
X65385363Y-53585241D01*
X65228320Y-53820273D01*
X65120147Y-54081426D01*
X65065000Y-54358665D01*
X65065000Y-54641335D01*
X65120147Y-54918574D01*
X65228320Y-55179727D01*
X65385363Y-55414759D01*
X65585241Y-55614637D01*
X65820273Y-55771680D01*
X66081426Y-55879853D01*
X66358665Y-55935000D01*
X66641335Y-55935000D01*
X66918574Y-55879853D01*
X67179727Y-55771680D01*
X67414759Y-55614637D01*
X67614637Y-55414759D01*
X67771680Y-55179727D01*
X67879853Y-54918574D01*
X67935000Y-54641335D01*
X67935000Y-54358665D01*
X67879853Y-54081426D01*
X67771680Y-53820273D01*
X67614637Y-53585241D01*
X67414759Y-53385363D01*
X67212173Y-53250000D01*
X67414759Y-53114637D01*
X67614637Y-52914759D01*
X67771680Y-52679727D01*
X67879853Y-52418574D01*
X67935000Y-52141335D01*
X67935000Y-51858665D01*
X67879853Y-51581426D01*
X67771680Y-51320273D01*
X67614637Y-51085241D01*
X67414759Y-50885363D01*
X67179727Y-50728320D01*
X66918574Y-50620147D01*
X66641335Y-50565000D01*
X66358665Y-50565000D01*
X66081426Y-50620147D01*
X65820273Y-50728320D01*
X65585241Y-50885363D01*
X65385363Y-51085241D01*
X65228320Y-51320273D01*
X65120147Y-51581426D01*
X65065000Y-51858665D01*
X62935000Y-51858665D01*
X62879853Y-51581426D01*
X62771680Y-51320273D01*
X62614637Y-51085241D01*
X62435000Y-50905604D01*
X62435000Y-41952795D01*
X62529721Y-41913560D01*
X62920349Y-41652550D01*
X63252550Y-41320349D01*
X63513560Y-40929721D01*
X63693346Y-40495679D01*
X63785000Y-40034902D01*
X63785000Y-39565098D01*
X63693346Y-39104321D01*
X63513560Y-38670279D01*
X63252550Y-38279651D01*
X62920349Y-37947450D01*
X62529721Y-37686440D01*
X62095679Y-37506654D01*
X61634902Y-37415000D01*
X61165098Y-37415000D01*
X60704321Y-37506654D01*
X60270279Y-37686440D01*
X59879651Y-37947450D01*
X59547450Y-38279651D01*
X59286440Y-38670279D01*
X59106654Y-39104321D01*
X59015000Y-39565098D01*
X59015000Y-40034902D01*
X59106654Y-40495679D01*
X59286440Y-40929721D01*
X59547450Y-41320349D01*
X59879651Y-41652550D01*
X60270279Y-41913560D01*
X60365001Y-41952795D01*
X60365000Y-49776244D01*
X60250838Y-49765000D01*
X60250828Y-49765000D01*
X60200000Y-49759994D01*
X60149172Y-49765000D01*
X57750827Y-49765000D01*
X57699999Y-49759994D01*
X57649171Y-49765000D01*
X57649162Y-49765000D01*
X57497105Y-49779976D01*
X57302007Y-49839159D01*
X57218309Y-49883896D01*
X57122202Y-49935266D01*
X57004092Y-50032197D01*
X56964604Y-50064604D01*
X56932197Y-50104092D01*
X56471289Y-50565000D01*
X56358665Y-50565000D01*
X56081426Y-50620147D01*
X55820273Y-50728320D01*
X55585241Y-50885363D01*
X55385363Y-51085241D01*
X55228320Y-51320273D01*
X55120147Y-51581426D01*
X55065000Y-51858665D01*
X55065000Y-52141335D01*
X55120147Y-52418574D01*
X55228320Y-52679727D01*
X55385363Y-52914759D01*
X55585241Y-53114637D01*
X55787827Y-53250000D01*
X55585241Y-53385363D01*
X55385363Y-53585241D01*
X55228320Y-53820273D01*
X55120147Y-54081426D01*
X55065000Y-54358665D01*
X55065000Y-54641335D01*
X55120147Y-54918574D01*
X55228320Y-55179727D01*
X55385363Y-55414759D01*
X55585241Y-55614637D01*
X55820273Y-55771680D01*
X56081426Y-55879853D01*
X56358665Y-55935000D01*
X56471289Y-55935000D01*
X56832197Y-56295908D01*
X56864604Y-56335396D01*
X56904092Y-56367803D01*
X57022202Y-56464734D01*
X57118309Y-56516104D01*
X57202007Y-56560841D01*
X57397105Y-56620024D01*
X57549162Y-56635000D01*
X57549164Y-56635000D01*
X57600000Y-56640007D01*
X57650835Y-56635000D01*
X60349172Y-56635000D01*
X60400000Y-56640006D01*
X60450828Y-56635000D01*
X60450838Y-56635000D01*
X60465001Y-56633605D01*
X60465000Y-64029172D01*
X60459994Y-64080000D01*
X60465000Y-64130828D01*
X60465000Y-64130837D01*
X60479976Y-64282894D01*
X60539159Y-64477992D01*
X60635266Y-64657797D01*
X60764604Y-64815396D01*
X60804097Y-64847807D01*
X63965000Y-68008711D01*
X63965000Y-68045000D01*
X63550827Y-68045000D01*
X63499999Y-68039994D01*
X63449171Y-68045000D01*
X63449162Y-68045000D01*
X63297105Y-68059976D01*
X63102007Y-68119159D01*
X63060519Y-68141335D01*
X62922202Y-68215266D01*
X62844345Y-68279162D01*
X62764604Y-68344604D01*
X62732197Y-68384092D01*
X58304097Y-72812193D01*
X58264604Y-72844604D01*
X58135266Y-73002203D01*
X58039159Y-73182008D01*
X57979976Y-73377106D01*
X57965000Y-73529163D01*
X57965000Y-73529172D01*
X57959994Y-73580000D01*
X57965000Y-73630828D01*
X57965001Y-77649151D01*
X57959993Y-77699999D01*
X57967439Y-77775601D01*
X57867641Y-77816939D01*
X57648987Y-77963038D01*
X57463038Y-78148987D01*
X57316939Y-78367641D01*
X57216304Y-78610595D01*
X57165000Y-78868514D01*
X57165000Y-79131486D01*
X57216304Y-79389405D01*
X57316939Y-79632359D01*
X57463038Y-79851013D01*
X57648987Y-80036962D01*
X57867641Y-80183061D01*
X57967439Y-80224399D01*
X57959993Y-80300001D01*
X57965000Y-80350840D01*
X57965001Y-82009163D01*
X57959994Y-82060000D01*
X57979977Y-82262895D01*
X58039160Y-82457993D01*
X58135266Y-82637797D01*
X58223246Y-82745000D01*
X58243632Y-82769841D01*
X58110595Y-82796304D01*
X57867641Y-82896939D01*
X57648987Y-83043038D01*
X57463038Y-83228987D01*
X57316939Y-83447641D01*
X57216304Y-83690595D01*
X57165000Y-83948514D01*
X57165000Y-84211486D01*
X57216304Y-84469405D01*
X57316939Y-84712359D01*
X57463038Y-84931013D01*
X57648987Y-85116962D01*
X57867641Y-85263061D01*
X58110595Y-85363696D01*
X58312443Y-85403847D01*
X47154362Y-96561928D01*
X45580000Y-96561928D01*
X45455518Y-96574188D01*
X45335820Y-96610498D01*
X45225506Y-96669463D01*
X45128815Y-96748815D01*
X45049463Y-96845506D01*
X44990498Y-96955820D01*
X44954188Y-97075518D01*
X44941928Y-97200000D01*
X44941928Y-98800000D01*
X44954188Y-98924482D01*
X44990498Y-99044180D01*
X45049463Y-99154494D01*
X45128815Y-99251185D01*
X45225506Y-99330537D01*
X45335820Y-99389502D01*
X45345000Y-99392287D01*
X45345000Y-99549172D01*
X45339994Y-99600000D01*
X45345000Y-99650828D01*
X45345000Y-99650838D01*
X45355835Y-99760840D01*
X45359977Y-99802895D01*
X45419160Y-99997993D01*
X45465000Y-100083755D01*
X45465000Y-100607713D01*
X45455820Y-100610498D01*
X45345506Y-100669463D01*
X45248815Y-100748815D01*
X45169463Y-100845506D01*
X45110498Y-100955820D01*
X45074188Y-101075518D01*
X45061928Y-101200000D01*
X45061928Y-102800000D01*
X45074188Y-102924482D01*
X45110498Y-103044180D01*
X45169463Y-103154494D01*
X45248815Y-103251185D01*
X45345506Y-103330537D01*
X45455820Y-103389502D01*
X45465001Y-103392287D01*
X45465001Y-103549152D01*
X45459993Y-103600000D01*
X45479976Y-103802895D01*
X45539159Y-103997993D01*
X45565239Y-104046786D01*
X45463038Y-104148987D01*
X45316939Y-104367641D01*
X45216304Y-104610595D01*
X45165000Y-104868514D01*
X45165000Y-105131486D01*
X45216304Y-105389405D01*
X45316939Y-105632359D01*
X45463038Y-105851013D01*
X45648987Y-106036962D01*
X45867641Y-106183061D01*
X46110595Y-106283696D01*
X46368514Y-106335000D01*
X46631486Y-106335000D01*
X46889405Y-106283696D01*
X47132359Y-106183061D01*
X47351013Y-106036962D01*
X47536962Y-105851013D01*
X47637234Y-105700944D01*
X48385000Y-106448711D01*
X48385001Y-107147024D01*
X48383038Y-107148987D01*
X48236939Y-107367641D01*
X48136304Y-107610595D01*
X48085000Y-107868514D01*
X48085000Y-108131486D01*
X48136304Y-108389405D01*
X48236939Y-108632359D01*
X48383038Y-108851013D01*
X48568987Y-109036962D01*
X48705028Y-109127861D01*
X48037890Y-109795000D01*
X47804464Y-109795000D01*
X47783696Y-109690595D01*
X47683061Y-109447641D01*
X47536962Y-109228987D01*
X47351013Y-109043038D01*
X47132359Y-108896939D01*
X46889405Y-108796304D01*
X46631486Y-108745000D01*
X46368514Y-108745000D01*
X46110595Y-108796304D01*
X45867641Y-108896939D01*
X45648987Y-109043038D01*
X45463038Y-109228987D01*
X45316939Y-109447641D01*
X45216304Y-109690595D01*
X45165000Y-109948514D01*
X45165000Y-110211486D01*
X45216304Y-110469405D01*
X45316939Y-110712359D01*
X45463038Y-110931013D01*
X45465000Y-110932975D01*
X45465000Y-111151290D01*
X45304097Y-111312193D01*
X45264604Y-111344604D01*
X45135266Y-111502203D01*
X45039159Y-111682008D01*
X44979976Y-111877106D01*
X44965000Y-112029163D01*
X44965000Y-112029172D01*
X44959994Y-112080000D01*
X44965000Y-112130828D01*
X44965001Y-116847205D01*
X44870279Y-116886440D01*
X44479651Y-117147450D01*
X44147450Y-117479651D01*
X43886440Y-117870279D01*
X43706654Y-118304321D01*
X43615000Y-118765098D01*
X38185000Y-118765098D01*
X38185000Y-90868514D01*
X43085000Y-90868514D01*
X43085000Y-91131486D01*
X43136304Y-91389405D01*
X43236939Y-91632359D01*
X43383038Y-91851013D01*
X43568987Y-92036962D01*
X43787641Y-92183061D01*
X44030595Y-92283696D01*
X44288514Y-92335000D01*
X44551486Y-92335000D01*
X44809405Y-92283696D01*
X45052359Y-92183061D01*
X45271013Y-92036962D01*
X45456962Y-91851013D01*
X45603061Y-91632359D01*
X45703696Y-91389405D01*
X45755000Y-91131486D01*
X45755000Y-91128710D01*
X48515001Y-88368710D01*
X48515001Y-89181648D01*
X48479977Y-89297105D01*
X48459994Y-89500000D01*
X48465001Y-89550837D01*
X48465001Y-90147024D01*
X48463038Y-90148987D01*
X48316939Y-90367641D01*
X48216304Y-90610595D01*
X48165000Y-90868514D01*
X48165000Y-91131486D01*
X48216304Y-91389405D01*
X48316939Y-91632359D01*
X48463038Y-91851013D01*
X48648987Y-92036962D01*
X48867641Y-92183061D01*
X49110595Y-92283696D01*
X49368514Y-92335000D01*
X49631486Y-92335000D01*
X49889405Y-92283696D01*
X50132359Y-92183061D01*
X50351013Y-92036962D01*
X50536962Y-91851013D01*
X50683061Y-91632359D01*
X50783696Y-91389405D01*
X50835000Y-91131486D01*
X50835000Y-90868514D01*
X50783696Y-90610595D01*
X50683061Y-90367641D01*
X50536962Y-90148987D01*
X50535000Y-90147025D01*
X50535000Y-89768352D01*
X50570024Y-89652895D01*
X50585000Y-89500838D01*
X50585000Y-89500835D01*
X50590007Y-89450000D01*
X50585000Y-89399165D01*
X50585000Y-87438072D01*
X51800000Y-87438072D01*
X51924482Y-87425812D01*
X52044180Y-87389502D01*
X52154494Y-87330537D01*
X52251185Y-87251185D01*
X52330537Y-87154494D01*
X52389502Y-87044180D01*
X52425812Y-86924482D01*
X52438072Y-86800000D01*
X52438072Y-85200000D01*
X52425812Y-85075518D01*
X52389502Y-84955820D01*
X52330537Y-84845506D01*
X52251185Y-84748815D01*
X52154494Y-84669463D01*
X52044180Y-84610498D01*
X51924482Y-84574188D01*
X51916039Y-84573357D01*
X52114637Y-84374759D01*
X52271680Y-84139727D01*
X52379853Y-83878574D01*
X52381854Y-83868514D01*
X53165000Y-83868514D01*
X53165000Y-84131486D01*
X53216304Y-84389405D01*
X53316939Y-84632359D01*
X53463038Y-84851013D01*
X53648987Y-85036962D01*
X53867641Y-85183061D01*
X54110595Y-85283696D01*
X54368514Y-85335000D01*
X54631486Y-85335000D01*
X54889405Y-85283696D01*
X55132359Y-85183061D01*
X55351013Y-85036962D01*
X55536962Y-84851013D01*
X55683061Y-84632359D01*
X55783696Y-84389405D01*
X55835000Y-84131486D01*
X55835000Y-83868514D01*
X55783696Y-83610595D01*
X55683061Y-83367641D01*
X55536962Y-83148987D01*
X55351013Y-82963038D01*
X55132359Y-82816939D01*
X54889405Y-82716304D01*
X54631486Y-82665000D01*
X54368514Y-82665000D01*
X54110595Y-82716304D01*
X53867641Y-82816939D01*
X53648987Y-82963038D01*
X53463038Y-83148987D01*
X53316939Y-83367641D01*
X53216304Y-83610595D01*
X53165000Y-83868514D01*
X52381854Y-83868514D01*
X52435000Y-83601335D01*
X52435000Y-83318665D01*
X52379853Y-83041426D01*
X52271680Y-82780273D01*
X52114637Y-82545241D01*
X51914759Y-82345363D01*
X51682241Y-82190000D01*
X51914759Y-82034637D01*
X52114637Y-81834759D01*
X52271680Y-81599727D01*
X52379853Y-81338574D01*
X52435000Y-81061335D01*
X52435000Y-80778665D01*
X52379853Y-80501426D01*
X52271680Y-80240273D01*
X52114637Y-80005241D01*
X51914759Y-79805363D01*
X51682241Y-79650000D01*
X51914759Y-79494637D01*
X52114637Y-79294759D01*
X52271680Y-79059727D01*
X52379853Y-78798574D01*
X52381854Y-78788514D01*
X53165000Y-78788514D01*
X53165000Y-79051486D01*
X53216304Y-79309405D01*
X53316939Y-79552359D01*
X53463038Y-79771013D01*
X53648987Y-79956962D01*
X53867641Y-80103061D01*
X54110595Y-80203696D01*
X54368514Y-80255000D01*
X54631486Y-80255000D01*
X54889405Y-80203696D01*
X55132359Y-80103061D01*
X55351013Y-79956962D01*
X55536962Y-79771013D01*
X55683061Y-79552359D01*
X55783696Y-79309405D01*
X55835000Y-79051486D01*
X55835000Y-78788514D01*
X55783696Y-78530595D01*
X55683061Y-78287641D01*
X55536962Y-78068987D01*
X55351013Y-77883038D01*
X55132359Y-77736939D01*
X54889405Y-77636304D01*
X54631486Y-77585000D01*
X54368514Y-77585000D01*
X54110595Y-77636304D01*
X53867641Y-77736939D01*
X53648987Y-77883038D01*
X53463038Y-78068987D01*
X53316939Y-78287641D01*
X53216304Y-78530595D01*
X53165000Y-78788514D01*
X52381854Y-78788514D01*
X52435000Y-78521335D01*
X52435000Y-78238665D01*
X52379853Y-77961426D01*
X52271680Y-77700273D01*
X52114637Y-77465241D01*
X52035000Y-77385604D01*
X52035000Y-74494396D01*
X52114637Y-74414759D01*
X52271680Y-74179727D01*
X52379853Y-73918574D01*
X52435000Y-73641335D01*
X52435000Y-73358665D01*
X52379853Y-73081426D01*
X52271680Y-72820273D01*
X52114637Y-72585241D01*
X51914759Y-72385363D01*
X51679727Y-72228320D01*
X51418574Y-72120147D01*
X51141335Y-72065000D01*
X50858665Y-72065000D01*
X50581426Y-72120147D01*
X50320273Y-72228320D01*
X50085241Y-72385363D01*
X49885363Y-72585241D01*
X49750000Y-72787827D01*
X49614637Y-72585241D01*
X49414759Y-72385363D01*
X49179727Y-72228320D01*
X48918574Y-72120147D01*
X48641335Y-72065000D01*
X48358665Y-72065000D01*
X48081426Y-72120147D01*
X47820273Y-72228320D01*
X47585241Y-72385363D01*
X47385363Y-72585241D01*
X47228320Y-72820273D01*
X47120147Y-73081426D01*
X47065000Y-73358665D01*
X47065000Y-73641335D01*
X47120147Y-73918574D01*
X47228320Y-74179727D01*
X47385363Y-74414759D01*
X47465001Y-74494397D01*
X47465000Y-86491289D01*
X44291290Y-89665000D01*
X44288514Y-89665000D01*
X44030595Y-89716304D01*
X43787641Y-89816939D01*
X43568987Y-89963038D01*
X43383038Y-90148987D01*
X43236939Y-90367641D01*
X43136304Y-90610595D01*
X43085000Y-90868514D01*
X38185000Y-90868514D01*
X38185000Y-78238665D01*
X41945000Y-78238665D01*
X41945000Y-78521335D01*
X42000147Y-78798574D01*
X42108320Y-79059727D01*
X42265363Y-79294759D01*
X42465241Y-79494637D01*
X42697759Y-79650000D01*
X42465241Y-79805363D01*
X42265363Y-80005241D01*
X42108320Y-80240273D01*
X42000147Y-80501426D01*
X41945000Y-80778665D01*
X41945000Y-81061335D01*
X42000147Y-81338574D01*
X42108320Y-81599727D01*
X42265363Y-81834759D01*
X42465241Y-82034637D01*
X42697759Y-82190000D01*
X42465241Y-82345363D01*
X42265363Y-82545241D01*
X42108320Y-82780273D01*
X42000147Y-83041426D01*
X41945000Y-83318665D01*
X41945000Y-83601335D01*
X42000147Y-83878574D01*
X42108320Y-84139727D01*
X42265363Y-84374759D01*
X42465241Y-84574637D01*
X42697759Y-84730000D01*
X42465241Y-84885363D01*
X42265363Y-85085241D01*
X42108320Y-85320273D01*
X42000147Y-85581426D01*
X41945000Y-85858665D01*
X41945000Y-86141335D01*
X42000147Y-86418574D01*
X42108320Y-86679727D01*
X42265363Y-86914759D01*
X42465241Y-87114637D01*
X42700273Y-87271680D01*
X42961426Y-87379853D01*
X43238665Y-87435000D01*
X43521335Y-87435000D01*
X43798574Y-87379853D01*
X44059727Y-87271680D01*
X44294759Y-87114637D01*
X44494637Y-86914759D01*
X44651680Y-86679727D01*
X44759853Y-86418574D01*
X44815000Y-86141335D01*
X44815000Y-85858665D01*
X44759853Y-85581426D01*
X44651680Y-85320273D01*
X44494637Y-85085241D01*
X44294759Y-84885363D01*
X44062241Y-84730000D01*
X44294759Y-84574637D01*
X44494637Y-84374759D01*
X44651680Y-84139727D01*
X44759853Y-83878574D01*
X44815000Y-83601335D01*
X44815000Y-83318665D01*
X44759853Y-83041426D01*
X44651680Y-82780273D01*
X44494637Y-82545241D01*
X44294759Y-82345363D01*
X44062241Y-82190000D01*
X44294759Y-82034637D01*
X44494637Y-81834759D01*
X44651680Y-81599727D01*
X44759853Y-81338574D01*
X44815000Y-81061335D01*
X44815000Y-80778665D01*
X44759853Y-80501426D01*
X44651680Y-80240273D01*
X44494637Y-80005241D01*
X44294759Y-79805363D01*
X44062241Y-79650000D01*
X44294759Y-79494637D01*
X44494637Y-79294759D01*
X44651680Y-79059727D01*
X44759853Y-78798574D01*
X44815000Y-78521335D01*
X44815000Y-78238665D01*
X44759853Y-77961426D01*
X44651680Y-77700273D01*
X44494637Y-77465241D01*
X44294759Y-77265363D01*
X44059727Y-77108320D01*
X43798574Y-77000147D01*
X43521335Y-76945000D01*
X43238665Y-76945000D01*
X42961426Y-77000147D01*
X42700273Y-77108320D01*
X42465241Y-77265363D01*
X42265363Y-77465241D01*
X42108320Y-77700273D01*
X42000147Y-77961426D01*
X41945000Y-78238665D01*
X38185000Y-78238665D01*
X38185000Y-68868514D01*
X42665000Y-68868514D01*
X42665000Y-69131486D01*
X42716304Y-69389405D01*
X42816939Y-69632359D01*
X42963038Y-69851013D01*
X43148987Y-70036962D01*
X43367641Y-70183061D01*
X43610595Y-70283696D01*
X43868514Y-70335000D01*
X44131486Y-70335000D01*
X44389405Y-70283696D01*
X44632359Y-70183061D01*
X44851013Y-70036962D01*
X45036962Y-69851013D01*
X45183061Y-69632359D01*
X45283696Y-69389405D01*
X45335000Y-69131486D01*
X45335000Y-68948514D01*
X46665000Y-68948514D01*
X46665000Y-69211486D01*
X46716304Y-69469405D01*
X46816939Y-69712359D01*
X46963038Y-69931013D01*
X47148987Y-70116962D01*
X47367641Y-70263061D01*
X47610595Y-70363696D01*
X47868514Y-70415000D01*
X48131486Y-70415000D01*
X48389405Y-70363696D01*
X48632359Y-70263061D01*
X48851013Y-70116962D01*
X49036962Y-69931013D01*
X49183061Y-69712359D01*
X49283696Y-69469405D01*
X49335000Y-69211486D01*
X49335000Y-68948514D01*
X49283696Y-68690595D01*
X49183061Y-68447641D01*
X49036962Y-68228987D01*
X48851013Y-68043038D01*
X48632359Y-67896939D01*
X48389405Y-67796304D01*
X48131486Y-67745000D01*
X47868514Y-67745000D01*
X47610595Y-67796304D01*
X47367641Y-67896939D01*
X47148987Y-68043038D01*
X46963038Y-68228987D01*
X46816939Y-68447641D01*
X46716304Y-68690595D01*
X46665000Y-68948514D01*
X45335000Y-68948514D01*
X45335000Y-68868514D01*
X45283696Y-68610595D01*
X45183061Y-68367641D01*
X45036962Y-68148987D01*
X44851013Y-67963038D01*
X44632359Y-67816939D01*
X44389405Y-67716304D01*
X44131486Y-67665000D01*
X43868514Y-67665000D01*
X43610595Y-67716304D01*
X43367641Y-67816939D01*
X43148987Y-67963038D01*
X42963038Y-68148987D01*
X42816939Y-68367641D01*
X42716304Y-68610595D01*
X42665000Y-68868514D01*
X38185000Y-68868514D01*
X38185000Y-63788514D01*
X42665000Y-63788514D01*
X42665000Y-64051486D01*
X42716304Y-64309405D01*
X42816939Y-64552359D01*
X42963038Y-64771013D01*
X43148987Y-64956962D01*
X43367641Y-65103061D01*
X43610595Y-65203696D01*
X43868514Y-65255000D01*
X44131486Y-65255000D01*
X44389405Y-65203696D01*
X44632359Y-65103061D01*
X44851013Y-64956962D01*
X45036962Y-64771013D01*
X45183061Y-64552359D01*
X45283696Y-64309405D01*
X45335000Y-64051486D01*
X45335000Y-63868514D01*
X46665000Y-63868514D01*
X46665000Y-64131486D01*
X46716304Y-64389405D01*
X46816939Y-64632359D01*
X46963038Y-64851013D01*
X47148987Y-65036962D01*
X47367641Y-65183061D01*
X47610595Y-65283696D01*
X47868514Y-65335000D01*
X48131486Y-65335000D01*
X48389405Y-65283696D01*
X48632359Y-65183061D01*
X48851013Y-65036962D01*
X49036962Y-64851013D01*
X49179753Y-64637309D01*
X49185466Y-64647997D01*
X49314804Y-64805596D01*
X49354297Y-64838007D01*
X51345001Y-66828712D01*
X51345001Y-67005603D01*
X51265363Y-67085241D01*
X51108320Y-67320273D01*
X51000147Y-67581426D01*
X50945000Y-67858665D01*
X50945000Y-68141335D01*
X51000147Y-68418574D01*
X51108320Y-68679727D01*
X51265363Y-68914759D01*
X51465241Y-69114637D01*
X51700273Y-69271680D01*
X51961426Y-69379853D01*
X52238665Y-69435000D01*
X52521335Y-69435000D01*
X52798574Y-69379853D01*
X53059727Y-69271680D01*
X53294759Y-69114637D01*
X53494637Y-68914759D01*
X53651680Y-68679727D01*
X53759853Y-68418574D01*
X53815000Y-68141335D01*
X53815000Y-67858665D01*
X53759853Y-67581426D01*
X53651680Y-67320273D01*
X53571317Y-67200000D01*
X58561928Y-67200000D01*
X58561928Y-68800000D01*
X58574188Y-68924482D01*
X58610498Y-69044180D01*
X58669463Y-69154494D01*
X58748815Y-69251185D01*
X58845506Y-69330537D01*
X58955820Y-69389502D01*
X59075518Y-69425812D01*
X59200000Y-69438072D01*
X60800000Y-69438072D01*
X60924482Y-69425812D01*
X61044180Y-69389502D01*
X61154494Y-69330537D01*
X61251185Y-69251185D01*
X61330537Y-69154494D01*
X61389502Y-69044180D01*
X61425812Y-68924482D01*
X61438072Y-68800000D01*
X61438072Y-67200000D01*
X61425812Y-67075518D01*
X61389502Y-66955820D01*
X61330537Y-66845506D01*
X61251185Y-66748815D01*
X61154494Y-66669463D01*
X61044180Y-66610498D01*
X60924482Y-66574188D01*
X60800000Y-66561928D01*
X59200000Y-66561928D01*
X59075518Y-66574188D01*
X58955820Y-66610498D01*
X58845506Y-66669463D01*
X58748815Y-66748815D01*
X58669463Y-66845506D01*
X58610498Y-66955820D01*
X58574188Y-67075518D01*
X58561928Y-67200000D01*
X53571317Y-67200000D01*
X53494637Y-67085241D01*
X53415000Y-67005604D01*
X53415000Y-66450835D01*
X53420007Y-66400000D01*
X53415000Y-66349162D01*
X53400024Y-66197105D01*
X53340841Y-66002007D01*
X53296104Y-65918309D01*
X53244734Y-65822202D01*
X53147803Y-65704092D01*
X53115396Y-65664604D01*
X53075908Y-65632197D01*
X51085200Y-63641490D01*
X51085200Y-55880604D01*
X51358665Y-55935000D01*
X51641335Y-55935000D01*
X51918574Y-55879853D01*
X52179727Y-55771680D01*
X52414759Y-55614637D01*
X52614637Y-55414759D01*
X52771680Y-55179727D01*
X52879853Y-54918574D01*
X52885000Y-54892696D01*
X52885000Y-63147025D01*
X52883038Y-63148987D01*
X52736939Y-63367641D01*
X52636304Y-63610595D01*
X52585000Y-63868514D01*
X52585000Y-64131486D01*
X52636304Y-64389405D01*
X52736939Y-64632359D01*
X52883038Y-64851013D01*
X53068987Y-65036962D01*
X53287641Y-65183061D01*
X53530595Y-65283696D01*
X53788514Y-65335000D01*
X54051486Y-65335000D01*
X54309405Y-65283696D01*
X54552359Y-65183061D01*
X54771013Y-65036962D01*
X54956962Y-64851013D01*
X55103061Y-64632359D01*
X55203696Y-64389405D01*
X55255000Y-64131486D01*
X55255000Y-63868514D01*
X57665000Y-63868514D01*
X57665000Y-64131486D01*
X57716304Y-64389405D01*
X57816939Y-64632359D01*
X57963038Y-64851013D01*
X58148987Y-65036962D01*
X58367641Y-65183061D01*
X58610595Y-65283696D01*
X58868514Y-65335000D01*
X59131486Y-65335000D01*
X59389405Y-65283696D01*
X59632359Y-65183061D01*
X59851013Y-65036962D01*
X60036962Y-64851013D01*
X60183061Y-64632359D01*
X60283696Y-64389405D01*
X60335000Y-64131486D01*
X60335000Y-63868514D01*
X60283696Y-63610595D01*
X60183061Y-63367641D01*
X60036962Y-63148987D01*
X59851013Y-62963038D01*
X59632359Y-62816939D01*
X59389405Y-62716304D01*
X59131486Y-62665000D01*
X58868514Y-62665000D01*
X58610595Y-62716304D01*
X58367641Y-62816939D01*
X58148987Y-62963038D01*
X57963038Y-63148987D01*
X57816939Y-63367641D01*
X57716304Y-63610595D01*
X57665000Y-63868514D01*
X55255000Y-63868514D01*
X55203696Y-63610595D01*
X55103061Y-63367641D01*
X54956962Y-63148987D01*
X54955000Y-63147025D01*
X54955000Y-42970827D01*
X54960006Y-42919999D01*
X54955000Y-42869171D01*
X54955000Y-42869162D01*
X54940024Y-42717105D01*
X54880841Y-42522007D01*
X54836104Y-42438309D01*
X54784734Y-42342202D01*
X54687803Y-42224092D01*
X54655396Y-42184604D01*
X54615908Y-42152197D01*
X53054111Y-40590401D01*
X53093346Y-40495679D01*
X53185000Y-40034902D01*
X53185000Y-39565098D01*
X53615000Y-39565098D01*
X53615000Y-40034902D01*
X53706654Y-40495679D01*
X53886440Y-40929721D01*
X54147450Y-41320349D01*
X54479651Y-41652550D01*
X54870279Y-41913560D01*
X55304321Y-42093346D01*
X55765098Y-42185000D01*
X56234902Y-42185000D01*
X56695679Y-42093346D01*
X57129721Y-41913560D01*
X57520349Y-41652550D01*
X57852550Y-41320349D01*
X58113560Y-40929721D01*
X58293346Y-40495679D01*
X58385000Y-40034902D01*
X58385000Y-39565098D01*
X58293346Y-39104321D01*
X58113560Y-38670279D01*
X57852550Y-38279651D01*
X57520349Y-37947450D01*
X57129721Y-37686440D01*
X56695679Y-37506654D01*
X56234902Y-37415000D01*
X55765098Y-37415000D01*
X55304321Y-37506654D01*
X54870279Y-37686440D01*
X54479651Y-37947450D01*
X54147450Y-38279651D01*
X53886440Y-38670279D01*
X53706654Y-39104321D01*
X53615000Y-39565098D01*
X53185000Y-39565098D01*
X53093346Y-39104321D01*
X52913560Y-38670279D01*
X52652550Y-38279651D01*
X52320349Y-37947450D01*
X51929721Y-37686440D01*
X51495679Y-37506654D01*
X51034902Y-37415000D01*
X50565098Y-37415000D01*
X50104321Y-37506654D01*
X49670279Y-37686440D01*
X49279651Y-37947450D01*
X48947450Y-38279651D01*
X48686440Y-38670279D01*
X48506654Y-39104321D01*
X48415000Y-39565098D01*
X48415000Y-40034902D01*
X48506654Y-40495679D01*
X48686440Y-40929721D01*
X48947450Y-41320349D01*
X49279651Y-41652550D01*
X49670279Y-41913560D01*
X50104321Y-42093346D01*
X50565098Y-42185000D01*
X51034902Y-42185000D01*
X51495679Y-42093346D01*
X51590401Y-42054111D01*
X52885001Y-43348712D01*
X52885001Y-51607304D01*
X52879853Y-51581426D01*
X52771680Y-51320273D01*
X52614637Y-51085241D01*
X52414759Y-50885363D01*
X52179727Y-50728320D01*
X51918574Y-50620147D01*
X51641335Y-50565000D01*
X51358665Y-50565000D01*
X51081426Y-50620147D01*
X50820273Y-50728320D01*
X50585241Y-50885363D01*
X50385363Y-51085241D01*
X50228320Y-51320273D01*
X50120147Y-51581426D01*
X50065000Y-51858665D01*
X50065000Y-51971289D01*
X49354292Y-52681998D01*
X49314805Y-52714404D01*
X49282398Y-52753892D01*
X49282397Y-52753893D01*
X49185466Y-52872003D01*
X49089360Y-53051807D01*
X49030177Y-53246905D01*
X49010194Y-53449800D01*
X49015201Y-53500638D01*
X49015200Y-63127225D01*
X48851013Y-62963038D01*
X48632359Y-62816939D01*
X48389405Y-62716304D01*
X48131486Y-62665000D01*
X47868514Y-62665000D01*
X47610595Y-62716304D01*
X47367641Y-62816939D01*
X47148987Y-62963038D01*
X46963038Y-63148987D01*
X46816939Y-63367641D01*
X46716304Y-63610595D01*
X46665000Y-63868514D01*
X45335000Y-63868514D01*
X45335000Y-63788514D01*
X45283696Y-63530595D01*
X45183061Y-63287641D01*
X45036962Y-63068987D01*
X44851013Y-62883038D01*
X44632359Y-62736939D01*
X44389405Y-62636304D01*
X44131486Y-62585000D01*
X43868514Y-62585000D01*
X43610595Y-62636304D01*
X43367641Y-62736939D01*
X43148987Y-62883038D01*
X42963038Y-63068987D01*
X42816939Y-63287641D01*
X42716304Y-63530595D01*
X42665000Y-63788514D01*
X38185000Y-63788514D01*
X38185000Y-51858665D01*
X45065000Y-51858665D01*
X45065000Y-52141335D01*
X45120147Y-52418574D01*
X45228320Y-52679727D01*
X45385363Y-52914759D01*
X45585241Y-53114637D01*
X45787827Y-53250000D01*
X45585241Y-53385363D01*
X45385363Y-53585241D01*
X45228320Y-53820273D01*
X45120147Y-54081426D01*
X45065000Y-54358665D01*
X45065000Y-54641335D01*
X45120147Y-54918574D01*
X45228320Y-55179727D01*
X45385363Y-55414759D01*
X45585241Y-55614637D01*
X45820273Y-55771680D01*
X46081426Y-55879853D01*
X46358665Y-55935000D01*
X46641335Y-55935000D01*
X46918574Y-55879853D01*
X47179727Y-55771680D01*
X47414759Y-55614637D01*
X47614637Y-55414759D01*
X47771680Y-55179727D01*
X47879853Y-54918574D01*
X47935000Y-54641335D01*
X47935000Y-54358665D01*
X47879853Y-54081426D01*
X47771680Y-53820273D01*
X47614637Y-53585241D01*
X47414759Y-53385363D01*
X47212173Y-53250000D01*
X47414759Y-53114637D01*
X47614637Y-52914759D01*
X47771680Y-52679727D01*
X47879853Y-52418574D01*
X47935000Y-52141335D01*
X47935000Y-51858665D01*
X47879853Y-51581426D01*
X47771680Y-51320273D01*
X47614637Y-51085241D01*
X47414759Y-50885363D01*
X47179727Y-50728320D01*
X46918574Y-50620147D01*
X46641335Y-50565000D01*
X46358665Y-50565000D01*
X46081426Y-50620147D01*
X45820273Y-50728320D01*
X45585241Y-50885363D01*
X45385363Y-51085241D01*
X45228320Y-51320273D01*
X45120147Y-51581426D01*
X45065000Y-51858665D01*
X38185000Y-51858665D01*
X38185000Y-33185000D01*
X74315000Y-33185000D01*
X74315001Y-129315000D01*
G37*
%TD.AperFunction*%
D18*
X60885363Y-79294759D02*
X61085241Y-79494637D01*
X61317759Y-79650000D01*
X61085241Y-79805363D01*
X60885363Y-80005241D01*
X60728320Y-80240273D01*
X60620147Y-80501426D01*
X60565000Y-80778665D01*
X60565000Y-81061335D01*
X60620147Y-81338574D01*
X60728320Y-81599727D01*
X60885363Y-81834759D01*
X61085241Y-82034637D01*
X61317759Y-82190000D01*
X61085241Y-82345363D01*
X61005604Y-82425000D01*
X60828711Y-82425000D01*
X60035000Y-81631290D01*
X60035000Y-80852712D01*
X60495904Y-80391808D01*
X60535397Y-80359397D01*
X60625864Y-80249163D01*
X60664735Y-80201799D01*
X60760841Y-80021995D01*
X60760842Y-80021994D01*
X60820025Y-79826896D01*
X60835001Y-79674839D01*
X60835001Y-79674830D01*
X60840007Y-79624002D01*
X60835001Y-79573174D01*
X60835001Y-79219387D01*
X60885363Y-79294759D01*
%TA.AperFunction,Conductor*%
D19*
G36*
X60885363Y-79294759D02*
G01*
X61085241Y-79494637D01*
X61317759Y-79650000D01*
X61085241Y-79805363D01*
X60885363Y-80005241D01*
X60728320Y-80240273D01*
X60620147Y-80501426D01*
X60565000Y-80778665D01*
X60565000Y-81061335D01*
X60620147Y-81338574D01*
X60728320Y-81599727D01*
X60885363Y-81834759D01*
X61085241Y-82034637D01*
X61317759Y-82190000D01*
X61085241Y-82345363D01*
X61005604Y-82425000D01*
X60828711Y-82425000D01*
X60035000Y-81631290D01*
X60035000Y-80852712D01*
X60495904Y-80391808D01*
X60535397Y-80359397D01*
X60625864Y-80249163D01*
X60664735Y-80201799D01*
X60760841Y-80021995D01*
X60760842Y-80021994D01*
X60820025Y-79826896D01*
X60835001Y-79674839D01*
X60835001Y-79674830D01*
X60840007Y-79624002D01*
X60835001Y-79573174D01*
X60835001Y-79219387D01*
X60885363Y-79294759D01*
G37*
%TD.AperFunction*%
D18*
X68585001Y-77208712D02*
X68585001Y-77385603D01*
X68505363Y-77465241D01*
X68348320Y-77700273D01*
X68240147Y-77961426D01*
X68185000Y-78238665D01*
X68185000Y-78351289D01*
X67035000Y-79501290D01*
X67035000Y-75658711D01*
X68585001Y-77208712D01*
%TA.AperFunction,Conductor*%
D19*
G36*
X68585001Y-77208712D02*
G01*
X68585001Y-77385603D01*
X68505363Y-77465241D01*
X68348320Y-77700273D01*
X68240147Y-77961426D01*
X68185000Y-78238665D01*
X68185000Y-78351289D01*
X67035000Y-79501290D01*
X67035000Y-75658711D01*
X68585001Y-77208712D01*
G37*
%TD.AperFunction*%
D18*
X60065000Y-52128710D02*
X60065000Y-52141335D01*
X60120147Y-52418574D01*
X60228320Y-52679727D01*
X60385363Y-52914759D01*
X60585241Y-53114637D01*
X60787827Y-53250000D01*
X60585241Y-53385363D01*
X60385363Y-53585241D01*
X60228320Y-53820273D01*
X60120147Y-54081426D01*
X60065000Y-54358665D01*
X60065000Y-54471290D01*
X59971290Y-54565000D01*
X58028711Y-54565000D01*
X57935000Y-54471289D01*
X57935000Y-54358665D01*
X57879853Y-54081426D01*
X57771680Y-53820273D01*
X57614637Y-53585241D01*
X57414759Y-53385363D01*
X57212173Y-53250000D01*
X57414759Y-53114637D01*
X57614637Y-52914759D01*
X57771680Y-52679727D01*
X57879853Y-52418574D01*
X57935000Y-52141335D01*
X57935000Y-52028711D01*
X58128711Y-51835000D01*
X59771290Y-51835000D01*
X60065000Y-52128710D01*
%TA.AperFunction,Conductor*%
D19*
G36*
X60065000Y-52128710D02*
G01*
X60065000Y-52141335D01*
X60120147Y-52418574D01*
X60228320Y-52679727D01*
X60385363Y-52914759D01*
X60585241Y-53114637D01*
X60787827Y-53250000D01*
X60585241Y-53385363D01*
X60385363Y-53585241D01*
X60228320Y-53820273D01*
X60120147Y-54081426D01*
X60065000Y-54358665D01*
X60065000Y-54471290D01*
X59971290Y-54565000D01*
X58028711Y-54565000D01*
X57935000Y-54471289D01*
X57935000Y-54358665D01*
X57879853Y-54081426D01*
X57771680Y-53820273D01*
X57614637Y-53585241D01*
X57414759Y-53385363D01*
X57212173Y-53250000D01*
X57414759Y-53114637D01*
X57614637Y-52914759D01*
X57771680Y-52679727D01*
X57879853Y-52418574D01*
X57935000Y-52141335D01*
X57935000Y-52028711D01*
X58128711Y-51835000D01*
X59771290Y-51835000D01*
X60065000Y-52128710D01*
G37*
%TD.AperFunction*%
D18*
X49885363Y-74414759D02*
X49965001Y-74494397D01*
X49965000Y-77385604D01*
X49885363Y-77465241D01*
X49728320Y-77700273D01*
X49620147Y-77961426D01*
X49565000Y-78238665D01*
X49565000Y-78521335D01*
X49620147Y-78798574D01*
X49728320Y-79059727D01*
X49885363Y-79294759D01*
X50085241Y-79494637D01*
X50317759Y-79650000D01*
X50085241Y-79805363D01*
X49885363Y-80005241D01*
X49728320Y-80240273D01*
X49620147Y-80501426D01*
X49565000Y-80778665D01*
X49565000Y-81061335D01*
X49620147Y-81338574D01*
X49728320Y-81599727D01*
X49885363Y-81834759D01*
X50085241Y-82034637D01*
X50317759Y-82190000D01*
X50085241Y-82345363D01*
X49885363Y-82545241D01*
X49728320Y-82780273D01*
X49620147Y-83041426D01*
X49565000Y-83318665D01*
X49565000Y-83431289D01*
X49535000Y-83461290D01*
X49535000Y-74494396D01*
X49614637Y-74414759D01*
X49750000Y-74212173D01*
X49885363Y-74414759D01*
%TA.AperFunction,Conductor*%
D19*
G36*
X49885363Y-74414759D02*
G01*
X49965001Y-74494397D01*
X49965000Y-77385604D01*
X49885363Y-77465241D01*
X49728320Y-77700273D01*
X49620147Y-77961426D01*
X49565000Y-78238665D01*
X49565000Y-78521335D01*
X49620147Y-78798574D01*
X49728320Y-79059727D01*
X49885363Y-79294759D01*
X50085241Y-79494637D01*
X50317759Y-79650000D01*
X50085241Y-79805363D01*
X49885363Y-80005241D01*
X49728320Y-80240273D01*
X49620147Y-80501426D01*
X49565000Y-80778665D01*
X49565000Y-81061335D01*
X49620147Y-81338574D01*
X49728320Y-81599727D01*
X49885363Y-81834759D01*
X50085241Y-82034637D01*
X50317759Y-82190000D01*
X50085241Y-82345363D01*
X49885363Y-82545241D01*
X49728320Y-82780273D01*
X49620147Y-83041426D01*
X49565000Y-83318665D01*
X49565000Y-83431289D01*
X49535000Y-83461290D01*
X49535000Y-74494396D01*
X49614637Y-74414759D01*
X49750000Y-74212173D01*
X49885363Y-74414759D01*
G37*
%TD.AperFunction*%
%TD*%
M02*
