%TF.GenerationSoftware,KiCad,Pcbnew,5.1.10*%
%TF.CreationDate,2021-07-20T18:15:19+02:00*%
%TF.ProjectId,double-gain,646f7562-6c65-42d6-9761-696e2e6b6963,rev?*%
%TF.SameCoordinates,Original*%
%TF.FileFunction,OtherDrawing,Comment*%
%FSLAX46Y46*%
G04 Gerber Fmt 4.6, Leading zero omitted, Abs format (unit mm)*
G04 Created by KiCad (PCBNEW 5.1.10) date 2021-07-20 18:15:19*
%MOMM*%
%LPD*%
G01*
G04 APERTURE LIST*
%ADD10C,0.150000*%
G04 APERTURE END LIST*
D10*
X52107142Y-135847619D02*
X52154761Y-135800000D01*
X52250000Y-135752380D01*
X52488095Y-135752380D01*
X52583333Y-135800000D01*
X52630952Y-135847619D01*
X52678571Y-135942857D01*
X52678571Y-136038095D01*
X52630952Y-136180952D01*
X52059523Y-136752380D01*
X52678571Y-136752380D01*
X53011904Y-135752380D02*
X53678571Y-135752380D01*
X53250000Y-136752380D01*
X54107142Y-136704761D02*
X54107142Y-136752380D01*
X54059523Y-136847619D01*
X54011904Y-136895238D01*
X55011904Y-135752380D02*
X54535714Y-135752380D01*
X54488095Y-136228571D01*
X54535714Y-136180952D01*
X54630952Y-136133333D01*
X54869047Y-136133333D01*
X54964285Y-136180952D01*
X55011904Y-136228571D01*
X55059523Y-136323809D01*
X55059523Y-136561904D01*
X55011904Y-136657142D01*
X54964285Y-136704761D01*
X54869047Y-136752380D01*
X54630952Y-136752380D01*
X54535714Y-136704761D01*
X54488095Y-136657142D01*
X55678571Y-135752380D02*
X55773809Y-135752380D01*
X55869047Y-135800000D01*
X55916666Y-135847619D01*
X55964285Y-135942857D01*
X56011904Y-136133333D01*
X56011904Y-136371428D01*
X55964285Y-136561904D01*
X55916666Y-136657142D01*
X55869047Y-136704761D01*
X55773809Y-136752380D01*
X55678571Y-136752380D01*
X55583333Y-136704761D01*
X55535714Y-136657142D01*
X55488095Y-136561904D01*
X55440476Y-136371428D01*
X55440476Y-136133333D01*
X55488095Y-135942857D01*
X55535714Y-135847619D01*
X55583333Y-135800000D01*
X55678571Y-135752380D01*
X56630952Y-135752380D02*
X56726190Y-135752380D01*
X56821428Y-135800000D01*
X56869047Y-135847619D01*
X56916666Y-135942857D01*
X56964285Y-136133333D01*
X56964285Y-136371428D01*
X56916666Y-136561904D01*
X56869047Y-136657142D01*
X56821428Y-136704761D01*
X56726190Y-136752380D01*
X56630952Y-136752380D01*
X56535714Y-136704761D01*
X56488095Y-136657142D01*
X56440476Y-136561904D01*
X56392857Y-136371428D01*
X56392857Y-136133333D01*
X56440476Y-135942857D01*
X56488095Y-135847619D01*
X56535714Y-135800000D01*
X56630952Y-135752380D01*
X58154761Y-136752380D02*
X58154761Y-136085714D01*
X58154761Y-136180952D02*
X58202380Y-136133333D01*
X58297619Y-136085714D01*
X58440476Y-136085714D01*
X58535714Y-136133333D01*
X58583333Y-136228571D01*
X58583333Y-136752380D01*
X58583333Y-136228571D02*
X58630952Y-136133333D01*
X58726190Y-136085714D01*
X58869047Y-136085714D01*
X58964285Y-136133333D01*
X59011904Y-136228571D01*
X59011904Y-136752380D01*
X59488095Y-136752380D02*
X59488095Y-136085714D01*
X59488095Y-136180952D02*
X59535714Y-136133333D01*
X59630952Y-136085714D01*
X59773809Y-136085714D01*
X59869047Y-136133333D01*
X59916666Y-136228571D01*
X59916666Y-136752380D01*
X59916666Y-136228571D02*
X59964285Y-136133333D01*
X60059523Y-136085714D01*
X60202380Y-136085714D01*
X60297619Y-136133333D01*
X60345238Y-136228571D01*
X60345238Y-136752380D01*
X70000000Y-135000000D02*
X42500000Y-135000000D01*
X70000000Y-125000000D02*
X70000000Y-135586421D01*
X42500000Y-125000000D02*
X42500000Y-135586421D01*
X42500000Y-135000000D02*
X43626504Y-134413579D01*
X42500000Y-135000000D02*
X43626504Y-135586421D01*
X70000000Y-135000000D02*
X68873496Y-134413579D01*
X70000000Y-135000000D02*
X68873496Y-135586421D01*
X82680952Y-85202380D02*
X82633333Y-85297619D01*
X82585714Y-85345238D01*
X82490476Y-85392857D01*
X82442857Y-85392857D01*
X82347619Y-85345238D01*
X82300000Y-85297619D01*
X82252380Y-85202380D01*
X82252380Y-85011904D01*
X82300000Y-84916666D01*
X82347619Y-84869047D01*
X82442857Y-84821428D01*
X82490476Y-84821428D01*
X82585714Y-84869047D01*
X82633333Y-84916666D01*
X82680952Y-85011904D01*
X82680952Y-85202380D01*
X82728571Y-85297619D01*
X82776190Y-85345238D01*
X82871428Y-85392857D01*
X83061904Y-85392857D01*
X83157142Y-85345238D01*
X83204761Y-85297619D01*
X83252380Y-85202380D01*
X83252380Y-85011904D01*
X83204761Y-84916666D01*
X83157142Y-84869047D01*
X83061904Y-84821428D01*
X82871428Y-84821428D01*
X82776190Y-84869047D01*
X82728571Y-84916666D01*
X82680952Y-85011904D01*
X82252380Y-84488095D02*
X82252380Y-83821428D01*
X83252380Y-84250000D01*
X83204761Y-83392857D02*
X83252380Y-83392857D01*
X83347619Y-83440476D01*
X83395238Y-83488095D01*
X82252380Y-82488095D02*
X82252380Y-82964285D01*
X82728571Y-83011904D01*
X82680952Y-82964285D01*
X82633333Y-82869047D01*
X82633333Y-82630952D01*
X82680952Y-82535714D01*
X82728571Y-82488095D01*
X82823809Y-82440476D01*
X83061904Y-82440476D01*
X83157142Y-82488095D01*
X83204761Y-82535714D01*
X83252380Y-82630952D01*
X83252380Y-82869047D01*
X83204761Y-82964285D01*
X83157142Y-83011904D01*
X82252380Y-81821428D02*
X82252380Y-81726190D01*
X82300000Y-81630952D01*
X82347619Y-81583333D01*
X82442857Y-81535714D01*
X82633333Y-81488095D01*
X82871428Y-81488095D01*
X83061904Y-81535714D01*
X83157142Y-81583333D01*
X83204761Y-81630952D01*
X83252380Y-81726190D01*
X83252380Y-81821428D01*
X83204761Y-81916666D01*
X83157142Y-81964285D01*
X83061904Y-82011904D01*
X82871428Y-82059523D01*
X82633333Y-82059523D01*
X82442857Y-82011904D01*
X82347619Y-81964285D01*
X82300000Y-81916666D01*
X82252380Y-81821428D01*
X82252380Y-80869047D02*
X82252380Y-80773809D01*
X82300000Y-80678571D01*
X82347619Y-80630952D01*
X82442857Y-80583333D01*
X82633333Y-80535714D01*
X82871428Y-80535714D01*
X83061904Y-80583333D01*
X83157142Y-80630952D01*
X83204761Y-80678571D01*
X83252380Y-80773809D01*
X83252380Y-80869047D01*
X83204761Y-80964285D01*
X83157142Y-81011904D01*
X83061904Y-81059523D01*
X82871428Y-81107142D01*
X82633333Y-81107142D01*
X82442857Y-81059523D01*
X82347619Y-81011904D01*
X82300000Y-80964285D01*
X82252380Y-80869047D01*
X83252380Y-79345238D02*
X82585714Y-79345238D01*
X82680952Y-79345238D02*
X82633333Y-79297619D01*
X82585714Y-79202380D01*
X82585714Y-79059523D01*
X82633333Y-78964285D01*
X82728571Y-78916666D01*
X83252380Y-78916666D01*
X82728571Y-78916666D02*
X82633333Y-78869047D01*
X82585714Y-78773809D01*
X82585714Y-78630952D01*
X82633333Y-78535714D01*
X82728571Y-78488095D01*
X83252380Y-78488095D01*
X83252380Y-78011904D02*
X82585714Y-78011904D01*
X82680952Y-78011904D02*
X82633333Y-77964285D01*
X82585714Y-77869047D01*
X82585714Y-77726190D01*
X82633333Y-77630952D01*
X82728571Y-77583333D01*
X83252380Y-77583333D01*
X82728571Y-77583333D02*
X82633333Y-77535714D01*
X82585714Y-77440476D01*
X82585714Y-77297619D01*
X82633333Y-77202380D01*
X82728571Y-77154761D01*
X83252380Y-77154761D01*
X81500000Y-125000000D02*
X81500000Y-37500000D01*
X70000000Y-125000000D02*
X82086421Y-125000000D01*
X70000000Y-37500000D02*
X82086421Y-37500000D01*
X81500000Y-37500000D02*
X82086421Y-38626504D01*
X81500000Y-37500000D02*
X80913579Y-38626504D01*
X81500000Y-125000000D02*
X82086421Y-123873496D01*
X81500000Y-125000000D02*
X80913579Y-123873496D01*
X93347619Y-77202380D02*
X93347619Y-77392857D01*
X93395238Y-77488095D01*
X93442857Y-77535714D01*
X93585714Y-77630952D01*
X93776190Y-77678571D01*
X94157142Y-77678571D01*
X94252380Y-77630952D01*
X94300000Y-77583333D01*
X94347619Y-77488095D01*
X94347619Y-77297619D01*
X94300000Y-77202380D01*
X94252380Y-77154761D01*
X94157142Y-77107142D01*
X93919047Y-77107142D01*
X93823809Y-77154761D01*
X93776190Y-77202380D01*
X93728571Y-77297619D01*
X93728571Y-77488095D01*
X93776190Y-77583333D01*
X93823809Y-77630952D01*
X93919047Y-77678571D01*
X94347619Y-78011904D02*
X94347619Y-78678571D01*
X93347619Y-78250000D01*
X93395238Y-79107142D02*
X93347619Y-79107142D01*
X93252380Y-79059523D01*
X93204761Y-79011904D01*
X94347619Y-80011904D02*
X94347619Y-79535714D01*
X93871428Y-79488095D01*
X93919047Y-79535714D01*
X93966666Y-79630952D01*
X93966666Y-79869047D01*
X93919047Y-79964285D01*
X93871428Y-80011904D01*
X93776190Y-80059523D01*
X93538095Y-80059523D01*
X93442857Y-80011904D01*
X93395238Y-79964285D01*
X93347619Y-79869047D01*
X93347619Y-79630952D01*
X93395238Y-79535714D01*
X93442857Y-79488095D01*
X94347619Y-80678571D02*
X94347619Y-80773809D01*
X94300000Y-80869047D01*
X94252380Y-80916666D01*
X94157142Y-80964285D01*
X93966666Y-81011904D01*
X93728571Y-81011904D01*
X93538095Y-80964285D01*
X93442857Y-80916666D01*
X93395238Y-80869047D01*
X93347619Y-80773809D01*
X93347619Y-80678571D01*
X93395238Y-80583333D01*
X93442857Y-80535714D01*
X93538095Y-80488095D01*
X93728571Y-80440476D01*
X93966666Y-80440476D01*
X94157142Y-80488095D01*
X94252380Y-80535714D01*
X94300000Y-80583333D01*
X94347619Y-80678571D01*
X94347619Y-81630952D02*
X94347619Y-81726190D01*
X94300000Y-81821428D01*
X94252380Y-81869047D01*
X94157142Y-81916666D01*
X93966666Y-81964285D01*
X93728571Y-81964285D01*
X93538095Y-81916666D01*
X93442857Y-81869047D01*
X93395238Y-81821428D01*
X93347619Y-81726190D01*
X93347619Y-81630952D01*
X93395238Y-81535714D01*
X93442857Y-81488095D01*
X93538095Y-81440476D01*
X93728571Y-81392857D01*
X93966666Y-81392857D01*
X94157142Y-81440476D01*
X94252380Y-81488095D01*
X94300000Y-81535714D01*
X94347619Y-81630952D01*
X93347619Y-83154761D02*
X94014285Y-83154761D01*
X93919047Y-83154761D02*
X93966666Y-83202380D01*
X94014285Y-83297619D01*
X94014285Y-83440476D01*
X93966666Y-83535714D01*
X93871428Y-83583333D01*
X93347619Y-83583333D01*
X93871428Y-83583333D02*
X93966666Y-83630952D01*
X94014285Y-83726190D01*
X94014285Y-83869047D01*
X93966666Y-83964285D01*
X93871428Y-84011904D01*
X93347619Y-84011904D01*
X93347619Y-84488095D02*
X94014285Y-84488095D01*
X93919047Y-84488095D02*
X93966666Y-84535714D01*
X94014285Y-84630952D01*
X94014285Y-84773809D01*
X93966666Y-84869047D01*
X93871428Y-84916666D01*
X93347619Y-84916666D01*
X93871428Y-84916666D02*
X93966666Y-84964285D01*
X94014285Y-85059523D01*
X94014285Y-85202380D01*
X93966666Y-85297619D01*
X93871428Y-85345238D01*
X93347619Y-85345238D01*
X92500000Y-32500000D02*
X92500000Y-130000000D01*
X75000000Y-32500000D02*
X93086421Y-32500000D01*
X75000000Y-130000000D02*
X93086421Y-130000000D01*
X92500000Y-130000000D02*
X91913579Y-128873496D01*
X92500000Y-130000000D02*
X93086421Y-128873496D01*
X92500000Y-32500000D02*
X91913579Y-33626504D01*
X92500000Y-32500000D02*
X93086421Y-33626504D01*
X52059523Y-26152380D02*
X52678571Y-26152380D01*
X52345238Y-26533333D01*
X52488095Y-26533333D01*
X52583333Y-26580952D01*
X52630952Y-26628571D01*
X52678571Y-26723809D01*
X52678571Y-26961904D01*
X52630952Y-27057142D01*
X52583333Y-27104761D01*
X52488095Y-27152380D01*
X52202380Y-27152380D01*
X52107142Y-27104761D01*
X52059523Y-27057142D01*
X53011904Y-26152380D02*
X53678571Y-26152380D01*
X53250000Y-27152380D01*
X54107142Y-27104761D02*
X54107142Y-27152380D01*
X54059523Y-27247619D01*
X54011904Y-27295238D01*
X55011904Y-26152380D02*
X54535714Y-26152380D01*
X54488095Y-26628571D01*
X54535714Y-26580952D01*
X54630952Y-26533333D01*
X54869047Y-26533333D01*
X54964285Y-26580952D01*
X55011904Y-26628571D01*
X55059523Y-26723809D01*
X55059523Y-26961904D01*
X55011904Y-27057142D01*
X54964285Y-27104761D01*
X54869047Y-27152380D01*
X54630952Y-27152380D01*
X54535714Y-27104761D01*
X54488095Y-27057142D01*
X55678571Y-26152380D02*
X55773809Y-26152380D01*
X55869047Y-26200000D01*
X55916666Y-26247619D01*
X55964285Y-26342857D01*
X56011904Y-26533333D01*
X56011904Y-26771428D01*
X55964285Y-26961904D01*
X55916666Y-27057142D01*
X55869047Y-27104761D01*
X55773809Y-27152380D01*
X55678571Y-27152380D01*
X55583333Y-27104761D01*
X55535714Y-27057142D01*
X55488095Y-26961904D01*
X55440476Y-26771428D01*
X55440476Y-26533333D01*
X55488095Y-26342857D01*
X55535714Y-26247619D01*
X55583333Y-26200000D01*
X55678571Y-26152380D01*
X56630952Y-26152380D02*
X56726190Y-26152380D01*
X56821428Y-26200000D01*
X56869047Y-26247619D01*
X56916666Y-26342857D01*
X56964285Y-26533333D01*
X56964285Y-26771428D01*
X56916666Y-26961904D01*
X56869047Y-27057142D01*
X56821428Y-27104761D01*
X56726190Y-27152380D01*
X56630952Y-27152380D01*
X56535714Y-27104761D01*
X56488095Y-27057142D01*
X56440476Y-26961904D01*
X56392857Y-26771428D01*
X56392857Y-26533333D01*
X56440476Y-26342857D01*
X56488095Y-26247619D01*
X56535714Y-26200000D01*
X56630952Y-26152380D01*
X58154761Y-27152380D02*
X58154761Y-26485714D01*
X58154761Y-26580952D02*
X58202380Y-26533333D01*
X58297619Y-26485714D01*
X58440476Y-26485714D01*
X58535714Y-26533333D01*
X58583333Y-26628571D01*
X58583333Y-27152380D01*
X58583333Y-26628571D02*
X58630952Y-26533333D01*
X58726190Y-26485714D01*
X58869047Y-26485714D01*
X58964285Y-26533333D01*
X59011904Y-26628571D01*
X59011904Y-27152380D01*
X59488095Y-27152380D02*
X59488095Y-26485714D01*
X59488095Y-26580952D02*
X59535714Y-26533333D01*
X59630952Y-26485714D01*
X59773809Y-26485714D01*
X59869047Y-26533333D01*
X59916666Y-26628571D01*
X59916666Y-27152380D01*
X59916666Y-26628571D02*
X59964285Y-26533333D01*
X60059523Y-26485714D01*
X60202380Y-26485714D01*
X60297619Y-26533333D01*
X60345238Y-26628571D01*
X60345238Y-27152380D01*
X37500000Y-28000000D02*
X75000000Y-28000000D01*
X37500000Y-32500000D02*
X37500000Y-27413579D01*
X75000000Y-32500000D02*
X75000000Y-27413579D01*
X75000000Y-28000000D02*
X73873496Y-28586421D01*
X75000000Y-28000000D02*
X73873496Y-27413579D01*
X37500000Y-28000000D02*
X38626504Y-28586421D01*
X37500000Y-28000000D02*
X38626504Y-27413579D01*
X37500000Y-32500000D02*
X37500000Y-130000000D01*
X75000000Y-32500000D02*
X75000000Y-130000000D01*
X37500000Y-32500000D02*
X75000000Y-32500000D01*
M02*
