%TF.GenerationSoftware,KiCad,Pcbnew,5.1.10*%
%TF.CreationDate,2021-06-26T02:26:41+02:00*%
%TF.ProjectId,double-gain,646f7562-6c65-42d6-9761-696e2e6b6963,rev?*%
%TF.SameCoordinates,Original*%
%TF.FileFunction,Soldermask,Top*%
%TF.FilePolarity,Negative*%
%FSLAX46Y46*%
G04 Gerber Fmt 4.6, Leading zero omitted, Abs format (unit mm)*
G04 Created by KiCad (PCBNEW 5.1.10) date 2021-06-26 02:26:41*
%MOMM*%
%LPD*%
G01*
G04 APERTURE LIST*
%ADD10O,1.600000X1.600000*%
%ADD11R,1.600000X1.600000*%
%ADD12C,1.600000*%
%ADD13C,3.500000*%
%ADD14O,1.400000X1.400000*%
%ADD15C,1.400000*%
G04 APERTURE END LIST*
D10*
%TO.C,U2*%
X62000000Y-86000000D03*
X69620000Y-78380000D03*
X62000000Y-83460000D03*
X69620000Y-80920000D03*
X62000000Y-80920000D03*
X69620000Y-83460000D03*
X62000000Y-78380000D03*
D11*
X69620000Y-86000000D03*
%TD*%
D12*
%TO.C,C1*%
X61500000Y-52000000D03*
X61500000Y-54500000D03*
%TD*%
%TO.C,C2*%
X56500000Y-54500000D03*
X56500000Y-52000000D03*
%TD*%
%TO.C,C3*%
X51500000Y-52000000D03*
X51500000Y-54500000D03*
%TD*%
%TO.C,C4*%
X46500000Y-54500000D03*
X46500000Y-52000000D03*
%TD*%
%TO.C,C6*%
X51000000Y-73500000D03*
X48500000Y-73500000D03*
%TD*%
%TO.C,C7*%
X66500000Y-52000000D03*
X66500000Y-54500000D03*
%TD*%
%TO.C,C8*%
X57500000Y-113000000D03*
X55000000Y-113000000D03*
%TD*%
D10*
%TO.C,D1*%
X52380000Y-68000000D03*
D11*
X60000000Y-68000000D03*
%TD*%
%TO.C,D2*%
X46380000Y-98000000D03*
D10*
X54000000Y-98000000D03*
%TD*%
D11*
%TO.C,D3*%
X59000000Y-98000000D03*
D10*
X66620000Y-98000000D03*
%TD*%
D13*
%TO.C,J1*%
X46000000Y-119000000D03*
%TD*%
%TO.C,J3*%
X52000000Y-119000000D03*
%TD*%
%TO.C,J6*%
X42500000Y-125000000D03*
%TD*%
%TO.C,J7*%
X70000000Y-37500000D03*
%TD*%
%TO.C,J8*%
X42500000Y-37500000D03*
%TD*%
%TO.C,J9*%
X70000000Y-125000000D03*
%TD*%
D14*
%TO.C,R1*%
X65000000Y-69080000D03*
D15*
X65000000Y-64000000D03*
%TD*%
D14*
%TO.C,R2*%
X54500000Y-84000000D03*
D15*
X54500000Y-78920000D03*
%TD*%
%TO.C,R3*%
X44000000Y-69000000D03*
D14*
X44000000Y-63920000D03*
%TD*%
%TO.C,R4*%
X53920000Y-64000000D03*
D15*
X59000000Y-64000000D03*
%TD*%
%TO.C,R5*%
X48000000Y-64000000D03*
D14*
X48000000Y-69080000D03*
%TD*%
%TO.C,R6*%
X54500000Y-108000000D03*
D15*
X49420000Y-108000000D03*
%TD*%
D14*
%TO.C,R7*%
X46500000Y-110080000D03*
D15*
X46500000Y-105000000D03*
%TD*%
%TO.C,R8*%
X69000000Y-64000000D03*
D14*
X69000000Y-69080000D03*
%TD*%
D15*
%TO.C,R9*%
X44420000Y-91000000D03*
D14*
X49500000Y-91000000D03*
%TD*%
D15*
%TO.C,R10*%
X62580000Y-108000000D03*
D14*
X57500000Y-108000000D03*
%TD*%
D11*
%TO.C,U1*%
X51000000Y-86000000D03*
D10*
X43380000Y-78380000D03*
X51000000Y-83460000D03*
X43380000Y-80920000D03*
X51000000Y-80920000D03*
X43380000Y-83460000D03*
X51000000Y-78380000D03*
X43380000Y-86000000D03*
%TD*%
D12*
%TO.C,C10*%
X61500000Y-73500000D03*
X64000000Y-73500000D03*
%TD*%
D10*
%TO.C,D4*%
X54120000Y-102000000D03*
D11*
X46500000Y-102000000D03*
%TD*%
%TO.C,D5*%
X59000000Y-102000000D03*
D10*
X66620000Y-102000000D03*
%TD*%
D13*
%TO.C,J10*%
X66000000Y-119000000D03*
%TD*%
%TO.C,J11*%
X59000000Y-119000000D03*
%TD*%
D15*
%TO.C,R11*%
X66500000Y-104500000D03*
D14*
X66500000Y-109580000D03*
%TD*%
D15*
%TO.C,R12*%
X63000000Y-91000000D03*
D14*
X68080000Y-91000000D03*
%TD*%
%TO.C,R13*%
X58500000Y-84080000D03*
D15*
X58500000Y-79000000D03*
%TD*%
D13*
%TO.C,J2*%
X56000000Y-40000000D03*
%TD*%
%TO.C,J4*%
X51000000Y-40000000D03*
%TD*%
%TO.C,J5*%
X61500000Y-40000000D03*
%TD*%
M02*
