%TF.GenerationSoftware,KiCad,Pcbnew,5.1.10*%
%TF.CreationDate,2021-06-18T11:39:53+02:00*%
%TF.ProjectId,double-gain,646f7562-6c65-42d6-9761-696e2e6b6963,rev?*%
%TF.SameCoordinates,Original*%
%TF.FileFunction,Copper,L2,Bot*%
%TF.FilePolarity,Positive*%
%FSLAX46Y46*%
G04 Gerber Fmt 4.6, Leading zero omitted, Abs format (unit mm)*
G04 Created by KiCad (PCBNEW 5.1.10) date 2021-06-18 11:39:53*
%MOMM*%
%LPD*%
G01*
G04 APERTURE LIST*
%TA.AperFunction,ComponentPad*%
%ADD10C,1.600000*%
%TD*%
%TA.AperFunction,ComponentPad*%
%ADD11O,1.600000X1.600000*%
%TD*%
%TA.AperFunction,ComponentPad*%
%ADD12R,1.600000X1.600000*%
%TD*%
%TA.AperFunction,ComponentPad*%
%ADD13C,3.500000*%
%TD*%
%TA.AperFunction,ComponentPad*%
%ADD14C,3.800000*%
%TD*%
%TA.AperFunction,ComponentPad*%
%ADD15O,1.400000X1.400000*%
%TD*%
%TA.AperFunction,ComponentPad*%
%ADD16C,1.400000*%
%TD*%
%TA.AperFunction,ViaPad*%
%ADD17C,0.800000*%
%TD*%
%TA.AperFunction,Conductor*%
%ADD18C,0.250000*%
%TD*%
%TA.AperFunction,Conductor*%
%ADD19C,0.254000*%
%TD*%
%TA.AperFunction,Conductor*%
%ADD20C,0.100000*%
%TD*%
G04 APERTURE END LIST*
D10*
%TO.P,C1,2*%
%TO.N,V-*%
X61500000Y-52000000D03*
%TO.P,C1,1*%
%TO.N,VCC*%
X61500000Y-54500000D03*
%TD*%
%TO.P,C2,1*%
%TO.N,VCC*%
X56500000Y-54500000D03*
%TO.P,C2,2*%
%TO.N,V-*%
X56500000Y-52000000D03*
%TD*%
%TO.P,C3,2*%
%TO.N,V-*%
X51500000Y-52000000D03*
%TO.P,C3,1*%
%TO.N,VCC*%
X51500000Y-54500000D03*
%TD*%
%TO.P,C4,1*%
%TO.N,Net-(C4-Pad1)*%
X46500000Y-54500000D03*
%TO.P,C4,2*%
%TO.N,Net-(C4-Pad2)*%
X46500000Y-52000000D03*
%TD*%
%TO.P,C5,2*%
%TO.N,Net-(C5-Pad2)*%
X51500000Y-112500000D03*
%TO.P,C5,1*%
%TO.N,Net-(C5-Pad1)*%
X54000000Y-112500000D03*
%TD*%
%TO.P,C6,1*%
%TO.N,V-*%
X63500000Y-91500000D03*
%TO.P,C6,2*%
%TO.N,Net-(C6-Pad2)*%
X61000000Y-91500000D03*
%TD*%
%TO.P,C7,2*%
%TO.N,Net-(C7-Pad2)*%
X66500000Y-52000000D03*
%TO.P,C7,1*%
%TO.N,Net-(C7-Pad1)*%
X66500000Y-54500000D03*
%TD*%
%TO.P,C8,1*%
%TO.N,Net-(C8-Pad1)*%
X63000000Y-103000000D03*
%TO.P,C8,2*%
%TO.N,V-*%
X60500000Y-103000000D03*
%TD*%
D11*
%TO.P,D1,2*%
%TO.N,V-*%
X52380000Y-68000000D03*
D12*
%TO.P,D1,1*%
%TO.N,Net-(D1-Pad1)*%
X60000000Y-68000000D03*
%TD*%
%TO.P,D2,1*%
%TO.N,VCC*%
X46380000Y-98000000D03*
D11*
%TO.P,D2,2*%
%TO.N,Net-(C5-Pad1)*%
X54000000Y-98000000D03*
%TD*%
D12*
%TO.P,D3,1*%
%TO.N,Net-(C5-Pad1)*%
X59000000Y-98000000D03*
D11*
%TO.P,D3,2*%
%TO.N,V-*%
X66620000Y-98000000D03*
%TD*%
D13*
%TO.P,J1,1*%
%TO.N,Net-(C5-Pad2)*%
X53500000Y-119000000D03*
%TD*%
%TO.P,J2,1*%
%TO.N,Net-(C4-Pad1)*%
X56500000Y-40000000D03*
%TD*%
%TO.P,J3,1*%
%TO.N,V-*%
X59500000Y-119000000D03*
%TD*%
%TO.P,J4,1*%
%TO.N,Net-(C7-Pad1)*%
X51500000Y-40000000D03*
%TD*%
D14*
%TO.P,J5,1*%
%TO.N,V-*%
X61500000Y-40000000D03*
%TD*%
D13*
%TO.P,J6,1*%
%TO.N,Earth*%
X42500000Y-125000000D03*
%TD*%
%TO.P,J7,1*%
%TO.N,Earth*%
X70000000Y-37500000D03*
%TD*%
%TO.P,J8,1*%
%TO.N,Earth*%
X42500000Y-37500000D03*
%TD*%
%TO.P,J9,1*%
%TO.N,Earth*%
X70000000Y-125000000D03*
%TD*%
D15*
%TO.P,R1,2*%
%TO.N,VCC*%
X65000000Y-69080000D03*
D16*
%TO.P,R1,1*%
%TO.N,Net-(D1-Pad1)*%
X65000000Y-64000000D03*
%TD*%
D15*
%TO.P,R2,2*%
%TO.N,Net-(R2-Pad2)*%
X59080000Y-71500000D03*
D16*
%TO.P,R2,1*%
%TO.N,Net-(R2-Pad1)*%
X54000000Y-71500000D03*
%TD*%
%TO.P,R3,1*%
%TO.N,Net-(D1-Pad1)*%
X44000000Y-69000000D03*
D15*
%TO.P,R3,2*%
%TO.N,Net-(C4-Pad1)*%
X44000000Y-63920000D03*
%TD*%
%TO.P,R4,2*%
%TO.N,Net-(C7-Pad1)*%
X54420000Y-64000000D03*
D16*
%TO.P,R4,1*%
%TO.N,Net-(D1-Pad1)*%
X59500000Y-64000000D03*
%TD*%
%TO.P,R5,1*%
%TO.N,Net-(C4-Pad2)*%
X48000000Y-64000000D03*
D15*
%TO.P,R5,2*%
%TO.N,Net-(R2-Pad1)*%
X48000000Y-69080000D03*
%TD*%
%TO.P,R6,2*%
%TO.N,Net-(C8-Pad1)*%
X54080000Y-108000000D03*
D16*
%TO.P,R6,1*%
%TO.N,VCC*%
X49000000Y-108000000D03*
%TD*%
D15*
%TO.P,R7,2*%
%TO.N,Net-(C5-Pad1)*%
X58920000Y-112500000D03*
D16*
%TO.P,R7,1*%
%TO.N,Net-(C8-Pad1)*%
X64000000Y-112500000D03*
%TD*%
%TO.P,R8,1*%
%TO.N,Net-(C7-Pad2)*%
X69000000Y-64000000D03*
D15*
%TO.P,R8,2*%
%TO.N,Net-(R8-Pad2)*%
X69000000Y-69080000D03*
%TD*%
D16*
%TO.P,R9,1*%
%TO.N,Net-(C6-Pad2)*%
X49000000Y-91500000D03*
D15*
%TO.P,R9,2*%
%TO.N,Net-(R2-Pad2)*%
X54080000Y-91500000D03*
%TD*%
D16*
%TO.P,R10,1*%
%TO.N,Net-(C8-Pad1)*%
X64080000Y-108000000D03*
D15*
%TO.P,R10,2*%
%TO.N,V-*%
X59000000Y-108000000D03*
%TD*%
D12*
%TO.P,U1,1*%
%TO.N,Net-(U1-Pad1)*%
X53000000Y-86000000D03*
D11*
%TO.P,U1,5*%
%TO.N,Net-(U1-Pad5)*%
X45380000Y-78380000D03*
%TO.P,U1,2*%
%TO.N,Net-(R2-Pad2)*%
X53000000Y-83460000D03*
%TO.P,U1,6*%
%TO.N,Net-(R2-Pad1)*%
X45380000Y-80920000D03*
%TO.P,U1,3*%
%TO.N,Net-(C5-Pad1)*%
X53000000Y-80920000D03*
%TO.P,U1,7*%
%TO.N,VCC*%
X45380000Y-83460000D03*
%TO.P,U1,4*%
%TO.N,V-*%
X53000000Y-78380000D03*
%TO.P,U1,8*%
%TO.N,Net-(U1-Pad8)*%
X45380000Y-86000000D03*
%TD*%
%TO.P,U2,8*%
%TO.N,Net-(U2-Pad8)*%
X59880000Y-86000000D03*
%TO.P,U2,4*%
%TO.N,V-*%
X67500000Y-78380000D03*
%TO.P,U2,7*%
%TO.N,VCC*%
X59880000Y-83460000D03*
%TO.P,U2,3*%
%TO.N,Net-(R2-Pad1)*%
X67500000Y-80920000D03*
%TO.P,U2,6*%
%TO.N,Net-(R8-Pad2)*%
X59880000Y-80920000D03*
%TO.P,U2,2*%
X67500000Y-83460000D03*
%TO.P,U2,5*%
%TO.N,Net-(U2-Pad5)*%
X59880000Y-78380000D03*
D12*
%TO.P,U2,1*%
%TO.N,Net-(U2-Pad1)*%
X67500000Y-86000000D03*
%TD*%
D17*
%TO.N,Earth*%
X55000000Y-75000000D03*
X61500000Y-80500000D03*
X49500000Y-75000000D03*
X57500000Y-82000000D03*
%TD*%
D18*
%TO.N,Net-(C4-Pad1)*%
X44000000Y-57000000D02*
X46500000Y-54500000D01*
X44000000Y-63920000D02*
X44000000Y-57000000D01*
%TO.N,Net-(C7-Pad1)*%
X57000000Y-64000000D02*
X66500000Y-54500000D01*
X54420000Y-64000000D02*
X57000000Y-64000000D01*
X52000000Y-40000000D02*
X51500000Y-40000000D01*
X66500000Y-54500000D02*
X52000000Y-40000000D01*
%TO.N,Net-(D1-Pad1)*%
X65000000Y-64000000D02*
X59500000Y-64000000D01*
%TO.N,V-*%
X66374999Y-79505001D02*
X67500000Y-78380000D01*
X54125001Y-79505001D02*
X66374999Y-79505001D01*
X53000000Y-78380000D02*
X54125001Y-79505001D01*
X52200001Y-68179999D02*
X52380000Y-68000000D01*
X52200001Y-77580001D02*
X52200001Y-68179999D01*
X53000000Y-78380000D02*
X52200001Y-77580001D01*
X53179999Y-53679999D02*
X51500000Y-52000000D01*
X53179999Y-67200001D02*
X53179999Y-53679999D01*
X52380000Y-68000000D02*
X53179999Y-67200001D01*
%TO.N,Net-(C5-Pad1)*%
X55105001Y-96894999D02*
X54000000Y-98000000D01*
X55105001Y-83025001D02*
X55105001Y-96894999D01*
X53000000Y-80920000D02*
X55105001Y-83025001D01*
X59000000Y-98000000D02*
X54000000Y-98000000D01*
X58920000Y-112500000D02*
X54000000Y-112500000D01*
%TO.N,Net-(C8-Pad1)*%
X55105001Y-106974999D02*
X54080000Y-108000000D01*
X63054999Y-106974999D02*
X55105001Y-106974999D01*
X64080000Y-108000000D02*
X63054999Y-106974999D01*
X63000000Y-106920000D02*
X64080000Y-108000000D01*
X63000000Y-103000000D02*
X63000000Y-106920000D01*
%TO.N,Net-(R2-Pad2)*%
X54125001Y-91454999D02*
X54080000Y-91500000D01*
X54125001Y-84585001D02*
X54125001Y-91454999D01*
X53000000Y-83460000D02*
X54125001Y-84585001D01*
%TO.N,Net-(R2-Pad1)*%
X55025001Y-72525001D02*
X54000000Y-71500000D01*
X63310003Y-72525001D02*
X55025001Y-72525001D01*
X68625001Y-77839999D02*
X63310003Y-72525001D01*
X68625001Y-79794999D02*
X68625001Y-77839999D01*
X67500000Y-80920000D02*
X68625001Y-79794999D01*
%TO.N,Net-(R8-Pad2)*%
X61294999Y-82334999D02*
X59880000Y-80920000D01*
X66374999Y-82334999D02*
X61294999Y-82334999D01*
X67500000Y-83460000D02*
X66374999Y-82334999D01*
%TD*%
D19*
%TO.N,Earth*%
X74873000Y-129873000D02*
X37627000Y-129873000D01*
X37627000Y-118765098D01*
X51115000Y-118765098D01*
X51115000Y-119234902D01*
X51206654Y-119695679D01*
X51386440Y-120129721D01*
X51647450Y-120520349D01*
X51979651Y-120852550D01*
X52370279Y-121113560D01*
X52804321Y-121293346D01*
X53265098Y-121385000D01*
X53734902Y-121385000D01*
X54195679Y-121293346D01*
X54629721Y-121113560D01*
X55020349Y-120852550D01*
X55352550Y-120520349D01*
X55613560Y-120129721D01*
X55793346Y-119695679D01*
X55885000Y-119234902D01*
X55885000Y-118765098D01*
X57115000Y-118765098D01*
X57115000Y-119234902D01*
X57206654Y-119695679D01*
X57386440Y-120129721D01*
X57647450Y-120520349D01*
X57979651Y-120852550D01*
X58370279Y-121113560D01*
X58804321Y-121293346D01*
X59265098Y-121385000D01*
X59734902Y-121385000D01*
X60195679Y-121293346D01*
X60629721Y-121113560D01*
X61020349Y-120852550D01*
X61352550Y-120520349D01*
X61613560Y-120129721D01*
X61793346Y-119695679D01*
X61885000Y-119234902D01*
X61885000Y-118765098D01*
X61793346Y-118304321D01*
X61613560Y-117870279D01*
X61352550Y-117479651D01*
X61020349Y-117147450D01*
X60629721Y-116886440D01*
X60195679Y-116706654D01*
X59734902Y-116615000D01*
X59265098Y-116615000D01*
X58804321Y-116706654D01*
X58370279Y-116886440D01*
X57979651Y-117147450D01*
X57647450Y-117479651D01*
X57386440Y-117870279D01*
X57206654Y-118304321D01*
X57115000Y-118765098D01*
X55885000Y-118765098D01*
X55793346Y-118304321D01*
X55613560Y-117870279D01*
X55352550Y-117479651D01*
X55020349Y-117147450D01*
X54629721Y-116886440D01*
X54195679Y-116706654D01*
X53734902Y-116615000D01*
X53265098Y-116615000D01*
X52804321Y-116706654D01*
X52370279Y-116886440D01*
X51979651Y-117147450D01*
X51647450Y-117479651D01*
X51386440Y-117870279D01*
X51206654Y-118304321D01*
X51115000Y-118765098D01*
X37627000Y-118765098D01*
X37627000Y-112358665D01*
X50065000Y-112358665D01*
X50065000Y-112641335D01*
X50120147Y-112918574D01*
X50228320Y-113179727D01*
X50385363Y-113414759D01*
X50585241Y-113614637D01*
X50820273Y-113771680D01*
X51081426Y-113879853D01*
X51358665Y-113935000D01*
X51641335Y-113935000D01*
X51918574Y-113879853D01*
X52179727Y-113771680D01*
X52414759Y-113614637D01*
X52614637Y-113414759D01*
X52750000Y-113212173D01*
X52885363Y-113414759D01*
X53085241Y-113614637D01*
X53320273Y-113771680D01*
X53581426Y-113879853D01*
X53858665Y-113935000D01*
X54141335Y-113935000D01*
X54418574Y-113879853D01*
X54679727Y-113771680D01*
X54914759Y-113614637D01*
X55114637Y-113414759D01*
X55218043Y-113260000D01*
X57822225Y-113260000D01*
X57883038Y-113351013D01*
X58068987Y-113536962D01*
X58287641Y-113683061D01*
X58530595Y-113783696D01*
X58788514Y-113835000D01*
X59051486Y-113835000D01*
X59309405Y-113783696D01*
X59552359Y-113683061D01*
X59771013Y-113536962D01*
X59956962Y-113351013D01*
X60103061Y-113132359D01*
X60203696Y-112889405D01*
X60255000Y-112631486D01*
X60255000Y-112368514D01*
X62665000Y-112368514D01*
X62665000Y-112631486D01*
X62716304Y-112889405D01*
X62816939Y-113132359D01*
X62963038Y-113351013D01*
X63148987Y-113536962D01*
X63367641Y-113683061D01*
X63610595Y-113783696D01*
X63868514Y-113835000D01*
X64131486Y-113835000D01*
X64389405Y-113783696D01*
X64632359Y-113683061D01*
X64851013Y-113536962D01*
X65036962Y-113351013D01*
X65183061Y-113132359D01*
X65283696Y-112889405D01*
X65335000Y-112631486D01*
X65335000Y-112368514D01*
X65283696Y-112110595D01*
X65183061Y-111867641D01*
X65036962Y-111648987D01*
X64851013Y-111463038D01*
X64632359Y-111316939D01*
X64389405Y-111216304D01*
X64131486Y-111165000D01*
X63868514Y-111165000D01*
X63610595Y-111216304D01*
X63367641Y-111316939D01*
X63148987Y-111463038D01*
X62963038Y-111648987D01*
X62816939Y-111867641D01*
X62716304Y-112110595D01*
X62665000Y-112368514D01*
X60255000Y-112368514D01*
X60203696Y-112110595D01*
X60103061Y-111867641D01*
X59956962Y-111648987D01*
X59771013Y-111463038D01*
X59552359Y-111316939D01*
X59309405Y-111216304D01*
X59051486Y-111165000D01*
X58788514Y-111165000D01*
X58530595Y-111216304D01*
X58287641Y-111316939D01*
X58068987Y-111463038D01*
X57883038Y-111648987D01*
X57822225Y-111740000D01*
X55218043Y-111740000D01*
X55114637Y-111585241D01*
X54914759Y-111385363D01*
X54679727Y-111228320D01*
X54418574Y-111120147D01*
X54141335Y-111065000D01*
X53858665Y-111065000D01*
X53581426Y-111120147D01*
X53320273Y-111228320D01*
X53085241Y-111385363D01*
X52885363Y-111585241D01*
X52750000Y-111787827D01*
X52614637Y-111585241D01*
X52414759Y-111385363D01*
X52179727Y-111228320D01*
X51918574Y-111120147D01*
X51641335Y-111065000D01*
X51358665Y-111065000D01*
X51081426Y-111120147D01*
X50820273Y-111228320D01*
X50585241Y-111385363D01*
X50385363Y-111585241D01*
X50228320Y-111820273D01*
X50120147Y-112081426D01*
X50065000Y-112358665D01*
X37627000Y-112358665D01*
X37627000Y-107868514D01*
X47665000Y-107868514D01*
X47665000Y-108131486D01*
X47716304Y-108389405D01*
X47816939Y-108632359D01*
X47963038Y-108851013D01*
X48148987Y-109036962D01*
X48367641Y-109183061D01*
X48610595Y-109283696D01*
X48868514Y-109335000D01*
X49131486Y-109335000D01*
X49389405Y-109283696D01*
X49632359Y-109183061D01*
X49851013Y-109036962D01*
X50036962Y-108851013D01*
X50183061Y-108632359D01*
X50283696Y-108389405D01*
X50335000Y-108131486D01*
X50335000Y-107868514D01*
X52745000Y-107868514D01*
X52745000Y-108131486D01*
X52796304Y-108389405D01*
X52896939Y-108632359D01*
X53043038Y-108851013D01*
X53228987Y-109036962D01*
X53447641Y-109183061D01*
X53690595Y-109283696D01*
X53948514Y-109335000D01*
X54211486Y-109335000D01*
X54469405Y-109283696D01*
X54712359Y-109183061D01*
X54931013Y-109036962D01*
X55116962Y-108851013D01*
X55263061Y-108632359D01*
X55363696Y-108389405D01*
X55415000Y-108131486D01*
X55415000Y-107868514D01*
X55393645Y-107761157D01*
X55419803Y-107734999D01*
X57691558Y-107734999D01*
X57665000Y-107868514D01*
X57665000Y-108131486D01*
X57716304Y-108389405D01*
X57816939Y-108632359D01*
X57963038Y-108851013D01*
X58148987Y-109036962D01*
X58367641Y-109183061D01*
X58610595Y-109283696D01*
X58868514Y-109335000D01*
X59131486Y-109335000D01*
X59389405Y-109283696D01*
X59632359Y-109183061D01*
X59851013Y-109036962D01*
X60036962Y-108851013D01*
X60183061Y-108632359D01*
X60283696Y-108389405D01*
X60335000Y-108131486D01*
X60335000Y-107868514D01*
X60308442Y-107734999D01*
X62740198Y-107734999D01*
X62766355Y-107761156D01*
X62745000Y-107868514D01*
X62745000Y-108131486D01*
X62796304Y-108389405D01*
X62896939Y-108632359D01*
X63043038Y-108851013D01*
X63228987Y-109036962D01*
X63447641Y-109183061D01*
X63690595Y-109283696D01*
X63948514Y-109335000D01*
X64211486Y-109335000D01*
X64469405Y-109283696D01*
X64712359Y-109183061D01*
X64931013Y-109036962D01*
X65116962Y-108851013D01*
X65263061Y-108632359D01*
X65363696Y-108389405D01*
X65415000Y-108131486D01*
X65415000Y-107868514D01*
X65363696Y-107610595D01*
X65263061Y-107367641D01*
X65116962Y-107148987D01*
X64931013Y-106963038D01*
X64712359Y-106816939D01*
X64469405Y-106716304D01*
X64211486Y-106665000D01*
X63948514Y-106665000D01*
X63841156Y-106686355D01*
X63760000Y-106605199D01*
X63760000Y-104218043D01*
X63914759Y-104114637D01*
X64114637Y-103914759D01*
X64271680Y-103679727D01*
X64379853Y-103418574D01*
X64435000Y-103141335D01*
X64435000Y-102858665D01*
X64379853Y-102581426D01*
X64271680Y-102320273D01*
X64114637Y-102085241D01*
X63914759Y-101885363D01*
X63679727Y-101728320D01*
X63418574Y-101620147D01*
X63141335Y-101565000D01*
X62858665Y-101565000D01*
X62581426Y-101620147D01*
X62320273Y-101728320D01*
X62085241Y-101885363D01*
X61885363Y-102085241D01*
X61750000Y-102287827D01*
X61614637Y-102085241D01*
X61414759Y-101885363D01*
X61179727Y-101728320D01*
X60918574Y-101620147D01*
X60641335Y-101565000D01*
X60358665Y-101565000D01*
X60081426Y-101620147D01*
X59820273Y-101728320D01*
X59585241Y-101885363D01*
X59385363Y-102085241D01*
X59228320Y-102320273D01*
X59120147Y-102581426D01*
X59065000Y-102858665D01*
X59065000Y-103141335D01*
X59120147Y-103418574D01*
X59228320Y-103679727D01*
X59385363Y-103914759D01*
X59585241Y-104114637D01*
X59820273Y-104271680D01*
X60081426Y-104379853D01*
X60358665Y-104435000D01*
X60641335Y-104435000D01*
X60918574Y-104379853D01*
X61179727Y-104271680D01*
X61414759Y-104114637D01*
X61614637Y-103914759D01*
X61750000Y-103712173D01*
X61885363Y-103914759D01*
X62085241Y-104114637D01*
X62240000Y-104218044D01*
X62240001Y-106214999D01*
X55142323Y-106214999D01*
X55105000Y-106211323D01*
X55067677Y-106214999D01*
X55067668Y-106214999D01*
X54956015Y-106225996D01*
X54812754Y-106269453D01*
X54680725Y-106340025D01*
X54565000Y-106434998D01*
X54541202Y-106463996D01*
X54318843Y-106686355D01*
X54211486Y-106665000D01*
X53948514Y-106665000D01*
X53690595Y-106716304D01*
X53447641Y-106816939D01*
X53228987Y-106963038D01*
X53043038Y-107148987D01*
X52896939Y-107367641D01*
X52796304Y-107610595D01*
X52745000Y-107868514D01*
X50335000Y-107868514D01*
X50283696Y-107610595D01*
X50183061Y-107367641D01*
X50036962Y-107148987D01*
X49851013Y-106963038D01*
X49632359Y-106816939D01*
X49389405Y-106716304D01*
X49131486Y-106665000D01*
X48868514Y-106665000D01*
X48610595Y-106716304D01*
X48367641Y-106816939D01*
X48148987Y-106963038D01*
X47963038Y-107148987D01*
X47816939Y-107367641D01*
X47716304Y-107610595D01*
X47665000Y-107868514D01*
X37627000Y-107868514D01*
X37627000Y-97200000D01*
X44941928Y-97200000D01*
X44941928Y-98800000D01*
X44954188Y-98924482D01*
X44990498Y-99044180D01*
X45049463Y-99154494D01*
X45128815Y-99251185D01*
X45225506Y-99330537D01*
X45335820Y-99389502D01*
X45455518Y-99425812D01*
X45580000Y-99438072D01*
X47180000Y-99438072D01*
X47304482Y-99425812D01*
X47424180Y-99389502D01*
X47534494Y-99330537D01*
X47631185Y-99251185D01*
X47710537Y-99154494D01*
X47769502Y-99044180D01*
X47805812Y-98924482D01*
X47818072Y-98800000D01*
X47818072Y-97200000D01*
X47805812Y-97075518D01*
X47769502Y-96955820D01*
X47710537Y-96845506D01*
X47631185Y-96748815D01*
X47534494Y-96669463D01*
X47424180Y-96610498D01*
X47304482Y-96574188D01*
X47180000Y-96561928D01*
X45580000Y-96561928D01*
X45455518Y-96574188D01*
X45335820Y-96610498D01*
X45225506Y-96669463D01*
X45128815Y-96748815D01*
X45049463Y-96845506D01*
X44990498Y-96955820D01*
X44954188Y-97075518D01*
X44941928Y-97200000D01*
X37627000Y-97200000D01*
X37627000Y-91368514D01*
X47665000Y-91368514D01*
X47665000Y-91631486D01*
X47716304Y-91889405D01*
X47816939Y-92132359D01*
X47963038Y-92351013D01*
X48148987Y-92536962D01*
X48367641Y-92683061D01*
X48610595Y-92783696D01*
X48868514Y-92835000D01*
X49131486Y-92835000D01*
X49389405Y-92783696D01*
X49632359Y-92683061D01*
X49851013Y-92536962D01*
X50036962Y-92351013D01*
X50183061Y-92132359D01*
X50283696Y-91889405D01*
X50335000Y-91631486D01*
X50335000Y-91368514D01*
X50283696Y-91110595D01*
X50183061Y-90867641D01*
X50036962Y-90648987D01*
X49851013Y-90463038D01*
X49632359Y-90316939D01*
X49389405Y-90216304D01*
X49131486Y-90165000D01*
X48868514Y-90165000D01*
X48610595Y-90216304D01*
X48367641Y-90316939D01*
X48148987Y-90463038D01*
X47963038Y-90648987D01*
X47816939Y-90867641D01*
X47716304Y-91110595D01*
X47665000Y-91368514D01*
X37627000Y-91368514D01*
X37627000Y-78238665D01*
X43945000Y-78238665D01*
X43945000Y-78521335D01*
X44000147Y-78798574D01*
X44108320Y-79059727D01*
X44265363Y-79294759D01*
X44465241Y-79494637D01*
X44697759Y-79650000D01*
X44465241Y-79805363D01*
X44265363Y-80005241D01*
X44108320Y-80240273D01*
X44000147Y-80501426D01*
X43945000Y-80778665D01*
X43945000Y-81061335D01*
X44000147Y-81338574D01*
X44108320Y-81599727D01*
X44265363Y-81834759D01*
X44465241Y-82034637D01*
X44697759Y-82190000D01*
X44465241Y-82345363D01*
X44265363Y-82545241D01*
X44108320Y-82780273D01*
X44000147Y-83041426D01*
X43945000Y-83318665D01*
X43945000Y-83601335D01*
X44000147Y-83878574D01*
X44108320Y-84139727D01*
X44265363Y-84374759D01*
X44465241Y-84574637D01*
X44697759Y-84730000D01*
X44465241Y-84885363D01*
X44265363Y-85085241D01*
X44108320Y-85320273D01*
X44000147Y-85581426D01*
X43945000Y-85858665D01*
X43945000Y-86141335D01*
X44000147Y-86418574D01*
X44108320Y-86679727D01*
X44265363Y-86914759D01*
X44465241Y-87114637D01*
X44700273Y-87271680D01*
X44961426Y-87379853D01*
X45238665Y-87435000D01*
X45521335Y-87435000D01*
X45798574Y-87379853D01*
X46059727Y-87271680D01*
X46294759Y-87114637D01*
X46494637Y-86914759D01*
X46651680Y-86679727D01*
X46759853Y-86418574D01*
X46815000Y-86141335D01*
X46815000Y-85858665D01*
X46759853Y-85581426D01*
X46651680Y-85320273D01*
X46494637Y-85085241D01*
X46294759Y-84885363D01*
X46062241Y-84730000D01*
X46294759Y-84574637D01*
X46494637Y-84374759D01*
X46651680Y-84139727D01*
X46759853Y-83878574D01*
X46815000Y-83601335D01*
X46815000Y-83318665D01*
X46759853Y-83041426D01*
X46651680Y-82780273D01*
X46494637Y-82545241D01*
X46294759Y-82345363D01*
X46062241Y-82190000D01*
X46294759Y-82034637D01*
X46494637Y-81834759D01*
X46651680Y-81599727D01*
X46759853Y-81338574D01*
X46815000Y-81061335D01*
X46815000Y-80778665D01*
X46759853Y-80501426D01*
X46651680Y-80240273D01*
X46494637Y-80005241D01*
X46294759Y-79805363D01*
X46062241Y-79650000D01*
X46294759Y-79494637D01*
X46494637Y-79294759D01*
X46651680Y-79059727D01*
X46759853Y-78798574D01*
X46815000Y-78521335D01*
X46815000Y-78238665D01*
X46759853Y-77961426D01*
X46651680Y-77700273D01*
X46494637Y-77465241D01*
X46294759Y-77265363D01*
X46059727Y-77108320D01*
X45798574Y-77000147D01*
X45521335Y-76945000D01*
X45238665Y-76945000D01*
X44961426Y-77000147D01*
X44700273Y-77108320D01*
X44465241Y-77265363D01*
X44265363Y-77465241D01*
X44108320Y-77700273D01*
X44000147Y-77961426D01*
X43945000Y-78238665D01*
X37627000Y-78238665D01*
X37627000Y-68868514D01*
X42665000Y-68868514D01*
X42665000Y-69131486D01*
X42716304Y-69389405D01*
X42816939Y-69632359D01*
X42963038Y-69851013D01*
X43148987Y-70036962D01*
X43367641Y-70183061D01*
X43610595Y-70283696D01*
X43868514Y-70335000D01*
X44131486Y-70335000D01*
X44389405Y-70283696D01*
X44632359Y-70183061D01*
X44851013Y-70036962D01*
X45036962Y-69851013D01*
X45183061Y-69632359D01*
X45283696Y-69389405D01*
X45335000Y-69131486D01*
X45335000Y-68948514D01*
X46665000Y-68948514D01*
X46665000Y-69211486D01*
X46716304Y-69469405D01*
X46816939Y-69712359D01*
X46963038Y-69931013D01*
X47148987Y-70116962D01*
X47367641Y-70263061D01*
X47610595Y-70363696D01*
X47868514Y-70415000D01*
X48131486Y-70415000D01*
X48389405Y-70363696D01*
X48632359Y-70263061D01*
X48851013Y-70116962D01*
X49036962Y-69931013D01*
X49183061Y-69712359D01*
X49283696Y-69469405D01*
X49335000Y-69211486D01*
X49335000Y-68948514D01*
X49283696Y-68690595D01*
X49183061Y-68447641D01*
X49036962Y-68228987D01*
X48851013Y-68043038D01*
X48632359Y-67896939D01*
X48389405Y-67796304D01*
X48131486Y-67745000D01*
X47868514Y-67745000D01*
X47610595Y-67796304D01*
X47367641Y-67896939D01*
X47148987Y-68043038D01*
X46963038Y-68228987D01*
X46816939Y-68447641D01*
X46716304Y-68690595D01*
X46665000Y-68948514D01*
X45335000Y-68948514D01*
X45335000Y-68868514D01*
X45283696Y-68610595D01*
X45183061Y-68367641D01*
X45036962Y-68148987D01*
X44851013Y-67963038D01*
X44632359Y-67816939D01*
X44389405Y-67716304D01*
X44131486Y-67665000D01*
X43868514Y-67665000D01*
X43610595Y-67716304D01*
X43367641Y-67816939D01*
X43148987Y-67963038D01*
X42963038Y-68148987D01*
X42816939Y-68367641D01*
X42716304Y-68610595D01*
X42665000Y-68868514D01*
X37627000Y-68868514D01*
X37627000Y-63788514D01*
X42665000Y-63788514D01*
X42665000Y-64051486D01*
X42716304Y-64309405D01*
X42816939Y-64552359D01*
X42963038Y-64771013D01*
X43148987Y-64956962D01*
X43367641Y-65103061D01*
X43610595Y-65203696D01*
X43868514Y-65255000D01*
X44131486Y-65255000D01*
X44389405Y-65203696D01*
X44632359Y-65103061D01*
X44851013Y-64956962D01*
X45036962Y-64771013D01*
X45183061Y-64552359D01*
X45283696Y-64309405D01*
X45335000Y-64051486D01*
X45335000Y-63868514D01*
X46665000Y-63868514D01*
X46665000Y-64131486D01*
X46716304Y-64389405D01*
X46816939Y-64632359D01*
X46963038Y-64851013D01*
X47148987Y-65036962D01*
X47367641Y-65183061D01*
X47610595Y-65283696D01*
X47868514Y-65335000D01*
X48131486Y-65335000D01*
X48389405Y-65283696D01*
X48632359Y-65183061D01*
X48851013Y-65036962D01*
X49036962Y-64851013D01*
X49183061Y-64632359D01*
X49283696Y-64389405D01*
X49335000Y-64131486D01*
X49335000Y-63868514D01*
X49283696Y-63610595D01*
X49183061Y-63367641D01*
X49036962Y-63148987D01*
X48851013Y-62963038D01*
X48632359Y-62816939D01*
X48389405Y-62716304D01*
X48131486Y-62665000D01*
X47868514Y-62665000D01*
X47610595Y-62716304D01*
X47367641Y-62816939D01*
X47148987Y-62963038D01*
X46963038Y-63148987D01*
X46816939Y-63367641D01*
X46716304Y-63610595D01*
X46665000Y-63868514D01*
X45335000Y-63868514D01*
X45335000Y-63788514D01*
X45283696Y-63530595D01*
X45183061Y-63287641D01*
X45036962Y-63068987D01*
X44851013Y-62883038D01*
X44760000Y-62822225D01*
X44760000Y-57314801D01*
X46176114Y-55898688D01*
X46358665Y-55935000D01*
X46641335Y-55935000D01*
X46918574Y-55879853D01*
X47179727Y-55771680D01*
X47414759Y-55614637D01*
X47614637Y-55414759D01*
X47771680Y-55179727D01*
X47879853Y-54918574D01*
X47935000Y-54641335D01*
X47935000Y-54358665D01*
X47879853Y-54081426D01*
X47771680Y-53820273D01*
X47614637Y-53585241D01*
X47414759Y-53385363D01*
X47212173Y-53250000D01*
X47414759Y-53114637D01*
X47614637Y-52914759D01*
X47771680Y-52679727D01*
X47879853Y-52418574D01*
X47935000Y-52141335D01*
X47935000Y-51858665D01*
X47879853Y-51581426D01*
X47771680Y-51320273D01*
X47614637Y-51085241D01*
X47414759Y-50885363D01*
X47179727Y-50728320D01*
X46918574Y-50620147D01*
X46641335Y-50565000D01*
X46358665Y-50565000D01*
X46081426Y-50620147D01*
X45820273Y-50728320D01*
X45585241Y-50885363D01*
X45385363Y-51085241D01*
X45228320Y-51320273D01*
X45120147Y-51581426D01*
X45065000Y-51858665D01*
X45065000Y-52141335D01*
X45120147Y-52418574D01*
X45228320Y-52679727D01*
X45385363Y-52914759D01*
X45585241Y-53114637D01*
X45787827Y-53250000D01*
X45585241Y-53385363D01*
X45385363Y-53585241D01*
X45228320Y-53820273D01*
X45120147Y-54081426D01*
X45065000Y-54358665D01*
X45065000Y-54641335D01*
X45101312Y-54823886D01*
X43488998Y-56436201D01*
X43460000Y-56459999D01*
X43436202Y-56488997D01*
X43436201Y-56488998D01*
X43365026Y-56575724D01*
X43294454Y-56707754D01*
X43250998Y-56851015D01*
X43236324Y-57000000D01*
X43240001Y-57037332D01*
X43240000Y-62822225D01*
X43148987Y-62883038D01*
X42963038Y-63068987D01*
X42816939Y-63287641D01*
X42716304Y-63530595D01*
X42665000Y-63788514D01*
X37627000Y-63788514D01*
X37627000Y-39765098D01*
X49115000Y-39765098D01*
X49115000Y-40234902D01*
X49206654Y-40695679D01*
X49386440Y-41129721D01*
X49647450Y-41520349D01*
X49979651Y-41852550D01*
X50370279Y-42113560D01*
X50804321Y-42293346D01*
X51265098Y-42385000D01*
X51734902Y-42385000D01*
X52195679Y-42293346D01*
X52629721Y-42113560D01*
X52874921Y-41949722D01*
X61490198Y-50565000D01*
X61358665Y-50565000D01*
X61081426Y-50620147D01*
X60820273Y-50728320D01*
X60585241Y-50885363D01*
X60385363Y-51085241D01*
X60228320Y-51320273D01*
X60120147Y-51581426D01*
X60065000Y-51858665D01*
X60065000Y-52141335D01*
X60120147Y-52418574D01*
X60228320Y-52679727D01*
X60385363Y-52914759D01*
X60585241Y-53114637D01*
X60787827Y-53250000D01*
X60585241Y-53385363D01*
X60385363Y-53585241D01*
X60228320Y-53820273D01*
X60120147Y-54081426D01*
X60065000Y-54358665D01*
X60065000Y-54641335D01*
X60120147Y-54918574D01*
X60228320Y-55179727D01*
X60385363Y-55414759D01*
X60585241Y-55614637D01*
X60820273Y-55771680D01*
X61081426Y-55879853D01*
X61358665Y-55935000D01*
X61641335Y-55935000D01*
X61918574Y-55879853D01*
X62179727Y-55771680D01*
X62414759Y-55614637D01*
X62614637Y-55414759D01*
X62771680Y-55179727D01*
X62879853Y-54918574D01*
X62935000Y-54641335D01*
X62935000Y-54358665D01*
X62879853Y-54081426D01*
X62771680Y-53820273D01*
X62614637Y-53585241D01*
X62414759Y-53385363D01*
X62212173Y-53250000D01*
X62414759Y-53114637D01*
X62614637Y-52914759D01*
X62771680Y-52679727D01*
X62879853Y-52418574D01*
X62935000Y-52141335D01*
X62935000Y-52009802D01*
X65101312Y-54176114D01*
X65065000Y-54358665D01*
X65065000Y-54641335D01*
X65101312Y-54823886D01*
X56685199Y-63240000D01*
X55517775Y-63240000D01*
X55456962Y-63148987D01*
X55271013Y-62963038D01*
X55052359Y-62816939D01*
X54809405Y-62716304D01*
X54551486Y-62665000D01*
X54288514Y-62665000D01*
X54030595Y-62716304D01*
X53939999Y-62753830D01*
X53939999Y-53717321D01*
X53943675Y-53679998D01*
X53939999Y-53642675D01*
X53939999Y-53642666D01*
X53929002Y-53531013D01*
X53885545Y-53387752D01*
X53814973Y-53255723D01*
X53720000Y-53139998D01*
X53691002Y-53116200D01*
X52898688Y-52323886D01*
X52935000Y-52141335D01*
X52935000Y-51858665D01*
X55065000Y-51858665D01*
X55065000Y-52141335D01*
X55120147Y-52418574D01*
X55228320Y-52679727D01*
X55385363Y-52914759D01*
X55585241Y-53114637D01*
X55787827Y-53250000D01*
X55585241Y-53385363D01*
X55385363Y-53585241D01*
X55228320Y-53820273D01*
X55120147Y-54081426D01*
X55065000Y-54358665D01*
X55065000Y-54641335D01*
X55120147Y-54918574D01*
X55228320Y-55179727D01*
X55385363Y-55414759D01*
X55585241Y-55614637D01*
X55820273Y-55771680D01*
X56081426Y-55879853D01*
X56358665Y-55935000D01*
X56641335Y-55935000D01*
X56918574Y-55879853D01*
X57179727Y-55771680D01*
X57414759Y-55614637D01*
X57614637Y-55414759D01*
X57771680Y-55179727D01*
X57879853Y-54918574D01*
X57935000Y-54641335D01*
X57935000Y-54358665D01*
X57879853Y-54081426D01*
X57771680Y-53820273D01*
X57614637Y-53585241D01*
X57414759Y-53385363D01*
X57212173Y-53250000D01*
X57414759Y-53114637D01*
X57614637Y-52914759D01*
X57771680Y-52679727D01*
X57879853Y-52418574D01*
X57935000Y-52141335D01*
X57935000Y-51858665D01*
X57879853Y-51581426D01*
X57771680Y-51320273D01*
X57614637Y-51085241D01*
X57414759Y-50885363D01*
X57179727Y-50728320D01*
X56918574Y-50620147D01*
X56641335Y-50565000D01*
X56358665Y-50565000D01*
X56081426Y-50620147D01*
X55820273Y-50728320D01*
X55585241Y-50885363D01*
X55385363Y-51085241D01*
X55228320Y-51320273D01*
X55120147Y-51581426D01*
X55065000Y-51858665D01*
X52935000Y-51858665D01*
X52879853Y-51581426D01*
X52771680Y-51320273D01*
X52614637Y-51085241D01*
X52414759Y-50885363D01*
X52179727Y-50728320D01*
X51918574Y-50620147D01*
X51641335Y-50565000D01*
X51358665Y-50565000D01*
X51081426Y-50620147D01*
X50820273Y-50728320D01*
X50585241Y-50885363D01*
X50385363Y-51085241D01*
X50228320Y-51320273D01*
X50120147Y-51581426D01*
X50065000Y-51858665D01*
X50065000Y-52141335D01*
X50120147Y-52418574D01*
X50228320Y-52679727D01*
X50385363Y-52914759D01*
X50585241Y-53114637D01*
X50787827Y-53250000D01*
X50585241Y-53385363D01*
X50385363Y-53585241D01*
X50228320Y-53820273D01*
X50120147Y-54081426D01*
X50065000Y-54358665D01*
X50065000Y-54641335D01*
X50120147Y-54918574D01*
X50228320Y-55179727D01*
X50385363Y-55414759D01*
X50585241Y-55614637D01*
X50820273Y-55771680D01*
X51081426Y-55879853D01*
X51358665Y-55935000D01*
X51641335Y-55935000D01*
X51918574Y-55879853D01*
X52179727Y-55771680D01*
X52414759Y-55614637D01*
X52420000Y-55609396D01*
X52419999Y-66565000D01*
X52238665Y-66565000D01*
X51961426Y-66620147D01*
X51700273Y-66728320D01*
X51465241Y-66885363D01*
X51265363Y-67085241D01*
X51108320Y-67320273D01*
X51000147Y-67581426D01*
X50945000Y-67858665D01*
X50945000Y-68141335D01*
X51000147Y-68418574D01*
X51108320Y-68679727D01*
X51265363Y-68914759D01*
X51440002Y-69089398D01*
X51440001Y-77542679D01*
X51436325Y-77580001D01*
X51440001Y-77617323D01*
X51440001Y-77617333D01*
X51450998Y-77728986D01*
X51477454Y-77816201D01*
X51494455Y-77872247D01*
X51565027Y-78004277D01*
X51602533Y-78049977D01*
X51565000Y-78238665D01*
X51565000Y-78521335D01*
X51620147Y-78798574D01*
X51728320Y-79059727D01*
X51885363Y-79294759D01*
X52085241Y-79494637D01*
X52317759Y-79650000D01*
X52085241Y-79805363D01*
X51885363Y-80005241D01*
X51728320Y-80240273D01*
X51620147Y-80501426D01*
X51565000Y-80778665D01*
X51565000Y-81061335D01*
X51620147Y-81338574D01*
X51728320Y-81599727D01*
X51885363Y-81834759D01*
X52085241Y-82034637D01*
X52317759Y-82190000D01*
X52085241Y-82345363D01*
X51885363Y-82545241D01*
X51728320Y-82780273D01*
X51620147Y-83041426D01*
X51565000Y-83318665D01*
X51565000Y-83601335D01*
X51620147Y-83878574D01*
X51728320Y-84139727D01*
X51885363Y-84374759D01*
X52083961Y-84573357D01*
X52075518Y-84574188D01*
X51955820Y-84610498D01*
X51845506Y-84669463D01*
X51748815Y-84748815D01*
X51669463Y-84845506D01*
X51610498Y-84955820D01*
X51574188Y-85075518D01*
X51561928Y-85200000D01*
X51561928Y-86800000D01*
X51574188Y-86924482D01*
X51610498Y-87044180D01*
X51669463Y-87154494D01*
X51748815Y-87251185D01*
X51845506Y-87330537D01*
X51955820Y-87389502D01*
X52075518Y-87425812D01*
X52200000Y-87438072D01*
X53365001Y-87438072D01*
X53365002Y-90372156D01*
X53228987Y-90463038D01*
X53043038Y-90648987D01*
X52896939Y-90867641D01*
X52796304Y-91110595D01*
X52745000Y-91368514D01*
X52745000Y-91631486D01*
X52796304Y-91889405D01*
X52896939Y-92132359D01*
X53043038Y-92351013D01*
X53228987Y-92536962D01*
X53447641Y-92683061D01*
X53690595Y-92783696D01*
X53948514Y-92835000D01*
X54211486Y-92835000D01*
X54345002Y-92808442D01*
X54345002Y-96580195D01*
X54323885Y-96601312D01*
X54141335Y-96565000D01*
X53858665Y-96565000D01*
X53581426Y-96620147D01*
X53320273Y-96728320D01*
X53085241Y-96885363D01*
X52885363Y-97085241D01*
X52728320Y-97320273D01*
X52620147Y-97581426D01*
X52565000Y-97858665D01*
X52565000Y-98141335D01*
X52620147Y-98418574D01*
X52728320Y-98679727D01*
X52885363Y-98914759D01*
X53085241Y-99114637D01*
X53320273Y-99271680D01*
X53581426Y-99379853D01*
X53858665Y-99435000D01*
X54141335Y-99435000D01*
X54418574Y-99379853D01*
X54679727Y-99271680D01*
X54914759Y-99114637D01*
X55114637Y-98914759D01*
X55218043Y-98760000D01*
X57561928Y-98760000D01*
X57561928Y-98800000D01*
X57574188Y-98924482D01*
X57610498Y-99044180D01*
X57669463Y-99154494D01*
X57748815Y-99251185D01*
X57845506Y-99330537D01*
X57955820Y-99389502D01*
X58075518Y-99425812D01*
X58200000Y-99438072D01*
X59800000Y-99438072D01*
X59924482Y-99425812D01*
X60044180Y-99389502D01*
X60154494Y-99330537D01*
X60251185Y-99251185D01*
X60330537Y-99154494D01*
X60389502Y-99044180D01*
X60425812Y-98924482D01*
X60438072Y-98800000D01*
X60438072Y-97858665D01*
X65185000Y-97858665D01*
X65185000Y-98141335D01*
X65240147Y-98418574D01*
X65348320Y-98679727D01*
X65505363Y-98914759D01*
X65705241Y-99114637D01*
X65940273Y-99271680D01*
X66201426Y-99379853D01*
X66478665Y-99435000D01*
X66761335Y-99435000D01*
X67038574Y-99379853D01*
X67299727Y-99271680D01*
X67534759Y-99114637D01*
X67734637Y-98914759D01*
X67891680Y-98679727D01*
X67999853Y-98418574D01*
X68055000Y-98141335D01*
X68055000Y-97858665D01*
X67999853Y-97581426D01*
X67891680Y-97320273D01*
X67734637Y-97085241D01*
X67534759Y-96885363D01*
X67299727Y-96728320D01*
X67038574Y-96620147D01*
X66761335Y-96565000D01*
X66478665Y-96565000D01*
X66201426Y-96620147D01*
X65940273Y-96728320D01*
X65705241Y-96885363D01*
X65505363Y-97085241D01*
X65348320Y-97320273D01*
X65240147Y-97581426D01*
X65185000Y-97858665D01*
X60438072Y-97858665D01*
X60438072Y-97200000D01*
X60425812Y-97075518D01*
X60389502Y-96955820D01*
X60330537Y-96845506D01*
X60251185Y-96748815D01*
X60154494Y-96669463D01*
X60044180Y-96610498D01*
X59924482Y-96574188D01*
X59800000Y-96561928D01*
X58200000Y-96561928D01*
X58075518Y-96574188D01*
X57955820Y-96610498D01*
X57845506Y-96669463D01*
X57748815Y-96748815D01*
X57669463Y-96845506D01*
X57610498Y-96955820D01*
X57574188Y-97075518D01*
X57561928Y-97200000D01*
X57561928Y-97240000D01*
X55782349Y-97240000D01*
X55810547Y-97187246D01*
X55854004Y-97043985D01*
X55865001Y-96932332D01*
X55865001Y-96932323D01*
X55868677Y-96895000D01*
X55865001Y-96857677D01*
X55865001Y-91358665D01*
X59565000Y-91358665D01*
X59565000Y-91641335D01*
X59620147Y-91918574D01*
X59728320Y-92179727D01*
X59885363Y-92414759D01*
X60085241Y-92614637D01*
X60320273Y-92771680D01*
X60581426Y-92879853D01*
X60858665Y-92935000D01*
X61141335Y-92935000D01*
X61418574Y-92879853D01*
X61679727Y-92771680D01*
X61914759Y-92614637D01*
X62114637Y-92414759D01*
X62250000Y-92212173D01*
X62385363Y-92414759D01*
X62585241Y-92614637D01*
X62820273Y-92771680D01*
X63081426Y-92879853D01*
X63358665Y-92935000D01*
X63641335Y-92935000D01*
X63918574Y-92879853D01*
X64179727Y-92771680D01*
X64414759Y-92614637D01*
X64614637Y-92414759D01*
X64771680Y-92179727D01*
X64879853Y-91918574D01*
X64935000Y-91641335D01*
X64935000Y-91358665D01*
X64879853Y-91081426D01*
X64771680Y-90820273D01*
X64614637Y-90585241D01*
X64414759Y-90385363D01*
X64179727Y-90228320D01*
X63918574Y-90120147D01*
X63641335Y-90065000D01*
X63358665Y-90065000D01*
X63081426Y-90120147D01*
X62820273Y-90228320D01*
X62585241Y-90385363D01*
X62385363Y-90585241D01*
X62250000Y-90787827D01*
X62114637Y-90585241D01*
X61914759Y-90385363D01*
X61679727Y-90228320D01*
X61418574Y-90120147D01*
X61141335Y-90065000D01*
X60858665Y-90065000D01*
X60581426Y-90120147D01*
X60320273Y-90228320D01*
X60085241Y-90385363D01*
X59885363Y-90585241D01*
X59728320Y-90820273D01*
X59620147Y-91081426D01*
X59565000Y-91358665D01*
X55865001Y-91358665D01*
X55865001Y-83062324D01*
X55868677Y-83025001D01*
X55865001Y-82987678D01*
X55865001Y-82987668D01*
X55854004Y-82876015D01*
X55810547Y-82732754D01*
X55798918Y-82710998D01*
X55739975Y-82600724D01*
X55668800Y-82513998D01*
X55645002Y-82485000D01*
X55616005Y-82461203D01*
X54398688Y-81243886D01*
X54435000Y-81061335D01*
X54435000Y-80778665D01*
X54379853Y-80501426D01*
X54281923Y-80265001D01*
X58598077Y-80265001D01*
X58500147Y-80501426D01*
X58445000Y-80778665D01*
X58445000Y-81061335D01*
X58500147Y-81338574D01*
X58608320Y-81599727D01*
X58765363Y-81834759D01*
X58965241Y-82034637D01*
X59197759Y-82190000D01*
X58965241Y-82345363D01*
X58765363Y-82545241D01*
X58608320Y-82780273D01*
X58500147Y-83041426D01*
X58445000Y-83318665D01*
X58445000Y-83601335D01*
X58500147Y-83878574D01*
X58608320Y-84139727D01*
X58765363Y-84374759D01*
X58965241Y-84574637D01*
X59197759Y-84730000D01*
X58965241Y-84885363D01*
X58765363Y-85085241D01*
X58608320Y-85320273D01*
X58500147Y-85581426D01*
X58445000Y-85858665D01*
X58445000Y-86141335D01*
X58500147Y-86418574D01*
X58608320Y-86679727D01*
X58765363Y-86914759D01*
X58965241Y-87114637D01*
X59200273Y-87271680D01*
X59461426Y-87379853D01*
X59738665Y-87435000D01*
X60021335Y-87435000D01*
X60298574Y-87379853D01*
X60559727Y-87271680D01*
X60794759Y-87114637D01*
X60994637Y-86914759D01*
X61151680Y-86679727D01*
X61259853Y-86418574D01*
X61315000Y-86141335D01*
X61315000Y-85858665D01*
X61259853Y-85581426D01*
X61151680Y-85320273D01*
X60994637Y-85085241D01*
X60794759Y-84885363D01*
X60562241Y-84730000D01*
X60794759Y-84574637D01*
X60994637Y-84374759D01*
X61151680Y-84139727D01*
X61259853Y-83878574D01*
X61315000Y-83601335D01*
X61315000Y-83318665D01*
X61270766Y-83096288D01*
X61294999Y-83098675D01*
X61332324Y-83094999D01*
X66060198Y-83094999D01*
X66101312Y-83136113D01*
X66065000Y-83318665D01*
X66065000Y-83601335D01*
X66120147Y-83878574D01*
X66228320Y-84139727D01*
X66385363Y-84374759D01*
X66583961Y-84573357D01*
X66575518Y-84574188D01*
X66455820Y-84610498D01*
X66345506Y-84669463D01*
X66248815Y-84748815D01*
X66169463Y-84845506D01*
X66110498Y-84955820D01*
X66074188Y-85075518D01*
X66061928Y-85200000D01*
X66061928Y-86800000D01*
X66074188Y-86924482D01*
X66110498Y-87044180D01*
X66169463Y-87154494D01*
X66248815Y-87251185D01*
X66345506Y-87330537D01*
X66455820Y-87389502D01*
X66575518Y-87425812D01*
X66700000Y-87438072D01*
X68300000Y-87438072D01*
X68424482Y-87425812D01*
X68544180Y-87389502D01*
X68654494Y-87330537D01*
X68751185Y-87251185D01*
X68830537Y-87154494D01*
X68889502Y-87044180D01*
X68925812Y-86924482D01*
X68938072Y-86800000D01*
X68938072Y-85200000D01*
X68925812Y-85075518D01*
X68889502Y-84955820D01*
X68830537Y-84845506D01*
X68751185Y-84748815D01*
X68654494Y-84669463D01*
X68544180Y-84610498D01*
X68424482Y-84574188D01*
X68416039Y-84573357D01*
X68614637Y-84374759D01*
X68771680Y-84139727D01*
X68879853Y-83878574D01*
X68935000Y-83601335D01*
X68935000Y-83318665D01*
X68879853Y-83041426D01*
X68771680Y-82780273D01*
X68614637Y-82545241D01*
X68414759Y-82345363D01*
X68182241Y-82190000D01*
X68414759Y-82034637D01*
X68614637Y-81834759D01*
X68771680Y-81599727D01*
X68879853Y-81338574D01*
X68935000Y-81061335D01*
X68935000Y-80778665D01*
X68898688Y-80596114D01*
X69136005Y-80358797D01*
X69165002Y-80335000D01*
X69259975Y-80219275D01*
X69330547Y-80087246D01*
X69374004Y-79943985D01*
X69385001Y-79832332D01*
X69385001Y-79832324D01*
X69388677Y-79794999D01*
X69385001Y-79757674D01*
X69385001Y-77877321D01*
X69388677Y-77839998D01*
X69385001Y-77802675D01*
X69385001Y-77802666D01*
X69374004Y-77691013D01*
X69330547Y-77547752D01*
X69259975Y-77415723D01*
X69165002Y-77299998D01*
X69136004Y-77276200D01*
X63873807Y-72014004D01*
X63850004Y-71985000D01*
X63734279Y-71890027D01*
X63602250Y-71819455D01*
X63458989Y-71775998D01*
X63347336Y-71765001D01*
X63347325Y-71765001D01*
X63310003Y-71761325D01*
X63272681Y-71765001D01*
X60388442Y-71765001D01*
X60415000Y-71631486D01*
X60415000Y-71368514D01*
X60363696Y-71110595D01*
X60263061Y-70867641D01*
X60116962Y-70648987D01*
X59931013Y-70463038D01*
X59712359Y-70316939D01*
X59469405Y-70216304D01*
X59211486Y-70165000D01*
X58948514Y-70165000D01*
X58690595Y-70216304D01*
X58447641Y-70316939D01*
X58228987Y-70463038D01*
X58043038Y-70648987D01*
X57896939Y-70867641D01*
X57796304Y-71110595D01*
X57745000Y-71368514D01*
X57745000Y-71631486D01*
X57771558Y-71765001D01*
X55339803Y-71765001D01*
X55313645Y-71738843D01*
X55335000Y-71631486D01*
X55335000Y-71368514D01*
X55283696Y-71110595D01*
X55183061Y-70867641D01*
X55036962Y-70648987D01*
X54851013Y-70463038D01*
X54632359Y-70316939D01*
X54389405Y-70216304D01*
X54131486Y-70165000D01*
X53868514Y-70165000D01*
X53610595Y-70216304D01*
X53367641Y-70316939D01*
X53148987Y-70463038D01*
X52963038Y-70648987D01*
X52960001Y-70653532D01*
X52960001Y-69312988D01*
X53059727Y-69271680D01*
X53294759Y-69114637D01*
X53494637Y-68914759D01*
X53651680Y-68679727D01*
X53759853Y-68418574D01*
X53815000Y-68141335D01*
X53815000Y-67858665D01*
X53777467Y-67669978D01*
X53814972Y-67624278D01*
X53814973Y-67624277D01*
X53885545Y-67492248D01*
X53929002Y-67348987D01*
X53939999Y-67237334D01*
X53939999Y-67237325D01*
X53943675Y-67200002D01*
X53943675Y-67200000D01*
X58561928Y-67200000D01*
X58561928Y-68800000D01*
X58574188Y-68924482D01*
X58610498Y-69044180D01*
X58669463Y-69154494D01*
X58748815Y-69251185D01*
X58845506Y-69330537D01*
X58955820Y-69389502D01*
X59075518Y-69425812D01*
X59200000Y-69438072D01*
X60800000Y-69438072D01*
X60924482Y-69425812D01*
X61044180Y-69389502D01*
X61154494Y-69330537D01*
X61251185Y-69251185D01*
X61330537Y-69154494D01*
X61389502Y-69044180D01*
X61418521Y-68948514D01*
X63665000Y-68948514D01*
X63665000Y-69211486D01*
X63716304Y-69469405D01*
X63816939Y-69712359D01*
X63963038Y-69931013D01*
X64148987Y-70116962D01*
X64367641Y-70263061D01*
X64610595Y-70363696D01*
X64868514Y-70415000D01*
X65131486Y-70415000D01*
X65389405Y-70363696D01*
X65632359Y-70263061D01*
X65851013Y-70116962D01*
X66036962Y-69931013D01*
X66183061Y-69712359D01*
X66283696Y-69469405D01*
X66335000Y-69211486D01*
X66335000Y-68948514D01*
X67665000Y-68948514D01*
X67665000Y-69211486D01*
X67716304Y-69469405D01*
X67816939Y-69712359D01*
X67963038Y-69931013D01*
X68148987Y-70116962D01*
X68367641Y-70263061D01*
X68610595Y-70363696D01*
X68868514Y-70415000D01*
X69131486Y-70415000D01*
X69389405Y-70363696D01*
X69632359Y-70263061D01*
X69851013Y-70116962D01*
X70036962Y-69931013D01*
X70183061Y-69712359D01*
X70283696Y-69469405D01*
X70335000Y-69211486D01*
X70335000Y-68948514D01*
X70283696Y-68690595D01*
X70183061Y-68447641D01*
X70036962Y-68228987D01*
X69851013Y-68043038D01*
X69632359Y-67896939D01*
X69389405Y-67796304D01*
X69131486Y-67745000D01*
X68868514Y-67745000D01*
X68610595Y-67796304D01*
X68367641Y-67896939D01*
X68148987Y-68043038D01*
X67963038Y-68228987D01*
X67816939Y-68447641D01*
X67716304Y-68690595D01*
X67665000Y-68948514D01*
X66335000Y-68948514D01*
X66283696Y-68690595D01*
X66183061Y-68447641D01*
X66036962Y-68228987D01*
X65851013Y-68043038D01*
X65632359Y-67896939D01*
X65389405Y-67796304D01*
X65131486Y-67745000D01*
X64868514Y-67745000D01*
X64610595Y-67796304D01*
X64367641Y-67896939D01*
X64148987Y-68043038D01*
X63963038Y-68228987D01*
X63816939Y-68447641D01*
X63716304Y-68690595D01*
X63665000Y-68948514D01*
X61418521Y-68948514D01*
X61425812Y-68924482D01*
X61438072Y-68800000D01*
X61438072Y-67200000D01*
X61425812Y-67075518D01*
X61389502Y-66955820D01*
X61330537Y-66845506D01*
X61251185Y-66748815D01*
X61154494Y-66669463D01*
X61044180Y-66610498D01*
X60924482Y-66574188D01*
X60800000Y-66561928D01*
X59200000Y-66561928D01*
X59075518Y-66574188D01*
X58955820Y-66610498D01*
X58845506Y-66669463D01*
X58748815Y-66748815D01*
X58669463Y-66845506D01*
X58610498Y-66955820D01*
X58574188Y-67075518D01*
X58561928Y-67200000D01*
X53943675Y-67200000D01*
X53939999Y-67162679D01*
X53939999Y-65246170D01*
X54030595Y-65283696D01*
X54288514Y-65335000D01*
X54551486Y-65335000D01*
X54809405Y-65283696D01*
X55052359Y-65183061D01*
X55271013Y-65036962D01*
X55456962Y-64851013D01*
X55517775Y-64760000D01*
X56962678Y-64760000D01*
X57000000Y-64763676D01*
X57037322Y-64760000D01*
X57037333Y-64760000D01*
X57148986Y-64749003D01*
X57292247Y-64705546D01*
X57424276Y-64634974D01*
X57540001Y-64540001D01*
X57563804Y-64510997D01*
X58165000Y-63909801D01*
X58165000Y-64131486D01*
X58216304Y-64389405D01*
X58316939Y-64632359D01*
X58463038Y-64851013D01*
X58648987Y-65036962D01*
X58867641Y-65183061D01*
X59110595Y-65283696D01*
X59368514Y-65335000D01*
X59631486Y-65335000D01*
X59889405Y-65283696D01*
X60132359Y-65183061D01*
X60351013Y-65036962D01*
X60536962Y-64851013D01*
X60597775Y-64760000D01*
X63902225Y-64760000D01*
X63963038Y-64851013D01*
X64148987Y-65036962D01*
X64367641Y-65183061D01*
X64610595Y-65283696D01*
X64868514Y-65335000D01*
X65131486Y-65335000D01*
X65389405Y-65283696D01*
X65632359Y-65183061D01*
X65851013Y-65036962D01*
X66036962Y-64851013D01*
X66183061Y-64632359D01*
X66283696Y-64389405D01*
X66335000Y-64131486D01*
X66335000Y-63868514D01*
X67665000Y-63868514D01*
X67665000Y-64131486D01*
X67716304Y-64389405D01*
X67816939Y-64632359D01*
X67963038Y-64851013D01*
X68148987Y-65036962D01*
X68367641Y-65183061D01*
X68610595Y-65283696D01*
X68868514Y-65335000D01*
X69131486Y-65335000D01*
X69389405Y-65283696D01*
X69632359Y-65183061D01*
X69851013Y-65036962D01*
X70036962Y-64851013D01*
X70183061Y-64632359D01*
X70283696Y-64389405D01*
X70335000Y-64131486D01*
X70335000Y-63868514D01*
X70283696Y-63610595D01*
X70183061Y-63367641D01*
X70036962Y-63148987D01*
X69851013Y-62963038D01*
X69632359Y-62816939D01*
X69389405Y-62716304D01*
X69131486Y-62665000D01*
X68868514Y-62665000D01*
X68610595Y-62716304D01*
X68367641Y-62816939D01*
X68148987Y-62963038D01*
X67963038Y-63148987D01*
X67816939Y-63367641D01*
X67716304Y-63610595D01*
X67665000Y-63868514D01*
X66335000Y-63868514D01*
X66283696Y-63610595D01*
X66183061Y-63367641D01*
X66036962Y-63148987D01*
X65851013Y-62963038D01*
X65632359Y-62816939D01*
X65389405Y-62716304D01*
X65131486Y-62665000D01*
X64868514Y-62665000D01*
X64610595Y-62716304D01*
X64367641Y-62816939D01*
X64148987Y-62963038D01*
X63963038Y-63148987D01*
X63902225Y-63240000D01*
X60597775Y-63240000D01*
X60536962Y-63148987D01*
X60351013Y-62963038D01*
X60132359Y-62816939D01*
X59889405Y-62716304D01*
X59631486Y-62665000D01*
X59409801Y-62665000D01*
X66176114Y-55898688D01*
X66358665Y-55935000D01*
X66641335Y-55935000D01*
X66918574Y-55879853D01*
X67179727Y-55771680D01*
X67414759Y-55614637D01*
X67614637Y-55414759D01*
X67771680Y-55179727D01*
X67879853Y-54918574D01*
X67935000Y-54641335D01*
X67935000Y-54358665D01*
X67879853Y-54081426D01*
X67771680Y-53820273D01*
X67614637Y-53585241D01*
X67414759Y-53385363D01*
X67212173Y-53250000D01*
X67414759Y-53114637D01*
X67614637Y-52914759D01*
X67771680Y-52679727D01*
X67879853Y-52418574D01*
X67935000Y-52141335D01*
X67935000Y-51858665D01*
X67879853Y-51581426D01*
X67771680Y-51320273D01*
X67614637Y-51085241D01*
X67414759Y-50885363D01*
X67179727Y-50728320D01*
X66918574Y-50620147D01*
X66641335Y-50565000D01*
X66358665Y-50565000D01*
X66081426Y-50620147D01*
X65820273Y-50728320D01*
X65585241Y-50885363D01*
X65385363Y-51085241D01*
X65228320Y-51320273D01*
X65120147Y-51581426D01*
X65065000Y-51858665D01*
X65065000Y-51990198D01*
X53786649Y-40711848D01*
X53793346Y-40695679D01*
X53885000Y-40234902D01*
X53885000Y-39765098D01*
X54115000Y-39765098D01*
X54115000Y-40234902D01*
X54206654Y-40695679D01*
X54386440Y-41129721D01*
X54647450Y-41520349D01*
X54979651Y-41852550D01*
X55370279Y-42113560D01*
X55804321Y-42293346D01*
X56265098Y-42385000D01*
X56734902Y-42385000D01*
X57195679Y-42293346D01*
X57629721Y-42113560D01*
X58020349Y-41852550D01*
X58352550Y-41520349D01*
X58613560Y-41129721D01*
X58793346Y-40695679D01*
X58885000Y-40234902D01*
X58885000Y-39765098D01*
X58882062Y-39750324D01*
X58965000Y-39750324D01*
X58965000Y-40249676D01*
X59062418Y-40739432D01*
X59253512Y-41200773D01*
X59530937Y-41615968D01*
X59884032Y-41969063D01*
X60299227Y-42246488D01*
X60760568Y-42437582D01*
X61250324Y-42535000D01*
X61749676Y-42535000D01*
X62239432Y-42437582D01*
X62700773Y-42246488D01*
X63115968Y-41969063D01*
X63469063Y-41615968D01*
X63746488Y-41200773D01*
X63937582Y-40739432D01*
X64035000Y-40249676D01*
X64035000Y-39750324D01*
X63937582Y-39260568D01*
X63746488Y-38799227D01*
X63469063Y-38384032D01*
X63115968Y-38030937D01*
X62700773Y-37753512D01*
X62239432Y-37562418D01*
X61749676Y-37465000D01*
X61250324Y-37465000D01*
X60760568Y-37562418D01*
X60299227Y-37753512D01*
X59884032Y-38030937D01*
X59530937Y-38384032D01*
X59253512Y-38799227D01*
X59062418Y-39260568D01*
X58965000Y-39750324D01*
X58882062Y-39750324D01*
X58793346Y-39304321D01*
X58613560Y-38870279D01*
X58352550Y-38479651D01*
X58020349Y-38147450D01*
X57629721Y-37886440D01*
X57195679Y-37706654D01*
X56734902Y-37615000D01*
X56265098Y-37615000D01*
X55804321Y-37706654D01*
X55370279Y-37886440D01*
X54979651Y-38147450D01*
X54647450Y-38479651D01*
X54386440Y-38870279D01*
X54206654Y-39304321D01*
X54115000Y-39765098D01*
X53885000Y-39765098D01*
X53793346Y-39304321D01*
X53613560Y-38870279D01*
X53352550Y-38479651D01*
X53020349Y-38147450D01*
X52629721Y-37886440D01*
X52195679Y-37706654D01*
X51734902Y-37615000D01*
X51265098Y-37615000D01*
X50804321Y-37706654D01*
X50370279Y-37886440D01*
X49979651Y-38147450D01*
X49647450Y-38479651D01*
X49386440Y-38870279D01*
X49206654Y-39304321D01*
X49115000Y-39765098D01*
X37627000Y-39765098D01*
X37627000Y-32627000D01*
X74873000Y-32627000D01*
X74873000Y-129873000D01*
%TA.AperFunction,Conductor*%
D20*
G36*
X74873000Y-129873000D02*
G01*
X37627000Y-129873000D01*
X37627000Y-118765098D01*
X51115000Y-118765098D01*
X51115000Y-119234902D01*
X51206654Y-119695679D01*
X51386440Y-120129721D01*
X51647450Y-120520349D01*
X51979651Y-120852550D01*
X52370279Y-121113560D01*
X52804321Y-121293346D01*
X53265098Y-121385000D01*
X53734902Y-121385000D01*
X54195679Y-121293346D01*
X54629721Y-121113560D01*
X55020349Y-120852550D01*
X55352550Y-120520349D01*
X55613560Y-120129721D01*
X55793346Y-119695679D01*
X55885000Y-119234902D01*
X55885000Y-118765098D01*
X57115000Y-118765098D01*
X57115000Y-119234902D01*
X57206654Y-119695679D01*
X57386440Y-120129721D01*
X57647450Y-120520349D01*
X57979651Y-120852550D01*
X58370279Y-121113560D01*
X58804321Y-121293346D01*
X59265098Y-121385000D01*
X59734902Y-121385000D01*
X60195679Y-121293346D01*
X60629721Y-121113560D01*
X61020349Y-120852550D01*
X61352550Y-120520349D01*
X61613560Y-120129721D01*
X61793346Y-119695679D01*
X61885000Y-119234902D01*
X61885000Y-118765098D01*
X61793346Y-118304321D01*
X61613560Y-117870279D01*
X61352550Y-117479651D01*
X61020349Y-117147450D01*
X60629721Y-116886440D01*
X60195679Y-116706654D01*
X59734902Y-116615000D01*
X59265098Y-116615000D01*
X58804321Y-116706654D01*
X58370279Y-116886440D01*
X57979651Y-117147450D01*
X57647450Y-117479651D01*
X57386440Y-117870279D01*
X57206654Y-118304321D01*
X57115000Y-118765098D01*
X55885000Y-118765098D01*
X55793346Y-118304321D01*
X55613560Y-117870279D01*
X55352550Y-117479651D01*
X55020349Y-117147450D01*
X54629721Y-116886440D01*
X54195679Y-116706654D01*
X53734902Y-116615000D01*
X53265098Y-116615000D01*
X52804321Y-116706654D01*
X52370279Y-116886440D01*
X51979651Y-117147450D01*
X51647450Y-117479651D01*
X51386440Y-117870279D01*
X51206654Y-118304321D01*
X51115000Y-118765098D01*
X37627000Y-118765098D01*
X37627000Y-112358665D01*
X50065000Y-112358665D01*
X50065000Y-112641335D01*
X50120147Y-112918574D01*
X50228320Y-113179727D01*
X50385363Y-113414759D01*
X50585241Y-113614637D01*
X50820273Y-113771680D01*
X51081426Y-113879853D01*
X51358665Y-113935000D01*
X51641335Y-113935000D01*
X51918574Y-113879853D01*
X52179727Y-113771680D01*
X52414759Y-113614637D01*
X52614637Y-113414759D01*
X52750000Y-113212173D01*
X52885363Y-113414759D01*
X53085241Y-113614637D01*
X53320273Y-113771680D01*
X53581426Y-113879853D01*
X53858665Y-113935000D01*
X54141335Y-113935000D01*
X54418574Y-113879853D01*
X54679727Y-113771680D01*
X54914759Y-113614637D01*
X55114637Y-113414759D01*
X55218043Y-113260000D01*
X57822225Y-113260000D01*
X57883038Y-113351013D01*
X58068987Y-113536962D01*
X58287641Y-113683061D01*
X58530595Y-113783696D01*
X58788514Y-113835000D01*
X59051486Y-113835000D01*
X59309405Y-113783696D01*
X59552359Y-113683061D01*
X59771013Y-113536962D01*
X59956962Y-113351013D01*
X60103061Y-113132359D01*
X60203696Y-112889405D01*
X60255000Y-112631486D01*
X60255000Y-112368514D01*
X62665000Y-112368514D01*
X62665000Y-112631486D01*
X62716304Y-112889405D01*
X62816939Y-113132359D01*
X62963038Y-113351013D01*
X63148987Y-113536962D01*
X63367641Y-113683061D01*
X63610595Y-113783696D01*
X63868514Y-113835000D01*
X64131486Y-113835000D01*
X64389405Y-113783696D01*
X64632359Y-113683061D01*
X64851013Y-113536962D01*
X65036962Y-113351013D01*
X65183061Y-113132359D01*
X65283696Y-112889405D01*
X65335000Y-112631486D01*
X65335000Y-112368514D01*
X65283696Y-112110595D01*
X65183061Y-111867641D01*
X65036962Y-111648987D01*
X64851013Y-111463038D01*
X64632359Y-111316939D01*
X64389405Y-111216304D01*
X64131486Y-111165000D01*
X63868514Y-111165000D01*
X63610595Y-111216304D01*
X63367641Y-111316939D01*
X63148987Y-111463038D01*
X62963038Y-111648987D01*
X62816939Y-111867641D01*
X62716304Y-112110595D01*
X62665000Y-112368514D01*
X60255000Y-112368514D01*
X60203696Y-112110595D01*
X60103061Y-111867641D01*
X59956962Y-111648987D01*
X59771013Y-111463038D01*
X59552359Y-111316939D01*
X59309405Y-111216304D01*
X59051486Y-111165000D01*
X58788514Y-111165000D01*
X58530595Y-111216304D01*
X58287641Y-111316939D01*
X58068987Y-111463038D01*
X57883038Y-111648987D01*
X57822225Y-111740000D01*
X55218043Y-111740000D01*
X55114637Y-111585241D01*
X54914759Y-111385363D01*
X54679727Y-111228320D01*
X54418574Y-111120147D01*
X54141335Y-111065000D01*
X53858665Y-111065000D01*
X53581426Y-111120147D01*
X53320273Y-111228320D01*
X53085241Y-111385363D01*
X52885363Y-111585241D01*
X52750000Y-111787827D01*
X52614637Y-111585241D01*
X52414759Y-111385363D01*
X52179727Y-111228320D01*
X51918574Y-111120147D01*
X51641335Y-111065000D01*
X51358665Y-111065000D01*
X51081426Y-111120147D01*
X50820273Y-111228320D01*
X50585241Y-111385363D01*
X50385363Y-111585241D01*
X50228320Y-111820273D01*
X50120147Y-112081426D01*
X50065000Y-112358665D01*
X37627000Y-112358665D01*
X37627000Y-107868514D01*
X47665000Y-107868514D01*
X47665000Y-108131486D01*
X47716304Y-108389405D01*
X47816939Y-108632359D01*
X47963038Y-108851013D01*
X48148987Y-109036962D01*
X48367641Y-109183061D01*
X48610595Y-109283696D01*
X48868514Y-109335000D01*
X49131486Y-109335000D01*
X49389405Y-109283696D01*
X49632359Y-109183061D01*
X49851013Y-109036962D01*
X50036962Y-108851013D01*
X50183061Y-108632359D01*
X50283696Y-108389405D01*
X50335000Y-108131486D01*
X50335000Y-107868514D01*
X52745000Y-107868514D01*
X52745000Y-108131486D01*
X52796304Y-108389405D01*
X52896939Y-108632359D01*
X53043038Y-108851013D01*
X53228987Y-109036962D01*
X53447641Y-109183061D01*
X53690595Y-109283696D01*
X53948514Y-109335000D01*
X54211486Y-109335000D01*
X54469405Y-109283696D01*
X54712359Y-109183061D01*
X54931013Y-109036962D01*
X55116962Y-108851013D01*
X55263061Y-108632359D01*
X55363696Y-108389405D01*
X55415000Y-108131486D01*
X55415000Y-107868514D01*
X55393645Y-107761157D01*
X55419803Y-107734999D01*
X57691558Y-107734999D01*
X57665000Y-107868514D01*
X57665000Y-108131486D01*
X57716304Y-108389405D01*
X57816939Y-108632359D01*
X57963038Y-108851013D01*
X58148987Y-109036962D01*
X58367641Y-109183061D01*
X58610595Y-109283696D01*
X58868514Y-109335000D01*
X59131486Y-109335000D01*
X59389405Y-109283696D01*
X59632359Y-109183061D01*
X59851013Y-109036962D01*
X60036962Y-108851013D01*
X60183061Y-108632359D01*
X60283696Y-108389405D01*
X60335000Y-108131486D01*
X60335000Y-107868514D01*
X60308442Y-107734999D01*
X62740198Y-107734999D01*
X62766355Y-107761156D01*
X62745000Y-107868514D01*
X62745000Y-108131486D01*
X62796304Y-108389405D01*
X62896939Y-108632359D01*
X63043038Y-108851013D01*
X63228987Y-109036962D01*
X63447641Y-109183061D01*
X63690595Y-109283696D01*
X63948514Y-109335000D01*
X64211486Y-109335000D01*
X64469405Y-109283696D01*
X64712359Y-109183061D01*
X64931013Y-109036962D01*
X65116962Y-108851013D01*
X65263061Y-108632359D01*
X65363696Y-108389405D01*
X65415000Y-108131486D01*
X65415000Y-107868514D01*
X65363696Y-107610595D01*
X65263061Y-107367641D01*
X65116962Y-107148987D01*
X64931013Y-106963038D01*
X64712359Y-106816939D01*
X64469405Y-106716304D01*
X64211486Y-106665000D01*
X63948514Y-106665000D01*
X63841156Y-106686355D01*
X63760000Y-106605199D01*
X63760000Y-104218043D01*
X63914759Y-104114637D01*
X64114637Y-103914759D01*
X64271680Y-103679727D01*
X64379853Y-103418574D01*
X64435000Y-103141335D01*
X64435000Y-102858665D01*
X64379853Y-102581426D01*
X64271680Y-102320273D01*
X64114637Y-102085241D01*
X63914759Y-101885363D01*
X63679727Y-101728320D01*
X63418574Y-101620147D01*
X63141335Y-101565000D01*
X62858665Y-101565000D01*
X62581426Y-101620147D01*
X62320273Y-101728320D01*
X62085241Y-101885363D01*
X61885363Y-102085241D01*
X61750000Y-102287827D01*
X61614637Y-102085241D01*
X61414759Y-101885363D01*
X61179727Y-101728320D01*
X60918574Y-101620147D01*
X60641335Y-101565000D01*
X60358665Y-101565000D01*
X60081426Y-101620147D01*
X59820273Y-101728320D01*
X59585241Y-101885363D01*
X59385363Y-102085241D01*
X59228320Y-102320273D01*
X59120147Y-102581426D01*
X59065000Y-102858665D01*
X59065000Y-103141335D01*
X59120147Y-103418574D01*
X59228320Y-103679727D01*
X59385363Y-103914759D01*
X59585241Y-104114637D01*
X59820273Y-104271680D01*
X60081426Y-104379853D01*
X60358665Y-104435000D01*
X60641335Y-104435000D01*
X60918574Y-104379853D01*
X61179727Y-104271680D01*
X61414759Y-104114637D01*
X61614637Y-103914759D01*
X61750000Y-103712173D01*
X61885363Y-103914759D01*
X62085241Y-104114637D01*
X62240000Y-104218044D01*
X62240001Y-106214999D01*
X55142323Y-106214999D01*
X55105000Y-106211323D01*
X55067677Y-106214999D01*
X55067668Y-106214999D01*
X54956015Y-106225996D01*
X54812754Y-106269453D01*
X54680725Y-106340025D01*
X54565000Y-106434998D01*
X54541202Y-106463996D01*
X54318843Y-106686355D01*
X54211486Y-106665000D01*
X53948514Y-106665000D01*
X53690595Y-106716304D01*
X53447641Y-106816939D01*
X53228987Y-106963038D01*
X53043038Y-107148987D01*
X52896939Y-107367641D01*
X52796304Y-107610595D01*
X52745000Y-107868514D01*
X50335000Y-107868514D01*
X50283696Y-107610595D01*
X50183061Y-107367641D01*
X50036962Y-107148987D01*
X49851013Y-106963038D01*
X49632359Y-106816939D01*
X49389405Y-106716304D01*
X49131486Y-106665000D01*
X48868514Y-106665000D01*
X48610595Y-106716304D01*
X48367641Y-106816939D01*
X48148987Y-106963038D01*
X47963038Y-107148987D01*
X47816939Y-107367641D01*
X47716304Y-107610595D01*
X47665000Y-107868514D01*
X37627000Y-107868514D01*
X37627000Y-97200000D01*
X44941928Y-97200000D01*
X44941928Y-98800000D01*
X44954188Y-98924482D01*
X44990498Y-99044180D01*
X45049463Y-99154494D01*
X45128815Y-99251185D01*
X45225506Y-99330537D01*
X45335820Y-99389502D01*
X45455518Y-99425812D01*
X45580000Y-99438072D01*
X47180000Y-99438072D01*
X47304482Y-99425812D01*
X47424180Y-99389502D01*
X47534494Y-99330537D01*
X47631185Y-99251185D01*
X47710537Y-99154494D01*
X47769502Y-99044180D01*
X47805812Y-98924482D01*
X47818072Y-98800000D01*
X47818072Y-97200000D01*
X47805812Y-97075518D01*
X47769502Y-96955820D01*
X47710537Y-96845506D01*
X47631185Y-96748815D01*
X47534494Y-96669463D01*
X47424180Y-96610498D01*
X47304482Y-96574188D01*
X47180000Y-96561928D01*
X45580000Y-96561928D01*
X45455518Y-96574188D01*
X45335820Y-96610498D01*
X45225506Y-96669463D01*
X45128815Y-96748815D01*
X45049463Y-96845506D01*
X44990498Y-96955820D01*
X44954188Y-97075518D01*
X44941928Y-97200000D01*
X37627000Y-97200000D01*
X37627000Y-91368514D01*
X47665000Y-91368514D01*
X47665000Y-91631486D01*
X47716304Y-91889405D01*
X47816939Y-92132359D01*
X47963038Y-92351013D01*
X48148987Y-92536962D01*
X48367641Y-92683061D01*
X48610595Y-92783696D01*
X48868514Y-92835000D01*
X49131486Y-92835000D01*
X49389405Y-92783696D01*
X49632359Y-92683061D01*
X49851013Y-92536962D01*
X50036962Y-92351013D01*
X50183061Y-92132359D01*
X50283696Y-91889405D01*
X50335000Y-91631486D01*
X50335000Y-91368514D01*
X50283696Y-91110595D01*
X50183061Y-90867641D01*
X50036962Y-90648987D01*
X49851013Y-90463038D01*
X49632359Y-90316939D01*
X49389405Y-90216304D01*
X49131486Y-90165000D01*
X48868514Y-90165000D01*
X48610595Y-90216304D01*
X48367641Y-90316939D01*
X48148987Y-90463038D01*
X47963038Y-90648987D01*
X47816939Y-90867641D01*
X47716304Y-91110595D01*
X47665000Y-91368514D01*
X37627000Y-91368514D01*
X37627000Y-78238665D01*
X43945000Y-78238665D01*
X43945000Y-78521335D01*
X44000147Y-78798574D01*
X44108320Y-79059727D01*
X44265363Y-79294759D01*
X44465241Y-79494637D01*
X44697759Y-79650000D01*
X44465241Y-79805363D01*
X44265363Y-80005241D01*
X44108320Y-80240273D01*
X44000147Y-80501426D01*
X43945000Y-80778665D01*
X43945000Y-81061335D01*
X44000147Y-81338574D01*
X44108320Y-81599727D01*
X44265363Y-81834759D01*
X44465241Y-82034637D01*
X44697759Y-82190000D01*
X44465241Y-82345363D01*
X44265363Y-82545241D01*
X44108320Y-82780273D01*
X44000147Y-83041426D01*
X43945000Y-83318665D01*
X43945000Y-83601335D01*
X44000147Y-83878574D01*
X44108320Y-84139727D01*
X44265363Y-84374759D01*
X44465241Y-84574637D01*
X44697759Y-84730000D01*
X44465241Y-84885363D01*
X44265363Y-85085241D01*
X44108320Y-85320273D01*
X44000147Y-85581426D01*
X43945000Y-85858665D01*
X43945000Y-86141335D01*
X44000147Y-86418574D01*
X44108320Y-86679727D01*
X44265363Y-86914759D01*
X44465241Y-87114637D01*
X44700273Y-87271680D01*
X44961426Y-87379853D01*
X45238665Y-87435000D01*
X45521335Y-87435000D01*
X45798574Y-87379853D01*
X46059727Y-87271680D01*
X46294759Y-87114637D01*
X46494637Y-86914759D01*
X46651680Y-86679727D01*
X46759853Y-86418574D01*
X46815000Y-86141335D01*
X46815000Y-85858665D01*
X46759853Y-85581426D01*
X46651680Y-85320273D01*
X46494637Y-85085241D01*
X46294759Y-84885363D01*
X46062241Y-84730000D01*
X46294759Y-84574637D01*
X46494637Y-84374759D01*
X46651680Y-84139727D01*
X46759853Y-83878574D01*
X46815000Y-83601335D01*
X46815000Y-83318665D01*
X46759853Y-83041426D01*
X46651680Y-82780273D01*
X46494637Y-82545241D01*
X46294759Y-82345363D01*
X46062241Y-82190000D01*
X46294759Y-82034637D01*
X46494637Y-81834759D01*
X46651680Y-81599727D01*
X46759853Y-81338574D01*
X46815000Y-81061335D01*
X46815000Y-80778665D01*
X46759853Y-80501426D01*
X46651680Y-80240273D01*
X46494637Y-80005241D01*
X46294759Y-79805363D01*
X46062241Y-79650000D01*
X46294759Y-79494637D01*
X46494637Y-79294759D01*
X46651680Y-79059727D01*
X46759853Y-78798574D01*
X46815000Y-78521335D01*
X46815000Y-78238665D01*
X46759853Y-77961426D01*
X46651680Y-77700273D01*
X46494637Y-77465241D01*
X46294759Y-77265363D01*
X46059727Y-77108320D01*
X45798574Y-77000147D01*
X45521335Y-76945000D01*
X45238665Y-76945000D01*
X44961426Y-77000147D01*
X44700273Y-77108320D01*
X44465241Y-77265363D01*
X44265363Y-77465241D01*
X44108320Y-77700273D01*
X44000147Y-77961426D01*
X43945000Y-78238665D01*
X37627000Y-78238665D01*
X37627000Y-68868514D01*
X42665000Y-68868514D01*
X42665000Y-69131486D01*
X42716304Y-69389405D01*
X42816939Y-69632359D01*
X42963038Y-69851013D01*
X43148987Y-70036962D01*
X43367641Y-70183061D01*
X43610595Y-70283696D01*
X43868514Y-70335000D01*
X44131486Y-70335000D01*
X44389405Y-70283696D01*
X44632359Y-70183061D01*
X44851013Y-70036962D01*
X45036962Y-69851013D01*
X45183061Y-69632359D01*
X45283696Y-69389405D01*
X45335000Y-69131486D01*
X45335000Y-68948514D01*
X46665000Y-68948514D01*
X46665000Y-69211486D01*
X46716304Y-69469405D01*
X46816939Y-69712359D01*
X46963038Y-69931013D01*
X47148987Y-70116962D01*
X47367641Y-70263061D01*
X47610595Y-70363696D01*
X47868514Y-70415000D01*
X48131486Y-70415000D01*
X48389405Y-70363696D01*
X48632359Y-70263061D01*
X48851013Y-70116962D01*
X49036962Y-69931013D01*
X49183061Y-69712359D01*
X49283696Y-69469405D01*
X49335000Y-69211486D01*
X49335000Y-68948514D01*
X49283696Y-68690595D01*
X49183061Y-68447641D01*
X49036962Y-68228987D01*
X48851013Y-68043038D01*
X48632359Y-67896939D01*
X48389405Y-67796304D01*
X48131486Y-67745000D01*
X47868514Y-67745000D01*
X47610595Y-67796304D01*
X47367641Y-67896939D01*
X47148987Y-68043038D01*
X46963038Y-68228987D01*
X46816939Y-68447641D01*
X46716304Y-68690595D01*
X46665000Y-68948514D01*
X45335000Y-68948514D01*
X45335000Y-68868514D01*
X45283696Y-68610595D01*
X45183061Y-68367641D01*
X45036962Y-68148987D01*
X44851013Y-67963038D01*
X44632359Y-67816939D01*
X44389405Y-67716304D01*
X44131486Y-67665000D01*
X43868514Y-67665000D01*
X43610595Y-67716304D01*
X43367641Y-67816939D01*
X43148987Y-67963038D01*
X42963038Y-68148987D01*
X42816939Y-68367641D01*
X42716304Y-68610595D01*
X42665000Y-68868514D01*
X37627000Y-68868514D01*
X37627000Y-63788514D01*
X42665000Y-63788514D01*
X42665000Y-64051486D01*
X42716304Y-64309405D01*
X42816939Y-64552359D01*
X42963038Y-64771013D01*
X43148987Y-64956962D01*
X43367641Y-65103061D01*
X43610595Y-65203696D01*
X43868514Y-65255000D01*
X44131486Y-65255000D01*
X44389405Y-65203696D01*
X44632359Y-65103061D01*
X44851013Y-64956962D01*
X45036962Y-64771013D01*
X45183061Y-64552359D01*
X45283696Y-64309405D01*
X45335000Y-64051486D01*
X45335000Y-63868514D01*
X46665000Y-63868514D01*
X46665000Y-64131486D01*
X46716304Y-64389405D01*
X46816939Y-64632359D01*
X46963038Y-64851013D01*
X47148987Y-65036962D01*
X47367641Y-65183061D01*
X47610595Y-65283696D01*
X47868514Y-65335000D01*
X48131486Y-65335000D01*
X48389405Y-65283696D01*
X48632359Y-65183061D01*
X48851013Y-65036962D01*
X49036962Y-64851013D01*
X49183061Y-64632359D01*
X49283696Y-64389405D01*
X49335000Y-64131486D01*
X49335000Y-63868514D01*
X49283696Y-63610595D01*
X49183061Y-63367641D01*
X49036962Y-63148987D01*
X48851013Y-62963038D01*
X48632359Y-62816939D01*
X48389405Y-62716304D01*
X48131486Y-62665000D01*
X47868514Y-62665000D01*
X47610595Y-62716304D01*
X47367641Y-62816939D01*
X47148987Y-62963038D01*
X46963038Y-63148987D01*
X46816939Y-63367641D01*
X46716304Y-63610595D01*
X46665000Y-63868514D01*
X45335000Y-63868514D01*
X45335000Y-63788514D01*
X45283696Y-63530595D01*
X45183061Y-63287641D01*
X45036962Y-63068987D01*
X44851013Y-62883038D01*
X44760000Y-62822225D01*
X44760000Y-57314801D01*
X46176114Y-55898688D01*
X46358665Y-55935000D01*
X46641335Y-55935000D01*
X46918574Y-55879853D01*
X47179727Y-55771680D01*
X47414759Y-55614637D01*
X47614637Y-55414759D01*
X47771680Y-55179727D01*
X47879853Y-54918574D01*
X47935000Y-54641335D01*
X47935000Y-54358665D01*
X47879853Y-54081426D01*
X47771680Y-53820273D01*
X47614637Y-53585241D01*
X47414759Y-53385363D01*
X47212173Y-53250000D01*
X47414759Y-53114637D01*
X47614637Y-52914759D01*
X47771680Y-52679727D01*
X47879853Y-52418574D01*
X47935000Y-52141335D01*
X47935000Y-51858665D01*
X47879853Y-51581426D01*
X47771680Y-51320273D01*
X47614637Y-51085241D01*
X47414759Y-50885363D01*
X47179727Y-50728320D01*
X46918574Y-50620147D01*
X46641335Y-50565000D01*
X46358665Y-50565000D01*
X46081426Y-50620147D01*
X45820273Y-50728320D01*
X45585241Y-50885363D01*
X45385363Y-51085241D01*
X45228320Y-51320273D01*
X45120147Y-51581426D01*
X45065000Y-51858665D01*
X45065000Y-52141335D01*
X45120147Y-52418574D01*
X45228320Y-52679727D01*
X45385363Y-52914759D01*
X45585241Y-53114637D01*
X45787827Y-53250000D01*
X45585241Y-53385363D01*
X45385363Y-53585241D01*
X45228320Y-53820273D01*
X45120147Y-54081426D01*
X45065000Y-54358665D01*
X45065000Y-54641335D01*
X45101312Y-54823886D01*
X43488998Y-56436201D01*
X43460000Y-56459999D01*
X43436202Y-56488997D01*
X43436201Y-56488998D01*
X43365026Y-56575724D01*
X43294454Y-56707754D01*
X43250998Y-56851015D01*
X43236324Y-57000000D01*
X43240001Y-57037332D01*
X43240000Y-62822225D01*
X43148987Y-62883038D01*
X42963038Y-63068987D01*
X42816939Y-63287641D01*
X42716304Y-63530595D01*
X42665000Y-63788514D01*
X37627000Y-63788514D01*
X37627000Y-39765098D01*
X49115000Y-39765098D01*
X49115000Y-40234902D01*
X49206654Y-40695679D01*
X49386440Y-41129721D01*
X49647450Y-41520349D01*
X49979651Y-41852550D01*
X50370279Y-42113560D01*
X50804321Y-42293346D01*
X51265098Y-42385000D01*
X51734902Y-42385000D01*
X52195679Y-42293346D01*
X52629721Y-42113560D01*
X52874921Y-41949722D01*
X61490198Y-50565000D01*
X61358665Y-50565000D01*
X61081426Y-50620147D01*
X60820273Y-50728320D01*
X60585241Y-50885363D01*
X60385363Y-51085241D01*
X60228320Y-51320273D01*
X60120147Y-51581426D01*
X60065000Y-51858665D01*
X60065000Y-52141335D01*
X60120147Y-52418574D01*
X60228320Y-52679727D01*
X60385363Y-52914759D01*
X60585241Y-53114637D01*
X60787827Y-53250000D01*
X60585241Y-53385363D01*
X60385363Y-53585241D01*
X60228320Y-53820273D01*
X60120147Y-54081426D01*
X60065000Y-54358665D01*
X60065000Y-54641335D01*
X60120147Y-54918574D01*
X60228320Y-55179727D01*
X60385363Y-55414759D01*
X60585241Y-55614637D01*
X60820273Y-55771680D01*
X61081426Y-55879853D01*
X61358665Y-55935000D01*
X61641335Y-55935000D01*
X61918574Y-55879853D01*
X62179727Y-55771680D01*
X62414759Y-55614637D01*
X62614637Y-55414759D01*
X62771680Y-55179727D01*
X62879853Y-54918574D01*
X62935000Y-54641335D01*
X62935000Y-54358665D01*
X62879853Y-54081426D01*
X62771680Y-53820273D01*
X62614637Y-53585241D01*
X62414759Y-53385363D01*
X62212173Y-53250000D01*
X62414759Y-53114637D01*
X62614637Y-52914759D01*
X62771680Y-52679727D01*
X62879853Y-52418574D01*
X62935000Y-52141335D01*
X62935000Y-52009802D01*
X65101312Y-54176114D01*
X65065000Y-54358665D01*
X65065000Y-54641335D01*
X65101312Y-54823886D01*
X56685199Y-63240000D01*
X55517775Y-63240000D01*
X55456962Y-63148987D01*
X55271013Y-62963038D01*
X55052359Y-62816939D01*
X54809405Y-62716304D01*
X54551486Y-62665000D01*
X54288514Y-62665000D01*
X54030595Y-62716304D01*
X53939999Y-62753830D01*
X53939999Y-53717321D01*
X53943675Y-53679998D01*
X53939999Y-53642675D01*
X53939999Y-53642666D01*
X53929002Y-53531013D01*
X53885545Y-53387752D01*
X53814973Y-53255723D01*
X53720000Y-53139998D01*
X53691002Y-53116200D01*
X52898688Y-52323886D01*
X52935000Y-52141335D01*
X52935000Y-51858665D01*
X55065000Y-51858665D01*
X55065000Y-52141335D01*
X55120147Y-52418574D01*
X55228320Y-52679727D01*
X55385363Y-52914759D01*
X55585241Y-53114637D01*
X55787827Y-53250000D01*
X55585241Y-53385363D01*
X55385363Y-53585241D01*
X55228320Y-53820273D01*
X55120147Y-54081426D01*
X55065000Y-54358665D01*
X55065000Y-54641335D01*
X55120147Y-54918574D01*
X55228320Y-55179727D01*
X55385363Y-55414759D01*
X55585241Y-55614637D01*
X55820273Y-55771680D01*
X56081426Y-55879853D01*
X56358665Y-55935000D01*
X56641335Y-55935000D01*
X56918574Y-55879853D01*
X57179727Y-55771680D01*
X57414759Y-55614637D01*
X57614637Y-55414759D01*
X57771680Y-55179727D01*
X57879853Y-54918574D01*
X57935000Y-54641335D01*
X57935000Y-54358665D01*
X57879853Y-54081426D01*
X57771680Y-53820273D01*
X57614637Y-53585241D01*
X57414759Y-53385363D01*
X57212173Y-53250000D01*
X57414759Y-53114637D01*
X57614637Y-52914759D01*
X57771680Y-52679727D01*
X57879853Y-52418574D01*
X57935000Y-52141335D01*
X57935000Y-51858665D01*
X57879853Y-51581426D01*
X57771680Y-51320273D01*
X57614637Y-51085241D01*
X57414759Y-50885363D01*
X57179727Y-50728320D01*
X56918574Y-50620147D01*
X56641335Y-50565000D01*
X56358665Y-50565000D01*
X56081426Y-50620147D01*
X55820273Y-50728320D01*
X55585241Y-50885363D01*
X55385363Y-51085241D01*
X55228320Y-51320273D01*
X55120147Y-51581426D01*
X55065000Y-51858665D01*
X52935000Y-51858665D01*
X52879853Y-51581426D01*
X52771680Y-51320273D01*
X52614637Y-51085241D01*
X52414759Y-50885363D01*
X52179727Y-50728320D01*
X51918574Y-50620147D01*
X51641335Y-50565000D01*
X51358665Y-50565000D01*
X51081426Y-50620147D01*
X50820273Y-50728320D01*
X50585241Y-50885363D01*
X50385363Y-51085241D01*
X50228320Y-51320273D01*
X50120147Y-51581426D01*
X50065000Y-51858665D01*
X50065000Y-52141335D01*
X50120147Y-52418574D01*
X50228320Y-52679727D01*
X50385363Y-52914759D01*
X50585241Y-53114637D01*
X50787827Y-53250000D01*
X50585241Y-53385363D01*
X50385363Y-53585241D01*
X50228320Y-53820273D01*
X50120147Y-54081426D01*
X50065000Y-54358665D01*
X50065000Y-54641335D01*
X50120147Y-54918574D01*
X50228320Y-55179727D01*
X50385363Y-55414759D01*
X50585241Y-55614637D01*
X50820273Y-55771680D01*
X51081426Y-55879853D01*
X51358665Y-55935000D01*
X51641335Y-55935000D01*
X51918574Y-55879853D01*
X52179727Y-55771680D01*
X52414759Y-55614637D01*
X52420000Y-55609396D01*
X52419999Y-66565000D01*
X52238665Y-66565000D01*
X51961426Y-66620147D01*
X51700273Y-66728320D01*
X51465241Y-66885363D01*
X51265363Y-67085241D01*
X51108320Y-67320273D01*
X51000147Y-67581426D01*
X50945000Y-67858665D01*
X50945000Y-68141335D01*
X51000147Y-68418574D01*
X51108320Y-68679727D01*
X51265363Y-68914759D01*
X51440002Y-69089398D01*
X51440001Y-77542679D01*
X51436325Y-77580001D01*
X51440001Y-77617323D01*
X51440001Y-77617333D01*
X51450998Y-77728986D01*
X51477454Y-77816201D01*
X51494455Y-77872247D01*
X51565027Y-78004277D01*
X51602533Y-78049977D01*
X51565000Y-78238665D01*
X51565000Y-78521335D01*
X51620147Y-78798574D01*
X51728320Y-79059727D01*
X51885363Y-79294759D01*
X52085241Y-79494637D01*
X52317759Y-79650000D01*
X52085241Y-79805363D01*
X51885363Y-80005241D01*
X51728320Y-80240273D01*
X51620147Y-80501426D01*
X51565000Y-80778665D01*
X51565000Y-81061335D01*
X51620147Y-81338574D01*
X51728320Y-81599727D01*
X51885363Y-81834759D01*
X52085241Y-82034637D01*
X52317759Y-82190000D01*
X52085241Y-82345363D01*
X51885363Y-82545241D01*
X51728320Y-82780273D01*
X51620147Y-83041426D01*
X51565000Y-83318665D01*
X51565000Y-83601335D01*
X51620147Y-83878574D01*
X51728320Y-84139727D01*
X51885363Y-84374759D01*
X52083961Y-84573357D01*
X52075518Y-84574188D01*
X51955820Y-84610498D01*
X51845506Y-84669463D01*
X51748815Y-84748815D01*
X51669463Y-84845506D01*
X51610498Y-84955820D01*
X51574188Y-85075518D01*
X51561928Y-85200000D01*
X51561928Y-86800000D01*
X51574188Y-86924482D01*
X51610498Y-87044180D01*
X51669463Y-87154494D01*
X51748815Y-87251185D01*
X51845506Y-87330537D01*
X51955820Y-87389502D01*
X52075518Y-87425812D01*
X52200000Y-87438072D01*
X53365001Y-87438072D01*
X53365002Y-90372156D01*
X53228987Y-90463038D01*
X53043038Y-90648987D01*
X52896939Y-90867641D01*
X52796304Y-91110595D01*
X52745000Y-91368514D01*
X52745000Y-91631486D01*
X52796304Y-91889405D01*
X52896939Y-92132359D01*
X53043038Y-92351013D01*
X53228987Y-92536962D01*
X53447641Y-92683061D01*
X53690595Y-92783696D01*
X53948514Y-92835000D01*
X54211486Y-92835000D01*
X54345002Y-92808442D01*
X54345002Y-96580195D01*
X54323885Y-96601312D01*
X54141335Y-96565000D01*
X53858665Y-96565000D01*
X53581426Y-96620147D01*
X53320273Y-96728320D01*
X53085241Y-96885363D01*
X52885363Y-97085241D01*
X52728320Y-97320273D01*
X52620147Y-97581426D01*
X52565000Y-97858665D01*
X52565000Y-98141335D01*
X52620147Y-98418574D01*
X52728320Y-98679727D01*
X52885363Y-98914759D01*
X53085241Y-99114637D01*
X53320273Y-99271680D01*
X53581426Y-99379853D01*
X53858665Y-99435000D01*
X54141335Y-99435000D01*
X54418574Y-99379853D01*
X54679727Y-99271680D01*
X54914759Y-99114637D01*
X55114637Y-98914759D01*
X55218043Y-98760000D01*
X57561928Y-98760000D01*
X57561928Y-98800000D01*
X57574188Y-98924482D01*
X57610498Y-99044180D01*
X57669463Y-99154494D01*
X57748815Y-99251185D01*
X57845506Y-99330537D01*
X57955820Y-99389502D01*
X58075518Y-99425812D01*
X58200000Y-99438072D01*
X59800000Y-99438072D01*
X59924482Y-99425812D01*
X60044180Y-99389502D01*
X60154494Y-99330537D01*
X60251185Y-99251185D01*
X60330537Y-99154494D01*
X60389502Y-99044180D01*
X60425812Y-98924482D01*
X60438072Y-98800000D01*
X60438072Y-97858665D01*
X65185000Y-97858665D01*
X65185000Y-98141335D01*
X65240147Y-98418574D01*
X65348320Y-98679727D01*
X65505363Y-98914759D01*
X65705241Y-99114637D01*
X65940273Y-99271680D01*
X66201426Y-99379853D01*
X66478665Y-99435000D01*
X66761335Y-99435000D01*
X67038574Y-99379853D01*
X67299727Y-99271680D01*
X67534759Y-99114637D01*
X67734637Y-98914759D01*
X67891680Y-98679727D01*
X67999853Y-98418574D01*
X68055000Y-98141335D01*
X68055000Y-97858665D01*
X67999853Y-97581426D01*
X67891680Y-97320273D01*
X67734637Y-97085241D01*
X67534759Y-96885363D01*
X67299727Y-96728320D01*
X67038574Y-96620147D01*
X66761335Y-96565000D01*
X66478665Y-96565000D01*
X66201426Y-96620147D01*
X65940273Y-96728320D01*
X65705241Y-96885363D01*
X65505363Y-97085241D01*
X65348320Y-97320273D01*
X65240147Y-97581426D01*
X65185000Y-97858665D01*
X60438072Y-97858665D01*
X60438072Y-97200000D01*
X60425812Y-97075518D01*
X60389502Y-96955820D01*
X60330537Y-96845506D01*
X60251185Y-96748815D01*
X60154494Y-96669463D01*
X60044180Y-96610498D01*
X59924482Y-96574188D01*
X59800000Y-96561928D01*
X58200000Y-96561928D01*
X58075518Y-96574188D01*
X57955820Y-96610498D01*
X57845506Y-96669463D01*
X57748815Y-96748815D01*
X57669463Y-96845506D01*
X57610498Y-96955820D01*
X57574188Y-97075518D01*
X57561928Y-97200000D01*
X57561928Y-97240000D01*
X55782349Y-97240000D01*
X55810547Y-97187246D01*
X55854004Y-97043985D01*
X55865001Y-96932332D01*
X55865001Y-96932323D01*
X55868677Y-96895000D01*
X55865001Y-96857677D01*
X55865001Y-91358665D01*
X59565000Y-91358665D01*
X59565000Y-91641335D01*
X59620147Y-91918574D01*
X59728320Y-92179727D01*
X59885363Y-92414759D01*
X60085241Y-92614637D01*
X60320273Y-92771680D01*
X60581426Y-92879853D01*
X60858665Y-92935000D01*
X61141335Y-92935000D01*
X61418574Y-92879853D01*
X61679727Y-92771680D01*
X61914759Y-92614637D01*
X62114637Y-92414759D01*
X62250000Y-92212173D01*
X62385363Y-92414759D01*
X62585241Y-92614637D01*
X62820273Y-92771680D01*
X63081426Y-92879853D01*
X63358665Y-92935000D01*
X63641335Y-92935000D01*
X63918574Y-92879853D01*
X64179727Y-92771680D01*
X64414759Y-92614637D01*
X64614637Y-92414759D01*
X64771680Y-92179727D01*
X64879853Y-91918574D01*
X64935000Y-91641335D01*
X64935000Y-91358665D01*
X64879853Y-91081426D01*
X64771680Y-90820273D01*
X64614637Y-90585241D01*
X64414759Y-90385363D01*
X64179727Y-90228320D01*
X63918574Y-90120147D01*
X63641335Y-90065000D01*
X63358665Y-90065000D01*
X63081426Y-90120147D01*
X62820273Y-90228320D01*
X62585241Y-90385363D01*
X62385363Y-90585241D01*
X62250000Y-90787827D01*
X62114637Y-90585241D01*
X61914759Y-90385363D01*
X61679727Y-90228320D01*
X61418574Y-90120147D01*
X61141335Y-90065000D01*
X60858665Y-90065000D01*
X60581426Y-90120147D01*
X60320273Y-90228320D01*
X60085241Y-90385363D01*
X59885363Y-90585241D01*
X59728320Y-90820273D01*
X59620147Y-91081426D01*
X59565000Y-91358665D01*
X55865001Y-91358665D01*
X55865001Y-83062324D01*
X55868677Y-83025001D01*
X55865001Y-82987678D01*
X55865001Y-82987668D01*
X55854004Y-82876015D01*
X55810547Y-82732754D01*
X55798918Y-82710998D01*
X55739975Y-82600724D01*
X55668800Y-82513998D01*
X55645002Y-82485000D01*
X55616005Y-82461203D01*
X54398688Y-81243886D01*
X54435000Y-81061335D01*
X54435000Y-80778665D01*
X54379853Y-80501426D01*
X54281923Y-80265001D01*
X58598077Y-80265001D01*
X58500147Y-80501426D01*
X58445000Y-80778665D01*
X58445000Y-81061335D01*
X58500147Y-81338574D01*
X58608320Y-81599727D01*
X58765363Y-81834759D01*
X58965241Y-82034637D01*
X59197759Y-82190000D01*
X58965241Y-82345363D01*
X58765363Y-82545241D01*
X58608320Y-82780273D01*
X58500147Y-83041426D01*
X58445000Y-83318665D01*
X58445000Y-83601335D01*
X58500147Y-83878574D01*
X58608320Y-84139727D01*
X58765363Y-84374759D01*
X58965241Y-84574637D01*
X59197759Y-84730000D01*
X58965241Y-84885363D01*
X58765363Y-85085241D01*
X58608320Y-85320273D01*
X58500147Y-85581426D01*
X58445000Y-85858665D01*
X58445000Y-86141335D01*
X58500147Y-86418574D01*
X58608320Y-86679727D01*
X58765363Y-86914759D01*
X58965241Y-87114637D01*
X59200273Y-87271680D01*
X59461426Y-87379853D01*
X59738665Y-87435000D01*
X60021335Y-87435000D01*
X60298574Y-87379853D01*
X60559727Y-87271680D01*
X60794759Y-87114637D01*
X60994637Y-86914759D01*
X61151680Y-86679727D01*
X61259853Y-86418574D01*
X61315000Y-86141335D01*
X61315000Y-85858665D01*
X61259853Y-85581426D01*
X61151680Y-85320273D01*
X60994637Y-85085241D01*
X60794759Y-84885363D01*
X60562241Y-84730000D01*
X60794759Y-84574637D01*
X60994637Y-84374759D01*
X61151680Y-84139727D01*
X61259853Y-83878574D01*
X61315000Y-83601335D01*
X61315000Y-83318665D01*
X61270766Y-83096288D01*
X61294999Y-83098675D01*
X61332324Y-83094999D01*
X66060198Y-83094999D01*
X66101312Y-83136113D01*
X66065000Y-83318665D01*
X66065000Y-83601335D01*
X66120147Y-83878574D01*
X66228320Y-84139727D01*
X66385363Y-84374759D01*
X66583961Y-84573357D01*
X66575518Y-84574188D01*
X66455820Y-84610498D01*
X66345506Y-84669463D01*
X66248815Y-84748815D01*
X66169463Y-84845506D01*
X66110498Y-84955820D01*
X66074188Y-85075518D01*
X66061928Y-85200000D01*
X66061928Y-86800000D01*
X66074188Y-86924482D01*
X66110498Y-87044180D01*
X66169463Y-87154494D01*
X66248815Y-87251185D01*
X66345506Y-87330537D01*
X66455820Y-87389502D01*
X66575518Y-87425812D01*
X66700000Y-87438072D01*
X68300000Y-87438072D01*
X68424482Y-87425812D01*
X68544180Y-87389502D01*
X68654494Y-87330537D01*
X68751185Y-87251185D01*
X68830537Y-87154494D01*
X68889502Y-87044180D01*
X68925812Y-86924482D01*
X68938072Y-86800000D01*
X68938072Y-85200000D01*
X68925812Y-85075518D01*
X68889502Y-84955820D01*
X68830537Y-84845506D01*
X68751185Y-84748815D01*
X68654494Y-84669463D01*
X68544180Y-84610498D01*
X68424482Y-84574188D01*
X68416039Y-84573357D01*
X68614637Y-84374759D01*
X68771680Y-84139727D01*
X68879853Y-83878574D01*
X68935000Y-83601335D01*
X68935000Y-83318665D01*
X68879853Y-83041426D01*
X68771680Y-82780273D01*
X68614637Y-82545241D01*
X68414759Y-82345363D01*
X68182241Y-82190000D01*
X68414759Y-82034637D01*
X68614637Y-81834759D01*
X68771680Y-81599727D01*
X68879853Y-81338574D01*
X68935000Y-81061335D01*
X68935000Y-80778665D01*
X68898688Y-80596114D01*
X69136005Y-80358797D01*
X69165002Y-80335000D01*
X69259975Y-80219275D01*
X69330547Y-80087246D01*
X69374004Y-79943985D01*
X69385001Y-79832332D01*
X69385001Y-79832324D01*
X69388677Y-79794999D01*
X69385001Y-79757674D01*
X69385001Y-77877321D01*
X69388677Y-77839998D01*
X69385001Y-77802675D01*
X69385001Y-77802666D01*
X69374004Y-77691013D01*
X69330547Y-77547752D01*
X69259975Y-77415723D01*
X69165002Y-77299998D01*
X69136004Y-77276200D01*
X63873807Y-72014004D01*
X63850004Y-71985000D01*
X63734279Y-71890027D01*
X63602250Y-71819455D01*
X63458989Y-71775998D01*
X63347336Y-71765001D01*
X63347325Y-71765001D01*
X63310003Y-71761325D01*
X63272681Y-71765001D01*
X60388442Y-71765001D01*
X60415000Y-71631486D01*
X60415000Y-71368514D01*
X60363696Y-71110595D01*
X60263061Y-70867641D01*
X60116962Y-70648987D01*
X59931013Y-70463038D01*
X59712359Y-70316939D01*
X59469405Y-70216304D01*
X59211486Y-70165000D01*
X58948514Y-70165000D01*
X58690595Y-70216304D01*
X58447641Y-70316939D01*
X58228987Y-70463038D01*
X58043038Y-70648987D01*
X57896939Y-70867641D01*
X57796304Y-71110595D01*
X57745000Y-71368514D01*
X57745000Y-71631486D01*
X57771558Y-71765001D01*
X55339803Y-71765001D01*
X55313645Y-71738843D01*
X55335000Y-71631486D01*
X55335000Y-71368514D01*
X55283696Y-71110595D01*
X55183061Y-70867641D01*
X55036962Y-70648987D01*
X54851013Y-70463038D01*
X54632359Y-70316939D01*
X54389405Y-70216304D01*
X54131486Y-70165000D01*
X53868514Y-70165000D01*
X53610595Y-70216304D01*
X53367641Y-70316939D01*
X53148987Y-70463038D01*
X52963038Y-70648987D01*
X52960001Y-70653532D01*
X52960001Y-69312988D01*
X53059727Y-69271680D01*
X53294759Y-69114637D01*
X53494637Y-68914759D01*
X53651680Y-68679727D01*
X53759853Y-68418574D01*
X53815000Y-68141335D01*
X53815000Y-67858665D01*
X53777467Y-67669978D01*
X53814972Y-67624278D01*
X53814973Y-67624277D01*
X53885545Y-67492248D01*
X53929002Y-67348987D01*
X53939999Y-67237334D01*
X53939999Y-67237325D01*
X53943675Y-67200002D01*
X53943675Y-67200000D01*
X58561928Y-67200000D01*
X58561928Y-68800000D01*
X58574188Y-68924482D01*
X58610498Y-69044180D01*
X58669463Y-69154494D01*
X58748815Y-69251185D01*
X58845506Y-69330537D01*
X58955820Y-69389502D01*
X59075518Y-69425812D01*
X59200000Y-69438072D01*
X60800000Y-69438072D01*
X60924482Y-69425812D01*
X61044180Y-69389502D01*
X61154494Y-69330537D01*
X61251185Y-69251185D01*
X61330537Y-69154494D01*
X61389502Y-69044180D01*
X61418521Y-68948514D01*
X63665000Y-68948514D01*
X63665000Y-69211486D01*
X63716304Y-69469405D01*
X63816939Y-69712359D01*
X63963038Y-69931013D01*
X64148987Y-70116962D01*
X64367641Y-70263061D01*
X64610595Y-70363696D01*
X64868514Y-70415000D01*
X65131486Y-70415000D01*
X65389405Y-70363696D01*
X65632359Y-70263061D01*
X65851013Y-70116962D01*
X66036962Y-69931013D01*
X66183061Y-69712359D01*
X66283696Y-69469405D01*
X66335000Y-69211486D01*
X66335000Y-68948514D01*
X67665000Y-68948514D01*
X67665000Y-69211486D01*
X67716304Y-69469405D01*
X67816939Y-69712359D01*
X67963038Y-69931013D01*
X68148987Y-70116962D01*
X68367641Y-70263061D01*
X68610595Y-70363696D01*
X68868514Y-70415000D01*
X69131486Y-70415000D01*
X69389405Y-70363696D01*
X69632359Y-70263061D01*
X69851013Y-70116962D01*
X70036962Y-69931013D01*
X70183061Y-69712359D01*
X70283696Y-69469405D01*
X70335000Y-69211486D01*
X70335000Y-68948514D01*
X70283696Y-68690595D01*
X70183061Y-68447641D01*
X70036962Y-68228987D01*
X69851013Y-68043038D01*
X69632359Y-67896939D01*
X69389405Y-67796304D01*
X69131486Y-67745000D01*
X68868514Y-67745000D01*
X68610595Y-67796304D01*
X68367641Y-67896939D01*
X68148987Y-68043038D01*
X67963038Y-68228987D01*
X67816939Y-68447641D01*
X67716304Y-68690595D01*
X67665000Y-68948514D01*
X66335000Y-68948514D01*
X66283696Y-68690595D01*
X66183061Y-68447641D01*
X66036962Y-68228987D01*
X65851013Y-68043038D01*
X65632359Y-67896939D01*
X65389405Y-67796304D01*
X65131486Y-67745000D01*
X64868514Y-67745000D01*
X64610595Y-67796304D01*
X64367641Y-67896939D01*
X64148987Y-68043038D01*
X63963038Y-68228987D01*
X63816939Y-68447641D01*
X63716304Y-68690595D01*
X63665000Y-68948514D01*
X61418521Y-68948514D01*
X61425812Y-68924482D01*
X61438072Y-68800000D01*
X61438072Y-67200000D01*
X61425812Y-67075518D01*
X61389502Y-66955820D01*
X61330537Y-66845506D01*
X61251185Y-66748815D01*
X61154494Y-66669463D01*
X61044180Y-66610498D01*
X60924482Y-66574188D01*
X60800000Y-66561928D01*
X59200000Y-66561928D01*
X59075518Y-66574188D01*
X58955820Y-66610498D01*
X58845506Y-66669463D01*
X58748815Y-66748815D01*
X58669463Y-66845506D01*
X58610498Y-66955820D01*
X58574188Y-67075518D01*
X58561928Y-67200000D01*
X53943675Y-67200000D01*
X53939999Y-67162679D01*
X53939999Y-65246170D01*
X54030595Y-65283696D01*
X54288514Y-65335000D01*
X54551486Y-65335000D01*
X54809405Y-65283696D01*
X55052359Y-65183061D01*
X55271013Y-65036962D01*
X55456962Y-64851013D01*
X55517775Y-64760000D01*
X56962678Y-64760000D01*
X57000000Y-64763676D01*
X57037322Y-64760000D01*
X57037333Y-64760000D01*
X57148986Y-64749003D01*
X57292247Y-64705546D01*
X57424276Y-64634974D01*
X57540001Y-64540001D01*
X57563804Y-64510997D01*
X58165000Y-63909801D01*
X58165000Y-64131486D01*
X58216304Y-64389405D01*
X58316939Y-64632359D01*
X58463038Y-64851013D01*
X58648987Y-65036962D01*
X58867641Y-65183061D01*
X59110595Y-65283696D01*
X59368514Y-65335000D01*
X59631486Y-65335000D01*
X59889405Y-65283696D01*
X60132359Y-65183061D01*
X60351013Y-65036962D01*
X60536962Y-64851013D01*
X60597775Y-64760000D01*
X63902225Y-64760000D01*
X63963038Y-64851013D01*
X64148987Y-65036962D01*
X64367641Y-65183061D01*
X64610595Y-65283696D01*
X64868514Y-65335000D01*
X65131486Y-65335000D01*
X65389405Y-65283696D01*
X65632359Y-65183061D01*
X65851013Y-65036962D01*
X66036962Y-64851013D01*
X66183061Y-64632359D01*
X66283696Y-64389405D01*
X66335000Y-64131486D01*
X66335000Y-63868514D01*
X67665000Y-63868514D01*
X67665000Y-64131486D01*
X67716304Y-64389405D01*
X67816939Y-64632359D01*
X67963038Y-64851013D01*
X68148987Y-65036962D01*
X68367641Y-65183061D01*
X68610595Y-65283696D01*
X68868514Y-65335000D01*
X69131486Y-65335000D01*
X69389405Y-65283696D01*
X69632359Y-65183061D01*
X69851013Y-65036962D01*
X70036962Y-64851013D01*
X70183061Y-64632359D01*
X70283696Y-64389405D01*
X70335000Y-64131486D01*
X70335000Y-63868514D01*
X70283696Y-63610595D01*
X70183061Y-63367641D01*
X70036962Y-63148987D01*
X69851013Y-62963038D01*
X69632359Y-62816939D01*
X69389405Y-62716304D01*
X69131486Y-62665000D01*
X68868514Y-62665000D01*
X68610595Y-62716304D01*
X68367641Y-62816939D01*
X68148987Y-62963038D01*
X67963038Y-63148987D01*
X67816939Y-63367641D01*
X67716304Y-63610595D01*
X67665000Y-63868514D01*
X66335000Y-63868514D01*
X66283696Y-63610595D01*
X66183061Y-63367641D01*
X66036962Y-63148987D01*
X65851013Y-62963038D01*
X65632359Y-62816939D01*
X65389405Y-62716304D01*
X65131486Y-62665000D01*
X64868514Y-62665000D01*
X64610595Y-62716304D01*
X64367641Y-62816939D01*
X64148987Y-62963038D01*
X63963038Y-63148987D01*
X63902225Y-63240000D01*
X60597775Y-63240000D01*
X60536962Y-63148987D01*
X60351013Y-62963038D01*
X60132359Y-62816939D01*
X59889405Y-62716304D01*
X59631486Y-62665000D01*
X59409801Y-62665000D01*
X66176114Y-55898688D01*
X66358665Y-55935000D01*
X66641335Y-55935000D01*
X66918574Y-55879853D01*
X67179727Y-55771680D01*
X67414759Y-55614637D01*
X67614637Y-55414759D01*
X67771680Y-55179727D01*
X67879853Y-54918574D01*
X67935000Y-54641335D01*
X67935000Y-54358665D01*
X67879853Y-54081426D01*
X67771680Y-53820273D01*
X67614637Y-53585241D01*
X67414759Y-53385363D01*
X67212173Y-53250000D01*
X67414759Y-53114637D01*
X67614637Y-52914759D01*
X67771680Y-52679727D01*
X67879853Y-52418574D01*
X67935000Y-52141335D01*
X67935000Y-51858665D01*
X67879853Y-51581426D01*
X67771680Y-51320273D01*
X67614637Y-51085241D01*
X67414759Y-50885363D01*
X67179727Y-50728320D01*
X66918574Y-50620147D01*
X66641335Y-50565000D01*
X66358665Y-50565000D01*
X66081426Y-50620147D01*
X65820273Y-50728320D01*
X65585241Y-50885363D01*
X65385363Y-51085241D01*
X65228320Y-51320273D01*
X65120147Y-51581426D01*
X65065000Y-51858665D01*
X65065000Y-51990198D01*
X53786649Y-40711848D01*
X53793346Y-40695679D01*
X53885000Y-40234902D01*
X53885000Y-39765098D01*
X54115000Y-39765098D01*
X54115000Y-40234902D01*
X54206654Y-40695679D01*
X54386440Y-41129721D01*
X54647450Y-41520349D01*
X54979651Y-41852550D01*
X55370279Y-42113560D01*
X55804321Y-42293346D01*
X56265098Y-42385000D01*
X56734902Y-42385000D01*
X57195679Y-42293346D01*
X57629721Y-42113560D01*
X58020349Y-41852550D01*
X58352550Y-41520349D01*
X58613560Y-41129721D01*
X58793346Y-40695679D01*
X58885000Y-40234902D01*
X58885000Y-39765098D01*
X58882062Y-39750324D01*
X58965000Y-39750324D01*
X58965000Y-40249676D01*
X59062418Y-40739432D01*
X59253512Y-41200773D01*
X59530937Y-41615968D01*
X59884032Y-41969063D01*
X60299227Y-42246488D01*
X60760568Y-42437582D01*
X61250324Y-42535000D01*
X61749676Y-42535000D01*
X62239432Y-42437582D01*
X62700773Y-42246488D01*
X63115968Y-41969063D01*
X63469063Y-41615968D01*
X63746488Y-41200773D01*
X63937582Y-40739432D01*
X64035000Y-40249676D01*
X64035000Y-39750324D01*
X63937582Y-39260568D01*
X63746488Y-38799227D01*
X63469063Y-38384032D01*
X63115968Y-38030937D01*
X62700773Y-37753512D01*
X62239432Y-37562418D01*
X61749676Y-37465000D01*
X61250324Y-37465000D01*
X60760568Y-37562418D01*
X60299227Y-37753512D01*
X59884032Y-38030937D01*
X59530937Y-38384032D01*
X59253512Y-38799227D01*
X59062418Y-39260568D01*
X58965000Y-39750324D01*
X58882062Y-39750324D01*
X58793346Y-39304321D01*
X58613560Y-38870279D01*
X58352550Y-38479651D01*
X58020349Y-38147450D01*
X57629721Y-37886440D01*
X57195679Y-37706654D01*
X56734902Y-37615000D01*
X56265098Y-37615000D01*
X55804321Y-37706654D01*
X55370279Y-37886440D01*
X54979651Y-38147450D01*
X54647450Y-38479651D01*
X54386440Y-38870279D01*
X54206654Y-39304321D01*
X54115000Y-39765098D01*
X53885000Y-39765098D01*
X53793346Y-39304321D01*
X53613560Y-38870279D01*
X53352550Y-38479651D01*
X53020349Y-38147450D01*
X52629721Y-37886440D01*
X52195679Y-37706654D01*
X51734902Y-37615000D01*
X51265098Y-37615000D01*
X50804321Y-37706654D01*
X50370279Y-37886440D01*
X49979651Y-38147450D01*
X49647450Y-38479651D01*
X49386440Y-38870279D01*
X49206654Y-39304321D01*
X49115000Y-39765098D01*
X37627000Y-39765098D01*
X37627000Y-32627000D01*
X74873000Y-32627000D01*
X74873000Y-129873000D01*
G37*
%TD.AperFunction*%
D19*
X66120147Y-80501426D02*
X66065000Y-80778665D01*
X66065000Y-81061335D01*
X66120147Y-81338574D01*
X66218077Y-81574999D01*
X61609801Y-81574999D01*
X61278688Y-81243886D01*
X61315000Y-81061335D01*
X61315000Y-80778665D01*
X61259853Y-80501426D01*
X61161923Y-80265001D01*
X66218077Y-80265001D01*
X66120147Y-80501426D01*
%TA.AperFunction,Conductor*%
D20*
G36*
X66120147Y-80501426D02*
G01*
X66065000Y-80778665D01*
X66065000Y-81061335D01*
X66120147Y-81338574D01*
X66218077Y-81574999D01*
X61609801Y-81574999D01*
X61278688Y-81243886D01*
X61315000Y-81061335D01*
X61315000Y-80778665D01*
X61259853Y-80501426D01*
X61161923Y-80265001D01*
X66218077Y-80265001D01*
X66120147Y-80501426D01*
G37*
%TD.AperFunction*%
D19*
X52963038Y-72351013D02*
X53148987Y-72536962D01*
X53367641Y-72683061D01*
X53610595Y-72783696D01*
X53868514Y-72835000D01*
X54131486Y-72835000D01*
X54238843Y-72813645D01*
X54461201Y-73036003D01*
X54485000Y-73065002D01*
X54600725Y-73159975D01*
X54732754Y-73230547D01*
X54876015Y-73274004D01*
X54987668Y-73285001D01*
X54987677Y-73285001D01*
X55025000Y-73288677D01*
X55062323Y-73285001D01*
X62995202Y-73285001D01*
X66819222Y-77109022D01*
X66585241Y-77265363D01*
X66385363Y-77465241D01*
X66228320Y-77700273D01*
X66120147Y-77961426D01*
X66065000Y-78238665D01*
X66065000Y-78521335D01*
X66101312Y-78703887D01*
X66060198Y-78745001D01*
X61270509Y-78745001D01*
X61315000Y-78521335D01*
X61315000Y-78238665D01*
X61259853Y-77961426D01*
X61151680Y-77700273D01*
X60994637Y-77465241D01*
X60794759Y-77265363D01*
X60559727Y-77108320D01*
X60298574Y-77000147D01*
X60021335Y-76945000D01*
X59738665Y-76945000D01*
X59461426Y-77000147D01*
X59200273Y-77108320D01*
X58965241Y-77265363D01*
X58765363Y-77465241D01*
X58608320Y-77700273D01*
X58500147Y-77961426D01*
X58445000Y-78238665D01*
X58445000Y-78521335D01*
X58489491Y-78745001D01*
X54439803Y-78745001D01*
X54398688Y-78703886D01*
X54435000Y-78521335D01*
X54435000Y-78238665D01*
X54379853Y-77961426D01*
X54271680Y-77700273D01*
X54114637Y-77465241D01*
X53914759Y-77265363D01*
X53679727Y-77108320D01*
X53418574Y-77000147D01*
X53141335Y-76945000D01*
X52960001Y-76945000D01*
X52960001Y-72346468D01*
X52963038Y-72351013D01*
%TA.AperFunction,Conductor*%
D20*
G36*
X52963038Y-72351013D02*
G01*
X53148987Y-72536962D01*
X53367641Y-72683061D01*
X53610595Y-72783696D01*
X53868514Y-72835000D01*
X54131486Y-72835000D01*
X54238843Y-72813645D01*
X54461201Y-73036003D01*
X54485000Y-73065002D01*
X54600725Y-73159975D01*
X54732754Y-73230547D01*
X54876015Y-73274004D01*
X54987668Y-73285001D01*
X54987677Y-73285001D01*
X55025000Y-73288677D01*
X55062323Y-73285001D01*
X62995202Y-73285001D01*
X66819222Y-77109022D01*
X66585241Y-77265363D01*
X66385363Y-77465241D01*
X66228320Y-77700273D01*
X66120147Y-77961426D01*
X66065000Y-78238665D01*
X66065000Y-78521335D01*
X66101312Y-78703887D01*
X66060198Y-78745001D01*
X61270509Y-78745001D01*
X61315000Y-78521335D01*
X61315000Y-78238665D01*
X61259853Y-77961426D01*
X61151680Y-77700273D01*
X60994637Y-77465241D01*
X60794759Y-77265363D01*
X60559727Y-77108320D01*
X60298574Y-77000147D01*
X60021335Y-76945000D01*
X59738665Y-76945000D01*
X59461426Y-77000147D01*
X59200273Y-77108320D01*
X58965241Y-77265363D01*
X58765363Y-77465241D01*
X58608320Y-77700273D01*
X58500147Y-77961426D01*
X58445000Y-78238665D01*
X58445000Y-78521335D01*
X58489491Y-78745001D01*
X54439803Y-78745001D01*
X54398688Y-78703886D01*
X54435000Y-78521335D01*
X54435000Y-78238665D01*
X54379853Y-77961426D01*
X54271680Y-77700273D01*
X54114637Y-77465241D01*
X53914759Y-77265363D01*
X53679727Y-77108320D01*
X53418574Y-77000147D01*
X53141335Y-76945000D01*
X52960001Y-76945000D01*
X52960001Y-72346468D01*
X52963038Y-72351013D01*
G37*
%TD.AperFunction*%
%TD*%
M02*
