%TF.GenerationSoftware,KiCad,Pcbnew,5.1.10*%
%TF.CreationDate,2021-07-01T18:41:02+02:00*%
%TF.ProjectId,double-gain,646f7562-6c65-42d6-9761-696e2e6b6963,rev?*%
%TF.SameCoordinates,Original*%
%TF.FileFunction,Copper,L2,Bot*%
%TF.FilePolarity,Positive*%
%FSLAX46Y46*%
G04 Gerber Fmt 4.6, Leading zero omitted, Abs format (unit mm)*
G04 Created by KiCad (PCBNEW 5.1.10) date 2021-07-01 18:41:02*
%MOMM*%
%LPD*%
G01*
G04 APERTURE LIST*
%TA.AperFunction,ComponentPad*%
%ADD10C,3.500000*%
%TD*%
%TA.AperFunction,ComponentPad*%
%ADD11O,1.600000X1.600000*%
%TD*%
%TA.AperFunction,ComponentPad*%
%ADD12R,1.600000X1.600000*%
%TD*%
%TA.AperFunction,ComponentPad*%
%ADD13C,1.600000*%
%TD*%
%TA.AperFunction,ComponentPad*%
%ADD14O,1.400000X1.400000*%
%TD*%
%TA.AperFunction,ComponentPad*%
%ADD15C,1.400000*%
%TD*%
%TA.AperFunction,ViaPad*%
%ADD16C,0.800000*%
%TD*%
%TA.AperFunction,Conductor*%
%ADD17C,0.800000*%
%TD*%
%TA.AperFunction,Conductor*%
%ADD18C,0.254000*%
%TD*%
%TA.AperFunction,Conductor*%
%ADD19C,0.100000*%
%TD*%
G04 APERTURE END LIST*
D10*
%TO.P,J1,1*%
%TO.N,Net-(D2-Pad2)*%
X46000000Y-119000000D03*
%TD*%
%TO.P,J11,1*%
%TO.N,V-*%
X56000000Y-119000000D03*
%TD*%
%TO.P,J10,1*%
%TO.N,ind*%
X66000000Y-119000000D03*
%TD*%
D11*
%TO.P,U2,8*%
%TO.N,Net-(U2-Pad8)*%
X62000000Y-86000000D03*
%TO.P,U2,4*%
%TO.N,V-*%
X69620000Y-78380000D03*
%TO.P,U2,7*%
%TO.N,VCC*%
X62000000Y-83460000D03*
%TO.P,U2,3*%
%TO.N,ind*%
X69620000Y-80920000D03*
%TO.P,U2,6*%
%TO.N,Net-(R13-Pad1)*%
X62000000Y-80920000D03*
%TO.P,U2,2*%
%TO.N,Net-(R12-Pad2)*%
X69620000Y-83460000D03*
%TO.P,U2,5*%
%TO.N,Net-(U2-Pad5)*%
X62000000Y-78380000D03*
D12*
%TO.P,U2,1*%
%TO.N,Net-(U2-Pad1)*%
X69620000Y-86000000D03*
%TD*%
D13*
%TO.P,C1,2*%
%TO.N,V-*%
X61500000Y-52000000D03*
%TO.P,C1,1*%
%TO.N,VCC*%
X61500000Y-54500000D03*
%TD*%
%TO.P,C2,1*%
%TO.N,VCC*%
X56500000Y-54500000D03*
%TO.P,C2,2*%
%TO.N,V-*%
X56500000Y-52000000D03*
%TD*%
%TO.P,C3,2*%
%TO.N,V-*%
X51500000Y-52000000D03*
%TO.P,C3,1*%
%TO.N,VCC*%
X51500000Y-54500000D03*
%TD*%
%TO.P,C4,1*%
%TO.N,/2*%
X46500000Y-54500000D03*
%TO.P,C4,2*%
%TO.N,Net-(C4-Pad2)*%
X46500000Y-52000000D03*
%TD*%
%TO.P,C6,1*%
%TO.N,V-*%
X51000000Y-73500000D03*
%TO.P,C6,2*%
%TO.N,Net-(C6-Pad2)*%
X48500000Y-73500000D03*
%TD*%
%TO.P,C5,2*%
%TO.N,Net-(C5-Pad2)*%
X66500000Y-52000000D03*
%TO.P,C5,1*%
%TO.N,/3*%
X66500000Y-54500000D03*
%TD*%
%TO.P,C7,1*%
%TO.N,Net-(C7-Pad1)*%
X57500000Y-113000000D03*
%TO.P,C7,2*%
%TO.N,V-*%
X55000000Y-113000000D03*
%TD*%
D11*
%TO.P,D1,2*%
%TO.N,V-*%
X52380000Y-68000000D03*
D12*
%TO.P,D1,1*%
%TO.N,Net-(D1-Pad1)*%
X60000000Y-68000000D03*
%TD*%
%TO.P,D2,1*%
%TO.N,VCC*%
X46380000Y-98000000D03*
D11*
%TO.P,D2,2*%
%TO.N,Net-(D2-Pad2)*%
X54000000Y-98000000D03*
%TD*%
D12*
%TO.P,D3,1*%
%TO.N,Net-(D2-Pad2)*%
X59000000Y-98000000D03*
D11*
%TO.P,D3,2*%
%TO.N,V-*%
X66620000Y-98000000D03*
%TD*%
D10*
%TO.P,J6,1*%
%TO.N,Earth*%
X42500000Y-125000000D03*
%TD*%
%TO.P,J7,1*%
%TO.N,Earth*%
X70000000Y-37500000D03*
%TD*%
%TO.P,J8,1*%
%TO.N,Earth*%
X42500000Y-37500000D03*
%TD*%
%TO.P,J9,1*%
%TO.N,Earth*%
X70000000Y-125000000D03*
%TD*%
D14*
%TO.P,R1,2*%
%TO.N,VCC*%
X65000000Y-69080000D03*
D15*
%TO.P,R1,1*%
%TO.N,Net-(D1-Pad1)*%
X65000000Y-64000000D03*
%TD*%
D14*
%TO.P,R2,2*%
%TO.N,Net-(R2-Pad2)*%
X54500000Y-84000000D03*
D15*
%TO.P,R2,1*%
%TO.N,Net-(R2-Pad1)*%
X54500000Y-78920000D03*
%TD*%
%TO.P,R3,1*%
%TO.N,Net-(D1-Pad1)*%
X44000000Y-69000000D03*
D14*
%TO.P,R3,2*%
%TO.N,/2*%
X44000000Y-63920000D03*
%TD*%
%TO.P,R4,2*%
%TO.N,/3*%
X53920000Y-64000000D03*
D15*
%TO.P,R4,1*%
%TO.N,Net-(D1-Pad1)*%
X59000000Y-64000000D03*
%TD*%
%TO.P,R5,1*%
%TO.N,Net-(C4-Pad2)*%
X48000000Y-64000000D03*
D14*
%TO.P,R5,2*%
%TO.N,Net-(R2-Pad1)*%
X48000000Y-69080000D03*
%TD*%
%TO.P,R6,2*%
%TO.N,Net-(C7-Pad1)*%
X54500000Y-108000000D03*
D15*
%TO.P,R6,1*%
%TO.N,VCC*%
X49420000Y-108000000D03*
%TD*%
D14*
%TO.P,R7,2*%
%TO.N,Net-(D2-Pad2)*%
X46500000Y-110080000D03*
D15*
%TO.P,R7,1*%
%TO.N,Net-(C7-Pad1)*%
X46500000Y-105000000D03*
%TD*%
%TO.P,R8,1*%
%TO.N,Net-(C5-Pad2)*%
X69000000Y-64000000D03*
D14*
%TO.P,R8,2*%
%TO.N,Net-(R13-Pad1)*%
X69000000Y-69080000D03*
%TD*%
D15*
%TO.P,R9,1*%
%TO.N,Net-(C6-Pad2)*%
X44420000Y-91000000D03*
D14*
%TO.P,R9,2*%
%TO.N,Net-(R2-Pad2)*%
X49500000Y-91000000D03*
%TD*%
D15*
%TO.P,R10,1*%
%TO.N,Net-(C7-Pad1)*%
X62580000Y-108000000D03*
D14*
%TO.P,R10,2*%
%TO.N,V-*%
X57500000Y-108000000D03*
%TD*%
D12*
%TO.P,U1,1*%
%TO.N,Net-(U1-Pad1)*%
X51000000Y-86000000D03*
D11*
%TO.P,U1,5*%
%TO.N,Net-(U1-Pad5)*%
X43380000Y-78380000D03*
%TO.P,U1,2*%
%TO.N,Net-(R2-Pad2)*%
X51000000Y-83460000D03*
%TO.P,U1,6*%
%TO.N,Net-(R2-Pad1)*%
X43380000Y-80920000D03*
%TO.P,U1,3*%
%TO.N,Net-(D2-Pad2)*%
X51000000Y-80920000D03*
%TO.P,U1,7*%
%TO.N,VCC*%
X43380000Y-83460000D03*
%TO.P,U1,4*%
%TO.N,V-*%
X51000000Y-78380000D03*
%TO.P,U1,8*%
%TO.N,Net-(U1-Pad8)*%
X43380000Y-86000000D03*
%TD*%
D13*
%TO.P,C8,1*%
%TO.N,V-*%
X61500000Y-73500000D03*
%TO.P,C8,2*%
%TO.N,Net-(C8-Pad2)*%
X64000000Y-73500000D03*
%TD*%
D11*
%TO.P,D4,2*%
%TO.N,ind*%
X54120000Y-102000000D03*
D12*
%TO.P,D4,1*%
%TO.N,VCC*%
X46500000Y-102000000D03*
%TD*%
%TO.P,D5,1*%
%TO.N,ind*%
X59000000Y-102000000D03*
D11*
%TO.P,D5,2*%
%TO.N,V-*%
X66620000Y-102000000D03*
%TD*%
D15*
%TO.P,R11,1*%
%TO.N,Net-(C7-Pad1)*%
X66500000Y-104500000D03*
D14*
%TO.P,R11,2*%
%TO.N,ind*%
X66500000Y-109580000D03*
%TD*%
D15*
%TO.P,R12,1*%
%TO.N,Net-(C8-Pad2)*%
X63000000Y-91000000D03*
D14*
%TO.P,R12,2*%
%TO.N,Net-(R12-Pad2)*%
X68080000Y-91000000D03*
%TD*%
%TO.P,R13,2*%
%TO.N,Net-(R12-Pad2)*%
X58500000Y-84080000D03*
D15*
%TO.P,R13,1*%
%TO.N,Net-(R13-Pad1)*%
X58500000Y-79000000D03*
%TD*%
D10*
%TO.P,J2,1*%
%TO.N,/2*%
X56000000Y-39800000D03*
%TD*%
%TO.P,J3,1*%
%TO.N,/3*%
X50800000Y-39800000D03*
%TD*%
%TO.P,J4,1*%
%TO.N,V-*%
X61400000Y-39800000D03*
%TD*%
D16*
%TO.N,Earth*%
X59000000Y-53200000D03*
X69600000Y-88600000D03*
X55200000Y-53400000D03*
X60200000Y-75600000D03*
X49600000Y-79600000D03*
X67400000Y-78000000D03*
X60800000Y-82200000D03*
%TD*%
D17*
%TO.N,Net-(C5-Pad2)*%
X69000000Y-64000000D02*
X69000000Y-54500000D01*
X69000000Y-54500000D02*
X66500000Y-52000000D01*
%TO.N,Net-(D1-Pad1)*%
X56991900Y-66591900D02*
X58400000Y-68000000D01*
X44000000Y-69000000D02*
X46408100Y-66591900D01*
X46408100Y-66591900D02*
X56991900Y-66591900D01*
X56991900Y-66591900D02*
X56991900Y-66008100D01*
X56991900Y-66008100D02*
X59000000Y-64000000D01*
X60000000Y-68000000D02*
X58400000Y-68000000D01*
X65000000Y-64000000D02*
X59000000Y-64000000D01*
%TO.N,V-*%
X52380000Y-73500000D02*
X61500000Y-73500000D01*
X51000000Y-73500000D02*
X52380000Y-73500000D01*
X52380000Y-73500000D02*
X52380000Y-69600000D01*
X52380000Y-68000000D02*
X52380000Y-69600000D01*
X66620000Y-102000000D02*
X65020000Y-102000000D01*
X65020000Y-102000000D02*
X59020000Y-108000000D01*
X59020000Y-108000000D02*
X57500000Y-108000000D01*
X52700000Y-50800000D02*
X51500000Y-52000000D01*
X55300000Y-50800000D02*
X52700000Y-50800000D01*
X56500000Y-52000000D02*
X55300000Y-50800000D01*
%TO.N,VCC*%
X43380000Y-83460000D02*
X46380000Y-86460000D01*
X46380000Y-86460000D02*
X46380000Y-98000000D01*
X55200000Y-55800000D02*
X52800000Y-55800000D01*
X52800000Y-55800000D02*
X51500000Y-54500000D01*
X56500000Y-54500000D02*
X55200000Y-55800000D01*
%TO.N,Net-(C4-Pad2)*%
X48000000Y-64000000D02*
X48000000Y-53500000D01*
X48000000Y-53500000D02*
X46500000Y-52000000D01*
%TO.N,Net-(C7-Pad1)*%
X58125000Y-112375000D02*
X57500000Y-113000000D01*
X62580000Y-108000000D02*
X62500000Y-108000000D01*
X62500000Y-108000000D02*
X58125000Y-112375000D01*
X53750000Y-108000000D02*
X58125000Y-112375000D01*
X53750000Y-108000000D02*
X53000000Y-108000000D01*
X54500000Y-108000000D02*
X53750000Y-108000000D01*
X66500000Y-104500000D02*
X66080000Y-104500000D01*
X66080000Y-104500000D02*
X62580000Y-108000000D01*
X46500000Y-105000000D02*
X50000000Y-105000000D01*
X50000000Y-105000000D02*
X53000000Y-108000000D01*
%TO.N,Net-(R2-Pad2)*%
X51000000Y-83460000D02*
X52600000Y-83460000D01*
X54500000Y-84000000D02*
X53000000Y-84000000D01*
X52600000Y-83460000D02*
X52600000Y-83600000D01*
X52600000Y-83600000D02*
X53000000Y-84000000D01*
%TO.N,Net-(R2-Pad1)*%
X48000000Y-69080000D02*
X48000000Y-70580000D01*
X48975800Y-76924200D02*
X52504200Y-76924200D01*
X52504200Y-76924200D02*
X54500000Y-78920000D01*
X44980000Y-80920000D02*
X48975800Y-76924200D01*
X48000000Y-70580000D02*
X47083000Y-71497000D01*
X47083000Y-71497000D02*
X47083000Y-75031400D01*
X47083000Y-75031400D02*
X48975800Y-76924200D01*
X43380000Y-80920000D02*
X44980000Y-80920000D01*
%TO.N,Earth*%
X70000000Y-37500000D02*
X69947600Y-37447600D01*
X42552400Y-37447600D02*
X42500000Y-37500000D01*
%TO.N,ind*%
X59000000Y-101200000D02*
X59753700Y-101200000D01*
X59753700Y-101200000D02*
X71075400Y-89878300D01*
X71075400Y-89878300D02*
X71075400Y-82375400D01*
X71075400Y-82375400D02*
X69620000Y-80920000D01*
X55720000Y-102000000D02*
X56520000Y-101200000D01*
X56520000Y-101200000D02*
X59000000Y-101200000D01*
X54120000Y-102000000D02*
X55720000Y-102000000D01*
X59000000Y-102000000D02*
X59000000Y-101200000D01*
%TO.N,Net-(R13-Pad1)*%
X59642400Y-78718800D02*
X60400000Y-79476400D01*
X60400000Y-79476400D02*
X60400000Y-80920000D01*
X58500000Y-79000000D02*
X58781200Y-78718800D01*
X58781200Y-78718800D02*
X59642400Y-78718800D01*
X59642400Y-78718800D02*
X62316000Y-76045200D01*
X62316000Y-76045200D02*
X63534800Y-76045200D01*
X63534800Y-76045200D02*
X69000000Y-70580000D01*
X62000000Y-80920000D02*
X60400000Y-80920000D01*
X69000000Y-69080000D02*
X69000000Y-70580000D01*
%TO.N,Net-(R12-Pad2)*%
X68080000Y-87455800D02*
X68080000Y-85000000D01*
X68080000Y-85000000D02*
X69620000Y-83460000D01*
X68080000Y-91000000D02*
X68080000Y-87455800D01*
X68080000Y-87455800D02*
X60375800Y-87455800D01*
X60375800Y-87455800D02*
X58500000Y-85580000D01*
X58500000Y-84080000D02*
X58500000Y-85580000D01*
%TO.N,/2*%
X46500000Y-54500000D02*
X45095400Y-53095400D01*
X45095400Y-53095400D02*
X45095400Y-50704600D01*
X45095400Y-50704600D02*
X56000000Y-39800000D01*
X46500000Y-54500000D02*
X46500000Y-59920000D01*
X46500000Y-59920000D02*
X44000000Y-62420000D01*
X44000000Y-63920000D02*
X44000000Y-62420000D01*
%TO.N,/3*%
X53920000Y-64000000D02*
X57000000Y-64000000D01*
X57000000Y-64000000D02*
X66500000Y-54500000D01*
%TO.N,Net-(D2-Pad2)*%
X51000000Y-80920000D02*
X49599600Y-82320400D01*
X49599600Y-82320400D02*
X49599600Y-89130500D01*
X49599600Y-89130500D02*
X54000000Y-93530900D01*
X54000000Y-93530900D02*
X54000000Y-98000000D01*
%TD*%
D18*
%TO.N,Earth*%
X74315001Y-129315000D02*
X38185000Y-129315000D01*
X38185000Y-118765098D01*
X43615000Y-118765098D01*
X43615000Y-119234902D01*
X43706654Y-119695679D01*
X43886440Y-120129721D01*
X44147450Y-120520349D01*
X44479651Y-120852550D01*
X44870279Y-121113560D01*
X45304321Y-121293346D01*
X45765098Y-121385000D01*
X46234902Y-121385000D01*
X46695679Y-121293346D01*
X47129721Y-121113560D01*
X47520349Y-120852550D01*
X47852550Y-120520349D01*
X48113560Y-120129721D01*
X48293346Y-119695679D01*
X48385000Y-119234902D01*
X48385000Y-118765098D01*
X53615000Y-118765098D01*
X53615000Y-119234902D01*
X53706654Y-119695679D01*
X53886440Y-120129721D01*
X54147450Y-120520349D01*
X54479651Y-120852550D01*
X54870279Y-121113560D01*
X55304321Y-121293346D01*
X55765098Y-121385000D01*
X56234902Y-121385000D01*
X56695679Y-121293346D01*
X57129721Y-121113560D01*
X57520349Y-120852550D01*
X57852550Y-120520349D01*
X58113560Y-120129721D01*
X58293346Y-119695679D01*
X58385000Y-119234902D01*
X58385000Y-118765098D01*
X63615000Y-118765098D01*
X63615000Y-119234902D01*
X63706654Y-119695679D01*
X63886440Y-120129721D01*
X64147450Y-120520349D01*
X64479651Y-120852550D01*
X64870279Y-121113560D01*
X65304321Y-121293346D01*
X65765098Y-121385000D01*
X66234902Y-121385000D01*
X66695679Y-121293346D01*
X67129721Y-121113560D01*
X67520349Y-120852550D01*
X67852550Y-120520349D01*
X68113560Y-120129721D01*
X68293346Y-119695679D01*
X68385000Y-119234902D01*
X68385000Y-118765098D01*
X68293346Y-118304321D01*
X68113560Y-117870279D01*
X67852550Y-117479651D01*
X67520349Y-117147450D01*
X67129721Y-116886440D01*
X66695679Y-116706654D01*
X66234902Y-116615000D01*
X65765098Y-116615000D01*
X65304321Y-116706654D01*
X64870279Y-116886440D01*
X64479651Y-117147450D01*
X64147450Y-117479651D01*
X63886440Y-117870279D01*
X63706654Y-118304321D01*
X63615000Y-118765098D01*
X58385000Y-118765098D01*
X58293346Y-118304321D01*
X58113560Y-117870279D01*
X57852550Y-117479651D01*
X57520349Y-117147450D01*
X57129721Y-116886440D01*
X56695679Y-116706654D01*
X56234902Y-116615000D01*
X55765098Y-116615000D01*
X55304321Y-116706654D01*
X54870279Y-116886440D01*
X54479651Y-117147450D01*
X54147450Y-117479651D01*
X53886440Y-117870279D01*
X53706654Y-118304321D01*
X53615000Y-118765098D01*
X48385000Y-118765098D01*
X48293346Y-118304321D01*
X48113560Y-117870279D01*
X47852550Y-117479651D01*
X47520349Y-117147450D01*
X47129721Y-116886440D01*
X46695679Y-116706654D01*
X46234902Y-116615000D01*
X45765098Y-116615000D01*
X45304321Y-116706654D01*
X44870279Y-116886440D01*
X44479651Y-117147450D01*
X44147450Y-117479651D01*
X43886440Y-117870279D01*
X43706654Y-118304321D01*
X43615000Y-118765098D01*
X38185000Y-118765098D01*
X38185000Y-109948514D01*
X45165000Y-109948514D01*
X45165000Y-110211486D01*
X45216304Y-110469405D01*
X45316939Y-110712359D01*
X45463038Y-110931013D01*
X45648987Y-111116962D01*
X45867641Y-111263061D01*
X46110595Y-111363696D01*
X46368514Y-111415000D01*
X46631486Y-111415000D01*
X46889405Y-111363696D01*
X47132359Y-111263061D01*
X47351013Y-111116962D01*
X47536962Y-110931013D01*
X47683061Y-110712359D01*
X47783696Y-110469405D01*
X47835000Y-110211486D01*
X47835000Y-109948514D01*
X47783696Y-109690595D01*
X47683061Y-109447641D01*
X47536962Y-109228987D01*
X47351013Y-109043038D01*
X47132359Y-108896939D01*
X46889405Y-108796304D01*
X46631486Y-108745000D01*
X46368514Y-108745000D01*
X46110595Y-108796304D01*
X45867641Y-108896939D01*
X45648987Y-109043038D01*
X45463038Y-109228987D01*
X45316939Y-109447641D01*
X45216304Y-109690595D01*
X45165000Y-109948514D01*
X38185000Y-109948514D01*
X38185000Y-107868514D01*
X48085000Y-107868514D01*
X48085000Y-108131486D01*
X48136304Y-108389405D01*
X48236939Y-108632359D01*
X48383038Y-108851013D01*
X48568987Y-109036962D01*
X48787641Y-109183061D01*
X49030595Y-109283696D01*
X49288514Y-109335000D01*
X49551486Y-109335000D01*
X49809405Y-109283696D01*
X50052359Y-109183061D01*
X50271013Y-109036962D01*
X50456962Y-108851013D01*
X50603061Y-108632359D01*
X50703696Y-108389405D01*
X50755000Y-108131486D01*
X50755000Y-107868514D01*
X50703696Y-107610595D01*
X50603061Y-107367641D01*
X50456962Y-107148987D01*
X50271013Y-106963038D01*
X50052359Y-106816939D01*
X49809405Y-106716304D01*
X49551486Y-106665000D01*
X49288514Y-106665000D01*
X49030595Y-106716304D01*
X48787641Y-106816939D01*
X48568987Y-106963038D01*
X48383038Y-107148987D01*
X48236939Y-107367641D01*
X48136304Y-107610595D01*
X48085000Y-107868514D01*
X38185000Y-107868514D01*
X38185000Y-104868514D01*
X45165000Y-104868514D01*
X45165000Y-105131486D01*
X45216304Y-105389405D01*
X45316939Y-105632359D01*
X45463038Y-105851013D01*
X45648987Y-106036962D01*
X45867641Y-106183061D01*
X46110595Y-106283696D01*
X46368514Y-106335000D01*
X46631486Y-106335000D01*
X46889405Y-106283696D01*
X47132359Y-106183061D01*
X47351013Y-106036962D01*
X47352975Y-106035000D01*
X49571290Y-106035000D01*
X52232196Y-108695907D01*
X52264604Y-108735396D01*
X52304092Y-108767803D01*
X52422202Y-108864734D01*
X52482454Y-108896939D01*
X52602007Y-108960841D01*
X52797105Y-109020024D01*
X52949162Y-109035000D01*
X52949165Y-109035000D01*
X53000000Y-109040007D01*
X53050835Y-109035000D01*
X53321290Y-109035000D01*
X56379822Y-112093533D01*
X56250000Y-112287827D01*
X56114637Y-112085241D01*
X55914759Y-111885363D01*
X55679727Y-111728320D01*
X55418574Y-111620147D01*
X55141335Y-111565000D01*
X54858665Y-111565000D01*
X54581426Y-111620147D01*
X54320273Y-111728320D01*
X54085241Y-111885363D01*
X53885363Y-112085241D01*
X53728320Y-112320273D01*
X53620147Y-112581426D01*
X53565000Y-112858665D01*
X53565000Y-113141335D01*
X53620147Y-113418574D01*
X53728320Y-113679727D01*
X53885363Y-113914759D01*
X54085241Y-114114637D01*
X54320273Y-114271680D01*
X54581426Y-114379853D01*
X54858665Y-114435000D01*
X55141335Y-114435000D01*
X55418574Y-114379853D01*
X55679727Y-114271680D01*
X55914759Y-114114637D01*
X56114637Y-113914759D01*
X56250000Y-113712173D01*
X56385363Y-113914759D01*
X56585241Y-114114637D01*
X56820273Y-114271680D01*
X57081426Y-114379853D01*
X57358665Y-114435000D01*
X57641335Y-114435000D01*
X57918574Y-114379853D01*
X58179727Y-114271680D01*
X58414759Y-114114637D01*
X58614637Y-113914759D01*
X58771680Y-113679727D01*
X58879853Y-113418574D01*
X58935000Y-113141335D01*
X58935000Y-113028710D01*
X62515196Y-109448514D01*
X65165000Y-109448514D01*
X65165000Y-109711486D01*
X65216304Y-109969405D01*
X65316939Y-110212359D01*
X65463038Y-110431013D01*
X65648987Y-110616962D01*
X65867641Y-110763061D01*
X66110595Y-110863696D01*
X66368514Y-110915000D01*
X66631486Y-110915000D01*
X66889405Y-110863696D01*
X67132359Y-110763061D01*
X67351013Y-110616962D01*
X67536962Y-110431013D01*
X67683061Y-110212359D01*
X67783696Y-109969405D01*
X67835000Y-109711486D01*
X67835000Y-109448514D01*
X67783696Y-109190595D01*
X67683061Y-108947641D01*
X67536962Y-108728987D01*
X67351013Y-108543038D01*
X67132359Y-108396939D01*
X66889405Y-108296304D01*
X66631486Y-108245000D01*
X66368514Y-108245000D01*
X66110595Y-108296304D01*
X65867641Y-108396939D01*
X65648987Y-108543038D01*
X65463038Y-108728987D01*
X65316939Y-108947641D01*
X65216304Y-109190595D01*
X65165000Y-109448514D01*
X62515196Y-109448514D01*
X62628711Y-109335000D01*
X62711486Y-109335000D01*
X62969405Y-109283696D01*
X63212359Y-109183061D01*
X63431013Y-109036962D01*
X63616962Y-108851013D01*
X63763061Y-108632359D01*
X63863696Y-108389405D01*
X63915000Y-108131486D01*
X63915000Y-108128710D01*
X66235224Y-105808487D01*
X66368514Y-105835000D01*
X66631486Y-105835000D01*
X66889405Y-105783696D01*
X67132359Y-105683061D01*
X67351013Y-105536962D01*
X67536962Y-105351013D01*
X67683061Y-105132359D01*
X67783696Y-104889405D01*
X67835000Y-104631486D01*
X67835000Y-104368514D01*
X67783696Y-104110595D01*
X67683061Y-103867641D01*
X67536962Y-103648987D01*
X67351013Y-103463038D01*
X67154594Y-103331796D01*
X67299727Y-103271680D01*
X67534759Y-103114637D01*
X67734637Y-102914759D01*
X67891680Y-102679727D01*
X67999853Y-102418574D01*
X68055000Y-102141335D01*
X68055000Y-101858665D01*
X67999853Y-101581426D01*
X67891680Y-101320273D01*
X67734637Y-101085241D01*
X67534759Y-100885363D01*
X67299727Y-100728320D01*
X67038574Y-100620147D01*
X66761335Y-100565000D01*
X66478665Y-100565000D01*
X66201426Y-100620147D01*
X65940273Y-100728320D01*
X65705241Y-100885363D01*
X65625604Y-100965000D01*
X65070827Y-100965000D01*
X65019999Y-100959994D01*
X64969171Y-100965000D01*
X64969162Y-100965000D01*
X64817105Y-100979976D01*
X64622007Y-101039159D01*
X64553984Y-101075518D01*
X64442202Y-101135266D01*
X64425269Y-101149163D01*
X64284604Y-101264604D01*
X64252197Y-101304092D01*
X58591290Y-106965000D01*
X58352975Y-106965000D01*
X58351013Y-106963038D01*
X58132359Y-106816939D01*
X57889405Y-106716304D01*
X57631486Y-106665000D01*
X57368514Y-106665000D01*
X57110595Y-106716304D01*
X56867641Y-106816939D01*
X56648987Y-106963038D01*
X56463038Y-107148987D01*
X56316939Y-107367641D01*
X56216304Y-107610595D01*
X56165000Y-107868514D01*
X56165000Y-108131486D01*
X56216304Y-108389405D01*
X56316939Y-108632359D01*
X56463038Y-108851013D01*
X56648987Y-109036962D01*
X56867641Y-109183061D01*
X57110595Y-109283696D01*
X57368514Y-109335000D01*
X57631486Y-109335000D01*
X57889405Y-109283696D01*
X58132359Y-109183061D01*
X58351013Y-109036962D01*
X58352975Y-109035000D01*
X58969172Y-109035000D01*
X59020000Y-109040006D01*
X59070828Y-109035000D01*
X59070838Y-109035000D01*
X59222895Y-109020024D01*
X59417993Y-108960841D01*
X59597797Y-108864734D01*
X59755396Y-108735396D01*
X59787807Y-108695903D01*
X65448711Y-103035000D01*
X65625604Y-103035000D01*
X65705241Y-103114637D01*
X65940273Y-103271680D01*
X65958589Y-103279267D01*
X65867641Y-103316939D01*
X65648987Y-103463038D01*
X65463038Y-103648987D01*
X65435786Y-103689773D01*
X65344604Y-103764604D01*
X65312197Y-103804092D01*
X62451290Y-106665000D01*
X62448514Y-106665000D01*
X62190595Y-106716304D01*
X61947641Y-106816939D01*
X61728987Y-106963038D01*
X61543038Y-107148987D01*
X61396939Y-107367641D01*
X61296304Y-107610595D01*
X61264175Y-107772114D01*
X58125000Y-110911289D01*
X55730805Y-108517095D01*
X55783696Y-108389405D01*
X55835000Y-108131486D01*
X55835000Y-107868514D01*
X55783696Y-107610595D01*
X55683061Y-107367641D01*
X55536962Y-107148987D01*
X55351013Y-106963038D01*
X55132359Y-106816939D01*
X54889405Y-106716304D01*
X54631486Y-106665000D01*
X54368514Y-106665000D01*
X54110595Y-106716304D01*
X53867641Y-106816939D01*
X53648987Y-106963038D01*
X53647025Y-106965000D01*
X53428711Y-106965000D01*
X50767807Y-104304097D01*
X50735396Y-104264604D01*
X50577797Y-104135266D01*
X50397993Y-104039159D01*
X50202895Y-103979976D01*
X50050838Y-103965000D01*
X50050828Y-103965000D01*
X50000000Y-103959994D01*
X49949172Y-103965000D01*
X47352975Y-103965000D01*
X47351013Y-103963038D01*
X47132359Y-103816939D01*
X46889405Y-103716304D01*
X46631486Y-103665000D01*
X46368514Y-103665000D01*
X46110595Y-103716304D01*
X45867641Y-103816939D01*
X45648987Y-103963038D01*
X45463038Y-104148987D01*
X45316939Y-104367641D01*
X45216304Y-104610595D01*
X45165000Y-104868514D01*
X38185000Y-104868514D01*
X38185000Y-101200000D01*
X45061928Y-101200000D01*
X45061928Y-102800000D01*
X45074188Y-102924482D01*
X45110498Y-103044180D01*
X45169463Y-103154494D01*
X45248815Y-103251185D01*
X45345506Y-103330537D01*
X45455820Y-103389502D01*
X45575518Y-103425812D01*
X45700000Y-103438072D01*
X47300000Y-103438072D01*
X47424482Y-103425812D01*
X47544180Y-103389502D01*
X47654494Y-103330537D01*
X47751185Y-103251185D01*
X47830537Y-103154494D01*
X47889502Y-103044180D01*
X47925812Y-102924482D01*
X47938072Y-102800000D01*
X47938072Y-101200000D01*
X47925812Y-101075518D01*
X47889502Y-100955820D01*
X47830537Y-100845506D01*
X47751185Y-100748815D01*
X47654494Y-100669463D01*
X47544180Y-100610498D01*
X47424482Y-100574188D01*
X47300000Y-100561928D01*
X45700000Y-100561928D01*
X45575518Y-100574188D01*
X45455820Y-100610498D01*
X45345506Y-100669463D01*
X45248815Y-100748815D01*
X45169463Y-100845506D01*
X45110498Y-100955820D01*
X45074188Y-101075518D01*
X45061928Y-101200000D01*
X38185000Y-101200000D01*
X38185000Y-78238665D01*
X41945000Y-78238665D01*
X41945000Y-78521335D01*
X42000147Y-78798574D01*
X42108320Y-79059727D01*
X42265363Y-79294759D01*
X42465241Y-79494637D01*
X42697759Y-79650000D01*
X42465241Y-79805363D01*
X42265363Y-80005241D01*
X42108320Y-80240273D01*
X42000147Y-80501426D01*
X41945000Y-80778665D01*
X41945000Y-81061335D01*
X42000147Y-81338574D01*
X42108320Y-81599727D01*
X42265363Y-81834759D01*
X42465241Y-82034637D01*
X42697759Y-82190000D01*
X42465241Y-82345363D01*
X42265363Y-82545241D01*
X42108320Y-82780273D01*
X42000147Y-83041426D01*
X41945000Y-83318665D01*
X41945000Y-83601335D01*
X42000147Y-83878574D01*
X42108320Y-84139727D01*
X42265363Y-84374759D01*
X42465241Y-84574637D01*
X42697759Y-84730000D01*
X42465241Y-84885363D01*
X42265363Y-85085241D01*
X42108320Y-85320273D01*
X42000147Y-85581426D01*
X41945000Y-85858665D01*
X41945000Y-86141335D01*
X42000147Y-86418574D01*
X42108320Y-86679727D01*
X42265363Y-86914759D01*
X42465241Y-87114637D01*
X42700273Y-87271680D01*
X42961426Y-87379853D01*
X43238665Y-87435000D01*
X43521335Y-87435000D01*
X43798574Y-87379853D01*
X44059727Y-87271680D01*
X44294759Y-87114637D01*
X44494637Y-86914759D01*
X44651680Y-86679727D01*
X44759853Y-86418574D01*
X44778935Y-86322645D01*
X45345000Y-86888711D01*
X45345000Y-90037025D01*
X45271013Y-89963038D01*
X45052359Y-89816939D01*
X44809405Y-89716304D01*
X44551486Y-89665000D01*
X44288514Y-89665000D01*
X44030595Y-89716304D01*
X43787641Y-89816939D01*
X43568987Y-89963038D01*
X43383038Y-90148987D01*
X43236939Y-90367641D01*
X43136304Y-90610595D01*
X43085000Y-90868514D01*
X43085000Y-91131486D01*
X43136304Y-91389405D01*
X43236939Y-91632359D01*
X43383038Y-91851013D01*
X43568987Y-92036962D01*
X43787641Y-92183061D01*
X44030595Y-92283696D01*
X44288514Y-92335000D01*
X44551486Y-92335000D01*
X44809405Y-92283696D01*
X45052359Y-92183061D01*
X45271013Y-92036962D01*
X45345000Y-91962975D01*
X45345001Y-96607713D01*
X45335820Y-96610498D01*
X45225506Y-96669463D01*
X45128815Y-96748815D01*
X45049463Y-96845506D01*
X44990498Y-96955820D01*
X44954188Y-97075518D01*
X44941928Y-97200000D01*
X44941928Y-98800000D01*
X44954188Y-98924482D01*
X44990498Y-99044180D01*
X45049463Y-99154494D01*
X45128815Y-99251185D01*
X45225506Y-99330537D01*
X45335820Y-99389502D01*
X45455518Y-99425812D01*
X45580000Y-99438072D01*
X47180000Y-99438072D01*
X47304482Y-99425812D01*
X47424180Y-99389502D01*
X47534494Y-99330537D01*
X47631185Y-99251185D01*
X47710537Y-99154494D01*
X47769502Y-99044180D01*
X47805812Y-98924482D01*
X47818072Y-98800000D01*
X47818072Y-97200000D01*
X47805812Y-97075518D01*
X47769502Y-96955820D01*
X47710537Y-96845506D01*
X47631185Y-96748815D01*
X47534494Y-96669463D01*
X47424180Y-96610498D01*
X47415000Y-96607713D01*
X47415000Y-86510835D01*
X47420007Y-86460000D01*
X47415000Y-86409162D01*
X47400024Y-86257105D01*
X47340841Y-86062007D01*
X47286766Y-85960840D01*
X47244734Y-85882202D01*
X47147803Y-85764092D01*
X47115396Y-85724604D01*
X47075908Y-85692197D01*
X44815000Y-83431290D01*
X44815000Y-83318665D01*
X44759853Y-83041426D01*
X44651680Y-82780273D01*
X44494637Y-82545241D01*
X44294759Y-82345363D01*
X44062241Y-82190000D01*
X44294759Y-82034637D01*
X44374396Y-81955000D01*
X44929172Y-81955000D01*
X44980000Y-81960006D01*
X45030828Y-81955000D01*
X45030838Y-81955000D01*
X45182895Y-81940024D01*
X45377993Y-81880841D01*
X45557797Y-81784734D01*
X45715396Y-81655396D01*
X45747807Y-81615903D01*
X49404511Y-77959200D01*
X49621069Y-77959200D01*
X49620147Y-77961426D01*
X49565000Y-78238665D01*
X49565000Y-78521335D01*
X49620147Y-78798574D01*
X49728320Y-79059727D01*
X49885363Y-79294759D01*
X50085241Y-79494637D01*
X50317759Y-79650000D01*
X50085241Y-79805363D01*
X49885363Y-80005241D01*
X49728320Y-80240273D01*
X49620147Y-80501426D01*
X49565000Y-80778665D01*
X49565000Y-80891290D01*
X48903697Y-81552593D01*
X48864204Y-81585004D01*
X48734866Y-81742603D01*
X48638759Y-81922408D01*
X48579576Y-82117506D01*
X48564600Y-82269563D01*
X48564600Y-82269572D01*
X48559594Y-82320400D01*
X48564600Y-82371228D01*
X48564601Y-89079662D01*
X48559594Y-89130500D01*
X48579577Y-89333395D01*
X48638760Y-89528493D01*
X48734866Y-89708297D01*
X48824027Y-89816939D01*
X48839473Y-89835760D01*
X48648987Y-89963038D01*
X48463038Y-90148987D01*
X48316939Y-90367641D01*
X48216304Y-90610595D01*
X48165000Y-90868514D01*
X48165000Y-91131486D01*
X48216304Y-91389405D01*
X48316939Y-91632359D01*
X48463038Y-91851013D01*
X48648987Y-92036962D01*
X48867641Y-92183061D01*
X49110595Y-92283696D01*
X49368514Y-92335000D01*
X49631486Y-92335000D01*
X49889405Y-92283696D01*
X50132359Y-92183061D01*
X50351013Y-92036962D01*
X50536962Y-91851013D01*
X50664911Y-91659522D01*
X52965000Y-93959611D01*
X52965001Y-97005603D01*
X52885363Y-97085241D01*
X52728320Y-97320273D01*
X52620147Y-97581426D01*
X52565000Y-97858665D01*
X52565000Y-98141335D01*
X52620147Y-98418574D01*
X52728320Y-98679727D01*
X52885363Y-98914759D01*
X53085241Y-99114637D01*
X53320273Y-99271680D01*
X53581426Y-99379853D01*
X53858665Y-99435000D01*
X54141335Y-99435000D01*
X54418574Y-99379853D01*
X54679727Y-99271680D01*
X54914759Y-99114637D01*
X55114637Y-98914759D01*
X55271680Y-98679727D01*
X55379853Y-98418574D01*
X55435000Y-98141335D01*
X55435000Y-97858665D01*
X55379853Y-97581426D01*
X55271680Y-97320273D01*
X55114637Y-97085241D01*
X55035000Y-97005604D01*
X55035000Y-93581727D01*
X55040006Y-93530899D01*
X55035000Y-93480071D01*
X55035000Y-93480062D01*
X55020024Y-93328005D01*
X54960841Y-93132907D01*
X54916104Y-93049209D01*
X54864734Y-92953102D01*
X54767803Y-92834992D01*
X54735396Y-92795504D01*
X54695908Y-92763097D01*
X52801325Y-90868514D01*
X61665000Y-90868514D01*
X61665000Y-91131486D01*
X61716304Y-91389405D01*
X61816939Y-91632359D01*
X61963038Y-91851013D01*
X62148987Y-92036962D01*
X62367641Y-92183061D01*
X62610595Y-92283696D01*
X62868514Y-92335000D01*
X63131486Y-92335000D01*
X63389405Y-92283696D01*
X63632359Y-92183061D01*
X63851013Y-92036962D01*
X64036962Y-91851013D01*
X64183061Y-91632359D01*
X64283696Y-91389405D01*
X64335000Y-91131486D01*
X64335000Y-90868514D01*
X64283696Y-90610595D01*
X64183061Y-90367641D01*
X64036962Y-90148987D01*
X63851013Y-89963038D01*
X63632359Y-89816939D01*
X63389405Y-89716304D01*
X63131486Y-89665000D01*
X62868514Y-89665000D01*
X62610595Y-89716304D01*
X62367641Y-89816939D01*
X62148987Y-89963038D01*
X61963038Y-90148987D01*
X61816939Y-90367641D01*
X61716304Y-90610595D01*
X61665000Y-90868514D01*
X52801325Y-90868514D01*
X50634600Y-88701790D01*
X50634600Y-87438072D01*
X51800000Y-87438072D01*
X51924482Y-87425812D01*
X52044180Y-87389502D01*
X52154494Y-87330537D01*
X52251185Y-87251185D01*
X52330537Y-87154494D01*
X52389502Y-87044180D01*
X52425812Y-86924482D01*
X52438072Y-86800000D01*
X52438072Y-85200000D01*
X52425812Y-85075518D01*
X52389502Y-84955820D01*
X52330537Y-84845506D01*
X52251185Y-84748815D01*
X52154494Y-84669463D01*
X52044180Y-84610498D01*
X51924482Y-84574188D01*
X51916039Y-84573357D01*
X51994396Y-84495000D01*
X52031290Y-84495000D01*
X52232193Y-84695903D01*
X52264604Y-84735396D01*
X52422203Y-84864734D01*
X52602007Y-84960841D01*
X52797105Y-85020024D01*
X52949162Y-85035000D01*
X52949171Y-85035000D01*
X52999999Y-85040006D01*
X53050827Y-85035000D01*
X53647025Y-85035000D01*
X53648987Y-85036962D01*
X53867641Y-85183061D01*
X54110595Y-85283696D01*
X54368514Y-85335000D01*
X54631486Y-85335000D01*
X54889405Y-85283696D01*
X55132359Y-85183061D01*
X55351013Y-85036962D01*
X55536962Y-84851013D01*
X55683061Y-84632359D01*
X55783696Y-84389405D01*
X55835000Y-84131486D01*
X55835000Y-83868514D01*
X55783696Y-83610595D01*
X55683061Y-83367641D01*
X55536962Y-83148987D01*
X55351013Y-82963038D01*
X55132359Y-82816939D01*
X54889405Y-82716304D01*
X54631486Y-82665000D01*
X54368514Y-82665000D01*
X54110595Y-82716304D01*
X53867641Y-82816939D01*
X53648987Y-82963038D01*
X53647025Y-82965000D01*
X53508990Y-82965000D01*
X53464734Y-82882203D01*
X53335396Y-82724604D01*
X53177797Y-82595266D01*
X52997993Y-82499159D01*
X52802895Y-82439976D01*
X52650838Y-82425000D01*
X52600000Y-82419993D01*
X52549162Y-82425000D01*
X51994396Y-82425000D01*
X51914759Y-82345363D01*
X51682241Y-82190000D01*
X51914759Y-82034637D01*
X52114637Y-81834759D01*
X52271680Y-81599727D01*
X52379853Y-81338574D01*
X52435000Y-81061335D01*
X52435000Y-80778665D01*
X52379853Y-80501426D01*
X52271680Y-80240273D01*
X52114637Y-80005241D01*
X51914759Y-79805363D01*
X51682241Y-79650000D01*
X51914759Y-79494637D01*
X52114637Y-79294759D01*
X52271680Y-79059727D01*
X52379853Y-78798574D01*
X52435000Y-78521335D01*
X52435000Y-78318710D01*
X53165000Y-79048711D01*
X53165000Y-79051486D01*
X53216304Y-79309405D01*
X53316939Y-79552359D01*
X53463038Y-79771013D01*
X53648987Y-79956962D01*
X53867641Y-80103061D01*
X54110595Y-80203696D01*
X54368514Y-80255000D01*
X54631486Y-80255000D01*
X54889405Y-80203696D01*
X55132359Y-80103061D01*
X55351013Y-79956962D01*
X55536962Y-79771013D01*
X55683061Y-79552359D01*
X55783696Y-79309405D01*
X55835000Y-79051486D01*
X55835000Y-78788514D01*
X55783696Y-78530595D01*
X55683061Y-78287641D01*
X55536962Y-78068987D01*
X55351013Y-77883038D01*
X55132359Y-77736939D01*
X54889405Y-77636304D01*
X54631486Y-77585000D01*
X54628711Y-77585000D01*
X53272007Y-76228297D01*
X53239596Y-76188804D01*
X53081997Y-76059466D01*
X52902193Y-75963359D01*
X52707095Y-75904176D01*
X52555038Y-75889200D01*
X52555028Y-75889200D01*
X52504200Y-75884194D01*
X52453372Y-75889200D01*
X49404511Y-75889200D01*
X48450310Y-74935000D01*
X48641335Y-74935000D01*
X48918574Y-74879853D01*
X49179727Y-74771680D01*
X49414759Y-74614637D01*
X49614637Y-74414759D01*
X49750000Y-74212173D01*
X49885363Y-74414759D01*
X50085241Y-74614637D01*
X50320273Y-74771680D01*
X50581426Y-74879853D01*
X50858665Y-74935000D01*
X51141335Y-74935000D01*
X51418574Y-74879853D01*
X51679727Y-74771680D01*
X51914759Y-74614637D01*
X51994396Y-74535000D01*
X52329162Y-74535000D01*
X52380000Y-74540007D01*
X52430838Y-74535000D01*
X60505604Y-74535000D01*
X60585241Y-74614637D01*
X60820273Y-74771680D01*
X61081426Y-74879853D01*
X61358665Y-74935000D01*
X61641335Y-74935000D01*
X61918574Y-74879853D01*
X62179727Y-74771680D01*
X62414759Y-74614637D01*
X62614637Y-74414759D01*
X62750000Y-74212173D01*
X62885363Y-74414759D01*
X63085241Y-74614637D01*
X63320273Y-74771680D01*
X63337482Y-74778808D01*
X63106090Y-75010200D01*
X62366827Y-75010200D01*
X62315999Y-75005194D01*
X62265171Y-75010200D01*
X62265162Y-75010200D01*
X62113105Y-75025176D01*
X61918007Y-75084359D01*
X61834309Y-75129096D01*
X61738202Y-75180466D01*
X61672612Y-75234295D01*
X61580604Y-75309804D01*
X61548197Y-75349292D01*
X59213690Y-77683800D01*
X58832035Y-77683800D01*
X58781200Y-77678793D01*
X58730365Y-77683800D01*
X58730362Y-77683800D01*
X58727444Y-77684087D01*
X58631486Y-77665000D01*
X58368514Y-77665000D01*
X58110595Y-77716304D01*
X57867641Y-77816939D01*
X57648987Y-77963038D01*
X57463038Y-78148987D01*
X57316939Y-78367641D01*
X57216304Y-78610595D01*
X57165000Y-78868514D01*
X57165000Y-79131486D01*
X57216304Y-79389405D01*
X57316939Y-79632359D01*
X57463038Y-79851013D01*
X57648987Y-80036962D01*
X57867641Y-80183061D01*
X58110595Y-80283696D01*
X58368514Y-80335000D01*
X58631486Y-80335000D01*
X58889405Y-80283696D01*
X59132359Y-80183061D01*
X59351013Y-80036962D01*
X59365000Y-80022975D01*
X59365001Y-80869153D01*
X59359993Y-80920000D01*
X59379976Y-81122895D01*
X59439159Y-81317993D01*
X59535266Y-81497797D01*
X59664604Y-81655396D01*
X59822203Y-81784734D01*
X60002007Y-81880841D01*
X60197105Y-81940024D01*
X60349162Y-81955000D01*
X60400000Y-81960007D01*
X60450838Y-81955000D01*
X61005604Y-81955000D01*
X61085241Y-82034637D01*
X61317759Y-82190000D01*
X61085241Y-82345363D01*
X60885363Y-82545241D01*
X60728320Y-82780273D01*
X60620147Y-83041426D01*
X60565000Y-83318665D01*
X60565000Y-83601335D01*
X60620147Y-83878574D01*
X60728320Y-84139727D01*
X60885363Y-84374759D01*
X61085241Y-84574637D01*
X61317759Y-84730000D01*
X61085241Y-84885363D01*
X60885363Y-85085241D01*
X60728320Y-85320273D01*
X60620147Y-85581426D01*
X60565000Y-85858665D01*
X60565000Y-86141335D01*
X60574921Y-86191210D01*
X59535000Y-85151290D01*
X59535000Y-84932975D01*
X59536962Y-84931013D01*
X59683061Y-84712359D01*
X59783696Y-84469405D01*
X59835000Y-84211486D01*
X59835000Y-83948514D01*
X59783696Y-83690595D01*
X59683061Y-83447641D01*
X59536962Y-83228987D01*
X59351013Y-83043038D01*
X59132359Y-82896939D01*
X58889405Y-82796304D01*
X58631486Y-82745000D01*
X58368514Y-82745000D01*
X58110595Y-82796304D01*
X57867641Y-82896939D01*
X57648987Y-83043038D01*
X57463038Y-83228987D01*
X57316939Y-83447641D01*
X57216304Y-83690595D01*
X57165000Y-83948514D01*
X57165000Y-84211486D01*
X57216304Y-84469405D01*
X57316939Y-84712359D01*
X57463038Y-84931013D01*
X57465001Y-84932976D01*
X57465001Y-85529163D01*
X57459994Y-85580000D01*
X57479977Y-85782895D01*
X57539160Y-85977993D01*
X57635266Y-86157797D01*
X57732197Y-86275907D01*
X57764605Y-86315396D01*
X57804092Y-86347802D01*
X59607997Y-88151708D01*
X59640404Y-88191196D01*
X59679892Y-88223603D01*
X59798002Y-88320534D01*
X59894109Y-88371904D01*
X59977807Y-88416641D01*
X60172905Y-88475824D01*
X60324962Y-88490800D01*
X60324965Y-88490800D01*
X60375800Y-88495807D01*
X60426635Y-88490800D01*
X67045001Y-88490800D01*
X67045000Y-90147025D01*
X67043038Y-90148987D01*
X66896939Y-90367641D01*
X66796304Y-90610595D01*
X66745000Y-90868514D01*
X66745000Y-91131486D01*
X66796304Y-91389405D01*
X66896939Y-91632359D01*
X67043038Y-91851013D01*
X67228987Y-92036962D01*
X67363290Y-92126700D01*
X60307843Y-99182147D01*
X60330537Y-99154494D01*
X60389502Y-99044180D01*
X60425812Y-98924482D01*
X60438072Y-98800000D01*
X60438072Y-97200000D01*
X60425812Y-97075518D01*
X60389502Y-96955820D01*
X60330537Y-96845506D01*
X60251185Y-96748815D01*
X60154494Y-96669463D01*
X60044180Y-96610498D01*
X59924482Y-96574188D01*
X59800000Y-96561928D01*
X58200000Y-96561928D01*
X58075518Y-96574188D01*
X57955820Y-96610498D01*
X57845506Y-96669463D01*
X57748815Y-96748815D01*
X57669463Y-96845506D01*
X57610498Y-96955820D01*
X57574188Y-97075518D01*
X57561928Y-97200000D01*
X57561928Y-98800000D01*
X57574188Y-98924482D01*
X57610498Y-99044180D01*
X57669463Y-99154494D01*
X57748815Y-99251185D01*
X57845506Y-99330537D01*
X57955820Y-99389502D01*
X58075518Y-99425812D01*
X58200000Y-99438072D01*
X59800000Y-99438072D01*
X59924482Y-99425812D01*
X60044180Y-99389502D01*
X60154494Y-99330537D01*
X60182147Y-99307843D01*
X59324990Y-100165000D01*
X59050838Y-100165000D01*
X59000000Y-100159993D01*
X58949162Y-100165000D01*
X56570835Y-100165000D01*
X56520000Y-100159993D01*
X56469165Y-100165000D01*
X56469162Y-100165000D01*
X56317105Y-100179976D01*
X56122007Y-100239159D01*
X56038309Y-100283896D01*
X55942202Y-100335266D01*
X55824092Y-100432197D01*
X55784604Y-100464604D01*
X55752197Y-100504092D01*
X55291290Y-100965000D01*
X55114396Y-100965000D01*
X55034759Y-100885363D01*
X54799727Y-100728320D01*
X54538574Y-100620147D01*
X54261335Y-100565000D01*
X53978665Y-100565000D01*
X53701426Y-100620147D01*
X53440273Y-100728320D01*
X53205241Y-100885363D01*
X53005363Y-101085241D01*
X52848320Y-101320273D01*
X52740147Y-101581426D01*
X52685000Y-101858665D01*
X52685000Y-102141335D01*
X52740147Y-102418574D01*
X52848320Y-102679727D01*
X53005363Y-102914759D01*
X53205241Y-103114637D01*
X53440273Y-103271680D01*
X53701426Y-103379853D01*
X53978665Y-103435000D01*
X54261335Y-103435000D01*
X54538574Y-103379853D01*
X54799727Y-103271680D01*
X55034759Y-103114637D01*
X55114396Y-103035000D01*
X55669172Y-103035000D01*
X55720000Y-103040006D01*
X55770828Y-103035000D01*
X55770838Y-103035000D01*
X55922895Y-103020024D01*
X56117993Y-102960841D01*
X56297797Y-102864734D01*
X56455396Y-102735396D01*
X56487807Y-102695903D01*
X56948711Y-102235000D01*
X57561928Y-102235000D01*
X57561928Y-102800000D01*
X57574188Y-102924482D01*
X57610498Y-103044180D01*
X57669463Y-103154494D01*
X57748815Y-103251185D01*
X57845506Y-103330537D01*
X57955820Y-103389502D01*
X58075518Y-103425812D01*
X58200000Y-103438072D01*
X59800000Y-103438072D01*
X59924482Y-103425812D01*
X60044180Y-103389502D01*
X60154494Y-103330537D01*
X60251185Y-103251185D01*
X60330537Y-103154494D01*
X60389502Y-103044180D01*
X60425812Y-102924482D01*
X60438072Y-102800000D01*
X60438072Y-101977270D01*
X60489096Y-101935396D01*
X60521507Y-101895903D01*
X64558745Y-97858665D01*
X65185000Y-97858665D01*
X65185000Y-98141335D01*
X65240147Y-98418574D01*
X65348320Y-98679727D01*
X65505363Y-98914759D01*
X65705241Y-99114637D01*
X65940273Y-99271680D01*
X66201426Y-99379853D01*
X66478665Y-99435000D01*
X66761335Y-99435000D01*
X67038574Y-99379853D01*
X67299727Y-99271680D01*
X67534759Y-99114637D01*
X67734637Y-98914759D01*
X67891680Y-98679727D01*
X67999853Y-98418574D01*
X68055000Y-98141335D01*
X68055000Y-97858665D01*
X67999853Y-97581426D01*
X67891680Y-97320273D01*
X67734637Y-97085241D01*
X67534759Y-96885363D01*
X67299727Y-96728320D01*
X67038574Y-96620147D01*
X66761335Y-96565000D01*
X66478665Y-96565000D01*
X66201426Y-96620147D01*
X65940273Y-96728320D01*
X65705241Y-96885363D01*
X65505363Y-97085241D01*
X65348320Y-97320273D01*
X65240147Y-97581426D01*
X65185000Y-97858665D01*
X64558745Y-97858665D01*
X71771308Y-90646103D01*
X71810796Y-90613696D01*
X71843203Y-90574208D01*
X71940134Y-90456098D01*
X72036240Y-90276294D01*
X72036241Y-90276293D01*
X72095424Y-90081195D01*
X72110400Y-89929138D01*
X72110400Y-89929135D01*
X72115407Y-89878300D01*
X72110400Y-89827465D01*
X72110400Y-82426227D01*
X72115406Y-82375399D01*
X72110400Y-82324571D01*
X72110400Y-82324562D01*
X72095424Y-82172505D01*
X72036241Y-81977407D01*
X71984625Y-81880840D01*
X71940134Y-81797602D01*
X71843203Y-81679492D01*
X71810796Y-81640004D01*
X71771308Y-81607597D01*
X71055000Y-80891290D01*
X71055000Y-80778665D01*
X70999853Y-80501426D01*
X70891680Y-80240273D01*
X70734637Y-80005241D01*
X70534759Y-79805363D01*
X70302241Y-79650000D01*
X70534759Y-79494637D01*
X70734637Y-79294759D01*
X70891680Y-79059727D01*
X70999853Y-78798574D01*
X71055000Y-78521335D01*
X71055000Y-78238665D01*
X70999853Y-77961426D01*
X70891680Y-77700273D01*
X70734637Y-77465241D01*
X70534759Y-77265363D01*
X70299727Y-77108320D01*
X70038574Y-77000147D01*
X69761335Y-76945000D01*
X69478665Y-76945000D01*
X69201426Y-77000147D01*
X68940273Y-77108320D01*
X68705241Y-77265363D01*
X68505363Y-77465241D01*
X68348320Y-77700273D01*
X68240147Y-77961426D01*
X68185000Y-78238665D01*
X68185000Y-78521335D01*
X68240147Y-78798574D01*
X68348320Y-79059727D01*
X68505363Y-79294759D01*
X68705241Y-79494637D01*
X68937759Y-79650000D01*
X68705241Y-79805363D01*
X68505363Y-80005241D01*
X68348320Y-80240273D01*
X68240147Y-80501426D01*
X68185000Y-80778665D01*
X68185000Y-81061335D01*
X68240147Y-81338574D01*
X68348320Y-81599727D01*
X68505363Y-81834759D01*
X68705241Y-82034637D01*
X68937759Y-82190000D01*
X68705241Y-82345363D01*
X68505363Y-82545241D01*
X68348320Y-82780273D01*
X68240147Y-83041426D01*
X68185000Y-83318665D01*
X68185000Y-83431289D01*
X67384092Y-84232198D01*
X67344605Y-84264604D01*
X67312198Y-84304092D01*
X67312197Y-84304093D01*
X67215266Y-84422203D01*
X67119160Y-84602007D01*
X67059977Y-84797105D01*
X67039994Y-85000000D01*
X67045001Y-85050838D01*
X67045000Y-86420800D01*
X63378931Y-86420800D01*
X63379853Y-86418574D01*
X63435000Y-86141335D01*
X63435000Y-85858665D01*
X63379853Y-85581426D01*
X63271680Y-85320273D01*
X63114637Y-85085241D01*
X62914759Y-84885363D01*
X62682241Y-84730000D01*
X62914759Y-84574637D01*
X63114637Y-84374759D01*
X63271680Y-84139727D01*
X63379853Y-83878574D01*
X63435000Y-83601335D01*
X63435000Y-83318665D01*
X63379853Y-83041426D01*
X63271680Y-82780273D01*
X63114637Y-82545241D01*
X62914759Y-82345363D01*
X62682241Y-82190000D01*
X62914759Y-82034637D01*
X63114637Y-81834759D01*
X63271680Y-81599727D01*
X63379853Y-81338574D01*
X63435000Y-81061335D01*
X63435000Y-80778665D01*
X63379853Y-80501426D01*
X63271680Y-80240273D01*
X63114637Y-80005241D01*
X62914759Y-79805363D01*
X62682241Y-79650000D01*
X62914759Y-79494637D01*
X63114637Y-79294759D01*
X63271680Y-79059727D01*
X63379853Y-78798574D01*
X63435000Y-78521335D01*
X63435000Y-78238665D01*
X63379853Y-77961426D01*
X63271680Y-77700273D01*
X63114637Y-77465241D01*
X62914759Y-77265363D01*
X62701825Y-77123086D01*
X62744711Y-77080200D01*
X63483972Y-77080200D01*
X63534800Y-77085206D01*
X63585628Y-77080200D01*
X63585638Y-77080200D01*
X63737695Y-77065224D01*
X63932793Y-77006041D01*
X64112597Y-76909934D01*
X64270196Y-76780596D01*
X64302607Y-76741103D01*
X69695908Y-71347803D01*
X69735396Y-71315396D01*
X69767803Y-71275908D01*
X69864734Y-71157798D01*
X69960840Y-70977994D01*
X69960841Y-70977993D01*
X70020024Y-70782895D01*
X70035000Y-70630838D01*
X70035000Y-70630836D01*
X70040007Y-70580000D01*
X70035000Y-70529165D01*
X70035000Y-69932975D01*
X70036962Y-69931013D01*
X70183061Y-69712359D01*
X70283696Y-69469405D01*
X70335000Y-69211486D01*
X70335000Y-68948514D01*
X70283696Y-68690595D01*
X70183061Y-68447641D01*
X70036962Y-68228987D01*
X69851013Y-68043038D01*
X69632359Y-67896939D01*
X69389405Y-67796304D01*
X69131486Y-67745000D01*
X68868514Y-67745000D01*
X68610595Y-67796304D01*
X68367641Y-67896939D01*
X68148987Y-68043038D01*
X67963038Y-68228987D01*
X67816939Y-68447641D01*
X67716304Y-68690595D01*
X67665000Y-68948514D01*
X67665000Y-69211486D01*
X67716304Y-69469405D01*
X67816939Y-69712359D01*
X67963038Y-69931013D01*
X67965001Y-69932976D01*
X67965001Y-70151288D01*
X65278808Y-72837482D01*
X65271680Y-72820273D01*
X65114637Y-72585241D01*
X64914759Y-72385363D01*
X64679727Y-72228320D01*
X64418574Y-72120147D01*
X64141335Y-72065000D01*
X63858665Y-72065000D01*
X63581426Y-72120147D01*
X63320273Y-72228320D01*
X63085241Y-72385363D01*
X62885363Y-72585241D01*
X62750000Y-72787827D01*
X62614637Y-72585241D01*
X62414759Y-72385363D01*
X62179727Y-72228320D01*
X61918574Y-72120147D01*
X61641335Y-72065000D01*
X61358665Y-72065000D01*
X61081426Y-72120147D01*
X60820273Y-72228320D01*
X60585241Y-72385363D01*
X60505604Y-72465000D01*
X53415000Y-72465000D01*
X53415000Y-68994396D01*
X53494637Y-68914759D01*
X53651680Y-68679727D01*
X53759853Y-68418574D01*
X53815000Y-68141335D01*
X53815000Y-67858665D01*
X53768898Y-67626900D01*
X56563190Y-67626900D01*
X57632197Y-68695908D01*
X57664604Y-68735396D01*
X57704092Y-68767803D01*
X57822202Y-68864734D01*
X57845349Y-68877106D01*
X58002007Y-68960841D01*
X58197105Y-69020024D01*
X58349162Y-69035000D01*
X58349171Y-69035000D01*
X58399999Y-69040006D01*
X58450827Y-69035000D01*
X58607713Y-69035000D01*
X58610498Y-69044180D01*
X58669463Y-69154494D01*
X58748815Y-69251185D01*
X58845506Y-69330537D01*
X58955820Y-69389502D01*
X59075518Y-69425812D01*
X59200000Y-69438072D01*
X60800000Y-69438072D01*
X60924482Y-69425812D01*
X61044180Y-69389502D01*
X61154494Y-69330537D01*
X61251185Y-69251185D01*
X61330537Y-69154494D01*
X61389502Y-69044180D01*
X61418521Y-68948514D01*
X63665000Y-68948514D01*
X63665000Y-69211486D01*
X63716304Y-69469405D01*
X63816939Y-69712359D01*
X63963038Y-69931013D01*
X64148987Y-70116962D01*
X64367641Y-70263061D01*
X64610595Y-70363696D01*
X64868514Y-70415000D01*
X65131486Y-70415000D01*
X65389405Y-70363696D01*
X65632359Y-70263061D01*
X65851013Y-70116962D01*
X66036962Y-69931013D01*
X66183061Y-69712359D01*
X66283696Y-69469405D01*
X66335000Y-69211486D01*
X66335000Y-68948514D01*
X66283696Y-68690595D01*
X66183061Y-68447641D01*
X66036962Y-68228987D01*
X65851013Y-68043038D01*
X65632359Y-67896939D01*
X65389405Y-67796304D01*
X65131486Y-67745000D01*
X64868514Y-67745000D01*
X64610595Y-67796304D01*
X64367641Y-67896939D01*
X64148987Y-68043038D01*
X63963038Y-68228987D01*
X63816939Y-68447641D01*
X63716304Y-68690595D01*
X63665000Y-68948514D01*
X61418521Y-68948514D01*
X61425812Y-68924482D01*
X61438072Y-68800000D01*
X61438072Y-67200000D01*
X61425812Y-67075518D01*
X61389502Y-66955820D01*
X61330537Y-66845506D01*
X61251185Y-66748815D01*
X61154494Y-66669463D01*
X61044180Y-66610498D01*
X60924482Y-66574188D01*
X60800000Y-66561928D01*
X59200000Y-66561928D01*
X59075518Y-66574188D01*
X58955820Y-66610498D01*
X58845506Y-66669463D01*
X58748815Y-66748815D01*
X58687382Y-66823671D01*
X58163710Y-66300000D01*
X59128711Y-65335000D01*
X59131486Y-65335000D01*
X59389405Y-65283696D01*
X59632359Y-65183061D01*
X59851013Y-65036962D01*
X59852975Y-65035000D01*
X64147025Y-65035000D01*
X64148987Y-65036962D01*
X64367641Y-65183061D01*
X64610595Y-65283696D01*
X64868514Y-65335000D01*
X65131486Y-65335000D01*
X65389405Y-65283696D01*
X65632359Y-65183061D01*
X65851013Y-65036962D01*
X66036962Y-64851013D01*
X66183061Y-64632359D01*
X66283696Y-64389405D01*
X66335000Y-64131486D01*
X66335000Y-63868514D01*
X66283696Y-63610595D01*
X66183061Y-63367641D01*
X66036962Y-63148987D01*
X65851013Y-62963038D01*
X65632359Y-62816939D01*
X65389405Y-62716304D01*
X65131486Y-62665000D01*
X64868514Y-62665000D01*
X64610595Y-62716304D01*
X64367641Y-62816939D01*
X64148987Y-62963038D01*
X64147025Y-62965000D01*
X59852975Y-62965000D01*
X59851013Y-62963038D01*
X59640999Y-62822712D01*
X66528711Y-55935000D01*
X66641335Y-55935000D01*
X66918574Y-55879853D01*
X67179727Y-55771680D01*
X67414759Y-55614637D01*
X67614637Y-55414759D01*
X67771680Y-55179727D01*
X67879853Y-54918574D01*
X67892298Y-54856009D01*
X67965001Y-54928712D01*
X67965000Y-63147025D01*
X67963038Y-63148987D01*
X67816939Y-63367641D01*
X67716304Y-63610595D01*
X67665000Y-63868514D01*
X67665000Y-64131486D01*
X67716304Y-64389405D01*
X67816939Y-64632359D01*
X67963038Y-64851013D01*
X68148987Y-65036962D01*
X68367641Y-65183061D01*
X68610595Y-65283696D01*
X68868514Y-65335000D01*
X69131486Y-65335000D01*
X69389405Y-65283696D01*
X69632359Y-65183061D01*
X69851013Y-65036962D01*
X70036962Y-64851013D01*
X70183061Y-64632359D01*
X70283696Y-64389405D01*
X70335000Y-64131486D01*
X70335000Y-63868514D01*
X70283696Y-63610595D01*
X70183061Y-63367641D01*
X70036962Y-63148987D01*
X70035000Y-63147025D01*
X70035000Y-54550835D01*
X70040007Y-54500000D01*
X70035000Y-54449162D01*
X70020024Y-54297105D01*
X69960841Y-54102007D01*
X69916104Y-54018309D01*
X69864734Y-53922202D01*
X69767803Y-53804092D01*
X69735396Y-53764604D01*
X69695908Y-53732197D01*
X67935000Y-51971290D01*
X67935000Y-51858665D01*
X67879853Y-51581426D01*
X67771680Y-51320273D01*
X67614637Y-51085241D01*
X67414759Y-50885363D01*
X67179727Y-50728320D01*
X66918574Y-50620147D01*
X66641335Y-50565000D01*
X66358665Y-50565000D01*
X66081426Y-50620147D01*
X65820273Y-50728320D01*
X65585241Y-50885363D01*
X65385363Y-51085241D01*
X65228320Y-51320273D01*
X65120147Y-51581426D01*
X65065000Y-51858665D01*
X65065000Y-52141335D01*
X65120147Y-52418574D01*
X65228320Y-52679727D01*
X65385363Y-52914759D01*
X65585241Y-53114637D01*
X65787827Y-53250000D01*
X65585241Y-53385363D01*
X65385363Y-53585241D01*
X65228320Y-53820273D01*
X65120147Y-54081426D01*
X65065000Y-54358665D01*
X65065000Y-54471289D01*
X56571290Y-62965000D01*
X54772975Y-62965000D01*
X54771013Y-62963038D01*
X54552359Y-62816939D01*
X54309405Y-62716304D01*
X54051486Y-62665000D01*
X53788514Y-62665000D01*
X53530595Y-62716304D01*
X53287641Y-62816939D01*
X53068987Y-62963038D01*
X52883038Y-63148987D01*
X52736939Y-63367641D01*
X52636304Y-63610595D01*
X52585000Y-63868514D01*
X52585000Y-64131486D01*
X52636304Y-64389405D01*
X52736939Y-64632359D01*
X52883038Y-64851013D01*
X53068987Y-65036962D01*
X53287641Y-65183061D01*
X53530595Y-65283696D01*
X53788514Y-65335000D01*
X54051486Y-65335000D01*
X54309405Y-65283696D01*
X54552359Y-65183061D01*
X54771013Y-65036962D01*
X54772975Y-65035000D01*
X56501290Y-65035000D01*
X56295992Y-65240298D01*
X56256505Y-65272704D01*
X56224098Y-65312192D01*
X56224097Y-65312193D01*
X56127166Y-65430303D01*
X56059499Y-65556900D01*
X46458935Y-65556900D01*
X46408100Y-65551893D01*
X46357265Y-65556900D01*
X46357262Y-65556900D01*
X46205205Y-65571876D01*
X46010107Y-65631059D01*
X45926409Y-65675796D01*
X45830302Y-65727166D01*
X45735212Y-65805205D01*
X45672704Y-65856504D01*
X45640297Y-65895992D01*
X43871290Y-67665000D01*
X43868514Y-67665000D01*
X43610595Y-67716304D01*
X43367641Y-67816939D01*
X43148987Y-67963038D01*
X42963038Y-68148987D01*
X42816939Y-68367641D01*
X42716304Y-68610595D01*
X42665000Y-68868514D01*
X42665000Y-69131486D01*
X42716304Y-69389405D01*
X42816939Y-69632359D01*
X42963038Y-69851013D01*
X43148987Y-70036962D01*
X43367641Y-70183061D01*
X43610595Y-70283696D01*
X43868514Y-70335000D01*
X44131486Y-70335000D01*
X44389405Y-70283696D01*
X44632359Y-70183061D01*
X44851013Y-70036962D01*
X45036962Y-69851013D01*
X45183061Y-69632359D01*
X45283696Y-69389405D01*
X45335000Y-69131486D01*
X45335000Y-69128710D01*
X46836811Y-67626900D01*
X50991102Y-67626900D01*
X50945000Y-67858665D01*
X50945000Y-68141335D01*
X51000147Y-68418574D01*
X51108320Y-68679727D01*
X51265363Y-68914759D01*
X51345001Y-68994397D01*
X51345001Y-69549162D01*
X51345000Y-72105512D01*
X51141335Y-72065000D01*
X50858665Y-72065000D01*
X50581426Y-72120147D01*
X50320273Y-72228320D01*
X50085241Y-72385363D01*
X49885363Y-72585241D01*
X49750000Y-72787827D01*
X49614637Y-72585241D01*
X49414759Y-72385363D01*
X49179727Y-72228320D01*
X48918574Y-72120147D01*
X48641335Y-72065000D01*
X48358665Y-72065000D01*
X48118000Y-72112872D01*
X48118000Y-71925710D01*
X48695908Y-71347803D01*
X48735396Y-71315396D01*
X48767803Y-71275908D01*
X48864734Y-71157798D01*
X48960840Y-70977994D01*
X48960841Y-70977993D01*
X49020024Y-70782895D01*
X49035000Y-70630838D01*
X49035000Y-70630835D01*
X49040007Y-70580000D01*
X49035000Y-70529165D01*
X49035000Y-69932975D01*
X49036962Y-69931013D01*
X49183061Y-69712359D01*
X49283696Y-69469405D01*
X49335000Y-69211486D01*
X49335000Y-68948514D01*
X49283696Y-68690595D01*
X49183061Y-68447641D01*
X49036962Y-68228987D01*
X48851013Y-68043038D01*
X48632359Y-67896939D01*
X48389405Y-67796304D01*
X48131486Y-67745000D01*
X47868514Y-67745000D01*
X47610595Y-67796304D01*
X47367641Y-67896939D01*
X47148987Y-68043038D01*
X46963038Y-68228987D01*
X46816939Y-68447641D01*
X46716304Y-68690595D01*
X46665000Y-68948514D01*
X46665000Y-69211486D01*
X46716304Y-69469405D01*
X46816939Y-69712359D01*
X46963038Y-69931013D01*
X46965001Y-69932976D01*
X46965001Y-70151289D01*
X46387097Y-70729193D01*
X46347604Y-70761604D01*
X46218266Y-70919203D01*
X46122159Y-71099008D01*
X46062976Y-71294106D01*
X46048000Y-71446163D01*
X46048000Y-71446172D01*
X46042994Y-71497000D01*
X46048000Y-71547828D01*
X46048001Y-74980562D01*
X46042994Y-75031400D01*
X46062977Y-75234295D01*
X46122160Y-75429393D01*
X46218266Y-75609197D01*
X46315197Y-75727307D01*
X46347605Y-75766796D01*
X46387092Y-75799202D01*
X47512089Y-76924200D01*
X44551290Y-79885000D01*
X44374396Y-79885000D01*
X44294759Y-79805363D01*
X44062241Y-79650000D01*
X44294759Y-79494637D01*
X44494637Y-79294759D01*
X44651680Y-79059727D01*
X44759853Y-78798574D01*
X44815000Y-78521335D01*
X44815000Y-78238665D01*
X44759853Y-77961426D01*
X44651680Y-77700273D01*
X44494637Y-77465241D01*
X44294759Y-77265363D01*
X44059727Y-77108320D01*
X43798574Y-77000147D01*
X43521335Y-76945000D01*
X43238665Y-76945000D01*
X42961426Y-77000147D01*
X42700273Y-77108320D01*
X42465241Y-77265363D01*
X42265363Y-77465241D01*
X42108320Y-77700273D01*
X42000147Y-77961426D01*
X41945000Y-78238665D01*
X38185000Y-78238665D01*
X38185000Y-63788514D01*
X42665000Y-63788514D01*
X42665000Y-64051486D01*
X42716304Y-64309405D01*
X42816939Y-64552359D01*
X42963038Y-64771013D01*
X43148987Y-64956962D01*
X43367641Y-65103061D01*
X43610595Y-65203696D01*
X43868514Y-65255000D01*
X44131486Y-65255000D01*
X44389405Y-65203696D01*
X44632359Y-65103061D01*
X44851013Y-64956962D01*
X45036962Y-64771013D01*
X45183061Y-64552359D01*
X45283696Y-64309405D01*
X45335000Y-64051486D01*
X45335000Y-63788514D01*
X45283696Y-63530595D01*
X45183061Y-63287641D01*
X45036962Y-63068987D01*
X45035000Y-63067025D01*
X45035000Y-62848710D01*
X46965000Y-60918711D01*
X46965000Y-63147025D01*
X46963038Y-63148987D01*
X46816939Y-63367641D01*
X46716304Y-63610595D01*
X46665000Y-63868514D01*
X46665000Y-64131486D01*
X46716304Y-64389405D01*
X46816939Y-64632359D01*
X46963038Y-64851013D01*
X47148987Y-65036962D01*
X47367641Y-65183061D01*
X47610595Y-65283696D01*
X47868514Y-65335000D01*
X48131486Y-65335000D01*
X48389405Y-65283696D01*
X48632359Y-65183061D01*
X48851013Y-65036962D01*
X49036962Y-64851013D01*
X49183061Y-64632359D01*
X49283696Y-64389405D01*
X49335000Y-64131486D01*
X49335000Y-63868514D01*
X49283696Y-63610595D01*
X49183061Y-63367641D01*
X49036962Y-63148987D01*
X49035000Y-63147025D01*
X49035000Y-53550827D01*
X49040006Y-53499999D01*
X49035000Y-53449171D01*
X49035000Y-53449162D01*
X49020024Y-53297105D01*
X48960841Y-53102007D01*
X48885386Y-52960840D01*
X48864734Y-52922202D01*
X48767803Y-52804092D01*
X48735396Y-52764604D01*
X48695908Y-52732197D01*
X47935000Y-51971290D01*
X47935000Y-51858665D01*
X50065000Y-51858665D01*
X50065000Y-52141335D01*
X50120147Y-52418574D01*
X50228320Y-52679727D01*
X50385363Y-52914759D01*
X50585241Y-53114637D01*
X50787827Y-53250000D01*
X50585241Y-53385363D01*
X50385363Y-53585241D01*
X50228320Y-53820273D01*
X50120147Y-54081426D01*
X50065000Y-54358665D01*
X50065000Y-54641335D01*
X50120147Y-54918574D01*
X50228320Y-55179727D01*
X50385363Y-55414759D01*
X50585241Y-55614637D01*
X50820273Y-55771680D01*
X51081426Y-55879853D01*
X51358665Y-55935000D01*
X51471289Y-55935000D01*
X52032197Y-56495908D01*
X52064604Y-56535396D01*
X52104092Y-56567803D01*
X52222202Y-56664734D01*
X52318309Y-56716104D01*
X52402007Y-56760841D01*
X52597105Y-56820024D01*
X52749162Y-56835000D01*
X52749165Y-56835000D01*
X52800000Y-56840007D01*
X52850835Y-56835000D01*
X55149172Y-56835000D01*
X55200000Y-56840006D01*
X55250828Y-56835000D01*
X55250838Y-56835000D01*
X55402895Y-56820024D01*
X55597993Y-56760841D01*
X55777797Y-56664734D01*
X55935396Y-56535396D01*
X55967807Y-56495903D01*
X56528710Y-55935000D01*
X56641335Y-55935000D01*
X56918574Y-55879853D01*
X57179727Y-55771680D01*
X57414759Y-55614637D01*
X57614637Y-55414759D01*
X57771680Y-55179727D01*
X57879853Y-54918574D01*
X57935000Y-54641335D01*
X57935000Y-54358665D01*
X57879853Y-54081426D01*
X57771680Y-53820273D01*
X57614637Y-53585241D01*
X57414759Y-53385363D01*
X57212173Y-53250000D01*
X57414759Y-53114637D01*
X57614637Y-52914759D01*
X57771680Y-52679727D01*
X57879853Y-52418574D01*
X57935000Y-52141335D01*
X57935000Y-51858665D01*
X60065000Y-51858665D01*
X60065000Y-52141335D01*
X60120147Y-52418574D01*
X60228320Y-52679727D01*
X60385363Y-52914759D01*
X60585241Y-53114637D01*
X60787827Y-53250000D01*
X60585241Y-53385363D01*
X60385363Y-53585241D01*
X60228320Y-53820273D01*
X60120147Y-54081426D01*
X60065000Y-54358665D01*
X60065000Y-54641335D01*
X60120147Y-54918574D01*
X60228320Y-55179727D01*
X60385363Y-55414759D01*
X60585241Y-55614637D01*
X60820273Y-55771680D01*
X61081426Y-55879853D01*
X61358665Y-55935000D01*
X61641335Y-55935000D01*
X61918574Y-55879853D01*
X62179727Y-55771680D01*
X62414759Y-55614637D01*
X62614637Y-55414759D01*
X62771680Y-55179727D01*
X62879853Y-54918574D01*
X62935000Y-54641335D01*
X62935000Y-54358665D01*
X62879853Y-54081426D01*
X62771680Y-53820273D01*
X62614637Y-53585241D01*
X62414759Y-53385363D01*
X62212173Y-53250000D01*
X62414759Y-53114637D01*
X62614637Y-52914759D01*
X62771680Y-52679727D01*
X62879853Y-52418574D01*
X62935000Y-52141335D01*
X62935000Y-51858665D01*
X62879853Y-51581426D01*
X62771680Y-51320273D01*
X62614637Y-51085241D01*
X62414759Y-50885363D01*
X62179727Y-50728320D01*
X61918574Y-50620147D01*
X61641335Y-50565000D01*
X61358665Y-50565000D01*
X61081426Y-50620147D01*
X60820273Y-50728320D01*
X60585241Y-50885363D01*
X60385363Y-51085241D01*
X60228320Y-51320273D01*
X60120147Y-51581426D01*
X60065000Y-51858665D01*
X57935000Y-51858665D01*
X57879853Y-51581426D01*
X57771680Y-51320273D01*
X57614637Y-51085241D01*
X57414759Y-50885363D01*
X57179727Y-50728320D01*
X56918574Y-50620147D01*
X56641335Y-50565000D01*
X56528710Y-50565000D01*
X56067807Y-50104097D01*
X56035396Y-50064604D01*
X55877797Y-49935266D01*
X55697993Y-49839159D01*
X55502895Y-49779976D01*
X55350838Y-49765000D01*
X55350828Y-49765000D01*
X55300000Y-49759994D01*
X55249172Y-49765000D01*
X52750827Y-49765000D01*
X52699999Y-49759994D01*
X52649171Y-49765000D01*
X52649162Y-49765000D01*
X52497105Y-49779976D01*
X52302007Y-49839159D01*
X52218309Y-49883896D01*
X52122202Y-49935266D01*
X52080849Y-49969204D01*
X51964604Y-50064604D01*
X51932197Y-50104092D01*
X51471289Y-50565000D01*
X51358665Y-50565000D01*
X51081426Y-50620147D01*
X50820273Y-50728320D01*
X50585241Y-50885363D01*
X50385363Y-51085241D01*
X50228320Y-51320273D01*
X50120147Y-51581426D01*
X50065000Y-51858665D01*
X47935000Y-51858665D01*
X47879853Y-51581426D01*
X47771680Y-51320273D01*
X47614637Y-51085241D01*
X47414759Y-50885363D01*
X47179727Y-50728320D01*
X46918574Y-50620147D01*
X46689191Y-50574519D01*
X55209600Y-42054111D01*
X55304321Y-42093346D01*
X55765098Y-42185000D01*
X56234902Y-42185000D01*
X56695679Y-42093346D01*
X57129721Y-41913560D01*
X57520349Y-41652550D01*
X57852550Y-41320349D01*
X58113560Y-40929721D01*
X58293346Y-40495679D01*
X58385000Y-40034902D01*
X58385000Y-39565098D01*
X59015000Y-39565098D01*
X59015000Y-40034902D01*
X59106654Y-40495679D01*
X59286440Y-40929721D01*
X59547450Y-41320349D01*
X59879651Y-41652550D01*
X60270279Y-41913560D01*
X60704321Y-42093346D01*
X61165098Y-42185000D01*
X61634902Y-42185000D01*
X62095679Y-42093346D01*
X62529721Y-41913560D01*
X62920349Y-41652550D01*
X63252550Y-41320349D01*
X63513560Y-40929721D01*
X63693346Y-40495679D01*
X63785000Y-40034902D01*
X63785000Y-39565098D01*
X63693346Y-39104321D01*
X63513560Y-38670279D01*
X63252550Y-38279651D01*
X62920349Y-37947450D01*
X62529721Y-37686440D01*
X62095679Y-37506654D01*
X61634902Y-37415000D01*
X61165098Y-37415000D01*
X60704321Y-37506654D01*
X60270279Y-37686440D01*
X59879651Y-37947450D01*
X59547450Y-38279651D01*
X59286440Y-38670279D01*
X59106654Y-39104321D01*
X59015000Y-39565098D01*
X58385000Y-39565098D01*
X58293346Y-39104321D01*
X58113560Y-38670279D01*
X57852550Y-38279651D01*
X57520349Y-37947450D01*
X57129721Y-37686440D01*
X56695679Y-37506654D01*
X56234902Y-37415000D01*
X55765098Y-37415000D01*
X55304321Y-37506654D01*
X54870279Y-37686440D01*
X54479651Y-37947450D01*
X54147450Y-38279651D01*
X53886440Y-38670279D01*
X53706654Y-39104321D01*
X53615000Y-39565098D01*
X53615000Y-40034902D01*
X53706654Y-40495679D01*
X53745889Y-40590400D01*
X44399493Y-49936797D01*
X44360005Y-49969204D01*
X44327598Y-50008692D01*
X44327597Y-50008693D01*
X44230666Y-50126803D01*
X44134560Y-50306607D01*
X44075377Y-50501705D01*
X44055394Y-50704600D01*
X44060401Y-50755438D01*
X44060400Y-53044572D01*
X44055394Y-53095400D01*
X44060400Y-53146228D01*
X44060400Y-53146237D01*
X44075376Y-53298294D01*
X44134559Y-53493392D01*
X44230666Y-53673197D01*
X44360004Y-53830796D01*
X44399497Y-53863207D01*
X45065000Y-54528710D01*
X45065000Y-54641335D01*
X45120147Y-54918574D01*
X45228320Y-55179727D01*
X45385363Y-55414759D01*
X45465000Y-55494396D01*
X45465001Y-59491288D01*
X43304092Y-61652198D01*
X43264605Y-61684604D01*
X43232198Y-61724092D01*
X43232197Y-61724093D01*
X43135266Y-61842203D01*
X43039160Y-62022007D01*
X42979977Y-62217105D01*
X42959994Y-62420000D01*
X42965001Y-62470837D01*
X42965001Y-63067024D01*
X42963038Y-63068987D01*
X42816939Y-63287641D01*
X42716304Y-63530595D01*
X42665000Y-63788514D01*
X38185000Y-63788514D01*
X38185000Y-39565098D01*
X48415000Y-39565098D01*
X48415000Y-40034902D01*
X48506654Y-40495679D01*
X48686440Y-40929721D01*
X48947450Y-41320349D01*
X49279651Y-41652550D01*
X49670279Y-41913560D01*
X50104321Y-42093346D01*
X50565098Y-42185000D01*
X51034902Y-42185000D01*
X51495679Y-42093346D01*
X51929721Y-41913560D01*
X52320349Y-41652550D01*
X52652550Y-41320349D01*
X52913560Y-40929721D01*
X53093346Y-40495679D01*
X53185000Y-40034902D01*
X53185000Y-39565098D01*
X53093346Y-39104321D01*
X52913560Y-38670279D01*
X52652550Y-38279651D01*
X52320349Y-37947450D01*
X51929721Y-37686440D01*
X51495679Y-37506654D01*
X51034902Y-37415000D01*
X50565098Y-37415000D01*
X50104321Y-37506654D01*
X49670279Y-37686440D01*
X49279651Y-37947450D01*
X48947450Y-38279651D01*
X48686440Y-38670279D01*
X48506654Y-39104321D01*
X48415000Y-39565098D01*
X38185000Y-39565098D01*
X38185000Y-33185000D01*
X74315000Y-33185000D01*
X74315001Y-129315000D01*
%TA.AperFunction,Conductor*%
D19*
G36*
X74315001Y-129315000D02*
G01*
X38185000Y-129315000D01*
X38185000Y-118765098D01*
X43615000Y-118765098D01*
X43615000Y-119234902D01*
X43706654Y-119695679D01*
X43886440Y-120129721D01*
X44147450Y-120520349D01*
X44479651Y-120852550D01*
X44870279Y-121113560D01*
X45304321Y-121293346D01*
X45765098Y-121385000D01*
X46234902Y-121385000D01*
X46695679Y-121293346D01*
X47129721Y-121113560D01*
X47520349Y-120852550D01*
X47852550Y-120520349D01*
X48113560Y-120129721D01*
X48293346Y-119695679D01*
X48385000Y-119234902D01*
X48385000Y-118765098D01*
X53615000Y-118765098D01*
X53615000Y-119234902D01*
X53706654Y-119695679D01*
X53886440Y-120129721D01*
X54147450Y-120520349D01*
X54479651Y-120852550D01*
X54870279Y-121113560D01*
X55304321Y-121293346D01*
X55765098Y-121385000D01*
X56234902Y-121385000D01*
X56695679Y-121293346D01*
X57129721Y-121113560D01*
X57520349Y-120852550D01*
X57852550Y-120520349D01*
X58113560Y-120129721D01*
X58293346Y-119695679D01*
X58385000Y-119234902D01*
X58385000Y-118765098D01*
X63615000Y-118765098D01*
X63615000Y-119234902D01*
X63706654Y-119695679D01*
X63886440Y-120129721D01*
X64147450Y-120520349D01*
X64479651Y-120852550D01*
X64870279Y-121113560D01*
X65304321Y-121293346D01*
X65765098Y-121385000D01*
X66234902Y-121385000D01*
X66695679Y-121293346D01*
X67129721Y-121113560D01*
X67520349Y-120852550D01*
X67852550Y-120520349D01*
X68113560Y-120129721D01*
X68293346Y-119695679D01*
X68385000Y-119234902D01*
X68385000Y-118765098D01*
X68293346Y-118304321D01*
X68113560Y-117870279D01*
X67852550Y-117479651D01*
X67520349Y-117147450D01*
X67129721Y-116886440D01*
X66695679Y-116706654D01*
X66234902Y-116615000D01*
X65765098Y-116615000D01*
X65304321Y-116706654D01*
X64870279Y-116886440D01*
X64479651Y-117147450D01*
X64147450Y-117479651D01*
X63886440Y-117870279D01*
X63706654Y-118304321D01*
X63615000Y-118765098D01*
X58385000Y-118765098D01*
X58293346Y-118304321D01*
X58113560Y-117870279D01*
X57852550Y-117479651D01*
X57520349Y-117147450D01*
X57129721Y-116886440D01*
X56695679Y-116706654D01*
X56234902Y-116615000D01*
X55765098Y-116615000D01*
X55304321Y-116706654D01*
X54870279Y-116886440D01*
X54479651Y-117147450D01*
X54147450Y-117479651D01*
X53886440Y-117870279D01*
X53706654Y-118304321D01*
X53615000Y-118765098D01*
X48385000Y-118765098D01*
X48293346Y-118304321D01*
X48113560Y-117870279D01*
X47852550Y-117479651D01*
X47520349Y-117147450D01*
X47129721Y-116886440D01*
X46695679Y-116706654D01*
X46234902Y-116615000D01*
X45765098Y-116615000D01*
X45304321Y-116706654D01*
X44870279Y-116886440D01*
X44479651Y-117147450D01*
X44147450Y-117479651D01*
X43886440Y-117870279D01*
X43706654Y-118304321D01*
X43615000Y-118765098D01*
X38185000Y-118765098D01*
X38185000Y-109948514D01*
X45165000Y-109948514D01*
X45165000Y-110211486D01*
X45216304Y-110469405D01*
X45316939Y-110712359D01*
X45463038Y-110931013D01*
X45648987Y-111116962D01*
X45867641Y-111263061D01*
X46110595Y-111363696D01*
X46368514Y-111415000D01*
X46631486Y-111415000D01*
X46889405Y-111363696D01*
X47132359Y-111263061D01*
X47351013Y-111116962D01*
X47536962Y-110931013D01*
X47683061Y-110712359D01*
X47783696Y-110469405D01*
X47835000Y-110211486D01*
X47835000Y-109948514D01*
X47783696Y-109690595D01*
X47683061Y-109447641D01*
X47536962Y-109228987D01*
X47351013Y-109043038D01*
X47132359Y-108896939D01*
X46889405Y-108796304D01*
X46631486Y-108745000D01*
X46368514Y-108745000D01*
X46110595Y-108796304D01*
X45867641Y-108896939D01*
X45648987Y-109043038D01*
X45463038Y-109228987D01*
X45316939Y-109447641D01*
X45216304Y-109690595D01*
X45165000Y-109948514D01*
X38185000Y-109948514D01*
X38185000Y-107868514D01*
X48085000Y-107868514D01*
X48085000Y-108131486D01*
X48136304Y-108389405D01*
X48236939Y-108632359D01*
X48383038Y-108851013D01*
X48568987Y-109036962D01*
X48787641Y-109183061D01*
X49030595Y-109283696D01*
X49288514Y-109335000D01*
X49551486Y-109335000D01*
X49809405Y-109283696D01*
X50052359Y-109183061D01*
X50271013Y-109036962D01*
X50456962Y-108851013D01*
X50603061Y-108632359D01*
X50703696Y-108389405D01*
X50755000Y-108131486D01*
X50755000Y-107868514D01*
X50703696Y-107610595D01*
X50603061Y-107367641D01*
X50456962Y-107148987D01*
X50271013Y-106963038D01*
X50052359Y-106816939D01*
X49809405Y-106716304D01*
X49551486Y-106665000D01*
X49288514Y-106665000D01*
X49030595Y-106716304D01*
X48787641Y-106816939D01*
X48568987Y-106963038D01*
X48383038Y-107148987D01*
X48236939Y-107367641D01*
X48136304Y-107610595D01*
X48085000Y-107868514D01*
X38185000Y-107868514D01*
X38185000Y-104868514D01*
X45165000Y-104868514D01*
X45165000Y-105131486D01*
X45216304Y-105389405D01*
X45316939Y-105632359D01*
X45463038Y-105851013D01*
X45648987Y-106036962D01*
X45867641Y-106183061D01*
X46110595Y-106283696D01*
X46368514Y-106335000D01*
X46631486Y-106335000D01*
X46889405Y-106283696D01*
X47132359Y-106183061D01*
X47351013Y-106036962D01*
X47352975Y-106035000D01*
X49571290Y-106035000D01*
X52232196Y-108695907D01*
X52264604Y-108735396D01*
X52304092Y-108767803D01*
X52422202Y-108864734D01*
X52482454Y-108896939D01*
X52602007Y-108960841D01*
X52797105Y-109020024D01*
X52949162Y-109035000D01*
X52949165Y-109035000D01*
X53000000Y-109040007D01*
X53050835Y-109035000D01*
X53321290Y-109035000D01*
X56379822Y-112093533D01*
X56250000Y-112287827D01*
X56114637Y-112085241D01*
X55914759Y-111885363D01*
X55679727Y-111728320D01*
X55418574Y-111620147D01*
X55141335Y-111565000D01*
X54858665Y-111565000D01*
X54581426Y-111620147D01*
X54320273Y-111728320D01*
X54085241Y-111885363D01*
X53885363Y-112085241D01*
X53728320Y-112320273D01*
X53620147Y-112581426D01*
X53565000Y-112858665D01*
X53565000Y-113141335D01*
X53620147Y-113418574D01*
X53728320Y-113679727D01*
X53885363Y-113914759D01*
X54085241Y-114114637D01*
X54320273Y-114271680D01*
X54581426Y-114379853D01*
X54858665Y-114435000D01*
X55141335Y-114435000D01*
X55418574Y-114379853D01*
X55679727Y-114271680D01*
X55914759Y-114114637D01*
X56114637Y-113914759D01*
X56250000Y-113712173D01*
X56385363Y-113914759D01*
X56585241Y-114114637D01*
X56820273Y-114271680D01*
X57081426Y-114379853D01*
X57358665Y-114435000D01*
X57641335Y-114435000D01*
X57918574Y-114379853D01*
X58179727Y-114271680D01*
X58414759Y-114114637D01*
X58614637Y-113914759D01*
X58771680Y-113679727D01*
X58879853Y-113418574D01*
X58935000Y-113141335D01*
X58935000Y-113028710D01*
X62515196Y-109448514D01*
X65165000Y-109448514D01*
X65165000Y-109711486D01*
X65216304Y-109969405D01*
X65316939Y-110212359D01*
X65463038Y-110431013D01*
X65648987Y-110616962D01*
X65867641Y-110763061D01*
X66110595Y-110863696D01*
X66368514Y-110915000D01*
X66631486Y-110915000D01*
X66889405Y-110863696D01*
X67132359Y-110763061D01*
X67351013Y-110616962D01*
X67536962Y-110431013D01*
X67683061Y-110212359D01*
X67783696Y-109969405D01*
X67835000Y-109711486D01*
X67835000Y-109448514D01*
X67783696Y-109190595D01*
X67683061Y-108947641D01*
X67536962Y-108728987D01*
X67351013Y-108543038D01*
X67132359Y-108396939D01*
X66889405Y-108296304D01*
X66631486Y-108245000D01*
X66368514Y-108245000D01*
X66110595Y-108296304D01*
X65867641Y-108396939D01*
X65648987Y-108543038D01*
X65463038Y-108728987D01*
X65316939Y-108947641D01*
X65216304Y-109190595D01*
X65165000Y-109448514D01*
X62515196Y-109448514D01*
X62628711Y-109335000D01*
X62711486Y-109335000D01*
X62969405Y-109283696D01*
X63212359Y-109183061D01*
X63431013Y-109036962D01*
X63616962Y-108851013D01*
X63763061Y-108632359D01*
X63863696Y-108389405D01*
X63915000Y-108131486D01*
X63915000Y-108128710D01*
X66235224Y-105808487D01*
X66368514Y-105835000D01*
X66631486Y-105835000D01*
X66889405Y-105783696D01*
X67132359Y-105683061D01*
X67351013Y-105536962D01*
X67536962Y-105351013D01*
X67683061Y-105132359D01*
X67783696Y-104889405D01*
X67835000Y-104631486D01*
X67835000Y-104368514D01*
X67783696Y-104110595D01*
X67683061Y-103867641D01*
X67536962Y-103648987D01*
X67351013Y-103463038D01*
X67154594Y-103331796D01*
X67299727Y-103271680D01*
X67534759Y-103114637D01*
X67734637Y-102914759D01*
X67891680Y-102679727D01*
X67999853Y-102418574D01*
X68055000Y-102141335D01*
X68055000Y-101858665D01*
X67999853Y-101581426D01*
X67891680Y-101320273D01*
X67734637Y-101085241D01*
X67534759Y-100885363D01*
X67299727Y-100728320D01*
X67038574Y-100620147D01*
X66761335Y-100565000D01*
X66478665Y-100565000D01*
X66201426Y-100620147D01*
X65940273Y-100728320D01*
X65705241Y-100885363D01*
X65625604Y-100965000D01*
X65070827Y-100965000D01*
X65019999Y-100959994D01*
X64969171Y-100965000D01*
X64969162Y-100965000D01*
X64817105Y-100979976D01*
X64622007Y-101039159D01*
X64553984Y-101075518D01*
X64442202Y-101135266D01*
X64425269Y-101149163D01*
X64284604Y-101264604D01*
X64252197Y-101304092D01*
X58591290Y-106965000D01*
X58352975Y-106965000D01*
X58351013Y-106963038D01*
X58132359Y-106816939D01*
X57889405Y-106716304D01*
X57631486Y-106665000D01*
X57368514Y-106665000D01*
X57110595Y-106716304D01*
X56867641Y-106816939D01*
X56648987Y-106963038D01*
X56463038Y-107148987D01*
X56316939Y-107367641D01*
X56216304Y-107610595D01*
X56165000Y-107868514D01*
X56165000Y-108131486D01*
X56216304Y-108389405D01*
X56316939Y-108632359D01*
X56463038Y-108851013D01*
X56648987Y-109036962D01*
X56867641Y-109183061D01*
X57110595Y-109283696D01*
X57368514Y-109335000D01*
X57631486Y-109335000D01*
X57889405Y-109283696D01*
X58132359Y-109183061D01*
X58351013Y-109036962D01*
X58352975Y-109035000D01*
X58969172Y-109035000D01*
X59020000Y-109040006D01*
X59070828Y-109035000D01*
X59070838Y-109035000D01*
X59222895Y-109020024D01*
X59417993Y-108960841D01*
X59597797Y-108864734D01*
X59755396Y-108735396D01*
X59787807Y-108695903D01*
X65448711Y-103035000D01*
X65625604Y-103035000D01*
X65705241Y-103114637D01*
X65940273Y-103271680D01*
X65958589Y-103279267D01*
X65867641Y-103316939D01*
X65648987Y-103463038D01*
X65463038Y-103648987D01*
X65435786Y-103689773D01*
X65344604Y-103764604D01*
X65312197Y-103804092D01*
X62451290Y-106665000D01*
X62448514Y-106665000D01*
X62190595Y-106716304D01*
X61947641Y-106816939D01*
X61728987Y-106963038D01*
X61543038Y-107148987D01*
X61396939Y-107367641D01*
X61296304Y-107610595D01*
X61264175Y-107772114D01*
X58125000Y-110911289D01*
X55730805Y-108517095D01*
X55783696Y-108389405D01*
X55835000Y-108131486D01*
X55835000Y-107868514D01*
X55783696Y-107610595D01*
X55683061Y-107367641D01*
X55536962Y-107148987D01*
X55351013Y-106963038D01*
X55132359Y-106816939D01*
X54889405Y-106716304D01*
X54631486Y-106665000D01*
X54368514Y-106665000D01*
X54110595Y-106716304D01*
X53867641Y-106816939D01*
X53648987Y-106963038D01*
X53647025Y-106965000D01*
X53428711Y-106965000D01*
X50767807Y-104304097D01*
X50735396Y-104264604D01*
X50577797Y-104135266D01*
X50397993Y-104039159D01*
X50202895Y-103979976D01*
X50050838Y-103965000D01*
X50050828Y-103965000D01*
X50000000Y-103959994D01*
X49949172Y-103965000D01*
X47352975Y-103965000D01*
X47351013Y-103963038D01*
X47132359Y-103816939D01*
X46889405Y-103716304D01*
X46631486Y-103665000D01*
X46368514Y-103665000D01*
X46110595Y-103716304D01*
X45867641Y-103816939D01*
X45648987Y-103963038D01*
X45463038Y-104148987D01*
X45316939Y-104367641D01*
X45216304Y-104610595D01*
X45165000Y-104868514D01*
X38185000Y-104868514D01*
X38185000Y-101200000D01*
X45061928Y-101200000D01*
X45061928Y-102800000D01*
X45074188Y-102924482D01*
X45110498Y-103044180D01*
X45169463Y-103154494D01*
X45248815Y-103251185D01*
X45345506Y-103330537D01*
X45455820Y-103389502D01*
X45575518Y-103425812D01*
X45700000Y-103438072D01*
X47300000Y-103438072D01*
X47424482Y-103425812D01*
X47544180Y-103389502D01*
X47654494Y-103330537D01*
X47751185Y-103251185D01*
X47830537Y-103154494D01*
X47889502Y-103044180D01*
X47925812Y-102924482D01*
X47938072Y-102800000D01*
X47938072Y-101200000D01*
X47925812Y-101075518D01*
X47889502Y-100955820D01*
X47830537Y-100845506D01*
X47751185Y-100748815D01*
X47654494Y-100669463D01*
X47544180Y-100610498D01*
X47424482Y-100574188D01*
X47300000Y-100561928D01*
X45700000Y-100561928D01*
X45575518Y-100574188D01*
X45455820Y-100610498D01*
X45345506Y-100669463D01*
X45248815Y-100748815D01*
X45169463Y-100845506D01*
X45110498Y-100955820D01*
X45074188Y-101075518D01*
X45061928Y-101200000D01*
X38185000Y-101200000D01*
X38185000Y-78238665D01*
X41945000Y-78238665D01*
X41945000Y-78521335D01*
X42000147Y-78798574D01*
X42108320Y-79059727D01*
X42265363Y-79294759D01*
X42465241Y-79494637D01*
X42697759Y-79650000D01*
X42465241Y-79805363D01*
X42265363Y-80005241D01*
X42108320Y-80240273D01*
X42000147Y-80501426D01*
X41945000Y-80778665D01*
X41945000Y-81061335D01*
X42000147Y-81338574D01*
X42108320Y-81599727D01*
X42265363Y-81834759D01*
X42465241Y-82034637D01*
X42697759Y-82190000D01*
X42465241Y-82345363D01*
X42265363Y-82545241D01*
X42108320Y-82780273D01*
X42000147Y-83041426D01*
X41945000Y-83318665D01*
X41945000Y-83601335D01*
X42000147Y-83878574D01*
X42108320Y-84139727D01*
X42265363Y-84374759D01*
X42465241Y-84574637D01*
X42697759Y-84730000D01*
X42465241Y-84885363D01*
X42265363Y-85085241D01*
X42108320Y-85320273D01*
X42000147Y-85581426D01*
X41945000Y-85858665D01*
X41945000Y-86141335D01*
X42000147Y-86418574D01*
X42108320Y-86679727D01*
X42265363Y-86914759D01*
X42465241Y-87114637D01*
X42700273Y-87271680D01*
X42961426Y-87379853D01*
X43238665Y-87435000D01*
X43521335Y-87435000D01*
X43798574Y-87379853D01*
X44059727Y-87271680D01*
X44294759Y-87114637D01*
X44494637Y-86914759D01*
X44651680Y-86679727D01*
X44759853Y-86418574D01*
X44778935Y-86322645D01*
X45345000Y-86888711D01*
X45345000Y-90037025D01*
X45271013Y-89963038D01*
X45052359Y-89816939D01*
X44809405Y-89716304D01*
X44551486Y-89665000D01*
X44288514Y-89665000D01*
X44030595Y-89716304D01*
X43787641Y-89816939D01*
X43568987Y-89963038D01*
X43383038Y-90148987D01*
X43236939Y-90367641D01*
X43136304Y-90610595D01*
X43085000Y-90868514D01*
X43085000Y-91131486D01*
X43136304Y-91389405D01*
X43236939Y-91632359D01*
X43383038Y-91851013D01*
X43568987Y-92036962D01*
X43787641Y-92183061D01*
X44030595Y-92283696D01*
X44288514Y-92335000D01*
X44551486Y-92335000D01*
X44809405Y-92283696D01*
X45052359Y-92183061D01*
X45271013Y-92036962D01*
X45345000Y-91962975D01*
X45345001Y-96607713D01*
X45335820Y-96610498D01*
X45225506Y-96669463D01*
X45128815Y-96748815D01*
X45049463Y-96845506D01*
X44990498Y-96955820D01*
X44954188Y-97075518D01*
X44941928Y-97200000D01*
X44941928Y-98800000D01*
X44954188Y-98924482D01*
X44990498Y-99044180D01*
X45049463Y-99154494D01*
X45128815Y-99251185D01*
X45225506Y-99330537D01*
X45335820Y-99389502D01*
X45455518Y-99425812D01*
X45580000Y-99438072D01*
X47180000Y-99438072D01*
X47304482Y-99425812D01*
X47424180Y-99389502D01*
X47534494Y-99330537D01*
X47631185Y-99251185D01*
X47710537Y-99154494D01*
X47769502Y-99044180D01*
X47805812Y-98924482D01*
X47818072Y-98800000D01*
X47818072Y-97200000D01*
X47805812Y-97075518D01*
X47769502Y-96955820D01*
X47710537Y-96845506D01*
X47631185Y-96748815D01*
X47534494Y-96669463D01*
X47424180Y-96610498D01*
X47415000Y-96607713D01*
X47415000Y-86510835D01*
X47420007Y-86460000D01*
X47415000Y-86409162D01*
X47400024Y-86257105D01*
X47340841Y-86062007D01*
X47286766Y-85960840D01*
X47244734Y-85882202D01*
X47147803Y-85764092D01*
X47115396Y-85724604D01*
X47075908Y-85692197D01*
X44815000Y-83431290D01*
X44815000Y-83318665D01*
X44759853Y-83041426D01*
X44651680Y-82780273D01*
X44494637Y-82545241D01*
X44294759Y-82345363D01*
X44062241Y-82190000D01*
X44294759Y-82034637D01*
X44374396Y-81955000D01*
X44929172Y-81955000D01*
X44980000Y-81960006D01*
X45030828Y-81955000D01*
X45030838Y-81955000D01*
X45182895Y-81940024D01*
X45377993Y-81880841D01*
X45557797Y-81784734D01*
X45715396Y-81655396D01*
X45747807Y-81615903D01*
X49404511Y-77959200D01*
X49621069Y-77959200D01*
X49620147Y-77961426D01*
X49565000Y-78238665D01*
X49565000Y-78521335D01*
X49620147Y-78798574D01*
X49728320Y-79059727D01*
X49885363Y-79294759D01*
X50085241Y-79494637D01*
X50317759Y-79650000D01*
X50085241Y-79805363D01*
X49885363Y-80005241D01*
X49728320Y-80240273D01*
X49620147Y-80501426D01*
X49565000Y-80778665D01*
X49565000Y-80891290D01*
X48903697Y-81552593D01*
X48864204Y-81585004D01*
X48734866Y-81742603D01*
X48638759Y-81922408D01*
X48579576Y-82117506D01*
X48564600Y-82269563D01*
X48564600Y-82269572D01*
X48559594Y-82320400D01*
X48564600Y-82371228D01*
X48564601Y-89079662D01*
X48559594Y-89130500D01*
X48579577Y-89333395D01*
X48638760Y-89528493D01*
X48734866Y-89708297D01*
X48824027Y-89816939D01*
X48839473Y-89835760D01*
X48648987Y-89963038D01*
X48463038Y-90148987D01*
X48316939Y-90367641D01*
X48216304Y-90610595D01*
X48165000Y-90868514D01*
X48165000Y-91131486D01*
X48216304Y-91389405D01*
X48316939Y-91632359D01*
X48463038Y-91851013D01*
X48648987Y-92036962D01*
X48867641Y-92183061D01*
X49110595Y-92283696D01*
X49368514Y-92335000D01*
X49631486Y-92335000D01*
X49889405Y-92283696D01*
X50132359Y-92183061D01*
X50351013Y-92036962D01*
X50536962Y-91851013D01*
X50664911Y-91659522D01*
X52965000Y-93959611D01*
X52965001Y-97005603D01*
X52885363Y-97085241D01*
X52728320Y-97320273D01*
X52620147Y-97581426D01*
X52565000Y-97858665D01*
X52565000Y-98141335D01*
X52620147Y-98418574D01*
X52728320Y-98679727D01*
X52885363Y-98914759D01*
X53085241Y-99114637D01*
X53320273Y-99271680D01*
X53581426Y-99379853D01*
X53858665Y-99435000D01*
X54141335Y-99435000D01*
X54418574Y-99379853D01*
X54679727Y-99271680D01*
X54914759Y-99114637D01*
X55114637Y-98914759D01*
X55271680Y-98679727D01*
X55379853Y-98418574D01*
X55435000Y-98141335D01*
X55435000Y-97858665D01*
X55379853Y-97581426D01*
X55271680Y-97320273D01*
X55114637Y-97085241D01*
X55035000Y-97005604D01*
X55035000Y-93581727D01*
X55040006Y-93530899D01*
X55035000Y-93480071D01*
X55035000Y-93480062D01*
X55020024Y-93328005D01*
X54960841Y-93132907D01*
X54916104Y-93049209D01*
X54864734Y-92953102D01*
X54767803Y-92834992D01*
X54735396Y-92795504D01*
X54695908Y-92763097D01*
X52801325Y-90868514D01*
X61665000Y-90868514D01*
X61665000Y-91131486D01*
X61716304Y-91389405D01*
X61816939Y-91632359D01*
X61963038Y-91851013D01*
X62148987Y-92036962D01*
X62367641Y-92183061D01*
X62610595Y-92283696D01*
X62868514Y-92335000D01*
X63131486Y-92335000D01*
X63389405Y-92283696D01*
X63632359Y-92183061D01*
X63851013Y-92036962D01*
X64036962Y-91851013D01*
X64183061Y-91632359D01*
X64283696Y-91389405D01*
X64335000Y-91131486D01*
X64335000Y-90868514D01*
X64283696Y-90610595D01*
X64183061Y-90367641D01*
X64036962Y-90148987D01*
X63851013Y-89963038D01*
X63632359Y-89816939D01*
X63389405Y-89716304D01*
X63131486Y-89665000D01*
X62868514Y-89665000D01*
X62610595Y-89716304D01*
X62367641Y-89816939D01*
X62148987Y-89963038D01*
X61963038Y-90148987D01*
X61816939Y-90367641D01*
X61716304Y-90610595D01*
X61665000Y-90868514D01*
X52801325Y-90868514D01*
X50634600Y-88701790D01*
X50634600Y-87438072D01*
X51800000Y-87438072D01*
X51924482Y-87425812D01*
X52044180Y-87389502D01*
X52154494Y-87330537D01*
X52251185Y-87251185D01*
X52330537Y-87154494D01*
X52389502Y-87044180D01*
X52425812Y-86924482D01*
X52438072Y-86800000D01*
X52438072Y-85200000D01*
X52425812Y-85075518D01*
X52389502Y-84955820D01*
X52330537Y-84845506D01*
X52251185Y-84748815D01*
X52154494Y-84669463D01*
X52044180Y-84610498D01*
X51924482Y-84574188D01*
X51916039Y-84573357D01*
X51994396Y-84495000D01*
X52031290Y-84495000D01*
X52232193Y-84695903D01*
X52264604Y-84735396D01*
X52422203Y-84864734D01*
X52602007Y-84960841D01*
X52797105Y-85020024D01*
X52949162Y-85035000D01*
X52949171Y-85035000D01*
X52999999Y-85040006D01*
X53050827Y-85035000D01*
X53647025Y-85035000D01*
X53648987Y-85036962D01*
X53867641Y-85183061D01*
X54110595Y-85283696D01*
X54368514Y-85335000D01*
X54631486Y-85335000D01*
X54889405Y-85283696D01*
X55132359Y-85183061D01*
X55351013Y-85036962D01*
X55536962Y-84851013D01*
X55683061Y-84632359D01*
X55783696Y-84389405D01*
X55835000Y-84131486D01*
X55835000Y-83868514D01*
X55783696Y-83610595D01*
X55683061Y-83367641D01*
X55536962Y-83148987D01*
X55351013Y-82963038D01*
X55132359Y-82816939D01*
X54889405Y-82716304D01*
X54631486Y-82665000D01*
X54368514Y-82665000D01*
X54110595Y-82716304D01*
X53867641Y-82816939D01*
X53648987Y-82963038D01*
X53647025Y-82965000D01*
X53508990Y-82965000D01*
X53464734Y-82882203D01*
X53335396Y-82724604D01*
X53177797Y-82595266D01*
X52997993Y-82499159D01*
X52802895Y-82439976D01*
X52650838Y-82425000D01*
X52600000Y-82419993D01*
X52549162Y-82425000D01*
X51994396Y-82425000D01*
X51914759Y-82345363D01*
X51682241Y-82190000D01*
X51914759Y-82034637D01*
X52114637Y-81834759D01*
X52271680Y-81599727D01*
X52379853Y-81338574D01*
X52435000Y-81061335D01*
X52435000Y-80778665D01*
X52379853Y-80501426D01*
X52271680Y-80240273D01*
X52114637Y-80005241D01*
X51914759Y-79805363D01*
X51682241Y-79650000D01*
X51914759Y-79494637D01*
X52114637Y-79294759D01*
X52271680Y-79059727D01*
X52379853Y-78798574D01*
X52435000Y-78521335D01*
X52435000Y-78318710D01*
X53165000Y-79048711D01*
X53165000Y-79051486D01*
X53216304Y-79309405D01*
X53316939Y-79552359D01*
X53463038Y-79771013D01*
X53648987Y-79956962D01*
X53867641Y-80103061D01*
X54110595Y-80203696D01*
X54368514Y-80255000D01*
X54631486Y-80255000D01*
X54889405Y-80203696D01*
X55132359Y-80103061D01*
X55351013Y-79956962D01*
X55536962Y-79771013D01*
X55683061Y-79552359D01*
X55783696Y-79309405D01*
X55835000Y-79051486D01*
X55835000Y-78788514D01*
X55783696Y-78530595D01*
X55683061Y-78287641D01*
X55536962Y-78068987D01*
X55351013Y-77883038D01*
X55132359Y-77736939D01*
X54889405Y-77636304D01*
X54631486Y-77585000D01*
X54628711Y-77585000D01*
X53272007Y-76228297D01*
X53239596Y-76188804D01*
X53081997Y-76059466D01*
X52902193Y-75963359D01*
X52707095Y-75904176D01*
X52555038Y-75889200D01*
X52555028Y-75889200D01*
X52504200Y-75884194D01*
X52453372Y-75889200D01*
X49404511Y-75889200D01*
X48450310Y-74935000D01*
X48641335Y-74935000D01*
X48918574Y-74879853D01*
X49179727Y-74771680D01*
X49414759Y-74614637D01*
X49614637Y-74414759D01*
X49750000Y-74212173D01*
X49885363Y-74414759D01*
X50085241Y-74614637D01*
X50320273Y-74771680D01*
X50581426Y-74879853D01*
X50858665Y-74935000D01*
X51141335Y-74935000D01*
X51418574Y-74879853D01*
X51679727Y-74771680D01*
X51914759Y-74614637D01*
X51994396Y-74535000D01*
X52329162Y-74535000D01*
X52380000Y-74540007D01*
X52430838Y-74535000D01*
X60505604Y-74535000D01*
X60585241Y-74614637D01*
X60820273Y-74771680D01*
X61081426Y-74879853D01*
X61358665Y-74935000D01*
X61641335Y-74935000D01*
X61918574Y-74879853D01*
X62179727Y-74771680D01*
X62414759Y-74614637D01*
X62614637Y-74414759D01*
X62750000Y-74212173D01*
X62885363Y-74414759D01*
X63085241Y-74614637D01*
X63320273Y-74771680D01*
X63337482Y-74778808D01*
X63106090Y-75010200D01*
X62366827Y-75010200D01*
X62315999Y-75005194D01*
X62265171Y-75010200D01*
X62265162Y-75010200D01*
X62113105Y-75025176D01*
X61918007Y-75084359D01*
X61834309Y-75129096D01*
X61738202Y-75180466D01*
X61672612Y-75234295D01*
X61580604Y-75309804D01*
X61548197Y-75349292D01*
X59213690Y-77683800D01*
X58832035Y-77683800D01*
X58781200Y-77678793D01*
X58730365Y-77683800D01*
X58730362Y-77683800D01*
X58727444Y-77684087D01*
X58631486Y-77665000D01*
X58368514Y-77665000D01*
X58110595Y-77716304D01*
X57867641Y-77816939D01*
X57648987Y-77963038D01*
X57463038Y-78148987D01*
X57316939Y-78367641D01*
X57216304Y-78610595D01*
X57165000Y-78868514D01*
X57165000Y-79131486D01*
X57216304Y-79389405D01*
X57316939Y-79632359D01*
X57463038Y-79851013D01*
X57648987Y-80036962D01*
X57867641Y-80183061D01*
X58110595Y-80283696D01*
X58368514Y-80335000D01*
X58631486Y-80335000D01*
X58889405Y-80283696D01*
X59132359Y-80183061D01*
X59351013Y-80036962D01*
X59365000Y-80022975D01*
X59365001Y-80869153D01*
X59359993Y-80920000D01*
X59379976Y-81122895D01*
X59439159Y-81317993D01*
X59535266Y-81497797D01*
X59664604Y-81655396D01*
X59822203Y-81784734D01*
X60002007Y-81880841D01*
X60197105Y-81940024D01*
X60349162Y-81955000D01*
X60400000Y-81960007D01*
X60450838Y-81955000D01*
X61005604Y-81955000D01*
X61085241Y-82034637D01*
X61317759Y-82190000D01*
X61085241Y-82345363D01*
X60885363Y-82545241D01*
X60728320Y-82780273D01*
X60620147Y-83041426D01*
X60565000Y-83318665D01*
X60565000Y-83601335D01*
X60620147Y-83878574D01*
X60728320Y-84139727D01*
X60885363Y-84374759D01*
X61085241Y-84574637D01*
X61317759Y-84730000D01*
X61085241Y-84885363D01*
X60885363Y-85085241D01*
X60728320Y-85320273D01*
X60620147Y-85581426D01*
X60565000Y-85858665D01*
X60565000Y-86141335D01*
X60574921Y-86191210D01*
X59535000Y-85151290D01*
X59535000Y-84932975D01*
X59536962Y-84931013D01*
X59683061Y-84712359D01*
X59783696Y-84469405D01*
X59835000Y-84211486D01*
X59835000Y-83948514D01*
X59783696Y-83690595D01*
X59683061Y-83447641D01*
X59536962Y-83228987D01*
X59351013Y-83043038D01*
X59132359Y-82896939D01*
X58889405Y-82796304D01*
X58631486Y-82745000D01*
X58368514Y-82745000D01*
X58110595Y-82796304D01*
X57867641Y-82896939D01*
X57648987Y-83043038D01*
X57463038Y-83228987D01*
X57316939Y-83447641D01*
X57216304Y-83690595D01*
X57165000Y-83948514D01*
X57165000Y-84211486D01*
X57216304Y-84469405D01*
X57316939Y-84712359D01*
X57463038Y-84931013D01*
X57465001Y-84932976D01*
X57465001Y-85529163D01*
X57459994Y-85580000D01*
X57479977Y-85782895D01*
X57539160Y-85977993D01*
X57635266Y-86157797D01*
X57732197Y-86275907D01*
X57764605Y-86315396D01*
X57804092Y-86347802D01*
X59607997Y-88151708D01*
X59640404Y-88191196D01*
X59679892Y-88223603D01*
X59798002Y-88320534D01*
X59894109Y-88371904D01*
X59977807Y-88416641D01*
X60172905Y-88475824D01*
X60324962Y-88490800D01*
X60324965Y-88490800D01*
X60375800Y-88495807D01*
X60426635Y-88490800D01*
X67045001Y-88490800D01*
X67045000Y-90147025D01*
X67043038Y-90148987D01*
X66896939Y-90367641D01*
X66796304Y-90610595D01*
X66745000Y-90868514D01*
X66745000Y-91131486D01*
X66796304Y-91389405D01*
X66896939Y-91632359D01*
X67043038Y-91851013D01*
X67228987Y-92036962D01*
X67363290Y-92126700D01*
X60307843Y-99182147D01*
X60330537Y-99154494D01*
X60389502Y-99044180D01*
X60425812Y-98924482D01*
X60438072Y-98800000D01*
X60438072Y-97200000D01*
X60425812Y-97075518D01*
X60389502Y-96955820D01*
X60330537Y-96845506D01*
X60251185Y-96748815D01*
X60154494Y-96669463D01*
X60044180Y-96610498D01*
X59924482Y-96574188D01*
X59800000Y-96561928D01*
X58200000Y-96561928D01*
X58075518Y-96574188D01*
X57955820Y-96610498D01*
X57845506Y-96669463D01*
X57748815Y-96748815D01*
X57669463Y-96845506D01*
X57610498Y-96955820D01*
X57574188Y-97075518D01*
X57561928Y-97200000D01*
X57561928Y-98800000D01*
X57574188Y-98924482D01*
X57610498Y-99044180D01*
X57669463Y-99154494D01*
X57748815Y-99251185D01*
X57845506Y-99330537D01*
X57955820Y-99389502D01*
X58075518Y-99425812D01*
X58200000Y-99438072D01*
X59800000Y-99438072D01*
X59924482Y-99425812D01*
X60044180Y-99389502D01*
X60154494Y-99330537D01*
X60182147Y-99307843D01*
X59324990Y-100165000D01*
X59050838Y-100165000D01*
X59000000Y-100159993D01*
X58949162Y-100165000D01*
X56570835Y-100165000D01*
X56520000Y-100159993D01*
X56469165Y-100165000D01*
X56469162Y-100165000D01*
X56317105Y-100179976D01*
X56122007Y-100239159D01*
X56038309Y-100283896D01*
X55942202Y-100335266D01*
X55824092Y-100432197D01*
X55784604Y-100464604D01*
X55752197Y-100504092D01*
X55291290Y-100965000D01*
X55114396Y-100965000D01*
X55034759Y-100885363D01*
X54799727Y-100728320D01*
X54538574Y-100620147D01*
X54261335Y-100565000D01*
X53978665Y-100565000D01*
X53701426Y-100620147D01*
X53440273Y-100728320D01*
X53205241Y-100885363D01*
X53005363Y-101085241D01*
X52848320Y-101320273D01*
X52740147Y-101581426D01*
X52685000Y-101858665D01*
X52685000Y-102141335D01*
X52740147Y-102418574D01*
X52848320Y-102679727D01*
X53005363Y-102914759D01*
X53205241Y-103114637D01*
X53440273Y-103271680D01*
X53701426Y-103379853D01*
X53978665Y-103435000D01*
X54261335Y-103435000D01*
X54538574Y-103379853D01*
X54799727Y-103271680D01*
X55034759Y-103114637D01*
X55114396Y-103035000D01*
X55669172Y-103035000D01*
X55720000Y-103040006D01*
X55770828Y-103035000D01*
X55770838Y-103035000D01*
X55922895Y-103020024D01*
X56117993Y-102960841D01*
X56297797Y-102864734D01*
X56455396Y-102735396D01*
X56487807Y-102695903D01*
X56948711Y-102235000D01*
X57561928Y-102235000D01*
X57561928Y-102800000D01*
X57574188Y-102924482D01*
X57610498Y-103044180D01*
X57669463Y-103154494D01*
X57748815Y-103251185D01*
X57845506Y-103330537D01*
X57955820Y-103389502D01*
X58075518Y-103425812D01*
X58200000Y-103438072D01*
X59800000Y-103438072D01*
X59924482Y-103425812D01*
X60044180Y-103389502D01*
X60154494Y-103330537D01*
X60251185Y-103251185D01*
X60330537Y-103154494D01*
X60389502Y-103044180D01*
X60425812Y-102924482D01*
X60438072Y-102800000D01*
X60438072Y-101977270D01*
X60489096Y-101935396D01*
X60521507Y-101895903D01*
X64558745Y-97858665D01*
X65185000Y-97858665D01*
X65185000Y-98141335D01*
X65240147Y-98418574D01*
X65348320Y-98679727D01*
X65505363Y-98914759D01*
X65705241Y-99114637D01*
X65940273Y-99271680D01*
X66201426Y-99379853D01*
X66478665Y-99435000D01*
X66761335Y-99435000D01*
X67038574Y-99379853D01*
X67299727Y-99271680D01*
X67534759Y-99114637D01*
X67734637Y-98914759D01*
X67891680Y-98679727D01*
X67999853Y-98418574D01*
X68055000Y-98141335D01*
X68055000Y-97858665D01*
X67999853Y-97581426D01*
X67891680Y-97320273D01*
X67734637Y-97085241D01*
X67534759Y-96885363D01*
X67299727Y-96728320D01*
X67038574Y-96620147D01*
X66761335Y-96565000D01*
X66478665Y-96565000D01*
X66201426Y-96620147D01*
X65940273Y-96728320D01*
X65705241Y-96885363D01*
X65505363Y-97085241D01*
X65348320Y-97320273D01*
X65240147Y-97581426D01*
X65185000Y-97858665D01*
X64558745Y-97858665D01*
X71771308Y-90646103D01*
X71810796Y-90613696D01*
X71843203Y-90574208D01*
X71940134Y-90456098D01*
X72036240Y-90276294D01*
X72036241Y-90276293D01*
X72095424Y-90081195D01*
X72110400Y-89929138D01*
X72110400Y-89929135D01*
X72115407Y-89878300D01*
X72110400Y-89827465D01*
X72110400Y-82426227D01*
X72115406Y-82375399D01*
X72110400Y-82324571D01*
X72110400Y-82324562D01*
X72095424Y-82172505D01*
X72036241Y-81977407D01*
X71984625Y-81880840D01*
X71940134Y-81797602D01*
X71843203Y-81679492D01*
X71810796Y-81640004D01*
X71771308Y-81607597D01*
X71055000Y-80891290D01*
X71055000Y-80778665D01*
X70999853Y-80501426D01*
X70891680Y-80240273D01*
X70734637Y-80005241D01*
X70534759Y-79805363D01*
X70302241Y-79650000D01*
X70534759Y-79494637D01*
X70734637Y-79294759D01*
X70891680Y-79059727D01*
X70999853Y-78798574D01*
X71055000Y-78521335D01*
X71055000Y-78238665D01*
X70999853Y-77961426D01*
X70891680Y-77700273D01*
X70734637Y-77465241D01*
X70534759Y-77265363D01*
X70299727Y-77108320D01*
X70038574Y-77000147D01*
X69761335Y-76945000D01*
X69478665Y-76945000D01*
X69201426Y-77000147D01*
X68940273Y-77108320D01*
X68705241Y-77265363D01*
X68505363Y-77465241D01*
X68348320Y-77700273D01*
X68240147Y-77961426D01*
X68185000Y-78238665D01*
X68185000Y-78521335D01*
X68240147Y-78798574D01*
X68348320Y-79059727D01*
X68505363Y-79294759D01*
X68705241Y-79494637D01*
X68937759Y-79650000D01*
X68705241Y-79805363D01*
X68505363Y-80005241D01*
X68348320Y-80240273D01*
X68240147Y-80501426D01*
X68185000Y-80778665D01*
X68185000Y-81061335D01*
X68240147Y-81338574D01*
X68348320Y-81599727D01*
X68505363Y-81834759D01*
X68705241Y-82034637D01*
X68937759Y-82190000D01*
X68705241Y-82345363D01*
X68505363Y-82545241D01*
X68348320Y-82780273D01*
X68240147Y-83041426D01*
X68185000Y-83318665D01*
X68185000Y-83431289D01*
X67384092Y-84232198D01*
X67344605Y-84264604D01*
X67312198Y-84304092D01*
X67312197Y-84304093D01*
X67215266Y-84422203D01*
X67119160Y-84602007D01*
X67059977Y-84797105D01*
X67039994Y-85000000D01*
X67045001Y-85050838D01*
X67045000Y-86420800D01*
X63378931Y-86420800D01*
X63379853Y-86418574D01*
X63435000Y-86141335D01*
X63435000Y-85858665D01*
X63379853Y-85581426D01*
X63271680Y-85320273D01*
X63114637Y-85085241D01*
X62914759Y-84885363D01*
X62682241Y-84730000D01*
X62914759Y-84574637D01*
X63114637Y-84374759D01*
X63271680Y-84139727D01*
X63379853Y-83878574D01*
X63435000Y-83601335D01*
X63435000Y-83318665D01*
X63379853Y-83041426D01*
X63271680Y-82780273D01*
X63114637Y-82545241D01*
X62914759Y-82345363D01*
X62682241Y-82190000D01*
X62914759Y-82034637D01*
X63114637Y-81834759D01*
X63271680Y-81599727D01*
X63379853Y-81338574D01*
X63435000Y-81061335D01*
X63435000Y-80778665D01*
X63379853Y-80501426D01*
X63271680Y-80240273D01*
X63114637Y-80005241D01*
X62914759Y-79805363D01*
X62682241Y-79650000D01*
X62914759Y-79494637D01*
X63114637Y-79294759D01*
X63271680Y-79059727D01*
X63379853Y-78798574D01*
X63435000Y-78521335D01*
X63435000Y-78238665D01*
X63379853Y-77961426D01*
X63271680Y-77700273D01*
X63114637Y-77465241D01*
X62914759Y-77265363D01*
X62701825Y-77123086D01*
X62744711Y-77080200D01*
X63483972Y-77080200D01*
X63534800Y-77085206D01*
X63585628Y-77080200D01*
X63585638Y-77080200D01*
X63737695Y-77065224D01*
X63932793Y-77006041D01*
X64112597Y-76909934D01*
X64270196Y-76780596D01*
X64302607Y-76741103D01*
X69695908Y-71347803D01*
X69735396Y-71315396D01*
X69767803Y-71275908D01*
X69864734Y-71157798D01*
X69960840Y-70977994D01*
X69960841Y-70977993D01*
X70020024Y-70782895D01*
X70035000Y-70630838D01*
X70035000Y-70630836D01*
X70040007Y-70580000D01*
X70035000Y-70529165D01*
X70035000Y-69932975D01*
X70036962Y-69931013D01*
X70183061Y-69712359D01*
X70283696Y-69469405D01*
X70335000Y-69211486D01*
X70335000Y-68948514D01*
X70283696Y-68690595D01*
X70183061Y-68447641D01*
X70036962Y-68228987D01*
X69851013Y-68043038D01*
X69632359Y-67896939D01*
X69389405Y-67796304D01*
X69131486Y-67745000D01*
X68868514Y-67745000D01*
X68610595Y-67796304D01*
X68367641Y-67896939D01*
X68148987Y-68043038D01*
X67963038Y-68228987D01*
X67816939Y-68447641D01*
X67716304Y-68690595D01*
X67665000Y-68948514D01*
X67665000Y-69211486D01*
X67716304Y-69469405D01*
X67816939Y-69712359D01*
X67963038Y-69931013D01*
X67965001Y-69932976D01*
X67965001Y-70151288D01*
X65278808Y-72837482D01*
X65271680Y-72820273D01*
X65114637Y-72585241D01*
X64914759Y-72385363D01*
X64679727Y-72228320D01*
X64418574Y-72120147D01*
X64141335Y-72065000D01*
X63858665Y-72065000D01*
X63581426Y-72120147D01*
X63320273Y-72228320D01*
X63085241Y-72385363D01*
X62885363Y-72585241D01*
X62750000Y-72787827D01*
X62614637Y-72585241D01*
X62414759Y-72385363D01*
X62179727Y-72228320D01*
X61918574Y-72120147D01*
X61641335Y-72065000D01*
X61358665Y-72065000D01*
X61081426Y-72120147D01*
X60820273Y-72228320D01*
X60585241Y-72385363D01*
X60505604Y-72465000D01*
X53415000Y-72465000D01*
X53415000Y-68994396D01*
X53494637Y-68914759D01*
X53651680Y-68679727D01*
X53759853Y-68418574D01*
X53815000Y-68141335D01*
X53815000Y-67858665D01*
X53768898Y-67626900D01*
X56563190Y-67626900D01*
X57632197Y-68695908D01*
X57664604Y-68735396D01*
X57704092Y-68767803D01*
X57822202Y-68864734D01*
X57845349Y-68877106D01*
X58002007Y-68960841D01*
X58197105Y-69020024D01*
X58349162Y-69035000D01*
X58349171Y-69035000D01*
X58399999Y-69040006D01*
X58450827Y-69035000D01*
X58607713Y-69035000D01*
X58610498Y-69044180D01*
X58669463Y-69154494D01*
X58748815Y-69251185D01*
X58845506Y-69330537D01*
X58955820Y-69389502D01*
X59075518Y-69425812D01*
X59200000Y-69438072D01*
X60800000Y-69438072D01*
X60924482Y-69425812D01*
X61044180Y-69389502D01*
X61154494Y-69330537D01*
X61251185Y-69251185D01*
X61330537Y-69154494D01*
X61389502Y-69044180D01*
X61418521Y-68948514D01*
X63665000Y-68948514D01*
X63665000Y-69211486D01*
X63716304Y-69469405D01*
X63816939Y-69712359D01*
X63963038Y-69931013D01*
X64148987Y-70116962D01*
X64367641Y-70263061D01*
X64610595Y-70363696D01*
X64868514Y-70415000D01*
X65131486Y-70415000D01*
X65389405Y-70363696D01*
X65632359Y-70263061D01*
X65851013Y-70116962D01*
X66036962Y-69931013D01*
X66183061Y-69712359D01*
X66283696Y-69469405D01*
X66335000Y-69211486D01*
X66335000Y-68948514D01*
X66283696Y-68690595D01*
X66183061Y-68447641D01*
X66036962Y-68228987D01*
X65851013Y-68043038D01*
X65632359Y-67896939D01*
X65389405Y-67796304D01*
X65131486Y-67745000D01*
X64868514Y-67745000D01*
X64610595Y-67796304D01*
X64367641Y-67896939D01*
X64148987Y-68043038D01*
X63963038Y-68228987D01*
X63816939Y-68447641D01*
X63716304Y-68690595D01*
X63665000Y-68948514D01*
X61418521Y-68948514D01*
X61425812Y-68924482D01*
X61438072Y-68800000D01*
X61438072Y-67200000D01*
X61425812Y-67075518D01*
X61389502Y-66955820D01*
X61330537Y-66845506D01*
X61251185Y-66748815D01*
X61154494Y-66669463D01*
X61044180Y-66610498D01*
X60924482Y-66574188D01*
X60800000Y-66561928D01*
X59200000Y-66561928D01*
X59075518Y-66574188D01*
X58955820Y-66610498D01*
X58845506Y-66669463D01*
X58748815Y-66748815D01*
X58687382Y-66823671D01*
X58163710Y-66300000D01*
X59128711Y-65335000D01*
X59131486Y-65335000D01*
X59389405Y-65283696D01*
X59632359Y-65183061D01*
X59851013Y-65036962D01*
X59852975Y-65035000D01*
X64147025Y-65035000D01*
X64148987Y-65036962D01*
X64367641Y-65183061D01*
X64610595Y-65283696D01*
X64868514Y-65335000D01*
X65131486Y-65335000D01*
X65389405Y-65283696D01*
X65632359Y-65183061D01*
X65851013Y-65036962D01*
X66036962Y-64851013D01*
X66183061Y-64632359D01*
X66283696Y-64389405D01*
X66335000Y-64131486D01*
X66335000Y-63868514D01*
X66283696Y-63610595D01*
X66183061Y-63367641D01*
X66036962Y-63148987D01*
X65851013Y-62963038D01*
X65632359Y-62816939D01*
X65389405Y-62716304D01*
X65131486Y-62665000D01*
X64868514Y-62665000D01*
X64610595Y-62716304D01*
X64367641Y-62816939D01*
X64148987Y-62963038D01*
X64147025Y-62965000D01*
X59852975Y-62965000D01*
X59851013Y-62963038D01*
X59640999Y-62822712D01*
X66528711Y-55935000D01*
X66641335Y-55935000D01*
X66918574Y-55879853D01*
X67179727Y-55771680D01*
X67414759Y-55614637D01*
X67614637Y-55414759D01*
X67771680Y-55179727D01*
X67879853Y-54918574D01*
X67892298Y-54856009D01*
X67965001Y-54928712D01*
X67965000Y-63147025D01*
X67963038Y-63148987D01*
X67816939Y-63367641D01*
X67716304Y-63610595D01*
X67665000Y-63868514D01*
X67665000Y-64131486D01*
X67716304Y-64389405D01*
X67816939Y-64632359D01*
X67963038Y-64851013D01*
X68148987Y-65036962D01*
X68367641Y-65183061D01*
X68610595Y-65283696D01*
X68868514Y-65335000D01*
X69131486Y-65335000D01*
X69389405Y-65283696D01*
X69632359Y-65183061D01*
X69851013Y-65036962D01*
X70036962Y-64851013D01*
X70183061Y-64632359D01*
X70283696Y-64389405D01*
X70335000Y-64131486D01*
X70335000Y-63868514D01*
X70283696Y-63610595D01*
X70183061Y-63367641D01*
X70036962Y-63148987D01*
X70035000Y-63147025D01*
X70035000Y-54550835D01*
X70040007Y-54500000D01*
X70035000Y-54449162D01*
X70020024Y-54297105D01*
X69960841Y-54102007D01*
X69916104Y-54018309D01*
X69864734Y-53922202D01*
X69767803Y-53804092D01*
X69735396Y-53764604D01*
X69695908Y-53732197D01*
X67935000Y-51971290D01*
X67935000Y-51858665D01*
X67879853Y-51581426D01*
X67771680Y-51320273D01*
X67614637Y-51085241D01*
X67414759Y-50885363D01*
X67179727Y-50728320D01*
X66918574Y-50620147D01*
X66641335Y-50565000D01*
X66358665Y-50565000D01*
X66081426Y-50620147D01*
X65820273Y-50728320D01*
X65585241Y-50885363D01*
X65385363Y-51085241D01*
X65228320Y-51320273D01*
X65120147Y-51581426D01*
X65065000Y-51858665D01*
X65065000Y-52141335D01*
X65120147Y-52418574D01*
X65228320Y-52679727D01*
X65385363Y-52914759D01*
X65585241Y-53114637D01*
X65787827Y-53250000D01*
X65585241Y-53385363D01*
X65385363Y-53585241D01*
X65228320Y-53820273D01*
X65120147Y-54081426D01*
X65065000Y-54358665D01*
X65065000Y-54471289D01*
X56571290Y-62965000D01*
X54772975Y-62965000D01*
X54771013Y-62963038D01*
X54552359Y-62816939D01*
X54309405Y-62716304D01*
X54051486Y-62665000D01*
X53788514Y-62665000D01*
X53530595Y-62716304D01*
X53287641Y-62816939D01*
X53068987Y-62963038D01*
X52883038Y-63148987D01*
X52736939Y-63367641D01*
X52636304Y-63610595D01*
X52585000Y-63868514D01*
X52585000Y-64131486D01*
X52636304Y-64389405D01*
X52736939Y-64632359D01*
X52883038Y-64851013D01*
X53068987Y-65036962D01*
X53287641Y-65183061D01*
X53530595Y-65283696D01*
X53788514Y-65335000D01*
X54051486Y-65335000D01*
X54309405Y-65283696D01*
X54552359Y-65183061D01*
X54771013Y-65036962D01*
X54772975Y-65035000D01*
X56501290Y-65035000D01*
X56295992Y-65240298D01*
X56256505Y-65272704D01*
X56224098Y-65312192D01*
X56224097Y-65312193D01*
X56127166Y-65430303D01*
X56059499Y-65556900D01*
X46458935Y-65556900D01*
X46408100Y-65551893D01*
X46357265Y-65556900D01*
X46357262Y-65556900D01*
X46205205Y-65571876D01*
X46010107Y-65631059D01*
X45926409Y-65675796D01*
X45830302Y-65727166D01*
X45735212Y-65805205D01*
X45672704Y-65856504D01*
X45640297Y-65895992D01*
X43871290Y-67665000D01*
X43868514Y-67665000D01*
X43610595Y-67716304D01*
X43367641Y-67816939D01*
X43148987Y-67963038D01*
X42963038Y-68148987D01*
X42816939Y-68367641D01*
X42716304Y-68610595D01*
X42665000Y-68868514D01*
X42665000Y-69131486D01*
X42716304Y-69389405D01*
X42816939Y-69632359D01*
X42963038Y-69851013D01*
X43148987Y-70036962D01*
X43367641Y-70183061D01*
X43610595Y-70283696D01*
X43868514Y-70335000D01*
X44131486Y-70335000D01*
X44389405Y-70283696D01*
X44632359Y-70183061D01*
X44851013Y-70036962D01*
X45036962Y-69851013D01*
X45183061Y-69632359D01*
X45283696Y-69389405D01*
X45335000Y-69131486D01*
X45335000Y-69128710D01*
X46836811Y-67626900D01*
X50991102Y-67626900D01*
X50945000Y-67858665D01*
X50945000Y-68141335D01*
X51000147Y-68418574D01*
X51108320Y-68679727D01*
X51265363Y-68914759D01*
X51345001Y-68994397D01*
X51345001Y-69549162D01*
X51345000Y-72105512D01*
X51141335Y-72065000D01*
X50858665Y-72065000D01*
X50581426Y-72120147D01*
X50320273Y-72228320D01*
X50085241Y-72385363D01*
X49885363Y-72585241D01*
X49750000Y-72787827D01*
X49614637Y-72585241D01*
X49414759Y-72385363D01*
X49179727Y-72228320D01*
X48918574Y-72120147D01*
X48641335Y-72065000D01*
X48358665Y-72065000D01*
X48118000Y-72112872D01*
X48118000Y-71925710D01*
X48695908Y-71347803D01*
X48735396Y-71315396D01*
X48767803Y-71275908D01*
X48864734Y-71157798D01*
X48960840Y-70977994D01*
X48960841Y-70977993D01*
X49020024Y-70782895D01*
X49035000Y-70630838D01*
X49035000Y-70630835D01*
X49040007Y-70580000D01*
X49035000Y-70529165D01*
X49035000Y-69932975D01*
X49036962Y-69931013D01*
X49183061Y-69712359D01*
X49283696Y-69469405D01*
X49335000Y-69211486D01*
X49335000Y-68948514D01*
X49283696Y-68690595D01*
X49183061Y-68447641D01*
X49036962Y-68228987D01*
X48851013Y-68043038D01*
X48632359Y-67896939D01*
X48389405Y-67796304D01*
X48131486Y-67745000D01*
X47868514Y-67745000D01*
X47610595Y-67796304D01*
X47367641Y-67896939D01*
X47148987Y-68043038D01*
X46963038Y-68228987D01*
X46816939Y-68447641D01*
X46716304Y-68690595D01*
X46665000Y-68948514D01*
X46665000Y-69211486D01*
X46716304Y-69469405D01*
X46816939Y-69712359D01*
X46963038Y-69931013D01*
X46965001Y-69932976D01*
X46965001Y-70151289D01*
X46387097Y-70729193D01*
X46347604Y-70761604D01*
X46218266Y-70919203D01*
X46122159Y-71099008D01*
X46062976Y-71294106D01*
X46048000Y-71446163D01*
X46048000Y-71446172D01*
X46042994Y-71497000D01*
X46048000Y-71547828D01*
X46048001Y-74980562D01*
X46042994Y-75031400D01*
X46062977Y-75234295D01*
X46122160Y-75429393D01*
X46218266Y-75609197D01*
X46315197Y-75727307D01*
X46347605Y-75766796D01*
X46387092Y-75799202D01*
X47512089Y-76924200D01*
X44551290Y-79885000D01*
X44374396Y-79885000D01*
X44294759Y-79805363D01*
X44062241Y-79650000D01*
X44294759Y-79494637D01*
X44494637Y-79294759D01*
X44651680Y-79059727D01*
X44759853Y-78798574D01*
X44815000Y-78521335D01*
X44815000Y-78238665D01*
X44759853Y-77961426D01*
X44651680Y-77700273D01*
X44494637Y-77465241D01*
X44294759Y-77265363D01*
X44059727Y-77108320D01*
X43798574Y-77000147D01*
X43521335Y-76945000D01*
X43238665Y-76945000D01*
X42961426Y-77000147D01*
X42700273Y-77108320D01*
X42465241Y-77265363D01*
X42265363Y-77465241D01*
X42108320Y-77700273D01*
X42000147Y-77961426D01*
X41945000Y-78238665D01*
X38185000Y-78238665D01*
X38185000Y-63788514D01*
X42665000Y-63788514D01*
X42665000Y-64051486D01*
X42716304Y-64309405D01*
X42816939Y-64552359D01*
X42963038Y-64771013D01*
X43148987Y-64956962D01*
X43367641Y-65103061D01*
X43610595Y-65203696D01*
X43868514Y-65255000D01*
X44131486Y-65255000D01*
X44389405Y-65203696D01*
X44632359Y-65103061D01*
X44851013Y-64956962D01*
X45036962Y-64771013D01*
X45183061Y-64552359D01*
X45283696Y-64309405D01*
X45335000Y-64051486D01*
X45335000Y-63788514D01*
X45283696Y-63530595D01*
X45183061Y-63287641D01*
X45036962Y-63068987D01*
X45035000Y-63067025D01*
X45035000Y-62848710D01*
X46965000Y-60918711D01*
X46965000Y-63147025D01*
X46963038Y-63148987D01*
X46816939Y-63367641D01*
X46716304Y-63610595D01*
X46665000Y-63868514D01*
X46665000Y-64131486D01*
X46716304Y-64389405D01*
X46816939Y-64632359D01*
X46963038Y-64851013D01*
X47148987Y-65036962D01*
X47367641Y-65183061D01*
X47610595Y-65283696D01*
X47868514Y-65335000D01*
X48131486Y-65335000D01*
X48389405Y-65283696D01*
X48632359Y-65183061D01*
X48851013Y-65036962D01*
X49036962Y-64851013D01*
X49183061Y-64632359D01*
X49283696Y-64389405D01*
X49335000Y-64131486D01*
X49335000Y-63868514D01*
X49283696Y-63610595D01*
X49183061Y-63367641D01*
X49036962Y-63148987D01*
X49035000Y-63147025D01*
X49035000Y-53550827D01*
X49040006Y-53499999D01*
X49035000Y-53449171D01*
X49035000Y-53449162D01*
X49020024Y-53297105D01*
X48960841Y-53102007D01*
X48885386Y-52960840D01*
X48864734Y-52922202D01*
X48767803Y-52804092D01*
X48735396Y-52764604D01*
X48695908Y-52732197D01*
X47935000Y-51971290D01*
X47935000Y-51858665D01*
X50065000Y-51858665D01*
X50065000Y-52141335D01*
X50120147Y-52418574D01*
X50228320Y-52679727D01*
X50385363Y-52914759D01*
X50585241Y-53114637D01*
X50787827Y-53250000D01*
X50585241Y-53385363D01*
X50385363Y-53585241D01*
X50228320Y-53820273D01*
X50120147Y-54081426D01*
X50065000Y-54358665D01*
X50065000Y-54641335D01*
X50120147Y-54918574D01*
X50228320Y-55179727D01*
X50385363Y-55414759D01*
X50585241Y-55614637D01*
X50820273Y-55771680D01*
X51081426Y-55879853D01*
X51358665Y-55935000D01*
X51471289Y-55935000D01*
X52032197Y-56495908D01*
X52064604Y-56535396D01*
X52104092Y-56567803D01*
X52222202Y-56664734D01*
X52318309Y-56716104D01*
X52402007Y-56760841D01*
X52597105Y-56820024D01*
X52749162Y-56835000D01*
X52749165Y-56835000D01*
X52800000Y-56840007D01*
X52850835Y-56835000D01*
X55149172Y-56835000D01*
X55200000Y-56840006D01*
X55250828Y-56835000D01*
X55250838Y-56835000D01*
X55402895Y-56820024D01*
X55597993Y-56760841D01*
X55777797Y-56664734D01*
X55935396Y-56535396D01*
X55967807Y-56495903D01*
X56528710Y-55935000D01*
X56641335Y-55935000D01*
X56918574Y-55879853D01*
X57179727Y-55771680D01*
X57414759Y-55614637D01*
X57614637Y-55414759D01*
X57771680Y-55179727D01*
X57879853Y-54918574D01*
X57935000Y-54641335D01*
X57935000Y-54358665D01*
X57879853Y-54081426D01*
X57771680Y-53820273D01*
X57614637Y-53585241D01*
X57414759Y-53385363D01*
X57212173Y-53250000D01*
X57414759Y-53114637D01*
X57614637Y-52914759D01*
X57771680Y-52679727D01*
X57879853Y-52418574D01*
X57935000Y-52141335D01*
X57935000Y-51858665D01*
X60065000Y-51858665D01*
X60065000Y-52141335D01*
X60120147Y-52418574D01*
X60228320Y-52679727D01*
X60385363Y-52914759D01*
X60585241Y-53114637D01*
X60787827Y-53250000D01*
X60585241Y-53385363D01*
X60385363Y-53585241D01*
X60228320Y-53820273D01*
X60120147Y-54081426D01*
X60065000Y-54358665D01*
X60065000Y-54641335D01*
X60120147Y-54918574D01*
X60228320Y-55179727D01*
X60385363Y-55414759D01*
X60585241Y-55614637D01*
X60820273Y-55771680D01*
X61081426Y-55879853D01*
X61358665Y-55935000D01*
X61641335Y-55935000D01*
X61918574Y-55879853D01*
X62179727Y-55771680D01*
X62414759Y-55614637D01*
X62614637Y-55414759D01*
X62771680Y-55179727D01*
X62879853Y-54918574D01*
X62935000Y-54641335D01*
X62935000Y-54358665D01*
X62879853Y-54081426D01*
X62771680Y-53820273D01*
X62614637Y-53585241D01*
X62414759Y-53385363D01*
X62212173Y-53250000D01*
X62414759Y-53114637D01*
X62614637Y-52914759D01*
X62771680Y-52679727D01*
X62879853Y-52418574D01*
X62935000Y-52141335D01*
X62935000Y-51858665D01*
X62879853Y-51581426D01*
X62771680Y-51320273D01*
X62614637Y-51085241D01*
X62414759Y-50885363D01*
X62179727Y-50728320D01*
X61918574Y-50620147D01*
X61641335Y-50565000D01*
X61358665Y-50565000D01*
X61081426Y-50620147D01*
X60820273Y-50728320D01*
X60585241Y-50885363D01*
X60385363Y-51085241D01*
X60228320Y-51320273D01*
X60120147Y-51581426D01*
X60065000Y-51858665D01*
X57935000Y-51858665D01*
X57879853Y-51581426D01*
X57771680Y-51320273D01*
X57614637Y-51085241D01*
X57414759Y-50885363D01*
X57179727Y-50728320D01*
X56918574Y-50620147D01*
X56641335Y-50565000D01*
X56528710Y-50565000D01*
X56067807Y-50104097D01*
X56035396Y-50064604D01*
X55877797Y-49935266D01*
X55697993Y-49839159D01*
X55502895Y-49779976D01*
X55350838Y-49765000D01*
X55350828Y-49765000D01*
X55300000Y-49759994D01*
X55249172Y-49765000D01*
X52750827Y-49765000D01*
X52699999Y-49759994D01*
X52649171Y-49765000D01*
X52649162Y-49765000D01*
X52497105Y-49779976D01*
X52302007Y-49839159D01*
X52218309Y-49883896D01*
X52122202Y-49935266D01*
X52080849Y-49969204D01*
X51964604Y-50064604D01*
X51932197Y-50104092D01*
X51471289Y-50565000D01*
X51358665Y-50565000D01*
X51081426Y-50620147D01*
X50820273Y-50728320D01*
X50585241Y-50885363D01*
X50385363Y-51085241D01*
X50228320Y-51320273D01*
X50120147Y-51581426D01*
X50065000Y-51858665D01*
X47935000Y-51858665D01*
X47879853Y-51581426D01*
X47771680Y-51320273D01*
X47614637Y-51085241D01*
X47414759Y-50885363D01*
X47179727Y-50728320D01*
X46918574Y-50620147D01*
X46689191Y-50574519D01*
X55209600Y-42054111D01*
X55304321Y-42093346D01*
X55765098Y-42185000D01*
X56234902Y-42185000D01*
X56695679Y-42093346D01*
X57129721Y-41913560D01*
X57520349Y-41652550D01*
X57852550Y-41320349D01*
X58113560Y-40929721D01*
X58293346Y-40495679D01*
X58385000Y-40034902D01*
X58385000Y-39565098D01*
X59015000Y-39565098D01*
X59015000Y-40034902D01*
X59106654Y-40495679D01*
X59286440Y-40929721D01*
X59547450Y-41320349D01*
X59879651Y-41652550D01*
X60270279Y-41913560D01*
X60704321Y-42093346D01*
X61165098Y-42185000D01*
X61634902Y-42185000D01*
X62095679Y-42093346D01*
X62529721Y-41913560D01*
X62920349Y-41652550D01*
X63252550Y-41320349D01*
X63513560Y-40929721D01*
X63693346Y-40495679D01*
X63785000Y-40034902D01*
X63785000Y-39565098D01*
X63693346Y-39104321D01*
X63513560Y-38670279D01*
X63252550Y-38279651D01*
X62920349Y-37947450D01*
X62529721Y-37686440D01*
X62095679Y-37506654D01*
X61634902Y-37415000D01*
X61165098Y-37415000D01*
X60704321Y-37506654D01*
X60270279Y-37686440D01*
X59879651Y-37947450D01*
X59547450Y-38279651D01*
X59286440Y-38670279D01*
X59106654Y-39104321D01*
X59015000Y-39565098D01*
X58385000Y-39565098D01*
X58293346Y-39104321D01*
X58113560Y-38670279D01*
X57852550Y-38279651D01*
X57520349Y-37947450D01*
X57129721Y-37686440D01*
X56695679Y-37506654D01*
X56234902Y-37415000D01*
X55765098Y-37415000D01*
X55304321Y-37506654D01*
X54870279Y-37686440D01*
X54479651Y-37947450D01*
X54147450Y-38279651D01*
X53886440Y-38670279D01*
X53706654Y-39104321D01*
X53615000Y-39565098D01*
X53615000Y-40034902D01*
X53706654Y-40495679D01*
X53745889Y-40590400D01*
X44399493Y-49936797D01*
X44360005Y-49969204D01*
X44327598Y-50008692D01*
X44327597Y-50008693D01*
X44230666Y-50126803D01*
X44134560Y-50306607D01*
X44075377Y-50501705D01*
X44055394Y-50704600D01*
X44060401Y-50755438D01*
X44060400Y-53044572D01*
X44055394Y-53095400D01*
X44060400Y-53146228D01*
X44060400Y-53146237D01*
X44075376Y-53298294D01*
X44134559Y-53493392D01*
X44230666Y-53673197D01*
X44360004Y-53830796D01*
X44399497Y-53863207D01*
X45065000Y-54528710D01*
X45065000Y-54641335D01*
X45120147Y-54918574D01*
X45228320Y-55179727D01*
X45385363Y-55414759D01*
X45465000Y-55494396D01*
X45465001Y-59491288D01*
X43304092Y-61652198D01*
X43264605Y-61684604D01*
X43232198Y-61724092D01*
X43232197Y-61724093D01*
X43135266Y-61842203D01*
X43039160Y-62022007D01*
X42979977Y-62217105D01*
X42959994Y-62420000D01*
X42965001Y-62470837D01*
X42965001Y-63067024D01*
X42963038Y-63068987D01*
X42816939Y-63287641D01*
X42716304Y-63530595D01*
X42665000Y-63788514D01*
X38185000Y-63788514D01*
X38185000Y-39565098D01*
X48415000Y-39565098D01*
X48415000Y-40034902D01*
X48506654Y-40495679D01*
X48686440Y-40929721D01*
X48947450Y-41320349D01*
X49279651Y-41652550D01*
X49670279Y-41913560D01*
X50104321Y-42093346D01*
X50565098Y-42185000D01*
X51034902Y-42185000D01*
X51495679Y-42093346D01*
X51929721Y-41913560D01*
X52320349Y-41652550D01*
X52652550Y-41320349D01*
X52913560Y-40929721D01*
X53093346Y-40495679D01*
X53185000Y-40034902D01*
X53185000Y-39565098D01*
X53093346Y-39104321D01*
X52913560Y-38670279D01*
X52652550Y-38279651D01*
X52320349Y-37947450D01*
X51929721Y-37686440D01*
X51495679Y-37506654D01*
X51034902Y-37415000D01*
X50565098Y-37415000D01*
X50104321Y-37506654D01*
X49670279Y-37686440D01*
X49279651Y-37947450D01*
X48947450Y-38279651D01*
X48686440Y-38670279D01*
X48506654Y-39104321D01*
X48415000Y-39565098D01*
X38185000Y-39565098D01*
X38185000Y-33185000D01*
X74315000Y-33185000D01*
X74315001Y-129315000D01*
G37*
%TD.AperFunction*%
D18*
X70040400Y-89449589D02*
X69206700Y-90283290D01*
X69116962Y-90148987D01*
X69115000Y-90147025D01*
X69115000Y-87506637D01*
X69120007Y-87455800D01*
X69118261Y-87438072D01*
X70040400Y-87438072D01*
X70040400Y-89449589D01*
%TA.AperFunction,Conductor*%
D19*
G36*
X70040400Y-89449589D02*
G01*
X69206700Y-90283290D01*
X69116962Y-90148987D01*
X69115000Y-90147025D01*
X69115000Y-87506637D01*
X69120007Y-87455800D01*
X69118261Y-87438072D01*
X70040400Y-87438072D01*
X70040400Y-89449589D01*
G37*
%TD.AperFunction*%
D18*
X55065000Y-52028710D02*
X55065000Y-52141335D01*
X55120147Y-52418574D01*
X55228320Y-52679727D01*
X55385363Y-52914759D01*
X55585241Y-53114637D01*
X55787827Y-53250000D01*
X55585241Y-53385363D01*
X55385363Y-53585241D01*
X55228320Y-53820273D01*
X55120147Y-54081426D01*
X55065000Y-54358665D01*
X55065000Y-54471290D01*
X54771290Y-54765000D01*
X53228711Y-54765000D01*
X52935000Y-54471289D01*
X52935000Y-54358665D01*
X52879853Y-54081426D01*
X52771680Y-53820273D01*
X52614637Y-53585241D01*
X52414759Y-53385363D01*
X52212173Y-53250000D01*
X52414759Y-53114637D01*
X52614637Y-52914759D01*
X52771680Y-52679727D01*
X52879853Y-52418574D01*
X52935000Y-52141335D01*
X52935000Y-52028711D01*
X53128711Y-51835000D01*
X54871290Y-51835000D01*
X55065000Y-52028710D01*
%TA.AperFunction,Conductor*%
D19*
G36*
X55065000Y-52028710D02*
G01*
X55065000Y-52141335D01*
X55120147Y-52418574D01*
X55228320Y-52679727D01*
X55385363Y-52914759D01*
X55585241Y-53114637D01*
X55787827Y-53250000D01*
X55585241Y-53385363D01*
X55385363Y-53585241D01*
X55228320Y-53820273D01*
X55120147Y-54081426D01*
X55065000Y-54358665D01*
X55065000Y-54471290D01*
X54771290Y-54765000D01*
X53228711Y-54765000D01*
X52935000Y-54471289D01*
X52935000Y-54358665D01*
X52879853Y-54081426D01*
X52771680Y-53820273D01*
X52614637Y-53585241D01*
X52414759Y-53385363D01*
X52212173Y-53250000D01*
X52414759Y-53114637D01*
X52614637Y-52914759D01*
X52771680Y-52679727D01*
X52879853Y-52418574D01*
X52935000Y-52141335D01*
X52935000Y-52028711D01*
X53128711Y-51835000D01*
X54871290Y-51835000D01*
X55065000Y-52028710D01*
G37*
%TD.AperFunction*%
%TD*%
M02*
