%TF.GenerationSoftware,KiCad,Pcbnew,5.1.10*%
%TF.CreationDate,2021-06-20T06:50:42+02:00*%
%TF.ProjectId,double-gain,646f7562-6c65-42d6-9761-696e2e6b6963,rev?*%
%TF.SameCoordinates,Original*%
%TF.FileFunction,Copper,L2,Bot*%
%TF.FilePolarity,Positive*%
%FSLAX46Y46*%
G04 Gerber Fmt 4.6, Leading zero omitted, Abs format (unit mm)*
G04 Created by KiCad (PCBNEW 5.1.10) date 2021-06-20 06:50:42*
%MOMM*%
%LPD*%
G01*
G04 APERTURE LIST*
%TA.AperFunction,ComponentPad*%
%ADD10O,1.600000X1.600000*%
%TD*%
%TA.AperFunction,ComponentPad*%
%ADD11R,1.600000X1.600000*%
%TD*%
%TA.AperFunction,ComponentPad*%
%ADD12C,1.600000*%
%TD*%
%TA.AperFunction,ComponentPad*%
%ADD13C,3.500000*%
%TD*%
%TA.AperFunction,ComponentPad*%
%ADD14C,3.800000*%
%TD*%
%TA.AperFunction,ComponentPad*%
%ADD15O,1.400000X1.400000*%
%TD*%
%TA.AperFunction,ComponentPad*%
%ADD16C,1.400000*%
%TD*%
%TA.AperFunction,ViaPad*%
%ADD17C,0.800000*%
%TD*%
%TA.AperFunction,Conductor*%
%ADD18C,0.250000*%
%TD*%
%TA.AperFunction,Conductor*%
%ADD19C,0.254000*%
%TD*%
%TA.AperFunction,Conductor*%
%ADD20C,0.100000*%
%TD*%
G04 APERTURE END LIST*
D10*
%TO.P,U2,8*%
%TO.N,Net-(U2-Pad8)*%
X62000000Y-86000000D03*
%TO.P,U2,4*%
%TO.N,V-*%
X69620000Y-78380000D03*
%TO.P,U2,7*%
%TO.N,VCC*%
X62000000Y-83460000D03*
%TO.P,U2,3*%
%TO.N,ind*%
X69620000Y-80920000D03*
%TO.P,U2,6*%
%TO.N,Net-(R13-Pad1)*%
X62000000Y-80920000D03*
%TO.P,U2,2*%
%TO.N,Net-(R12-Pad2)*%
X69620000Y-83460000D03*
%TO.P,U2,5*%
%TO.N,Net-(U2-Pad5)*%
X62000000Y-78380000D03*
D11*
%TO.P,U2,1*%
%TO.N,Net-(U2-Pad1)*%
X69620000Y-86000000D03*
%TD*%
D12*
%TO.P,C1,2*%
%TO.N,V-*%
X61500000Y-52000000D03*
%TO.P,C1,1*%
%TO.N,VCC*%
X61500000Y-54500000D03*
%TD*%
%TO.P,C2,1*%
%TO.N,VCC*%
X56500000Y-54500000D03*
%TO.P,C2,2*%
%TO.N,V-*%
X56500000Y-52000000D03*
%TD*%
%TO.P,C3,2*%
%TO.N,V-*%
X51500000Y-52000000D03*
%TO.P,C3,1*%
%TO.N,VCC*%
X51500000Y-54500000D03*
%TD*%
%TO.P,C4,1*%
%TO.N,Net-(C4-Pad1)*%
X46500000Y-54500000D03*
%TO.P,C4,2*%
%TO.N,Net-(C4-Pad2)*%
X46500000Y-52000000D03*
%TD*%
%TO.P,C5,2*%
%TO.N,Net-(C5-Pad2)*%
X46500000Y-113000000D03*
%TO.P,C5,1*%
%TO.N,Net-(C5-Pad1)*%
X49000000Y-113000000D03*
%TD*%
%TO.P,C6,1*%
%TO.N,V-*%
X51000000Y-73500000D03*
%TO.P,C6,2*%
%TO.N,Net-(C6-Pad2)*%
X48500000Y-73500000D03*
%TD*%
%TO.P,C7,2*%
%TO.N,Net-(C7-Pad2)*%
X66500000Y-52000000D03*
%TO.P,C7,1*%
%TO.N,Net-(C7-Pad1)*%
X66500000Y-54500000D03*
%TD*%
%TO.P,C8,1*%
%TO.N,Net-(C8-Pad1)*%
X57500000Y-113000000D03*
%TO.P,C8,2*%
%TO.N,V-*%
X55000000Y-113000000D03*
%TD*%
D10*
%TO.P,D1,2*%
%TO.N,V-*%
X52380000Y-68000000D03*
D11*
%TO.P,D1,1*%
%TO.N,Net-(D1-Pad1)*%
X60000000Y-68000000D03*
%TD*%
%TO.P,D2,1*%
%TO.N,VCC*%
X46380000Y-98000000D03*
D10*
%TO.P,D2,2*%
%TO.N,Net-(C5-Pad1)*%
X54000000Y-98000000D03*
%TD*%
D11*
%TO.P,D3,1*%
%TO.N,Net-(C5-Pad1)*%
X59000000Y-98000000D03*
D10*
%TO.P,D3,2*%
%TO.N,V-*%
X66620000Y-98000000D03*
%TD*%
D13*
%TO.P,J1,1*%
%TO.N,Net-(C5-Pad2)*%
X46000000Y-119000000D03*
%TD*%
%TO.P,J2,1*%
%TO.N,Net-(C4-Pad1)*%
X56500000Y-40000000D03*
%TD*%
%TO.P,J3,1*%
%TO.N,V-*%
X52000000Y-119000000D03*
%TD*%
%TO.P,J4,1*%
%TO.N,Net-(C7-Pad1)*%
X51500000Y-40000000D03*
%TD*%
D14*
%TO.P,J5,1*%
%TO.N,V-*%
X61500000Y-40000000D03*
%TD*%
D13*
%TO.P,J6,1*%
%TO.N,Earth*%
X42500000Y-125000000D03*
%TD*%
%TO.P,J7,1*%
%TO.N,Earth*%
X70000000Y-37500000D03*
%TD*%
%TO.P,J8,1*%
%TO.N,Earth*%
X42500000Y-37500000D03*
%TD*%
%TO.P,J9,1*%
%TO.N,Earth*%
X70000000Y-125000000D03*
%TD*%
D15*
%TO.P,R1,2*%
%TO.N,VCC*%
X65000000Y-69080000D03*
D16*
%TO.P,R1,1*%
%TO.N,Net-(D1-Pad1)*%
X65000000Y-64000000D03*
%TD*%
D15*
%TO.P,R2,2*%
%TO.N,Net-(R2-Pad2)*%
X54500000Y-84000000D03*
D16*
%TO.P,R2,1*%
%TO.N,Net-(R2-Pad1)*%
X54500000Y-78920000D03*
%TD*%
%TO.P,R3,1*%
%TO.N,Net-(D1-Pad1)*%
X44000000Y-69000000D03*
D15*
%TO.P,R3,2*%
%TO.N,Net-(C4-Pad1)*%
X44000000Y-63920000D03*
%TD*%
%TO.P,R4,2*%
%TO.N,Net-(C7-Pad1)*%
X53920000Y-64000000D03*
D16*
%TO.P,R4,1*%
%TO.N,Net-(D1-Pad1)*%
X59000000Y-64000000D03*
%TD*%
%TO.P,R5,1*%
%TO.N,Net-(C4-Pad2)*%
X48000000Y-64000000D03*
D15*
%TO.P,R5,2*%
%TO.N,Net-(R2-Pad1)*%
X48000000Y-69080000D03*
%TD*%
%TO.P,R6,2*%
%TO.N,Net-(C8-Pad1)*%
X54500000Y-108000000D03*
D16*
%TO.P,R6,1*%
%TO.N,VCC*%
X49420000Y-108000000D03*
%TD*%
D15*
%TO.P,R7,2*%
%TO.N,Net-(C5-Pad1)*%
X46500000Y-110080000D03*
D16*
%TO.P,R7,1*%
%TO.N,Net-(C8-Pad1)*%
X46500000Y-105000000D03*
%TD*%
%TO.P,R8,1*%
%TO.N,Net-(C7-Pad2)*%
X69000000Y-64000000D03*
D15*
%TO.P,R8,2*%
%TO.N,Net-(R13-Pad1)*%
X69000000Y-69080000D03*
%TD*%
D16*
%TO.P,R9,1*%
%TO.N,Net-(C6-Pad2)*%
X44420000Y-91000000D03*
D15*
%TO.P,R9,2*%
%TO.N,Net-(R2-Pad2)*%
X49500000Y-91000000D03*
%TD*%
D16*
%TO.P,R10,1*%
%TO.N,Net-(C8-Pad1)*%
X62580000Y-108000000D03*
D15*
%TO.P,R10,2*%
%TO.N,V-*%
X57500000Y-108000000D03*
%TD*%
D11*
%TO.P,U1,1*%
%TO.N,Net-(U1-Pad1)*%
X51000000Y-86000000D03*
D10*
%TO.P,U1,5*%
%TO.N,Net-(U1-Pad5)*%
X43380000Y-78380000D03*
%TO.P,U1,2*%
%TO.N,Net-(R2-Pad2)*%
X51000000Y-83460000D03*
%TO.P,U1,6*%
%TO.N,Net-(R2-Pad1)*%
X43380000Y-80920000D03*
%TO.P,U1,3*%
%TO.N,Net-(C5-Pad1)*%
X51000000Y-80920000D03*
%TO.P,U1,7*%
%TO.N,VCC*%
X43380000Y-83460000D03*
%TO.P,U1,4*%
%TO.N,V-*%
X51000000Y-78380000D03*
%TO.P,U1,8*%
%TO.N,Net-(U1-Pad8)*%
X43380000Y-86000000D03*
%TD*%
D12*
%TO.P,C9,2*%
%TO.N,Net-(C9-Pad2)*%
X66000000Y-113000000D03*
%TO.P,C9,1*%
%TO.N,ind*%
X63500000Y-113000000D03*
%TD*%
%TO.P,C10,1*%
%TO.N,V-*%
X61500000Y-73500000D03*
%TO.P,C10,2*%
%TO.N,Net-(C10-Pad2)*%
X64000000Y-73500000D03*
%TD*%
D10*
%TO.P,D4,2*%
%TO.N,ind*%
X54120000Y-102000000D03*
D11*
%TO.P,D4,1*%
%TO.N,VCC*%
X46500000Y-102000000D03*
%TD*%
%TO.P,D5,1*%
%TO.N,ind*%
X59000000Y-102000000D03*
D10*
%TO.P,D5,2*%
%TO.N,V-*%
X66620000Y-102000000D03*
%TD*%
D13*
%TO.P,J10,1*%
%TO.N,Net-(C9-Pad2)*%
X66000000Y-119000000D03*
%TD*%
%TO.P,J11,1*%
%TO.N,V-*%
X59000000Y-119000000D03*
%TD*%
D16*
%TO.P,R11,1*%
%TO.N,Net-(C8-Pad1)*%
X66500000Y-104500000D03*
D15*
%TO.P,R11,2*%
%TO.N,ind*%
X66500000Y-109580000D03*
%TD*%
D16*
%TO.P,R12,1*%
%TO.N,Net-(C10-Pad2)*%
X63000000Y-91000000D03*
D15*
%TO.P,R12,2*%
%TO.N,Net-(R12-Pad2)*%
X68080000Y-91000000D03*
%TD*%
%TO.P,R13,2*%
%TO.N,Net-(R12-Pad2)*%
X58500000Y-84080000D03*
D16*
%TO.P,R13,1*%
%TO.N,Net-(R13-Pad1)*%
X58500000Y-79000000D03*
%TD*%
D17*
%TO.N,Earth*%
X56500000Y-75500000D03*
X46500000Y-81000000D03*
X65500000Y-81000000D03*
X69500000Y-89000000D03*
X50000000Y-76000000D03*
X54000000Y-53500000D03*
X59000000Y-53500000D03*
%TD*%
D18*
%TO.N,Net-(C4-Pad1)*%
X44000000Y-63920000D02*
X44000000Y-62894700D01*
X44000000Y-62894700D02*
X46500000Y-60394700D01*
X46500000Y-60394700D02*
X46500000Y-54500000D01*
%TO.N,Net-(C7-Pad1)*%
X64445300Y-54500000D02*
X66500000Y-54500000D01*
X54945300Y-64000000D02*
X64445300Y-54500000D01*
X51500000Y-40000000D02*
X64445300Y-52945300D01*
X64445300Y-52945300D02*
X64445300Y-54500000D01*
X53920000Y-64000000D02*
X54945300Y-64000000D01*
%TO.N,Net-(D1-Pad1)*%
X65000000Y-64000000D02*
X59000000Y-64000000D01*
%TO.N,V-*%
X52380000Y-73500000D02*
X61500000Y-73500000D01*
X51000000Y-73500000D02*
X52380000Y-73500000D01*
X52380000Y-73500000D02*
X52380000Y-69125300D01*
X52380000Y-68000000D02*
X52380000Y-69125300D01*
X55000000Y-116000000D02*
X52000000Y-119000000D01*
X55000000Y-113000000D02*
X55000000Y-116000000D01*
X59000000Y-119000000D02*
X58000000Y-119000000D01*
X58000000Y-119000000D02*
X55000000Y-116000000D01*
X57500000Y-109025300D02*
X55000000Y-111525300D01*
X55000000Y-111525300D02*
X55000000Y-113000000D01*
X52380000Y-68000000D02*
X52380000Y-66874700D01*
X52380000Y-66874700D02*
X50372400Y-64867100D01*
X50372400Y-64867100D02*
X50372400Y-53127600D01*
X50372400Y-53127600D02*
X51500000Y-52000000D01*
X51000000Y-78380000D02*
X51000000Y-73500000D01*
X56500000Y-52000000D02*
X51500000Y-52000000D01*
X56500000Y-52000000D02*
X61500000Y-52000000D01*
X61500000Y-73500000D02*
X66380000Y-78380000D01*
X66380000Y-78380000D02*
X69620000Y-78380000D01*
X66620000Y-102000000D02*
X65494700Y-102000000D01*
X65494700Y-102000000D02*
X59494700Y-108000000D01*
X59494700Y-108000000D02*
X57500000Y-108000000D01*
X57500000Y-108000000D02*
X57500000Y-109025300D01*
%TO.N,VCC*%
X46380000Y-87304000D02*
X46380000Y-98000000D01*
X43380000Y-84585300D02*
X43661300Y-84585300D01*
X43661300Y-84585300D02*
X46380000Y-87304000D01*
X46380000Y-87304000D02*
X53609000Y-87304000D01*
X53609000Y-87304000D02*
X57872800Y-83040200D01*
X57872800Y-83040200D02*
X60454900Y-83040200D01*
X60454900Y-83040200D02*
X60874700Y-83460000D01*
X62000000Y-83460000D02*
X60874700Y-83460000D01*
X43380000Y-83460000D02*
X43380000Y-84585300D01*
X56500000Y-54500000D02*
X61500000Y-54500000D01*
X51500000Y-54500000D02*
X56500000Y-54500000D01*
%TO.N,Net-(C5-Pad1)*%
X46500000Y-110080000D02*
X46500000Y-109054700D01*
X54000000Y-98000000D02*
X52874700Y-98000000D01*
X52874700Y-98000000D02*
X47090400Y-103784300D01*
X47090400Y-103784300D02*
X46221900Y-103784300D01*
X46221900Y-103784300D02*
X45474700Y-104531500D01*
X45474700Y-104531500D02*
X45474700Y-108029400D01*
X45474700Y-108029400D02*
X46500000Y-109054700D01*
X46500000Y-110080000D02*
X46500000Y-111105300D01*
X46500000Y-111105300D02*
X47105300Y-111105300D01*
X47105300Y-111105300D02*
X49000000Y-113000000D01*
%TO.N,Net-(C8-Pad1)*%
X54500000Y-108000000D02*
X53474700Y-108000000D01*
X53474700Y-108000000D02*
X50474700Y-105000000D01*
X50474700Y-105000000D02*
X46500000Y-105000000D01*
X66500000Y-104500000D02*
X66080000Y-104500000D01*
X66080000Y-104500000D02*
X62580000Y-108000000D01*
%TO.N,Net-(R2-Pad2)*%
X54500000Y-84000000D02*
X53474700Y-84000000D01*
X51000000Y-83460000D02*
X52934700Y-83460000D01*
X52934700Y-83460000D02*
X53474700Y-84000000D01*
%TO.N,Net-(R2-Pad1)*%
X47355300Y-79521400D02*
X47355300Y-70750000D01*
X47355300Y-70750000D02*
X48000000Y-70105300D01*
X44505300Y-80920000D02*
X45903900Y-79521400D01*
X45903900Y-79521400D02*
X47355300Y-79521400D01*
X47355300Y-79521400D02*
X53898600Y-79521400D01*
X53898600Y-79521400D02*
X54500000Y-78920000D01*
X48000000Y-69080000D02*
X48000000Y-70105300D01*
X43380000Y-80920000D02*
X44505300Y-80920000D01*
%TO.N,ind*%
X69620000Y-80920000D02*
X69620000Y-82045300D01*
X59000000Y-102000000D02*
X59000000Y-100874700D01*
X59000000Y-100874700D02*
X59703300Y-100874700D01*
X59703300Y-100874700D02*
X70745300Y-89832700D01*
X70745300Y-89832700D02*
X70745300Y-82889200D01*
X70745300Y-82889200D02*
X69901400Y-82045300D01*
X69901400Y-82045300D02*
X69620000Y-82045300D01*
X66500000Y-109580000D02*
X66500000Y-110605300D01*
X66500000Y-110605300D02*
X65894700Y-110605300D01*
X65894700Y-110605300D02*
X63500000Y-113000000D01*
%TO.N,Net-(R13-Pad1)*%
X62000000Y-80920000D02*
X63125300Y-80920000D01*
X63125300Y-80920000D02*
X64250600Y-79794700D01*
X64250600Y-79794700D02*
X69797100Y-79794700D01*
X69797100Y-79794700D02*
X70777600Y-78814200D01*
X70777600Y-78814200D02*
X70777600Y-71882900D01*
X70777600Y-71882900D02*
X69000000Y-70105300D01*
X58500000Y-79000000D02*
X60420000Y-80920000D01*
X60420000Y-80920000D02*
X62000000Y-80920000D01*
X69000000Y-69080000D02*
X69000000Y-70105300D01*
%TO.N,Net-(R12-Pad2)*%
X58500000Y-84080000D02*
X59525300Y-84080000D01*
X68080000Y-85422000D02*
X68916700Y-84585300D01*
X68916700Y-84585300D02*
X69620000Y-84585300D01*
X68080000Y-91000000D02*
X68080000Y-85422000D01*
X59525300Y-84080000D02*
X60250300Y-84805000D01*
X60250300Y-84805000D02*
X67463000Y-84805000D01*
X67463000Y-84805000D02*
X68080000Y-85422000D01*
X69620000Y-83460000D02*
X69620000Y-84585300D01*
%TD*%
D19*
%TO.N,Earth*%
X74315001Y-129315000D02*
X38185000Y-129315000D01*
X38185000Y-118765098D01*
X43615000Y-118765098D01*
X43615000Y-119234902D01*
X43706654Y-119695679D01*
X43886440Y-120129721D01*
X44147450Y-120520349D01*
X44479651Y-120852550D01*
X44870279Y-121113560D01*
X45304321Y-121293346D01*
X45765098Y-121385000D01*
X46234902Y-121385000D01*
X46695679Y-121293346D01*
X47129721Y-121113560D01*
X47520349Y-120852550D01*
X47852550Y-120520349D01*
X48113560Y-120129721D01*
X48293346Y-119695679D01*
X48385000Y-119234902D01*
X48385000Y-118765098D01*
X49615000Y-118765098D01*
X49615000Y-119234902D01*
X49706654Y-119695679D01*
X49886440Y-120129721D01*
X50147450Y-120520349D01*
X50479651Y-120852550D01*
X50870279Y-121113560D01*
X51304321Y-121293346D01*
X51765098Y-121385000D01*
X52234902Y-121385000D01*
X52695679Y-121293346D01*
X53129721Y-121113560D01*
X53520349Y-120852550D01*
X53852550Y-120520349D01*
X54113560Y-120129721D01*
X54293346Y-119695679D01*
X54385000Y-119234902D01*
X54385000Y-118765098D01*
X54293346Y-118304321D01*
X54140202Y-117934599D01*
X55000000Y-117074802D01*
X56627492Y-118702294D01*
X56615000Y-118765098D01*
X56615000Y-119234902D01*
X56706654Y-119695679D01*
X56886440Y-120129721D01*
X57147450Y-120520349D01*
X57479651Y-120852550D01*
X57870279Y-121113560D01*
X58304321Y-121293346D01*
X58765098Y-121385000D01*
X59234902Y-121385000D01*
X59695679Y-121293346D01*
X60129721Y-121113560D01*
X60520349Y-120852550D01*
X60852550Y-120520349D01*
X61113560Y-120129721D01*
X61293346Y-119695679D01*
X61385000Y-119234902D01*
X61385000Y-118765098D01*
X63615000Y-118765098D01*
X63615000Y-119234902D01*
X63706654Y-119695679D01*
X63886440Y-120129721D01*
X64147450Y-120520349D01*
X64479651Y-120852550D01*
X64870279Y-121113560D01*
X65304321Y-121293346D01*
X65765098Y-121385000D01*
X66234902Y-121385000D01*
X66695679Y-121293346D01*
X67129721Y-121113560D01*
X67520349Y-120852550D01*
X67852550Y-120520349D01*
X68113560Y-120129721D01*
X68293346Y-119695679D01*
X68385000Y-119234902D01*
X68385000Y-118765098D01*
X68293346Y-118304321D01*
X68113560Y-117870279D01*
X67852550Y-117479651D01*
X67520349Y-117147450D01*
X67129721Y-116886440D01*
X66695679Y-116706654D01*
X66234902Y-116615000D01*
X65765098Y-116615000D01*
X65304321Y-116706654D01*
X64870279Y-116886440D01*
X64479651Y-117147450D01*
X64147450Y-117479651D01*
X63886440Y-117870279D01*
X63706654Y-118304321D01*
X63615000Y-118765098D01*
X61385000Y-118765098D01*
X61293346Y-118304321D01*
X61113560Y-117870279D01*
X60852550Y-117479651D01*
X60520349Y-117147450D01*
X60129721Y-116886440D01*
X59695679Y-116706654D01*
X59234902Y-116615000D01*
X58765098Y-116615000D01*
X58304321Y-116706654D01*
X57870279Y-116886440D01*
X57479651Y-117147450D01*
X57350951Y-117276150D01*
X55760000Y-115685199D01*
X55760000Y-114218043D01*
X55914759Y-114114637D01*
X56114637Y-113914759D01*
X56250000Y-113712173D01*
X56385363Y-113914759D01*
X56585241Y-114114637D01*
X56820273Y-114271680D01*
X57081426Y-114379853D01*
X57358665Y-114435000D01*
X57641335Y-114435000D01*
X57918574Y-114379853D01*
X58179727Y-114271680D01*
X58414759Y-114114637D01*
X58614637Y-113914759D01*
X58771680Y-113679727D01*
X58879853Y-113418574D01*
X58935000Y-113141335D01*
X58935000Y-112858665D01*
X62065000Y-112858665D01*
X62065000Y-113141335D01*
X62120147Y-113418574D01*
X62228320Y-113679727D01*
X62385363Y-113914759D01*
X62585241Y-114114637D01*
X62820273Y-114271680D01*
X63081426Y-114379853D01*
X63358665Y-114435000D01*
X63641335Y-114435000D01*
X63918574Y-114379853D01*
X64179727Y-114271680D01*
X64414759Y-114114637D01*
X64614637Y-113914759D01*
X64750000Y-113712173D01*
X64885363Y-113914759D01*
X65085241Y-114114637D01*
X65320273Y-114271680D01*
X65581426Y-114379853D01*
X65858665Y-114435000D01*
X66141335Y-114435000D01*
X66418574Y-114379853D01*
X66679727Y-114271680D01*
X66914759Y-114114637D01*
X67114637Y-113914759D01*
X67271680Y-113679727D01*
X67379853Y-113418574D01*
X67435000Y-113141335D01*
X67435000Y-112858665D01*
X67379853Y-112581426D01*
X67271680Y-112320273D01*
X67114637Y-112085241D01*
X66914759Y-111885363D01*
X66679727Y-111728320D01*
X66418574Y-111620147D01*
X66141335Y-111565000D01*
X66009802Y-111565000D01*
X66209502Y-111365300D01*
X66462667Y-111365300D01*
X66500000Y-111368977D01*
X66648986Y-111354303D01*
X66792247Y-111310846D01*
X66924276Y-111240274D01*
X67040001Y-111145301D01*
X67134974Y-111029576D01*
X67205546Y-110897547D01*
X67249003Y-110754286D01*
X67256295Y-110680250D01*
X67351013Y-110616962D01*
X67536962Y-110431013D01*
X67683061Y-110212359D01*
X67783696Y-109969405D01*
X67835000Y-109711486D01*
X67835000Y-109448514D01*
X67783696Y-109190595D01*
X67683061Y-108947641D01*
X67536962Y-108728987D01*
X67351013Y-108543038D01*
X67132359Y-108396939D01*
X66889405Y-108296304D01*
X66631486Y-108245000D01*
X66368514Y-108245000D01*
X66110595Y-108296304D01*
X65867641Y-108396939D01*
X65648987Y-108543038D01*
X65463038Y-108728987D01*
X65316939Y-108947641D01*
X65216304Y-109190595D01*
X65165000Y-109448514D01*
X65165000Y-109711486D01*
X65216304Y-109969405D01*
X65286449Y-110138749D01*
X63823886Y-111601312D01*
X63641335Y-111565000D01*
X63358665Y-111565000D01*
X63081426Y-111620147D01*
X62820273Y-111728320D01*
X62585241Y-111885363D01*
X62385363Y-112085241D01*
X62228320Y-112320273D01*
X62120147Y-112581426D01*
X62065000Y-112858665D01*
X58935000Y-112858665D01*
X58879853Y-112581426D01*
X58771680Y-112320273D01*
X58614637Y-112085241D01*
X58414759Y-111885363D01*
X58179727Y-111728320D01*
X57918574Y-111620147D01*
X57641335Y-111565000D01*
X57358665Y-111565000D01*
X57081426Y-111620147D01*
X56820273Y-111728320D01*
X56585241Y-111885363D01*
X56385363Y-112085241D01*
X56250000Y-112287827D01*
X56114637Y-112085241D01*
X55914759Y-111885363D01*
X55794855Y-111805246D01*
X58011003Y-109589099D01*
X58040001Y-109565301D01*
X58110847Y-109478975D01*
X58134974Y-109449577D01*
X58205546Y-109317547D01*
X58215814Y-109283696D01*
X58249003Y-109174286D01*
X58256295Y-109100250D01*
X58351013Y-109036962D01*
X58536962Y-108851013D01*
X58597775Y-108760000D01*
X59457378Y-108760000D01*
X59494700Y-108763676D01*
X59532022Y-108760000D01*
X59532033Y-108760000D01*
X59643686Y-108749003D01*
X59786947Y-108705546D01*
X59918976Y-108634974D01*
X60034701Y-108540001D01*
X60058504Y-108510997D01*
X65580053Y-102989449D01*
X65705241Y-103114637D01*
X65940273Y-103271680D01*
X65958589Y-103279267D01*
X65867641Y-103316939D01*
X65648987Y-103463038D01*
X65463038Y-103648987D01*
X65316939Y-103867641D01*
X65216304Y-104110595D01*
X65172031Y-104333166D01*
X62818844Y-106686355D01*
X62711486Y-106665000D01*
X62448514Y-106665000D01*
X62190595Y-106716304D01*
X61947641Y-106816939D01*
X61728987Y-106963038D01*
X61543038Y-107148987D01*
X61396939Y-107367641D01*
X61296304Y-107610595D01*
X61245000Y-107868514D01*
X61245000Y-108131486D01*
X61296304Y-108389405D01*
X61396939Y-108632359D01*
X61543038Y-108851013D01*
X61728987Y-109036962D01*
X61947641Y-109183061D01*
X62190595Y-109283696D01*
X62448514Y-109335000D01*
X62711486Y-109335000D01*
X62969405Y-109283696D01*
X63212359Y-109183061D01*
X63431013Y-109036962D01*
X63616962Y-108851013D01*
X63763061Y-108632359D01*
X63863696Y-108389405D01*
X63915000Y-108131486D01*
X63915000Y-107868514D01*
X63893645Y-107761156D01*
X65941251Y-105713551D01*
X66110595Y-105783696D01*
X66368514Y-105835000D01*
X66631486Y-105835000D01*
X66889405Y-105783696D01*
X67132359Y-105683061D01*
X67351013Y-105536962D01*
X67536962Y-105351013D01*
X67683061Y-105132359D01*
X67783696Y-104889405D01*
X67835000Y-104631486D01*
X67835000Y-104368514D01*
X67783696Y-104110595D01*
X67683061Y-103867641D01*
X67536962Y-103648987D01*
X67351013Y-103463038D01*
X67154594Y-103331796D01*
X67299727Y-103271680D01*
X67534759Y-103114637D01*
X67734637Y-102914759D01*
X67891680Y-102679727D01*
X67999853Y-102418574D01*
X68055000Y-102141335D01*
X68055000Y-101858665D01*
X67999853Y-101581426D01*
X67891680Y-101320273D01*
X67734637Y-101085241D01*
X67534759Y-100885363D01*
X67299727Y-100728320D01*
X67038574Y-100620147D01*
X66761335Y-100565000D01*
X66478665Y-100565000D01*
X66201426Y-100620147D01*
X65940273Y-100728320D01*
X65705241Y-100885363D01*
X65505363Y-101085241D01*
X65398053Y-101245842D01*
X65345714Y-101250997D01*
X65202453Y-101294454D01*
X65070424Y-101365026D01*
X65070422Y-101365027D01*
X65070423Y-101365027D01*
X64983696Y-101436201D01*
X64983692Y-101436205D01*
X64954699Y-101459999D01*
X64930905Y-101488992D01*
X59179899Y-107240000D01*
X58597775Y-107240000D01*
X58536962Y-107148987D01*
X58351013Y-106963038D01*
X58132359Y-106816939D01*
X57889405Y-106716304D01*
X57631486Y-106665000D01*
X57368514Y-106665000D01*
X57110595Y-106716304D01*
X56867641Y-106816939D01*
X56648987Y-106963038D01*
X56463038Y-107148987D01*
X56316939Y-107367641D01*
X56216304Y-107610595D01*
X56165000Y-107868514D01*
X56165000Y-108131486D01*
X56216304Y-108389405D01*
X56316939Y-108632359D01*
X56463038Y-108851013D01*
X56531262Y-108919237D01*
X54489003Y-110961496D01*
X54459999Y-110985299D01*
X54404871Y-111052474D01*
X54365026Y-111101024D01*
X54294455Y-111233053D01*
X54294454Y-111233054D01*
X54250997Y-111376315D01*
X54240000Y-111487968D01*
X54240000Y-111487978D01*
X54236324Y-111525300D01*
X54240000Y-111562623D01*
X54240000Y-111781956D01*
X54085241Y-111885363D01*
X53885363Y-112085241D01*
X53728320Y-112320273D01*
X53620147Y-112581426D01*
X53565000Y-112858665D01*
X53565000Y-113141335D01*
X53620147Y-113418574D01*
X53728320Y-113679727D01*
X53885363Y-113914759D01*
X54085241Y-114114637D01*
X54240000Y-114218044D01*
X54240001Y-115685197D01*
X53065401Y-116859798D01*
X52695679Y-116706654D01*
X52234902Y-116615000D01*
X51765098Y-116615000D01*
X51304321Y-116706654D01*
X50870279Y-116886440D01*
X50479651Y-117147450D01*
X50147450Y-117479651D01*
X49886440Y-117870279D01*
X49706654Y-118304321D01*
X49615000Y-118765098D01*
X48385000Y-118765098D01*
X48293346Y-118304321D01*
X48113560Y-117870279D01*
X47852550Y-117479651D01*
X47520349Y-117147450D01*
X47129721Y-116886440D01*
X46695679Y-116706654D01*
X46234902Y-116615000D01*
X45765098Y-116615000D01*
X45304321Y-116706654D01*
X44870279Y-116886440D01*
X44479651Y-117147450D01*
X44147450Y-117479651D01*
X43886440Y-117870279D01*
X43706654Y-118304321D01*
X43615000Y-118765098D01*
X38185000Y-118765098D01*
X38185000Y-104531500D01*
X44711024Y-104531500D01*
X44714700Y-104568823D01*
X44714701Y-107992068D01*
X44711024Y-108029400D01*
X44725698Y-108178385D01*
X44769154Y-108321646D01*
X44839726Y-108453676D01*
X44865679Y-108485299D01*
X44934700Y-108569401D01*
X44963698Y-108593199D01*
X45531262Y-109160763D01*
X45463038Y-109228987D01*
X45316939Y-109447641D01*
X45216304Y-109690595D01*
X45165000Y-109948514D01*
X45165000Y-110211486D01*
X45216304Y-110469405D01*
X45316939Y-110712359D01*
X45463038Y-110931013D01*
X45648987Y-111116962D01*
X45743705Y-111180250D01*
X45750997Y-111254286D01*
X45794454Y-111397547D01*
X45865026Y-111529576D01*
X45959999Y-111645301D01*
X45980359Y-111662010D01*
X45820273Y-111728320D01*
X45585241Y-111885363D01*
X45385363Y-112085241D01*
X45228320Y-112320273D01*
X45120147Y-112581426D01*
X45065000Y-112858665D01*
X45065000Y-113141335D01*
X45120147Y-113418574D01*
X45228320Y-113679727D01*
X45385363Y-113914759D01*
X45585241Y-114114637D01*
X45820273Y-114271680D01*
X46081426Y-114379853D01*
X46358665Y-114435000D01*
X46641335Y-114435000D01*
X46918574Y-114379853D01*
X47179727Y-114271680D01*
X47414759Y-114114637D01*
X47614637Y-113914759D01*
X47750000Y-113712173D01*
X47885363Y-113914759D01*
X48085241Y-114114637D01*
X48320273Y-114271680D01*
X48581426Y-114379853D01*
X48858665Y-114435000D01*
X49141335Y-114435000D01*
X49418574Y-114379853D01*
X49679727Y-114271680D01*
X49914759Y-114114637D01*
X50114637Y-113914759D01*
X50271680Y-113679727D01*
X50379853Y-113418574D01*
X50435000Y-113141335D01*
X50435000Y-112858665D01*
X50379853Y-112581426D01*
X50271680Y-112320273D01*
X50114637Y-112085241D01*
X49914759Y-111885363D01*
X49679727Y-111728320D01*
X49418574Y-111620147D01*
X49141335Y-111565000D01*
X48858665Y-111565000D01*
X48676114Y-111601312D01*
X47713551Y-110638750D01*
X47783696Y-110469405D01*
X47835000Y-110211486D01*
X47835000Y-109948514D01*
X47783696Y-109690595D01*
X47683061Y-109447641D01*
X47536962Y-109228987D01*
X47351013Y-109043038D01*
X47256295Y-108979750D01*
X47249003Y-108905714D01*
X47205546Y-108762453D01*
X47134974Y-108630424D01*
X47040001Y-108514699D01*
X47011003Y-108490901D01*
X46388616Y-107868514D01*
X48085000Y-107868514D01*
X48085000Y-108131486D01*
X48136304Y-108389405D01*
X48236939Y-108632359D01*
X48383038Y-108851013D01*
X48568987Y-109036962D01*
X48787641Y-109183061D01*
X49030595Y-109283696D01*
X49288514Y-109335000D01*
X49551486Y-109335000D01*
X49809405Y-109283696D01*
X50052359Y-109183061D01*
X50271013Y-109036962D01*
X50456962Y-108851013D01*
X50603061Y-108632359D01*
X50703696Y-108389405D01*
X50755000Y-108131486D01*
X50755000Y-107868514D01*
X50703696Y-107610595D01*
X50603061Y-107367641D01*
X50456962Y-107148987D01*
X50271013Y-106963038D01*
X50052359Y-106816939D01*
X49809405Y-106716304D01*
X49551486Y-106665000D01*
X49288514Y-106665000D01*
X49030595Y-106716304D01*
X48787641Y-106816939D01*
X48568987Y-106963038D01*
X48383038Y-107148987D01*
X48236939Y-107367641D01*
X48136304Y-107610595D01*
X48085000Y-107868514D01*
X46388616Y-107868514D01*
X46234700Y-107714599D01*
X46234700Y-106308382D01*
X46368514Y-106335000D01*
X46631486Y-106335000D01*
X46889405Y-106283696D01*
X47132359Y-106183061D01*
X47351013Y-106036962D01*
X47536962Y-105851013D01*
X47597775Y-105760000D01*
X50159899Y-105760000D01*
X52910901Y-108511003D01*
X52934699Y-108540001D01*
X53050424Y-108634974D01*
X53182453Y-108705546D01*
X53325714Y-108749003D01*
X53399750Y-108756295D01*
X53463038Y-108851013D01*
X53648987Y-109036962D01*
X53867641Y-109183061D01*
X54110595Y-109283696D01*
X54368514Y-109335000D01*
X54631486Y-109335000D01*
X54889405Y-109283696D01*
X55132359Y-109183061D01*
X55351013Y-109036962D01*
X55536962Y-108851013D01*
X55683061Y-108632359D01*
X55783696Y-108389405D01*
X55835000Y-108131486D01*
X55835000Y-107868514D01*
X55783696Y-107610595D01*
X55683061Y-107367641D01*
X55536962Y-107148987D01*
X55351013Y-106963038D01*
X55132359Y-106816939D01*
X54889405Y-106716304D01*
X54631486Y-106665000D01*
X54368514Y-106665000D01*
X54110595Y-106716304D01*
X53867641Y-106816939D01*
X53648987Y-106963038D01*
X53580763Y-107031262D01*
X51038504Y-104489003D01*
X51014701Y-104459999D01*
X50898976Y-104365026D01*
X50766947Y-104294454D01*
X50623686Y-104250997D01*
X50512033Y-104240000D01*
X50512022Y-104240000D01*
X50474700Y-104236324D01*
X50437378Y-104240000D01*
X47709501Y-104240000D01*
X50090836Y-101858665D01*
X52685000Y-101858665D01*
X52685000Y-102141335D01*
X52740147Y-102418574D01*
X52848320Y-102679727D01*
X53005363Y-102914759D01*
X53205241Y-103114637D01*
X53440273Y-103271680D01*
X53701426Y-103379853D01*
X53978665Y-103435000D01*
X54261335Y-103435000D01*
X54538574Y-103379853D01*
X54799727Y-103271680D01*
X55034759Y-103114637D01*
X55234637Y-102914759D01*
X55391680Y-102679727D01*
X55499853Y-102418574D01*
X55555000Y-102141335D01*
X55555000Y-101858665D01*
X55499853Y-101581426D01*
X55391680Y-101320273D01*
X55234637Y-101085241D01*
X55034759Y-100885363D01*
X54799727Y-100728320D01*
X54538574Y-100620147D01*
X54261335Y-100565000D01*
X53978665Y-100565000D01*
X53701426Y-100620147D01*
X53440273Y-100728320D01*
X53205241Y-100885363D01*
X53005363Y-101085241D01*
X52848320Y-101320273D01*
X52740147Y-101581426D01*
X52685000Y-101858665D01*
X50090836Y-101858665D01*
X52960053Y-98989449D01*
X53085241Y-99114637D01*
X53320273Y-99271680D01*
X53581426Y-99379853D01*
X53858665Y-99435000D01*
X54141335Y-99435000D01*
X54418574Y-99379853D01*
X54679727Y-99271680D01*
X54914759Y-99114637D01*
X55114637Y-98914759D01*
X55271680Y-98679727D01*
X55379853Y-98418574D01*
X55435000Y-98141335D01*
X55435000Y-97858665D01*
X55379853Y-97581426D01*
X55271680Y-97320273D01*
X55191317Y-97200000D01*
X57561928Y-97200000D01*
X57561928Y-98800000D01*
X57574188Y-98924482D01*
X57610498Y-99044180D01*
X57669463Y-99154494D01*
X57748815Y-99251185D01*
X57845506Y-99330537D01*
X57955820Y-99389502D01*
X58075518Y-99425812D01*
X58200000Y-99438072D01*
X59800000Y-99438072D01*
X59924482Y-99425812D01*
X60044180Y-99389502D01*
X60154494Y-99330537D01*
X60251185Y-99251185D01*
X60330537Y-99154494D01*
X60389502Y-99044180D01*
X60425812Y-98924482D01*
X60438072Y-98800000D01*
X60438072Y-97200000D01*
X60425812Y-97075518D01*
X60389502Y-96955820D01*
X60330537Y-96845506D01*
X60251185Y-96748815D01*
X60154494Y-96669463D01*
X60044180Y-96610498D01*
X59924482Y-96574188D01*
X59800000Y-96561928D01*
X58200000Y-96561928D01*
X58075518Y-96574188D01*
X57955820Y-96610498D01*
X57845506Y-96669463D01*
X57748815Y-96748815D01*
X57669463Y-96845506D01*
X57610498Y-96955820D01*
X57574188Y-97075518D01*
X57561928Y-97200000D01*
X55191317Y-97200000D01*
X55114637Y-97085241D01*
X54914759Y-96885363D01*
X54679727Y-96728320D01*
X54418574Y-96620147D01*
X54141335Y-96565000D01*
X53858665Y-96565000D01*
X53581426Y-96620147D01*
X53320273Y-96728320D01*
X53085241Y-96885363D01*
X52885363Y-97085241D01*
X52778053Y-97245842D01*
X52725714Y-97250997D01*
X52582453Y-97294454D01*
X52450424Y-97365026D01*
X52334699Y-97459999D01*
X52310901Y-97488997D01*
X47938072Y-101861827D01*
X47938072Y-101200000D01*
X47925812Y-101075518D01*
X47889502Y-100955820D01*
X47830537Y-100845506D01*
X47751185Y-100748815D01*
X47654494Y-100669463D01*
X47544180Y-100610498D01*
X47424482Y-100574188D01*
X47300000Y-100561928D01*
X45700000Y-100561928D01*
X45575518Y-100574188D01*
X45455820Y-100610498D01*
X45345506Y-100669463D01*
X45248815Y-100748815D01*
X45169463Y-100845506D01*
X45110498Y-100955820D01*
X45074188Y-101075518D01*
X45061928Y-101200000D01*
X45061928Y-102800000D01*
X45074188Y-102924482D01*
X45110498Y-103044180D01*
X45169463Y-103154494D01*
X45248815Y-103251185D01*
X45345506Y-103330537D01*
X45455820Y-103389502D01*
X45521862Y-103409536D01*
X44963702Y-103967697D01*
X44934699Y-103991499D01*
X44879571Y-104058674D01*
X44839726Y-104107224D01*
X44817403Y-104148987D01*
X44769154Y-104239254D01*
X44725697Y-104382515D01*
X44714700Y-104494168D01*
X44714700Y-104494178D01*
X44711024Y-104531500D01*
X38185000Y-104531500D01*
X38185000Y-78238665D01*
X41945000Y-78238665D01*
X41945000Y-78521335D01*
X42000147Y-78798574D01*
X42108320Y-79059727D01*
X42265363Y-79294759D01*
X42465241Y-79494637D01*
X42697759Y-79650000D01*
X42465241Y-79805363D01*
X42265363Y-80005241D01*
X42108320Y-80240273D01*
X42000147Y-80501426D01*
X41945000Y-80778665D01*
X41945000Y-81061335D01*
X42000147Y-81338574D01*
X42108320Y-81599727D01*
X42265363Y-81834759D01*
X42465241Y-82034637D01*
X42697759Y-82190000D01*
X42465241Y-82345363D01*
X42265363Y-82545241D01*
X42108320Y-82780273D01*
X42000147Y-83041426D01*
X41945000Y-83318665D01*
X41945000Y-83601335D01*
X42000147Y-83878574D01*
X42108320Y-84139727D01*
X42265363Y-84374759D01*
X42465241Y-84574637D01*
X42625842Y-84681947D01*
X42630997Y-84734286D01*
X42641167Y-84767813D01*
X42465241Y-84885363D01*
X42265363Y-85085241D01*
X42108320Y-85320273D01*
X42000147Y-85581426D01*
X41945000Y-85858665D01*
X41945000Y-86141335D01*
X42000147Y-86418574D01*
X42108320Y-86679727D01*
X42265363Y-86914759D01*
X42465241Y-87114637D01*
X42700273Y-87271680D01*
X42961426Y-87379853D01*
X43238665Y-87435000D01*
X43521335Y-87435000D01*
X43798574Y-87379853D01*
X44059727Y-87271680D01*
X44294759Y-87114637D01*
X44494637Y-86914759D01*
X44651680Y-86679727D01*
X44660246Y-86659048D01*
X45620000Y-87618803D01*
X45620000Y-90408536D01*
X45603061Y-90367641D01*
X45456962Y-90148987D01*
X45271013Y-89963038D01*
X45052359Y-89816939D01*
X44809405Y-89716304D01*
X44551486Y-89665000D01*
X44288514Y-89665000D01*
X44030595Y-89716304D01*
X43787641Y-89816939D01*
X43568987Y-89963038D01*
X43383038Y-90148987D01*
X43236939Y-90367641D01*
X43136304Y-90610595D01*
X43085000Y-90868514D01*
X43085000Y-91131486D01*
X43136304Y-91389405D01*
X43236939Y-91632359D01*
X43383038Y-91851013D01*
X43568987Y-92036962D01*
X43787641Y-92183061D01*
X44030595Y-92283696D01*
X44288514Y-92335000D01*
X44551486Y-92335000D01*
X44809405Y-92283696D01*
X45052359Y-92183061D01*
X45271013Y-92036962D01*
X45456962Y-91851013D01*
X45603061Y-91632359D01*
X45620000Y-91591464D01*
X45620001Y-96561928D01*
X45580000Y-96561928D01*
X45455518Y-96574188D01*
X45335820Y-96610498D01*
X45225506Y-96669463D01*
X45128815Y-96748815D01*
X45049463Y-96845506D01*
X44990498Y-96955820D01*
X44954188Y-97075518D01*
X44941928Y-97200000D01*
X44941928Y-98800000D01*
X44954188Y-98924482D01*
X44990498Y-99044180D01*
X45049463Y-99154494D01*
X45128815Y-99251185D01*
X45225506Y-99330537D01*
X45335820Y-99389502D01*
X45455518Y-99425812D01*
X45580000Y-99438072D01*
X47180000Y-99438072D01*
X47304482Y-99425812D01*
X47424180Y-99389502D01*
X47534494Y-99330537D01*
X47631185Y-99251185D01*
X47710537Y-99154494D01*
X47769502Y-99044180D01*
X47805812Y-98924482D01*
X47818072Y-98800000D01*
X47818072Y-97200000D01*
X47805812Y-97075518D01*
X47769502Y-96955820D01*
X47710537Y-96845506D01*
X47631185Y-96748815D01*
X47534494Y-96669463D01*
X47424180Y-96610498D01*
X47304482Y-96574188D01*
X47180000Y-96561928D01*
X47140000Y-96561928D01*
X47140000Y-90868514D01*
X48165000Y-90868514D01*
X48165000Y-91131486D01*
X48216304Y-91389405D01*
X48316939Y-91632359D01*
X48463038Y-91851013D01*
X48648987Y-92036962D01*
X48867641Y-92183061D01*
X49110595Y-92283696D01*
X49368514Y-92335000D01*
X49631486Y-92335000D01*
X49889405Y-92283696D01*
X50132359Y-92183061D01*
X50351013Y-92036962D01*
X50536962Y-91851013D01*
X50683061Y-91632359D01*
X50783696Y-91389405D01*
X50835000Y-91131486D01*
X50835000Y-90868514D01*
X61665000Y-90868514D01*
X61665000Y-91131486D01*
X61716304Y-91389405D01*
X61816939Y-91632359D01*
X61963038Y-91851013D01*
X62148987Y-92036962D01*
X62367641Y-92183061D01*
X62610595Y-92283696D01*
X62868514Y-92335000D01*
X63131486Y-92335000D01*
X63389405Y-92283696D01*
X63632359Y-92183061D01*
X63851013Y-92036962D01*
X64036962Y-91851013D01*
X64183061Y-91632359D01*
X64283696Y-91389405D01*
X64335000Y-91131486D01*
X64335000Y-90868514D01*
X64283696Y-90610595D01*
X64183061Y-90367641D01*
X64036962Y-90148987D01*
X63851013Y-89963038D01*
X63632359Y-89816939D01*
X63389405Y-89716304D01*
X63131486Y-89665000D01*
X62868514Y-89665000D01*
X62610595Y-89716304D01*
X62367641Y-89816939D01*
X62148987Y-89963038D01*
X61963038Y-90148987D01*
X61816939Y-90367641D01*
X61716304Y-90610595D01*
X61665000Y-90868514D01*
X50835000Y-90868514D01*
X50783696Y-90610595D01*
X50683061Y-90367641D01*
X50536962Y-90148987D01*
X50351013Y-89963038D01*
X50132359Y-89816939D01*
X49889405Y-89716304D01*
X49631486Y-89665000D01*
X49368514Y-89665000D01*
X49110595Y-89716304D01*
X48867641Y-89816939D01*
X48648987Y-89963038D01*
X48463038Y-90148987D01*
X48316939Y-90367641D01*
X48216304Y-90610595D01*
X48165000Y-90868514D01*
X47140000Y-90868514D01*
X47140000Y-88064000D01*
X53571678Y-88064000D01*
X53609000Y-88067676D01*
X53646322Y-88064000D01*
X53646333Y-88064000D01*
X53757986Y-88053003D01*
X53901247Y-88009546D01*
X54033276Y-87938974D01*
X54149001Y-87844001D01*
X54172804Y-87814997D01*
X57304785Y-84683017D01*
X57316939Y-84712359D01*
X57463038Y-84931013D01*
X57648987Y-85116962D01*
X57867641Y-85263061D01*
X58110595Y-85363696D01*
X58368514Y-85415000D01*
X58631486Y-85415000D01*
X58889405Y-85363696D01*
X59132359Y-85263061D01*
X59351013Y-85116962D01*
X59419237Y-85048738D01*
X59686501Y-85316002D01*
X59710299Y-85345001D01*
X59826024Y-85439974D01*
X59958053Y-85510546D01*
X60101314Y-85554003D01*
X60212967Y-85565000D01*
X60212977Y-85565000D01*
X60250300Y-85568676D01*
X60287623Y-85565000D01*
X60626951Y-85565000D01*
X60620147Y-85581426D01*
X60565000Y-85858665D01*
X60565000Y-86141335D01*
X60620147Y-86418574D01*
X60728320Y-86679727D01*
X60885363Y-86914759D01*
X61085241Y-87114637D01*
X61320273Y-87271680D01*
X61581426Y-87379853D01*
X61858665Y-87435000D01*
X62141335Y-87435000D01*
X62418574Y-87379853D01*
X62679727Y-87271680D01*
X62914759Y-87114637D01*
X63114637Y-86914759D01*
X63271680Y-86679727D01*
X63379853Y-86418574D01*
X63435000Y-86141335D01*
X63435000Y-85858665D01*
X63379853Y-85581426D01*
X63373049Y-85565000D01*
X67148199Y-85565000D01*
X67320001Y-85736803D01*
X67320000Y-89902225D01*
X67228987Y-89963038D01*
X67043038Y-90148987D01*
X66896939Y-90367641D01*
X66796304Y-90610595D01*
X66745000Y-90868514D01*
X66745000Y-91131486D01*
X66796304Y-91389405D01*
X66896939Y-91632359D01*
X67043038Y-91851013D01*
X67228987Y-92036962D01*
X67371208Y-92131990D01*
X59388499Y-100114700D01*
X59037333Y-100114700D01*
X59000000Y-100111023D01*
X58962667Y-100114700D01*
X58851014Y-100125697D01*
X58707753Y-100169154D01*
X58575724Y-100239726D01*
X58459999Y-100334699D01*
X58365026Y-100450424D01*
X58305425Y-100561928D01*
X58200000Y-100561928D01*
X58075518Y-100574188D01*
X57955820Y-100610498D01*
X57845506Y-100669463D01*
X57748815Y-100748815D01*
X57669463Y-100845506D01*
X57610498Y-100955820D01*
X57574188Y-101075518D01*
X57561928Y-101200000D01*
X57561928Y-102800000D01*
X57574188Y-102924482D01*
X57610498Y-103044180D01*
X57669463Y-103154494D01*
X57748815Y-103251185D01*
X57845506Y-103330537D01*
X57955820Y-103389502D01*
X58075518Y-103425812D01*
X58200000Y-103438072D01*
X59800000Y-103438072D01*
X59924482Y-103425812D01*
X60044180Y-103389502D01*
X60154494Y-103330537D01*
X60251185Y-103251185D01*
X60330537Y-103154494D01*
X60389502Y-103044180D01*
X60425812Y-102924482D01*
X60438072Y-102800000D01*
X60438072Y-101214729D01*
X63794136Y-97858665D01*
X65185000Y-97858665D01*
X65185000Y-98141335D01*
X65240147Y-98418574D01*
X65348320Y-98679727D01*
X65505363Y-98914759D01*
X65705241Y-99114637D01*
X65940273Y-99271680D01*
X66201426Y-99379853D01*
X66478665Y-99435000D01*
X66761335Y-99435000D01*
X67038574Y-99379853D01*
X67299727Y-99271680D01*
X67534759Y-99114637D01*
X67734637Y-98914759D01*
X67891680Y-98679727D01*
X67999853Y-98418574D01*
X68055000Y-98141335D01*
X68055000Y-97858665D01*
X67999853Y-97581426D01*
X67891680Y-97320273D01*
X67734637Y-97085241D01*
X67534759Y-96885363D01*
X67299727Y-96728320D01*
X67038574Y-96620147D01*
X66761335Y-96565000D01*
X66478665Y-96565000D01*
X66201426Y-96620147D01*
X65940273Y-96728320D01*
X65705241Y-96885363D01*
X65505363Y-97085241D01*
X65348320Y-97320273D01*
X65240147Y-97581426D01*
X65185000Y-97858665D01*
X63794136Y-97858665D01*
X71256304Y-90396498D01*
X71285301Y-90372701D01*
X71311632Y-90340617D01*
X71380274Y-90256977D01*
X71450846Y-90124947D01*
X71450846Y-90124946D01*
X71494303Y-89981686D01*
X71505300Y-89870033D01*
X71505300Y-89870024D01*
X71508976Y-89832701D01*
X71505300Y-89795378D01*
X71505300Y-82926523D01*
X71508976Y-82889200D01*
X71505300Y-82851877D01*
X71505300Y-82851867D01*
X71494303Y-82740214D01*
X71450846Y-82596953D01*
X71380274Y-82464924D01*
X71285301Y-82349199D01*
X71256303Y-82325401D01*
X70747063Y-81816162D01*
X70891680Y-81599727D01*
X70999853Y-81338574D01*
X71055000Y-81061335D01*
X71055000Y-80778665D01*
X70999853Y-80501426D01*
X70891680Y-80240273D01*
X70734637Y-80005241D01*
X70697999Y-79968603D01*
X71288609Y-79377994D01*
X71317601Y-79354201D01*
X71341395Y-79325208D01*
X71341399Y-79325204D01*
X71412573Y-79238477D01*
X71412574Y-79238476D01*
X71483146Y-79106447D01*
X71526603Y-78963186D01*
X71537600Y-78851533D01*
X71537600Y-78851524D01*
X71541276Y-78814201D01*
X71537600Y-78776878D01*
X71537600Y-71920222D01*
X71541276Y-71882899D01*
X71537600Y-71845576D01*
X71537600Y-71845567D01*
X71526603Y-71733914D01*
X71483146Y-71590653D01*
X71412574Y-71458623D01*
X71341399Y-71371897D01*
X71317601Y-71342899D01*
X71288603Y-71319101D01*
X69968738Y-69999237D01*
X70036962Y-69931013D01*
X70183061Y-69712359D01*
X70283696Y-69469405D01*
X70335000Y-69211486D01*
X70335000Y-68948514D01*
X70283696Y-68690595D01*
X70183061Y-68447641D01*
X70036962Y-68228987D01*
X69851013Y-68043038D01*
X69632359Y-67896939D01*
X69389405Y-67796304D01*
X69131486Y-67745000D01*
X68868514Y-67745000D01*
X68610595Y-67796304D01*
X68367641Y-67896939D01*
X68148987Y-68043038D01*
X67963038Y-68228987D01*
X67816939Y-68447641D01*
X67716304Y-68690595D01*
X67665000Y-68948514D01*
X67665000Y-69211486D01*
X67716304Y-69469405D01*
X67816939Y-69712359D01*
X67963038Y-69931013D01*
X68148987Y-70116962D01*
X68243706Y-70180251D01*
X68250998Y-70254286D01*
X68253660Y-70263061D01*
X68294454Y-70397546D01*
X68365026Y-70529576D01*
X68423655Y-70601015D01*
X68460000Y-70645301D01*
X68488998Y-70669099D01*
X70017601Y-72197703D01*
X70017600Y-76995975D01*
X69761335Y-76945000D01*
X69478665Y-76945000D01*
X69201426Y-77000147D01*
X68940273Y-77108320D01*
X68705241Y-77265363D01*
X68505363Y-77465241D01*
X68401957Y-77620000D01*
X66694802Y-77620000D01*
X64009801Y-74935000D01*
X64141335Y-74935000D01*
X64418574Y-74879853D01*
X64679727Y-74771680D01*
X64914759Y-74614637D01*
X65114637Y-74414759D01*
X65271680Y-74179727D01*
X65379853Y-73918574D01*
X65435000Y-73641335D01*
X65435000Y-73358665D01*
X65379853Y-73081426D01*
X65271680Y-72820273D01*
X65114637Y-72585241D01*
X64914759Y-72385363D01*
X64679727Y-72228320D01*
X64418574Y-72120147D01*
X64141335Y-72065000D01*
X63858665Y-72065000D01*
X63581426Y-72120147D01*
X63320273Y-72228320D01*
X63085241Y-72385363D01*
X62885363Y-72585241D01*
X62750000Y-72787827D01*
X62614637Y-72585241D01*
X62414759Y-72385363D01*
X62179727Y-72228320D01*
X61918574Y-72120147D01*
X61641335Y-72065000D01*
X61358665Y-72065000D01*
X61081426Y-72120147D01*
X60820273Y-72228320D01*
X60585241Y-72385363D01*
X60385363Y-72585241D01*
X60281957Y-72740000D01*
X53140000Y-72740000D01*
X53140000Y-69218043D01*
X53294759Y-69114637D01*
X53494637Y-68914759D01*
X53651680Y-68679727D01*
X53759853Y-68418574D01*
X53815000Y-68141335D01*
X53815000Y-67858665D01*
X53759853Y-67581426D01*
X53651680Y-67320273D01*
X53571317Y-67200000D01*
X58561928Y-67200000D01*
X58561928Y-68800000D01*
X58574188Y-68924482D01*
X58610498Y-69044180D01*
X58669463Y-69154494D01*
X58748815Y-69251185D01*
X58845506Y-69330537D01*
X58955820Y-69389502D01*
X59075518Y-69425812D01*
X59200000Y-69438072D01*
X60800000Y-69438072D01*
X60924482Y-69425812D01*
X61044180Y-69389502D01*
X61154494Y-69330537D01*
X61251185Y-69251185D01*
X61330537Y-69154494D01*
X61389502Y-69044180D01*
X61418521Y-68948514D01*
X63665000Y-68948514D01*
X63665000Y-69211486D01*
X63716304Y-69469405D01*
X63816939Y-69712359D01*
X63963038Y-69931013D01*
X64148987Y-70116962D01*
X64367641Y-70263061D01*
X64610595Y-70363696D01*
X64868514Y-70415000D01*
X65131486Y-70415000D01*
X65389405Y-70363696D01*
X65632359Y-70263061D01*
X65851013Y-70116962D01*
X66036962Y-69931013D01*
X66183061Y-69712359D01*
X66283696Y-69469405D01*
X66335000Y-69211486D01*
X66335000Y-68948514D01*
X66283696Y-68690595D01*
X66183061Y-68447641D01*
X66036962Y-68228987D01*
X65851013Y-68043038D01*
X65632359Y-67896939D01*
X65389405Y-67796304D01*
X65131486Y-67745000D01*
X64868514Y-67745000D01*
X64610595Y-67796304D01*
X64367641Y-67896939D01*
X64148987Y-68043038D01*
X63963038Y-68228987D01*
X63816939Y-68447641D01*
X63716304Y-68690595D01*
X63665000Y-68948514D01*
X61418521Y-68948514D01*
X61425812Y-68924482D01*
X61438072Y-68800000D01*
X61438072Y-67200000D01*
X61425812Y-67075518D01*
X61389502Y-66955820D01*
X61330537Y-66845506D01*
X61251185Y-66748815D01*
X61154494Y-66669463D01*
X61044180Y-66610498D01*
X60924482Y-66574188D01*
X60800000Y-66561928D01*
X59200000Y-66561928D01*
X59075518Y-66574188D01*
X58955820Y-66610498D01*
X58845506Y-66669463D01*
X58748815Y-66748815D01*
X58669463Y-66845506D01*
X58610498Y-66955820D01*
X58574188Y-67075518D01*
X58561928Y-67200000D01*
X53571317Y-67200000D01*
X53494637Y-67085241D01*
X53294759Y-66885363D01*
X53134158Y-66778053D01*
X53129003Y-66725714D01*
X53085546Y-66582453D01*
X53074575Y-66561928D01*
X53014974Y-66450423D01*
X52943799Y-66363697D01*
X52920001Y-66334699D01*
X52891003Y-66310901D01*
X51132400Y-64552299D01*
X51132400Y-55889992D01*
X51358665Y-55935000D01*
X51641335Y-55935000D01*
X51918574Y-55879853D01*
X52179727Y-55771680D01*
X52414759Y-55614637D01*
X52614637Y-55414759D01*
X52718043Y-55260000D01*
X55281957Y-55260000D01*
X55385363Y-55414759D01*
X55585241Y-55614637D01*
X55820273Y-55771680D01*
X56081426Y-55879853D01*
X56358665Y-55935000D01*
X56641335Y-55935000D01*
X56918574Y-55879853D01*
X57179727Y-55771680D01*
X57414759Y-55614637D01*
X57614637Y-55414759D01*
X57718043Y-55260000D01*
X60281957Y-55260000D01*
X60385363Y-55414759D01*
X60585241Y-55614637D01*
X60820273Y-55771680D01*
X61081426Y-55879853D01*
X61358665Y-55935000D01*
X61641335Y-55935000D01*
X61918574Y-55879853D01*
X62041607Y-55828891D01*
X54839237Y-63031262D01*
X54771013Y-62963038D01*
X54552359Y-62816939D01*
X54309405Y-62716304D01*
X54051486Y-62665000D01*
X53788514Y-62665000D01*
X53530595Y-62716304D01*
X53287641Y-62816939D01*
X53068987Y-62963038D01*
X52883038Y-63148987D01*
X52736939Y-63367641D01*
X52636304Y-63610595D01*
X52585000Y-63868514D01*
X52585000Y-64131486D01*
X52636304Y-64389405D01*
X52736939Y-64632359D01*
X52883038Y-64851013D01*
X53068987Y-65036962D01*
X53287641Y-65183061D01*
X53530595Y-65283696D01*
X53788514Y-65335000D01*
X54051486Y-65335000D01*
X54309405Y-65283696D01*
X54552359Y-65183061D01*
X54771013Y-65036962D01*
X54956962Y-64851013D01*
X55020250Y-64756295D01*
X55094286Y-64749003D01*
X55237547Y-64705546D01*
X55369576Y-64634974D01*
X55485301Y-64540001D01*
X55509104Y-64510997D01*
X56151587Y-63868514D01*
X57665000Y-63868514D01*
X57665000Y-64131486D01*
X57716304Y-64389405D01*
X57816939Y-64632359D01*
X57963038Y-64851013D01*
X58148987Y-65036962D01*
X58367641Y-65183061D01*
X58610595Y-65283696D01*
X58868514Y-65335000D01*
X59131486Y-65335000D01*
X59389405Y-65283696D01*
X59632359Y-65183061D01*
X59851013Y-65036962D01*
X60036962Y-64851013D01*
X60097775Y-64760000D01*
X63902225Y-64760000D01*
X63963038Y-64851013D01*
X64148987Y-65036962D01*
X64367641Y-65183061D01*
X64610595Y-65283696D01*
X64868514Y-65335000D01*
X65131486Y-65335000D01*
X65389405Y-65283696D01*
X65632359Y-65183061D01*
X65851013Y-65036962D01*
X66036962Y-64851013D01*
X66183061Y-64632359D01*
X66283696Y-64389405D01*
X66335000Y-64131486D01*
X66335000Y-63868514D01*
X67665000Y-63868514D01*
X67665000Y-64131486D01*
X67716304Y-64389405D01*
X67816939Y-64632359D01*
X67963038Y-64851013D01*
X68148987Y-65036962D01*
X68367641Y-65183061D01*
X68610595Y-65283696D01*
X68868514Y-65335000D01*
X69131486Y-65335000D01*
X69389405Y-65283696D01*
X69632359Y-65183061D01*
X69851013Y-65036962D01*
X70036962Y-64851013D01*
X70183061Y-64632359D01*
X70283696Y-64389405D01*
X70335000Y-64131486D01*
X70335000Y-63868514D01*
X70283696Y-63610595D01*
X70183061Y-63367641D01*
X70036962Y-63148987D01*
X69851013Y-62963038D01*
X69632359Y-62816939D01*
X69389405Y-62716304D01*
X69131486Y-62665000D01*
X68868514Y-62665000D01*
X68610595Y-62716304D01*
X68367641Y-62816939D01*
X68148987Y-62963038D01*
X67963038Y-63148987D01*
X67816939Y-63367641D01*
X67716304Y-63610595D01*
X67665000Y-63868514D01*
X66335000Y-63868514D01*
X66283696Y-63610595D01*
X66183061Y-63367641D01*
X66036962Y-63148987D01*
X65851013Y-62963038D01*
X65632359Y-62816939D01*
X65389405Y-62716304D01*
X65131486Y-62665000D01*
X64868514Y-62665000D01*
X64610595Y-62716304D01*
X64367641Y-62816939D01*
X64148987Y-62963038D01*
X63963038Y-63148987D01*
X63902225Y-63240000D01*
X60097775Y-63240000D01*
X60036962Y-63148987D01*
X59851013Y-62963038D01*
X59632359Y-62816939D01*
X59389405Y-62716304D01*
X59131486Y-62665000D01*
X58868514Y-62665000D01*
X58610595Y-62716304D01*
X58367641Y-62816939D01*
X58148987Y-62963038D01*
X57963038Y-63148987D01*
X57816939Y-63367641D01*
X57716304Y-63610595D01*
X57665000Y-63868514D01*
X56151587Y-63868514D01*
X64760102Y-55260000D01*
X65281957Y-55260000D01*
X65385363Y-55414759D01*
X65585241Y-55614637D01*
X65820273Y-55771680D01*
X66081426Y-55879853D01*
X66358665Y-55935000D01*
X66641335Y-55935000D01*
X66918574Y-55879853D01*
X67179727Y-55771680D01*
X67414759Y-55614637D01*
X67614637Y-55414759D01*
X67771680Y-55179727D01*
X67879853Y-54918574D01*
X67935000Y-54641335D01*
X67935000Y-54358665D01*
X67879853Y-54081426D01*
X67771680Y-53820273D01*
X67614637Y-53585241D01*
X67414759Y-53385363D01*
X67212173Y-53250000D01*
X67414759Y-53114637D01*
X67614637Y-52914759D01*
X67771680Y-52679727D01*
X67879853Y-52418574D01*
X67935000Y-52141335D01*
X67935000Y-51858665D01*
X67879853Y-51581426D01*
X67771680Y-51320273D01*
X67614637Y-51085241D01*
X67414759Y-50885363D01*
X67179727Y-50728320D01*
X66918574Y-50620147D01*
X66641335Y-50565000D01*
X66358665Y-50565000D01*
X66081426Y-50620147D01*
X65820273Y-50728320D01*
X65585241Y-50885363D01*
X65385363Y-51085241D01*
X65228320Y-51320273D01*
X65120147Y-51581426D01*
X65065000Y-51858665D01*
X65065000Y-52141335D01*
X65120147Y-52418574D01*
X65228320Y-52679727D01*
X65385363Y-52914759D01*
X65585241Y-53114637D01*
X65787827Y-53250000D01*
X65585241Y-53385363D01*
X65385363Y-53585241D01*
X65281957Y-53740000D01*
X65205300Y-53740000D01*
X65205300Y-52982623D01*
X65208976Y-52945300D01*
X65205300Y-52907977D01*
X65205300Y-52907967D01*
X65194303Y-52796314D01*
X65150846Y-52653053D01*
X65080274Y-52521024D01*
X64985301Y-52405299D01*
X64956304Y-52381502D01*
X53640202Y-41065401D01*
X53793346Y-40695679D01*
X53885000Y-40234902D01*
X53885000Y-39765098D01*
X54115000Y-39765098D01*
X54115000Y-40234902D01*
X54206654Y-40695679D01*
X54386440Y-41129721D01*
X54647450Y-41520349D01*
X54979651Y-41852550D01*
X55370279Y-42113560D01*
X55804321Y-42293346D01*
X56265098Y-42385000D01*
X56734902Y-42385000D01*
X57195679Y-42293346D01*
X57629721Y-42113560D01*
X58020349Y-41852550D01*
X58352550Y-41520349D01*
X58613560Y-41129721D01*
X58793346Y-40695679D01*
X58885000Y-40234902D01*
X58885000Y-39765098D01*
X58882062Y-39750324D01*
X58965000Y-39750324D01*
X58965000Y-40249676D01*
X59062418Y-40739432D01*
X59253512Y-41200773D01*
X59530937Y-41615968D01*
X59884032Y-41969063D01*
X60299227Y-42246488D01*
X60760568Y-42437582D01*
X61250324Y-42535000D01*
X61749676Y-42535000D01*
X62239432Y-42437582D01*
X62700773Y-42246488D01*
X63115968Y-41969063D01*
X63469063Y-41615968D01*
X63746488Y-41200773D01*
X63937582Y-40739432D01*
X64035000Y-40249676D01*
X64035000Y-39750324D01*
X63937582Y-39260568D01*
X63746488Y-38799227D01*
X63469063Y-38384032D01*
X63115968Y-38030937D01*
X62700773Y-37753512D01*
X62239432Y-37562418D01*
X61749676Y-37465000D01*
X61250324Y-37465000D01*
X60760568Y-37562418D01*
X60299227Y-37753512D01*
X59884032Y-38030937D01*
X59530937Y-38384032D01*
X59253512Y-38799227D01*
X59062418Y-39260568D01*
X58965000Y-39750324D01*
X58882062Y-39750324D01*
X58793346Y-39304321D01*
X58613560Y-38870279D01*
X58352550Y-38479651D01*
X58020349Y-38147450D01*
X57629721Y-37886440D01*
X57195679Y-37706654D01*
X56734902Y-37615000D01*
X56265098Y-37615000D01*
X55804321Y-37706654D01*
X55370279Y-37886440D01*
X54979651Y-38147450D01*
X54647450Y-38479651D01*
X54386440Y-38870279D01*
X54206654Y-39304321D01*
X54115000Y-39765098D01*
X53885000Y-39765098D01*
X53793346Y-39304321D01*
X53613560Y-38870279D01*
X53352550Y-38479651D01*
X53020349Y-38147450D01*
X52629721Y-37886440D01*
X52195679Y-37706654D01*
X51734902Y-37615000D01*
X51265098Y-37615000D01*
X50804321Y-37706654D01*
X50370279Y-37886440D01*
X49979651Y-38147450D01*
X49647450Y-38479651D01*
X49386440Y-38870279D01*
X49206654Y-39304321D01*
X49115000Y-39765098D01*
X49115000Y-40234902D01*
X49206654Y-40695679D01*
X49386440Y-41129721D01*
X49647450Y-41520349D01*
X49979651Y-41852550D01*
X50370279Y-42113560D01*
X50804321Y-42293346D01*
X51265098Y-42385000D01*
X51734902Y-42385000D01*
X52195679Y-42293346D01*
X52565401Y-42140202D01*
X61055913Y-50630715D01*
X60820273Y-50728320D01*
X60585241Y-50885363D01*
X60385363Y-51085241D01*
X60281957Y-51240000D01*
X57718043Y-51240000D01*
X57614637Y-51085241D01*
X57414759Y-50885363D01*
X57179727Y-50728320D01*
X56918574Y-50620147D01*
X56641335Y-50565000D01*
X56358665Y-50565000D01*
X56081426Y-50620147D01*
X55820273Y-50728320D01*
X55585241Y-50885363D01*
X55385363Y-51085241D01*
X55281957Y-51240000D01*
X52718043Y-51240000D01*
X52614637Y-51085241D01*
X52414759Y-50885363D01*
X52179727Y-50728320D01*
X51918574Y-50620147D01*
X51641335Y-50565000D01*
X51358665Y-50565000D01*
X51081426Y-50620147D01*
X50820273Y-50728320D01*
X50585241Y-50885363D01*
X50385363Y-51085241D01*
X50228320Y-51320273D01*
X50120147Y-51581426D01*
X50065000Y-51858665D01*
X50065000Y-52141335D01*
X50101312Y-52323887D01*
X49861398Y-52563801D01*
X49832400Y-52587599D01*
X49808602Y-52616597D01*
X49808601Y-52616598D01*
X49737426Y-52703324D01*
X49666854Y-52835354D01*
X49623398Y-52978615D01*
X49608724Y-53127600D01*
X49612401Y-53164932D01*
X49612400Y-64829778D01*
X49608724Y-64867100D01*
X49612400Y-64904422D01*
X49612400Y-64904432D01*
X49623397Y-65016085D01*
X49666854Y-65159346D01*
X49737426Y-65291376D01*
X49773228Y-65335000D01*
X49832399Y-65407101D01*
X49861403Y-65430904D01*
X51390551Y-66960053D01*
X51265363Y-67085241D01*
X51108320Y-67320273D01*
X51000147Y-67581426D01*
X50945000Y-67858665D01*
X50945000Y-68141335D01*
X51000147Y-68418574D01*
X51108320Y-68679727D01*
X51265363Y-68914759D01*
X51465241Y-69114637D01*
X51620001Y-69218044D01*
X51620000Y-72203580D01*
X51418574Y-72120147D01*
X51141335Y-72065000D01*
X50858665Y-72065000D01*
X50581426Y-72120147D01*
X50320273Y-72228320D01*
X50085241Y-72385363D01*
X49885363Y-72585241D01*
X49750000Y-72787827D01*
X49614637Y-72585241D01*
X49414759Y-72385363D01*
X49179727Y-72228320D01*
X48918574Y-72120147D01*
X48641335Y-72065000D01*
X48358665Y-72065000D01*
X48115300Y-72113409D01*
X48115300Y-71064802D01*
X48511008Y-70669095D01*
X48540001Y-70645301D01*
X48563795Y-70616308D01*
X48563799Y-70616304D01*
X48634973Y-70529577D01*
X48634974Y-70529576D01*
X48705546Y-70397547D01*
X48749003Y-70254286D01*
X48756295Y-70180250D01*
X48851013Y-70116962D01*
X49036962Y-69931013D01*
X49183061Y-69712359D01*
X49283696Y-69469405D01*
X49335000Y-69211486D01*
X49335000Y-68948514D01*
X49283696Y-68690595D01*
X49183061Y-68447641D01*
X49036962Y-68228987D01*
X48851013Y-68043038D01*
X48632359Y-67896939D01*
X48389405Y-67796304D01*
X48131486Y-67745000D01*
X47868514Y-67745000D01*
X47610595Y-67796304D01*
X47367641Y-67896939D01*
X47148987Y-68043038D01*
X46963038Y-68228987D01*
X46816939Y-68447641D01*
X46716304Y-68690595D01*
X46665000Y-68948514D01*
X46665000Y-69211486D01*
X46716304Y-69469405D01*
X46816939Y-69712359D01*
X46963038Y-69931013D01*
X47031262Y-69999237D01*
X46844297Y-70186202D01*
X46815300Y-70209999D01*
X46791502Y-70238997D01*
X46791501Y-70238998D01*
X46720326Y-70325724D01*
X46649754Y-70457754D01*
X46606298Y-70601015D01*
X46591624Y-70750000D01*
X46595301Y-70787332D01*
X46595300Y-78761400D01*
X45941222Y-78761400D01*
X45903899Y-78757724D01*
X45866576Y-78761400D01*
X45866567Y-78761400D01*
X45754914Y-78772397D01*
X45617102Y-78814201D01*
X45611653Y-78815854D01*
X45479623Y-78886426D01*
X45409715Y-78943799D01*
X45363899Y-78981399D01*
X45340101Y-79010397D01*
X44419947Y-79930551D01*
X44294759Y-79805363D01*
X44062241Y-79650000D01*
X44294759Y-79494637D01*
X44494637Y-79294759D01*
X44651680Y-79059727D01*
X44759853Y-78798574D01*
X44815000Y-78521335D01*
X44815000Y-78238665D01*
X44759853Y-77961426D01*
X44651680Y-77700273D01*
X44494637Y-77465241D01*
X44294759Y-77265363D01*
X44059727Y-77108320D01*
X43798574Y-77000147D01*
X43521335Y-76945000D01*
X43238665Y-76945000D01*
X42961426Y-77000147D01*
X42700273Y-77108320D01*
X42465241Y-77265363D01*
X42265363Y-77465241D01*
X42108320Y-77700273D01*
X42000147Y-77961426D01*
X41945000Y-78238665D01*
X38185000Y-78238665D01*
X38185000Y-68868514D01*
X42665000Y-68868514D01*
X42665000Y-69131486D01*
X42716304Y-69389405D01*
X42816939Y-69632359D01*
X42963038Y-69851013D01*
X43148987Y-70036962D01*
X43367641Y-70183061D01*
X43610595Y-70283696D01*
X43868514Y-70335000D01*
X44131486Y-70335000D01*
X44389405Y-70283696D01*
X44632359Y-70183061D01*
X44851013Y-70036962D01*
X45036962Y-69851013D01*
X45183061Y-69632359D01*
X45283696Y-69389405D01*
X45335000Y-69131486D01*
X45335000Y-68868514D01*
X45283696Y-68610595D01*
X45183061Y-68367641D01*
X45036962Y-68148987D01*
X44851013Y-67963038D01*
X44632359Y-67816939D01*
X44389405Y-67716304D01*
X44131486Y-67665000D01*
X43868514Y-67665000D01*
X43610595Y-67716304D01*
X43367641Y-67816939D01*
X43148987Y-67963038D01*
X42963038Y-68148987D01*
X42816939Y-68367641D01*
X42716304Y-68610595D01*
X42665000Y-68868514D01*
X38185000Y-68868514D01*
X38185000Y-63788514D01*
X42665000Y-63788514D01*
X42665000Y-64051486D01*
X42716304Y-64309405D01*
X42816939Y-64552359D01*
X42963038Y-64771013D01*
X43148987Y-64956962D01*
X43367641Y-65103061D01*
X43610595Y-65203696D01*
X43868514Y-65255000D01*
X44131486Y-65255000D01*
X44389405Y-65203696D01*
X44632359Y-65103061D01*
X44851013Y-64956962D01*
X45036962Y-64771013D01*
X45183061Y-64552359D01*
X45283696Y-64309405D01*
X45335000Y-64051486D01*
X45335000Y-63868514D01*
X46665000Y-63868514D01*
X46665000Y-64131486D01*
X46716304Y-64389405D01*
X46816939Y-64632359D01*
X46963038Y-64851013D01*
X47148987Y-65036962D01*
X47367641Y-65183061D01*
X47610595Y-65283696D01*
X47868514Y-65335000D01*
X48131486Y-65335000D01*
X48389405Y-65283696D01*
X48632359Y-65183061D01*
X48851013Y-65036962D01*
X49036962Y-64851013D01*
X49183061Y-64632359D01*
X49283696Y-64389405D01*
X49335000Y-64131486D01*
X49335000Y-63868514D01*
X49283696Y-63610595D01*
X49183061Y-63367641D01*
X49036962Y-63148987D01*
X48851013Y-62963038D01*
X48632359Y-62816939D01*
X48389405Y-62716304D01*
X48131486Y-62665000D01*
X47868514Y-62665000D01*
X47610595Y-62716304D01*
X47367641Y-62816939D01*
X47148987Y-62963038D01*
X46963038Y-63148987D01*
X46816939Y-63367641D01*
X46716304Y-63610595D01*
X46665000Y-63868514D01*
X45335000Y-63868514D01*
X45335000Y-63788514D01*
X45283696Y-63530595D01*
X45183061Y-63287641D01*
X45036962Y-63068987D01*
X44968738Y-63000763D01*
X47011004Y-60958498D01*
X47040001Y-60934701D01*
X47066332Y-60902617D01*
X47134974Y-60818977D01*
X47205546Y-60686947D01*
X47205546Y-60686946D01*
X47249003Y-60543686D01*
X47260000Y-60432033D01*
X47260000Y-60432023D01*
X47263676Y-60394700D01*
X47260000Y-60357377D01*
X47260000Y-55718043D01*
X47414759Y-55614637D01*
X47614637Y-55414759D01*
X47771680Y-55179727D01*
X47879853Y-54918574D01*
X47935000Y-54641335D01*
X47935000Y-54358665D01*
X47879853Y-54081426D01*
X47771680Y-53820273D01*
X47614637Y-53585241D01*
X47414759Y-53385363D01*
X47212173Y-53250000D01*
X47414759Y-53114637D01*
X47614637Y-52914759D01*
X47771680Y-52679727D01*
X47879853Y-52418574D01*
X47935000Y-52141335D01*
X47935000Y-51858665D01*
X47879853Y-51581426D01*
X47771680Y-51320273D01*
X47614637Y-51085241D01*
X47414759Y-50885363D01*
X47179727Y-50728320D01*
X46918574Y-50620147D01*
X46641335Y-50565000D01*
X46358665Y-50565000D01*
X46081426Y-50620147D01*
X45820273Y-50728320D01*
X45585241Y-50885363D01*
X45385363Y-51085241D01*
X45228320Y-51320273D01*
X45120147Y-51581426D01*
X45065000Y-51858665D01*
X45065000Y-52141335D01*
X45120147Y-52418574D01*
X45228320Y-52679727D01*
X45385363Y-52914759D01*
X45585241Y-53114637D01*
X45787827Y-53250000D01*
X45585241Y-53385363D01*
X45385363Y-53585241D01*
X45228320Y-53820273D01*
X45120147Y-54081426D01*
X45065000Y-54358665D01*
X45065000Y-54641335D01*
X45120147Y-54918574D01*
X45228320Y-55179727D01*
X45385363Y-55414759D01*
X45585241Y-55614637D01*
X45740001Y-55718044D01*
X45740000Y-60079898D01*
X43488998Y-62330901D01*
X43460000Y-62354699D01*
X43436202Y-62383697D01*
X43436201Y-62383698D01*
X43365026Y-62470424D01*
X43294454Y-62602454D01*
X43250998Y-62745715D01*
X43243706Y-62819749D01*
X43148987Y-62883038D01*
X42963038Y-63068987D01*
X42816939Y-63287641D01*
X42716304Y-63530595D01*
X42665000Y-63788514D01*
X38185000Y-63788514D01*
X38185000Y-33185000D01*
X74315000Y-33185000D01*
X74315001Y-129315000D01*
%TA.AperFunction,Conductor*%
D20*
G36*
X74315001Y-129315000D02*
G01*
X38185000Y-129315000D01*
X38185000Y-118765098D01*
X43615000Y-118765098D01*
X43615000Y-119234902D01*
X43706654Y-119695679D01*
X43886440Y-120129721D01*
X44147450Y-120520349D01*
X44479651Y-120852550D01*
X44870279Y-121113560D01*
X45304321Y-121293346D01*
X45765098Y-121385000D01*
X46234902Y-121385000D01*
X46695679Y-121293346D01*
X47129721Y-121113560D01*
X47520349Y-120852550D01*
X47852550Y-120520349D01*
X48113560Y-120129721D01*
X48293346Y-119695679D01*
X48385000Y-119234902D01*
X48385000Y-118765098D01*
X49615000Y-118765098D01*
X49615000Y-119234902D01*
X49706654Y-119695679D01*
X49886440Y-120129721D01*
X50147450Y-120520349D01*
X50479651Y-120852550D01*
X50870279Y-121113560D01*
X51304321Y-121293346D01*
X51765098Y-121385000D01*
X52234902Y-121385000D01*
X52695679Y-121293346D01*
X53129721Y-121113560D01*
X53520349Y-120852550D01*
X53852550Y-120520349D01*
X54113560Y-120129721D01*
X54293346Y-119695679D01*
X54385000Y-119234902D01*
X54385000Y-118765098D01*
X54293346Y-118304321D01*
X54140202Y-117934599D01*
X55000000Y-117074802D01*
X56627492Y-118702294D01*
X56615000Y-118765098D01*
X56615000Y-119234902D01*
X56706654Y-119695679D01*
X56886440Y-120129721D01*
X57147450Y-120520349D01*
X57479651Y-120852550D01*
X57870279Y-121113560D01*
X58304321Y-121293346D01*
X58765098Y-121385000D01*
X59234902Y-121385000D01*
X59695679Y-121293346D01*
X60129721Y-121113560D01*
X60520349Y-120852550D01*
X60852550Y-120520349D01*
X61113560Y-120129721D01*
X61293346Y-119695679D01*
X61385000Y-119234902D01*
X61385000Y-118765098D01*
X63615000Y-118765098D01*
X63615000Y-119234902D01*
X63706654Y-119695679D01*
X63886440Y-120129721D01*
X64147450Y-120520349D01*
X64479651Y-120852550D01*
X64870279Y-121113560D01*
X65304321Y-121293346D01*
X65765098Y-121385000D01*
X66234902Y-121385000D01*
X66695679Y-121293346D01*
X67129721Y-121113560D01*
X67520349Y-120852550D01*
X67852550Y-120520349D01*
X68113560Y-120129721D01*
X68293346Y-119695679D01*
X68385000Y-119234902D01*
X68385000Y-118765098D01*
X68293346Y-118304321D01*
X68113560Y-117870279D01*
X67852550Y-117479651D01*
X67520349Y-117147450D01*
X67129721Y-116886440D01*
X66695679Y-116706654D01*
X66234902Y-116615000D01*
X65765098Y-116615000D01*
X65304321Y-116706654D01*
X64870279Y-116886440D01*
X64479651Y-117147450D01*
X64147450Y-117479651D01*
X63886440Y-117870279D01*
X63706654Y-118304321D01*
X63615000Y-118765098D01*
X61385000Y-118765098D01*
X61293346Y-118304321D01*
X61113560Y-117870279D01*
X60852550Y-117479651D01*
X60520349Y-117147450D01*
X60129721Y-116886440D01*
X59695679Y-116706654D01*
X59234902Y-116615000D01*
X58765098Y-116615000D01*
X58304321Y-116706654D01*
X57870279Y-116886440D01*
X57479651Y-117147450D01*
X57350951Y-117276150D01*
X55760000Y-115685199D01*
X55760000Y-114218043D01*
X55914759Y-114114637D01*
X56114637Y-113914759D01*
X56250000Y-113712173D01*
X56385363Y-113914759D01*
X56585241Y-114114637D01*
X56820273Y-114271680D01*
X57081426Y-114379853D01*
X57358665Y-114435000D01*
X57641335Y-114435000D01*
X57918574Y-114379853D01*
X58179727Y-114271680D01*
X58414759Y-114114637D01*
X58614637Y-113914759D01*
X58771680Y-113679727D01*
X58879853Y-113418574D01*
X58935000Y-113141335D01*
X58935000Y-112858665D01*
X62065000Y-112858665D01*
X62065000Y-113141335D01*
X62120147Y-113418574D01*
X62228320Y-113679727D01*
X62385363Y-113914759D01*
X62585241Y-114114637D01*
X62820273Y-114271680D01*
X63081426Y-114379853D01*
X63358665Y-114435000D01*
X63641335Y-114435000D01*
X63918574Y-114379853D01*
X64179727Y-114271680D01*
X64414759Y-114114637D01*
X64614637Y-113914759D01*
X64750000Y-113712173D01*
X64885363Y-113914759D01*
X65085241Y-114114637D01*
X65320273Y-114271680D01*
X65581426Y-114379853D01*
X65858665Y-114435000D01*
X66141335Y-114435000D01*
X66418574Y-114379853D01*
X66679727Y-114271680D01*
X66914759Y-114114637D01*
X67114637Y-113914759D01*
X67271680Y-113679727D01*
X67379853Y-113418574D01*
X67435000Y-113141335D01*
X67435000Y-112858665D01*
X67379853Y-112581426D01*
X67271680Y-112320273D01*
X67114637Y-112085241D01*
X66914759Y-111885363D01*
X66679727Y-111728320D01*
X66418574Y-111620147D01*
X66141335Y-111565000D01*
X66009802Y-111565000D01*
X66209502Y-111365300D01*
X66462667Y-111365300D01*
X66500000Y-111368977D01*
X66648986Y-111354303D01*
X66792247Y-111310846D01*
X66924276Y-111240274D01*
X67040001Y-111145301D01*
X67134974Y-111029576D01*
X67205546Y-110897547D01*
X67249003Y-110754286D01*
X67256295Y-110680250D01*
X67351013Y-110616962D01*
X67536962Y-110431013D01*
X67683061Y-110212359D01*
X67783696Y-109969405D01*
X67835000Y-109711486D01*
X67835000Y-109448514D01*
X67783696Y-109190595D01*
X67683061Y-108947641D01*
X67536962Y-108728987D01*
X67351013Y-108543038D01*
X67132359Y-108396939D01*
X66889405Y-108296304D01*
X66631486Y-108245000D01*
X66368514Y-108245000D01*
X66110595Y-108296304D01*
X65867641Y-108396939D01*
X65648987Y-108543038D01*
X65463038Y-108728987D01*
X65316939Y-108947641D01*
X65216304Y-109190595D01*
X65165000Y-109448514D01*
X65165000Y-109711486D01*
X65216304Y-109969405D01*
X65286449Y-110138749D01*
X63823886Y-111601312D01*
X63641335Y-111565000D01*
X63358665Y-111565000D01*
X63081426Y-111620147D01*
X62820273Y-111728320D01*
X62585241Y-111885363D01*
X62385363Y-112085241D01*
X62228320Y-112320273D01*
X62120147Y-112581426D01*
X62065000Y-112858665D01*
X58935000Y-112858665D01*
X58879853Y-112581426D01*
X58771680Y-112320273D01*
X58614637Y-112085241D01*
X58414759Y-111885363D01*
X58179727Y-111728320D01*
X57918574Y-111620147D01*
X57641335Y-111565000D01*
X57358665Y-111565000D01*
X57081426Y-111620147D01*
X56820273Y-111728320D01*
X56585241Y-111885363D01*
X56385363Y-112085241D01*
X56250000Y-112287827D01*
X56114637Y-112085241D01*
X55914759Y-111885363D01*
X55794855Y-111805246D01*
X58011003Y-109589099D01*
X58040001Y-109565301D01*
X58110847Y-109478975D01*
X58134974Y-109449577D01*
X58205546Y-109317547D01*
X58215814Y-109283696D01*
X58249003Y-109174286D01*
X58256295Y-109100250D01*
X58351013Y-109036962D01*
X58536962Y-108851013D01*
X58597775Y-108760000D01*
X59457378Y-108760000D01*
X59494700Y-108763676D01*
X59532022Y-108760000D01*
X59532033Y-108760000D01*
X59643686Y-108749003D01*
X59786947Y-108705546D01*
X59918976Y-108634974D01*
X60034701Y-108540001D01*
X60058504Y-108510997D01*
X65580053Y-102989449D01*
X65705241Y-103114637D01*
X65940273Y-103271680D01*
X65958589Y-103279267D01*
X65867641Y-103316939D01*
X65648987Y-103463038D01*
X65463038Y-103648987D01*
X65316939Y-103867641D01*
X65216304Y-104110595D01*
X65172031Y-104333166D01*
X62818844Y-106686355D01*
X62711486Y-106665000D01*
X62448514Y-106665000D01*
X62190595Y-106716304D01*
X61947641Y-106816939D01*
X61728987Y-106963038D01*
X61543038Y-107148987D01*
X61396939Y-107367641D01*
X61296304Y-107610595D01*
X61245000Y-107868514D01*
X61245000Y-108131486D01*
X61296304Y-108389405D01*
X61396939Y-108632359D01*
X61543038Y-108851013D01*
X61728987Y-109036962D01*
X61947641Y-109183061D01*
X62190595Y-109283696D01*
X62448514Y-109335000D01*
X62711486Y-109335000D01*
X62969405Y-109283696D01*
X63212359Y-109183061D01*
X63431013Y-109036962D01*
X63616962Y-108851013D01*
X63763061Y-108632359D01*
X63863696Y-108389405D01*
X63915000Y-108131486D01*
X63915000Y-107868514D01*
X63893645Y-107761156D01*
X65941251Y-105713551D01*
X66110595Y-105783696D01*
X66368514Y-105835000D01*
X66631486Y-105835000D01*
X66889405Y-105783696D01*
X67132359Y-105683061D01*
X67351013Y-105536962D01*
X67536962Y-105351013D01*
X67683061Y-105132359D01*
X67783696Y-104889405D01*
X67835000Y-104631486D01*
X67835000Y-104368514D01*
X67783696Y-104110595D01*
X67683061Y-103867641D01*
X67536962Y-103648987D01*
X67351013Y-103463038D01*
X67154594Y-103331796D01*
X67299727Y-103271680D01*
X67534759Y-103114637D01*
X67734637Y-102914759D01*
X67891680Y-102679727D01*
X67999853Y-102418574D01*
X68055000Y-102141335D01*
X68055000Y-101858665D01*
X67999853Y-101581426D01*
X67891680Y-101320273D01*
X67734637Y-101085241D01*
X67534759Y-100885363D01*
X67299727Y-100728320D01*
X67038574Y-100620147D01*
X66761335Y-100565000D01*
X66478665Y-100565000D01*
X66201426Y-100620147D01*
X65940273Y-100728320D01*
X65705241Y-100885363D01*
X65505363Y-101085241D01*
X65398053Y-101245842D01*
X65345714Y-101250997D01*
X65202453Y-101294454D01*
X65070424Y-101365026D01*
X65070422Y-101365027D01*
X65070423Y-101365027D01*
X64983696Y-101436201D01*
X64983692Y-101436205D01*
X64954699Y-101459999D01*
X64930905Y-101488992D01*
X59179899Y-107240000D01*
X58597775Y-107240000D01*
X58536962Y-107148987D01*
X58351013Y-106963038D01*
X58132359Y-106816939D01*
X57889405Y-106716304D01*
X57631486Y-106665000D01*
X57368514Y-106665000D01*
X57110595Y-106716304D01*
X56867641Y-106816939D01*
X56648987Y-106963038D01*
X56463038Y-107148987D01*
X56316939Y-107367641D01*
X56216304Y-107610595D01*
X56165000Y-107868514D01*
X56165000Y-108131486D01*
X56216304Y-108389405D01*
X56316939Y-108632359D01*
X56463038Y-108851013D01*
X56531262Y-108919237D01*
X54489003Y-110961496D01*
X54459999Y-110985299D01*
X54404871Y-111052474D01*
X54365026Y-111101024D01*
X54294455Y-111233053D01*
X54294454Y-111233054D01*
X54250997Y-111376315D01*
X54240000Y-111487968D01*
X54240000Y-111487978D01*
X54236324Y-111525300D01*
X54240000Y-111562623D01*
X54240000Y-111781956D01*
X54085241Y-111885363D01*
X53885363Y-112085241D01*
X53728320Y-112320273D01*
X53620147Y-112581426D01*
X53565000Y-112858665D01*
X53565000Y-113141335D01*
X53620147Y-113418574D01*
X53728320Y-113679727D01*
X53885363Y-113914759D01*
X54085241Y-114114637D01*
X54240000Y-114218044D01*
X54240001Y-115685197D01*
X53065401Y-116859798D01*
X52695679Y-116706654D01*
X52234902Y-116615000D01*
X51765098Y-116615000D01*
X51304321Y-116706654D01*
X50870279Y-116886440D01*
X50479651Y-117147450D01*
X50147450Y-117479651D01*
X49886440Y-117870279D01*
X49706654Y-118304321D01*
X49615000Y-118765098D01*
X48385000Y-118765098D01*
X48293346Y-118304321D01*
X48113560Y-117870279D01*
X47852550Y-117479651D01*
X47520349Y-117147450D01*
X47129721Y-116886440D01*
X46695679Y-116706654D01*
X46234902Y-116615000D01*
X45765098Y-116615000D01*
X45304321Y-116706654D01*
X44870279Y-116886440D01*
X44479651Y-117147450D01*
X44147450Y-117479651D01*
X43886440Y-117870279D01*
X43706654Y-118304321D01*
X43615000Y-118765098D01*
X38185000Y-118765098D01*
X38185000Y-104531500D01*
X44711024Y-104531500D01*
X44714700Y-104568823D01*
X44714701Y-107992068D01*
X44711024Y-108029400D01*
X44725698Y-108178385D01*
X44769154Y-108321646D01*
X44839726Y-108453676D01*
X44865679Y-108485299D01*
X44934700Y-108569401D01*
X44963698Y-108593199D01*
X45531262Y-109160763D01*
X45463038Y-109228987D01*
X45316939Y-109447641D01*
X45216304Y-109690595D01*
X45165000Y-109948514D01*
X45165000Y-110211486D01*
X45216304Y-110469405D01*
X45316939Y-110712359D01*
X45463038Y-110931013D01*
X45648987Y-111116962D01*
X45743705Y-111180250D01*
X45750997Y-111254286D01*
X45794454Y-111397547D01*
X45865026Y-111529576D01*
X45959999Y-111645301D01*
X45980359Y-111662010D01*
X45820273Y-111728320D01*
X45585241Y-111885363D01*
X45385363Y-112085241D01*
X45228320Y-112320273D01*
X45120147Y-112581426D01*
X45065000Y-112858665D01*
X45065000Y-113141335D01*
X45120147Y-113418574D01*
X45228320Y-113679727D01*
X45385363Y-113914759D01*
X45585241Y-114114637D01*
X45820273Y-114271680D01*
X46081426Y-114379853D01*
X46358665Y-114435000D01*
X46641335Y-114435000D01*
X46918574Y-114379853D01*
X47179727Y-114271680D01*
X47414759Y-114114637D01*
X47614637Y-113914759D01*
X47750000Y-113712173D01*
X47885363Y-113914759D01*
X48085241Y-114114637D01*
X48320273Y-114271680D01*
X48581426Y-114379853D01*
X48858665Y-114435000D01*
X49141335Y-114435000D01*
X49418574Y-114379853D01*
X49679727Y-114271680D01*
X49914759Y-114114637D01*
X50114637Y-113914759D01*
X50271680Y-113679727D01*
X50379853Y-113418574D01*
X50435000Y-113141335D01*
X50435000Y-112858665D01*
X50379853Y-112581426D01*
X50271680Y-112320273D01*
X50114637Y-112085241D01*
X49914759Y-111885363D01*
X49679727Y-111728320D01*
X49418574Y-111620147D01*
X49141335Y-111565000D01*
X48858665Y-111565000D01*
X48676114Y-111601312D01*
X47713551Y-110638750D01*
X47783696Y-110469405D01*
X47835000Y-110211486D01*
X47835000Y-109948514D01*
X47783696Y-109690595D01*
X47683061Y-109447641D01*
X47536962Y-109228987D01*
X47351013Y-109043038D01*
X47256295Y-108979750D01*
X47249003Y-108905714D01*
X47205546Y-108762453D01*
X47134974Y-108630424D01*
X47040001Y-108514699D01*
X47011003Y-108490901D01*
X46388616Y-107868514D01*
X48085000Y-107868514D01*
X48085000Y-108131486D01*
X48136304Y-108389405D01*
X48236939Y-108632359D01*
X48383038Y-108851013D01*
X48568987Y-109036962D01*
X48787641Y-109183061D01*
X49030595Y-109283696D01*
X49288514Y-109335000D01*
X49551486Y-109335000D01*
X49809405Y-109283696D01*
X50052359Y-109183061D01*
X50271013Y-109036962D01*
X50456962Y-108851013D01*
X50603061Y-108632359D01*
X50703696Y-108389405D01*
X50755000Y-108131486D01*
X50755000Y-107868514D01*
X50703696Y-107610595D01*
X50603061Y-107367641D01*
X50456962Y-107148987D01*
X50271013Y-106963038D01*
X50052359Y-106816939D01*
X49809405Y-106716304D01*
X49551486Y-106665000D01*
X49288514Y-106665000D01*
X49030595Y-106716304D01*
X48787641Y-106816939D01*
X48568987Y-106963038D01*
X48383038Y-107148987D01*
X48236939Y-107367641D01*
X48136304Y-107610595D01*
X48085000Y-107868514D01*
X46388616Y-107868514D01*
X46234700Y-107714599D01*
X46234700Y-106308382D01*
X46368514Y-106335000D01*
X46631486Y-106335000D01*
X46889405Y-106283696D01*
X47132359Y-106183061D01*
X47351013Y-106036962D01*
X47536962Y-105851013D01*
X47597775Y-105760000D01*
X50159899Y-105760000D01*
X52910901Y-108511003D01*
X52934699Y-108540001D01*
X53050424Y-108634974D01*
X53182453Y-108705546D01*
X53325714Y-108749003D01*
X53399750Y-108756295D01*
X53463038Y-108851013D01*
X53648987Y-109036962D01*
X53867641Y-109183061D01*
X54110595Y-109283696D01*
X54368514Y-109335000D01*
X54631486Y-109335000D01*
X54889405Y-109283696D01*
X55132359Y-109183061D01*
X55351013Y-109036962D01*
X55536962Y-108851013D01*
X55683061Y-108632359D01*
X55783696Y-108389405D01*
X55835000Y-108131486D01*
X55835000Y-107868514D01*
X55783696Y-107610595D01*
X55683061Y-107367641D01*
X55536962Y-107148987D01*
X55351013Y-106963038D01*
X55132359Y-106816939D01*
X54889405Y-106716304D01*
X54631486Y-106665000D01*
X54368514Y-106665000D01*
X54110595Y-106716304D01*
X53867641Y-106816939D01*
X53648987Y-106963038D01*
X53580763Y-107031262D01*
X51038504Y-104489003D01*
X51014701Y-104459999D01*
X50898976Y-104365026D01*
X50766947Y-104294454D01*
X50623686Y-104250997D01*
X50512033Y-104240000D01*
X50512022Y-104240000D01*
X50474700Y-104236324D01*
X50437378Y-104240000D01*
X47709501Y-104240000D01*
X50090836Y-101858665D01*
X52685000Y-101858665D01*
X52685000Y-102141335D01*
X52740147Y-102418574D01*
X52848320Y-102679727D01*
X53005363Y-102914759D01*
X53205241Y-103114637D01*
X53440273Y-103271680D01*
X53701426Y-103379853D01*
X53978665Y-103435000D01*
X54261335Y-103435000D01*
X54538574Y-103379853D01*
X54799727Y-103271680D01*
X55034759Y-103114637D01*
X55234637Y-102914759D01*
X55391680Y-102679727D01*
X55499853Y-102418574D01*
X55555000Y-102141335D01*
X55555000Y-101858665D01*
X55499853Y-101581426D01*
X55391680Y-101320273D01*
X55234637Y-101085241D01*
X55034759Y-100885363D01*
X54799727Y-100728320D01*
X54538574Y-100620147D01*
X54261335Y-100565000D01*
X53978665Y-100565000D01*
X53701426Y-100620147D01*
X53440273Y-100728320D01*
X53205241Y-100885363D01*
X53005363Y-101085241D01*
X52848320Y-101320273D01*
X52740147Y-101581426D01*
X52685000Y-101858665D01*
X50090836Y-101858665D01*
X52960053Y-98989449D01*
X53085241Y-99114637D01*
X53320273Y-99271680D01*
X53581426Y-99379853D01*
X53858665Y-99435000D01*
X54141335Y-99435000D01*
X54418574Y-99379853D01*
X54679727Y-99271680D01*
X54914759Y-99114637D01*
X55114637Y-98914759D01*
X55271680Y-98679727D01*
X55379853Y-98418574D01*
X55435000Y-98141335D01*
X55435000Y-97858665D01*
X55379853Y-97581426D01*
X55271680Y-97320273D01*
X55191317Y-97200000D01*
X57561928Y-97200000D01*
X57561928Y-98800000D01*
X57574188Y-98924482D01*
X57610498Y-99044180D01*
X57669463Y-99154494D01*
X57748815Y-99251185D01*
X57845506Y-99330537D01*
X57955820Y-99389502D01*
X58075518Y-99425812D01*
X58200000Y-99438072D01*
X59800000Y-99438072D01*
X59924482Y-99425812D01*
X60044180Y-99389502D01*
X60154494Y-99330537D01*
X60251185Y-99251185D01*
X60330537Y-99154494D01*
X60389502Y-99044180D01*
X60425812Y-98924482D01*
X60438072Y-98800000D01*
X60438072Y-97200000D01*
X60425812Y-97075518D01*
X60389502Y-96955820D01*
X60330537Y-96845506D01*
X60251185Y-96748815D01*
X60154494Y-96669463D01*
X60044180Y-96610498D01*
X59924482Y-96574188D01*
X59800000Y-96561928D01*
X58200000Y-96561928D01*
X58075518Y-96574188D01*
X57955820Y-96610498D01*
X57845506Y-96669463D01*
X57748815Y-96748815D01*
X57669463Y-96845506D01*
X57610498Y-96955820D01*
X57574188Y-97075518D01*
X57561928Y-97200000D01*
X55191317Y-97200000D01*
X55114637Y-97085241D01*
X54914759Y-96885363D01*
X54679727Y-96728320D01*
X54418574Y-96620147D01*
X54141335Y-96565000D01*
X53858665Y-96565000D01*
X53581426Y-96620147D01*
X53320273Y-96728320D01*
X53085241Y-96885363D01*
X52885363Y-97085241D01*
X52778053Y-97245842D01*
X52725714Y-97250997D01*
X52582453Y-97294454D01*
X52450424Y-97365026D01*
X52334699Y-97459999D01*
X52310901Y-97488997D01*
X47938072Y-101861827D01*
X47938072Y-101200000D01*
X47925812Y-101075518D01*
X47889502Y-100955820D01*
X47830537Y-100845506D01*
X47751185Y-100748815D01*
X47654494Y-100669463D01*
X47544180Y-100610498D01*
X47424482Y-100574188D01*
X47300000Y-100561928D01*
X45700000Y-100561928D01*
X45575518Y-100574188D01*
X45455820Y-100610498D01*
X45345506Y-100669463D01*
X45248815Y-100748815D01*
X45169463Y-100845506D01*
X45110498Y-100955820D01*
X45074188Y-101075518D01*
X45061928Y-101200000D01*
X45061928Y-102800000D01*
X45074188Y-102924482D01*
X45110498Y-103044180D01*
X45169463Y-103154494D01*
X45248815Y-103251185D01*
X45345506Y-103330537D01*
X45455820Y-103389502D01*
X45521862Y-103409536D01*
X44963702Y-103967697D01*
X44934699Y-103991499D01*
X44879571Y-104058674D01*
X44839726Y-104107224D01*
X44817403Y-104148987D01*
X44769154Y-104239254D01*
X44725697Y-104382515D01*
X44714700Y-104494168D01*
X44714700Y-104494178D01*
X44711024Y-104531500D01*
X38185000Y-104531500D01*
X38185000Y-78238665D01*
X41945000Y-78238665D01*
X41945000Y-78521335D01*
X42000147Y-78798574D01*
X42108320Y-79059727D01*
X42265363Y-79294759D01*
X42465241Y-79494637D01*
X42697759Y-79650000D01*
X42465241Y-79805363D01*
X42265363Y-80005241D01*
X42108320Y-80240273D01*
X42000147Y-80501426D01*
X41945000Y-80778665D01*
X41945000Y-81061335D01*
X42000147Y-81338574D01*
X42108320Y-81599727D01*
X42265363Y-81834759D01*
X42465241Y-82034637D01*
X42697759Y-82190000D01*
X42465241Y-82345363D01*
X42265363Y-82545241D01*
X42108320Y-82780273D01*
X42000147Y-83041426D01*
X41945000Y-83318665D01*
X41945000Y-83601335D01*
X42000147Y-83878574D01*
X42108320Y-84139727D01*
X42265363Y-84374759D01*
X42465241Y-84574637D01*
X42625842Y-84681947D01*
X42630997Y-84734286D01*
X42641167Y-84767813D01*
X42465241Y-84885363D01*
X42265363Y-85085241D01*
X42108320Y-85320273D01*
X42000147Y-85581426D01*
X41945000Y-85858665D01*
X41945000Y-86141335D01*
X42000147Y-86418574D01*
X42108320Y-86679727D01*
X42265363Y-86914759D01*
X42465241Y-87114637D01*
X42700273Y-87271680D01*
X42961426Y-87379853D01*
X43238665Y-87435000D01*
X43521335Y-87435000D01*
X43798574Y-87379853D01*
X44059727Y-87271680D01*
X44294759Y-87114637D01*
X44494637Y-86914759D01*
X44651680Y-86679727D01*
X44660246Y-86659048D01*
X45620000Y-87618803D01*
X45620000Y-90408536D01*
X45603061Y-90367641D01*
X45456962Y-90148987D01*
X45271013Y-89963038D01*
X45052359Y-89816939D01*
X44809405Y-89716304D01*
X44551486Y-89665000D01*
X44288514Y-89665000D01*
X44030595Y-89716304D01*
X43787641Y-89816939D01*
X43568987Y-89963038D01*
X43383038Y-90148987D01*
X43236939Y-90367641D01*
X43136304Y-90610595D01*
X43085000Y-90868514D01*
X43085000Y-91131486D01*
X43136304Y-91389405D01*
X43236939Y-91632359D01*
X43383038Y-91851013D01*
X43568987Y-92036962D01*
X43787641Y-92183061D01*
X44030595Y-92283696D01*
X44288514Y-92335000D01*
X44551486Y-92335000D01*
X44809405Y-92283696D01*
X45052359Y-92183061D01*
X45271013Y-92036962D01*
X45456962Y-91851013D01*
X45603061Y-91632359D01*
X45620000Y-91591464D01*
X45620001Y-96561928D01*
X45580000Y-96561928D01*
X45455518Y-96574188D01*
X45335820Y-96610498D01*
X45225506Y-96669463D01*
X45128815Y-96748815D01*
X45049463Y-96845506D01*
X44990498Y-96955820D01*
X44954188Y-97075518D01*
X44941928Y-97200000D01*
X44941928Y-98800000D01*
X44954188Y-98924482D01*
X44990498Y-99044180D01*
X45049463Y-99154494D01*
X45128815Y-99251185D01*
X45225506Y-99330537D01*
X45335820Y-99389502D01*
X45455518Y-99425812D01*
X45580000Y-99438072D01*
X47180000Y-99438072D01*
X47304482Y-99425812D01*
X47424180Y-99389502D01*
X47534494Y-99330537D01*
X47631185Y-99251185D01*
X47710537Y-99154494D01*
X47769502Y-99044180D01*
X47805812Y-98924482D01*
X47818072Y-98800000D01*
X47818072Y-97200000D01*
X47805812Y-97075518D01*
X47769502Y-96955820D01*
X47710537Y-96845506D01*
X47631185Y-96748815D01*
X47534494Y-96669463D01*
X47424180Y-96610498D01*
X47304482Y-96574188D01*
X47180000Y-96561928D01*
X47140000Y-96561928D01*
X47140000Y-90868514D01*
X48165000Y-90868514D01*
X48165000Y-91131486D01*
X48216304Y-91389405D01*
X48316939Y-91632359D01*
X48463038Y-91851013D01*
X48648987Y-92036962D01*
X48867641Y-92183061D01*
X49110595Y-92283696D01*
X49368514Y-92335000D01*
X49631486Y-92335000D01*
X49889405Y-92283696D01*
X50132359Y-92183061D01*
X50351013Y-92036962D01*
X50536962Y-91851013D01*
X50683061Y-91632359D01*
X50783696Y-91389405D01*
X50835000Y-91131486D01*
X50835000Y-90868514D01*
X61665000Y-90868514D01*
X61665000Y-91131486D01*
X61716304Y-91389405D01*
X61816939Y-91632359D01*
X61963038Y-91851013D01*
X62148987Y-92036962D01*
X62367641Y-92183061D01*
X62610595Y-92283696D01*
X62868514Y-92335000D01*
X63131486Y-92335000D01*
X63389405Y-92283696D01*
X63632359Y-92183061D01*
X63851013Y-92036962D01*
X64036962Y-91851013D01*
X64183061Y-91632359D01*
X64283696Y-91389405D01*
X64335000Y-91131486D01*
X64335000Y-90868514D01*
X64283696Y-90610595D01*
X64183061Y-90367641D01*
X64036962Y-90148987D01*
X63851013Y-89963038D01*
X63632359Y-89816939D01*
X63389405Y-89716304D01*
X63131486Y-89665000D01*
X62868514Y-89665000D01*
X62610595Y-89716304D01*
X62367641Y-89816939D01*
X62148987Y-89963038D01*
X61963038Y-90148987D01*
X61816939Y-90367641D01*
X61716304Y-90610595D01*
X61665000Y-90868514D01*
X50835000Y-90868514D01*
X50783696Y-90610595D01*
X50683061Y-90367641D01*
X50536962Y-90148987D01*
X50351013Y-89963038D01*
X50132359Y-89816939D01*
X49889405Y-89716304D01*
X49631486Y-89665000D01*
X49368514Y-89665000D01*
X49110595Y-89716304D01*
X48867641Y-89816939D01*
X48648987Y-89963038D01*
X48463038Y-90148987D01*
X48316939Y-90367641D01*
X48216304Y-90610595D01*
X48165000Y-90868514D01*
X47140000Y-90868514D01*
X47140000Y-88064000D01*
X53571678Y-88064000D01*
X53609000Y-88067676D01*
X53646322Y-88064000D01*
X53646333Y-88064000D01*
X53757986Y-88053003D01*
X53901247Y-88009546D01*
X54033276Y-87938974D01*
X54149001Y-87844001D01*
X54172804Y-87814997D01*
X57304785Y-84683017D01*
X57316939Y-84712359D01*
X57463038Y-84931013D01*
X57648987Y-85116962D01*
X57867641Y-85263061D01*
X58110595Y-85363696D01*
X58368514Y-85415000D01*
X58631486Y-85415000D01*
X58889405Y-85363696D01*
X59132359Y-85263061D01*
X59351013Y-85116962D01*
X59419237Y-85048738D01*
X59686501Y-85316002D01*
X59710299Y-85345001D01*
X59826024Y-85439974D01*
X59958053Y-85510546D01*
X60101314Y-85554003D01*
X60212967Y-85565000D01*
X60212977Y-85565000D01*
X60250300Y-85568676D01*
X60287623Y-85565000D01*
X60626951Y-85565000D01*
X60620147Y-85581426D01*
X60565000Y-85858665D01*
X60565000Y-86141335D01*
X60620147Y-86418574D01*
X60728320Y-86679727D01*
X60885363Y-86914759D01*
X61085241Y-87114637D01*
X61320273Y-87271680D01*
X61581426Y-87379853D01*
X61858665Y-87435000D01*
X62141335Y-87435000D01*
X62418574Y-87379853D01*
X62679727Y-87271680D01*
X62914759Y-87114637D01*
X63114637Y-86914759D01*
X63271680Y-86679727D01*
X63379853Y-86418574D01*
X63435000Y-86141335D01*
X63435000Y-85858665D01*
X63379853Y-85581426D01*
X63373049Y-85565000D01*
X67148199Y-85565000D01*
X67320001Y-85736803D01*
X67320000Y-89902225D01*
X67228987Y-89963038D01*
X67043038Y-90148987D01*
X66896939Y-90367641D01*
X66796304Y-90610595D01*
X66745000Y-90868514D01*
X66745000Y-91131486D01*
X66796304Y-91389405D01*
X66896939Y-91632359D01*
X67043038Y-91851013D01*
X67228987Y-92036962D01*
X67371208Y-92131990D01*
X59388499Y-100114700D01*
X59037333Y-100114700D01*
X59000000Y-100111023D01*
X58962667Y-100114700D01*
X58851014Y-100125697D01*
X58707753Y-100169154D01*
X58575724Y-100239726D01*
X58459999Y-100334699D01*
X58365026Y-100450424D01*
X58305425Y-100561928D01*
X58200000Y-100561928D01*
X58075518Y-100574188D01*
X57955820Y-100610498D01*
X57845506Y-100669463D01*
X57748815Y-100748815D01*
X57669463Y-100845506D01*
X57610498Y-100955820D01*
X57574188Y-101075518D01*
X57561928Y-101200000D01*
X57561928Y-102800000D01*
X57574188Y-102924482D01*
X57610498Y-103044180D01*
X57669463Y-103154494D01*
X57748815Y-103251185D01*
X57845506Y-103330537D01*
X57955820Y-103389502D01*
X58075518Y-103425812D01*
X58200000Y-103438072D01*
X59800000Y-103438072D01*
X59924482Y-103425812D01*
X60044180Y-103389502D01*
X60154494Y-103330537D01*
X60251185Y-103251185D01*
X60330537Y-103154494D01*
X60389502Y-103044180D01*
X60425812Y-102924482D01*
X60438072Y-102800000D01*
X60438072Y-101214729D01*
X63794136Y-97858665D01*
X65185000Y-97858665D01*
X65185000Y-98141335D01*
X65240147Y-98418574D01*
X65348320Y-98679727D01*
X65505363Y-98914759D01*
X65705241Y-99114637D01*
X65940273Y-99271680D01*
X66201426Y-99379853D01*
X66478665Y-99435000D01*
X66761335Y-99435000D01*
X67038574Y-99379853D01*
X67299727Y-99271680D01*
X67534759Y-99114637D01*
X67734637Y-98914759D01*
X67891680Y-98679727D01*
X67999853Y-98418574D01*
X68055000Y-98141335D01*
X68055000Y-97858665D01*
X67999853Y-97581426D01*
X67891680Y-97320273D01*
X67734637Y-97085241D01*
X67534759Y-96885363D01*
X67299727Y-96728320D01*
X67038574Y-96620147D01*
X66761335Y-96565000D01*
X66478665Y-96565000D01*
X66201426Y-96620147D01*
X65940273Y-96728320D01*
X65705241Y-96885363D01*
X65505363Y-97085241D01*
X65348320Y-97320273D01*
X65240147Y-97581426D01*
X65185000Y-97858665D01*
X63794136Y-97858665D01*
X71256304Y-90396498D01*
X71285301Y-90372701D01*
X71311632Y-90340617D01*
X71380274Y-90256977D01*
X71450846Y-90124947D01*
X71450846Y-90124946D01*
X71494303Y-89981686D01*
X71505300Y-89870033D01*
X71505300Y-89870024D01*
X71508976Y-89832701D01*
X71505300Y-89795378D01*
X71505300Y-82926523D01*
X71508976Y-82889200D01*
X71505300Y-82851877D01*
X71505300Y-82851867D01*
X71494303Y-82740214D01*
X71450846Y-82596953D01*
X71380274Y-82464924D01*
X71285301Y-82349199D01*
X71256303Y-82325401D01*
X70747063Y-81816162D01*
X70891680Y-81599727D01*
X70999853Y-81338574D01*
X71055000Y-81061335D01*
X71055000Y-80778665D01*
X70999853Y-80501426D01*
X70891680Y-80240273D01*
X70734637Y-80005241D01*
X70697999Y-79968603D01*
X71288609Y-79377994D01*
X71317601Y-79354201D01*
X71341395Y-79325208D01*
X71341399Y-79325204D01*
X71412573Y-79238477D01*
X71412574Y-79238476D01*
X71483146Y-79106447D01*
X71526603Y-78963186D01*
X71537600Y-78851533D01*
X71537600Y-78851524D01*
X71541276Y-78814201D01*
X71537600Y-78776878D01*
X71537600Y-71920222D01*
X71541276Y-71882899D01*
X71537600Y-71845576D01*
X71537600Y-71845567D01*
X71526603Y-71733914D01*
X71483146Y-71590653D01*
X71412574Y-71458623D01*
X71341399Y-71371897D01*
X71317601Y-71342899D01*
X71288603Y-71319101D01*
X69968738Y-69999237D01*
X70036962Y-69931013D01*
X70183061Y-69712359D01*
X70283696Y-69469405D01*
X70335000Y-69211486D01*
X70335000Y-68948514D01*
X70283696Y-68690595D01*
X70183061Y-68447641D01*
X70036962Y-68228987D01*
X69851013Y-68043038D01*
X69632359Y-67896939D01*
X69389405Y-67796304D01*
X69131486Y-67745000D01*
X68868514Y-67745000D01*
X68610595Y-67796304D01*
X68367641Y-67896939D01*
X68148987Y-68043038D01*
X67963038Y-68228987D01*
X67816939Y-68447641D01*
X67716304Y-68690595D01*
X67665000Y-68948514D01*
X67665000Y-69211486D01*
X67716304Y-69469405D01*
X67816939Y-69712359D01*
X67963038Y-69931013D01*
X68148987Y-70116962D01*
X68243706Y-70180251D01*
X68250998Y-70254286D01*
X68253660Y-70263061D01*
X68294454Y-70397546D01*
X68365026Y-70529576D01*
X68423655Y-70601015D01*
X68460000Y-70645301D01*
X68488998Y-70669099D01*
X70017601Y-72197703D01*
X70017600Y-76995975D01*
X69761335Y-76945000D01*
X69478665Y-76945000D01*
X69201426Y-77000147D01*
X68940273Y-77108320D01*
X68705241Y-77265363D01*
X68505363Y-77465241D01*
X68401957Y-77620000D01*
X66694802Y-77620000D01*
X64009801Y-74935000D01*
X64141335Y-74935000D01*
X64418574Y-74879853D01*
X64679727Y-74771680D01*
X64914759Y-74614637D01*
X65114637Y-74414759D01*
X65271680Y-74179727D01*
X65379853Y-73918574D01*
X65435000Y-73641335D01*
X65435000Y-73358665D01*
X65379853Y-73081426D01*
X65271680Y-72820273D01*
X65114637Y-72585241D01*
X64914759Y-72385363D01*
X64679727Y-72228320D01*
X64418574Y-72120147D01*
X64141335Y-72065000D01*
X63858665Y-72065000D01*
X63581426Y-72120147D01*
X63320273Y-72228320D01*
X63085241Y-72385363D01*
X62885363Y-72585241D01*
X62750000Y-72787827D01*
X62614637Y-72585241D01*
X62414759Y-72385363D01*
X62179727Y-72228320D01*
X61918574Y-72120147D01*
X61641335Y-72065000D01*
X61358665Y-72065000D01*
X61081426Y-72120147D01*
X60820273Y-72228320D01*
X60585241Y-72385363D01*
X60385363Y-72585241D01*
X60281957Y-72740000D01*
X53140000Y-72740000D01*
X53140000Y-69218043D01*
X53294759Y-69114637D01*
X53494637Y-68914759D01*
X53651680Y-68679727D01*
X53759853Y-68418574D01*
X53815000Y-68141335D01*
X53815000Y-67858665D01*
X53759853Y-67581426D01*
X53651680Y-67320273D01*
X53571317Y-67200000D01*
X58561928Y-67200000D01*
X58561928Y-68800000D01*
X58574188Y-68924482D01*
X58610498Y-69044180D01*
X58669463Y-69154494D01*
X58748815Y-69251185D01*
X58845506Y-69330537D01*
X58955820Y-69389502D01*
X59075518Y-69425812D01*
X59200000Y-69438072D01*
X60800000Y-69438072D01*
X60924482Y-69425812D01*
X61044180Y-69389502D01*
X61154494Y-69330537D01*
X61251185Y-69251185D01*
X61330537Y-69154494D01*
X61389502Y-69044180D01*
X61418521Y-68948514D01*
X63665000Y-68948514D01*
X63665000Y-69211486D01*
X63716304Y-69469405D01*
X63816939Y-69712359D01*
X63963038Y-69931013D01*
X64148987Y-70116962D01*
X64367641Y-70263061D01*
X64610595Y-70363696D01*
X64868514Y-70415000D01*
X65131486Y-70415000D01*
X65389405Y-70363696D01*
X65632359Y-70263061D01*
X65851013Y-70116962D01*
X66036962Y-69931013D01*
X66183061Y-69712359D01*
X66283696Y-69469405D01*
X66335000Y-69211486D01*
X66335000Y-68948514D01*
X66283696Y-68690595D01*
X66183061Y-68447641D01*
X66036962Y-68228987D01*
X65851013Y-68043038D01*
X65632359Y-67896939D01*
X65389405Y-67796304D01*
X65131486Y-67745000D01*
X64868514Y-67745000D01*
X64610595Y-67796304D01*
X64367641Y-67896939D01*
X64148987Y-68043038D01*
X63963038Y-68228987D01*
X63816939Y-68447641D01*
X63716304Y-68690595D01*
X63665000Y-68948514D01*
X61418521Y-68948514D01*
X61425812Y-68924482D01*
X61438072Y-68800000D01*
X61438072Y-67200000D01*
X61425812Y-67075518D01*
X61389502Y-66955820D01*
X61330537Y-66845506D01*
X61251185Y-66748815D01*
X61154494Y-66669463D01*
X61044180Y-66610498D01*
X60924482Y-66574188D01*
X60800000Y-66561928D01*
X59200000Y-66561928D01*
X59075518Y-66574188D01*
X58955820Y-66610498D01*
X58845506Y-66669463D01*
X58748815Y-66748815D01*
X58669463Y-66845506D01*
X58610498Y-66955820D01*
X58574188Y-67075518D01*
X58561928Y-67200000D01*
X53571317Y-67200000D01*
X53494637Y-67085241D01*
X53294759Y-66885363D01*
X53134158Y-66778053D01*
X53129003Y-66725714D01*
X53085546Y-66582453D01*
X53074575Y-66561928D01*
X53014974Y-66450423D01*
X52943799Y-66363697D01*
X52920001Y-66334699D01*
X52891003Y-66310901D01*
X51132400Y-64552299D01*
X51132400Y-55889992D01*
X51358665Y-55935000D01*
X51641335Y-55935000D01*
X51918574Y-55879853D01*
X52179727Y-55771680D01*
X52414759Y-55614637D01*
X52614637Y-55414759D01*
X52718043Y-55260000D01*
X55281957Y-55260000D01*
X55385363Y-55414759D01*
X55585241Y-55614637D01*
X55820273Y-55771680D01*
X56081426Y-55879853D01*
X56358665Y-55935000D01*
X56641335Y-55935000D01*
X56918574Y-55879853D01*
X57179727Y-55771680D01*
X57414759Y-55614637D01*
X57614637Y-55414759D01*
X57718043Y-55260000D01*
X60281957Y-55260000D01*
X60385363Y-55414759D01*
X60585241Y-55614637D01*
X60820273Y-55771680D01*
X61081426Y-55879853D01*
X61358665Y-55935000D01*
X61641335Y-55935000D01*
X61918574Y-55879853D01*
X62041607Y-55828891D01*
X54839237Y-63031262D01*
X54771013Y-62963038D01*
X54552359Y-62816939D01*
X54309405Y-62716304D01*
X54051486Y-62665000D01*
X53788514Y-62665000D01*
X53530595Y-62716304D01*
X53287641Y-62816939D01*
X53068987Y-62963038D01*
X52883038Y-63148987D01*
X52736939Y-63367641D01*
X52636304Y-63610595D01*
X52585000Y-63868514D01*
X52585000Y-64131486D01*
X52636304Y-64389405D01*
X52736939Y-64632359D01*
X52883038Y-64851013D01*
X53068987Y-65036962D01*
X53287641Y-65183061D01*
X53530595Y-65283696D01*
X53788514Y-65335000D01*
X54051486Y-65335000D01*
X54309405Y-65283696D01*
X54552359Y-65183061D01*
X54771013Y-65036962D01*
X54956962Y-64851013D01*
X55020250Y-64756295D01*
X55094286Y-64749003D01*
X55237547Y-64705546D01*
X55369576Y-64634974D01*
X55485301Y-64540001D01*
X55509104Y-64510997D01*
X56151587Y-63868514D01*
X57665000Y-63868514D01*
X57665000Y-64131486D01*
X57716304Y-64389405D01*
X57816939Y-64632359D01*
X57963038Y-64851013D01*
X58148987Y-65036962D01*
X58367641Y-65183061D01*
X58610595Y-65283696D01*
X58868514Y-65335000D01*
X59131486Y-65335000D01*
X59389405Y-65283696D01*
X59632359Y-65183061D01*
X59851013Y-65036962D01*
X60036962Y-64851013D01*
X60097775Y-64760000D01*
X63902225Y-64760000D01*
X63963038Y-64851013D01*
X64148987Y-65036962D01*
X64367641Y-65183061D01*
X64610595Y-65283696D01*
X64868514Y-65335000D01*
X65131486Y-65335000D01*
X65389405Y-65283696D01*
X65632359Y-65183061D01*
X65851013Y-65036962D01*
X66036962Y-64851013D01*
X66183061Y-64632359D01*
X66283696Y-64389405D01*
X66335000Y-64131486D01*
X66335000Y-63868514D01*
X67665000Y-63868514D01*
X67665000Y-64131486D01*
X67716304Y-64389405D01*
X67816939Y-64632359D01*
X67963038Y-64851013D01*
X68148987Y-65036962D01*
X68367641Y-65183061D01*
X68610595Y-65283696D01*
X68868514Y-65335000D01*
X69131486Y-65335000D01*
X69389405Y-65283696D01*
X69632359Y-65183061D01*
X69851013Y-65036962D01*
X70036962Y-64851013D01*
X70183061Y-64632359D01*
X70283696Y-64389405D01*
X70335000Y-64131486D01*
X70335000Y-63868514D01*
X70283696Y-63610595D01*
X70183061Y-63367641D01*
X70036962Y-63148987D01*
X69851013Y-62963038D01*
X69632359Y-62816939D01*
X69389405Y-62716304D01*
X69131486Y-62665000D01*
X68868514Y-62665000D01*
X68610595Y-62716304D01*
X68367641Y-62816939D01*
X68148987Y-62963038D01*
X67963038Y-63148987D01*
X67816939Y-63367641D01*
X67716304Y-63610595D01*
X67665000Y-63868514D01*
X66335000Y-63868514D01*
X66283696Y-63610595D01*
X66183061Y-63367641D01*
X66036962Y-63148987D01*
X65851013Y-62963038D01*
X65632359Y-62816939D01*
X65389405Y-62716304D01*
X65131486Y-62665000D01*
X64868514Y-62665000D01*
X64610595Y-62716304D01*
X64367641Y-62816939D01*
X64148987Y-62963038D01*
X63963038Y-63148987D01*
X63902225Y-63240000D01*
X60097775Y-63240000D01*
X60036962Y-63148987D01*
X59851013Y-62963038D01*
X59632359Y-62816939D01*
X59389405Y-62716304D01*
X59131486Y-62665000D01*
X58868514Y-62665000D01*
X58610595Y-62716304D01*
X58367641Y-62816939D01*
X58148987Y-62963038D01*
X57963038Y-63148987D01*
X57816939Y-63367641D01*
X57716304Y-63610595D01*
X57665000Y-63868514D01*
X56151587Y-63868514D01*
X64760102Y-55260000D01*
X65281957Y-55260000D01*
X65385363Y-55414759D01*
X65585241Y-55614637D01*
X65820273Y-55771680D01*
X66081426Y-55879853D01*
X66358665Y-55935000D01*
X66641335Y-55935000D01*
X66918574Y-55879853D01*
X67179727Y-55771680D01*
X67414759Y-55614637D01*
X67614637Y-55414759D01*
X67771680Y-55179727D01*
X67879853Y-54918574D01*
X67935000Y-54641335D01*
X67935000Y-54358665D01*
X67879853Y-54081426D01*
X67771680Y-53820273D01*
X67614637Y-53585241D01*
X67414759Y-53385363D01*
X67212173Y-53250000D01*
X67414759Y-53114637D01*
X67614637Y-52914759D01*
X67771680Y-52679727D01*
X67879853Y-52418574D01*
X67935000Y-52141335D01*
X67935000Y-51858665D01*
X67879853Y-51581426D01*
X67771680Y-51320273D01*
X67614637Y-51085241D01*
X67414759Y-50885363D01*
X67179727Y-50728320D01*
X66918574Y-50620147D01*
X66641335Y-50565000D01*
X66358665Y-50565000D01*
X66081426Y-50620147D01*
X65820273Y-50728320D01*
X65585241Y-50885363D01*
X65385363Y-51085241D01*
X65228320Y-51320273D01*
X65120147Y-51581426D01*
X65065000Y-51858665D01*
X65065000Y-52141335D01*
X65120147Y-52418574D01*
X65228320Y-52679727D01*
X65385363Y-52914759D01*
X65585241Y-53114637D01*
X65787827Y-53250000D01*
X65585241Y-53385363D01*
X65385363Y-53585241D01*
X65281957Y-53740000D01*
X65205300Y-53740000D01*
X65205300Y-52982623D01*
X65208976Y-52945300D01*
X65205300Y-52907977D01*
X65205300Y-52907967D01*
X65194303Y-52796314D01*
X65150846Y-52653053D01*
X65080274Y-52521024D01*
X64985301Y-52405299D01*
X64956304Y-52381502D01*
X53640202Y-41065401D01*
X53793346Y-40695679D01*
X53885000Y-40234902D01*
X53885000Y-39765098D01*
X54115000Y-39765098D01*
X54115000Y-40234902D01*
X54206654Y-40695679D01*
X54386440Y-41129721D01*
X54647450Y-41520349D01*
X54979651Y-41852550D01*
X55370279Y-42113560D01*
X55804321Y-42293346D01*
X56265098Y-42385000D01*
X56734902Y-42385000D01*
X57195679Y-42293346D01*
X57629721Y-42113560D01*
X58020349Y-41852550D01*
X58352550Y-41520349D01*
X58613560Y-41129721D01*
X58793346Y-40695679D01*
X58885000Y-40234902D01*
X58885000Y-39765098D01*
X58882062Y-39750324D01*
X58965000Y-39750324D01*
X58965000Y-40249676D01*
X59062418Y-40739432D01*
X59253512Y-41200773D01*
X59530937Y-41615968D01*
X59884032Y-41969063D01*
X60299227Y-42246488D01*
X60760568Y-42437582D01*
X61250324Y-42535000D01*
X61749676Y-42535000D01*
X62239432Y-42437582D01*
X62700773Y-42246488D01*
X63115968Y-41969063D01*
X63469063Y-41615968D01*
X63746488Y-41200773D01*
X63937582Y-40739432D01*
X64035000Y-40249676D01*
X64035000Y-39750324D01*
X63937582Y-39260568D01*
X63746488Y-38799227D01*
X63469063Y-38384032D01*
X63115968Y-38030937D01*
X62700773Y-37753512D01*
X62239432Y-37562418D01*
X61749676Y-37465000D01*
X61250324Y-37465000D01*
X60760568Y-37562418D01*
X60299227Y-37753512D01*
X59884032Y-38030937D01*
X59530937Y-38384032D01*
X59253512Y-38799227D01*
X59062418Y-39260568D01*
X58965000Y-39750324D01*
X58882062Y-39750324D01*
X58793346Y-39304321D01*
X58613560Y-38870279D01*
X58352550Y-38479651D01*
X58020349Y-38147450D01*
X57629721Y-37886440D01*
X57195679Y-37706654D01*
X56734902Y-37615000D01*
X56265098Y-37615000D01*
X55804321Y-37706654D01*
X55370279Y-37886440D01*
X54979651Y-38147450D01*
X54647450Y-38479651D01*
X54386440Y-38870279D01*
X54206654Y-39304321D01*
X54115000Y-39765098D01*
X53885000Y-39765098D01*
X53793346Y-39304321D01*
X53613560Y-38870279D01*
X53352550Y-38479651D01*
X53020349Y-38147450D01*
X52629721Y-37886440D01*
X52195679Y-37706654D01*
X51734902Y-37615000D01*
X51265098Y-37615000D01*
X50804321Y-37706654D01*
X50370279Y-37886440D01*
X49979651Y-38147450D01*
X49647450Y-38479651D01*
X49386440Y-38870279D01*
X49206654Y-39304321D01*
X49115000Y-39765098D01*
X49115000Y-40234902D01*
X49206654Y-40695679D01*
X49386440Y-41129721D01*
X49647450Y-41520349D01*
X49979651Y-41852550D01*
X50370279Y-42113560D01*
X50804321Y-42293346D01*
X51265098Y-42385000D01*
X51734902Y-42385000D01*
X52195679Y-42293346D01*
X52565401Y-42140202D01*
X61055913Y-50630715D01*
X60820273Y-50728320D01*
X60585241Y-50885363D01*
X60385363Y-51085241D01*
X60281957Y-51240000D01*
X57718043Y-51240000D01*
X57614637Y-51085241D01*
X57414759Y-50885363D01*
X57179727Y-50728320D01*
X56918574Y-50620147D01*
X56641335Y-50565000D01*
X56358665Y-50565000D01*
X56081426Y-50620147D01*
X55820273Y-50728320D01*
X55585241Y-50885363D01*
X55385363Y-51085241D01*
X55281957Y-51240000D01*
X52718043Y-51240000D01*
X52614637Y-51085241D01*
X52414759Y-50885363D01*
X52179727Y-50728320D01*
X51918574Y-50620147D01*
X51641335Y-50565000D01*
X51358665Y-50565000D01*
X51081426Y-50620147D01*
X50820273Y-50728320D01*
X50585241Y-50885363D01*
X50385363Y-51085241D01*
X50228320Y-51320273D01*
X50120147Y-51581426D01*
X50065000Y-51858665D01*
X50065000Y-52141335D01*
X50101312Y-52323887D01*
X49861398Y-52563801D01*
X49832400Y-52587599D01*
X49808602Y-52616597D01*
X49808601Y-52616598D01*
X49737426Y-52703324D01*
X49666854Y-52835354D01*
X49623398Y-52978615D01*
X49608724Y-53127600D01*
X49612401Y-53164932D01*
X49612400Y-64829778D01*
X49608724Y-64867100D01*
X49612400Y-64904422D01*
X49612400Y-64904432D01*
X49623397Y-65016085D01*
X49666854Y-65159346D01*
X49737426Y-65291376D01*
X49773228Y-65335000D01*
X49832399Y-65407101D01*
X49861403Y-65430904D01*
X51390551Y-66960053D01*
X51265363Y-67085241D01*
X51108320Y-67320273D01*
X51000147Y-67581426D01*
X50945000Y-67858665D01*
X50945000Y-68141335D01*
X51000147Y-68418574D01*
X51108320Y-68679727D01*
X51265363Y-68914759D01*
X51465241Y-69114637D01*
X51620001Y-69218044D01*
X51620000Y-72203580D01*
X51418574Y-72120147D01*
X51141335Y-72065000D01*
X50858665Y-72065000D01*
X50581426Y-72120147D01*
X50320273Y-72228320D01*
X50085241Y-72385363D01*
X49885363Y-72585241D01*
X49750000Y-72787827D01*
X49614637Y-72585241D01*
X49414759Y-72385363D01*
X49179727Y-72228320D01*
X48918574Y-72120147D01*
X48641335Y-72065000D01*
X48358665Y-72065000D01*
X48115300Y-72113409D01*
X48115300Y-71064802D01*
X48511008Y-70669095D01*
X48540001Y-70645301D01*
X48563795Y-70616308D01*
X48563799Y-70616304D01*
X48634973Y-70529577D01*
X48634974Y-70529576D01*
X48705546Y-70397547D01*
X48749003Y-70254286D01*
X48756295Y-70180250D01*
X48851013Y-70116962D01*
X49036962Y-69931013D01*
X49183061Y-69712359D01*
X49283696Y-69469405D01*
X49335000Y-69211486D01*
X49335000Y-68948514D01*
X49283696Y-68690595D01*
X49183061Y-68447641D01*
X49036962Y-68228987D01*
X48851013Y-68043038D01*
X48632359Y-67896939D01*
X48389405Y-67796304D01*
X48131486Y-67745000D01*
X47868514Y-67745000D01*
X47610595Y-67796304D01*
X47367641Y-67896939D01*
X47148987Y-68043038D01*
X46963038Y-68228987D01*
X46816939Y-68447641D01*
X46716304Y-68690595D01*
X46665000Y-68948514D01*
X46665000Y-69211486D01*
X46716304Y-69469405D01*
X46816939Y-69712359D01*
X46963038Y-69931013D01*
X47031262Y-69999237D01*
X46844297Y-70186202D01*
X46815300Y-70209999D01*
X46791502Y-70238997D01*
X46791501Y-70238998D01*
X46720326Y-70325724D01*
X46649754Y-70457754D01*
X46606298Y-70601015D01*
X46591624Y-70750000D01*
X46595301Y-70787332D01*
X46595300Y-78761400D01*
X45941222Y-78761400D01*
X45903899Y-78757724D01*
X45866576Y-78761400D01*
X45866567Y-78761400D01*
X45754914Y-78772397D01*
X45617102Y-78814201D01*
X45611653Y-78815854D01*
X45479623Y-78886426D01*
X45409715Y-78943799D01*
X45363899Y-78981399D01*
X45340101Y-79010397D01*
X44419947Y-79930551D01*
X44294759Y-79805363D01*
X44062241Y-79650000D01*
X44294759Y-79494637D01*
X44494637Y-79294759D01*
X44651680Y-79059727D01*
X44759853Y-78798574D01*
X44815000Y-78521335D01*
X44815000Y-78238665D01*
X44759853Y-77961426D01*
X44651680Y-77700273D01*
X44494637Y-77465241D01*
X44294759Y-77265363D01*
X44059727Y-77108320D01*
X43798574Y-77000147D01*
X43521335Y-76945000D01*
X43238665Y-76945000D01*
X42961426Y-77000147D01*
X42700273Y-77108320D01*
X42465241Y-77265363D01*
X42265363Y-77465241D01*
X42108320Y-77700273D01*
X42000147Y-77961426D01*
X41945000Y-78238665D01*
X38185000Y-78238665D01*
X38185000Y-68868514D01*
X42665000Y-68868514D01*
X42665000Y-69131486D01*
X42716304Y-69389405D01*
X42816939Y-69632359D01*
X42963038Y-69851013D01*
X43148987Y-70036962D01*
X43367641Y-70183061D01*
X43610595Y-70283696D01*
X43868514Y-70335000D01*
X44131486Y-70335000D01*
X44389405Y-70283696D01*
X44632359Y-70183061D01*
X44851013Y-70036962D01*
X45036962Y-69851013D01*
X45183061Y-69632359D01*
X45283696Y-69389405D01*
X45335000Y-69131486D01*
X45335000Y-68868514D01*
X45283696Y-68610595D01*
X45183061Y-68367641D01*
X45036962Y-68148987D01*
X44851013Y-67963038D01*
X44632359Y-67816939D01*
X44389405Y-67716304D01*
X44131486Y-67665000D01*
X43868514Y-67665000D01*
X43610595Y-67716304D01*
X43367641Y-67816939D01*
X43148987Y-67963038D01*
X42963038Y-68148987D01*
X42816939Y-68367641D01*
X42716304Y-68610595D01*
X42665000Y-68868514D01*
X38185000Y-68868514D01*
X38185000Y-63788514D01*
X42665000Y-63788514D01*
X42665000Y-64051486D01*
X42716304Y-64309405D01*
X42816939Y-64552359D01*
X42963038Y-64771013D01*
X43148987Y-64956962D01*
X43367641Y-65103061D01*
X43610595Y-65203696D01*
X43868514Y-65255000D01*
X44131486Y-65255000D01*
X44389405Y-65203696D01*
X44632359Y-65103061D01*
X44851013Y-64956962D01*
X45036962Y-64771013D01*
X45183061Y-64552359D01*
X45283696Y-64309405D01*
X45335000Y-64051486D01*
X45335000Y-63868514D01*
X46665000Y-63868514D01*
X46665000Y-64131486D01*
X46716304Y-64389405D01*
X46816939Y-64632359D01*
X46963038Y-64851013D01*
X47148987Y-65036962D01*
X47367641Y-65183061D01*
X47610595Y-65283696D01*
X47868514Y-65335000D01*
X48131486Y-65335000D01*
X48389405Y-65283696D01*
X48632359Y-65183061D01*
X48851013Y-65036962D01*
X49036962Y-64851013D01*
X49183061Y-64632359D01*
X49283696Y-64389405D01*
X49335000Y-64131486D01*
X49335000Y-63868514D01*
X49283696Y-63610595D01*
X49183061Y-63367641D01*
X49036962Y-63148987D01*
X48851013Y-62963038D01*
X48632359Y-62816939D01*
X48389405Y-62716304D01*
X48131486Y-62665000D01*
X47868514Y-62665000D01*
X47610595Y-62716304D01*
X47367641Y-62816939D01*
X47148987Y-62963038D01*
X46963038Y-63148987D01*
X46816939Y-63367641D01*
X46716304Y-63610595D01*
X46665000Y-63868514D01*
X45335000Y-63868514D01*
X45335000Y-63788514D01*
X45283696Y-63530595D01*
X45183061Y-63287641D01*
X45036962Y-63068987D01*
X44968738Y-63000763D01*
X47011004Y-60958498D01*
X47040001Y-60934701D01*
X47066332Y-60902617D01*
X47134974Y-60818977D01*
X47205546Y-60686947D01*
X47205546Y-60686946D01*
X47249003Y-60543686D01*
X47260000Y-60432033D01*
X47260000Y-60432023D01*
X47263676Y-60394700D01*
X47260000Y-60357377D01*
X47260000Y-55718043D01*
X47414759Y-55614637D01*
X47614637Y-55414759D01*
X47771680Y-55179727D01*
X47879853Y-54918574D01*
X47935000Y-54641335D01*
X47935000Y-54358665D01*
X47879853Y-54081426D01*
X47771680Y-53820273D01*
X47614637Y-53585241D01*
X47414759Y-53385363D01*
X47212173Y-53250000D01*
X47414759Y-53114637D01*
X47614637Y-52914759D01*
X47771680Y-52679727D01*
X47879853Y-52418574D01*
X47935000Y-52141335D01*
X47935000Y-51858665D01*
X47879853Y-51581426D01*
X47771680Y-51320273D01*
X47614637Y-51085241D01*
X47414759Y-50885363D01*
X47179727Y-50728320D01*
X46918574Y-50620147D01*
X46641335Y-50565000D01*
X46358665Y-50565000D01*
X46081426Y-50620147D01*
X45820273Y-50728320D01*
X45585241Y-50885363D01*
X45385363Y-51085241D01*
X45228320Y-51320273D01*
X45120147Y-51581426D01*
X45065000Y-51858665D01*
X45065000Y-52141335D01*
X45120147Y-52418574D01*
X45228320Y-52679727D01*
X45385363Y-52914759D01*
X45585241Y-53114637D01*
X45787827Y-53250000D01*
X45585241Y-53385363D01*
X45385363Y-53585241D01*
X45228320Y-53820273D01*
X45120147Y-54081426D01*
X45065000Y-54358665D01*
X45065000Y-54641335D01*
X45120147Y-54918574D01*
X45228320Y-55179727D01*
X45385363Y-55414759D01*
X45585241Y-55614637D01*
X45740001Y-55718044D01*
X45740000Y-60079898D01*
X43488998Y-62330901D01*
X43460000Y-62354699D01*
X43436202Y-62383697D01*
X43436201Y-62383698D01*
X43365026Y-62470424D01*
X43294454Y-62602454D01*
X43250998Y-62745715D01*
X43243706Y-62819749D01*
X43148987Y-62883038D01*
X42963038Y-63068987D01*
X42816939Y-63287641D01*
X42716304Y-63530595D01*
X42665000Y-63788514D01*
X38185000Y-63788514D01*
X38185000Y-33185000D01*
X74315000Y-33185000D01*
X74315001Y-129315000D01*
G37*
%TD.AperFunction*%
D19*
X69985300Y-89517898D02*
X69211990Y-90291208D01*
X69116962Y-90148987D01*
X68931013Y-89963038D01*
X68840000Y-89902225D01*
X68840000Y-87438072D01*
X69985300Y-87438072D01*
X69985300Y-89517898D01*
%TA.AperFunction,Conductor*%
D20*
G36*
X69985300Y-89517898D02*
G01*
X69211990Y-90291208D01*
X69116962Y-90148987D01*
X68931013Y-89963038D01*
X68840000Y-89902225D01*
X68840000Y-87438072D01*
X69985300Y-87438072D01*
X69985300Y-89517898D01*
G37*
%TD.AperFunction*%
D19*
X47355300Y-80285077D02*
X47392633Y-80281400D01*
X49711285Y-80281400D01*
X49620147Y-80501426D01*
X49565000Y-80778665D01*
X49565000Y-81061335D01*
X49620147Y-81338574D01*
X49728320Y-81599727D01*
X49885363Y-81834759D01*
X50085241Y-82034637D01*
X50317759Y-82190000D01*
X50085241Y-82345363D01*
X49885363Y-82545241D01*
X49728320Y-82780273D01*
X49620147Y-83041426D01*
X49565000Y-83318665D01*
X49565000Y-83601335D01*
X49620147Y-83878574D01*
X49728320Y-84139727D01*
X49885363Y-84374759D01*
X50083961Y-84573357D01*
X50075518Y-84574188D01*
X49955820Y-84610498D01*
X49845506Y-84669463D01*
X49748815Y-84748815D01*
X49669463Y-84845506D01*
X49610498Y-84955820D01*
X49574188Y-85075518D01*
X49561928Y-85200000D01*
X49561928Y-86544000D01*
X46694803Y-86544000D01*
X44507023Y-84356222D01*
X44651680Y-84139727D01*
X44759853Y-83878574D01*
X44815000Y-83601335D01*
X44815000Y-83318665D01*
X44759853Y-83041426D01*
X44651680Y-82780273D01*
X44494637Y-82545241D01*
X44294759Y-82345363D01*
X44062241Y-82190000D01*
X44294759Y-82034637D01*
X44494637Y-81834759D01*
X44601947Y-81674158D01*
X44654286Y-81669003D01*
X44797547Y-81625546D01*
X44929576Y-81554974D01*
X45045301Y-81460001D01*
X45069104Y-81430997D01*
X46218702Y-80281400D01*
X47317967Y-80281400D01*
X47355300Y-80285077D01*
%TA.AperFunction,Conductor*%
D20*
G36*
X47355300Y-80285077D02*
G01*
X47392633Y-80281400D01*
X49711285Y-80281400D01*
X49620147Y-80501426D01*
X49565000Y-80778665D01*
X49565000Y-81061335D01*
X49620147Y-81338574D01*
X49728320Y-81599727D01*
X49885363Y-81834759D01*
X50085241Y-82034637D01*
X50317759Y-82190000D01*
X50085241Y-82345363D01*
X49885363Y-82545241D01*
X49728320Y-82780273D01*
X49620147Y-83041426D01*
X49565000Y-83318665D01*
X49565000Y-83601335D01*
X49620147Y-83878574D01*
X49728320Y-84139727D01*
X49885363Y-84374759D01*
X50083961Y-84573357D01*
X50075518Y-84574188D01*
X49955820Y-84610498D01*
X49845506Y-84669463D01*
X49748815Y-84748815D01*
X49669463Y-84845506D01*
X49610498Y-84955820D01*
X49574188Y-85075518D01*
X49561928Y-85200000D01*
X49561928Y-86544000D01*
X46694803Y-86544000D01*
X44507023Y-84356222D01*
X44651680Y-84139727D01*
X44759853Y-83878574D01*
X44815000Y-83601335D01*
X44815000Y-83318665D01*
X44759853Y-83041426D01*
X44651680Y-82780273D01*
X44494637Y-82545241D01*
X44294759Y-82345363D01*
X44062241Y-82190000D01*
X44294759Y-82034637D01*
X44494637Y-81834759D01*
X44601947Y-81674158D01*
X44654286Y-81669003D01*
X44797547Y-81625546D01*
X44929576Y-81554974D01*
X45045301Y-81460001D01*
X45069104Y-81430997D01*
X46218702Y-80281400D01*
X47317967Y-80281400D01*
X47355300Y-80285077D01*
G37*
%TD.AperFunction*%
D19*
X68185000Y-80778665D02*
X68185000Y-81061335D01*
X68240147Y-81338574D01*
X68348320Y-81599727D01*
X68505363Y-81834759D01*
X68705241Y-82034637D01*
X68865842Y-82141947D01*
X68870997Y-82194286D01*
X68881167Y-82227813D01*
X68705241Y-82345363D01*
X68505363Y-82545241D01*
X68348320Y-82780273D01*
X68240147Y-83041426D01*
X68185000Y-83318665D01*
X68185000Y-83601335D01*
X68240147Y-83878574D01*
X68330498Y-84096700D01*
X68079999Y-84347198D01*
X68026803Y-84294002D01*
X68003001Y-84264999D01*
X67887276Y-84170026D01*
X67755247Y-84099454D01*
X67611986Y-84055997D01*
X67500333Y-84045000D01*
X67500322Y-84045000D01*
X67463000Y-84041324D01*
X67425678Y-84045000D01*
X63310917Y-84045000D01*
X63379853Y-83878574D01*
X63435000Y-83601335D01*
X63435000Y-83318665D01*
X63379853Y-83041426D01*
X63271680Y-82780273D01*
X63114637Y-82545241D01*
X62914759Y-82345363D01*
X62682241Y-82190000D01*
X62914759Y-82034637D01*
X63114637Y-81834759D01*
X63221947Y-81674158D01*
X63274286Y-81669003D01*
X63417547Y-81625546D01*
X63549576Y-81554974D01*
X63665301Y-81460001D01*
X63689104Y-81430998D01*
X64565402Y-80554700D01*
X68229550Y-80554700D01*
X68185000Y-80778665D01*
%TA.AperFunction,Conductor*%
D20*
G36*
X68185000Y-80778665D02*
G01*
X68185000Y-81061335D01*
X68240147Y-81338574D01*
X68348320Y-81599727D01*
X68505363Y-81834759D01*
X68705241Y-82034637D01*
X68865842Y-82141947D01*
X68870997Y-82194286D01*
X68881167Y-82227813D01*
X68705241Y-82345363D01*
X68505363Y-82545241D01*
X68348320Y-82780273D01*
X68240147Y-83041426D01*
X68185000Y-83318665D01*
X68185000Y-83601335D01*
X68240147Y-83878574D01*
X68330498Y-84096700D01*
X68079999Y-84347198D01*
X68026803Y-84294002D01*
X68003001Y-84264999D01*
X67887276Y-84170026D01*
X67755247Y-84099454D01*
X67611986Y-84055997D01*
X67500333Y-84045000D01*
X67500322Y-84045000D01*
X67463000Y-84041324D01*
X67425678Y-84045000D01*
X63310917Y-84045000D01*
X63379853Y-83878574D01*
X63435000Y-83601335D01*
X63435000Y-83318665D01*
X63379853Y-83041426D01*
X63271680Y-82780273D01*
X63114637Y-82545241D01*
X62914759Y-82345363D01*
X62682241Y-82190000D01*
X62914759Y-82034637D01*
X63114637Y-81834759D01*
X63221947Y-81674158D01*
X63274286Y-81669003D01*
X63417547Y-81625546D01*
X63549576Y-81554974D01*
X63665301Y-81460001D01*
X63689104Y-81430998D01*
X64565402Y-80554700D01*
X68229550Y-80554700D01*
X68185000Y-80778665D01*
G37*
%TD.AperFunction*%
D19*
X52380000Y-74263677D02*
X52417333Y-74260000D01*
X60281957Y-74260000D01*
X60385363Y-74414759D01*
X60585241Y-74614637D01*
X60820273Y-74771680D01*
X61081426Y-74879853D01*
X61358665Y-74935000D01*
X61641335Y-74935000D01*
X61823887Y-74898688D01*
X65816201Y-78891003D01*
X65839999Y-78920001D01*
X65955724Y-79014974D01*
X65992628Y-79034700D01*
X64287933Y-79034700D01*
X64250600Y-79031023D01*
X64213267Y-79034700D01*
X64101614Y-79045697D01*
X63958353Y-79089154D01*
X63826324Y-79159726D01*
X63710599Y-79254699D01*
X63686801Y-79283697D01*
X63039947Y-79930551D01*
X62914759Y-79805363D01*
X62682241Y-79650000D01*
X62914759Y-79494637D01*
X63114637Y-79294759D01*
X63271680Y-79059727D01*
X63379853Y-78798574D01*
X63435000Y-78521335D01*
X63435000Y-78238665D01*
X63379853Y-77961426D01*
X63271680Y-77700273D01*
X63114637Y-77465241D01*
X62914759Y-77265363D01*
X62679727Y-77108320D01*
X62418574Y-77000147D01*
X62141335Y-76945000D01*
X61858665Y-76945000D01*
X61581426Y-77000147D01*
X61320273Y-77108320D01*
X61085241Y-77265363D01*
X60885363Y-77465241D01*
X60728320Y-77700273D01*
X60620147Y-77961426D01*
X60565000Y-78238665D01*
X60565000Y-78521335D01*
X60620147Y-78798574D01*
X60728320Y-79059727D01*
X60885363Y-79294759D01*
X61085241Y-79494637D01*
X61317759Y-79650000D01*
X61085241Y-79805363D01*
X60885363Y-80005241D01*
X60781957Y-80160000D01*
X60734802Y-80160000D01*
X59813645Y-79238844D01*
X59835000Y-79131486D01*
X59835000Y-78868514D01*
X59783696Y-78610595D01*
X59683061Y-78367641D01*
X59536962Y-78148987D01*
X59351013Y-77963038D01*
X59132359Y-77816939D01*
X58889405Y-77716304D01*
X58631486Y-77665000D01*
X58368514Y-77665000D01*
X58110595Y-77716304D01*
X57867641Y-77816939D01*
X57648987Y-77963038D01*
X57463038Y-78148987D01*
X57316939Y-78367641D01*
X57216304Y-78610595D01*
X57165000Y-78868514D01*
X57165000Y-79131486D01*
X57216304Y-79389405D01*
X57316939Y-79632359D01*
X57463038Y-79851013D01*
X57648987Y-80036962D01*
X57867641Y-80183061D01*
X58110595Y-80283696D01*
X58368514Y-80335000D01*
X58631486Y-80335000D01*
X58738844Y-80313645D01*
X59856201Y-81431003D01*
X59879999Y-81460001D01*
X59908997Y-81483799D01*
X59995723Y-81554974D01*
X60119293Y-81621024D01*
X60127753Y-81625546D01*
X60271014Y-81669003D01*
X60382667Y-81680000D01*
X60382676Y-81680000D01*
X60419999Y-81683676D01*
X60457322Y-81680000D01*
X60781957Y-81680000D01*
X60885363Y-81834759D01*
X61085241Y-82034637D01*
X61317759Y-82190000D01*
X61085241Y-82345363D01*
X60959477Y-82471127D01*
X60879176Y-82405226D01*
X60747147Y-82334654D01*
X60603886Y-82291197D01*
X60492233Y-82280200D01*
X60492222Y-82280200D01*
X60454900Y-82276524D01*
X60417578Y-82280200D01*
X57910125Y-82280200D01*
X57872800Y-82276524D01*
X57835475Y-82280200D01*
X57835467Y-82280200D01*
X57723814Y-82291197D01*
X57580553Y-82334654D01*
X57448524Y-82405226D01*
X57332799Y-82500199D01*
X57309001Y-82529197D01*
X55835000Y-84003198D01*
X55835000Y-83868514D01*
X55783696Y-83610595D01*
X55683061Y-83367641D01*
X55536962Y-83148987D01*
X55351013Y-82963038D01*
X55132359Y-82816939D01*
X54889405Y-82716304D01*
X54631486Y-82665000D01*
X54368514Y-82665000D01*
X54110595Y-82716304D01*
X53867641Y-82816939D01*
X53648987Y-82963038D01*
X53580763Y-83031262D01*
X53498503Y-82949002D01*
X53474701Y-82919999D01*
X53358976Y-82825026D01*
X53226947Y-82754454D01*
X53083686Y-82710997D01*
X52972033Y-82700000D01*
X52972022Y-82700000D01*
X52934700Y-82696324D01*
X52897378Y-82700000D01*
X52218043Y-82700000D01*
X52114637Y-82545241D01*
X51914759Y-82345363D01*
X51682241Y-82190000D01*
X51914759Y-82034637D01*
X52114637Y-81834759D01*
X52271680Y-81599727D01*
X52379853Y-81338574D01*
X52435000Y-81061335D01*
X52435000Y-80778665D01*
X52379853Y-80501426D01*
X52288715Y-80281400D01*
X53861278Y-80281400D01*
X53898600Y-80285076D01*
X53935922Y-80281400D01*
X53935933Y-80281400D01*
X54047586Y-80270403D01*
X54190847Y-80226946D01*
X54200782Y-80221636D01*
X54368514Y-80255000D01*
X54631486Y-80255000D01*
X54889405Y-80203696D01*
X55132359Y-80103061D01*
X55351013Y-79956962D01*
X55536962Y-79771013D01*
X55683061Y-79552359D01*
X55783696Y-79309405D01*
X55835000Y-79051486D01*
X55835000Y-78788514D01*
X55783696Y-78530595D01*
X55683061Y-78287641D01*
X55536962Y-78068987D01*
X55351013Y-77883038D01*
X55132359Y-77736939D01*
X54889405Y-77636304D01*
X54631486Y-77585000D01*
X54368514Y-77585000D01*
X54110595Y-77636304D01*
X53867641Y-77736939D01*
X53648987Y-77883038D01*
X53463038Y-78068987D01*
X53316939Y-78287641D01*
X53216304Y-78530595D01*
X53170393Y-78761400D01*
X52387247Y-78761400D01*
X52435000Y-78521335D01*
X52435000Y-78238665D01*
X52379853Y-77961426D01*
X52271680Y-77700273D01*
X52114637Y-77465241D01*
X51914759Y-77265363D01*
X51760000Y-77161957D01*
X51760000Y-74718043D01*
X51914759Y-74614637D01*
X52114637Y-74414759D01*
X52218043Y-74260000D01*
X52342667Y-74260000D01*
X52380000Y-74263677D01*
%TA.AperFunction,Conductor*%
D20*
G36*
X52380000Y-74263677D02*
G01*
X52417333Y-74260000D01*
X60281957Y-74260000D01*
X60385363Y-74414759D01*
X60585241Y-74614637D01*
X60820273Y-74771680D01*
X61081426Y-74879853D01*
X61358665Y-74935000D01*
X61641335Y-74935000D01*
X61823887Y-74898688D01*
X65816201Y-78891003D01*
X65839999Y-78920001D01*
X65955724Y-79014974D01*
X65992628Y-79034700D01*
X64287933Y-79034700D01*
X64250600Y-79031023D01*
X64213267Y-79034700D01*
X64101614Y-79045697D01*
X63958353Y-79089154D01*
X63826324Y-79159726D01*
X63710599Y-79254699D01*
X63686801Y-79283697D01*
X63039947Y-79930551D01*
X62914759Y-79805363D01*
X62682241Y-79650000D01*
X62914759Y-79494637D01*
X63114637Y-79294759D01*
X63271680Y-79059727D01*
X63379853Y-78798574D01*
X63435000Y-78521335D01*
X63435000Y-78238665D01*
X63379853Y-77961426D01*
X63271680Y-77700273D01*
X63114637Y-77465241D01*
X62914759Y-77265363D01*
X62679727Y-77108320D01*
X62418574Y-77000147D01*
X62141335Y-76945000D01*
X61858665Y-76945000D01*
X61581426Y-77000147D01*
X61320273Y-77108320D01*
X61085241Y-77265363D01*
X60885363Y-77465241D01*
X60728320Y-77700273D01*
X60620147Y-77961426D01*
X60565000Y-78238665D01*
X60565000Y-78521335D01*
X60620147Y-78798574D01*
X60728320Y-79059727D01*
X60885363Y-79294759D01*
X61085241Y-79494637D01*
X61317759Y-79650000D01*
X61085241Y-79805363D01*
X60885363Y-80005241D01*
X60781957Y-80160000D01*
X60734802Y-80160000D01*
X59813645Y-79238844D01*
X59835000Y-79131486D01*
X59835000Y-78868514D01*
X59783696Y-78610595D01*
X59683061Y-78367641D01*
X59536962Y-78148987D01*
X59351013Y-77963038D01*
X59132359Y-77816939D01*
X58889405Y-77716304D01*
X58631486Y-77665000D01*
X58368514Y-77665000D01*
X58110595Y-77716304D01*
X57867641Y-77816939D01*
X57648987Y-77963038D01*
X57463038Y-78148987D01*
X57316939Y-78367641D01*
X57216304Y-78610595D01*
X57165000Y-78868514D01*
X57165000Y-79131486D01*
X57216304Y-79389405D01*
X57316939Y-79632359D01*
X57463038Y-79851013D01*
X57648987Y-80036962D01*
X57867641Y-80183061D01*
X58110595Y-80283696D01*
X58368514Y-80335000D01*
X58631486Y-80335000D01*
X58738844Y-80313645D01*
X59856201Y-81431003D01*
X59879999Y-81460001D01*
X59908997Y-81483799D01*
X59995723Y-81554974D01*
X60119293Y-81621024D01*
X60127753Y-81625546D01*
X60271014Y-81669003D01*
X60382667Y-81680000D01*
X60382676Y-81680000D01*
X60419999Y-81683676D01*
X60457322Y-81680000D01*
X60781957Y-81680000D01*
X60885363Y-81834759D01*
X61085241Y-82034637D01*
X61317759Y-82190000D01*
X61085241Y-82345363D01*
X60959477Y-82471127D01*
X60879176Y-82405226D01*
X60747147Y-82334654D01*
X60603886Y-82291197D01*
X60492233Y-82280200D01*
X60492222Y-82280200D01*
X60454900Y-82276524D01*
X60417578Y-82280200D01*
X57910125Y-82280200D01*
X57872800Y-82276524D01*
X57835475Y-82280200D01*
X57835467Y-82280200D01*
X57723814Y-82291197D01*
X57580553Y-82334654D01*
X57448524Y-82405226D01*
X57332799Y-82500199D01*
X57309001Y-82529197D01*
X55835000Y-84003198D01*
X55835000Y-83868514D01*
X55783696Y-83610595D01*
X55683061Y-83367641D01*
X55536962Y-83148987D01*
X55351013Y-82963038D01*
X55132359Y-82816939D01*
X54889405Y-82716304D01*
X54631486Y-82665000D01*
X54368514Y-82665000D01*
X54110595Y-82716304D01*
X53867641Y-82816939D01*
X53648987Y-82963038D01*
X53580763Y-83031262D01*
X53498503Y-82949002D01*
X53474701Y-82919999D01*
X53358976Y-82825026D01*
X53226947Y-82754454D01*
X53083686Y-82710997D01*
X52972033Y-82700000D01*
X52972022Y-82700000D01*
X52934700Y-82696324D01*
X52897378Y-82700000D01*
X52218043Y-82700000D01*
X52114637Y-82545241D01*
X51914759Y-82345363D01*
X51682241Y-82190000D01*
X51914759Y-82034637D01*
X52114637Y-81834759D01*
X52271680Y-81599727D01*
X52379853Y-81338574D01*
X52435000Y-81061335D01*
X52435000Y-80778665D01*
X52379853Y-80501426D01*
X52288715Y-80281400D01*
X53861278Y-80281400D01*
X53898600Y-80285076D01*
X53935922Y-80281400D01*
X53935933Y-80281400D01*
X54047586Y-80270403D01*
X54190847Y-80226946D01*
X54200782Y-80221636D01*
X54368514Y-80255000D01*
X54631486Y-80255000D01*
X54889405Y-80203696D01*
X55132359Y-80103061D01*
X55351013Y-79956962D01*
X55536962Y-79771013D01*
X55683061Y-79552359D01*
X55783696Y-79309405D01*
X55835000Y-79051486D01*
X55835000Y-78788514D01*
X55783696Y-78530595D01*
X55683061Y-78287641D01*
X55536962Y-78068987D01*
X55351013Y-77883038D01*
X55132359Y-77736939D01*
X54889405Y-77636304D01*
X54631486Y-77585000D01*
X54368514Y-77585000D01*
X54110595Y-77636304D01*
X53867641Y-77736939D01*
X53648987Y-77883038D01*
X53463038Y-78068987D01*
X53316939Y-78287641D01*
X53216304Y-78530595D01*
X53170393Y-78761400D01*
X52387247Y-78761400D01*
X52435000Y-78521335D01*
X52435000Y-78238665D01*
X52379853Y-77961426D01*
X52271680Y-77700273D01*
X52114637Y-77465241D01*
X51914759Y-77265363D01*
X51760000Y-77161957D01*
X51760000Y-74718043D01*
X51914759Y-74614637D01*
X52114637Y-74414759D01*
X52218043Y-74260000D01*
X52342667Y-74260000D01*
X52380000Y-74263677D01*
G37*
%TD.AperFunction*%
D19*
X49885363Y-74414759D02*
X50085241Y-74614637D01*
X50240001Y-74718044D01*
X50240000Y-77161956D01*
X50085241Y-77265363D01*
X49885363Y-77465241D01*
X49728320Y-77700273D01*
X49620147Y-77961426D01*
X49565000Y-78238665D01*
X49565000Y-78521335D01*
X49612753Y-78761400D01*
X48115300Y-78761400D01*
X48115300Y-74886591D01*
X48358665Y-74935000D01*
X48641335Y-74935000D01*
X48918574Y-74879853D01*
X49179727Y-74771680D01*
X49414759Y-74614637D01*
X49614637Y-74414759D01*
X49750000Y-74212173D01*
X49885363Y-74414759D01*
%TA.AperFunction,Conductor*%
D20*
G36*
X49885363Y-74414759D02*
G01*
X50085241Y-74614637D01*
X50240001Y-74718044D01*
X50240000Y-77161956D01*
X50085241Y-77265363D01*
X49885363Y-77465241D01*
X49728320Y-77700273D01*
X49620147Y-77961426D01*
X49565000Y-78238665D01*
X49565000Y-78521335D01*
X49612753Y-78761400D01*
X48115300Y-78761400D01*
X48115300Y-74886591D01*
X48358665Y-74935000D01*
X48641335Y-74935000D01*
X48918574Y-74879853D01*
X49179727Y-74771680D01*
X49414759Y-74614637D01*
X49614637Y-74414759D01*
X49750000Y-74212173D01*
X49885363Y-74414759D01*
G37*
%TD.AperFunction*%
D19*
X60385363Y-52914759D02*
X60585241Y-53114637D01*
X60787827Y-53250000D01*
X60585241Y-53385363D01*
X60385363Y-53585241D01*
X60281957Y-53740000D01*
X57718043Y-53740000D01*
X57614637Y-53585241D01*
X57414759Y-53385363D01*
X57212173Y-53250000D01*
X57414759Y-53114637D01*
X57614637Y-52914759D01*
X57718043Y-52760000D01*
X60281957Y-52760000D01*
X60385363Y-52914759D01*
%TA.AperFunction,Conductor*%
D20*
G36*
X60385363Y-52914759D02*
G01*
X60585241Y-53114637D01*
X60787827Y-53250000D01*
X60585241Y-53385363D01*
X60385363Y-53585241D01*
X60281957Y-53740000D01*
X57718043Y-53740000D01*
X57614637Y-53585241D01*
X57414759Y-53385363D01*
X57212173Y-53250000D01*
X57414759Y-53114637D01*
X57614637Y-52914759D01*
X57718043Y-52760000D01*
X60281957Y-52760000D01*
X60385363Y-52914759D01*
G37*
%TD.AperFunction*%
D19*
X55385363Y-52914759D02*
X55585241Y-53114637D01*
X55787827Y-53250000D01*
X55585241Y-53385363D01*
X55385363Y-53585241D01*
X55281957Y-53740000D01*
X52718043Y-53740000D01*
X52614637Y-53585241D01*
X52414759Y-53385363D01*
X52212173Y-53250000D01*
X52414759Y-53114637D01*
X52614637Y-52914759D01*
X52718043Y-52760000D01*
X55281957Y-52760000D01*
X55385363Y-52914759D01*
%TA.AperFunction,Conductor*%
D20*
G36*
X55385363Y-52914759D02*
G01*
X55585241Y-53114637D01*
X55787827Y-53250000D01*
X55585241Y-53385363D01*
X55385363Y-53585241D01*
X55281957Y-53740000D01*
X52718043Y-53740000D01*
X52614637Y-53585241D01*
X52414759Y-53385363D01*
X52212173Y-53250000D01*
X52414759Y-53114637D01*
X52614637Y-52914759D01*
X52718043Y-52760000D01*
X55281957Y-52760000D01*
X55385363Y-52914759D01*
G37*
%TD.AperFunction*%
%TD*%
M02*
