M48
; DRILL file {KiCad 5.1.10} date Fri Jun 18 11:38:30 2021
; FORMAT={-:-/ absolute / inch / decimal}
; #@! TF.CreationDate,2021-06-18T11:38:30+02:00
; #@! TF.GenerationSoftware,Kicad,Pcbnew,5.1.10
; #@! TF.FileFunction,Plated,1,2,PTH
FMAT,2
INCH
T1C0.0157
T2C0.0276
T3C0.0315
T4C0.0866
%
G90
G05
T1
X1.9488Y-2.9528
X2.1654Y-2.9528
X2.2638Y-3.2283
X2.4213Y-3.1693
T2
X1.7323Y-2.5165
X1.7323Y-2.7165
X1.8898Y-2.5197
X1.8898Y-2.7197
X1.9291Y-3.6024
X1.9291Y-4.252
X2.126Y-2.815
X2.1291Y-3.6024
X2.1291Y-4.252
X2.1425Y-2.5197
X2.3197Y-4.4291
X2.3228Y-4.252
X2.326Y-2.815
X2.3425Y-2.5197
X2.5197Y-4.4291
X2.5228Y-4.252
X2.5591Y-2.5197
X2.5591Y-2.7197
X2.7165Y-2.5197
X2.7165Y-2.7197
T3
X1.7866Y-3.0858
X1.7866Y-3.1858
X1.7866Y-3.2858
X1.7866Y-3.3858
X1.826Y-3.8583
X1.8307Y-2.0472
X1.8307Y-2.1457
X2.0276Y-2.0472
X2.0276Y-2.1457
X2.0276Y-4.4291
X2.0622Y-2.6772
X2.0866Y-3.0858
X2.0866Y-3.1858
X2.0866Y-3.2858
X2.0866Y-3.3858
X2.126Y-3.8583
X2.126Y-4.4291
X2.2244Y-2.0472
X2.2244Y-2.1457
X2.3228Y-3.8583
X2.3575Y-3.0858
X2.3575Y-3.1858
X2.3575Y-3.2858
X2.3575Y-3.3858
X2.3622Y-2.6772
X2.3819Y-4.0551
X2.4016Y-3.6024
X2.4213Y-2.0472
X2.4213Y-2.1457
X2.4803Y-4.0551
X2.5Y-3.6024
X2.6181Y-2.0472
X2.6181Y-2.1457
X2.6228Y-3.8583
X2.6575Y-3.0858
X2.6575Y-3.1858
X2.6575Y-3.2858
X2.6575Y-3.3858
T4
X1.6732Y-1.4764
X1.6732Y-4.9213
X2.0276Y-1.5748
X2.1063Y-4.685
X2.2244Y-1.5748
X2.3425Y-4.685
X2.4213Y-1.5748
X2.7559Y-1.4764
X2.7559Y-4.9213
T0
M30
