M48
; DRILL file {KiCad 5.1.10} date Tue Jun 22 19:33:47 2021
; FORMAT={-:-/ absolute / inch / decimal}
; #@! TF.CreationDate,2021-06-22T19:33:47+02:00
; #@! TF.GenerationSoftware,Kicad,Pcbnew,5.1.10
; #@! TF.FileFunction,Plated,1,2,PTH
FMAT,2
INCH
T1C0.0157
T2C0.0276
T3C0.0315
T4C0.0866
%
G90
G05
T1
X1.8307Y-3.189
X1.9685Y-2.9921
X2.126Y-2.1063
X2.2244Y-2.9724
X2.3228Y-2.1063
X2.5787Y-3.189
X2.7362Y-3.5039
T2
X1.7323Y-2.5165
X1.7323Y-2.7165
X1.7488Y-3.5827
X1.8307Y-4.1339
X1.8307Y-4.3339
X1.8898Y-2.5197
X1.8898Y-2.7197
X1.9457Y-4.252
X1.9488Y-3.5827
X2.1228Y-2.5197
X2.1457Y-3.1071
X2.1457Y-3.3071
X2.1457Y-4.252
X2.2638Y-4.252
X2.3031Y-3.1102
X2.3031Y-3.3102
X2.3228Y-2.5197
X2.4638Y-4.252
X2.4803Y-3.5827
X2.5591Y-2.5197
X2.5591Y-2.7197
X2.6181Y-4.1142
X2.6181Y-4.3142
X2.6803Y-3.5827
X2.7165Y-2.5197
X2.7165Y-2.7197
T3
X1.7079Y-3.0858
X1.7079Y-3.1858
X1.7079Y-3.2858
X1.7079Y-3.3858
X1.826Y-3.8583
X1.8307Y-2.0472
X1.8307Y-2.1457
X1.8307Y-4.0157
X1.8307Y-4.4488
X1.9094Y-2.8937
X1.9291Y-4.4488
X2.0079Y-2.8937
X2.0079Y-3.0858
X2.0079Y-3.1858
X2.0079Y-3.2858
X2.0079Y-3.3858
X2.0276Y-2.0472
X2.0276Y-2.1457
X2.0622Y-2.6772
X2.126Y-3.8583
X2.1307Y-4.0157
X2.1654Y-4.4488
X2.2244Y-2.0472
X2.2244Y-2.1457
X2.2638Y-4.4488
X2.3228Y-3.8583
X2.3228Y-4.0157
X2.3622Y-2.6772
X2.4213Y-2.0472
X2.4213Y-2.1457
X2.4213Y-2.8937
X2.4409Y-3.0858
X2.4409Y-3.1858
X2.4409Y-3.2858
X2.4409Y-3.3858
X2.5Y-4.4488
X2.5197Y-2.8937
X2.5984Y-4.4488
X2.6181Y-2.0472
X2.6181Y-2.1457
X2.6228Y-3.8583
X2.6228Y-4.0157
X2.7409Y-3.0858
X2.7409Y-3.1858
X2.7409Y-3.2858
X2.7409Y-3.3858
T4
X1.6732Y-1.4764
X1.6732Y-4.9213
X1.811Y-4.685
X2.0276Y-1.5748
X2.0472Y-4.685
X2.2244Y-1.5748
X2.3228Y-4.685
X2.4213Y-1.5748
X2.5984Y-4.685
X2.7559Y-1.4764
X2.7559Y-4.9213
T0
M30
