%TF.GenerationSoftware,KiCad,Pcbnew,5.1.10*%
%TF.CreationDate,2021-06-26T02:26:41+02:00*%
%TF.ProjectId,double-gain,646f7562-6c65-42d6-9761-696e2e6b6963,rev?*%
%TF.SameCoordinates,Original*%
%TF.FileFunction,Other,Fab,Top*%
%FSLAX46Y46*%
G04 Gerber Fmt 4.6, Leading zero omitted, Abs format (unit mm)*
G04 Created by KiCad (PCBNEW 5.1.10) date 2021-06-26 02:26:41*
%MOMM*%
%LPD*%
G01*
G04 APERTURE LIST*
%ADD10C,0.100000*%
%ADD11C,0.150000*%
%ADD12C,0.120000*%
%ADD13C,0.108000*%
G04 APERTURE END LIST*
D10*
%TO.C,U2*%
X67985000Y-87270000D02*
X62635000Y-87270000D01*
X62635000Y-87270000D02*
X62635000Y-77110000D01*
X62635000Y-77110000D02*
X68985000Y-77110000D01*
X68985000Y-77110000D02*
X68985000Y-86270000D01*
X68985000Y-86270000D02*
X67985000Y-87270000D01*
X70890000Y-87330000D02*
X70890000Y-77050000D01*
X70890000Y-77050000D02*
X60730000Y-77050000D01*
X60730000Y-77050000D02*
X60730000Y-87330000D01*
X60730000Y-87330000D02*
X70890000Y-87330000D01*
%TO.C,C1*%
X60250000Y-55750000D02*
X62750000Y-55750000D01*
X62750000Y-55750000D02*
X62750000Y-50750000D01*
X62750000Y-50750000D02*
X60250000Y-50750000D01*
X60250000Y-50750000D02*
X60250000Y-55750000D01*
%TO.C,C2*%
X55250000Y-50750000D02*
X55250000Y-55750000D01*
X57750000Y-50750000D02*
X55250000Y-50750000D01*
X57750000Y-55750000D02*
X57750000Y-50750000D01*
X55250000Y-55750000D02*
X57750000Y-55750000D01*
%TO.C,C3*%
X50250000Y-55750000D02*
X52750000Y-55750000D01*
X52750000Y-55750000D02*
X52750000Y-50750000D01*
X52750000Y-50750000D02*
X50250000Y-50750000D01*
X50250000Y-50750000D02*
X50250000Y-55750000D01*
%TO.C,C4*%
X45250000Y-50750000D02*
X45250000Y-55750000D01*
X47750000Y-50750000D02*
X45250000Y-50750000D01*
X47750000Y-55750000D02*
X47750000Y-50750000D01*
X45250000Y-55750000D02*
X47750000Y-55750000D01*
%TO.C,C6*%
X47250000Y-74750000D02*
X52250000Y-74750000D01*
X47250000Y-72250000D02*
X47250000Y-74750000D01*
X52250000Y-72250000D02*
X47250000Y-72250000D01*
X52250000Y-74750000D02*
X52250000Y-72250000D01*
%TO.C,C7*%
X65250000Y-55750000D02*
X67750000Y-55750000D01*
X67750000Y-55750000D02*
X67750000Y-50750000D01*
X67750000Y-50750000D02*
X65250000Y-50750000D01*
X65250000Y-50750000D02*
X65250000Y-55750000D01*
%TO.C,C8*%
X53750000Y-114250000D02*
X58750000Y-114250000D01*
X53750000Y-111750000D02*
X53750000Y-114250000D01*
X58750000Y-111750000D02*
X53750000Y-111750000D01*
X58750000Y-114250000D02*
X58750000Y-111750000D01*
%TO.C,D1*%
X58190000Y-69000000D02*
X58190000Y-67000000D01*
X58190000Y-67000000D02*
X54190000Y-67000000D01*
X54190000Y-67000000D02*
X54190000Y-69000000D01*
X54190000Y-69000000D02*
X58190000Y-69000000D01*
X60000000Y-68000000D02*
X58190000Y-68000000D01*
X52380000Y-68000000D02*
X54190000Y-68000000D01*
X57590000Y-69000000D02*
X57590000Y-67000000D01*
X57490000Y-69000000D02*
X57490000Y-67000000D01*
X57690000Y-69000000D02*
X57690000Y-67000000D01*
%TO.C,D2*%
X48690000Y-97000000D02*
X48690000Y-99000000D01*
X48890000Y-97000000D02*
X48890000Y-99000000D01*
X48790000Y-97000000D02*
X48790000Y-99000000D01*
X54000000Y-98000000D02*
X52190000Y-98000000D01*
X46380000Y-98000000D02*
X48190000Y-98000000D01*
X52190000Y-97000000D02*
X48190000Y-97000000D01*
X52190000Y-99000000D02*
X52190000Y-97000000D01*
X48190000Y-99000000D02*
X52190000Y-99000000D01*
X48190000Y-97000000D02*
X48190000Y-99000000D01*
%TO.C,D3*%
X61310000Y-97000000D02*
X61310000Y-99000000D01*
X61510000Y-97000000D02*
X61510000Y-99000000D01*
X61410000Y-97000000D02*
X61410000Y-99000000D01*
X66620000Y-98000000D02*
X64810000Y-98000000D01*
X59000000Y-98000000D02*
X60810000Y-98000000D01*
X64810000Y-97000000D02*
X60810000Y-97000000D01*
X64810000Y-99000000D02*
X64810000Y-97000000D01*
X60810000Y-99000000D02*
X64810000Y-99000000D01*
X60810000Y-97000000D02*
X60810000Y-99000000D01*
%TO.C,R1*%
X65800000Y-64740000D02*
X64200000Y-64740000D01*
X64200000Y-64740000D02*
X64200000Y-68340000D01*
X64200000Y-68340000D02*
X65800000Y-68340000D01*
X65800000Y-68340000D02*
X65800000Y-64740000D01*
X65000000Y-64000000D02*
X65000000Y-64740000D01*
X65000000Y-69080000D02*
X65000000Y-68340000D01*
%TO.C,R2*%
X55300000Y-79660000D02*
X53700000Y-79660000D01*
X53700000Y-79660000D02*
X53700000Y-83260000D01*
X53700000Y-83260000D02*
X55300000Y-83260000D01*
X55300000Y-83260000D02*
X55300000Y-79660000D01*
X54500000Y-78920000D02*
X54500000Y-79660000D01*
X54500000Y-84000000D02*
X54500000Y-83260000D01*
%TO.C,R3*%
X44000000Y-63920000D02*
X44000000Y-64660000D01*
X44000000Y-69000000D02*
X44000000Y-68260000D01*
X43200000Y-64660000D02*
X43200000Y-68260000D01*
X44800000Y-64660000D02*
X43200000Y-64660000D01*
X44800000Y-68260000D02*
X44800000Y-64660000D01*
X43200000Y-68260000D02*
X44800000Y-68260000D01*
%TO.C,R4*%
X58260000Y-64800000D02*
X58260000Y-63200000D01*
X58260000Y-63200000D02*
X54660000Y-63200000D01*
X54660000Y-63200000D02*
X54660000Y-64800000D01*
X54660000Y-64800000D02*
X58260000Y-64800000D01*
X59000000Y-64000000D02*
X58260000Y-64000000D01*
X53920000Y-64000000D02*
X54660000Y-64000000D01*
%TO.C,R5*%
X48000000Y-69080000D02*
X48000000Y-68340000D01*
X48000000Y-64000000D02*
X48000000Y-64740000D01*
X48800000Y-68340000D02*
X48800000Y-64740000D01*
X47200000Y-68340000D02*
X48800000Y-68340000D01*
X47200000Y-64740000D02*
X47200000Y-68340000D01*
X48800000Y-64740000D02*
X47200000Y-64740000D01*
%TO.C,R6*%
X50160000Y-107200000D02*
X50160000Y-108800000D01*
X50160000Y-108800000D02*
X53760000Y-108800000D01*
X53760000Y-108800000D02*
X53760000Y-107200000D01*
X53760000Y-107200000D02*
X50160000Y-107200000D01*
X49420000Y-108000000D02*
X50160000Y-108000000D01*
X54500000Y-108000000D02*
X53760000Y-108000000D01*
%TO.C,R7*%
X47300000Y-105740000D02*
X45700000Y-105740000D01*
X45700000Y-105740000D02*
X45700000Y-109340000D01*
X45700000Y-109340000D02*
X47300000Y-109340000D01*
X47300000Y-109340000D02*
X47300000Y-105740000D01*
X46500000Y-105000000D02*
X46500000Y-105740000D01*
X46500000Y-110080000D02*
X46500000Y-109340000D01*
%TO.C,R8*%
X69000000Y-69080000D02*
X69000000Y-68340000D01*
X69000000Y-64000000D02*
X69000000Y-64740000D01*
X69800000Y-68340000D02*
X69800000Y-64740000D01*
X68200000Y-68340000D02*
X69800000Y-68340000D01*
X68200000Y-64740000D02*
X68200000Y-68340000D01*
X69800000Y-64740000D02*
X68200000Y-64740000D01*
%TO.C,R9*%
X49500000Y-91000000D02*
X48760000Y-91000000D01*
X44420000Y-91000000D02*
X45160000Y-91000000D01*
X48760000Y-90200000D02*
X45160000Y-90200000D01*
X48760000Y-91800000D02*
X48760000Y-90200000D01*
X45160000Y-91800000D02*
X48760000Y-91800000D01*
X45160000Y-90200000D02*
X45160000Y-91800000D01*
%TO.C,R10*%
X57500000Y-108000000D02*
X58240000Y-108000000D01*
X62580000Y-108000000D02*
X61840000Y-108000000D01*
X58240000Y-108800000D02*
X61840000Y-108800000D01*
X58240000Y-107200000D02*
X58240000Y-108800000D01*
X61840000Y-107200000D02*
X58240000Y-107200000D01*
X61840000Y-108800000D02*
X61840000Y-107200000D01*
%TO.C,U1*%
X42110000Y-87330000D02*
X52270000Y-87330000D01*
X42110000Y-77050000D02*
X42110000Y-87330000D01*
X52270000Y-77050000D02*
X42110000Y-77050000D01*
X52270000Y-87330000D02*
X52270000Y-77050000D01*
X50365000Y-86270000D02*
X49365000Y-87270000D01*
X50365000Y-77110000D02*
X50365000Y-86270000D01*
X44015000Y-77110000D02*
X50365000Y-77110000D01*
X44015000Y-87270000D02*
X44015000Y-77110000D01*
X49365000Y-87270000D02*
X44015000Y-87270000D01*
%TO.C,C10*%
X65250000Y-72250000D02*
X60250000Y-72250000D01*
X65250000Y-74750000D02*
X65250000Y-72250000D01*
X60250000Y-74750000D02*
X65250000Y-74750000D01*
X60250000Y-72250000D02*
X60250000Y-74750000D01*
%TO.C,D4*%
X48310000Y-101000000D02*
X48310000Y-103000000D01*
X48310000Y-103000000D02*
X52310000Y-103000000D01*
X52310000Y-103000000D02*
X52310000Y-101000000D01*
X52310000Y-101000000D02*
X48310000Y-101000000D01*
X46500000Y-102000000D02*
X48310000Y-102000000D01*
X54120000Y-102000000D02*
X52310000Y-102000000D01*
X48910000Y-101000000D02*
X48910000Y-103000000D01*
X49010000Y-101000000D02*
X49010000Y-103000000D01*
X48810000Y-101000000D02*
X48810000Y-103000000D01*
%TO.C,D5*%
X61310000Y-101000000D02*
X61310000Y-103000000D01*
X61510000Y-101000000D02*
X61510000Y-103000000D01*
X61410000Y-101000000D02*
X61410000Y-103000000D01*
X66620000Y-102000000D02*
X64810000Y-102000000D01*
X59000000Y-102000000D02*
X60810000Y-102000000D01*
X64810000Y-101000000D02*
X60810000Y-101000000D01*
X64810000Y-103000000D02*
X64810000Y-101000000D01*
X60810000Y-103000000D02*
X64810000Y-103000000D01*
X60810000Y-101000000D02*
X60810000Y-103000000D01*
%TO.C,R11*%
X66500000Y-109580000D02*
X66500000Y-108840000D01*
X66500000Y-104500000D02*
X66500000Y-105240000D01*
X67300000Y-108840000D02*
X67300000Y-105240000D01*
X65700000Y-108840000D02*
X67300000Y-108840000D01*
X65700000Y-105240000D02*
X65700000Y-108840000D01*
X67300000Y-105240000D02*
X65700000Y-105240000D01*
%TO.C,R12*%
X68080000Y-91000000D02*
X67340000Y-91000000D01*
X63000000Y-91000000D02*
X63740000Y-91000000D01*
X67340000Y-90200000D02*
X63740000Y-90200000D01*
X67340000Y-91800000D02*
X67340000Y-90200000D01*
X63740000Y-91800000D02*
X67340000Y-91800000D01*
X63740000Y-90200000D02*
X63740000Y-91800000D01*
%TO.C,R13*%
X59300000Y-79740000D02*
X57700000Y-79740000D01*
X57700000Y-79740000D02*
X57700000Y-83340000D01*
X57700000Y-83340000D02*
X59300000Y-83340000D01*
X59300000Y-83340000D02*
X59300000Y-79740000D01*
X58500000Y-79000000D02*
X58500000Y-79740000D01*
X58500000Y-84080000D02*
X58500000Y-83340000D01*
%TD*%
%TO.C,U2*%
D11*
X63167142Y-76502380D02*
X63167142Y-75502380D01*
X63738571Y-76502380D01*
X63738571Y-75502380D01*
X64214761Y-75978571D02*
X64548095Y-75978571D01*
X64690952Y-76502380D02*
X64214761Y-76502380D01*
X64214761Y-75502380D01*
X64690952Y-75502380D01*
X65595714Y-75502380D02*
X65119523Y-75502380D01*
X65071904Y-75978571D01*
X65119523Y-75930952D01*
X65214761Y-75883333D01*
X65452857Y-75883333D01*
X65548095Y-75930952D01*
X65595714Y-75978571D01*
X65643333Y-76073809D01*
X65643333Y-76311904D01*
X65595714Y-76407142D01*
X65548095Y-76454761D01*
X65452857Y-76502380D01*
X65214761Y-76502380D01*
X65119523Y-76454761D01*
X65071904Y-76407142D01*
X66548095Y-75502380D02*
X66071904Y-75502380D01*
X66024285Y-75978571D01*
X66071904Y-75930952D01*
X66167142Y-75883333D01*
X66405238Y-75883333D01*
X66500476Y-75930952D01*
X66548095Y-75978571D01*
X66595714Y-76073809D01*
X66595714Y-76311904D01*
X66548095Y-76407142D01*
X66500476Y-76454761D01*
X66405238Y-76502380D01*
X66167142Y-76502380D01*
X66071904Y-76454761D01*
X66024285Y-76407142D01*
X66929047Y-75502380D02*
X67548095Y-75502380D01*
X67214761Y-75883333D01*
X67357619Y-75883333D01*
X67452857Y-75930952D01*
X67500476Y-75978571D01*
X67548095Y-76073809D01*
X67548095Y-76311904D01*
X67500476Y-76407142D01*
X67452857Y-76454761D01*
X67357619Y-76502380D01*
X67071904Y-76502380D01*
X66976666Y-76454761D01*
X66929047Y-76407142D01*
X68405238Y-75835714D02*
X68405238Y-76502380D01*
X68167142Y-75454761D02*
X67929047Y-76169047D01*
X68548095Y-76169047D01*
X65048095Y-81642380D02*
X65048095Y-82451904D01*
X65095714Y-82547142D01*
X65143333Y-82594761D01*
X65238571Y-82642380D01*
X65429047Y-82642380D01*
X65524285Y-82594761D01*
X65571904Y-82547142D01*
X65619523Y-82451904D01*
X65619523Y-81642380D01*
X66048095Y-81737619D02*
X66095714Y-81690000D01*
X66190952Y-81642380D01*
X66429047Y-81642380D01*
X66524285Y-81690000D01*
X66571904Y-81737619D01*
X66619523Y-81832857D01*
X66619523Y-81928095D01*
X66571904Y-82070952D01*
X66000476Y-82642380D01*
X66619523Y-82642380D01*
%TO.C,C1*%
X63452380Y-54892857D02*
X63452380Y-54797619D01*
X63500000Y-54702380D01*
X63547619Y-54654761D01*
X63642857Y-54607142D01*
X63833333Y-54559523D01*
X64071428Y-54559523D01*
X64261904Y-54607142D01*
X64357142Y-54654761D01*
X64404761Y-54702380D01*
X64452380Y-54797619D01*
X64452380Y-54892857D01*
X64404761Y-54988095D01*
X64357142Y-55035714D01*
X64261904Y-55083333D01*
X64071428Y-55130952D01*
X63833333Y-55130952D01*
X63642857Y-55083333D01*
X63547619Y-55035714D01*
X63500000Y-54988095D01*
X63452380Y-54892857D01*
X64357142Y-54130952D02*
X64404761Y-54083333D01*
X64452380Y-54130952D01*
X64404761Y-54178571D01*
X64357142Y-54130952D01*
X64452380Y-54130952D01*
X64452380Y-53130952D02*
X64452380Y-53702380D01*
X64452380Y-53416666D02*
X63452380Y-53416666D01*
X63595238Y-53511904D01*
X63690476Y-53607142D01*
X63738095Y-53702380D01*
X63785714Y-52273809D02*
X64452380Y-52273809D01*
X63785714Y-52702380D02*
X64309523Y-52702380D01*
X64404761Y-52654761D01*
X64452380Y-52559523D01*
X64452380Y-52416666D01*
X64404761Y-52321428D01*
X64357142Y-52273809D01*
X63928571Y-51464285D02*
X63928571Y-51797619D01*
X64452380Y-51797619D02*
X63452380Y-51797619D01*
X63452380Y-51321428D01*
X61857142Y-53416666D02*
X61904761Y-53464285D01*
X61952380Y-53607142D01*
X61952380Y-53702380D01*
X61904761Y-53845238D01*
X61809523Y-53940476D01*
X61714285Y-53988095D01*
X61523809Y-54035714D01*
X61380952Y-54035714D01*
X61190476Y-53988095D01*
X61095238Y-53940476D01*
X61000000Y-53845238D01*
X60952380Y-53702380D01*
X60952380Y-53607142D01*
X61000000Y-53464285D01*
X61047619Y-53416666D01*
X61952380Y-52464285D02*
X61952380Y-53035714D01*
X61952380Y-52750000D02*
X60952380Y-52750000D01*
X61095238Y-52845238D01*
X61190476Y-52940476D01*
X61238095Y-53035714D01*
%TO.C,C2*%
X59452380Y-54321428D02*
X59452380Y-54892857D01*
X59452380Y-54607142D02*
X58452380Y-54607142D01*
X58595238Y-54702380D01*
X58690476Y-54797619D01*
X58738095Y-54892857D01*
X58452380Y-53702380D02*
X58452380Y-53607142D01*
X58500000Y-53511904D01*
X58547619Y-53464285D01*
X58642857Y-53416666D01*
X58833333Y-53369047D01*
X59071428Y-53369047D01*
X59261904Y-53416666D01*
X59357142Y-53464285D01*
X59404761Y-53511904D01*
X59452380Y-53607142D01*
X59452380Y-53702380D01*
X59404761Y-53797619D01*
X59357142Y-53845238D01*
X59261904Y-53892857D01*
X59071428Y-53940476D01*
X58833333Y-53940476D01*
X58642857Y-53892857D01*
X58547619Y-53845238D01*
X58500000Y-53797619D01*
X58452380Y-53702380D01*
X58785714Y-52511904D02*
X59452380Y-52511904D01*
X58785714Y-52940476D02*
X59309523Y-52940476D01*
X59404761Y-52892857D01*
X59452380Y-52797619D01*
X59452380Y-52654761D01*
X59404761Y-52559523D01*
X59357142Y-52511904D01*
X58928571Y-51702380D02*
X58928571Y-52035714D01*
X59452380Y-52035714D02*
X58452380Y-52035714D01*
X58452380Y-51559523D01*
X56857142Y-53416666D02*
X56904761Y-53464285D01*
X56952380Y-53607142D01*
X56952380Y-53702380D01*
X56904761Y-53845238D01*
X56809523Y-53940476D01*
X56714285Y-53988095D01*
X56523809Y-54035714D01*
X56380952Y-54035714D01*
X56190476Y-53988095D01*
X56095238Y-53940476D01*
X56000000Y-53845238D01*
X55952380Y-53702380D01*
X55952380Y-53607142D01*
X56000000Y-53464285D01*
X56047619Y-53416666D01*
X56047619Y-53035714D02*
X56000000Y-52988095D01*
X55952380Y-52892857D01*
X55952380Y-52654761D01*
X56000000Y-52559523D01*
X56047619Y-52511904D01*
X56142857Y-52464285D01*
X56238095Y-52464285D01*
X56380952Y-52511904D01*
X56952380Y-53083333D01*
X56952380Y-52464285D01*
%TO.C,C3*%
X53452380Y-54940476D02*
X53452380Y-54321428D01*
X53833333Y-54654761D01*
X53833333Y-54511904D01*
X53880952Y-54416666D01*
X53928571Y-54369047D01*
X54023809Y-54321428D01*
X54261904Y-54321428D01*
X54357142Y-54369047D01*
X54404761Y-54416666D01*
X54452380Y-54511904D01*
X54452380Y-54797619D01*
X54404761Y-54892857D01*
X54357142Y-54940476D01*
X53452380Y-53988095D02*
X53452380Y-53369047D01*
X53833333Y-53702380D01*
X53833333Y-53559523D01*
X53880952Y-53464285D01*
X53928571Y-53416666D01*
X54023809Y-53369047D01*
X54261904Y-53369047D01*
X54357142Y-53416666D01*
X54404761Y-53464285D01*
X54452380Y-53559523D01*
X54452380Y-53845238D01*
X54404761Y-53940476D01*
X54357142Y-53988095D01*
X53785714Y-52511904D02*
X54452380Y-52511904D01*
X53785714Y-52940476D02*
X54309523Y-52940476D01*
X54404761Y-52892857D01*
X54452380Y-52797619D01*
X54452380Y-52654761D01*
X54404761Y-52559523D01*
X54357142Y-52511904D01*
X53928571Y-51702380D02*
X53928571Y-52035714D01*
X54452380Y-52035714D02*
X53452380Y-52035714D01*
X53452380Y-51559523D01*
X51857142Y-53416666D02*
X51904761Y-53464285D01*
X51952380Y-53607142D01*
X51952380Y-53702380D01*
X51904761Y-53845238D01*
X51809523Y-53940476D01*
X51714285Y-53988095D01*
X51523809Y-54035714D01*
X51380952Y-54035714D01*
X51190476Y-53988095D01*
X51095238Y-53940476D01*
X51000000Y-53845238D01*
X50952380Y-53702380D01*
X50952380Y-53607142D01*
X51000000Y-53464285D01*
X51047619Y-53416666D01*
X50952380Y-53083333D02*
X50952380Y-52464285D01*
X51333333Y-52797619D01*
X51333333Y-52654761D01*
X51380952Y-52559523D01*
X51428571Y-52511904D01*
X51523809Y-52464285D01*
X51761904Y-52464285D01*
X51857142Y-52511904D01*
X51904761Y-52559523D01*
X51952380Y-52654761D01*
X51952380Y-52940476D01*
X51904761Y-53035714D01*
X51857142Y-53083333D01*
%TO.C,C4*%
X49452380Y-54321428D02*
X49452380Y-54892857D01*
X49452380Y-54607142D02*
X48452380Y-54607142D01*
X48595238Y-54702380D01*
X48690476Y-54797619D01*
X48738095Y-54892857D01*
X48452380Y-53702380D02*
X48452380Y-53607142D01*
X48500000Y-53511904D01*
X48547619Y-53464285D01*
X48642857Y-53416666D01*
X48833333Y-53369047D01*
X49071428Y-53369047D01*
X49261904Y-53416666D01*
X49357142Y-53464285D01*
X49404761Y-53511904D01*
X49452380Y-53607142D01*
X49452380Y-53702380D01*
X49404761Y-53797619D01*
X49357142Y-53845238D01*
X49261904Y-53892857D01*
X49071428Y-53940476D01*
X48833333Y-53940476D01*
X48642857Y-53892857D01*
X48547619Y-53845238D01*
X48500000Y-53797619D01*
X48452380Y-53702380D01*
X48785714Y-52511904D02*
X49452380Y-52511904D01*
X48785714Y-52940476D02*
X49309523Y-52940476D01*
X49404761Y-52892857D01*
X49452380Y-52797619D01*
X49452380Y-52654761D01*
X49404761Y-52559523D01*
X49357142Y-52511904D01*
X48928571Y-51702380D02*
X48928571Y-52035714D01*
X49452380Y-52035714D02*
X48452380Y-52035714D01*
X48452380Y-51559523D01*
X46857142Y-53416666D02*
X46904761Y-53464285D01*
X46952380Y-53607142D01*
X46952380Y-53702380D01*
X46904761Y-53845238D01*
X46809523Y-53940476D01*
X46714285Y-53988095D01*
X46523809Y-54035714D01*
X46380952Y-54035714D01*
X46190476Y-53988095D01*
X46095238Y-53940476D01*
X46000000Y-53845238D01*
X45952380Y-53702380D01*
X45952380Y-53607142D01*
X46000000Y-53464285D01*
X46047619Y-53416666D01*
X46285714Y-52559523D02*
X46952380Y-52559523D01*
X45904761Y-52797619D02*
X46619047Y-53035714D01*
X46619047Y-52416666D01*
%TO.C,C6*%
X48583333Y-70785714D02*
X48583333Y-71452380D01*
X48345238Y-70404761D02*
X48107142Y-71119047D01*
X48726190Y-71119047D01*
X49011904Y-70452380D02*
X49678571Y-70452380D01*
X49250000Y-71452380D01*
X50488095Y-70785714D02*
X50488095Y-71452380D01*
X50059523Y-70785714D02*
X50059523Y-71309523D01*
X50107142Y-71404761D01*
X50202380Y-71452380D01*
X50345238Y-71452380D01*
X50440476Y-71404761D01*
X50488095Y-71357142D01*
X51297619Y-70928571D02*
X50964285Y-70928571D01*
X50964285Y-71452380D02*
X50964285Y-70452380D01*
X51440476Y-70452380D01*
X49583333Y-73857142D02*
X49535714Y-73904761D01*
X49392857Y-73952380D01*
X49297619Y-73952380D01*
X49154761Y-73904761D01*
X49059523Y-73809523D01*
X49011904Y-73714285D01*
X48964285Y-73523809D01*
X48964285Y-73380952D01*
X49011904Y-73190476D01*
X49059523Y-73095238D01*
X49154761Y-73000000D01*
X49297619Y-72952380D01*
X49392857Y-72952380D01*
X49535714Y-73000000D01*
X49583333Y-73047619D01*
X50440476Y-72952380D02*
X50250000Y-72952380D01*
X50154761Y-73000000D01*
X50107142Y-73047619D01*
X50011904Y-73190476D01*
X49964285Y-73380952D01*
X49964285Y-73761904D01*
X50011904Y-73857142D01*
X50059523Y-73904761D01*
X50154761Y-73952380D01*
X50345238Y-73952380D01*
X50440476Y-73904761D01*
X50488095Y-73857142D01*
X50535714Y-73761904D01*
X50535714Y-73523809D01*
X50488095Y-73428571D01*
X50440476Y-73380952D01*
X50345238Y-73333333D01*
X50154761Y-73333333D01*
X50059523Y-73380952D01*
X50011904Y-73428571D01*
X49964285Y-73523809D01*
%TO.C,C7*%
X69452380Y-54321428D02*
X69452380Y-54892857D01*
X69452380Y-54607142D02*
X68452380Y-54607142D01*
X68595238Y-54702380D01*
X68690476Y-54797619D01*
X68738095Y-54892857D01*
X68452380Y-53702380D02*
X68452380Y-53607142D01*
X68500000Y-53511904D01*
X68547619Y-53464285D01*
X68642857Y-53416666D01*
X68833333Y-53369047D01*
X69071428Y-53369047D01*
X69261904Y-53416666D01*
X69357142Y-53464285D01*
X69404761Y-53511904D01*
X69452380Y-53607142D01*
X69452380Y-53702380D01*
X69404761Y-53797619D01*
X69357142Y-53845238D01*
X69261904Y-53892857D01*
X69071428Y-53940476D01*
X68833333Y-53940476D01*
X68642857Y-53892857D01*
X68547619Y-53845238D01*
X68500000Y-53797619D01*
X68452380Y-53702380D01*
X68785714Y-52511904D02*
X69452380Y-52511904D01*
X68785714Y-52940476D02*
X69309523Y-52940476D01*
X69404761Y-52892857D01*
X69452380Y-52797619D01*
X69452380Y-52654761D01*
X69404761Y-52559523D01*
X69357142Y-52511904D01*
X68928571Y-51702380D02*
X68928571Y-52035714D01*
X69452380Y-52035714D02*
X68452380Y-52035714D01*
X68452380Y-51559523D01*
X66857142Y-53416666D02*
X66904761Y-53464285D01*
X66952380Y-53607142D01*
X66952380Y-53702380D01*
X66904761Y-53845238D01*
X66809523Y-53940476D01*
X66714285Y-53988095D01*
X66523809Y-54035714D01*
X66380952Y-54035714D01*
X66190476Y-53988095D01*
X66095238Y-53940476D01*
X66000000Y-53845238D01*
X65952380Y-53702380D01*
X65952380Y-53607142D01*
X66000000Y-53464285D01*
X66047619Y-53416666D01*
X65952380Y-53083333D02*
X65952380Y-52416666D01*
X66952380Y-52845238D01*
%TO.C,C8*%
X55178571Y-110952380D02*
X54607142Y-110952380D01*
X54892857Y-110952380D02*
X54892857Y-109952380D01*
X54797619Y-110095238D01*
X54702380Y-110190476D01*
X54607142Y-110238095D01*
X55797619Y-109952380D02*
X55892857Y-109952380D01*
X55988095Y-110000000D01*
X56035714Y-110047619D01*
X56083333Y-110142857D01*
X56130952Y-110333333D01*
X56130952Y-110571428D01*
X56083333Y-110761904D01*
X56035714Y-110857142D01*
X55988095Y-110904761D01*
X55892857Y-110952380D01*
X55797619Y-110952380D01*
X55702380Y-110904761D01*
X55654761Y-110857142D01*
X55607142Y-110761904D01*
X55559523Y-110571428D01*
X55559523Y-110333333D01*
X55607142Y-110142857D01*
X55654761Y-110047619D01*
X55702380Y-110000000D01*
X55797619Y-109952380D01*
X56988095Y-110285714D02*
X56988095Y-110952380D01*
X56559523Y-110285714D02*
X56559523Y-110809523D01*
X56607142Y-110904761D01*
X56702380Y-110952380D01*
X56845238Y-110952380D01*
X56940476Y-110904761D01*
X56988095Y-110857142D01*
X57797619Y-110428571D02*
X57464285Y-110428571D01*
X57464285Y-110952380D02*
X57464285Y-109952380D01*
X57940476Y-109952380D01*
X56083333Y-113357142D02*
X56035714Y-113404761D01*
X55892857Y-113452380D01*
X55797619Y-113452380D01*
X55654761Y-113404761D01*
X55559523Y-113309523D01*
X55511904Y-113214285D01*
X55464285Y-113023809D01*
X55464285Y-112880952D01*
X55511904Y-112690476D01*
X55559523Y-112595238D01*
X55654761Y-112500000D01*
X55797619Y-112452380D01*
X55892857Y-112452380D01*
X56035714Y-112500000D01*
X56083333Y-112547619D01*
X56654761Y-112880952D02*
X56559523Y-112833333D01*
X56511904Y-112785714D01*
X56464285Y-112690476D01*
X56464285Y-112642857D01*
X56511904Y-112547619D01*
X56559523Y-112500000D01*
X56654761Y-112452380D01*
X56845238Y-112452380D01*
X56940476Y-112500000D01*
X56988095Y-112547619D01*
X57035714Y-112642857D01*
X57035714Y-112690476D01*
X56988095Y-112785714D01*
X56940476Y-112833333D01*
X56845238Y-112880952D01*
X56654761Y-112880952D01*
X56559523Y-112928571D01*
X56511904Y-112976190D01*
X56464285Y-113071428D01*
X56464285Y-113261904D01*
X56511904Y-113357142D01*
X56559523Y-113404761D01*
X56654761Y-113452380D01*
X56845238Y-113452380D01*
X56940476Y-113404761D01*
X56988095Y-113357142D01*
X57035714Y-113261904D01*
X57035714Y-113071428D01*
X56988095Y-112976190D01*
X56940476Y-112928571D01*
X56845238Y-112880952D01*
%TO.C,D1*%
X51190000Y-66332380D02*
X50618571Y-66332380D01*
X50904285Y-66332380D02*
X50904285Y-65332380D01*
X50809047Y-65475238D01*
X50713809Y-65570476D01*
X50618571Y-65618095D01*
X51618571Y-66332380D02*
X51618571Y-65332380D01*
X52190000Y-66332380D01*
X52190000Y-65332380D01*
X53094761Y-65665714D02*
X53094761Y-66332380D01*
X52856666Y-65284761D02*
X52618571Y-65999047D01*
X53237619Y-65999047D01*
X53523333Y-65332380D02*
X54190000Y-65332380D01*
X53761428Y-66332380D01*
X54999523Y-65665714D02*
X54999523Y-66332380D01*
X54761428Y-65284761D02*
X54523333Y-65999047D01*
X55142380Y-65999047D01*
X55951904Y-65332380D02*
X55761428Y-65332380D01*
X55666190Y-65380000D01*
X55618571Y-65427619D01*
X55523333Y-65570476D01*
X55475714Y-65760952D01*
X55475714Y-66141904D01*
X55523333Y-66237142D01*
X55570952Y-66284761D01*
X55666190Y-66332380D01*
X55856666Y-66332380D01*
X55951904Y-66284761D01*
X55999523Y-66237142D01*
X56047142Y-66141904D01*
X56047142Y-65903809D01*
X55999523Y-65808571D01*
X55951904Y-65760952D01*
X55856666Y-65713333D01*
X55666190Y-65713333D01*
X55570952Y-65760952D01*
X55523333Y-65808571D01*
X55475714Y-65903809D01*
X56428095Y-66046666D02*
X56904285Y-66046666D01*
X56332857Y-66332380D02*
X56666190Y-65332380D01*
X56999523Y-66332380D01*
X58380476Y-66713333D02*
X58332857Y-66665714D01*
X58237619Y-66522857D01*
X58190000Y-66427619D01*
X58142380Y-66284761D01*
X58094761Y-66046666D01*
X58094761Y-65856190D01*
X58142380Y-65618095D01*
X58190000Y-65475238D01*
X58237619Y-65380000D01*
X58332857Y-65237142D01*
X58380476Y-65189523D01*
X59285238Y-66332380D02*
X58713809Y-66332380D01*
X58999523Y-66332380D02*
X58999523Y-65332380D01*
X58904285Y-65475238D01*
X58809047Y-65570476D01*
X58713809Y-65618095D01*
X59856666Y-65760952D02*
X59761428Y-65713333D01*
X59713809Y-65665714D01*
X59666190Y-65570476D01*
X59666190Y-65522857D01*
X59713809Y-65427619D01*
X59761428Y-65380000D01*
X59856666Y-65332380D01*
X60047142Y-65332380D01*
X60142380Y-65380000D01*
X60190000Y-65427619D01*
X60237619Y-65522857D01*
X60237619Y-65570476D01*
X60190000Y-65665714D01*
X60142380Y-65713333D01*
X60047142Y-65760952D01*
X59856666Y-65760952D01*
X59761428Y-65808571D01*
X59713809Y-65856190D01*
X59666190Y-65951428D01*
X59666190Y-66141904D01*
X59713809Y-66237142D01*
X59761428Y-66284761D01*
X59856666Y-66332380D01*
X60047142Y-66332380D01*
X60142380Y-66284761D01*
X60190000Y-66237142D01*
X60237619Y-66141904D01*
X60237619Y-65951428D01*
X60190000Y-65856190D01*
X60142380Y-65808571D01*
X60047142Y-65760952D01*
X60523333Y-65332380D02*
X60856666Y-66332380D01*
X61190000Y-65332380D01*
X61428095Y-66713333D02*
X61475714Y-66665714D01*
X61570952Y-66522857D01*
X61618571Y-66427619D01*
X61666190Y-66284761D01*
X61713809Y-66046666D01*
X61713809Y-65856190D01*
X61666190Y-65618095D01*
X61618571Y-65475238D01*
X61570952Y-65380000D01*
X61475714Y-65237142D01*
X61428095Y-65189523D01*
X59738095Y-70252380D02*
X59738095Y-69252380D01*
X60309523Y-70252380D02*
X59880952Y-69680952D01*
X60309523Y-69252380D02*
X59738095Y-69823809D01*
D12*
X55299523Y-68361904D02*
X55299523Y-67561904D01*
X55490000Y-67561904D01*
X55604285Y-67600000D01*
X55680476Y-67676190D01*
X55718571Y-67752380D01*
X55756666Y-67904761D01*
X55756666Y-68019047D01*
X55718571Y-68171428D01*
X55680476Y-68247619D01*
X55604285Y-68323809D01*
X55490000Y-68361904D01*
X55299523Y-68361904D01*
X56518571Y-68361904D02*
X56061428Y-68361904D01*
X56290000Y-68361904D02*
X56290000Y-67561904D01*
X56213809Y-67676190D01*
X56137619Y-67752380D01*
X56061428Y-67790476D01*
%TO.C,D2*%
D11*
X48047142Y-100572380D02*
X47475714Y-100572380D01*
X47761428Y-100572380D02*
X47761428Y-99572380D01*
X47666190Y-99715238D01*
X47570952Y-99810476D01*
X47475714Y-99858095D01*
X48475714Y-100572380D02*
X48475714Y-99572380D01*
X49047142Y-100572380D01*
X49047142Y-99572380D01*
X49951904Y-99905714D02*
X49951904Y-100572380D01*
X49713809Y-99524761D02*
X49475714Y-100239047D01*
X50094761Y-100239047D01*
X50999523Y-100572380D02*
X50428095Y-100572380D01*
X50713809Y-100572380D02*
X50713809Y-99572380D01*
X50618571Y-99715238D01*
X50523333Y-99810476D01*
X50428095Y-99858095D01*
X51856666Y-99905714D02*
X51856666Y-100572380D01*
X51618571Y-99524761D02*
X51380476Y-100239047D01*
X51999523Y-100239047D01*
X52523333Y-100000952D02*
X52428095Y-99953333D01*
X52380476Y-99905714D01*
X52332857Y-99810476D01*
X52332857Y-99762857D01*
X52380476Y-99667619D01*
X52428095Y-99620000D01*
X52523333Y-99572380D01*
X52713809Y-99572380D01*
X52809047Y-99620000D01*
X52856666Y-99667619D01*
X52904285Y-99762857D01*
X52904285Y-99810476D01*
X52856666Y-99905714D01*
X52809047Y-99953333D01*
X52713809Y-100000952D01*
X52523333Y-100000952D01*
X52428095Y-100048571D01*
X52380476Y-100096190D01*
X52332857Y-100191428D01*
X52332857Y-100381904D01*
X52380476Y-100477142D01*
X52428095Y-100524761D01*
X52523333Y-100572380D01*
X52713809Y-100572380D01*
X52809047Y-100524761D01*
X52856666Y-100477142D01*
X52904285Y-100381904D01*
X52904285Y-100191428D01*
X52856666Y-100096190D01*
X52809047Y-100048571D01*
X52713809Y-100000952D01*
D12*
X49899523Y-98361904D02*
X49899523Y-97561904D01*
X50090000Y-97561904D01*
X50204285Y-97600000D01*
X50280476Y-97676190D01*
X50318571Y-97752380D01*
X50356666Y-97904761D01*
X50356666Y-98019047D01*
X50318571Y-98171428D01*
X50280476Y-98247619D01*
X50204285Y-98323809D01*
X50090000Y-98361904D01*
X49899523Y-98361904D01*
X50661428Y-97638095D02*
X50699523Y-97600000D01*
X50775714Y-97561904D01*
X50966190Y-97561904D01*
X51042380Y-97600000D01*
X51080476Y-97638095D01*
X51118571Y-97714285D01*
X51118571Y-97790476D01*
X51080476Y-97904761D01*
X50623333Y-98361904D01*
X51118571Y-98361904D01*
D11*
X46118095Y-96652380D02*
X46118095Y-95652380D01*
X46689523Y-96652380D02*
X46260952Y-96080952D01*
X46689523Y-95652380D02*
X46118095Y-96223809D01*
%TO.C,D3*%
X60667142Y-100572380D02*
X60095714Y-100572380D01*
X60381428Y-100572380D02*
X60381428Y-99572380D01*
X60286190Y-99715238D01*
X60190952Y-99810476D01*
X60095714Y-99858095D01*
X61095714Y-100572380D02*
X61095714Y-99572380D01*
X61667142Y-100572380D01*
X61667142Y-99572380D01*
X62571904Y-99905714D02*
X62571904Y-100572380D01*
X62333809Y-99524761D02*
X62095714Y-100239047D01*
X62714761Y-100239047D01*
X63619523Y-100572380D02*
X63048095Y-100572380D01*
X63333809Y-100572380D02*
X63333809Y-99572380D01*
X63238571Y-99715238D01*
X63143333Y-99810476D01*
X63048095Y-99858095D01*
X64476666Y-99905714D02*
X64476666Y-100572380D01*
X64238571Y-99524761D02*
X64000476Y-100239047D01*
X64619523Y-100239047D01*
X65143333Y-100000952D02*
X65048095Y-99953333D01*
X65000476Y-99905714D01*
X64952857Y-99810476D01*
X64952857Y-99762857D01*
X65000476Y-99667619D01*
X65048095Y-99620000D01*
X65143333Y-99572380D01*
X65333809Y-99572380D01*
X65429047Y-99620000D01*
X65476666Y-99667619D01*
X65524285Y-99762857D01*
X65524285Y-99810476D01*
X65476666Y-99905714D01*
X65429047Y-99953333D01*
X65333809Y-100000952D01*
X65143333Y-100000952D01*
X65048095Y-100048571D01*
X65000476Y-100096190D01*
X64952857Y-100191428D01*
X64952857Y-100381904D01*
X65000476Y-100477142D01*
X65048095Y-100524761D01*
X65143333Y-100572380D01*
X65333809Y-100572380D01*
X65429047Y-100524761D01*
X65476666Y-100477142D01*
X65524285Y-100381904D01*
X65524285Y-100191428D01*
X65476666Y-100096190D01*
X65429047Y-100048571D01*
X65333809Y-100000952D01*
D12*
X62519523Y-98361904D02*
X62519523Y-97561904D01*
X62710000Y-97561904D01*
X62824285Y-97600000D01*
X62900476Y-97676190D01*
X62938571Y-97752380D01*
X62976666Y-97904761D01*
X62976666Y-98019047D01*
X62938571Y-98171428D01*
X62900476Y-98247619D01*
X62824285Y-98323809D01*
X62710000Y-98361904D01*
X62519523Y-98361904D01*
X63243333Y-97561904D02*
X63738571Y-97561904D01*
X63471904Y-97866666D01*
X63586190Y-97866666D01*
X63662380Y-97904761D01*
X63700476Y-97942857D01*
X63738571Y-98019047D01*
X63738571Y-98209523D01*
X63700476Y-98285714D01*
X63662380Y-98323809D01*
X63586190Y-98361904D01*
X63357619Y-98361904D01*
X63281428Y-98323809D01*
X63243333Y-98285714D01*
D11*
X58738095Y-96652380D02*
X58738095Y-95652380D01*
X59309523Y-96652380D02*
X58880952Y-96080952D01*
X59309523Y-95652380D02*
X58738095Y-96223809D01*
%TO.C,J1*%
X39214285Y-122107142D02*
X39166666Y-122154761D01*
X39023809Y-122202380D01*
X38928571Y-122202380D01*
X38785714Y-122154761D01*
X38690476Y-122059523D01*
X38642857Y-121964285D01*
X38595238Y-121773809D01*
X38595238Y-121630952D01*
X38642857Y-121440476D01*
X38690476Y-121345238D01*
X38785714Y-121250000D01*
X38928571Y-121202380D01*
X39023809Y-121202380D01*
X39166666Y-121250000D01*
X39214285Y-121297619D01*
X39785714Y-122202380D02*
X39690476Y-122154761D01*
X39642857Y-122107142D01*
X39595238Y-122011904D01*
X39595238Y-121726190D01*
X39642857Y-121630952D01*
X39690476Y-121583333D01*
X39785714Y-121535714D01*
X39928571Y-121535714D01*
X40023809Y-121583333D01*
X40071428Y-121630952D01*
X40119047Y-121726190D01*
X40119047Y-122011904D01*
X40071428Y-122107142D01*
X40023809Y-122154761D01*
X39928571Y-122202380D01*
X39785714Y-122202380D01*
X40547619Y-121535714D02*
X40547619Y-122202380D01*
X40547619Y-121630952D02*
X40595238Y-121583333D01*
X40690476Y-121535714D01*
X40833333Y-121535714D01*
X40928571Y-121583333D01*
X40976190Y-121678571D01*
X40976190Y-122202380D01*
X41452380Y-121535714D02*
X41452380Y-122202380D01*
X41452380Y-121630952D02*
X41500000Y-121583333D01*
X41595238Y-121535714D01*
X41738095Y-121535714D01*
X41833333Y-121583333D01*
X41880952Y-121678571D01*
X41880952Y-122202380D01*
X42119047Y-122297619D02*
X42880952Y-122297619D01*
X43309523Y-121202380D02*
X43404761Y-121202380D01*
X43500000Y-121250000D01*
X43547619Y-121297619D01*
X43595238Y-121392857D01*
X43642857Y-121583333D01*
X43642857Y-121821428D01*
X43595238Y-122011904D01*
X43547619Y-122107142D01*
X43500000Y-122154761D01*
X43404761Y-122202380D01*
X43309523Y-122202380D01*
X43214285Y-122154761D01*
X43166666Y-122107142D01*
X43119047Y-122011904D01*
X43071428Y-121821428D01*
X43071428Y-121583333D01*
X43119047Y-121392857D01*
X43166666Y-121297619D01*
X43214285Y-121250000D01*
X43309523Y-121202380D01*
X44595238Y-122202380D02*
X44023809Y-122202380D01*
X44309523Y-122202380D02*
X44309523Y-121202380D01*
X44214285Y-121345238D01*
X44119047Y-121440476D01*
X44023809Y-121488095D01*
X44928571Y-122202380D02*
X45452380Y-121535714D01*
X44928571Y-121535714D02*
X45452380Y-122202380D01*
X46023809Y-121202380D02*
X46119047Y-121202380D01*
X46214285Y-121250000D01*
X46261904Y-121297619D01*
X46309523Y-121392857D01*
X46357142Y-121583333D01*
X46357142Y-121821428D01*
X46309523Y-122011904D01*
X46261904Y-122107142D01*
X46214285Y-122154761D01*
X46119047Y-122202380D01*
X46023809Y-122202380D01*
X45928571Y-122154761D01*
X45880952Y-122107142D01*
X45833333Y-122011904D01*
X45785714Y-121821428D01*
X45785714Y-121583333D01*
X45833333Y-121392857D01*
X45880952Y-121297619D01*
X45928571Y-121250000D01*
X46023809Y-121202380D01*
X47309523Y-122202380D02*
X46738095Y-122202380D01*
X47023809Y-122202380D02*
X47023809Y-121202380D01*
X46928571Y-121345238D01*
X46833333Y-121440476D01*
X46738095Y-121488095D01*
X47500000Y-122297619D02*
X48261904Y-122297619D01*
X48833333Y-121678571D02*
X48500000Y-121678571D01*
X48500000Y-122202380D02*
X48500000Y-121202380D01*
X48976190Y-121202380D01*
X49738095Y-122154761D02*
X49642857Y-122202380D01*
X49452380Y-122202380D01*
X49357142Y-122154761D01*
X49309523Y-122059523D01*
X49309523Y-121678571D01*
X49357142Y-121583333D01*
X49452380Y-121535714D01*
X49642857Y-121535714D01*
X49738095Y-121583333D01*
X49785714Y-121678571D01*
X49785714Y-121773809D01*
X49309523Y-121869047D01*
X50214285Y-122202380D02*
X50214285Y-121535714D01*
X50214285Y-121630952D02*
X50261904Y-121583333D01*
X50357142Y-121535714D01*
X50500000Y-121535714D01*
X50595238Y-121583333D01*
X50642857Y-121678571D01*
X50642857Y-122202380D01*
X50642857Y-121678571D02*
X50690476Y-121583333D01*
X50785714Y-121535714D01*
X50928571Y-121535714D01*
X51023809Y-121583333D01*
X51071428Y-121678571D01*
X51071428Y-122202380D01*
X51976190Y-122202380D02*
X51976190Y-121678571D01*
X51928571Y-121583333D01*
X51833333Y-121535714D01*
X51642857Y-121535714D01*
X51547619Y-121583333D01*
X51976190Y-122154761D02*
X51880952Y-122202380D01*
X51642857Y-122202380D01*
X51547619Y-122154761D01*
X51500000Y-122059523D01*
X51500000Y-121964285D01*
X51547619Y-121869047D01*
X51642857Y-121821428D01*
X51880952Y-121821428D01*
X51976190Y-121773809D01*
X52595238Y-122202380D02*
X52500000Y-122154761D01*
X52452380Y-122059523D01*
X52452380Y-121202380D01*
X53357142Y-122154761D02*
X53261904Y-122202380D01*
X53071428Y-122202380D01*
X52976190Y-122154761D01*
X52928571Y-122059523D01*
X52928571Y-121678571D01*
X52976190Y-121583333D01*
X53071428Y-121535714D01*
X53261904Y-121535714D01*
X53357142Y-121583333D01*
X53404761Y-121678571D01*
X53404761Y-121773809D01*
X52928571Y-121869047D01*
X45966666Y-118452380D02*
X45966666Y-119166666D01*
X45919047Y-119309523D01*
X45823809Y-119404761D01*
X45680952Y-119452380D01*
X45585714Y-119452380D01*
X46966666Y-119452380D02*
X46395238Y-119452380D01*
X46680952Y-119452380D02*
X46680952Y-118452380D01*
X46585714Y-118595238D01*
X46490476Y-118690476D01*
X46395238Y-118738095D01*
%TO.C,J3*%
X45214285Y-122107142D02*
X45166666Y-122154761D01*
X45023809Y-122202380D01*
X44928571Y-122202380D01*
X44785714Y-122154761D01*
X44690476Y-122059523D01*
X44642857Y-121964285D01*
X44595238Y-121773809D01*
X44595238Y-121630952D01*
X44642857Y-121440476D01*
X44690476Y-121345238D01*
X44785714Y-121250000D01*
X44928571Y-121202380D01*
X45023809Y-121202380D01*
X45166666Y-121250000D01*
X45214285Y-121297619D01*
X45785714Y-122202380D02*
X45690476Y-122154761D01*
X45642857Y-122107142D01*
X45595238Y-122011904D01*
X45595238Y-121726190D01*
X45642857Y-121630952D01*
X45690476Y-121583333D01*
X45785714Y-121535714D01*
X45928571Y-121535714D01*
X46023809Y-121583333D01*
X46071428Y-121630952D01*
X46119047Y-121726190D01*
X46119047Y-122011904D01*
X46071428Y-122107142D01*
X46023809Y-122154761D01*
X45928571Y-122202380D01*
X45785714Y-122202380D01*
X46547619Y-121535714D02*
X46547619Y-122202380D01*
X46547619Y-121630952D02*
X46595238Y-121583333D01*
X46690476Y-121535714D01*
X46833333Y-121535714D01*
X46928571Y-121583333D01*
X46976190Y-121678571D01*
X46976190Y-122202380D01*
X47452380Y-121535714D02*
X47452380Y-122202380D01*
X47452380Y-121630952D02*
X47500000Y-121583333D01*
X47595238Y-121535714D01*
X47738095Y-121535714D01*
X47833333Y-121583333D01*
X47880952Y-121678571D01*
X47880952Y-122202380D01*
X48119047Y-122297619D02*
X48880952Y-122297619D01*
X49309523Y-121202380D02*
X49404761Y-121202380D01*
X49500000Y-121250000D01*
X49547619Y-121297619D01*
X49595238Y-121392857D01*
X49642857Y-121583333D01*
X49642857Y-121821428D01*
X49595238Y-122011904D01*
X49547619Y-122107142D01*
X49500000Y-122154761D01*
X49404761Y-122202380D01*
X49309523Y-122202380D01*
X49214285Y-122154761D01*
X49166666Y-122107142D01*
X49119047Y-122011904D01*
X49071428Y-121821428D01*
X49071428Y-121583333D01*
X49119047Y-121392857D01*
X49166666Y-121297619D01*
X49214285Y-121250000D01*
X49309523Y-121202380D01*
X50595238Y-122202380D02*
X50023809Y-122202380D01*
X50309523Y-122202380D02*
X50309523Y-121202380D01*
X50214285Y-121345238D01*
X50119047Y-121440476D01*
X50023809Y-121488095D01*
X50928571Y-122202380D02*
X51452380Y-121535714D01*
X50928571Y-121535714D02*
X51452380Y-122202380D01*
X52023809Y-121202380D02*
X52119047Y-121202380D01*
X52214285Y-121250000D01*
X52261904Y-121297619D01*
X52309523Y-121392857D01*
X52357142Y-121583333D01*
X52357142Y-121821428D01*
X52309523Y-122011904D01*
X52261904Y-122107142D01*
X52214285Y-122154761D01*
X52119047Y-122202380D01*
X52023809Y-122202380D01*
X51928571Y-122154761D01*
X51880952Y-122107142D01*
X51833333Y-122011904D01*
X51785714Y-121821428D01*
X51785714Y-121583333D01*
X51833333Y-121392857D01*
X51880952Y-121297619D01*
X51928571Y-121250000D01*
X52023809Y-121202380D01*
X53309523Y-122202380D02*
X52738095Y-122202380D01*
X53023809Y-122202380D02*
X53023809Y-121202380D01*
X52928571Y-121345238D01*
X52833333Y-121440476D01*
X52738095Y-121488095D01*
X53500000Y-122297619D02*
X54261904Y-122297619D01*
X54833333Y-121678571D02*
X54500000Y-121678571D01*
X54500000Y-122202380D02*
X54500000Y-121202380D01*
X54976190Y-121202380D01*
X55738095Y-122154761D02*
X55642857Y-122202380D01*
X55452380Y-122202380D01*
X55357142Y-122154761D01*
X55309523Y-122059523D01*
X55309523Y-121678571D01*
X55357142Y-121583333D01*
X55452380Y-121535714D01*
X55642857Y-121535714D01*
X55738095Y-121583333D01*
X55785714Y-121678571D01*
X55785714Y-121773809D01*
X55309523Y-121869047D01*
X56214285Y-122202380D02*
X56214285Y-121535714D01*
X56214285Y-121630952D02*
X56261904Y-121583333D01*
X56357142Y-121535714D01*
X56500000Y-121535714D01*
X56595238Y-121583333D01*
X56642857Y-121678571D01*
X56642857Y-122202380D01*
X56642857Y-121678571D02*
X56690476Y-121583333D01*
X56785714Y-121535714D01*
X56928571Y-121535714D01*
X57023809Y-121583333D01*
X57071428Y-121678571D01*
X57071428Y-122202380D01*
X57976190Y-122202380D02*
X57976190Y-121678571D01*
X57928571Y-121583333D01*
X57833333Y-121535714D01*
X57642857Y-121535714D01*
X57547619Y-121583333D01*
X57976190Y-122154761D02*
X57880952Y-122202380D01*
X57642857Y-122202380D01*
X57547619Y-122154761D01*
X57500000Y-122059523D01*
X57500000Y-121964285D01*
X57547619Y-121869047D01*
X57642857Y-121821428D01*
X57880952Y-121821428D01*
X57976190Y-121773809D01*
X58595238Y-122202380D02*
X58500000Y-122154761D01*
X58452380Y-122059523D01*
X58452380Y-121202380D01*
X59357142Y-122154761D02*
X59261904Y-122202380D01*
X59071428Y-122202380D01*
X58976190Y-122154761D01*
X58928571Y-122059523D01*
X58928571Y-121678571D01*
X58976190Y-121583333D01*
X59071428Y-121535714D01*
X59261904Y-121535714D01*
X59357142Y-121583333D01*
X59404761Y-121678571D01*
X59404761Y-121773809D01*
X58928571Y-121869047D01*
X51966666Y-118452380D02*
X51966666Y-119166666D01*
X51919047Y-119309523D01*
X51823809Y-119404761D01*
X51680952Y-119452380D01*
X51585714Y-119452380D01*
X52347619Y-118452380D02*
X52966666Y-118452380D01*
X52633333Y-118833333D01*
X52776190Y-118833333D01*
X52871428Y-118880952D01*
X52919047Y-118928571D01*
X52966666Y-119023809D01*
X52966666Y-119261904D01*
X52919047Y-119357142D01*
X52871428Y-119404761D01*
X52776190Y-119452380D01*
X52490476Y-119452380D01*
X52395238Y-119404761D01*
X52347619Y-119357142D01*
%TO.C,J6*%
X35714285Y-128107142D02*
X35666666Y-128154761D01*
X35523809Y-128202380D01*
X35428571Y-128202380D01*
X35285714Y-128154761D01*
X35190476Y-128059523D01*
X35142857Y-127964285D01*
X35095238Y-127773809D01*
X35095238Y-127630952D01*
X35142857Y-127440476D01*
X35190476Y-127345238D01*
X35285714Y-127250000D01*
X35428571Y-127202380D01*
X35523809Y-127202380D01*
X35666666Y-127250000D01*
X35714285Y-127297619D01*
X36285714Y-128202380D02*
X36190476Y-128154761D01*
X36142857Y-128107142D01*
X36095238Y-128011904D01*
X36095238Y-127726190D01*
X36142857Y-127630952D01*
X36190476Y-127583333D01*
X36285714Y-127535714D01*
X36428571Y-127535714D01*
X36523809Y-127583333D01*
X36571428Y-127630952D01*
X36619047Y-127726190D01*
X36619047Y-128011904D01*
X36571428Y-128107142D01*
X36523809Y-128154761D01*
X36428571Y-128202380D01*
X36285714Y-128202380D01*
X37047619Y-127535714D02*
X37047619Y-128202380D01*
X37047619Y-127630952D02*
X37095238Y-127583333D01*
X37190476Y-127535714D01*
X37333333Y-127535714D01*
X37428571Y-127583333D01*
X37476190Y-127678571D01*
X37476190Y-128202380D01*
X37952380Y-127535714D02*
X37952380Y-128202380D01*
X37952380Y-127630952D02*
X38000000Y-127583333D01*
X38095238Y-127535714D01*
X38238095Y-127535714D01*
X38333333Y-127583333D01*
X38380952Y-127678571D01*
X38380952Y-128202380D01*
X38619047Y-128297619D02*
X39380952Y-128297619D01*
X39809523Y-127202380D02*
X39904761Y-127202380D01*
X40000000Y-127250000D01*
X40047619Y-127297619D01*
X40095238Y-127392857D01*
X40142857Y-127583333D01*
X40142857Y-127821428D01*
X40095238Y-128011904D01*
X40047619Y-128107142D01*
X40000000Y-128154761D01*
X39904761Y-128202380D01*
X39809523Y-128202380D01*
X39714285Y-128154761D01*
X39666666Y-128107142D01*
X39619047Y-128011904D01*
X39571428Y-127821428D01*
X39571428Y-127583333D01*
X39619047Y-127392857D01*
X39666666Y-127297619D01*
X39714285Y-127250000D01*
X39809523Y-127202380D01*
X41095238Y-128202380D02*
X40523809Y-128202380D01*
X40809523Y-128202380D02*
X40809523Y-127202380D01*
X40714285Y-127345238D01*
X40619047Y-127440476D01*
X40523809Y-127488095D01*
X41428571Y-128202380D02*
X41952380Y-127535714D01*
X41428571Y-127535714D02*
X41952380Y-128202380D01*
X42523809Y-127202380D02*
X42619047Y-127202380D01*
X42714285Y-127250000D01*
X42761904Y-127297619D01*
X42809523Y-127392857D01*
X42857142Y-127583333D01*
X42857142Y-127821428D01*
X42809523Y-128011904D01*
X42761904Y-128107142D01*
X42714285Y-128154761D01*
X42619047Y-128202380D01*
X42523809Y-128202380D01*
X42428571Y-128154761D01*
X42380952Y-128107142D01*
X42333333Y-128011904D01*
X42285714Y-127821428D01*
X42285714Y-127583333D01*
X42333333Y-127392857D01*
X42380952Y-127297619D01*
X42428571Y-127250000D01*
X42523809Y-127202380D01*
X43809523Y-128202380D02*
X43238095Y-128202380D01*
X43523809Y-128202380D02*
X43523809Y-127202380D01*
X43428571Y-127345238D01*
X43333333Y-127440476D01*
X43238095Y-127488095D01*
X44000000Y-128297619D02*
X44761904Y-128297619D01*
X45333333Y-127678571D02*
X45000000Y-127678571D01*
X45000000Y-128202380D02*
X45000000Y-127202380D01*
X45476190Y-127202380D01*
X46238095Y-128154761D02*
X46142857Y-128202380D01*
X45952380Y-128202380D01*
X45857142Y-128154761D01*
X45809523Y-128059523D01*
X45809523Y-127678571D01*
X45857142Y-127583333D01*
X45952380Y-127535714D01*
X46142857Y-127535714D01*
X46238095Y-127583333D01*
X46285714Y-127678571D01*
X46285714Y-127773809D01*
X45809523Y-127869047D01*
X46714285Y-128202380D02*
X46714285Y-127535714D01*
X46714285Y-127630952D02*
X46761904Y-127583333D01*
X46857142Y-127535714D01*
X47000000Y-127535714D01*
X47095238Y-127583333D01*
X47142857Y-127678571D01*
X47142857Y-128202380D01*
X47142857Y-127678571D02*
X47190476Y-127583333D01*
X47285714Y-127535714D01*
X47428571Y-127535714D01*
X47523809Y-127583333D01*
X47571428Y-127678571D01*
X47571428Y-128202380D01*
X48476190Y-128202380D02*
X48476190Y-127678571D01*
X48428571Y-127583333D01*
X48333333Y-127535714D01*
X48142857Y-127535714D01*
X48047619Y-127583333D01*
X48476190Y-128154761D02*
X48380952Y-128202380D01*
X48142857Y-128202380D01*
X48047619Y-128154761D01*
X48000000Y-128059523D01*
X48000000Y-127964285D01*
X48047619Y-127869047D01*
X48142857Y-127821428D01*
X48380952Y-127821428D01*
X48476190Y-127773809D01*
X49095238Y-128202380D02*
X49000000Y-128154761D01*
X48952380Y-128059523D01*
X48952380Y-127202380D01*
X49857142Y-128154761D02*
X49761904Y-128202380D01*
X49571428Y-128202380D01*
X49476190Y-128154761D01*
X49428571Y-128059523D01*
X49428571Y-127678571D01*
X49476190Y-127583333D01*
X49571428Y-127535714D01*
X49761904Y-127535714D01*
X49857142Y-127583333D01*
X49904761Y-127678571D01*
X49904761Y-127773809D01*
X49428571Y-127869047D01*
X41141665Y-124452380D02*
X41141665Y-125166666D01*
X41094046Y-125309523D01*
X40998808Y-125404761D01*
X40855951Y-125452380D01*
X40760713Y-125452380D01*
X42046427Y-124452380D02*
X41855951Y-124452380D01*
X41760713Y-124500000D01*
X41713094Y-124547619D01*
X41617856Y-124690476D01*
X41570237Y-124880952D01*
X41570237Y-125261904D01*
X41617856Y-125357142D01*
X41665475Y-125404761D01*
X41760713Y-125452380D01*
X41951189Y-125452380D01*
X42046427Y-125404761D01*
X42094046Y-125357142D01*
X42141665Y-125261904D01*
X42141665Y-125023809D01*
X42094046Y-124928571D01*
X42046427Y-124880952D01*
X41951189Y-124833333D01*
X41760713Y-124833333D01*
X41665475Y-124880952D01*
X41617856Y-124928571D01*
X41570237Y-125023809D01*
%TO.C,J7*%
X63214285Y-40607142D02*
X63166666Y-40654761D01*
X63023809Y-40702380D01*
X62928571Y-40702380D01*
X62785714Y-40654761D01*
X62690476Y-40559523D01*
X62642857Y-40464285D01*
X62595238Y-40273809D01*
X62595238Y-40130952D01*
X62642857Y-39940476D01*
X62690476Y-39845238D01*
X62785714Y-39750000D01*
X62928571Y-39702380D01*
X63023809Y-39702380D01*
X63166666Y-39750000D01*
X63214285Y-39797619D01*
X63785714Y-40702380D02*
X63690476Y-40654761D01*
X63642857Y-40607142D01*
X63595238Y-40511904D01*
X63595238Y-40226190D01*
X63642857Y-40130952D01*
X63690476Y-40083333D01*
X63785714Y-40035714D01*
X63928571Y-40035714D01*
X64023809Y-40083333D01*
X64071428Y-40130952D01*
X64119047Y-40226190D01*
X64119047Y-40511904D01*
X64071428Y-40607142D01*
X64023809Y-40654761D01*
X63928571Y-40702380D01*
X63785714Y-40702380D01*
X64547619Y-40035714D02*
X64547619Y-40702380D01*
X64547619Y-40130952D02*
X64595238Y-40083333D01*
X64690476Y-40035714D01*
X64833333Y-40035714D01*
X64928571Y-40083333D01*
X64976190Y-40178571D01*
X64976190Y-40702380D01*
X65452380Y-40035714D02*
X65452380Y-40702380D01*
X65452380Y-40130952D02*
X65500000Y-40083333D01*
X65595238Y-40035714D01*
X65738095Y-40035714D01*
X65833333Y-40083333D01*
X65880952Y-40178571D01*
X65880952Y-40702380D01*
X66119047Y-40797619D02*
X66880952Y-40797619D01*
X67309523Y-39702380D02*
X67404761Y-39702380D01*
X67500000Y-39750000D01*
X67547619Y-39797619D01*
X67595238Y-39892857D01*
X67642857Y-40083333D01*
X67642857Y-40321428D01*
X67595238Y-40511904D01*
X67547619Y-40607142D01*
X67500000Y-40654761D01*
X67404761Y-40702380D01*
X67309523Y-40702380D01*
X67214285Y-40654761D01*
X67166666Y-40607142D01*
X67119047Y-40511904D01*
X67071428Y-40321428D01*
X67071428Y-40083333D01*
X67119047Y-39892857D01*
X67166666Y-39797619D01*
X67214285Y-39750000D01*
X67309523Y-39702380D01*
X68595238Y-40702380D02*
X68023809Y-40702380D01*
X68309523Y-40702380D02*
X68309523Y-39702380D01*
X68214285Y-39845238D01*
X68119047Y-39940476D01*
X68023809Y-39988095D01*
X68928571Y-40702380D02*
X69452380Y-40035714D01*
X68928571Y-40035714D02*
X69452380Y-40702380D01*
X70023809Y-39702380D02*
X70119047Y-39702380D01*
X70214285Y-39750000D01*
X70261904Y-39797619D01*
X70309523Y-39892857D01*
X70357142Y-40083333D01*
X70357142Y-40321428D01*
X70309523Y-40511904D01*
X70261904Y-40607142D01*
X70214285Y-40654761D01*
X70119047Y-40702380D01*
X70023809Y-40702380D01*
X69928571Y-40654761D01*
X69880952Y-40607142D01*
X69833333Y-40511904D01*
X69785714Y-40321428D01*
X69785714Y-40083333D01*
X69833333Y-39892857D01*
X69880952Y-39797619D01*
X69928571Y-39750000D01*
X70023809Y-39702380D01*
X71309523Y-40702380D02*
X70738095Y-40702380D01*
X71023809Y-40702380D02*
X71023809Y-39702380D01*
X70928571Y-39845238D01*
X70833333Y-39940476D01*
X70738095Y-39988095D01*
X71500000Y-40797619D02*
X72261904Y-40797619D01*
X72833333Y-40178571D02*
X72500000Y-40178571D01*
X72500000Y-40702380D02*
X72500000Y-39702380D01*
X72976190Y-39702380D01*
X73738095Y-40654761D02*
X73642857Y-40702380D01*
X73452380Y-40702380D01*
X73357142Y-40654761D01*
X73309523Y-40559523D01*
X73309523Y-40178571D01*
X73357142Y-40083333D01*
X73452380Y-40035714D01*
X73642857Y-40035714D01*
X73738095Y-40083333D01*
X73785714Y-40178571D01*
X73785714Y-40273809D01*
X73309523Y-40369047D01*
X74214285Y-40702380D02*
X74214285Y-40035714D01*
X74214285Y-40130952D02*
X74261904Y-40083333D01*
X74357142Y-40035714D01*
X74500000Y-40035714D01*
X74595238Y-40083333D01*
X74642857Y-40178571D01*
X74642857Y-40702380D01*
X74642857Y-40178571D02*
X74690476Y-40083333D01*
X74785714Y-40035714D01*
X74928571Y-40035714D01*
X75023809Y-40083333D01*
X75071428Y-40178571D01*
X75071428Y-40702380D01*
X75976190Y-40702380D02*
X75976190Y-40178571D01*
X75928571Y-40083333D01*
X75833333Y-40035714D01*
X75642857Y-40035714D01*
X75547619Y-40083333D01*
X75976190Y-40654761D02*
X75880952Y-40702380D01*
X75642857Y-40702380D01*
X75547619Y-40654761D01*
X75500000Y-40559523D01*
X75500000Y-40464285D01*
X75547619Y-40369047D01*
X75642857Y-40321428D01*
X75880952Y-40321428D01*
X75976190Y-40273809D01*
X76595238Y-40702380D02*
X76500000Y-40654761D01*
X76452380Y-40559523D01*
X76452380Y-39702380D01*
X77357142Y-40654761D02*
X77261904Y-40702380D01*
X77071428Y-40702380D01*
X76976190Y-40654761D01*
X76928571Y-40559523D01*
X76928571Y-40178571D01*
X76976190Y-40083333D01*
X77071428Y-40035714D01*
X77261904Y-40035714D01*
X77357142Y-40083333D01*
X77404761Y-40178571D01*
X77404761Y-40273809D01*
X76928571Y-40369047D01*
X69966666Y-36952380D02*
X69966666Y-37666666D01*
X69919047Y-37809523D01*
X69823809Y-37904761D01*
X69680952Y-37952380D01*
X69585714Y-37952380D01*
X70347619Y-36952380D02*
X71014285Y-36952380D01*
X70585714Y-37952380D01*
%TO.C,J8*%
X35714285Y-40607142D02*
X35666666Y-40654761D01*
X35523809Y-40702380D01*
X35428571Y-40702380D01*
X35285714Y-40654761D01*
X35190476Y-40559523D01*
X35142857Y-40464285D01*
X35095238Y-40273809D01*
X35095238Y-40130952D01*
X35142857Y-39940476D01*
X35190476Y-39845238D01*
X35285714Y-39750000D01*
X35428571Y-39702380D01*
X35523809Y-39702380D01*
X35666666Y-39750000D01*
X35714285Y-39797619D01*
X36285714Y-40702380D02*
X36190476Y-40654761D01*
X36142857Y-40607142D01*
X36095238Y-40511904D01*
X36095238Y-40226190D01*
X36142857Y-40130952D01*
X36190476Y-40083333D01*
X36285714Y-40035714D01*
X36428571Y-40035714D01*
X36523809Y-40083333D01*
X36571428Y-40130952D01*
X36619047Y-40226190D01*
X36619047Y-40511904D01*
X36571428Y-40607142D01*
X36523809Y-40654761D01*
X36428571Y-40702380D01*
X36285714Y-40702380D01*
X37047619Y-40035714D02*
X37047619Y-40702380D01*
X37047619Y-40130952D02*
X37095238Y-40083333D01*
X37190476Y-40035714D01*
X37333333Y-40035714D01*
X37428571Y-40083333D01*
X37476190Y-40178571D01*
X37476190Y-40702380D01*
X37952380Y-40035714D02*
X37952380Y-40702380D01*
X37952380Y-40130952D02*
X38000000Y-40083333D01*
X38095238Y-40035714D01*
X38238095Y-40035714D01*
X38333333Y-40083333D01*
X38380952Y-40178571D01*
X38380952Y-40702380D01*
X38619047Y-40797619D02*
X39380952Y-40797619D01*
X39809523Y-39702380D02*
X39904761Y-39702380D01*
X40000000Y-39750000D01*
X40047619Y-39797619D01*
X40095238Y-39892857D01*
X40142857Y-40083333D01*
X40142857Y-40321428D01*
X40095238Y-40511904D01*
X40047619Y-40607142D01*
X40000000Y-40654761D01*
X39904761Y-40702380D01*
X39809523Y-40702380D01*
X39714285Y-40654761D01*
X39666666Y-40607142D01*
X39619047Y-40511904D01*
X39571428Y-40321428D01*
X39571428Y-40083333D01*
X39619047Y-39892857D01*
X39666666Y-39797619D01*
X39714285Y-39750000D01*
X39809523Y-39702380D01*
X41095238Y-40702380D02*
X40523809Y-40702380D01*
X40809523Y-40702380D02*
X40809523Y-39702380D01*
X40714285Y-39845238D01*
X40619047Y-39940476D01*
X40523809Y-39988095D01*
X41428571Y-40702380D02*
X41952380Y-40035714D01*
X41428571Y-40035714D02*
X41952380Y-40702380D01*
X42523809Y-39702380D02*
X42619047Y-39702380D01*
X42714285Y-39750000D01*
X42761904Y-39797619D01*
X42809523Y-39892857D01*
X42857142Y-40083333D01*
X42857142Y-40321428D01*
X42809523Y-40511904D01*
X42761904Y-40607142D01*
X42714285Y-40654761D01*
X42619047Y-40702380D01*
X42523809Y-40702380D01*
X42428571Y-40654761D01*
X42380952Y-40607142D01*
X42333333Y-40511904D01*
X42285714Y-40321428D01*
X42285714Y-40083333D01*
X42333333Y-39892857D01*
X42380952Y-39797619D01*
X42428571Y-39750000D01*
X42523809Y-39702380D01*
X43809523Y-40702380D02*
X43238095Y-40702380D01*
X43523809Y-40702380D02*
X43523809Y-39702380D01*
X43428571Y-39845238D01*
X43333333Y-39940476D01*
X43238095Y-39988095D01*
X44000000Y-40797619D02*
X44761904Y-40797619D01*
X45333333Y-40178571D02*
X45000000Y-40178571D01*
X45000000Y-40702380D02*
X45000000Y-39702380D01*
X45476190Y-39702380D01*
X46238095Y-40654761D02*
X46142857Y-40702380D01*
X45952380Y-40702380D01*
X45857142Y-40654761D01*
X45809523Y-40559523D01*
X45809523Y-40178571D01*
X45857142Y-40083333D01*
X45952380Y-40035714D01*
X46142857Y-40035714D01*
X46238095Y-40083333D01*
X46285714Y-40178571D01*
X46285714Y-40273809D01*
X45809523Y-40369047D01*
X46714285Y-40702380D02*
X46714285Y-40035714D01*
X46714285Y-40130952D02*
X46761904Y-40083333D01*
X46857142Y-40035714D01*
X47000000Y-40035714D01*
X47095238Y-40083333D01*
X47142857Y-40178571D01*
X47142857Y-40702380D01*
X47142857Y-40178571D02*
X47190476Y-40083333D01*
X47285714Y-40035714D01*
X47428571Y-40035714D01*
X47523809Y-40083333D01*
X47571428Y-40178571D01*
X47571428Y-40702380D01*
X48476190Y-40702380D02*
X48476190Y-40178571D01*
X48428571Y-40083333D01*
X48333333Y-40035714D01*
X48142857Y-40035714D01*
X48047619Y-40083333D01*
X48476190Y-40654761D02*
X48380952Y-40702380D01*
X48142857Y-40702380D01*
X48047619Y-40654761D01*
X48000000Y-40559523D01*
X48000000Y-40464285D01*
X48047619Y-40369047D01*
X48142857Y-40321428D01*
X48380952Y-40321428D01*
X48476190Y-40273809D01*
X49095238Y-40702380D02*
X49000000Y-40654761D01*
X48952380Y-40559523D01*
X48952380Y-39702380D01*
X49857142Y-40654761D02*
X49761904Y-40702380D01*
X49571428Y-40702380D01*
X49476190Y-40654761D01*
X49428571Y-40559523D01*
X49428571Y-40178571D01*
X49476190Y-40083333D01*
X49571428Y-40035714D01*
X49761904Y-40035714D01*
X49857142Y-40083333D01*
X49904761Y-40178571D01*
X49904761Y-40273809D01*
X49428571Y-40369047D01*
X42466666Y-36952380D02*
X42466666Y-37666666D01*
X42419047Y-37809523D01*
X42323809Y-37904761D01*
X42180952Y-37952380D01*
X42085714Y-37952380D01*
X43085714Y-37380952D02*
X42990476Y-37333333D01*
X42942857Y-37285714D01*
X42895238Y-37190476D01*
X42895238Y-37142857D01*
X42942857Y-37047619D01*
X42990476Y-37000000D01*
X43085714Y-36952380D01*
X43276190Y-36952380D01*
X43371428Y-37000000D01*
X43419047Y-37047619D01*
X43466666Y-37142857D01*
X43466666Y-37190476D01*
X43419047Y-37285714D01*
X43371428Y-37333333D01*
X43276190Y-37380952D01*
X43085714Y-37380952D01*
X42990476Y-37428571D01*
X42942857Y-37476190D01*
X42895238Y-37571428D01*
X42895238Y-37761904D01*
X42942857Y-37857142D01*
X42990476Y-37904761D01*
X43085714Y-37952380D01*
X43276190Y-37952380D01*
X43371428Y-37904761D01*
X43419047Y-37857142D01*
X43466666Y-37761904D01*
X43466666Y-37571428D01*
X43419047Y-37476190D01*
X43371428Y-37428571D01*
X43276190Y-37380952D01*
%TO.C,J9*%
X63214285Y-128107142D02*
X63166666Y-128154761D01*
X63023809Y-128202380D01*
X62928571Y-128202380D01*
X62785714Y-128154761D01*
X62690476Y-128059523D01*
X62642857Y-127964285D01*
X62595238Y-127773809D01*
X62595238Y-127630952D01*
X62642857Y-127440476D01*
X62690476Y-127345238D01*
X62785714Y-127250000D01*
X62928571Y-127202380D01*
X63023809Y-127202380D01*
X63166666Y-127250000D01*
X63214285Y-127297619D01*
X63785714Y-128202380D02*
X63690476Y-128154761D01*
X63642857Y-128107142D01*
X63595238Y-128011904D01*
X63595238Y-127726190D01*
X63642857Y-127630952D01*
X63690476Y-127583333D01*
X63785714Y-127535714D01*
X63928571Y-127535714D01*
X64023809Y-127583333D01*
X64071428Y-127630952D01*
X64119047Y-127726190D01*
X64119047Y-128011904D01*
X64071428Y-128107142D01*
X64023809Y-128154761D01*
X63928571Y-128202380D01*
X63785714Y-128202380D01*
X64547619Y-127535714D02*
X64547619Y-128202380D01*
X64547619Y-127630952D02*
X64595238Y-127583333D01*
X64690476Y-127535714D01*
X64833333Y-127535714D01*
X64928571Y-127583333D01*
X64976190Y-127678571D01*
X64976190Y-128202380D01*
X65452380Y-127535714D02*
X65452380Y-128202380D01*
X65452380Y-127630952D02*
X65500000Y-127583333D01*
X65595238Y-127535714D01*
X65738095Y-127535714D01*
X65833333Y-127583333D01*
X65880952Y-127678571D01*
X65880952Y-128202380D01*
X66119047Y-128297619D02*
X66880952Y-128297619D01*
X67309523Y-127202380D02*
X67404761Y-127202380D01*
X67500000Y-127250000D01*
X67547619Y-127297619D01*
X67595238Y-127392857D01*
X67642857Y-127583333D01*
X67642857Y-127821428D01*
X67595238Y-128011904D01*
X67547619Y-128107142D01*
X67500000Y-128154761D01*
X67404761Y-128202380D01*
X67309523Y-128202380D01*
X67214285Y-128154761D01*
X67166666Y-128107142D01*
X67119047Y-128011904D01*
X67071428Y-127821428D01*
X67071428Y-127583333D01*
X67119047Y-127392857D01*
X67166666Y-127297619D01*
X67214285Y-127250000D01*
X67309523Y-127202380D01*
X68595238Y-128202380D02*
X68023809Y-128202380D01*
X68309523Y-128202380D02*
X68309523Y-127202380D01*
X68214285Y-127345238D01*
X68119047Y-127440476D01*
X68023809Y-127488095D01*
X68928571Y-128202380D02*
X69452380Y-127535714D01*
X68928571Y-127535714D02*
X69452380Y-128202380D01*
X70023809Y-127202380D02*
X70119047Y-127202380D01*
X70214285Y-127250000D01*
X70261904Y-127297619D01*
X70309523Y-127392857D01*
X70357142Y-127583333D01*
X70357142Y-127821428D01*
X70309523Y-128011904D01*
X70261904Y-128107142D01*
X70214285Y-128154761D01*
X70119047Y-128202380D01*
X70023809Y-128202380D01*
X69928571Y-128154761D01*
X69880952Y-128107142D01*
X69833333Y-128011904D01*
X69785714Y-127821428D01*
X69785714Y-127583333D01*
X69833333Y-127392857D01*
X69880952Y-127297619D01*
X69928571Y-127250000D01*
X70023809Y-127202380D01*
X71309523Y-128202380D02*
X70738095Y-128202380D01*
X71023809Y-128202380D02*
X71023809Y-127202380D01*
X70928571Y-127345238D01*
X70833333Y-127440476D01*
X70738095Y-127488095D01*
X71500000Y-128297619D02*
X72261904Y-128297619D01*
X72833333Y-127678571D02*
X72500000Y-127678571D01*
X72500000Y-128202380D02*
X72500000Y-127202380D01*
X72976190Y-127202380D01*
X73738095Y-128154761D02*
X73642857Y-128202380D01*
X73452380Y-128202380D01*
X73357142Y-128154761D01*
X73309523Y-128059523D01*
X73309523Y-127678571D01*
X73357142Y-127583333D01*
X73452380Y-127535714D01*
X73642857Y-127535714D01*
X73738095Y-127583333D01*
X73785714Y-127678571D01*
X73785714Y-127773809D01*
X73309523Y-127869047D01*
X74214285Y-128202380D02*
X74214285Y-127535714D01*
X74214285Y-127630952D02*
X74261904Y-127583333D01*
X74357142Y-127535714D01*
X74500000Y-127535714D01*
X74595238Y-127583333D01*
X74642857Y-127678571D01*
X74642857Y-128202380D01*
X74642857Y-127678571D02*
X74690476Y-127583333D01*
X74785714Y-127535714D01*
X74928571Y-127535714D01*
X75023809Y-127583333D01*
X75071428Y-127678571D01*
X75071428Y-128202380D01*
X75976190Y-128202380D02*
X75976190Y-127678571D01*
X75928571Y-127583333D01*
X75833333Y-127535714D01*
X75642857Y-127535714D01*
X75547619Y-127583333D01*
X75976190Y-128154761D02*
X75880952Y-128202380D01*
X75642857Y-128202380D01*
X75547619Y-128154761D01*
X75500000Y-128059523D01*
X75500000Y-127964285D01*
X75547619Y-127869047D01*
X75642857Y-127821428D01*
X75880952Y-127821428D01*
X75976190Y-127773809D01*
X76595238Y-128202380D02*
X76500000Y-128154761D01*
X76452380Y-128059523D01*
X76452380Y-127202380D01*
X77357142Y-128154761D02*
X77261904Y-128202380D01*
X77071428Y-128202380D01*
X76976190Y-128154761D01*
X76928571Y-128059523D01*
X76928571Y-127678571D01*
X76976190Y-127583333D01*
X77071428Y-127535714D01*
X77261904Y-127535714D01*
X77357142Y-127583333D01*
X77404761Y-127678571D01*
X77404761Y-127773809D01*
X76928571Y-127869047D01*
X69966666Y-124452380D02*
X69966666Y-125166666D01*
X69919047Y-125309523D01*
X69823809Y-125404761D01*
X69680952Y-125452380D01*
X69585714Y-125452380D01*
X70490476Y-125452380D02*
X70680952Y-125452380D01*
X70776190Y-125404761D01*
X70823809Y-125357142D01*
X70919047Y-125214285D01*
X70966666Y-125023809D01*
X70966666Y-124642857D01*
X70919047Y-124547619D01*
X70871428Y-124500000D01*
X70776190Y-124452380D01*
X70585714Y-124452380D01*
X70490476Y-124500000D01*
X70442857Y-124547619D01*
X70395238Y-124642857D01*
X70395238Y-124880952D01*
X70442857Y-124976190D01*
X70490476Y-125023809D01*
X70585714Y-125071428D01*
X70776190Y-125071428D01*
X70871428Y-125023809D01*
X70919047Y-124976190D01*
X70966666Y-124880952D01*
%TO.C,R1*%
X63532380Y-67206666D02*
X63532380Y-67778095D01*
X63532380Y-67492380D02*
X62532380Y-67492380D01*
X62675238Y-67587619D01*
X62770476Y-67682857D01*
X62818095Y-67778095D01*
X62532380Y-66587619D02*
X62532380Y-66492380D01*
X62580000Y-66397142D01*
X62627619Y-66349523D01*
X62722857Y-66301904D01*
X62913333Y-66254285D01*
X63151428Y-66254285D01*
X63341904Y-66301904D01*
X63437142Y-66349523D01*
X63484761Y-66397142D01*
X63532380Y-66492380D01*
X63532380Y-66587619D01*
X63484761Y-66682857D01*
X63437142Y-66730476D01*
X63341904Y-66778095D01*
X63151428Y-66825714D01*
X62913333Y-66825714D01*
X62722857Y-66778095D01*
X62627619Y-66730476D01*
X62580000Y-66682857D01*
X62532380Y-66587619D01*
X62532380Y-65635238D02*
X62532380Y-65540000D01*
X62580000Y-65444761D01*
X62627619Y-65397142D01*
X62722857Y-65349523D01*
X62913333Y-65301904D01*
X63151428Y-65301904D01*
X63341904Y-65349523D01*
X63437142Y-65397142D01*
X63484761Y-65444761D01*
X63532380Y-65540000D01*
X63532380Y-65635238D01*
X63484761Y-65730476D01*
X63437142Y-65778095D01*
X63341904Y-65825714D01*
X63151428Y-65873333D01*
X62913333Y-65873333D01*
X62722857Y-65825714D01*
X62627619Y-65778095D01*
X62580000Y-65730476D01*
X62532380Y-65635238D01*
D13*
X65325714Y-66660000D02*
X64982857Y-66900000D01*
X65325714Y-67071428D02*
X64605714Y-67071428D01*
X64605714Y-66797142D01*
X64640000Y-66728571D01*
X64674285Y-66694285D01*
X64742857Y-66660000D01*
X64845714Y-66660000D01*
X64914285Y-66694285D01*
X64948571Y-66728571D01*
X64982857Y-66797142D01*
X64982857Y-67071428D01*
X65325714Y-65974285D02*
X65325714Y-66385714D01*
X65325714Y-66180000D02*
X64605714Y-66180000D01*
X64708571Y-66248571D01*
X64777142Y-66317142D01*
X64811428Y-66385714D01*
%TO.C,R2*%
D11*
X52365714Y-81769523D02*
X53032380Y-81769523D01*
X51984761Y-82007619D02*
X52699047Y-82245714D01*
X52699047Y-81626666D01*
X53032380Y-81245714D02*
X52032380Y-81245714D01*
X53032380Y-80674285D02*
X52460952Y-81102857D01*
X52032380Y-80674285D02*
X52603809Y-81245714D01*
D13*
X54825714Y-81580000D02*
X54482857Y-81820000D01*
X54825714Y-81991428D02*
X54105714Y-81991428D01*
X54105714Y-81717142D01*
X54140000Y-81648571D01*
X54174285Y-81614285D01*
X54242857Y-81580000D01*
X54345714Y-81580000D01*
X54414285Y-81614285D01*
X54448571Y-81648571D01*
X54482857Y-81717142D01*
X54482857Y-81991428D01*
X54174285Y-81305714D02*
X54140000Y-81271428D01*
X54105714Y-81202857D01*
X54105714Y-81031428D01*
X54140000Y-80962857D01*
X54174285Y-80928571D01*
X54242857Y-80894285D01*
X54311428Y-80894285D01*
X54414285Y-80928571D01*
X54825714Y-81340000D01*
X54825714Y-80894285D01*
%TO.C,R3*%
D11*
X45705714Y-67483809D02*
X46372380Y-67483809D01*
X45324761Y-67721904D02*
X46039047Y-67960000D01*
X46039047Y-67340952D01*
X46277142Y-66960000D02*
X46324761Y-66912380D01*
X46372380Y-66960000D01*
X46324761Y-67007619D01*
X46277142Y-66960000D01*
X46372380Y-66960000D01*
X45372380Y-66579047D02*
X45372380Y-65912380D01*
X46372380Y-66340952D01*
X46372380Y-65531428D02*
X45372380Y-65531428D01*
X46372380Y-64960000D02*
X45800952Y-65388571D01*
X45372380Y-64960000D02*
X45943809Y-65531428D01*
D13*
X44325714Y-66580000D02*
X43982857Y-66820000D01*
X44325714Y-66991428D02*
X43605714Y-66991428D01*
X43605714Y-66717142D01*
X43640000Y-66648571D01*
X43674285Y-66614285D01*
X43742857Y-66580000D01*
X43845714Y-66580000D01*
X43914285Y-66614285D01*
X43948571Y-66648571D01*
X43982857Y-66717142D01*
X43982857Y-66991428D01*
X43605714Y-66340000D02*
X43605714Y-65894285D01*
X43880000Y-66134285D01*
X43880000Y-66031428D01*
X43914285Y-65962857D01*
X43948571Y-65928571D01*
X44017142Y-65894285D01*
X44188571Y-65894285D01*
X44257142Y-65928571D01*
X44291428Y-65962857D01*
X44325714Y-66031428D01*
X44325714Y-66237142D01*
X44291428Y-66305714D01*
X44257142Y-66340000D01*
%TO.C,R4*%
D11*
X55436190Y-61865714D02*
X55436190Y-62532380D01*
X55198095Y-61484761D02*
X54960000Y-62199047D01*
X55579047Y-62199047D01*
X55960000Y-62437142D02*
X56007619Y-62484761D01*
X55960000Y-62532380D01*
X55912380Y-62484761D01*
X55960000Y-62437142D01*
X55960000Y-62532380D01*
X56340952Y-61532380D02*
X57007619Y-61532380D01*
X56579047Y-62532380D01*
X57388571Y-62532380D02*
X57388571Y-61532380D01*
X57960000Y-62532380D02*
X57531428Y-61960952D01*
X57960000Y-61532380D02*
X57388571Y-62103809D01*
D13*
X56340000Y-64325714D02*
X56100000Y-63982857D01*
X55928571Y-64325714D02*
X55928571Y-63605714D01*
X56202857Y-63605714D01*
X56271428Y-63640000D01*
X56305714Y-63674285D01*
X56340000Y-63742857D01*
X56340000Y-63845714D01*
X56305714Y-63914285D01*
X56271428Y-63948571D01*
X56202857Y-63982857D01*
X55928571Y-63982857D01*
X56957142Y-63845714D02*
X56957142Y-64325714D01*
X56785714Y-63571428D02*
X56614285Y-64085714D01*
X57060000Y-64085714D01*
%TO.C,R5*%
D11*
X45865714Y-67301904D02*
X46532380Y-67301904D01*
X45484761Y-67540000D02*
X46199047Y-67778095D01*
X46199047Y-67159047D01*
X45532380Y-66873333D02*
X45532380Y-66206666D01*
X46532380Y-66635238D01*
X45532380Y-65635238D02*
X45532380Y-65540000D01*
X45580000Y-65444761D01*
X45627619Y-65397142D01*
X45722857Y-65349523D01*
X45913333Y-65301904D01*
X46151428Y-65301904D01*
X46341904Y-65349523D01*
X46437142Y-65397142D01*
X46484761Y-65444761D01*
X46532380Y-65540000D01*
X46532380Y-65635238D01*
X46484761Y-65730476D01*
X46437142Y-65778095D01*
X46341904Y-65825714D01*
X46151428Y-65873333D01*
X45913333Y-65873333D01*
X45722857Y-65825714D01*
X45627619Y-65778095D01*
X45580000Y-65730476D01*
X45532380Y-65635238D01*
D13*
X48325714Y-66660000D02*
X47982857Y-66900000D01*
X48325714Y-67071428D02*
X47605714Y-67071428D01*
X47605714Y-66797142D01*
X47640000Y-66728571D01*
X47674285Y-66694285D01*
X47742857Y-66660000D01*
X47845714Y-66660000D01*
X47914285Y-66694285D01*
X47948571Y-66728571D01*
X47982857Y-66797142D01*
X47982857Y-67071428D01*
X47605714Y-66008571D02*
X47605714Y-66351428D01*
X47948571Y-66385714D01*
X47914285Y-66351428D01*
X47880000Y-66282857D01*
X47880000Y-66111428D01*
X47914285Y-66042857D01*
X47948571Y-66008571D01*
X48017142Y-65974285D01*
X48188571Y-65974285D01*
X48257142Y-66008571D01*
X48291428Y-66042857D01*
X48325714Y-66111428D01*
X48325714Y-66282857D01*
X48291428Y-66351428D01*
X48257142Y-66385714D01*
%TO.C,R6*%
D11*
X51221904Y-109372380D02*
X50745714Y-109372380D01*
X50698095Y-109848571D01*
X50745714Y-109800952D01*
X50840952Y-109753333D01*
X51079047Y-109753333D01*
X51174285Y-109800952D01*
X51221904Y-109848571D01*
X51269523Y-109943809D01*
X51269523Y-110181904D01*
X51221904Y-110277142D01*
X51174285Y-110324761D01*
X51079047Y-110372380D01*
X50840952Y-110372380D01*
X50745714Y-110324761D01*
X50698095Y-110277142D01*
X52126666Y-109372380D02*
X51936190Y-109372380D01*
X51840952Y-109420000D01*
X51793333Y-109467619D01*
X51698095Y-109610476D01*
X51650476Y-109800952D01*
X51650476Y-110181904D01*
X51698095Y-110277142D01*
X51745714Y-110324761D01*
X51840952Y-110372380D01*
X52031428Y-110372380D01*
X52126666Y-110324761D01*
X52174285Y-110277142D01*
X52221904Y-110181904D01*
X52221904Y-109943809D01*
X52174285Y-109848571D01*
X52126666Y-109800952D01*
X52031428Y-109753333D01*
X51840952Y-109753333D01*
X51745714Y-109800952D01*
X51698095Y-109848571D01*
X51650476Y-109943809D01*
X52650476Y-110372380D02*
X52650476Y-109372380D01*
X53221904Y-110372380D02*
X52793333Y-109800952D01*
X53221904Y-109372380D02*
X52650476Y-109943809D01*
D13*
X51840000Y-108325714D02*
X51600000Y-107982857D01*
X51428571Y-108325714D02*
X51428571Y-107605714D01*
X51702857Y-107605714D01*
X51771428Y-107640000D01*
X51805714Y-107674285D01*
X51840000Y-107742857D01*
X51840000Y-107845714D01*
X51805714Y-107914285D01*
X51771428Y-107948571D01*
X51702857Y-107982857D01*
X51428571Y-107982857D01*
X52457142Y-107605714D02*
X52320000Y-107605714D01*
X52251428Y-107640000D01*
X52217142Y-107674285D01*
X52148571Y-107777142D01*
X52114285Y-107914285D01*
X52114285Y-108188571D01*
X52148571Y-108257142D01*
X52182857Y-108291428D01*
X52251428Y-108325714D01*
X52388571Y-108325714D01*
X52457142Y-108291428D01*
X52491428Y-108257142D01*
X52525714Y-108188571D01*
X52525714Y-108017142D01*
X52491428Y-107948571D01*
X52457142Y-107914285D01*
X52388571Y-107880000D01*
X52251428Y-107880000D01*
X52182857Y-107914285D01*
X52148571Y-107948571D01*
X52114285Y-108017142D01*
%TO.C,R7*%
D11*
X45032380Y-107825714D02*
X45032380Y-108397142D01*
X45032380Y-108111428D02*
X44032380Y-108111428D01*
X44175238Y-108206666D01*
X44270476Y-108301904D01*
X44318095Y-108397142D01*
X45032380Y-107397142D02*
X44032380Y-107397142D01*
X44746666Y-107063809D01*
X44032380Y-106730476D01*
X45032380Y-106730476D01*
D13*
X46825714Y-107660000D02*
X46482857Y-107900000D01*
X46825714Y-108071428D02*
X46105714Y-108071428D01*
X46105714Y-107797142D01*
X46140000Y-107728571D01*
X46174285Y-107694285D01*
X46242857Y-107660000D01*
X46345714Y-107660000D01*
X46414285Y-107694285D01*
X46448571Y-107728571D01*
X46482857Y-107797142D01*
X46482857Y-108071428D01*
X46105714Y-107420000D02*
X46105714Y-106940000D01*
X46825714Y-107248571D01*
%TO.C,R8*%
D11*
X66865714Y-67301904D02*
X67532380Y-67301904D01*
X66484761Y-67540000D02*
X67199047Y-67778095D01*
X67199047Y-67159047D01*
X66532380Y-66873333D02*
X66532380Y-66206666D01*
X67532380Y-66635238D01*
X66532380Y-65635238D02*
X66532380Y-65540000D01*
X66580000Y-65444761D01*
X66627619Y-65397142D01*
X66722857Y-65349523D01*
X66913333Y-65301904D01*
X67151428Y-65301904D01*
X67341904Y-65349523D01*
X67437142Y-65397142D01*
X67484761Y-65444761D01*
X67532380Y-65540000D01*
X67532380Y-65635238D01*
X67484761Y-65730476D01*
X67437142Y-65778095D01*
X67341904Y-65825714D01*
X67151428Y-65873333D01*
X66913333Y-65873333D01*
X66722857Y-65825714D01*
X66627619Y-65778095D01*
X66580000Y-65730476D01*
X66532380Y-65635238D01*
D13*
X69325714Y-66660000D02*
X68982857Y-66900000D01*
X69325714Y-67071428D02*
X68605714Y-67071428D01*
X68605714Y-66797142D01*
X68640000Y-66728571D01*
X68674285Y-66694285D01*
X68742857Y-66660000D01*
X68845714Y-66660000D01*
X68914285Y-66694285D01*
X68948571Y-66728571D01*
X68982857Y-66797142D01*
X68982857Y-67071428D01*
X68914285Y-66248571D02*
X68880000Y-66317142D01*
X68845714Y-66351428D01*
X68777142Y-66385714D01*
X68742857Y-66385714D01*
X68674285Y-66351428D01*
X68640000Y-66317142D01*
X68605714Y-66248571D01*
X68605714Y-66111428D01*
X68640000Y-66042857D01*
X68674285Y-66008571D01*
X68742857Y-65974285D01*
X68777142Y-65974285D01*
X68845714Y-66008571D01*
X68880000Y-66042857D01*
X68914285Y-66111428D01*
X68914285Y-66248571D01*
X68948571Y-66317142D01*
X68982857Y-66351428D01*
X69051428Y-66385714D01*
X69188571Y-66385714D01*
X69257142Y-66351428D01*
X69291428Y-66317142D01*
X69325714Y-66248571D01*
X69325714Y-66111428D01*
X69291428Y-66042857D01*
X69257142Y-66008571D01*
X69188571Y-65974285D01*
X69051428Y-65974285D01*
X68982857Y-66008571D01*
X68948571Y-66042857D01*
X68914285Y-66111428D01*
%TO.C,R9*%
D11*
X46293333Y-93372380D02*
X45721904Y-93372380D01*
X46007619Y-93372380D02*
X46007619Y-92372380D01*
X45912380Y-92515238D01*
X45817142Y-92610476D01*
X45721904Y-92658095D01*
X46912380Y-92372380D02*
X47007619Y-92372380D01*
X47102857Y-92420000D01*
X47150476Y-92467619D01*
X47198095Y-92562857D01*
X47245714Y-92753333D01*
X47245714Y-92991428D01*
X47198095Y-93181904D01*
X47150476Y-93277142D01*
X47102857Y-93324761D01*
X47007619Y-93372380D01*
X46912380Y-93372380D01*
X46817142Y-93324761D01*
X46769523Y-93277142D01*
X46721904Y-93181904D01*
X46674285Y-92991428D01*
X46674285Y-92753333D01*
X46721904Y-92562857D01*
X46769523Y-92467619D01*
X46817142Y-92420000D01*
X46912380Y-92372380D01*
X47864761Y-92372380D02*
X47960000Y-92372380D01*
X48055238Y-92420000D01*
X48102857Y-92467619D01*
X48150476Y-92562857D01*
X48198095Y-92753333D01*
X48198095Y-92991428D01*
X48150476Y-93181904D01*
X48102857Y-93277142D01*
X48055238Y-93324761D01*
X47960000Y-93372380D01*
X47864761Y-93372380D01*
X47769523Y-93324761D01*
X47721904Y-93277142D01*
X47674285Y-93181904D01*
X47626666Y-92991428D01*
X47626666Y-92753333D01*
X47674285Y-92562857D01*
X47721904Y-92467619D01*
X47769523Y-92420000D01*
X47864761Y-92372380D01*
D13*
X46840000Y-91325714D02*
X46600000Y-90982857D01*
X46428571Y-91325714D02*
X46428571Y-90605714D01*
X46702857Y-90605714D01*
X46771428Y-90640000D01*
X46805714Y-90674285D01*
X46840000Y-90742857D01*
X46840000Y-90845714D01*
X46805714Y-90914285D01*
X46771428Y-90948571D01*
X46702857Y-90982857D01*
X46428571Y-90982857D01*
X47182857Y-91325714D02*
X47320000Y-91325714D01*
X47388571Y-91291428D01*
X47422857Y-91257142D01*
X47491428Y-91154285D01*
X47525714Y-91017142D01*
X47525714Y-90742857D01*
X47491428Y-90674285D01*
X47457142Y-90640000D01*
X47388571Y-90605714D01*
X47251428Y-90605714D01*
X47182857Y-90640000D01*
X47148571Y-90674285D01*
X47114285Y-90742857D01*
X47114285Y-90914285D01*
X47148571Y-90982857D01*
X47182857Y-91017142D01*
X47251428Y-91051428D01*
X47388571Y-91051428D01*
X47457142Y-91017142D01*
X47491428Y-90982857D01*
X47525714Y-90914285D01*
%TO.C,R10*%
D11*
X59301904Y-105532380D02*
X58825714Y-105532380D01*
X58778095Y-106008571D01*
X58825714Y-105960952D01*
X58920952Y-105913333D01*
X59159047Y-105913333D01*
X59254285Y-105960952D01*
X59301904Y-106008571D01*
X59349523Y-106103809D01*
X59349523Y-106341904D01*
X59301904Y-106437142D01*
X59254285Y-106484761D01*
X59159047Y-106532380D01*
X58920952Y-106532380D01*
X58825714Y-106484761D01*
X58778095Y-106437142D01*
X60206666Y-105532380D02*
X60016190Y-105532380D01*
X59920952Y-105580000D01*
X59873333Y-105627619D01*
X59778095Y-105770476D01*
X59730476Y-105960952D01*
X59730476Y-106341904D01*
X59778095Y-106437142D01*
X59825714Y-106484761D01*
X59920952Y-106532380D01*
X60111428Y-106532380D01*
X60206666Y-106484761D01*
X60254285Y-106437142D01*
X60301904Y-106341904D01*
X60301904Y-106103809D01*
X60254285Y-106008571D01*
X60206666Y-105960952D01*
X60111428Y-105913333D01*
X59920952Y-105913333D01*
X59825714Y-105960952D01*
X59778095Y-106008571D01*
X59730476Y-106103809D01*
X60730476Y-106532380D02*
X60730476Y-105532380D01*
X61301904Y-106532380D02*
X60873333Y-105960952D01*
X61301904Y-105532380D02*
X60730476Y-106103809D01*
D13*
X59577142Y-108325714D02*
X59337142Y-107982857D01*
X59165714Y-108325714D02*
X59165714Y-107605714D01*
X59440000Y-107605714D01*
X59508571Y-107640000D01*
X59542857Y-107674285D01*
X59577142Y-107742857D01*
X59577142Y-107845714D01*
X59542857Y-107914285D01*
X59508571Y-107948571D01*
X59440000Y-107982857D01*
X59165714Y-107982857D01*
X60262857Y-108325714D02*
X59851428Y-108325714D01*
X60057142Y-108325714D02*
X60057142Y-107605714D01*
X59988571Y-107708571D01*
X59920000Y-107777142D01*
X59851428Y-107811428D01*
X60708571Y-107605714D02*
X60777142Y-107605714D01*
X60845714Y-107640000D01*
X60880000Y-107674285D01*
X60914285Y-107742857D01*
X60948571Y-107880000D01*
X60948571Y-108051428D01*
X60914285Y-108188571D01*
X60880000Y-108257142D01*
X60845714Y-108291428D01*
X60777142Y-108325714D01*
X60708571Y-108325714D01*
X60640000Y-108291428D01*
X60605714Y-108257142D01*
X60571428Y-108188571D01*
X60537142Y-108051428D01*
X60537142Y-107880000D01*
X60571428Y-107742857D01*
X60605714Y-107674285D01*
X60640000Y-107640000D01*
X60708571Y-107605714D01*
%TO.C,U1*%
D11*
X44547142Y-76502380D02*
X44547142Y-75502380D01*
X45118571Y-76502380D01*
X45118571Y-75502380D01*
X45594761Y-75978571D02*
X45928095Y-75978571D01*
X46070952Y-76502380D02*
X45594761Y-76502380D01*
X45594761Y-75502380D01*
X46070952Y-75502380D01*
X46975714Y-75502380D02*
X46499523Y-75502380D01*
X46451904Y-75978571D01*
X46499523Y-75930952D01*
X46594761Y-75883333D01*
X46832857Y-75883333D01*
X46928095Y-75930952D01*
X46975714Y-75978571D01*
X47023333Y-76073809D01*
X47023333Y-76311904D01*
X46975714Y-76407142D01*
X46928095Y-76454761D01*
X46832857Y-76502380D01*
X46594761Y-76502380D01*
X46499523Y-76454761D01*
X46451904Y-76407142D01*
X47928095Y-75502380D02*
X47451904Y-75502380D01*
X47404285Y-75978571D01*
X47451904Y-75930952D01*
X47547142Y-75883333D01*
X47785238Y-75883333D01*
X47880476Y-75930952D01*
X47928095Y-75978571D01*
X47975714Y-76073809D01*
X47975714Y-76311904D01*
X47928095Y-76407142D01*
X47880476Y-76454761D01*
X47785238Y-76502380D01*
X47547142Y-76502380D01*
X47451904Y-76454761D01*
X47404285Y-76407142D01*
X48309047Y-75502380D02*
X48928095Y-75502380D01*
X48594761Y-75883333D01*
X48737619Y-75883333D01*
X48832857Y-75930952D01*
X48880476Y-75978571D01*
X48928095Y-76073809D01*
X48928095Y-76311904D01*
X48880476Y-76407142D01*
X48832857Y-76454761D01*
X48737619Y-76502380D01*
X48451904Y-76502380D01*
X48356666Y-76454761D01*
X48309047Y-76407142D01*
X49785238Y-75835714D02*
X49785238Y-76502380D01*
X49547142Y-75454761D02*
X49309047Y-76169047D01*
X49928095Y-76169047D01*
X46428095Y-81642380D02*
X46428095Y-82451904D01*
X46475714Y-82547142D01*
X46523333Y-82594761D01*
X46618571Y-82642380D01*
X46809047Y-82642380D01*
X46904285Y-82594761D01*
X46951904Y-82547142D01*
X46999523Y-82451904D01*
X46999523Y-81642380D01*
X47999523Y-82642380D02*
X47428095Y-82642380D01*
X47713809Y-82642380D02*
X47713809Y-81642380D01*
X47618571Y-81785238D01*
X47523333Y-81880476D01*
X47428095Y-81928095D01*
%TO.C,C10*%
X61583333Y-75785714D02*
X61583333Y-76452380D01*
X61345238Y-75404761D02*
X61107142Y-76119047D01*
X61726190Y-76119047D01*
X62011904Y-75452380D02*
X62678571Y-75452380D01*
X62250000Y-76452380D01*
X63488095Y-75785714D02*
X63488095Y-76452380D01*
X63059523Y-75785714D02*
X63059523Y-76309523D01*
X63107142Y-76404761D01*
X63202380Y-76452380D01*
X63345238Y-76452380D01*
X63440476Y-76404761D01*
X63488095Y-76357142D01*
X64297619Y-75928571D02*
X63964285Y-75928571D01*
X63964285Y-76452380D02*
X63964285Y-75452380D01*
X64440476Y-75452380D01*
%TO.C,D4*%
X48167142Y-104572380D02*
X47595714Y-104572380D01*
X47881428Y-104572380D02*
X47881428Y-103572380D01*
X47786190Y-103715238D01*
X47690952Y-103810476D01*
X47595714Y-103858095D01*
X48595714Y-104572380D02*
X48595714Y-103572380D01*
X49167142Y-104572380D01*
X49167142Y-103572380D01*
X50071904Y-103905714D02*
X50071904Y-104572380D01*
X49833809Y-103524761D02*
X49595714Y-104239047D01*
X50214761Y-104239047D01*
X51119523Y-104572380D02*
X50548095Y-104572380D01*
X50833809Y-104572380D02*
X50833809Y-103572380D01*
X50738571Y-103715238D01*
X50643333Y-103810476D01*
X50548095Y-103858095D01*
X51976666Y-103905714D02*
X51976666Y-104572380D01*
X51738571Y-103524761D02*
X51500476Y-104239047D01*
X52119523Y-104239047D01*
X52643333Y-104000952D02*
X52548095Y-103953333D01*
X52500476Y-103905714D01*
X52452857Y-103810476D01*
X52452857Y-103762857D01*
X52500476Y-103667619D01*
X52548095Y-103620000D01*
X52643333Y-103572380D01*
X52833809Y-103572380D01*
X52929047Y-103620000D01*
X52976666Y-103667619D01*
X53024285Y-103762857D01*
X53024285Y-103810476D01*
X52976666Y-103905714D01*
X52929047Y-103953333D01*
X52833809Y-104000952D01*
X52643333Y-104000952D01*
X52548095Y-104048571D01*
X52500476Y-104096190D01*
X52452857Y-104191428D01*
X52452857Y-104381904D01*
X52500476Y-104477142D01*
X52548095Y-104524761D01*
X52643333Y-104572380D01*
X52833809Y-104572380D01*
X52929047Y-104524761D01*
X52976666Y-104477142D01*
X53024285Y-104381904D01*
X53024285Y-104191428D01*
X52976666Y-104096190D01*
X52929047Y-104048571D01*
X52833809Y-104000952D01*
X46238095Y-100652380D02*
X46238095Y-99652380D01*
X46809523Y-100652380D02*
X46380952Y-100080952D01*
X46809523Y-99652380D02*
X46238095Y-100223809D01*
D12*
X50019523Y-102361904D02*
X50019523Y-101561904D01*
X50210000Y-101561904D01*
X50324285Y-101600000D01*
X50400476Y-101676190D01*
X50438571Y-101752380D01*
X50476666Y-101904761D01*
X50476666Y-102019047D01*
X50438571Y-102171428D01*
X50400476Y-102247619D01*
X50324285Y-102323809D01*
X50210000Y-102361904D01*
X50019523Y-102361904D01*
X51162380Y-101828571D02*
X51162380Y-102361904D01*
X50971904Y-101523809D02*
X50781428Y-102095238D01*
X51276666Y-102095238D01*
%TO.C,D5*%
D11*
X60667142Y-104572380D02*
X60095714Y-104572380D01*
X60381428Y-104572380D02*
X60381428Y-103572380D01*
X60286190Y-103715238D01*
X60190952Y-103810476D01*
X60095714Y-103858095D01*
X61095714Y-104572380D02*
X61095714Y-103572380D01*
X61667142Y-104572380D01*
X61667142Y-103572380D01*
X62571904Y-103905714D02*
X62571904Y-104572380D01*
X62333809Y-103524761D02*
X62095714Y-104239047D01*
X62714761Y-104239047D01*
X63619523Y-104572380D02*
X63048095Y-104572380D01*
X63333809Y-104572380D02*
X63333809Y-103572380D01*
X63238571Y-103715238D01*
X63143333Y-103810476D01*
X63048095Y-103858095D01*
X64476666Y-103905714D02*
X64476666Y-104572380D01*
X64238571Y-103524761D02*
X64000476Y-104239047D01*
X64619523Y-104239047D01*
X65143333Y-104000952D02*
X65048095Y-103953333D01*
X65000476Y-103905714D01*
X64952857Y-103810476D01*
X64952857Y-103762857D01*
X65000476Y-103667619D01*
X65048095Y-103620000D01*
X65143333Y-103572380D01*
X65333809Y-103572380D01*
X65429047Y-103620000D01*
X65476666Y-103667619D01*
X65524285Y-103762857D01*
X65524285Y-103810476D01*
X65476666Y-103905714D01*
X65429047Y-103953333D01*
X65333809Y-104000952D01*
X65143333Y-104000952D01*
X65048095Y-104048571D01*
X65000476Y-104096190D01*
X64952857Y-104191428D01*
X64952857Y-104381904D01*
X65000476Y-104477142D01*
X65048095Y-104524761D01*
X65143333Y-104572380D01*
X65333809Y-104572380D01*
X65429047Y-104524761D01*
X65476666Y-104477142D01*
X65524285Y-104381904D01*
X65524285Y-104191428D01*
X65476666Y-104096190D01*
X65429047Y-104048571D01*
X65333809Y-104000952D01*
D12*
X62334522Y-102536903D02*
X62334522Y-101736903D01*
X62524999Y-101736903D01*
X62639284Y-101774999D01*
X62715475Y-101851189D01*
X62753570Y-101927379D01*
X62791665Y-102079760D01*
X62791665Y-102194046D01*
X62753570Y-102346427D01*
X62715475Y-102422618D01*
X62639284Y-102498808D01*
X62524999Y-102536903D01*
X62334522Y-102536903D01*
X63515475Y-101736903D02*
X63134522Y-101736903D01*
X63096427Y-102117856D01*
X63134522Y-102079760D01*
X63210713Y-102041665D01*
X63401189Y-102041665D01*
X63477379Y-102079760D01*
X63515475Y-102117856D01*
X63553570Y-102194046D01*
X63553570Y-102384522D01*
X63515475Y-102460713D01*
X63477379Y-102498808D01*
X63401189Y-102536903D01*
X63210713Y-102536903D01*
X63134522Y-102498808D01*
X63096427Y-102460713D01*
D11*
X58738095Y-100652380D02*
X58738095Y-99652380D01*
X59309523Y-100652380D02*
X58880952Y-100080952D01*
X59309523Y-99652380D02*
X58738095Y-100223809D01*
%TO.C,J10*%
X59214285Y-122107142D02*
X59166666Y-122154761D01*
X59023809Y-122202380D01*
X58928571Y-122202380D01*
X58785714Y-122154761D01*
X58690476Y-122059523D01*
X58642857Y-121964285D01*
X58595238Y-121773809D01*
X58595238Y-121630952D01*
X58642857Y-121440476D01*
X58690476Y-121345238D01*
X58785714Y-121250000D01*
X58928571Y-121202380D01*
X59023809Y-121202380D01*
X59166666Y-121250000D01*
X59214285Y-121297619D01*
X59785714Y-122202380D02*
X59690476Y-122154761D01*
X59642857Y-122107142D01*
X59595238Y-122011904D01*
X59595238Y-121726190D01*
X59642857Y-121630952D01*
X59690476Y-121583333D01*
X59785714Y-121535714D01*
X59928571Y-121535714D01*
X60023809Y-121583333D01*
X60071428Y-121630952D01*
X60119047Y-121726190D01*
X60119047Y-122011904D01*
X60071428Y-122107142D01*
X60023809Y-122154761D01*
X59928571Y-122202380D01*
X59785714Y-122202380D01*
X60547619Y-121535714D02*
X60547619Y-122202380D01*
X60547619Y-121630952D02*
X60595238Y-121583333D01*
X60690476Y-121535714D01*
X60833333Y-121535714D01*
X60928571Y-121583333D01*
X60976190Y-121678571D01*
X60976190Y-122202380D01*
X61452380Y-121535714D02*
X61452380Y-122202380D01*
X61452380Y-121630952D02*
X61500000Y-121583333D01*
X61595238Y-121535714D01*
X61738095Y-121535714D01*
X61833333Y-121583333D01*
X61880952Y-121678571D01*
X61880952Y-122202380D01*
X62119047Y-122297619D02*
X62880952Y-122297619D01*
X63309523Y-121202380D02*
X63404761Y-121202380D01*
X63500000Y-121250000D01*
X63547619Y-121297619D01*
X63595238Y-121392857D01*
X63642857Y-121583333D01*
X63642857Y-121821428D01*
X63595238Y-122011904D01*
X63547619Y-122107142D01*
X63500000Y-122154761D01*
X63404761Y-122202380D01*
X63309523Y-122202380D01*
X63214285Y-122154761D01*
X63166666Y-122107142D01*
X63119047Y-122011904D01*
X63071428Y-121821428D01*
X63071428Y-121583333D01*
X63119047Y-121392857D01*
X63166666Y-121297619D01*
X63214285Y-121250000D01*
X63309523Y-121202380D01*
X64595238Y-122202380D02*
X64023809Y-122202380D01*
X64309523Y-122202380D02*
X64309523Y-121202380D01*
X64214285Y-121345238D01*
X64119047Y-121440476D01*
X64023809Y-121488095D01*
X64928571Y-122202380D02*
X65452380Y-121535714D01*
X64928571Y-121535714D02*
X65452380Y-122202380D01*
X66023809Y-121202380D02*
X66119047Y-121202380D01*
X66214285Y-121250000D01*
X66261904Y-121297619D01*
X66309523Y-121392857D01*
X66357142Y-121583333D01*
X66357142Y-121821428D01*
X66309523Y-122011904D01*
X66261904Y-122107142D01*
X66214285Y-122154761D01*
X66119047Y-122202380D01*
X66023809Y-122202380D01*
X65928571Y-122154761D01*
X65880952Y-122107142D01*
X65833333Y-122011904D01*
X65785714Y-121821428D01*
X65785714Y-121583333D01*
X65833333Y-121392857D01*
X65880952Y-121297619D01*
X65928571Y-121250000D01*
X66023809Y-121202380D01*
X67309523Y-122202380D02*
X66738095Y-122202380D01*
X67023809Y-122202380D02*
X67023809Y-121202380D01*
X66928571Y-121345238D01*
X66833333Y-121440476D01*
X66738095Y-121488095D01*
X67500000Y-122297619D02*
X68261904Y-122297619D01*
X68833333Y-121678571D02*
X68500000Y-121678571D01*
X68500000Y-122202380D02*
X68500000Y-121202380D01*
X68976190Y-121202380D01*
X69738095Y-122154761D02*
X69642857Y-122202380D01*
X69452380Y-122202380D01*
X69357142Y-122154761D01*
X69309523Y-122059523D01*
X69309523Y-121678571D01*
X69357142Y-121583333D01*
X69452380Y-121535714D01*
X69642857Y-121535714D01*
X69738095Y-121583333D01*
X69785714Y-121678571D01*
X69785714Y-121773809D01*
X69309523Y-121869047D01*
X70214285Y-122202380D02*
X70214285Y-121535714D01*
X70214285Y-121630952D02*
X70261904Y-121583333D01*
X70357142Y-121535714D01*
X70500000Y-121535714D01*
X70595238Y-121583333D01*
X70642857Y-121678571D01*
X70642857Y-122202380D01*
X70642857Y-121678571D02*
X70690476Y-121583333D01*
X70785714Y-121535714D01*
X70928571Y-121535714D01*
X71023809Y-121583333D01*
X71071428Y-121678571D01*
X71071428Y-122202380D01*
X71976190Y-122202380D02*
X71976190Y-121678571D01*
X71928571Y-121583333D01*
X71833333Y-121535714D01*
X71642857Y-121535714D01*
X71547619Y-121583333D01*
X71976190Y-122154761D02*
X71880952Y-122202380D01*
X71642857Y-122202380D01*
X71547619Y-122154761D01*
X71500000Y-122059523D01*
X71500000Y-121964285D01*
X71547619Y-121869047D01*
X71642857Y-121821428D01*
X71880952Y-121821428D01*
X71976190Y-121773809D01*
X72595238Y-122202380D02*
X72500000Y-122154761D01*
X72452380Y-122059523D01*
X72452380Y-121202380D01*
X73357142Y-122154761D02*
X73261904Y-122202380D01*
X73071428Y-122202380D01*
X72976190Y-122154761D01*
X72928571Y-122059523D01*
X72928571Y-121678571D01*
X72976190Y-121583333D01*
X73071428Y-121535714D01*
X73261904Y-121535714D01*
X73357142Y-121583333D01*
X73404761Y-121678571D01*
X73404761Y-121773809D01*
X72928571Y-121869047D01*
X65490476Y-118452380D02*
X65490476Y-119166666D01*
X65442857Y-119309523D01*
X65347619Y-119404761D01*
X65204761Y-119452380D01*
X65109523Y-119452380D01*
X66490476Y-119452380D02*
X65919047Y-119452380D01*
X66204761Y-119452380D02*
X66204761Y-118452380D01*
X66109523Y-118595238D01*
X66014285Y-118690476D01*
X65919047Y-118738095D01*
X67109523Y-118452380D02*
X67204761Y-118452380D01*
X67300000Y-118500000D01*
X67347619Y-118547619D01*
X67395238Y-118642857D01*
X67442857Y-118833333D01*
X67442857Y-119071428D01*
X67395238Y-119261904D01*
X67347619Y-119357142D01*
X67300000Y-119404761D01*
X67204761Y-119452380D01*
X67109523Y-119452380D01*
X67014285Y-119404761D01*
X66966666Y-119357142D01*
X66919047Y-119261904D01*
X66871428Y-119071428D01*
X66871428Y-118833333D01*
X66919047Y-118642857D01*
X66966666Y-118547619D01*
X67014285Y-118500000D01*
X67109523Y-118452380D01*
%TO.C,J11*%
X52214285Y-122107142D02*
X52166666Y-122154761D01*
X52023809Y-122202380D01*
X51928571Y-122202380D01*
X51785714Y-122154761D01*
X51690476Y-122059523D01*
X51642857Y-121964285D01*
X51595238Y-121773809D01*
X51595238Y-121630952D01*
X51642857Y-121440476D01*
X51690476Y-121345238D01*
X51785714Y-121250000D01*
X51928571Y-121202380D01*
X52023809Y-121202380D01*
X52166666Y-121250000D01*
X52214285Y-121297619D01*
X52785714Y-122202380D02*
X52690476Y-122154761D01*
X52642857Y-122107142D01*
X52595238Y-122011904D01*
X52595238Y-121726190D01*
X52642857Y-121630952D01*
X52690476Y-121583333D01*
X52785714Y-121535714D01*
X52928571Y-121535714D01*
X53023809Y-121583333D01*
X53071428Y-121630952D01*
X53119047Y-121726190D01*
X53119047Y-122011904D01*
X53071428Y-122107142D01*
X53023809Y-122154761D01*
X52928571Y-122202380D01*
X52785714Y-122202380D01*
X53547619Y-121535714D02*
X53547619Y-122202380D01*
X53547619Y-121630952D02*
X53595238Y-121583333D01*
X53690476Y-121535714D01*
X53833333Y-121535714D01*
X53928571Y-121583333D01*
X53976190Y-121678571D01*
X53976190Y-122202380D01*
X54452380Y-121535714D02*
X54452380Y-122202380D01*
X54452380Y-121630952D02*
X54500000Y-121583333D01*
X54595238Y-121535714D01*
X54738095Y-121535714D01*
X54833333Y-121583333D01*
X54880952Y-121678571D01*
X54880952Y-122202380D01*
X55119047Y-122297619D02*
X55880952Y-122297619D01*
X56309523Y-121202380D02*
X56404761Y-121202380D01*
X56500000Y-121250000D01*
X56547619Y-121297619D01*
X56595238Y-121392857D01*
X56642857Y-121583333D01*
X56642857Y-121821428D01*
X56595238Y-122011904D01*
X56547619Y-122107142D01*
X56500000Y-122154761D01*
X56404761Y-122202380D01*
X56309523Y-122202380D01*
X56214285Y-122154761D01*
X56166666Y-122107142D01*
X56119047Y-122011904D01*
X56071428Y-121821428D01*
X56071428Y-121583333D01*
X56119047Y-121392857D01*
X56166666Y-121297619D01*
X56214285Y-121250000D01*
X56309523Y-121202380D01*
X57595238Y-122202380D02*
X57023809Y-122202380D01*
X57309523Y-122202380D02*
X57309523Y-121202380D01*
X57214285Y-121345238D01*
X57119047Y-121440476D01*
X57023809Y-121488095D01*
X57928571Y-122202380D02*
X58452380Y-121535714D01*
X57928571Y-121535714D02*
X58452380Y-122202380D01*
X59023809Y-121202380D02*
X59119047Y-121202380D01*
X59214285Y-121250000D01*
X59261904Y-121297619D01*
X59309523Y-121392857D01*
X59357142Y-121583333D01*
X59357142Y-121821428D01*
X59309523Y-122011904D01*
X59261904Y-122107142D01*
X59214285Y-122154761D01*
X59119047Y-122202380D01*
X59023809Y-122202380D01*
X58928571Y-122154761D01*
X58880952Y-122107142D01*
X58833333Y-122011904D01*
X58785714Y-121821428D01*
X58785714Y-121583333D01*
X58833333Y-121392857D01*
X58880952Y-121297619D01*
X58928571Y-121250000D01*
X59023809Y-121202380D01*
X60309523Y-122202380D02*
X59738095Y-122202380D01*
X60023809Y-122202380D02*
X60023809Y-121202380D01*
X59928571Y-121345238D01*
X59833333Y-121440476D01*
X59738095Y-121488095D01*
X60500000Y-122297619D02*
X61261904Y-122297619D01*
X61833333Y-121678571D02*
X61500000Y-121678571D01*
X61500000Y-122202380D02*
X61500000Y-121202380D01*
X61976190Y-121202380D01*
X62738095Y-122154761D02*
X62642857Y-122202380D01*
X62452380Y-122202380D01*
X62357142Y-122154761D01*
X62309523Y-122059523D01*
X62309523Y-121678571D01*
X62357142Y-121583333D01*
X62452380Y-121535714D01*
X62642857Y-121535714D01*
X62738095Y-121583333D01*
X62785714Y-121678571D01*
X62785714Y-121773809D01*
X62309523Y-121869047D01*
X63214285Y-122202380D02*
X63214285Y-121535714D01*
X63214285Y-121630952D02*
X63261904Y-121583333D01*
X63357142Y-121535714D01*
X63500000Y-121535714D01*
X63595238Y-121583333D01*
X63642857Y-121678571D01*
X63642857Y-122202380D01*
X63642857Y-121678571D02*
X63690476Y-121583333D01*
X63785714Y-121535714D01*
X63928571Y-121535714D01*
X64023809Y-121583333D01*
X64071428Y-121678571D01*
X64071428Y-122202380D01*
X64976190Y-122202380D02*
X64976190Y-121678571D01*
X64928571Y-121583333D01*
X64833333Y-121535714D01*
X64642857Y-121535714D01*
X64547619Y-121583333D01*
X64976190Y-122154761D02*
X64880952Y-122202380D01*
X64642857Y-122202380D01*
X64547619Y-122154761D01*
X64500000Y-122059523D01*
X64500000Y-121964285D01*
X64547619Y-121869047D01*
X64642857Y-121821428D01*
X64880952Y-121821428D01*
X64976190Y-121773809D01*
X65595238Y-122202380D02*
X65500000Y-122154761D01*
X65452380Y-122059523D01*
X65452380Y-121202380D01*
X66357142Y-122154761D02*
X66261904Y-122202380D01*
X66071428Y-122202380D01*
X65976190Y-122154761D01*
X65928571Y-122059523D01*
X65928571Y-121678571D01*
X65976190Y-121583333D01*
X66071428Y-121535714D01*
X66261904Y-121535714D01*
X66357142Y-121583333D01*
X66404761Y-121678571D01*
X66404761Y-121773809D01*
X65928571Y-121869047D01*
X58690476Y-118452380D02*
X58690476Y-119166666D01*
X58642857Y-119309523D01*
X58547619Y-119404761D01*
X58404761Y-119452380D01*
X58309523Y-119452380D01*
X59690476Y-119452380D02*
X59119047Y-119452380D01*
X59404761Y-119452380D02*
X59404761Y-118452380D01*
X59309523Y-118595238D01*
X59214285Y-118690476D01*
X59119047Y-118738095D01*
X60642857Y-119452380D02*
X60071428Y-119452380D01*
X60357142Y-119452380D02*
X60357142Y-118452380D01*
X60261904Y-118595238D01*
X60166666Y-118690476D01*
X60071428Y-118738095D01*
%TO.C,R11*%
X65032380Y-107325714D02*
X65032380Y-107897142D01*
X65032380Y-107611428D02*
X64032380Y-107611428D01*
X64175238Y-107706666D01*
X64270476Y-107801904D01*
X64318095Y-107897142D01*
X65032380Y-106897142D02*
X64032380Y-106897142D01*
X64746666Y-106563809D01*
X64032380Y-106230476D01*
X65032380Y-106230476D01*
D13*
X66825714Y-107502857D02*
X66482857Y-107742857D01*
X66825714Y-107914285D02*
X66105714Y-107914285D01*
X66105714Y-107640000D01*
X66140000Y-107571428D01*
X66174285Y-107537142D01*
X66242857Y-107502857D01*
X66345714Y-107502857D01*
X66414285Y-107537142D01*
X66448571Y-107571428D01*
X66482857Y-107640000D01*
X66482857Y-107914285D01*
X66825714Y-106817142D02*
X66825714Y-107228571D01*
X66825714Y-107022857D02*
X66105714Y-107022857D01*
X66208571Y-107091428D01*
X66277142Y-107160000D01*
X66311428Y-107228571D01*
X66825714Y-106131428D02*
X66825714Y-106542857D01*
X66825714Y-106337142D02*
X66105714Y-106337142D01*
X66208571Y-106405714D01*
X66277142Y-106474285D01*
X66311428Y-106542857D01*
%TO.C,R12*%
D11*
X64873333Y-93372380D02*
X64301904Y-93372380D01*
X64587619Y-93372380D02*
X64587619Y-92372380D01*
X64492380Y-92515238D01*
X64397142Y-92610476D01*
X64301904Y-92658095D01*
X65492380Y-92372380D02*
X65587619Y-92372380D01*
X65682857Y-92420000D01*
X65730476Y-92467619D01*
X65778095Y-92562857D01*
X65825714Y-92753333D01*
X65825714Y-92991428D01*
X65778095Y-93181904D01*
X65730476Y-93277142D01*
X65682857Y-93324761D01*
X65587619Y-93372380D01*
X65492380Y-93372380D01*
X65397142Y-93324761D01*
X65349523Y-93277142D01*
X65301904Y-93181904D01*
X65254285Y-92991428D01*
X65254285Y-92753333D01*
X65301904Y-92562857D01*
X65349523Y-92467619D01*
X65397142Y-92420000D01*
X65492380Y-92372380D01*
X66444761Y-92372380D02*
X66540000Y-92372380D01*
X66635238Y-92420000D01*
X66682857Y-92467619D01*
X66730476Y-92562857D01*
X66778095Y-92753333D01*
X66778095Y-92991428D01*
X66730476Y-93181904D01*
X66682857Y-93277142D01*
X66635238Y-93324761D01*
X66540000Y-93372380D01*
X66444761Y-93372380D01*
X66349523Y-93324761D01*
X66301904Y-93277142D01*
X66254285Y-93181904D01*
X66206666Y-92991428D01*
X66206666Y-92753333D01*
X66254285Y-92562857D01*
X66301904Y-92467619D01*
X66349523Y-92420000D01*
X66444761Y-92372380D01*
D13*
X65077142Y-91325714D02*
X64837142Y-90982857D01*
X64665714Y-91325714D02*
X64665714Y-90605714D01*
X64940000Y-90605714D01*
X65008571Y-90640000D01*
X65042857Y-90674285D01*
X65077142Y-90742857D01*
X65077142Y-90845714D01*
X65042857Y-90914285D01*
X65008571Y-90948571D01*
X64940000Y-90982857D01*
X64665714Y-90982857D01*
X65762857Y-91325714D02*
X65351428Y-91325714D01*
X65557142Y-91325714D02*
X65557142Y-90605714D01*
X65488571Y-90708571D01*
X65420000Y-90777142D01*
X65351428Y-90811428D01*
X66037142Y-90674285D02*
X66071428Y-90640000D01*
X66140000Y-90605714D01*
X66311428Y-90605714D01*
X66380000Y-90640000D01*
X66414285Y-90674285D01*
X66448571Y-90742857D01*
X66448571Y-90811428D01*
X66414285Y-90914285D01*
X66002857Y-91325714D01*
X66448571Y-91325714D01*
%TO.C,R13*%
D11*
X56365714Y-81849523D02*
X57032380Y-81849523D01*
X55984761Y-82087619D02*
X56699047Y-82325714D01*
X56699047Y-81706666D01*
X57032380Y-81325714D02*
X56032380Y-81325714D01*
X57032380Y-80754285D02*
X56460952Y-81182857D01*
X56032380Y-80754285D02*
X56603809Y-81325714D01*
D13*
X58825714Y-82002857D02*
X58482857Y-82242857D01*
X58825714Y-82414285D02*
X58105714Y-82414285D01*
X58105714Y-82140000D01*
X58140000Y-82071428D01*
X58174285Y-82037142D01*
X58242857Y-82002857D01*
X58345714Y-82002857D01*
X58414285Y-82037142D01*
X58448571Y-82071428D01*
X58482857Y-82140000D01*
X58482857Y-82414285D01*
X58825714Y-81317142D02*
X58825714Y-81728571D01*
X58825714Y-81522857D02*
X58105714Y-81522857D01*
X58208571Y-81591428D01*
X58277142Y-81660000D01*
X58311428Y-81728571D01*
X58105714Y-81077142D02*
X58105714Y-80631428D01*
X58380000Y-80871428D01*
X58380000Y-80768571D01*
X58414285Y-80700000D01*
X58448571Y-80665714D01*
X58517142Y-80631428D01*
X58688571Y-80631428D01*
X58757142Y-80665714D01*
X58791428Y-80700000D01*
X58825714Y-80768571D01*
X58825714Y-80974285D01*
X58791428Y-81042857D01*
X58757142Y-81077142D01*
%TO.C,J2*%
D11*
X49214285Y-43107142D02*
X49166666Y-43154761D01*
X49023809Y-43202380D01*
X48928571Y-43202380D01*
X48785714Y-43154761D01*
X48690476Y-43059523D01*
X48642857Y-42964285D01*
X48595238Y-42773809D01*
X48595238Y-42630952D01*
X48642857Y-42440476D01*
X48690476Y-42345238D01*
X48785714Y-42250000D01*
X48928571Y-42202380D01*
X49023809Y-42202380D01*
X49166666Y-42250000D01*
X49214285Y-42297619D01*
X49785714Y-43202380D02*
X49690476Y-43154761D01*
X49642857Y-43107142D01*
X49595238Y-43011904D01*
X49595238Y-42726190D01*
X49642857Y-42630952D01*
X49690476Y-42583333D01*
X49785714Y-42535714D01*
X49928571Y-42535714D01*
X50023809Y-42583333D01*
X50071428Y-42630952D01*
X50119047Y-42726190D01*
X50119047Y-43011904D01*
X50071428Y-43107142D01*
X50023809Y-43154761D01*
X49928571Y-43202380D01*
X49785714Y-43202380D01*
X50547619Y-42535714D02*
X50547619Y-43202380D01*
X50547619Y-42630952D02*
X50595238Y-42583333D01*
X50690476Y-42535714D01*
X50833333Y-42535714D01*
X50928571Y-42583333D01*
X50976190Y-42678571D01*
X50976190Y-43202380D01*
X51452380Y-42535714D02*
X51452380Y-43202380D01*
X51452380Y-42630952D02*
X51500000Y-42583333D01*
X51595238Y-42535714D01*
X51738095Y-42535714D01*
X51833333Y-42583333D01*
X51880952Y-42678571D01*
X51880952Y-43202380D01*
X52119047Y-43297619D02*
X52880952Y-43297619D01*
X53309523Y-42202380D02*
X53404761Y-42202380D01*
X53500000Y-42250000D01*
X53547619Y-42297619D01*
X53595238Y-42392857D01*
X53642857Y-42583333D01*
X53642857Y-42821428D01*
X53595238Y-43011904D01*
X53547619Y-43107142D01*
X53500000Y-43154761D01*
X53404761Y-43202380D01*
X53309523Y-43202380D01*
X53214285Y-43154761D01*
X53166666Y-43107142D01*
X53119047Y-43011904D01*
X53071428Y-42821428D01*
X53071428Y-42583333D01*
X53119047Y-42392857D01*
X53166666Y-42297619D01*
X53214285Y-42250000D01*
X53309523Y-42202380D01*
X54595238Y-43202380D02*
X54023809Y-43202380D01*
X54309523Y-43202380D02*
X54309523Y-42202380D01*
X54214285Y-42345238D01*
X54119047Y-42440476D01*
X54023809Y-42488095D01*
X54928571Y-43202380D02*
X55452380Y-42535714D01*
X54928571Y-42535714D02*
X55452380Y-43202380D01*
X56023809Y-42202380D02*
X56119047Y-42202380D01*
X56214285Y-42250000D01*
X56261904Y-42297619D01*
X56309523Y-42392857D01*
X56357142Y-42583333D01*
X56357142Y-42821428D01*
X56309523Y-43011904D01*
X56261904Y-43107142D01*
X56214285Y-43154761D01*
X56119047Y-43202380D01*
X56023809Y-43202380D01*
X55928571Y-43154761D01*
X55880952Y-43107142D01*
X55833333Y-43011904D01*
X55785714Y-42821428D01*
X55785714Y-42583333D01*
X55833333Y-42392857D01*
X55880952Y-42297619D01*
X55928571Y-42250000D01*
X56023809Y-42202380D01*
X57309523Y-43202380D02*
X56738095Y-43202380D01*
X57023809Y-43202380D02*
X57023809Y-42202380D01*
X56928571Y-42345238D01*
X56833333Y-42440476D01*
X56738095Y-42488095D01*
X57500000Y-43297619D02*
X58261904Y-43297619D01*
X58833333Y-42678571D02*
X58500000Y-42678571D01*
X58500000Y-43202380D02*
X58500000Y-42202380D01*
X58976190Y-42202380D01*
X59738095Y-43154761D02*
X59642857Y-43202380D01*
X59452380Y-43202380D01*
X59357142Y-43154761D01*
X59309523Y-43059523D01*
X59309523Y-42678571D01*
X59357142Y-42583333D01*
X59452380Y-42535714D01*
X59642857Y-42535714D01*
X59738095Y-42583333D01*
X59785714Y-42678571D01*
X59785714Y-42773809D01*
X59309523Y-42869047D01*
X60214285Y-43202380D02*
X60214285Y-42535714D01*
X60214285Y-42630952D02*
X60261904Y-42583333D01*
X60357142Y-42535714D01*
X60500000Y-42535714D01*
X60595238Y-42583333D01*
X60642857Y-42678571D01*
X60642857Y-43202380D01*
X60642857Y-42678571D02*
X60690476Y-42583333D01*
X60785714Y-42535714D01*
X60928571Y-42535714D01*
X61023809Y-42583333D01*
X61071428Y-42678571D01*
X61071428Y-43202380D01*
X61976190Y-43202380D02*
X61976190Y-42678571D01*
X61928571Y-42583333D01*
X61833333Y-42535714D01*
X61642857Y-42535714D01*
X61547619Y-42583333D01*
X61976190Y-43154761D02*
X61880952Y-43202380D01*
X61642857Y-43202380D01*
X61547619Y-43154761D01*
X61500000Y-43059523D01*
X61500000Y-42964285D01*
X61547619Y-42869047D01*
X61642857Y-42821428D01*
X61880952Y-42821428D01*
X61976190Y-42773809D01*
X62595238Y-43202380D02*
X62500000Y-43154761D01*
X62452380Y-43059523D01*
X62452380Y-42202380D01*
X63357142Y-43154761D02*
X63261904Y-43202380D01*
X63071428Y-43202380D01*
X62976190Y-43154761D01*
X62928571Y-43059523D01*
X62928571Y-42678571D01*
X62976190Y-42583333D01*
X63071428Y-42535714D01*
X63261904Y-42535714D01*
X63357142Y-42583333D01*
X63404761Y-42678571D01*
X63404761Y-42773809D01*
X62928571Y-42869047D01*
X55966666Y-39452380D02*
X55966666Y-40166666D01*
X55919047Y-40309523D01*
X55823809Y-40404761D01*
X55680952Y-40452380D01*
X55585714Y-40452380D01*
X56395238Y-39547619D02*
X56442857Y-39500000D01*
X56538095Y-39452380D01*
X56776190Y-39452380D01*
X56871428Y-39500000D01*
X56919047Y-39547619D01*
X56966666Y-39642857D01*
X56966666Y-39738095D01*
X56919047Y-39880952D01*
X56347619Y-40452380D01*
X56966666Y-40452380D01*
%TO.C,J4*%
X44214285Y-43107142D02*
X44166666Y-43154761D01*
X44023809Y-43202380D01*
X43928571Y-43202380D01*
X43785714Y-43154761D01*
X43690476Y-43059523D01*
X43642857Y-42964285D01*
X43595238Y-42773809D01*
X43595238Y-42630952D01*
X43642857Y-42440476D01*
X43690476Y-42345238D01*
X43785714Y-42250000D01*
X43928571Y-42202380D01*
X44023809Y-42202380D01*
X44166666Y-42250000D01*
X44214285Y-42297619D01*
X44785714Y-43202380D02*
X44690476Y-43154761D01*
X44642857Y-43107142D01*
X44595238Y-43011904D01*
X44595238Y-42726190D01*
X44642857Y-42630952D01*
X44690476Y-42583333D01*
X44785714Y-42535714D01*
X44928571Y-42535714D01*
X45023809Y-42583333D01*
X45071428Y-42630952D01*
X45119047Y-42726190D01*
X45119047Y-43011904D01*
X45071428Y-43107142D01*
X45023809Y-43154761D01*
X44928571Y-43202380D01*
X44785714Y-43202380D01*
X45547619Y-42535714D02*
X45547619Y-43202380D01*
X45547619Y-42630952D02*
X45595238Y-42583333D01*
X45690476Y-42535714D01*
X45833333Y-42535714D01*
X45928571Y-42583333D01*
X45976190Y-42678571D01*
X45976190Y-43202380D01*
X46452380Y-42535714D02*
X46452380Y-43202380D01*
X46452380Y-42630952D02*
X46500000Y-42583333D01*
X46595238Y-42535714D01*
X46738095Y-42535714D01*
X46833333Y-42583333D01*
X46880952Y-42678571D01*
X46880952Y-43202380D01*
X47119047Y-43297619D02*
X47880952Y-43297619D01*
X48309523Y-42202380D02*
X48404761Y-42202380D01*
X48500000Y-42250000D01*
X48547619Y-42297619D01*
X48595238Y-42392857D01*
X48642857Y-42583333D01*
X48642857Y-42821428D01*
X48595238Y-43011904D01*
X48547619Y-43107142D01*
X48500000Y-43154761D01*
X48404761Y-43202380D01*
X48309523Y-43202380D01*
X48214285Y-43154761D01*
X48166666Y-43107142D01*
X48119047Y-43011904D01*
X48071428Y-42821428D01*
X48071428Y-42583333D01*
X48119047Y-42392857D01*
X48166666Y-42297619D01*
X48214285Y-42250000D01*
X48309523Y-42202380D01*
X49595238Y-43202380D02*
X49023809Y-43202380D01*
X49309523Y-43202380D02*
X49309523Y-42202380D01*
X49214285Y-42345238D01*
X49119047Y-42440476D01*
X49023809Y-42488095D01*
X49928571Y-43202380D02*
X50452380Y-42535714D01*
X49928571Y-42535714D02*
X50452380Y-43202380D01*
X51023809Y-42202380D02*
X51119047Y-42202380D01*
X51214285Y-42250000D01*
X51261904Y-42297619D01*
X51309523Y-42392857D01*
X51357142Y-42583333D01*
X51357142Y-42821428D01*
X51309523Y-43011904D01*
X51261904Y-43107142D01*
X51214285Y-43154761D01*
X51119047Y-43202380D01*
X51023809Y-43202380D01*
X50928571Y-43154761D01*
X50880952Y-43107142D01*
X50833333Y-43011904D01*
X50785714Y-42821428D01*
X50785714Y-42583333D01*
X50833333Y-42392857D01*
X50880952Y-42297619D01*
X50928571Y-42250000D01*
X51023809Y-42202380D01*
X52309523Y-43202380D02*
X51738095Y-43202380D01*
X52023809Y-43202380D02*
X52023809Y-42202380D01*
X51928571Y-42345238D01*
X51833333Y-42440476D01*
X51738095Y-42488095D01*
X52500000Y-43297619D02*
X53261904Y-43297619D01*
X53833333Y-42678571D02*
X53500000Y-42678571D01*
X53500000Y-43202380D02*
X53500000Y-42202380D01*
X53976190Y-42202380D01*
X54738095Y-43154761D02*
X54642857Y-43202380D01*
X54452380Y-43202380D01*
X54357142Y-43154761D01*
X54309523Y-43059523D01*
X54309523Y-42678571D01*
X54357142Y-42583333D01*
X54452380Y-42535714D01*
X54642857Y-42535714D01*
X54738095Y-42583333D01*
X54785714Y-42678571D01*
X54785714Y-42773809D01*
X54309523Y-42869047D01*
X55214285Y-43202380D02*
X55214285Y-42535714D01*
X55214285Y-42630952D02*
X55261904Y-42583333D01*
X55357142Y-42535714D01*
X55500000Y-42535714D01*
X55595238Y-42583333D01*
X55642857Y-42678571D01*
X55642857Y-43202380D01*
X55642857Y-42678571D02*
X55690476Y-42583333D01*
X55785714Y-42535714D01*
X55928571Y-42535714D01*
X56023809Y-42583333D01*
X56071428Y-42678571D01*
X56071428Y-43202380D01*
X56976190Y-43202380D02*
X56976190Y-42678571D01*
X56928571Y-42583333D01*
X56833333Y-42535714D01*
X56642857Y-42535714D01*
X56547619Y-42583333D01*
X56976190Y-43154761D02*
X56880952Y-43202380D01*
X56642857Y-43202380D01*
X56547619Y-43154761D01*
X56500000Y-43059523D01*
X56500000Y-42964285D01*
X56547619Y-42869047D01*
X56642857Y-42821428D01*
X56880952Y-42821428D01*
X56976190Y-42773809D01*
X57595238Y-43202380D02*
X57500000Y-43154761D01*
X57452380Y-43059523D01*
X57452380Y-42202380D01*
X58357142Y-43154761D02*
X58261904Y-43202380D01*
X58071428Y-43202380D01*
X57976190Y-43154761D01*
X57928571Y-43059523D01*
X57928571Y-42678571D01*
X57976190Y-42583333D01*
X58071428Y-42535714D01*
X58261904Y-42535714D01*
X58357142Y-42583333D01*
X58404761Y-42678571D01*
X58404761Y-42773809D01*
X57928571Y-42869047D01*
X50966666Y-39452380D02*
X50966666Y-40166666D01*
X50919047Y-40309523D01*
X50823809Y-40404761D01*
X50680952Y-40452380D01*
X50585714Y-40452380D01*
X51871428Y-39785714D02*
X51871428Y-40452380D01*
X51633333Y-39404761D02*
X51395238Y-40119047D01*
X52014285Y-40119047D01*
%TO.C,J5*%
X54714285Y-43107142D02*
X54666666Y-43154761D01*
X54523809Y-43202380D01*
X54428571Y-43202380D01*
X54285714Y-43154761D01*
X54190476Y-43059523D01*
X54142857Y-42964285D01*
X54095238Y-42773809D01*
X54095238Y-42630952D01*
X54142857Y-42440476D01*
X54190476Y-42345238D01*
X54285714Y-42250000D01*
X54428571Y-42202380D01*
X54523809Y-42202380D01*
X54666666Y-42250000D01*
X54714285Y-42297619D01*
X55285714Y-43202380D02*
X55190476Y-43154761D01*
X55142857Y-43107142D01*
X55095238Y-43011904D01*
X55095238Y-42726190D01*
X55142857Y-42630952D01*
X55190476Y-42583333D01*
X55285714Y-42535714D01*
X55428571Y-42535714D01*
X55523809Y-42583333D01*
X55571428Y-42630952D01*
X55619047Y-42726190D01*
X55619047Y-43011904D01*
X55571428Y-43107142D01*
X55523809Y-43154761D01*
X55428571Y-43202380D01*
X55285714Y-43202380D01*
X56047619Y-42535714D02*
X56047619Y-43202380D01*
X56047619Y-42630952D02*
X56095238Y-42583333D01*
X56190476Y-42535714D01*
X56333333Y-42535714D01*
X56428571Y-42583333D01*
X56476190Y-42678571D01*
X56476190Y-43202380D01*
X56952380Y-42535714D02*
X56952380Y-43202380D01*
X56952380Y-42630952D02*
X57000000Y-42583333D01*
X57095238Y-42535714D01*
X57238095Y-42535714D01*
X57333333Y-42583333D01*
X57380952Y-42678571D01*
X57380952Y-43202380D01*
X57619047Y-43297619D02*
X58380952Y-43297619D01*
X58809523Y-42202380D02*
X58904761Y-42202380D01*
X59000000Y-42250000D01*
X59047619Y-42297619D01*
X59095238Y-42392857D01*
X59142857Y-42583333D01*
X59142857Y-42821428D01*
X59095238Y-43011904D01*
X59047619Y-43107142D01*
X59000000Y-43154761D01*
X58904761Y-43202380D01*
X58809523Y-43202380D01*
X58714285Y-43154761D01*
X58666666Y-43107142D01*
X58619047Y-43011904D01*
X58571428Y-42821428D01*
X58571428Y-42583333D01*
X58619047Y-42392857D01*
X58666666Y-42297619D01*
X58714285Y-42250000D01*
X58809523Y-42202380D01*
X60095238Y-43202380D02*
X59523809Y-43202380D01*
X59809523Y-43202380D02*
X59809523Y-42202380D01*
X59714285Y-42345238D01*
X59619047Y-42440476D01*
X59523809Y-42488095D01*
X60428571Y-43202380D02*
X60952380Y-42535714D01*
X60428571Y-42535714D02*
X60952380Y-43202380D01*
X61523809Y-42202380D02*
X61619047Y-42202380D01*
X61714285Y-42250000D01*
X61761904Y-42297619D01*
X61809523Y-42392857D01*
X61857142Y-42583333D01*
X61857142Y-42821428D01*
X61809523Y-43011904D01*
X61761904Y-43107142D01*
X61714285Y-43154761D01*
X61619047Y-43202380D01*
X61523809Y-43202380D01*
X61428571Y-43154761D01*
X61380952Y-43107142D01*
X61333333Y-43011904D01*
X61285714Y-42821428D01*
X61285714Y-42583333D01*
X61333333Y-42392857D01*
X61380952Y-42297619D01*
X61428571Y-42250000D01*
X61523809Y-42202380D01*
X62809523Y-43202380D02*
X62238095Y-43202380D01*
X62523809Y-43202380D02*
X62523809Y-42202380D01*
X62428571Y-42345238D01*
X62333333Y-42440476D01*
X62238095Y-42488095D01*
X63000000Y-43297619D02*
X63761904Y-43297619D01*
X64333333Y-42678571D02*
X64000000Y-42678571D01*
X64000000Y-43202380D02*
X64000000Y-42202380D01*
X64476190Y-42202380D01*
X65238095Y-43154761D02*
X65142857Y-43202380D01*
X64952380Y-43202380D01*
X64857142Y-43154761D01*
X64809523Y-43059523D01*
X64809523Y-42678571D01*
X64857142Y-42583333D01*
X64952380Y-42535714D01*
X65142857Y-42535714D01*
X65238095Y-42583333D01*
X65285714Y-42678571D01*
X65285714Y-42773809D01*
X64809523Y-42869047D01*
X65714285Y-43202380D02*
X65714285Y-42535714D01*
X65714285Y-42630952D02*
X65761904Y-42583333D01*
X65857142Y-42535714D01*
X66000000Y-42535714D01*
X66095238Y-42583333D01*
X66142857Y-42678571D01*
X66142857Y-43202380D01*
X66142857Y-42678571D02*
X66190476Y-42583333D01*
X66285714Y-42535714D01*
X66428571Y-42535714D01*
X66523809Y-42583333D01*
X66571428Y-42678571D01*
X66571428Y-43202380D01*
X67476190Y-43202380D02*
X67476190Y-42678571D01*
X67428571Y-42583333D01*
X67333333Y-42535714D01*
X67142857Y-42535714D01*
X67047619Y-42583333D01*
X67476190Y-43154761D02*
X67380952Y-43202380D01*
X67142857Y-43202380D01*
X67047619Y-43154761D01*
X67000000Y-43059523D01*
X67000000Y-42964285D01*
X67047619Y-42869047D01*
X67142857Y-42821428D01*
X67380952Y-42821428D01*
X67476190Y-42773809D01*
X68095238Y-43202380D02*
X68000000Y-43154761D01*
X67952380Y-43059523D01*
X67952380Y-42202380D01*
X68857142Y-43154761D02*
X68761904Y-43202380D01*
X68571428Y-43202380D01*
X68476190Y-43154761D01*
X68428571Y-43059523D01*
X68428571Y-42678571D01*
X68476190Y-42583333D01*
X68571428Y-42535714D01*
X68761904Y-42535714D01*
X68857142Y-42583333D01*
X68904761Y-42678571D01*
X68904761Y-42773809D01*
X68428571Y-42869047D01*
X61466666Y-39452380D02*
X61466666Y-40166666D01*
X61419047Y-40309523D01*
X61323809Y-40404761D01*
X61180952Y-40452380D01*
X61085714Y-40452380D01*
X62419047Y-39452380D02*
X61942857Y-39452380D01*
X61895238Y-39928571D01*
X61942857Y-39880952D01*
X62038095Y-39833333D01*
X62276190Y-39833333D01*
X62371428Y-39880952D01*
X62419047Y-39928571D01*
X62466666Y-40023809D01*
X62466666Y-40261904D01*
X62419047Y-40357142D01*
X62371428Y-40404761D01*
X62276190Y-40452380D01*
X62038095Y-40452380D01*
X61942857Y-40404761D01*
X61895238Y-40357142D01*
%TD*%
M02*
