%FSLAX45Y45*%
G04 Gerber Fmt 4.5, Leading zero omitted, Abs format (unit mm)*
G04 Created by KiCad (PCBNEW 5.1.10) date 2021-07-17 19:54:31*
%MOMM*%
%LPD*%
G01*
G04 APERTURE LIST*
%TA.AperFunction,Profile*%
%ADD10C,0.100000*%
%TD*%
%ADD11C,0.200000*%
%ADD12C,0.300000*%
G04 APERTURE END LIST*
D10*
X3750000Y-13000000D02*
X3750000Y-3250000D01*
X7500000Y-13000000D02*
X3750000Y-13000000D01*
X7500000Y-3250000D02*
X7500000Y-13000000D01*
X3750000Y-3250000D02*
X7500000Y-3250000D01*
D11*
X4705000Y-8155000D02*
X4745000Y-8195000D01*
X4745000Y-8155000D02*
X4705000Y-8195000D01*
X4905000Y-7605000D02*
X4945000Y-7645000D01*
X4945000Y-7605000D02*
X4905000Y-7645000D01*
X5430000Y-7405000D02*
X5470000Y-7445000D01*
X5470000Y-7405000D02*
X5430000Y-7445000D01*
X5505000Y-5305000D02*
X5545000Y-5345000D01*
X5545000Y-5305000D02*
X5505000Y-5345000D01*
X5555000Y-9880000D02*
X5595000Y-9920000D01*
X5595000Y-9880000D02*
X5555000Y-9920000D01*
X6555000Y-8130000D02*
X6595000Y-8170000D01*
X6595000Y-8130000D02*
X6555000Y-8170000D01*
X4435000Y-6392000D02*
G75*
G03*
X4435000Y-6392000I-35000J0D01*
G01*
X4435000Y-6900000D02*
G75*
G03*
X4435000Y-6900000I-35000J0D01*
G01*
X4477000Y-9100000D02*
G75*
G03*
X4477000Y-9100000I-35000J0D01*
G01*
X4685000Y-10500000D02*
G75*
G03*
X4685000Y-10500000I-35000J0D01*
G01*
X4685000Y-11008000D02*
G75*
G03*
X4685000Y-11008000I-35000J0D01*
G01*
X4835000Y-6400000D02*
G75*
G03*
X4835000Y-6400000I-35000J0D01*
G01*
X4835000Y-6908000D02*
G75*
G03*
X4835000Y-6908000I-35000J0D01*
G01*
X4960000Y-7967000D02*
G75*
G03*
X4960000Y-7967000I-35000J0D01*
G01*
X4960000Y-8475000D02*
G75*
G03*
X4960000Y-8475000I-35000J0D01*
G01*
X4977000Y-10800000D02*
G75*
G03*
X4977000Y-10800000I-35000J0D01*
G01*
X4985000Y-9100000D02*
G75*
G03*
X4985000Y-9100000I-35000J0D01*
G01*
X5427000Y-6400000D02*
G75*
G03*
X5427000Y-6400000I-35000J0D01*
G01*
X5485000Y-10800000D02*
G75*
G03*
X5485000Y-10800000I-35000J0D01*
G01*
X5785000Y-10800000D02*
G75*
G03*
X5785000Y-10800000I-35000J0D01*
G01*
X5935000Y-6400000D02*
G75*
G03*
X5935000Y-6400000I-35000J0D01*
G01*
X6293000Y-10800000D02*
G75*
G03*
X6293000Y-10800000I-35000J0D01*
G01*
X6335000Y-9100000D02*
G75*
G03*
X6335000Y-9100000I-35000J0D01*
G01*
X6435000Y-7917000D02*
G75*
G03*
X6435000Y-7917000I-35000J0D01*
G01*
X6435000Y-8425000D02*
G75*
G03*
X6435000Y-8425000I-35000J0D01*
G01*
X6535000Y-6400000D02*
G75*
G03*
X6535000Y-6400000I-35000J0D01*
G01*
X6535000Y-6908000D02*
G75*
G03*
X6535000Y-6908000I-35000J0D01*
G01*
X6685000Y-10450000D02*
G75*
G03*
X6685000Y-10450000I-35000J0D01*
G01*
X6685000Y-10958000D02*
G75*
G03*
X6685000Y-10958000I-35000J0D01*
G01*
X6843000Y-9100000D02*
G75*
G03*
X6843000Y-9100000I-35000J0D01*
G01*
X6935000Y-6400000D02*
G75*
G03*
X6935000Y-6400000I-35000J0D01*
G01*
X6935000Y-6908000D02*
G75*
G03*
X6935000Y-6908000I-35000J0D01*
G01*
X4500000Y-8010000D02*
X4500000Y-8090000D01*
X4460000Y-8050000D02*
X4540000Y-8050000D01*
X4500000Y-8260000D02*
X4500000Y-8340000D01*
X4460000Y-8300000D02*
X4540000Y-8300000D01*
X4638000Y-9760000D02*
X4638000Y-9840000D01*
X4598000Y-9800000D02*
X4678000Y-9800000D01*
X4650000Y-5160000D02*
X4650000Y-5240000D01*
X4610000Y-5200000D02*
X4690000Y-5200000D01*
X4650000Y-5410000D02*
X4650000Y-5490000D01*
X4610000Y-5450000D02*
X4690000Y-5450000D01*
X4650000Y-10160000D02*
X4650000Y-10240000D01*
X4610000Y-10200000D02*
X4690000Y-10200000D01*
X4850000Y-7310000D02*
X4850000Y-7390000D01*
X4810000Y-7350000D02*
X4890000Y-7350000D01*
X5100000Y-7310000D02*
X5100000Y-7390000D01*
X5060000Y-7350000D02*
X5140000Y-7350000D01*
X5150000Y-5160000D02*
X5150000Y-5240000D01*
X5110000Y-5200000D02*
X5190000Y-5200000D01*
X5150000Y-5410000D02*
X5150000Y-5490000D01*
X5110000Y-5450000D02*
X5190000Y-5450000D01*
X5238000Y-6760000D02*
X5238000Y-6840000D01*
X5198000Y-6800000D02*
X5278000Y-6800000D01*
X5275000Y-7785000D02*
X5275000Y-7865000D01*
X5235000Y-7825000D02*
X5315000Y-7825000D01*
X5275000Y-8039000D02*
X5275000Y-8119000D01*
X5235000Y-8079000D02*
X5315000Y-8079000D01*
X5275000Y-8293000D02*
X5275000Y-8373000D01*
X5235000Y-8333000D02*
X5315000Y-8333000D01*
X5275000Y-8547000D02*
X5275000Y-8627000D01*
X5235000Y-8587000D02*
X5315000Y-8587000D01*
X5400000Y-9760000D02*
X5400000Y-9840000D01*
X5360000Y-9800000D02*
X5440000Y-9800000D01*
X5412000Y-10160000D02*
X5412000Y-10240000D01*
X5372000Y-10200000D02*
X5452000Y-10200000D01*
X5500000Y-11260000D02*
X5500000Y-11340000D01*
X5460000Y-11300000D02*
X5540000Y-11300000D01*
X5650000Y-5160000D02*
X5650000Y-5240000D01*
X5610000Y-5200000D02*
X5690000Y-5200000D01*
X5650000Y-5410000D02*
X5650000Y-5490000D01*
X5610000Y-5450000D02*
X5690000Y-5450000D01*
X5750000Y-11260000D02*
X5750000Y-11340000D01*
X5710000Y-11300000D02*
X5790000Y-11300000D01*
X5900000Y-9760000D02*
X5900000Y-9840000D01*
X5860000Y-9800000D02*
X5940000Y-9800000D01*
X5900000Y-10160000D02*
X5900000Y-10240000D01*
X5860000Y-10200000D02*
X5940000Y-10200000D01*
X6000000Y-6760000D02*
X6000000Y-6840000D01*
X5960000Y-6800000D02*
X6040000Y-6800000D01*
X6037000Y-7785000D02*
X6037000Y-7865000D01*
X5997000Y-7825000D02*
X6077000Y-7825000D01*
X6037000Y-8039000D02*
X6037000Y-8119000D01*
X5997000Y-8079000D02*
X6077000Y-8079000D01*
X6037000Y-8293000D02*
X6037000Y-8373000D01*
X5997000Y-8333000D02*
X6077000Y-8333000D01*
X6037000Y-8547000D02*
X6037000Y-8627000D01*
X5997000Y-8587000D02*
X6077000Y-8587000D01*
X6150000Y-5160000D02*
X6150000Y-5240000D01*
X6110000Y-5200000D02*
X6190000Y-5200000D01*
X6150000Y-5410000D02*
X6150000Y-5490000D01*
X6110000Y-5450000D02*
X6190000Y-5450000D01*
X6150000Y-7310000D02*
X6150000Y-7390000D01*
X6110000Y-7350000D02*
X6190000Y-7350000D01*
X6400000Y-7310000D02*
X6400000Y-7390000D01*
X6360000Y-7350000D02*
X6440000Y-7350000D01*
X6650000Y-5160000D02*
X6650000Y-5240000D01*
X6610000Y-5200000D02*
X6690000Y-5200000D01*
X6650000Y-5410000D02*
X6650000Y-5490000D01*
X6610000Y-5450000D02*
X6690000Y-5450000D01*
X6662000Y-9760000D02*
X6662000Y-9840000D01*
X6622000Y-9800000D02*
X6702000Y-9800000D01*
X6662000Y-10160000D02*
X6662000Y-10240000D01*
X6622000Y-10200000D02*
X6702000Y-10200000D01*
X6825000Y-7985000D02*
X6825000Y-8065000D01*
X6785000Y-8025000D02*
X6865000Y-8025000D01*
X6825000Y-8235000D02*
X6825000Y-8315000D01*
X6785000Y-8275000D02*
X6865000Y-8275000D01*
X4327783Y-3827782D02*
X4327783Y-3672217D01*
X4172217Y-3672217D01*
X4172217Y-3827782D01*
X4327783Y-3827782D01*
X4327783Y-12577782D02*
X4327783Y-12422217D01*
X4172217Y-12422217D01*
X4172217Y-12577782D01*
X4327783Y-12577782D01*
X4677783Y-11977782D02*
X4677783Y-11822217D01*
X4522218Y-11822217D01*
X4522218Y-11977782D01*
X4677783Y-11977782D01*
X5157783Y-4057782D02*
X5157783Y-3902217D01*
X5002218Y-3902217D01*
X5002218Y-4057782D01*
X5157783Y-4057782D01*
X5677782Y-4057782D02*
X5677782Y-3902217D01*
X5522218Y-3902217D01*
X5522218Y-4057782D01*
X5677782Y-4057782D01*
X5677782Y-11977782D02*
X5677782Y-11822217D01*
X5522218Y-11822217D01*
X5522218Y-11977782D01*
X5677782Y-11977782D01*
X6217782Y-4057782D02*
X6217782Y-3902217D01*
X6062217Y-3902217D01*
X6062217Y-4057782D01*
X6217782Y-4057782D01*
X6677782Y-11977782D02*
X6677782Y-11822217D01*
X6522217Y-11822217D01*
X6522217Y-11977782D01*
X6677782Y-11977782D01*
X7077782Y-3827782D02*
X7077782Y-3672217D01*
X6922217Y-3672217D01*
X6922217Y-3827782D01*
X7077782Y-3827782D01*
X7077782Y-12577782D02*
X7077782Y-12422217D01*
X6922217Y-12422217D01*
X6922217Y-12577782D01*
X7077782Y-12577782D01*
D12*
X4031428Y-13470714D02*
X4031428Y-13170714D01*
X4102857Y-13170714D01*
X4145714Y-13185000D01*
X4174286Y-13213571D01*
X4188571Y-13242143D01*
X4202857Y-13299286D01*
X4202857Y-13342143D01*
X4188571Y-13399286D01*
X4174286Y-13427857D01*
X4145714Y-13456429D01*
X4102857Y-13470714D01*
X4031428Y-13470714D01*
X4331428Y-13470714D02*
X4331428Y-13270714D01*
X4331428Y-13327857D02*
X4345714Y-13299286D01*
X4360000Y-13285000D01*
X4388571Y-13270714D01*
X4417143Y-13270714D01*
X4517143Y-13470714D02*
X4517143Y-13270714D01*
X4517143Y-13170714D02*
X4502857Y-13185000D01*
X4517143Y-13199286D01*
X4531428Y-13185000D01*
X4517143Y-13170714D01*
X4517143Y-13199286D01*
X4702857Y-13470714D02*
X4674286Y-13456429D01*
X4660000Y-13427857D01*
X4660000Y-13170714D01*
X4860000Y-13470714D02*
X4831428Y-13456429D01*
X4817143Y-13427857D01*
X4817143Y-13170714D01*
X5202857Y-13470714D02*
X5202857Y-13170714D01*
X5302857Y-13385000D01*
X5402857Y-13170714D01*
X5402857Y-13470714D01*
X5674286Y-13470714D02*
X5674286Y-13313571D01*
X5660000Y-13285000D01*
X5631428Y-13270714D01*
X5574286Y-13270714D01*
X5545714Y-13285000D01*
X5674286Y-13456429D02*
X5645714Y-13470714D01*
X5574286Y-13470714D01*
X5545714Y-13456429D01*
X5531428Y-13427857D01*
X5531428Y-13399286D01*
X5545714Y-13370714D01*
X5574286Y-13356429D01*
X5645714Y-13356429D01*
X5674286Y-13342143D01*
X5817143Y-13270714D02*
X5817143Y-13570714D01*
X5817143Y-13285000D02*
X5845714Y-13270714D01*
X5902857Y-13270714D01*
X5931428Y-13285000D01*
X5945714Y-13299286D01*
X5960000Y-13327857D01*
X5960000Y-13413571D01*
X5945714Y-13442143D01*
X5931428Y-13456429D01*
X5902857Y-13470714D01*
X5845714Y-13470714D01*
X5817143Y-13456429D01*
X6088571Y-13442143D02*
X6102857Y-13456429D01*
X6088571Y-13470714D01*
X6074286Y-13456429D01*
X6088571Y-13442143D01*
X6088571Y-13470714D01*
X6088571Y-13285000D02*
X6102857Y-13299286D01*
X6088571Y-13313571D01*
X6074286Y-13299286D01*
X6088571Y-13285000D01*
X6088571Y-13313571D01*
X3705000Y-13945000D02*
X3745000Y-13985000D01*
X3745000Y-13945000D02*
X3705000Y-13985000D01*
X4088571Y-13800714D02*
X4117143Y-13800714D01*
X4145714Y-13815000D01*
X4160000Y-13829286D01*
X4174286Y-13857857D01*
X4188571Y-13915000D01*
X4188571Y-13986429D01*
X4174286Y-14043571D01*
X4160000Y-14072143D01*
X4145714Y-14086429D01*
X4117143Y-14100714D01*
X4088571Y-14100714D01*
X4060000Y-14086429D01*
X4045714Y-14072143D01*
X4031428Y-14043571D01*
X4017143Y-13986429D01*
X4017143Y-13915000D01*
X4031428Y-13857857D01*
X4045714Y-13829286D01*
X4060000Y-13815000D01*
X4088571Y-13800714D01*
X4317143Y-14072143D02*
X4331428Y-14086429D01*
X4317143Y-14100714D01*
X4302857Y-14086429D01*
X4317143Y-14072143D01*
X4317143Y-14100714D01*
X4588571Y-13900714D02*
X4588571Y-14100714D01*
X4517143Y-13786429D02*
X4445714Y-14000714D01*
X4631428Y-14000714D01*
X4802857Y-13800714D02*
X4831428Y-13800714D01*
X4860000Y-13815000D01*
X4874286Y-13829286D01*
X4888571Y-13857857D01*
X4902857Y-13915000D01*
X4902857Y-13986429D01*
X4888571Y-14043571D01*
X4874286Y-14072143D01*
X4860000Y-14086429D01*
X4831428Y-14100714D01*
X4802857Y-14100714D01*
X4774286Y-14086429D01*
X4760000Y-14072143D01*
X4745714Y-14043571D01*
X4731428Y-13986429D01*
X4731428Y-13915000D01*
X4745714Y-13857857D01*
X4760000Y-13829286D01*
X4774286Y-13815000D01*
X4802857Y-13800714D01*
X5088571Y-13800714D02*
X5117143Y-13800714D01*
X5145714Y-13815000D01*
X5160000Y-13829286D01*
X5174286Y-13857857D01*
X5188571Y-13915000D01*
X5188571Y-13986429D01*
X5174286Y-14043571D01*
X5160000Y-14072143D01*
X5145714Y-14086429D01*
X5117143Y-14100714D01*
X5088571Y-14100714D01*
X5060000Y-14086429D01*
X5045714Y-14072143D01*
X5031428Y-14043571D01*
X5017143Y-13986429D01*
X5017143Y-13915000D01*
X5031428Y-13857857D01*
X5045714Y-13829286D01*
X5060000Y-13815000D01*
X5088571Y-13800714D01*
X5317143Y-14100714D02*
X5317143Y-13900714D01*
X5317143Y-13929286D02*
X5331428Y-13915000D01*
X5360000Y-13900714D01*
X5402857Y-13900714D01*
X5431428Y-13915000D01*
X5445714Y-13943571D01*
X5445714Y-14100714D01*
X5445714Y-13943571D02*
X5460000Y-13915000D01*
X5488571Y-13900714D01*
X5531428Y-13900714D01*
X5560000Y-13915000D01*
X5574286Y-13943571D01*
X5574286Y-14100714D01*
X5717143Y-14100714D02*
X5717143Y-13900714D01*
X5717143Y-13929286D02*
X5731428Y-13915000D01*
X5760000Y-13900714D01*
X5802857Y-13900714D01*
X5831428Y-13915000D01*
X5845714Y-13943571D01*
X5845714Y-14100714D01*
X5845714Y-13943571D02*
X5860000Y-13915000D01*
X5888571Y-13900714D01*
X5931428Y-13900714D01*
X5960000Y-13915000D01*
X5974286Y-13943571D01*
X5974286Y-14100714D01*
X6560000Y-13786429D02*
X6302857Y-14172143D01*
X6945714Y-13800714D02*
X6974286Y-13800714D01*
X7002857Y-13815000D01*
X7017143Y-13829286D01*
X7031428Y-13857857D01*
X7045714Y-13915000D01*
X7045714Y-13986429D01*
X7031428Y-14043571D01*
X7017143Y-14072143D01*
X7002857Y-14086429D01*
X6974286Y-14100714D01*
X6945714Y-14100714D01*
X6917143Y-14086429D01*
X6902857Y-14072143D01*
X6888571Y-14043571D01*
X6874286Y-13986429D01*
X6874286Y-13915000D01*
X6888571Y-13857857D01*
X6902857Y-13829286D01*
X6917143Y-13815000D01*
X6945714Y-13800714D01*
X7174286Y-14072143D02*
X7188571Y-14086429D01*
X7174286Y-14100714D01*
X7160000Y-14086429D01*
X7174286Y-14072143D01*
X7174286Y-14100714D01*
X7374286Y-13800714D02*
X7402857Y-13800714D01*
X7431428Y-13815000D01*
X7445714Y-13829286D01*
X7460000Y-13857857D01*
X7474286Y-13915000D01*
X7474286Y-13986429D01*
X7460000Y-14043571D01*
X7445714Y-14072143D01*
X7431428Y-14086429D01*
X7402857Y-14100714D01*
X7374286Y-14100714D01*
X7345714Y-14086429D01*
X7331428Y-14072143D01*
X7317143Y-14043571D01*
X7302857Y-13986429D01*
X7302857Y-13915000D01*
X7317143Y-13857857D01*
X7331428Y-13829286D01*
X7345714Y-13815000D01*
X7374286Y-13800714D01*
X7760000Y-14100714D02*
X7588571Y-14100714D01*
X7674286Y-14100714D02*
X7674286Y-13800714D01*
X7645714Y-13843571D01*
X7617143Y-13872143D01*
X7588571Y-13886429D01*
X8031428Y-13800714D02*
X7888571Y-13800714D01*
X7874286Y-13943571D01*
X7888571Y-13929286D01*
X7917143Y-13915000D01*
X7988571Y-13915000D01*
X8017143Y-13929286D01*
X8031428Y-13943571D01*
X8045714Y-13972143D01*
X8045714Y-14043571D01*
X8031428Y-14072143D01*
X8017143Y-14086429D01*
X7988571Y-14100714D01*
X7917143Y-14100714D01*
X7888571Y-14086429D01*
X7874286Y-14072143D01*
X8145714Y-13800714D02*
X8345714Y-13800714D01*
X8217143Y-14100714D01*
X8445714Y-13800714D02*
X8445714Y-13857857D01*
X8560000Y-13800714D02*
X8560000Y-13857857D01*
X9002857Y-14215000D02*
X8988571Y-14200714D01*
X8960000Y-14157857D01*
X8945714Y-14129286D01*
X8931428Y-14086429D01*
X8917143Y-14015000D01*
X8917143Y-13957857D01*
X8931428Y-13886429D01*
X8945714Y-13843571D01*
X8960000Y-13815000D01*
X8988571Y-13772143D01*
X9002857Y-13757857D01*
X9245714Y-13800714D02*
X9188571Y-13800714D01*
X9160000Y-13815000D01*
X9145714Y-13829286D01*
X9117143Y-13872143D01*
X9102857Y-13929286D01*
X9102857Y-14043571D01*
X9117143Y-14072143D01*
X9131428Y-14086429D01*
X9160000Y-14100714D01*
X9217143Y-14100714D01*
X9245714Y-14086429D01*
X9260000Y-14072143D01*
X9274286Y-14043571D01*
X9274286Y-13972143D01*
X9260000Y-13943571D01*
X9245714Y-13929286D01*
X9217143Y-13915000D01*
X9160000Y-13915000D01*
X9131428Y-13929286D01*
X9117143Y-13943571D01*
X9102857Y-13972143D01*
X9631428Y-14100714D02*
X9631428Y-13800714D01*
X9760000Y-14100714D02*
X9760000Y-13943571D01*
X9745714Y-13915000D01*
X9717143Y-13900714D01*
X9674286Y-13900714D01*
X9645714Y-13915000D01*
X9631428Y-13929286D01*
X9945714Y-14100714D02*
X9917143Y-14086429D01*
X9902857Y-14072143D01*
X9888571Y-14043571D01*
X9888571Y-13957857D01*
X9902857Y-13929286D01*
X9917143Y-13915000D01*
X9945714Y-13900714D01*
X9988571Y-13900714D01*
X10017143Y-13915000D01*
X10031428Y-13929286D01*
X10045714Y-13957857D01*
X10045714Y-14043571D01*
X10031428Y-14072143D01*
X10017143Y-14086429D01*
X9988571Y-14100714D01*
X9945714Y-14100714D01*
X10217143Y-14100714D02*
X10188571Y-14086429D01*
X10174286Y-14057857D01*
X10174286Y-13800714D01*
X10445714Y-14086429D02*
X10417143Y-14100714D01*
X10360000Y-14100714D01*
X10331428Y-14086429D01*
X10317143Y-14057857D01*
X10317143Y-13943571D01*
X10331428Y-13915000D01*
X10360000Y-13900714D01*
X10417143Y-13900714D01*
X10445714Y-13915000D01*
X10460000Y-13943571D01*
X10460000Y-13972143D01*
X10317143Y-14000714D01*
X10574286Y-14086429D02*
X10602857Y-14100714D01*
X10660000Y-14100714D01*
X10688571Y-14086429D01*
X10702857Y-14057857D01*
X10702857Y-14043571D01*
X10688571Y-14015000D01*
X10660000Y-14000714D01*
X10617143Y-14000714D01*
X10588571Y-13986429D01*
X10574286Y-13957857D01*
X10574286Y-13943571D01*
X10588571Y-13915000D01*
X10617143Y-13900714D01*
X10660000Y-13900714D01*
X10688571Y-13915000D01*
X10802857Y-14215000D02*
X10817143Y-14200714D01*
X10845714Y-14157857D01*
X10860000Y-14129286D01*
X10874286Y-14086429D01*
X10888571Y-14015000D01*
X10888571Y-13957857D01*
X10874286Y-13886429D01*
X10860000Y-13843571D01*
X10845714Y-13815000D01*
X10817143Y-13772143D01*
X10802857Y-13757857D01*
X3745000Y-14361000D02*
G75*
G03*
X3745000Y-14361000I-35000J0D01*
G01*
X4088571Y-14196714D02*
X4117143Y-14196714D01*
X4145714Y-14211000D01*
X4160000Y-14225286D01*
X4174286Y-14253857D01*
X4188571Y-14311000D01*
X4188571Y-14382429D01*
X4174286Y-14439571D01*
X4160000Y-14468143D01*
X4145714Y-14482429D01*
X4117143Y-14496714D01*
X4088571Y-14496714D01*
X4060000Y-14482429D01*
X4045714Y-14468143D01*
X4031428Y-14439571D01*
X4017143Y-14382429D01*
X4017143Y-14311000D01*
X4031428Y-14253857D01*
X4045714Y-14225286D01*
X4060000Y-14211000D01*
X4088571Y-14196714D01*
X4317143Y-14468143D02*
X4331428Y-14482429D01*
X4317143Y-14496714D01*
X4302857Y-14482429D01*
X4317143Y-14468143D01*
X4317143Y-14496714D01*
X4431428Y-14196714D02*
X4631428Y-14196714D01*
X4502857Y-14496714D01*
X4802857Y-14196714D02*
X4831428Y-14196714D01*
X4860000Y-14211000D01*
X4874286Y-14225286D01*
X4888571Y-14253857D01*
X4902857Y-14311000D01*
X4902857Y-14382429D01*
X4888571Y-14439571D01*
X4874286Y-14468143D01*
X4860000Y-14482429D01*
X4831428Y-14496714D01*
X4802857Y-14496714D01*
X4774286Y-14482429D01*
X4760000Y-14468143D01*
X4745714Y-14439571D01*
X4731428Y-14382429D01*
X4731428Y-14311000D01*
X4745714Y-14253857D01*
X4760000Y-14225286D01*
X4774286Y-14211000D01*
X4802857Y-14196714D01*
X5088571Y-14196714D02*
X5117143Y-14196714D01*
X5145714Y-14211000D01*
X5160000Y-14225286D01*
X5174286Y-14253857D01*
X5188571Y-14311000D01*
X5188571Y-14382429D01*
X5174286Y-14439571D01*
X5160000Y-14468143D01*
X5145714Y-14482429D01*
X5117143Y-14496714D01*
X5088571Y-14496714D01*
X5060000Y-14482429D01*
X5045714Y-14468143D01*
X5031428Y-14439571D01*
X5017143Y-14382429D01*
X5017143Y-14311000D01*
X5031428Y-14253857D01*
X5045714Y-14225286D01*
X5060000Y-14211000D01*
X5088571Y-14196714D01*
X5317143Y-14496714D02*
X5317143Y-14296714D01*
X5317143Y-14325286D02*
X5331428Y-14311000D01*
X5360000Y-14296714D01*
X5402857Y-14296714D01*
X5431428Y-14311000D01*
X5445714Y-14339571D01*
X5445714Y-14496714D01*
X5445714Y-14339571D02*
X5460000Y-14311000D01*
X5488571Y-14296714D01*
X5531428Y-14296714D01*
X5560000Y-14311000D01*
X5574286Y-14339571D01*
X5574286Y-14496714D01*
X5717143Y-14496714D02*
X5717143Y-14296714D01*
X5717143Y-14325286D02*
X5731428Y-14311000D01*
X5760000Y-14296714D01*
X5802857Y-14296714D01*
X5831428Y-14311000D01*
X5845714Y-14339571D01*
X5845714Y-14496714D01*
X5845714Y-14339571D02*
X5860000Y-14311000D01*
X5888571Y-14296714D01*
X5931428Y-14296714D01*
X5960000Y-14311000D01*
X5974286Y-14339571D01*
X5974286Y-14496714D01*
X6560000Y-14182429D02*
X6302857Y-14568143D01*
X6945714Y-14196714D02*
X6974286Y-14196714D01*
X7002857Y-14211000D01*
X7017143Y-14225286D01*
X7031428Y-14253857D01*
X7045714Y-14311000D01*
X7045714Y-14382429D01*
X7031428Y-14439571D01*
X7017143Y-14468143D01*
X7002857Y-14482429D01*
X6974286Y-14496714D01*
X6945714Y-14496714D01*
X6917143Y-14482429D01*
X6902857Y-14468143D01*
X6888571Y-14439571D01*
X6874286Y-14382429D01*
X6874286Y-14311000D01*
X6888571Y-14253857D01*
X6902857Y-14225286D01*
X6917143Y-14211000D01*
X6945714Y-14196714D01*
X7174286Y-14468143D02*
X7188571Y-14482429D01*
X7174286Y-14496714D01*
X7160000Y-14482429D01*
X7174286Y-14468143D01*
X7174286Y-14496714D01*
X7374286Y-14196714D02*
X7402857Y-14196714D01*
X7431428Y-14211000D01*
X7445714Y-14225286D01*
X7460000Y-14253857D01*
X7474286Y-14311000D01*
X7474286Y-14382429D01*
X7460000Y-14439571D01*
X7445714Y-14468143D01*
X7431428Y-14482429D01*
X7402857Y-14496714D01*
X7374286Y-14496714D01*
X7345714Y-14482429D01*
X7331428Y-14468143D01*
X7317143Y-14439571D01*
X7302857Y-14382429D01*
X7302857Y-14311000D01*
X7317143Y-14253857D01*
X7331428Y-14225286D01*
X7345714Y-14211000D01*
X7374286Y-14196714D01*
X7588571Y-14225286D02*
X7602857Y-14211000D01*
X7631428Y-14196714D01*
X7702857Y-14196714D01*
X7731428Y-14211000D01*
X7745714Y-14225286D01*
X7760000Y-14253857D01*
X7760000Y-14282429D01*
X7745714Y-14325286D01*
X7574286Y-14496714D01*
X7760000Y-14496714D01*
X7860000Y-14196714D02*
X8060000Y-14196714D01*
X7931428Y-14496714D01*
X8302857Y-14196714D02*
X8245714Y-14196714D01*
X8217143Y-14211000D01*
X8202857Y-14225286D01*
X8174286Y-14268143D01*
X8160000Y-14325286D01*
X8160000Y-14439571D01*
X8174286Y-14468143D01*
X8188571Y-14482429D01*
X8217143Y-14496714D01*
X8274286Y-14496714D01*
X8302857Y-14482429D01*
X8317143Y-14468143D01*
X8331428Y-14439571D01*
X8331428Y-14368143D01*
X8317143Y-14339571D01*
X8302857Y-14325286D01*
X8274286Y-14311000D01*
X8217143Y-14311000D01*
X8188571Y-14325286D01*
X8174286Y-14339571D01*
X8160000Y-14368143D01*
X8445714Y-14196714D02*
X8445714Y-14253857D01*
X8560000Y-14196714D02*
X8560000Y-14253857D01*
X9002857Y-14611000D02*
X8988571Y-14596714D01*
X8960000Y-14553857D01*
X8945714Y-14525286D01*
X8931428Y-14482429D01*
X8917143Y-14411000D01*
X8917143Y-14353857D01*
X8931428Y-14282429D01*
X8945714Y-14239571D01*
X8960000Y-14211000D01*
X8988571Y-14168143D01*
X9002857Y-14153857D01*
X9102857Y-14225286D02*
X9117143Y-14211000D01*
X9145714Y-14196714D01*
X9217143Y-14196714D01*
X9245714Y-14211000D01*
X9260000Y-14225286D01*
X9274286Y-14253857D01*
X9274286Y-14282429D01*
X9260000Y-14325286D01*
X9088571Y-14496714D01*
X9274286Y-14496714D01*
X9531428Y-14196714D02*
X9474286Y-14196714D01*
X9445714Y-14211000D01*
X9431428Y-14225286D01*
X9402857Y-14268143D01*
X9388571Y-14325286D01*
X9388571Y-14439571D01*
X9402857Y-14468143D01*
X9417143Y-14482429D01*
X9445714Y-14496714D01*
X9502857Y-14496714D01*
X9531428Y-14482429D01*
X9545714Y-14468143D01*
X9560000Y-14439571D01*
X9560000Y-14368143D01*
X9545714Y-14339571D01*
X9531428Y-14325286D01*
X9502857Y-14311000D01*
X9445714Y-14311000D01*
X9417143Y-14325286D01*
X9402857Y-14339571D01*
X9388571Y-14368143D01*
X9917143Y-14496714D02*
X9917143Y-14196714D01*
X10045714Y-14496714D02*
X10045714Y-14339571D01*
X10031428Y-14311000D01*
X10002857Y-14296714D01*
X9960000Y-14296714D01*
X9931428Y-14311000D01*
X9917143Y-14325286D01*
X10231428Y-14496714D02*
X10202857Y-14482429D01*
X10188571Y-14468143D01*
X10174286Y-14439571D01*
X10174286Y-14353857D01*
X10188571Y-14325286D01*
X10202857Y-14311000D01*
X10231428Y-14296714D01*
X10274286Y-14296714D01*
X10302857Y-14311000D01*
X10317143Y-14325286D01*
X10331428Y-14353857D01*
X10331428Y-14439571D01*
X10317143Y-14468143D01*
X10302857Y-14482429D01*
X10274286Y-14496714D01*
X10231428Y-14496714D01*
X10502857Y-14496714D02*
X10474286Y-14482429D01*
X10460000Y-14453857D01*
X10460000Y-14196714D01*
X10731428Y-14482429D02*
X10702857Y-14496714D01*
X10645714Y-14496714D01*
X10617143Y-14482429D01*
X10602857Y-14453857D01*
X10602857Y-14339571D01*
X10617143Y-14311000D01*
X10645714Y-14296714D01*
X10702857Y-14296714D01*
X10731428Y-14311000D01*
X10745714Y-14339571D01*
X10745714Y-14368143D01*
X10602857Y-14396714D01*
X10860000Y-14482429D02*
X10888571Y-14496714D01*
X10945714Y-14496714D01*
X10974286Y-14482429D01*
X10988571Y-14453857D01*
X10988571Y-14439571D01*
X10974286Y-14411000D01*
X10945714Y-14396714D01*
X10902857Y-14396714D01*
X10874286Y-14382429D01*
X10860000Y-14353857D01*
X10860000Y-14339571D01*
X10874286Y-14311000D01*
X10902857Y-14296714D01*
X10945714Y-14296714D01*
X10974286Y-14311000D01*
X11088571Y-14611000D02*
X11102857Y-14596714D01*
X11131428Y-14553857D01*
X11145714Y-14525286D01*
X11160000Y-14482429D01*
X11174286Y-14411000D01*
X11174286Y-14353857D01*
X11160000Y-14282429D01*
X11145714Y-14239571D01*
X11131428Y-14211000D01*
X11102857Y-14168143D01*
X11088571Y-14153857D01*
X3705000Y-14717000D02*
X3705000Y-14797000D01*
X3665000Y-14757000D02*
X3745000Y-14757000D01*
X4088571Y-14592714D02*
X4117143Y-14592714D01*
X4145714Y-14607000D01*
X4160000Y-14621286D01*
X4174286Y-14649857D01*
X4188571Y-14707000D01*
X4188571Y-14778429D01*
X4174286Y-14835571D01*
X4160000Y-14864143D01*
X4145714Y-14878429D01*
X4117143Y-14892714D01*
X4088571Y-14892714D01*
X4060000Y-14878429D01*
X4045714Y-14864143D01*
X4031428Y-14835571D01*
X4017143Y-14778429D01*
X4017143Y-14707000D01*
X4031428Y-14649857D01*
X4045714Y-14621286D01*
X4060000Y-14607000D01*
X4088571Y-14592714D01*
X4317143Y-14864143D02*
X4331428Y-14878429D01*
X4317143Y-14892714D01*
X4302857Y-14878429D01*
X4317143Y-14864143D01*
X4317143Y-14892714D01*
X4502857Y-14721286D02*
X4474286Y-14707000D01*
X4460000Y-14692714D01*
X4445714Y-14664143D01*
X4445714Y-14649857D01*
X4460000Y-14621286D01*
X4474286Y-14607000D01*
X4502857Y-14592714D01*
X4560000Y-14592714D01*
X4588571Y-14607000D01*
X4602857Y-14621286D01*
X4617143Y-14649857D01*
X4617143Y-14664143D01*
X4602857Y-14692714D01*
X4588571Y-14707000D01*
X4560000Y-14721286D01*
X4502857Y-14721286D01*
X4474286Y-14735571D01*
X4460000Y-14749857D01*
X4445714Y-14778429D01*
X4445714Y-14835571D01*
X4460000Y-14864143D01*
X4474286Y-14878429D01*
X4502857Y-14892714D01*
X4560000Y-14892714D01*
X4588571Y-14878429D01*
X4602857Y-14864143D01*
X4617143Y-14835571D01*
X4617143Y-14778429D01*
X4602857Y-14749857D01*
X4588571Y-14735571D01*
X4560000Y-14721286D01*
X4802857Y-14592714D02*
X4831428Y-14592714D01*
X4860000Y-14607000D01*
X4874286Y-14621286D01*
X4888571Y-14649857D01*
X4902857Y-14707000D01*
X4902857Y-14778429D01*
X4888571Y-14835571D01*
X4874286Y-14864143D01*
X4860000Y-14878429D01*
X4831428Y-14892714D01*
X4802857Y-14892714D01*
X4774286Y-14878429D01*
X4760000Y-14864143D01*
X4745714Y-14835571D01*
X4731428Y-14778429D01*
X4731428Y-14707000D01*
X4745714Y-14649857D01*
X4760000Y-14621286D01*
X4774286Y-14607000D01*
X4802857Y-14592714D01*
X5088571Y-14592714D02*
X5117143Y-14592714D01*
X5145714Y-14607000D01*
X5160000Y-14621286D01*
X5174286Y-14649857D01*
X5188571Y-14707000D01*
X5188571Y-14778429D01*
X5174286Y-14835571D01*
X5160000Y-14864143D01*
X5145714Y-14878429D01*
X5117143Y-14892714D01*
X5088571Y-14892714D01*
X5060000Y-14878429D01*
X5045714Y-14864143D01*
X5031428Y-14835571D01*
X5017143Y-14778429D01*
X5017143Y-14707000D01*
X5031428Y-14649857D01*
X5045714Y-14621286D01*
X5060000Y-14607000D01*
X5088571Y-14592714D01*
X5317143Y-14892714D02*
X5317143Y-14692714D01*
X5317143Y-14721286D02*
X5331428Y-14707000D01*
X5360000Y-14692714D01*
X5402857Y-14692714D01*
X5431428Y-14707000D01*
X5445714Y-14735571D01*
X5445714Y-14892714D01*
X5445714Y-14735571D02*
X5460000Y-14707000D01*
X5488571Y-14692714D01*
X5531428Y-14692714D01*
X5560000Y-14707000D01*
X5574286Y-14735571D01*
X5574286Y-14892714D01*
X5717143Y-14892714D02*
X5717143Y-14692714D01*
X5717143Y-14721286D02*
X5731428Y-14707000D01*
X5760000Y-14692714D01*
X5802857Y-14692714D01*
X5831428Y-14707000D01*
X5845714Y-14735571D01*
X5845714Y-14892714D01*
X5845714Y-14735571D02*
X5860000Y-14707000D01*
X5888571Y-14692714D01*
X5931428Y-14692714D01*
X5960000Y-14707000D01*
X5974286Y-14735571D01*
X5974286Y-14892714D01*
X6560000Y-14578429D02*
X6302857Y-14964143D01*
X6945714Y-14592714D02*
X6974286Y-14592714D01*
X7002857Y-14607000D01*
X7017143Y-14621286D01*
X7031428Y-14649857D01*
X7045714Y-14707000D01*
X7045714Y-14778429D01*
X7031428Y-14835571D01*
X7017143Y-14864143D01*
X7002857Y-14878429D01*
X6974286Y-14892714D01*
X6945714Y-14892714D01*
X6917143Y-14878429D01*
X6902857Y-14864143D01*
X6888571Y-14835571D01*
X6874286Y-14778429D01*
X6874286Y-14707000D01*
X6888571Y-14649857D01*
X6902857Y-14621286D01*
X6917143Y-14607000D01*
X6945714Y-14592714D01*
X7174286Y-14864143D02*
X7188571Y-14878429D01*
X7174286Y-14892714D01*
X7160000Y-14878429D01*
X7174286Y-14864143D01*
X7174286Y-14892714D01*
X7374286Y-14592714D02*
X7402857Y-14592714D01*
X7431428Y-14607000D01*
X7445714Y-14621286D01*
X7460000Y-14649857D01*
X7474286Y-14707000D01*
X7474286Y-14778429D01*
X7460000Y-14835571D01*
X7445714Y-14864143D01*
X7431428Y-14878429D01*
X7402857Y-14892714D01*
X7374286Y-14892714D01*
X7345714Y-14878429D01*
X7331428Y-14864143D01*
X7317143Y-14835571D01*
X7302857Y-14778429D01*
X7302857Y-14707000D01*
X7317143Y-14649857D01*
X7331428Y-14621286D01*
X7345714Y-14607000D01*
X7374286Y-14592714D01*
X7574286Y-14592714D02*
X7760000Y-14592714D01*
X7660000Y-14707000D01*
X7702857Y-14707000D01*
X7731428Y-14721286D01*
X7745714Y-14735571D01*
X7760000Y-14764143D01*
X7760000Y-14835571D01*
X7745714Y-14864143D01*
X7731428Y-14878429D01*
X7702857Y-14892714D01*
X7617143Y-14892714D01*
X7588571Y-14878429D01*
X7574286Y-14864143D01*
X8045714Y-14892714D02*
X7874286Y-14892714D01*
X7960000Y-14892714D02*
X7960000Y-14592714D01*
X7931428Y-14635571D01*
X7902857Y-14664143D01*
X7874286Y-14678429D01*
X8317143Y-14592714D02*
X8174286Y-14592714D01*
X8160000Y-14735571D01*
X8174286Y-14721286D01*
X8202857Y-14707000D01*
X8274286Y-14707000D01*
X8302857Y-14721286D01*
X8317143Y-14735571D01*
X8331428Y-14764143D01*
X8331428Y-14835571D01*
X8317143Y-14864143D01*
X8302857Y-14878429D01*
X8274286Y-14892714D01*
X8202857Y-14892714D01*
X8174286Y-14878429D01*
X8160000Y-14864143D01*
X8445714Y-14592714D02*
X8445714Y-14649857D01*
X8560000Y-14592714D02*
X8560000Y-14649857D01*
X9002857Y-15007000D02*
X8988571Y-14992714D01*
X8960000Y-14949857D01*
X8945714Y-14921286D01*
X8931428Y-14878429D01*
X8917143Y-14807000D01*
X8917143Y-14749857D01*
X8931428Y-14678429D01*
X8945714Y-14635571D01*
X8960000Y-14607000D01*
X8988571Y-14564143D01*
X9002857Y-14549857D01*
X9088571Y-14592714D02*
X9274286Y-14592714D01*
X9174286Y-14707000D01*
X9217143Y-14707000D01*
X9245714Y-14721286D01*
X9260000Y-14735571D01*
X9274286Y-14764143D01*
X9274286Y-14835571D01*
X9260000Y-14864143D01*
X9245714Y-14878429D01*
X9217143Y-14892714D01*
X9131428Y-14892714D01*
X9102857Y-14878429D01*
X9088571Y-14864143D01*
X9445714Y-14721286D02*
X9417143Y-14707000D01*
X9402857Y-14692714D01*
X9388571Y-14664143D01*
X9388571Y-14649857D01*
X9402857Y-14621286D01*
X9417143Y-14607000D01*
X9445714Y-14592714D01*
X9502857Y-14592714D01*
X9531428Y-14607000D01*
X9545714Y-14621286D01*
X9560000Y-14649857D01*
X9560000Y-14664143D01*
X9545714Y-14692714D01*
X9531428Y-14707000D01*
X9502857Y-14721286D01*
X9445714Y-14721286D01*
X9417143Y-14735571D01*
X9402857Y-14749857D01*
X9388571Y-14778429D01*
X9388571Y-14835571D01*
X9402857Y-14864143D01*
X9417143Y-14878429D01*
X9445714Y-14892714D01*
X9502857Y-14892714D01*
X9531428Y-14878429D01*
X9545714Y-14864143D01*
X9560000Y-14835571D01*
X9560000Y-14778429D01*
X9545714Y-14749857D01*
X9531428Y-14735571D01*
X9502857Y-14721286D01*
X9917143Y-14892714D02*
X9917143Y-14592714D01*
X10045714Y-14892714D02*
X10045714Y-14735571D01*
X10031428Y-14707000D01*
X10002857Y-14692714D01*
X9960000Y-14692714D01*
X9931428Y-14707000D01*
X9917143Y-14721286D01*
X10231428Y-14892714D02*
X10202857Y-14878429D01*
X10188571Y-14864143D01*
X10174286Y-14835571D01*
X10174286Y-14749857D01*
X10188571Y-14721286D01*
X10202857Y-14707000D01*
X10231428Y-14692714D01*
X10274286Y-14692714D01*
X10302857Y-14707000D01*
X10317143Y-14721286D01*
X10331428Y-14749857D01*
X10331428Y-14835571D01*
X10317143Y-14864143D01*
X10302857Y-14878429D01*
X10274286Y-14892714D01*
X10231428Y-14892714D01*
X10502857Y-14892714D02*
X10474286Y-14878429D01*
X10460000Y-14849857D01*
X10460000Y-14592714D01*
X10731428Y-14878429D02*
X10702857Y-14892714D01*
X10645714Y-14892714D01*
X10617143Y-14878429D01*
X10602857Y-14849857D01*
X10602857Y-14735571D01*
X10617143Y-14707000D01*
X10645714Y-14692714D01*
X10702857Y-14692714D01*
X10731428Y-14707000D01*
X10745714Y-14735571D01*
X10745714Y-14764143D01*
X10602857Y-14792714D01*
X10860000Y-14878429D02*
X10888571Y-14892714D01*
X10945714Y-14892714D01*
X10974286Y-14878429D01*
X10988571Y-14849857D01*
X10988571Y-14835571D01*
X10974286Y-14807000D01*
X10945714Y-14792714D01*
X10902857Y-14792714D01*
X10874286Y-14778429D01*
X10860000Y-14749857D01*
X10860000Y-14735571D01*
X10874286Y-14707000D01*
X10902857Y-14692714D01*
X10945714Y-14692714D01*
X10974286Y-14707000D01*
X11088571Y-15007000D02*
X11102857Y-14992714D01*
X11131428Y-14949857D01*
X11145714Y-14921286D01*
X11160000Y-14878429D01*
X11174286Y-14807000D01*
X11174286Y-14749857D01*
X11160000Y-14678429D01*
X11145714Y-14635571D01*
X11131428Y-14607000D01*
X11102857Y-14564143D01*
X11088571Y-14549857D01*
X3712782Y-15230783D02*
X3712782Y-15075218D01*
X3557217Y-15075218D01*
X3557217Y-15230783D01*
X3712782Y-15230783D01*
X4017143Y-15017286D02*
X4031428Y-15003000D01*
X4060000Y-14988714D01*
X4131428Y-14988714D01*
X4160000Y-15003000D01*
X4174286Y-15017286D01*
X4188571Y-15045857D01*
X4188571Y-15074429D01*
X4174286Y-15117286D01*
X4002857Y-15288714D01*
X4188571Y-15288714D01*
X4317143Y-15260143D02*
X4331428Y-15274429D01*
X4317143Y-15288714D01*
X4302857Y-15274429D01*
X4317143Y-15260143D01*
X4317143Y-15288714D01*
X4445714Y-15017286D02*
X4460000Y-15003000D01*
X4488571Y-14988714D01*
X4560000Y-14988714D01*
X4588571Y-15003000D01*
X4602857Y-15017286D01*
X4617143Y-15045857D01*
X4617143Y-15074429D01*
X4602857Y-15117286D01*
X4431428Y-15288714D01*
X4617143Y-15288714D01*
X4802857Y-14988714D02*
X4831428Y-14988714D01*
X4860000Y-15003000D01*
X4874286Y-15017286D01*
X4888571Y-15045857D01*
X4902857Y-15103000D01*
X4902857Y-15174429D01*
X4888571Y-15231571D01*
X4874286Y-15260143D01*
X4860000Y-15274429D01*
X4831428Y-15288714D01*
X4802857Y-15288714D01*
X4774286Y-15274429D01*
X4760000Y-15260143D01*
X4745714Y-15231571D01*
X4731428Y-15174429D01*
X4731428Y-15103000D01*
X4745714Y-15045857D01*
X4760000Y-15017286D01*
X4774286Y-15003000D01*
X4802857Y-14988714D01*
X5088571Y-14988714D02*
X5117143Y-14988714D01*
X5145714Y-15003000D01*
X5160000Y-15017286D01*
X5174286Y-15045857D01*
X5188571Y-15103000D01*
X5188571Y-15174429D01*
X5174286Y-15231571D01*
X5160000Y-15260143D01*
X5145714Y-15274429D01*
X5117143Y-15288714D01*
X5088571Y-15288714D01*
X5060000Y-15274429D01*
X5045714Y-15260143D01*
X5031428Y-15231571D01*
X5017143Y-15174429D01*
X5017143Y-15103000D01*
X5031428Y-15045857D01*
X5045714Y-15017286D01*
X5060000Y-15003000D01*
X5088571Y-14988714D01*
X5317143Y-15288714D02*
X5317143Y-15088714D01*
X5317143Y-15117286D02*
X5331428Y-15103000D01*
X5360000Y-15088714D01*
X5402857Y-15088714D01*
X5431428Y-15103000D01*
X5445714Y-15131571D01*
X5445714Y-15288714D01*
X5445714Y-15131571D02*
X5460000Y-15103000D01*
X5488571Y-15088714D01*
X5531428Y-15088714D01*
X5560000Y-15103000D01*
X5574286Y-15131571D01*
X5574286Y-15288714D01*
X5717143Y-15288714D02*
X5717143Y-15088714D01*
X5717143Y-15117286D02*
X5731428Y-15103000D01*
X5760000Y-15088714D01*
X5802857Y-15088714D01*
X5831428Y-15103000D01*
X5845714Y-15131571D01*
X5845714Y-15288714D01*
X5845714Y-15131571D02*
X5860000Y-15103000D01*
X5888571Y-15088714D01*
X5931428Y-15088714D01*
X5960000Y-15103000D01*
X5974286Y-15131571D01*
X5974286Y-15288714D01*
X6560000Y-14974429D02*
X6302857Y-15360143D01*
X6945714Y-14988714D02*
X6974286Y-14988714D01*
X7002857Y-15003000D01*
X7017143Y-15017286D01*
X7031428Y-15045857D01*
X7045714Y-15103000D01*
X7045714Y-15174429D01*
X7031428Y-15231571D01*
X7017143Y-15260143D01*
X7002857Y-15274429D01*
X6974286Y-15288714D01*
X6945714Y-15288714D01*
X6917143Y-15274429D01*
X6902857Y-15260143D01*
X6888571Y-15231571D01*
X6874286Y-15174429D01*
X6874286Y-15103000D01*
X6888571Y-15045857D01*
X6902857Y-15017286D01*
X6917143Y-15003000D01*
X6945714Y-14988714D01*
X7174286Y-15260143D02*
X7188571Y-15274429D01*
X7174286Y-15288714D01*
X7160000Y-15274429D01*
X7174286Y-15260143D01*
X7174286Y-15288714D01*
X7374286Y-14988714D02*
X7402857Y-14988714D01*
X7431428Y-15003000D01*
X7445714Y-15017286D01*
X7460000Y-15045857D01*
X7474286Y-15103000D01*
X7474286Y-15174429D01*
X7460000Y-15231571D01*
X7445714Y-15260143D01*
X7431428Y-15274429D01*
X7402857Y-15288714D01*
X7374286Y-15288714D01*
X7345714Y-15274429D01*
X7331428Y-15260143D01*
X7317143Y-15231571D01*
X7302857Y-15174429D01*
X7302857Y-15103000D01*
X7317143Y-15045857D01*
X7331428Y-15017286D01*
X7345714Y-15003000D01*
X7374286Y-14988714D01*
X7645714Y-15117286D02*
X7617143Y-15103000D01*
X7602857Y-15088714D01*
X7588571Y-15060143D01*
X7588571Y-15045857D01*
X7602857Y-15017286D01*
X7617143Y-15003000D01*
X7645714Y-14988714D01*
X7702857Y-14988714D01*
X7731428Y-15003000D01*
X7745714Y-15017286D01*
X7760000Y-15045857D01*
X7760000Y-15060143D01*
X7745714Y-15088714D01*
X7731428Y-15103000D01*
X7702857Y-15117286D01*
X7645714Y-15117286D01*
X7617143Y-15131571D01*
X7602857Y-15145857D01*
X7588571Y-15174429D01*
X7588571Y-15231571D01*
X7602857Y-15260143D01*
X7617143Y-15274429D01*
X7645714Y-15288714D01*
X7702857Y-15288714D01*
X7731428Y-15274429D01*
X7745714Y-15260143D01*
X7760000Y-15231571D01*
X7760000Y-15174429D01*
X7745714Y-15145857D01*
X7731428Y-15131571D01*
X7702857Y-15117286D01*
X8017143Y-14988714D02*
X7960000Y-14988714D01*
X7931428Y-15003000D01*
X7917143Y-15017286D01*
X7888571Y-15060143D01*
X7874286Y-15117286D01*
X7874286Y-15231571D01*
X7888571Y-15260143D01*
X7902857Y-15274429D01*
X7931428Y-15288714D01*
X7988571Y-15288714D01*
X8017143Y-15274429D01*
X8031428Y-15260143D01*
X8045714Y-15231571D01*
X8045714Y-15160143D01*
X8031428Y-15131571D01*
X8017143Y-15117286D01*
X7988571Y-15103000D01*
X7931428Y-15103000D01*
X7902857Y-15117286D01*
X7888571Y-15131571D01*
X7874286Y-15160143D01*
X8302857Y-14988714D02*
X8245714Y-14988714D01*
X8217143Y-15003000D01*
X8202857Y-15017286D01*
X8174286Y-15060143D01*
X8160000Y-15117286D01*
X8160000Y-15231571D01*
X8174286Y-15260143D01*
X8188571Y-15274429D01*
X8217143Y-15288714D01*
X8274286Y-15288714D01*
X8302857Y-15274429D01*
X8317143Y-15260143D01*
X8331428Y-15231571D01*
X8331428Y-15160143D01*
X8317143Y-15131571D01*
X8302857Y-15117286D01*
X8274286Y-15103000D01*
X8217143Y-15103000D01*
X8188571Y-15117286D01*
X8174286Y-15131571D01*
X8160000Y-15160143D01*
X8445714Y-14988714D02*
X8445714Y-15045857D01*
X8560000Y-14988714D02*
X8560000Y-15045857D01*
X9002857Y-15403000D02*
X8988571Y-15388714D01*
X8960000Y-15345857D01*
X8945714Y-15317286D01*
X8931428Y-15274429D01*
X8917143Y-15203000D01*
X8917143Y-15145857D01*
X8931428Y-15074429D01*
X8945714Y-15031571D01*
X8960000Y-15003000D01*
X8988571Y-14960143D01*
X9002857Y-14945857D01*
X9274286Y-15288714D02*
X9102857Y-15288714D01*
X9188571Y-15288714D02*
X9188571Y-14988714D01*
X9160000Y-15031571D01*
X9131428Y-15060143D01*
X9102857Y-15074429D01*
X9460000Y-14988714D02*
X9488571Y-14988714D01*
X9517143Y-15003000D01*
X9531428Y-15017286D01*
X9545714Y-15045857D01*
X9560000Y-15103000D01*
X9560000Y-15174429D01*
X9545714Y-15231571D01*
X9531428Y-15260143D01*
X9517143Y-15274429D01*
X9488571Y-15288714D01*
X9460000Y-15288714D01*
X9431428Y-15274429D01*
X9417143Y-15260143D01*
X9402857Y-15231571D01*
X9388571Y-15174429D01*
X9388571Y-15103000D01*
X9402857Y-15045857D01*
X9417143Y-15017286D01*
X9431428Y-15003000D01*
X9460000Y-14988714D01*
X9917143Y-15288714D02*
X9917143Y-14988714D01*
X10045714Y-15288714D02*
X10045714Y-15131571D01*
X10031428Y-15103000D01*
X10002857Y-15088714D01*
X9960000Y-15088714D01*
X9931428Y-15103000D01*
X9917143Y-15117286D01*
X10231428Y-15288714D02*
X10202857Y-15274429D01*
X10188571Y-15260143D01*
X10174286Y-15231571D01*
X10174286Y-15145857D01*
X10188571Y-15117286D01*
X10202857Y-15103000D01*
X10231428Y-15088714D01*
X10274286Y-15088714D01*
X10302857Y-15103000D01*
X10317143Y-15117286D01*
X10331428Y-15145857D01*
X10331428Y-15231571D01*
X10317143Y-15260143D01*
X10302857Y-15274429D01*
X10274286Y-15288714D01*
X10231428Y-15288714D01*
X10502857Y-15288714D02*
X10474286Y-15274429D01*
X10460000Y-15245857D01*
X10460000Y-14988714D01*
X10731428Y-15274429D02*
X10702857Y-15288714D01*
X10645714Y-15288714D01*
X10617143Y-15274429D01*
X10602857Y-15245857D01*
X10602857Y-15131571D01*
X10617143Y-15103000D01*
X10645714Y-15088714D01*
X10702857Y-15088714D01*
X10731428Y-15103000D01*
X10745714Y-15131571D01*
X10745714Y-15160143D01*
X10602857Y-15188714D01*
X10860000Y-15274429D02*
X10888571Y-15288714D01*
X10945714Y-15288714D01*
X10974286Y-15274429D01*
X10988571Y-15245857D01*
X10988571Y-15231571D01*
X10974286Y-15203000D01*
X10945714Y-15188714D01*
X10902857Y-15188714D01*
X10874286Y-15174429D01*
X10860000Y-15145857D01*
X10860000Y-15131571D01*
X10874286Y-15103000D01*
X10902857Y-15088714D01*
X10945714Y-15088714D01*
X10974286Y-15103000D01*
X11088571Y-15403000D02*
X11102857Y-15388714D01*
X11131428Y-15345857D01*
X11145714Y-15317286D01*
X11160000Y-15274429D01*
X11174286Y-15203000D01*
X11174286Y-15145857D01*
X11160000Y-15074429D01*
X11145714Y-15031571D01*
X11131428Y-15003000D01*
X11102857Y-14960143D01*
X11088571Y-14945857D01*
M02*
