%TF.GenerationSoftware,KiCad,Pcbnew,5.1.10*%
%TF.CreationDate,2021-06-22T19:33:50+02:00*%
%TF.ProjectId,double-gain,646f7562-6c65-42d6-9761-696e2e6b6963,rev?*%
%TF.SameCoordinates,Original*%
%TF.FileFunction,Copper,L1,Top*%
%TF.FilePolarity,Positive*%
%FSLAX46Y46*%
G04 Gerber Fmt 4.6, Leading zero omitted, Abs format (unit mm)*
G04 Created by KiCad (PCBNEW 5.1.10) date 2021-06-22 19:33:50*
%MOMM*%
%LPD*%
G01*
G04 APERTURE LIST*
%TA.AperFunction,ComponentPad*%
%ADD10O,1.600000X1.600000*%
%TD*%
%TA.AperFunction,ComponentPad*%
%ADD11R,1.600000X1.600000*%
%TD*%
%TA.AperFunction,ComponentPad*%
%ADD12C,1.600000*%
%TD*%
%TA.AperFunction,ComponentPad*%
%ADD13C,3.500000*%
%TD*%
%TA.AperFunction,ComponentPad*%
%ADD14O,1.400000X1.400000*%
%TD*%
%TA.AperFunction,ComponentPad*%
%ADD15C,1.400000*%
%TD*%
%TA.AperFunction,ViaPad*%
%ADD16C,0.800000*%
%TD*%
%TA.AperFunction,Conductor*%
%ADD17C,0.250000*%
%TD*%
%TA.AperFunction,Conductor*%
%ADD18C,0.254000*%
%TD*%
%TA.AperFunction,Conductor*%
%ADD19C,0.100000*%
%TD*%
G04 APERTURE END LIST*
D10*
%TO.P,U2,8*%
%TO.N,Net-(U2-Pad8)*%
X62000000Y-86000000D03*
%TO.P,U2,4*%
%TO.N,V-*%
X69620000Y-78380000D03*
%TO.P,U2,7*%
%TO.N,VCC*%
X62000000Y-83460000D03*
%TO.P,U2,3*%
%TO.N,ind*%
X69620000Y-80920000D03*
%TO.P,U2,6*%
%TO.N,Net-(R13-Pad1)*%
X62000000Y-80920000D03*
%TO.P,U2,2*%
%TO.N,Net-(R12-Pad2)*%
X69620000Y-83460000D03*
%TO.P,U2,5*%
%TO.N,Net-(U2-Pad5)*%
X62000000Y-78380000D03*
D11*
%TO.P,U2,1*%
%TO.N,Net-(U2-Pad1)*%
X69620000Y-86000000D03*
%TD*%
D12*
%TO.P,C1,2*%
%TO.N,V-*%
X61500000Y-52000000D03*
%TO.P,C1,1*%
%TO.N,VCC*%
X61500000Y-54500000D03*
%TD*%
%TO.P,C2,1*%
%TO.N,VCC*%
X56500000Y-54500000D03*
%TO.P,C2,2*%
%TO.N,V-*%
X56500000Y-52000000D03*
%TD*%
%TO.P,C3,2*%
%TO.N,V-*%
X51500000Y-52000000D03*
%TO.P,C3,1*%
%TO.N,VCC*%
X51500000Y-54500000D03*
%TD*%
%TO.P,C4,1*%
%TO.N,/2*%
X46500000Y-54500000D03*
%TO.P,C4,2*%
%TO.N,Net-(C4-Pad2)*%
X46500000Y-52000000D03*
%TD*%
%TO.P,C5,2*%
%TO.N,Net-(C5-Pad2)*%
X46500000Y-113000000D03*
%TO.P,C5,1*%
%TO.N,Net-(C5-Pad1)*%
X49000000Y-113000000D03*
%TD*%
%TO.P,C6,1*%
%TO.N,V-*%
X51000000Y-73500000D03*
%TO.P,C6,2*%
%TO.N,Net-(C6-Pad2)*%
X48500000Y-73500000D03*
%TD*%
%TO.P,C7,2*%
%TO.N,Net-(C7-Pad2)*%
X66500000Y-52000000D03*
%TO.P,C7,1*%
%TO.N,/3*%
X66500000Y-54500000D03*
%TD*%
%TO.P,C8,1*%
%TO.N,Net-(C8-Pad1)*%
X57500000Y-113000000D03*
%TO.P,C8,2*%
%TO.N,V-*%
X55000000Y-113000000D03*
%TD*%
D10*
%TO.P,D1,2*%
%TO.N,V-*%
X52380000Y-68000000D03*
D11*
%TO.P,D1,1*%
%TO.N,Net-(D1-Pad1)*%
X60000000Y-68000000D03*
%TD*%
%TO.P,D2,1*%
%TO.N,VCC*%
X46380000Y-98000000D03*
D10*
%TO.P,D2,2*%
%TO.N,Net-(C5-Pad1)*%
X54000000Y-98000000D03*
%TD*%
D11*
%TO.P,D3,1*%
%TO.N,Net-(C5-Pad1)*%
X59000000Y-98000000D03*
D10*
%TO.P,D3,2*%
%TO.N,V-*%
X66620000Y-98000000D03*
%TD*%
D13*
%TO.P,J1,1*%
%TO.N,Net-(C5-Pad2)*%
X46000000Y-119000000D03*
%TD*%
%TO.P,J3,1*%
%TO.N,V-*%
X52000000Y-119000000D03*
%TD*%
%TO.P,J6,1*%
%TO.N,Earth*%
X42500000Y-125000000D03*
%TD*%
%TO.P,J7,1*%
%TO.N,Earth*%
X70000000Y-37500000D03*
%TD*%
%TO.P,J8,1*%
%TO.N,Earth*%
X42500000Y-37500000D03*
%TD*%
%TO.P,J9,1*%
%TO.N,Earth*%
X70000000Y-125000000D03*
%TD*%
D14*
%TO.P,R1,2*%
%TO.N,VCC*%
X65000000Y-69080000D03*
D15*
%TO.P,R1,1*%
%TO.N,Net-(D1-Pad1)*%
X65000000Y-64000000D03*
%TD*%
D14*
%TO.P,R2,2*%
%TO.N,Net-(R2-Pad2)*%
X54500000Y-84000000D03*
D15*
%TO.P,R2,1*%
%TO.N,Net-(R2-Pad1)*%
X54500000Y-78920000D03*
%TD*%
%TO.P,R3,1*%
%TO.N,Net-(D1-Pad1)*%
X44000000Y-69000000D03*
D14*
%TO.P,R3,2*%
%TO.N,/2*%
X44000000Y-63920000D03*
%TD*%
%TO.P,R4,2*%
%TO.N,/3*%
X53920000Y-64000000D03*
D15*
%TO.P,R4,1*%
%TO.N,Net-(D1-Pad1)*%
X59000000Y-64000000D03*
%TD*%
%TO.P,R5,1*%
%TO.N,Net-(C4-Pad2)*%
X48000000Y-64000000D03*
D14*
%TO.P,R5,2*%
%TO.N,Net-(R2-Pad1)*%
X48000000Y-69080000D03*
%TD*%
%TO.P,R6,2*%
%TO.N,Net-(C8-Pad1)*%
X54500000Y-108000000D03*
D15*
%TO.P,R6,1*%
%TO.N,VCC*%
X49420000Y-108000000D03*
%TD*%
D14*
%TO.P,R7,2*%
%TO.N,Net-(C5-Pad1)*%
X46500000Y-110080000D03*
D15*
%TO.P,R7,1*%
%TO.N,Net-(C8-Pad1)*%
X46500000Y-105000000D03*
%TD*%
%TO.P,R8,1*%
%TO.N,Net-(C7-Pad2)*%
X69000000Y-64000000D03*
D14*
%TO.P,R8,2*%
%TO.N,Net-(R13-Pad1)*%
X69000000Y-69080000D03*
%TD*%
D15*
%TO.P,R9,1*%
%TO.N,Net-(C6-Pad2)*%
X44420000Y-91000000D03*
D14*
%TO.P,R9,2*%
%TO.N,Net-(R2-Pad2)*%
X49500000Y-91000000D03*
%TD*%
D15*
%TO.P,R10,1*%
%TO.N,Net-(C8-Pad1)*%
X62580000Y-108000000D03*
D14*
%TO.P,R10,2*%
%TO.N,V-*%
X57500000Y-108000000D03*
%TD*%
D11*
%TO.P,U1,1*%
%TO.N,Net-(U1-Pad1)*%
X51000000Y-86000000D03*
D10*
%TO.P,U1,5*%
%TO.N,Net-(U1-Pad5)*%
X43380000Y-78380000D03*
%TO.P,U1,2*%
%TO.N,Net-(R2-Pad2)*%
X51000000Y-83460000D03*
%TO.P,U1,6*%
%TO.N,Net-(R2-Pad1)*%
X43380000Y-80920000D03*
%TO.P,U1,3*%
%TO.N,Net-(C5-Pad1)*%
X51000000Y-80920000D03*
%TO.P,U1,7*%
%TO.N,VCC*%
X43380000Y-83460000D03*
%TO.P,U1,4*%
%TO.N,V-*%
X51000000Y-78380000D03*
%TO.P,U1,8*%
%TO.N,Net-(U1-Pad8)*%
X43380000Y-86000000D03*
%TD*%
D12*
%TO.P,C9,2*%
%TO.N,Net-(C9-Pad2)*%
X66000000Y-113000000D03*
%TO.P,C9,1*%
%TO.N,ind*%
X63500000Y-113000000D03*
%TD*%
%TO.P,C10,1*%
%TO.N,V-*%
X61500000Y-73500000D03*
%TO.P,C10,2*%
%TO.N,Net-(C10-Pad2)*%
X64000000Y-73500000D03*
%TD*%
D10*
%TO.P,D4,2*%
%TO.N,ind*%
X54120000Y-102000000D03*
D11*
%TO.P,D4,1*%
%TO.N,VCC*%
X46500000Y-102000000D03*
%TD*%
%TO.P,D5,1*%
%TO.N,ind*%
X59000000Y-102000000D03*
D10*
%TO.P,D5,2*%
%TO.N,V-*%
X66620000Y-102000000D03*
%TD*%
D13*
%TO.P,J10,1*%
%TO.N,Net-(C9-Pad2)*%
X66000000Y-119000000D03*
%TD*%
%TO.P,J11,1*%
%TO.N,V-*%
X59000000Y-119000000D03*
%TD*%
D15*
%TO.P,R11,1*%
%TO.N,Net-(C8-Pad1)*%
X66500000Y-104500000D03*
D14*
%TO.P,R11,2*%
%TO.N,ind*%
X66500000Y-109580000D03*
%TD*%
D15*
%TO.P,R12,1*%
%TO.N,Net-(C10-Pad2)*%
X63000000Y-91000000D03*
D14*
%TO.P,R12,2*%
%TO.N,Net-(R12-Pad2)*%
X68080000Y-91000000D03*
%TD*%
%TO.P,R13,2*%
%TO.N,Net-(R12-Pad2)*%
X58500000Y-84080000D03*
D15*
%TO.P,R13,1*%
%TO.N,Net-(R13-Pad1)*%
X58500000Y-79000000D03*
%TD*%
D13*
%TO.P,J2,1*%
%TO.N,/2*%
X56500000Y-40000000D03*
%TD*%
%TO.P,J4,1*%
%TO.N,/3*%
X51500000Y-40000000D03*
%TD*%
%TO.P,J5,1*%
%TO.N,V-*%
X61500000Y-40000000D03*
%TD*%
D16*
%TO.N,Earth*%
X56500000Y-75500000D03*
X46500000Y-81000000D03*
X65500000Y-81000000D03*
X69500000Y-89000000D03*
X50000000Y-76000000D03*
X54000000Y-53500000D03*
X59000000Y-53500000D03*
%TD*%
D17*
%TO.N,Net-(C5-Pad2)*%
X46000000Y-119000000D02*
X46500000Y-118500000D01*
X46500000Y-118500000D02*
X46500000Y-113000000D01*
%TO.N,Net-(C6-Pad2)*%
X44420000Y-91000000D02*
X48500000Y-86920000D01*
X48500000Y-86920000D02*
X48500000Y-73500000D01*
%TO.N,Net-(C7-Pad2)*%
X69000000Y-64000000D02*
X69000000Y-54500000D01*
X69000000Y-54500000D02*
X66500000Y-52000000D01*
%TO.N,Net-(D1-Pad1)*%
X59000000Y-65874700D02*
X59000000Y-64000000D01*
X60000000Y-66874700D02*
X59000000Y-65874700D01*
X44000000Y-69000000D02*
X47125300Y-65874700D01*
X47125300Y-65874700D02*
X59000000Y-65874700D01*
X60000000Y-68000000D02*
X60000000Y-66874700D01*
%TO.N,V-*%
X66620000Y-98000000D02*
X66620000Y-82224000D01*
X66620000Y-82224000D02*
X69338700Y-79505300D01*
X69338700Y-79505300D02*
X69620000Y-79505300D01*
X66620000Y-102000000D02*
X66620000Y-98000000D01*
X69620000Y-78380000D02*
X69620000Y-79505300D01*
X61500000Y-40000000D02*
X61500000Y-52000000D01*
%TO.N,VCC*%
X46500000Y-102000000D02*
X46500000Y-103125300D01*
X46500000Y-103125300D02*
X49420000Y-106045300D01*
X49420000Y-106045300D02*
X49420000Y-108000000D01*
X46380000Y-99125300D02*
X46500000Y-99245300D01*
X46500000Y-99245300D02*
X46500000Y-102000000D01*
X65000000Y-69592600D02*
X61500000Y-66092600D01*
X61500000Y-66092600D02*
X61500000Y-54500000D01*
X65000000Y-69592600D02*
X65000000Y-70105300D01*
X65000000Y-69080000D02*
X65000000Y-69592600D01*
X62000000Y-83460000D02*
X62000000Y-82334700D01*
X62000000Y-82334700D02*
X62281300Y-82334700D01*
X62281300Y-82334700D02*
X63125400Y-81490600D01*
X63125400Y-81490600D02*
X63125400Y-76290700D01*
X63125400Y-76290700D02*
X62843800Y-76009100D01*
X62843800Y-76009100D02*
X62843800Y-72261500D01*
X62843800Y-72261500D02*
X65000000Y-70105300D01*
X46380000Y-98000000D02*
X46380000Y-99125300D01*
%TO.N,Net-(C4-Pad2)*%
X48000000Y-64000000D02*
X48000000Y-53500000D01*
X48000000Y-53500000D02*
X46500000Y-52000000D01*
%TO.N,Net-(C5-Pad1)*%
X59000000Y-98000000D02*
X57874700Y-98000000D01*
X54000000Y-97437300D02*
X57312000Y-97437300D01*
X57312000Y-97437300D02*
X57874700Y-98000000D01*
X54000000Y-97437300D02*
X54000000Y-96874700D01*
X54000000Y-98000000D02*
X54000000Y-97437300D01*
X51000000Y-80920000D02*
X51000000Y-82045300D01*
X51000000Y-82045300D02*
X51281400Y-82045300D01*
X51281400Y-82045300D02*
X52874700Y-83638600D01*
X52874700Y-83638600D02*
X52874700Y-95749400D01*
X52874700Y-95749400D02*
X54000000Y-96874700D01*
%TO.N,Net-(C8-Pad1)*%
X57500000Y-112025300D02*
X54500000Y-109025300D01*
X57500000Y-113000000D02*
X57500000Y-112025300D01*
X62580000Y-108000000D02*
X58554700Y-112025300D01*
X58554700Y-112025300D02*
X57500000Y-112025300D01*
X54500000Y-108000000D02*
X54500000Y-109025300D01*
%TO.N,Net-(R2-Pad2)*%
X51000000Y-83460000D02*
X51000000Y-84585300D01*
X49500000Y-91000000D02*
X49500000Y-85382000D01*
X49500000Y-85382000D02*
X50296700Y-84585300D01*
X50296700Y-84585300D02*
X51000000Y-84585300D01*
%TO.N,Net-(C9-Pad2)*%
X66000000Y-119000000D02*
X66000000Y-113000000D01*
%TO.N,ind*%
X59000000Y-102000000D02*
X60125300Y-102000000D01*
X66500000Y-109580000D02*
X66500000Y-108554700D01*
X66500000Y-108554700D02*
X60125300Y-102180000D01*
X60125300Y-102180000D02*
X60125300Y-102000000D01*
X59000000Y-102000000D02*
X55245300Y-102000000D01*
X54120000Y-102000000D02*
X55245300Y-102000000D01*
%TO.N,Net-(C10-Pad2)*%
X63000000Y-91000000D02*
X64000000Y-90000000D01*
X64000000Y-90000000D02*
X64000000Y-73500000D01*
%TO.N,/2*%
X46500000Y-54500000D02*
X45334100Y-53334100D01*
X45334100Y-53334100D02*
X45334100Y-51165900D01*
X45334100Y-51165900D02*
X56500000Y-40000000D01*
%TD*%
D18*
%TO.N,Earth*%
X74315001Y-129315000D02*
X38185000Y-129315000D01*
X38185000Y-118765098D01*
X43615000Y-118765098D01*
X43615000Y-119234902D01*
X43706654Y-119695679D01*
X43886440Y-120129721D01*
X44147450Y-120520349D01*
X44479651Y-120852550D01*
X44870279Y-121113560D01*
X45304321Y-121293346D01*
X45765098Y-121385000D01*
X46234902Y-121385000D01*
X46695679Y-121293346D01*
X47129721Y-121113560D01*
X47520349Y-120852550D01*
X47852550Y-120520349D01*
X48113560Y-120129721D01*
X48293346Y-119695679D01*
X48385000Y-119234902D01*
X48385000Y-118765098D01*
X49615000Y-118765098D01*
X49615000Y-119234902D01*
X49706654Y-119695679D01*
X49886440Y-120129721D01*
X50147450Y-120520349D01*
X50479651Y-120852550D01*
X50870279Y-121113560D01*
X51304321Y-121293346D01*
X51765098Y-121385000D01*
X52234902Y-121385000D01*
X52695679Y-121293346D01*
X53129721Y-121113560D01*
X53520349Y-120852550D01*
X53852550Y-120520349D01*
X54113560Y-120129721D01*
X54293346Y-119695679D01*
X54385000Y-119234902D01*
X54385000Y-118765098D01*
X56615000Y-118765098D01*
X56615000Y-119234902D01*
X56706654Y-119695679D01*
X56886440Y-120129721D01*
X57147450Y-120520349D01*
X57479651Y-120852550D01*
X57870279Y-121113560D01*
X58304321Y-121293346D01*
X58765098Y-121385000D01*
X59234902Y-121385000D01*
X59695679Y-121293346D01*
X60129721Y-121113560D01*
X60520349Y-120852550D01*
X60852550Y-120520349D01*
X61113560Y-120129721D01*
X61293346Y-119695679D01*
X61385000Y-119234902D01*
X61385000Y-118765098D01*
X61293346Y-118304321D01*
X61113560Y-117870279D01*
X60852550Y-117479651D01*
X60520349Y-117147450D01*
X60129721Y-116886440D01*
X59695679Y-116706654D01*
X59234902Y-116615000D01*
X58765098Y-116615000D01*
X58304321Y-116706654D01*
X57870279Y-116886440D01*
X57479651Y-117147450D01*
X57147450Y-117479651D01*
X56886440Y-117870279D01*
X56706654Y-118304321D01*
X56615000Y-118765098D01*
X54385000Y-118765098D01*
X54293346Y-118304321D01*
X54113560Y-117870279D01*
X53852550Y-117479651D01*
X53520349Y-117147450D01*
X53129721Y-116886440D01*
X52695679Y-116706654D01*
X52234902Y-116615000D01*
X51765098Y-116615000D01*
X51304321Y-116706654D01*
X50870279Y-116886440D01*
X50479651Y-117147450D01*
X50147450Y-117479651D01*
X49886440Y-117870279D01*
X49706654Y-118304321D01*
X49615000Y-118765098D01*
X48385000Y-118765098D01*
X48293346Y-118304321D01*
X48113560Y-117870279D01*
X47852550Y-117479651D01*
X47520349Y-117147450D01*
X47260000Y-116973490D01*
X47260000Y-114218043D01*
X47414759Y-114114637D01*
X47614637Y-113914759D01*
X47750000Y-113712173D01*
X47885363Y-113914759D01*
X48085241Y-114114637D01*
X48320273Y-114271680D01*
X48581426Y-114379853D01*
X48858665Y-114435000D01*
X49141335Y-114435000D01*
X49418574Y-114379853D01*
X49679727Y-114271680D01*
X49914759Y-114114637D01*
X50114637Y-113914759D01*
X50271680Y-113679727D01*
X50379853Y-113418574D01*
X50435000Y-113141335D01*
X50435000Y-112858665D01*
X50379853Y-112581426D01*
X50271680Y-112320273D01*
X50114637Y-112085241D01*
X49914759Y-111885363D01*
X49679727Y-111728320D01*
X49418574Y-111620147D01*
X49141335Y-111565000D01*
X48858665Y-111565000D01*
X48581426Y-111620147D01*
X48320273Y-111728320D01*
X48085241Y-111885363D01*
X47885363Y-112085241D01*
X47750000Y-112287827D01*
X47614637Y-112085241D01*
X47414759Y-111885363D01*
X47179727Y-111728320D01*
X46918574Y-111620147D01*
X46641335Y-111565000D01*
X46358665Y-111565000D01*
X46081426Y-111620147D01*
X45820273Y-111728320D01*
X45585241Y-111885363D01*
X45385363Y-112085241D01*
X45228320Y-112320273D01*
X45120147Y-112581426D01*
X45065000Y-112858665D01*
X45065000Y-113141335D01*
X45120147Y-113418574D01*
X45228320Y-113679727D01*
X45385363Y-113914759D01*
X45585241Y-114114637D01*
X45740001Y-114218044D01*
X45740000Y-116619992D01*
X45304321Y-116706654D01*
X44870279Y-116886440D01*
X44479651Y-117147450D01*
X44147450Y-117479651D01*
X43886440Y-117870279D01*
X43706654Y-118304321D01*
X43615000Y-118765098D01*
X38185000Y-118765098D01*
X38185000Y-109948514D01*
X45165000Y-109948514D01*
X45165000Y-110211486D01*
X45216304Y-110469405D01*
X45316939Y-110712359D01*
X45463038Y-110931013D01*
X45648987Y-111116962D01*
X45867641Y-111263061D01*
X46110595Y-111363696D01*
X46368514Y-111415000D01*
X46631486Y-111415000D01*
X46889405Y-111363696D01*
X47132359Y-111263061D01*
X47351013Y-111116962D01*
X47536962Y-110931013D01*
X47683061Y-110712359D01*
X47783696Y-110469405D01*
X47835000Y-110211486D01*
X47835000Y-109948514D01*
X47783696Y-109690595D01*
X47683061Y-109447641D01*
X47536962Y-109228987D01*
X47351013Y-109043038D01*
X47132359Y-108896939D01*
X46889405Y-108796304D01*
X46631486Y-108745000D01*
X46368514Y-108745000D01*
X46110595Y-108796304D01*
X45867641Y-108896939D01*
X45648987Y-109043038D01*
X45463038Y-109228987D01*
X45316939Y-109447641D01*
X45216304Y-109690595D01*
X45165000Y-109948514D01*
X38185000Y-109948514D01*
X38185000Y-97200000D01*
X44941928Y-97200000D01*
X44941928Y-98800000D01*
X44954188Y-98924482D01*
X44990498Y-99044180D01*
X45049463Y-99154494D01*
X45128815Y-99251185D01*
X45225506Y-99330537D01*
X45335820Y-99389502D01*
X45455518Y-99425812D01*
X45580000Y-99438072D01*
X45685425Y-99438072D01*
X45740000Y-99540173D01*
X45740000Y-100561928D01*
X45700000Y-100561928D01*
X45575518Y-100574188D01*
X45455820Y-100610498D01*
X45345506Y-100669463D01*
X45248815Y-100748815D01*
X45169463Y-100845506D01*
X45110498Y-100955820D01*
X45074188Y-101075518D01*
X45061928Y-101200000D01*
X45061928Y-102800000D01*
X45074188Y-102924482D01*
X45110498Y-103044180D01*
X45169463Y-103154494D01*
X45248815Y-103251185D01*
X45345506Y-103330537D01*
X45455820Y-103389502D01*
X45575518Y-103425812D01*
X45700000Y-103438072D01*
X45805425Y-103438072D01*
X45865026Y-103549576D01*
X45936201Y-103636302D01*
X45960000Y-103665301D01*
X45988998Y-103689099D01*
X46043850Y-103743951D01*
X45867641Y-103816939D01*
X45648987Y-103963038D01*
X45463038Y-104148987D01*
X45316939Y-104367641D01*
X45216304Y-104610595D01*
X45165000Y-104868514D01*
X45165000Y-105131486D01*
X45216304Y-105389405D01*
X45316939Y-105632359D01*
X45463038Y-105851013D01*
X45648987Y-106036962D01*
X45867641Y-106183061D01*
X46110595Y-106283696D01*
X46368514Y-106335000D01*
X46631486Y-106335000D01*
X46889405Y-106283696D01*
X47132359Y-106183061D01*
X47351013Y-106036962D01*
X47536962Y-105851013D01*
X47683061Y-105632359D01*
X47756049Y-105456151D01*
X48660000Y-106360102D01*
X48660000Y-106902225D01*
X48568987Y-106963038D01*
X48383038Y-107148987D01*
X48236939Y-107367641D01*
X48136304Y-107610595D01*
X48085000Y-107868514D01*
X48085000Y-108131486D01*
X48136304Y-108389405D01*
X48236939Y-108632359D01*
X48383038Y-108851013D01*
X48568987Y-109036962D01*
X48787641Y-109183061D01*
X49030595Y-109283696D01*
X49288514Y-109335000D01*
X49551486Y-109335000D01*
X49809405Y-109283696D01*
X50052359Y-109183061D01*
X50271013Y-109036962D01*
X50456962Y-108851013D01*
X50603061Y-108632359D01*
X50703696Y-108389405D01*
X50755000Y-108131486D01*
X50755000Y-107868514D01*
X53165000Y-107868514D01*
X53165000Y-108131486D01*
X53216304Y-108389405D01*
X53316939Y-108632359D01*
X53463038Y-108851013D01*
X53648987Y-109036962D01*
X53743706Y-109100251D01*
X53750998Y-109174285D01*
X53794454Y-109317546D01*
X53865026Y-109449576D01*
X53936201Y-109536302D01*
X53960000Y-109565301D01*
X53988998Y-109589099D01*
X56435251Y-112035353D01*
X56385363Y-112085241D01*
X56250000Y-112287827D01*
X56114637Y-112085241D01*
X55914759Y-111885363D01*
X55679727Y-111728320D01*
X55418574Y-111620147D01*
X55141335Y-111565000D01*
X54858665Y-111565000D01*
X54581426Y-111620147D01*
X54320273Y-111728320D01*
X54085241Y-111885363D01*
X53885363Y-112085241D01*
X53728320Y-112320273D01*
X53620147Y-112581426D01*
X53565000Y-112858665D01*
X53565000Y-113141335D01*
X53620147Y-113418574D01*
X53728320Y-113679727D01*
X53885363Y-113914759D01*
X54085241Y-114114637D01*
X54320273Y-114271680D01*
X54581426Y-114379853D01*
X54858665Y-114435000D01*
X55141335Y-114435000D01*
X55418574Y-114379853D01*
X55679727Y-114271680D01*
X55914759Y-114114637D01*
X56114637Y-113914759D01*
X56250000Y-113712173D01*
X56385363Y-113914759D01*
X56585241Y-114114637D01*
X56820273Y-114271680D01*
X57081426Y-114379853D01*
X57358665Y-114435000D01*
X57641335Y-114435000D01*
X57918574Y-114379853D01*
X58179727Y-114271680D01*
X58414759Y-114114637D01*
X58614637Y-113914759D01*
X58771680Y-113679727D01*
X58879853Y-113418574D01*
X58935000Y-113141335D01*
X58935000Y-112858665D01*
X62065000Y-112858665D01*
X62065000Y-113141335D01*
X62120147Y-113418574D01*
X62228320Y-113679727D01*
X62385363Y-113914759D01*
X62585241Y-114114637D01*
X62820273Y-114271680D01*
X63081426Y-114379853D01*
X63358665Y-114435000D01*
X63641335Y-114435000D01*
X63918574Y-114379853D01*
X64179727Y-114271680D01*
X64414759Y-114114637D01*
X64614637Y-113914759D01*
X64750000Y-113712173D01*
X64885363Y-113914759D01*
X65085241Y-114114637D01*
X65240001Y-114218044D01*
X65240000Y-116733296D01*
X64870279Y-116886440D01*
X64479651Y-117147450D01*
X64147450Y-117479651D01*
X63886440Y-117870279D01*
X63706654Y-118304321D01*
X63615000Y-118765098D01*
X63615000Y-119234902D01*
X63706654Y-119695679D01*
X63886440Y-120129721D01*
X64147450Y-120520349D01*
X64479651Y-120852550D01*
X64870279Y-121113560D01*
X65304321Y-121293346D01*
X65765098Y-121385000D01*
X66234902Y-121385000D01*
X66695679Y-121293346D01*
X67129721Y-121113560D01*
X67520349Y-120852550D01*
X67852550Y-120520349D01*
X68113560Y-120129721D01*
X68293346Y-119695679D01*
X68385000Y-119234902D01*
X68385000Y-118765098D01*
X68293346Y-118304321D01*
X68113560Y-117870279D01*
X67852550Y-117479651D01*
X67520349Y-117147450D01*
X67129721Y-116886440D01*
X66760000Y-116733297D01*
X66760000Y-114218043D01*
X66914759Y-114114637D01*
X67114637Y-113914759D01*
X67271680Y-113679727D01*
X67379853Y-113418574D01*
X67435000Y-113141335D01*
X67435000Y-112858665D01*
X67379853Y-112581426D01*
X67271680Y-112320273D01*
X67114637Y-112085241D01*
X66914759Y-111885363D01*
X66679727Y-111728320D01*
X66418574Y-111620147D01*
X66141335Y-111565000D01*
X65858665Y-111565000D01*
X65581426Y-111620147D01*
X65320273Y-111728320D01*
X65085241Y-111885363D01*
X64885363Y-112085241D01*
X64750000Y-112287827D01*
X64614637Y-112085241D01*
X64414759Y-111885363D01*
X64179727Y-111728320D01*
X63918574Y-111620147D01*
X63641335Y-111565000D01*
X63358665Y-111565000D01*
X63081426Y-111620147D01*
X62820273Y-111728320D01*
X62585241Y-111885363D01*
X62385363Y-112085241D01*
X62228320Y-112320273D01*
X62120147Y-112581426D01*
X62065000Y-112858665D01*
X58935000Y-112858665D01*
X58903556Y-112700587D01*
X58978976Y-112660274D01*
X59094701Y-112565301D01*
X59118504Y-112536297D01*
X62341157Y-109313645D01*
X62448514Y-109335000D01*
X62711486Y-109335000D01*
X62969405Y-109283696D01*
X63212359Y-109183061D01*
X63431013Y-109036962D01*
X63616962Y-108851013D01*
X63763061Y-108632359D01*
X63863696Y-108389405D01*
X63915000Y-108131486D01*
X63915000Y-107868514D01*
X63863696Y-107610595D01*
X63763061Y-107367641D01*
X63616962Y-107148987D01*
X63431013Y-106963038D01*
X63212359Y-106816939D01*
X62969405Y-106716304D01*
X62711486Y-106665000D01*
X62448514Y-106665000D01*
X62190595Y-106716304D01*
X61947641Y-106816939D01*
X61728987Y-106963038D01*
X61543038Y-107148987D01*
X61396939Y-107367641D01*
X61296304Y-107610595D01*
X61245000Y-107868514D01*
X61245000Y-108131486D01*
X61266355Y-108238843D01*
X58239899Y-111265300D01*
X57814802Y-111265300D01*
X55468738Y-108919237D01*
X55536962Y-108851013D01*
X55683061Y-108632359D01*
X55783696Y-108389405D01*
X55835000Y-108131486D01*
X55835000Y-107868514D01*
X56165000Y-107868514D01*
X56165000Y-108131486D01*
X56216304Y-108389405D01*
X56316939Y-108632359D01*
X56463038Y-108851013D01*
X56648987Y-109036962D01*
X56867641Y-109183061D01*
X57110595Y-109283696D01*
X57368514Y-109335000D01*
X57631486Y-109335000D01*
X57889405Y-109283696D01*
X58132359Y-109183061D01*
X58351013Y-109036962D01*
X58536962Y-108851013D01*
X58683061Y-108632359D01*
X58783696Y-108389405D01*
X58835000Y-108131486D01*
X58835000Y-107868514D01*
X58783696Y-107610595D01*
X58683061Y-107367641D01*
X58536962Y-107148987D01*
X58351013Y-106963038D01*
X58132359Y-106816939D01*
X57889405Y-106716304D01*
X57631486Y-106665000D01*
X57368514Y-106665000D01*
X57110595Y-106716304D01*
X56867641Y-106816939D01*
X56648987Y-106963038D01*
X56463038Y-107148987D01*
X56316939Y-107367641D01*
X56216304Y-107610595D01*
X56165000Y-107868514D01*
X55835000Y-107868514D01*
X55783696Y-107610595D01*
X55683061Y-107367641D01*
X55536962Y-107148987D01*
X55351013Y-106963038D01*
X55132359Y-106816939D01*
X54889405Y-106716304D01*
X54631486Y-106665000D01*
X54368514Y-106665000D01*
X54110595Y-106716304D01*
X53867641Y-106816939D01*
X53648987Y-106963038D01*
X53463038Y-107148987D01*
X53316939Y-107367641D01*
X53216304Y-107610595D01*
X53165000Y-107868514D01*
X50755000Y-107868514D01*
X50703696Y-107610595D01*
X50603061Y-107367641D01*
X50456962Y-107148987D01*
X50271013Y-106963038D01*
X50180000Y-106902225D01*
X50180000Y-106082633D01*
X50183677Y-106045300D01*
X50169003Y-105896314D01*
X50125546Y-105753053D01*
X50054974Y-105621024D01*
X49983799Y-105534297D01*
X49960001Y-105505299D01*
X49931004Y-105481502D01*
X47723449Y-103273947D01*
X47751185Y-103251185D01*
X47830537Y-103154494D01*
X47889502Y-103044180D01*
X47925812Y-102924482D01*
X47938072Y-102800000D01*
X47938072Y-101858665D01*
X52685000Y-101858665D01*
X52685000Y-102141335D01*
X52740147Y-102418574D01*
X52848320Y-102679727D01*
X53005363Y-102914759D01*
X53205241Y-103114637D01*
X53440273Y-103271680D01*
X53701426Y-103379853D01*
X53978665Y-103435000D01*
X54261335Y-103435000D01*
X54538574Y-103379853D01*
X54799727Y-103271680D01*
X55034759Y-103114637D01*
X55234637Y-102914759D01*
X55338043Y-102760000D01*
X57561928Y-102760000D01*
X57561928Y-102800000D01*
X57574188Y-102924482D01*
X57610498Y-103044180D01*
X57669463Y-103154494D01*
X57748815Y-103251185D01*
X57845506Y-103330537D01*
X57955820Y-103389502D01*
X58075518Y-103425812D01*
X58200000Y-103438072D01*
X59800000Y-103438072D01*
X59924482Y-103425812D01*
X60044180Y-103389502D01*
X60154494Y-103330537D01*
X60180057Y-103309558D01*
X65531262Y-108660763D01*
X65463038Y-108728987D01*
X65316939Y-108947641D01*
X65216304Y-109190595D01*
X65165000Y-109448514D01*
X65165000Y-109711486D01*
X65216304Y-109969405D01*
X65316939Y-110212359D01*
X65463038Y-110431013D01*
X65648987Y-110616962D01*
X65867641Y-110763061D01*
X66110595Y-110863696D01*
X66368514Y-110915000D01*
X66631486Y-110915000D01*
X66889405Y-110863696D01*
X67132359Y-110763061D01*
X67351013Y-110616962D01*
X67536962Y-110431013D01*
X67683061Y-110212359D01*
X67783696Y-109969405D01*
X67835000Y-109711486D01*
X67835000Y-109448514D01*
X67783696Y-109190595D01*
X67683061Y-108947641D01*
X67536962Y-108728987D01*
X67351013Y-108543038D01*
X67256295Y-108479750D01*
X67249003Y-108405714D01*
X67205546Y-108262453D01*
X67134974Y-108130424D01*
X67040001Y-108014699D01*
X67011003Y-107990901D01*
X63388616Y-104368514D01*
X65165000Y-104368514D01*
X65165000Y-104631486D01*
X65216304Y-104889405D01*
X65316939Y-105132359D01*
X65463038Y-105351013D01*
X65648987Y-105536962D01*
X65867641Y-105683061D01*
X66110595Y-105783696D01*
X66368514Y-105835000D01*
X66631486Y-105835000D01*
X66889405Y-105783696D01*
X67132359Y-105683061D01*
X67351013Y-105536962D01*
X67536962Y-105351013D01*
X67683061Y-105132359D01*
X67783696Y-104889405D01*
X67835000Y-104631486D01*
X67835000Y-104368514D01*
X67783696Y-104110595D01*
X67683061Y-103867641D01*
X67536962Y-103648987D01*
X67351013Y-103463038D01*
X67154594Y-103331796D01*
X67299727Y-103271680D01*
X67534759Y-103114637D01*
X67734637Y-102914759D01*
X67891680Y-102679727D01*
X67999853Y-102418574D01*
X68055000Y-102141335D01*
X68055000Y-101858665D01*
X67999853Y-101581426D01*
X67891680Y-101320273D01*
X67734637Y-101085241D01*
X67534759Y-100885363D01*
X67380000Y-100781957D01*
X67380000Y-99218043D01*
X67534759Y-99114637D01*
X67734637Y-98914759D01*
X67891680Y-98679727D01*
X67999853Y-98418574D01*
X68055000Y-98141335D01*
X68055000Y-97858665D01*
X67999853Y-97581426D01*
X67891680Y-97320273D01*
X67734637Y-97085241D01*
X67534759Y-96885363D01*
X67380000Y-96781957D01*
X67380000Y-92137865D01*
X67447641Y-92183061D01*
X67690595Y-92283696D01*
X67948514Y-92335000D01*
X68211486Y-92335000D01*
X68469405Y-92283696D01*
X68712359Y-92183061D01*
X68931013Y-92036962D01*
X69116962Y-91851013D01*
X69263061Y-91632359D01*
X69363696Y-91389405D01*
X69415000Y-91131486D01*
X69415000Y-90868514D01*
X69363696Y-90610595D01*
X69263061Y-90367641D01*
X69116962Y-90148987D01*
X68931013Y-89963038D01*
X68712359Y-89816939D01*
X68469405Y-89716304D01*
X68211486Y-89665000D01*
X67948514Y-89665000D01*
X67690595Y-89716304D01*
X67447641Y-89816939D01*
X67380000Y-89862135D01*
X67380000Y-82538801D01*
X68339754Y-81579048D01*
X68348320Y-81599727D01*
X68505363Y-81834759D01*
X68705241Y-82034637D01*
X68937759Y-82190000D01*
X68705241Y-82345363D01*
X68505363Y-82545241D01*
X68348320Y-82780273D01*
X68240147Y-83041426D01*
X68185000Y-83318665D01*
X68185000Y-83601335D01*
X68240147Y-83878574D01*
X68348320Y-84139727D01*
X68505363Y-84374759D01*
X68703961Y-84573357D01*
X68695518Y-84574188D01*
X68575820Y-84610498D01*
X68465506Y-84669463D01*
X68368815Y-84748815D01*
X68289463Y-84845506D01*
X68230498Y-84955820D01*
X68194188Y-85075518D01*
X68181928Y-85200000D01*
X68181928Y-86800000D01*
X68194188Y-86924482D01*
X68230498Y-87044180D01*
X68289463Y-87154494D01*
X68368815Y-87251185D01*
X68465506Y-87330537D01*
X68575820Y-87389502D01*
X68695518Y-87425812D01*
X68820000Y-87438072D01*
X70420000Y-87438072D01*
X70544482Y-87425812D01*
X70664180Y-87389502D01*
X70774494Y-87330537D01*
X70871185Y-87251185D01*
X70950537Y-87154494D01*
X71009502Y-87044180D01*
X71045812Y-86924482D01*
X71058072Y-86800000D01*
X71058072Y-85200000D01*
X71045812Y-85075518D01*
X71009502Y-84955820D01*
X70950537Y-84845506D01*
X70871185Y-84748815D01*
X70774494Y-84669463D01*
X70664180Y-84610498D01*
X70544482Y-84574188D01*
X70536039Y-84573357D01*
X70734637Y-84374759D01*
X70891680Y-84139727D01*
X70999853Y-83878574D01*
X71055000Y-83601335D01*
X71055000Y-83318665D01*
X70999853Y-83041426D01*
X70891680Y-82780273D01*
X70734637Y-82545241D01*
X70534759Y-82345363D01*
X70302241Y-82190000D01*
X70534759Y-82034637D01*
X70734637Y-81834759D01*
X70891680Y-81599727D01*
X70999853Y-81338574D01*
X71055000Y-81061335D01*
X71055000Y-80778665D01*
X70999853Y-80501426D01*
X70891680Y-80240273D01*
X70734637Y-80005241D01*
X70534759Y-79805363D01*
X70358833Y-79687813D01*
X70369003Y-79654286D01*
X70374158Y-79601947D01*
X70534759Y-79494637D01*
X70734637Y-79294759D01*
X70891680Y-79059727D01*
X70999853Y-78798574D01*
X71055000Y-78521335D01*
X71055000Y-78238665D01*
X70999853Y-77961426D01*
X70891680Y-77700273D01*
X70734637Y-77465241D01*
X70534759Y-77265363D01*
X70299727Y-77108320D01*
X70038574Y-77000147D01*
X69761335Y-76945000D01*
X69478665Y-76945000D01*
X69201426Y-77000147D01*
X68940273Y-77108320D01*
X68705241Y-77265363D01*
X68505363Y-77465241D01*
X68348320Y-77700273D01*
X68240147Y-77961426D01*
X68185000Y-78238665D01*
X68185000Y-78521335D01*
X68240147Y-78798574D01*
X68348320Y-79059727D01*
X68492976Y-79276221D01*
X66108998Y-81660201D01*
X66080000Y-81683999D01*
X66056202Y-81712997D01*
X66056201Y-81712998D01*
X65985026Y-81799724D01*
X65914454Y-81931754D01*
X65886169Y-82025000D01*
X65870998Y-82075014D01*
X65870248Y-82082633D01*
X65856324Y-82224000D01*
X65860001Y-82261333D01*
X65860000Y-96781957D01*
X65705241Y-96885363D01*
X65505363Y-97085241D01*
X65348320Y-97320273D01*
X65240147Y-97581426D01*
X65185000Y-97858665D01*
X65185000Y-98141335D01*
X65240147Y-98418574D01*
X65348320Y-98679727D01*
X65505363Y-98914759D01*
X65705241Y-99114637D01*
X65860001Y-99218044D01*
X65860000Y-100781956D01*
X65705241Y-100885363D01*
X65505363Y-101085241D01*
X65348320Y-101320273D01*
X65240147Y-101581426D01*
X65185000Y-101858665D01*
X65185000Y-102141335D01*
X65240147Y-102418574D01*
X65348320Y-102679727D01*
X65505363Y-102914759D01*
X65705241Y-103114637D01*
X65940273Y-103271680D01*
X65958589Y-103279267D01*
X65867641Y-103316939D01*
X65648987Y-103463038D01*
X65463038Y-103648987D01*
X65316939Y-103867641D01*
X65216304Y-104110595D01*
X65165000Y-104368514D01*
X63388616Y-104368514D01*
X60874651Y-101854550D01*
X60874303Y-101851014D01*
X60830846Y-101707753D01*
X60760274Y-101575724D01*
X60665301Y-101459999D01*
X60549576Y-101365026D01*
X60438072Y-101305425D01*
X60438072Y-101200000D01*
X60425812Y-101075518D01*
X60389502Y-100955820D01*
X60330537Y-100845506D01*
X60251185Y-100748815D01*
X60154494Y-100669463D01*
X60044180Y-100610498D01*
X59924482Y-100574188D01*
X59800000Y-100561928D01*
X58200000Y-100561928D01*
X58075518Y-100574188D01*
X57955820Y-100610498D01*
X57845506Y-100669463D01*
X57748815Y-100748815D01*
X57669463Y-100845506D01*
X57610498Y-100955820D01*
X57574188Y-101075518D01*
X57561928Y-101200000D01*
X57561928Y-101240000D01*
X55338043Y-101240000D01*
X55234637Y-101085241D01*
X55034759Y-100885363D01*
X54799727Y-100728320D01*
X54538574Y-100620147D01*
X54261335Y-100565000D01*
X53978665Y-100565000D01*
X53701426Y-100620147D01*
X53440273Y-100728320D01*
X53205241Y-100885363D01*
X53005363Y-101085241D01*
X52848320Y-101320273D01*
X52740147Y-101581426D01*
X52685000Y-101858665D01*
X47938072Y-101858665D01*
X47938072Y-101200000D01*
X47925812Y-101075518D01*
X47889502Y-100955820D01*
X47830537Y-100845506D01*
X47751185Y-100748815D01*
X47654494Y-100669463D01*
X47544180Y-100610498D01*
X47424482Y-100574188D01*
X47300000Y-100561928D01*
X47260000Y-100561928D01*
X47260000Y-99430193D01*
X47304482Y-99425812D01*
X47424180Y-99389502D01*
X47534494Y-99330537D01*
X47631185Y-99251185D01*
X47710537Y-99154494D01*
X47769502Y-99044180D01*
X47805812Y-98924482D01*
X47818072Y-98800000D01*
X47818072Y-97200000D01*
X47805812Y-97075518D01*
X47769502Y-96955820D01*
X47710537Y-96845506D01*
X47631185Y-96748815D01*
X47534494Y-96669463D01*
X47424180Y-96610498D01*
X47304482Y-96574188D01*
X47180000Y-96561928D01*
X45580000Y-96561928D01*
X45455518Y-96574188D01*
X45335820Y-96610498D01*
X45225506Y-96669463D01*
X45128815Y-96748815D01*
X45049463Y-96845506D01*
X44990498Y-96955820D01*
X44954188Y-97075518D01*
X44941928Y-97200000D01*
X38185000Y-97200000D01*
X38185000Y-90868514D01*
X43085000Y-90868514D01*
X43085000Y-91131486D01*
X43136304Y-91389405D01*
X43236939Y-91632359D01*
X43383038Y-91851013D01*
X43568987Y-92036962D01*
X43787641Y-92183061D01*
X44030595Y-92283696D01*
X44288514Y-92335000D01*
X44551486Y-92335000D01*
X44809405Y-92283696D01*
X45052359Y-92183061D01*
X45271013Y-92036962D01*
X45456962Y-91851013D01*
X45603061Y-91632359D01*
X45703696Y-91389405D01*
X45755000Y-91131486D01*
X45755000Y-90868514D01*
X45733645Y-90761156D01*
X48740001Y-87754801D01*
X48740000Y-89902225D01*
X48648987Y-89963038D01*
X48463038Y-90148987D01*
X48316939Y-90367641D01*
X48216304Y-90610595D01*
X48165000Y-90868514D01*
X48165000Y-91131486D01*
X48216304Y-91389405D01*
X48316939Y-91632359D01*
X48463038Y-91851013D01*
X48648987Y-92036962D01*
X48867641Y-92183061D01*
X49110595Y-92283696D01*
X49368514Y-92335000D01*
X49631486Y-92335000D01*
X49889405Y-92283696D01*
X50132359Y-92183061D01*
X50351013Y-92036962D01*
X50536962Y-91851013D01*
X50683061Y-91632359D01*
X50783696Y-91389405D01*
X50835000Y-91131486D01*
X50835000Y-90868514D01*
X50783696Y-90610595D01*
X50683061Y-90367641D01*
X50536962Y-90148987D01*
X50351013Y-89963038D01*
X50260000Y-89902225D01*
X50260000Y-87438072D01*
X51800000Y-87438072D01*
X51924482Y-87425812D01*
X52044180Y-87389502D01*
X52114700Y-87351808D01*
X52114701Y-95712068D01*
X52111024Y-95749400D01*
X52125698Y-95898385D01*
X52169154Y-96041646D01*
X52239726Y-96173676D01*
X52310901Y-96260402D01*
X52334700Y-96289401D01*
X52363698Y-96313199D01*
X53010551Y-96960053D01*
X52885363Y-97085241D01*
X52728320Y-97320273D01*
X52620147Y-97581426D01*
X52565000Y-97858665D01*
X52565000Y-98141335D01*
X52620147Y-98418574D01*
X52728320Y-98679727D01*
X52885363Y-98914759D01*
X53085241Y-99114637D01*
X53320273Y-99271680D01*
X53581426Y-99379853D01*
X53858665Y-99435000D01*
X54141335Y-99435000D01*
X54418574Y-99379853D01*
X54679727Y-99271680D01*
X54914759Y-99114637D01*
X55114637Y-98914759D01*
X55271680Y-98679727D01*
X55379853Y-98418574D01*
X55423868Y-98197300D01*
X56997199Y-98197300D01*
X57310900Y-98511002D01*
X57334699Y-98540001D01*
X57363697Y-98563799D01*
X57450423Y-98634974D01*
X57561928Y-98694575D01*
X57561928Y-98800000D01*
X57574188Y-98924482D01*
X57610498Y-99044180D01*
X57669463Y-99154494D01*
X57748815Y-99251185D01*
X57845506Y-99330537D01*
X57955820Y-99389502D01*
X58075518Y-99425812D01*
X58200000Y-99438072D01*
X59800000Y-99438072D01*
X59924482Y-99425812D01*
X60044180Y-99389502D01*
X60154494Y-99330537D01*
X60251185Y-99251185D01*
X60330537Y-99154494D01*
X60389502Y-99044180D01*
X60425812Y-98924482D01*
X60438072Y-98800000D01*
X60438072Y-97200000D01*
X60425812Y-97075518D01*
X60389502Y-96955820D01*
X60330537Y-96845506D01*
X60251185Y-96748815D01*
X60154494Y-96669463D01*
X60044180Y-96610498D01*
X59924482Y-96574188D01*
X59800000Y-96561928D01*
X58200000Y-96561928D01*
X58075518Y-96574188D01*
X57955820Y-96610498D01*
X57845506Y-96669463D01*
X57748815Y-96748815D01*
X57714467Y-96790669D01*
X57604247Y-96731754D01*
X57460986Y-96688297D01*
X57349333Y-96677300D01*
X57349322Y-96677300D01*
X57312000Y-96673624D01*
X57274678Y-96677300D01*
X54734317Y-96677300D01*
X54705546Y-96582453D01*
X54634974Y-96450424D01*
X54563799Y-96363697D01*
X54540001Y-96334699D01*
X54511003Y-96310901D01*
X53634700Y-95434599D01*
X53634700Y-85022675D01*
X53648987Y-85036962D01*
X53867641Y-85183061D01*
X54110595Y-85283696D01*
X54368514Y-85335000D01*
X54631486Y-85335000D01*
X54889405Y-85283696D01*
X55132359Y-85183061D01*
X55351013Y-85036962D01*
X55536962Y-84851013D01*
X55683061Y-84632359D01*
X55783696Y-84389405D01*
X55835000Y-84131486D01*
X55835000Y-83948514D01*
X57165000Y-83948514D01*
X57165000Y-84211486D01*
X57216304Y-84469405D01*
X57316939Y-84712359D01*
X57463038Y-84931013D01*
X57648987Y-85116962D01*
X57867641Y-85263061D01*
X58110595Y-85363696D01*
X58368514Y-85415000D01*
X58631486Y-85415000D01*
X58889405Y-85363696D01*
X59132359Y-85263061D01*
X59351013Y-85116962D01*
X59536962Y-84931013D01*
X59683061Y-84712359D01*
X59783696Y-84469405D01*
X59835000Y-84211486D01*
X59835000Y-83948514D01*
X59783696Y-83690595D01*
X59683061Y-83447641D01*
X59536962Y-83228987D01*
X59351013Y-83043038D01*
X59132359Y-82896939D01*
X58889405Y-82796304D01*
X58631486Y-82745000D01*
X58368514Y-82745000D01*
X58110595Y-82796304D01*
X57867641Y-82896939D01*
X57648987Y-83043038D01*
X57463038Y-83228987D01*
X57316939Y-83447641D01*
X57216304Y-83690595D01*
X57165000Y-83948514D01*
X55835000Y-83948514D01*
X55835000Y-83868514D01*
X55783696Y-83610595D01*
X55683061Y-83367641D01*
X55536962Y-83148987D01*
X55351013Y-82963038D01*
X55132359Y-82816939D01*
X54889405Y-82716304D01*
X54631486Y-82665000D01*
X54368514Y-82665000D01*
X54110595Y-82716304D01*
X53867641Y-82816939D01*
X53648987Y-82963038D01*
X53463038Y-83148987D01*
X53459904Y-83153678D01*
X53438499Y-83127596D01*
X53438495Y-83127592D01*
X53414701Y-83098599D01*
X53385709Y-83074806D01*
X52127063Y-81816162D01*
X52271680Y-81599727D01*
X52379853Y-81338574D01*
X52435000Y-81061335D01*
X52435000Y-80778665D01*
X52379853Y-80501426D01*
X52271680Y-80240273D01*
X52114637Y-80005241D01*
X51914759Y-79805363D01*
X51682241Y-79650000D01*
X51914759Y-79494637D01*
X52114637Y-79294759D01*
X52271680Y-79059727D01*
X52379853Y-78798574D01*
X52381854Y-78788514D01*
X53165000Y-78788514D01*
X53165000Y-79051486D01*
X53216304Y-79309405D01*
X53316939Y-79552359D01*
X53463038Y-79771013D01*
X53648987Y-79956962D01*
X53867641Y-80103061D01*
X54110595Y-80203696D01*
X54368514Y-80255000D01*
X54631486Y-80255000D01*
X54889405Y-80203696D01*
X55132359Y-80103061D01*
X55351013Y-79956962D01*
X55536962Y-79771013D01*
X55683061Y-79552359D01*
X55783696Y-79309405D01*
X55835000Y-79051486D01*
X55835000Y-78868514D01*
X57165000Y-78868514D01*
X57165000Y-79131486D01*
X57216304Y-79389405D01*
X57316939Y-79632359D01*
X57463038Y-79851013D01*
X57648987Y-80036962D01*
X57867641Y-80183061D01*
X58110595Y-80283696D01*
X58368514Y-80335000D01*
X58631486Y-80335000D01*
X58889405Y-80283696D01*
X59132359Y-80183061D01*
X59351013Y-80036962D01*
X59536962Y-79851013D01*
X59683061Y-79632359D01*
X59783696Y-79389405D01*
X59835000Y-79131486D01*
X59835000Y-78868514D01*
X59783696Y-78610595D01*
X59683061Y-78367641D01*
X59536962Y-78148987D01*
X59351013Y-77963038D01*
X59132359Y-77816939D01*
X58889405Y-77716304D01*
X58631486Y-77665000D01*
X58368514Y-77665000D01*
X58110595Y-77716304D01*
X57867641Y-77816939D01*
X57648987Y-77963038D01*
X57463038Y-78148987D01*
X57316939Y-78367641D01*
X57216304Y-78610595D01*
X57165000Y-78868514D01*
X55835000Y-78868514D01*
X55835000Y-78788514D01*
X55783696Y-78530595D01*
X55683061Y-78287641D01*
X55536962Y-78068987D01*
X55351013Y-77883038D01*
X55132359Y-77736939D01*
X54889405Y-77636304D01*
X54631486Y-77585000D01*
X54368514Y-77585000D01*
X54110595Y-77636304D01*
X53867641Y-77736939D01*
X53648987Y-77883038D01*
X53463038Y-78068987D01*
X53316939Y-78287641D01*
X53216304Y-78530595D01*
X53165000Y-78788514D01*
X52381854Y-78788514D01*
X52435000Y-78521335D01*
X52435000Y-78238665D01*
X52379853Y-77961426D01*
X52271680Y-77700273D01*
X52114637Y-77465241D01*
X51914759Y-77265363D01*
X51679727Y-77108320D01*
X51418574Y-77000147D01*
X51141335Y-76945000D01*
X50858665Y-76945000D01*
X50581426Y-77000147D01*
X50320273Y-77108320D01*
X50085241Y-77265363D01*
X49885363Y-77465241D01*
X49728320Y-77700273D01*
X49620147Y-77961426D01*
X49565000Y-78238665D01*
X49565000Y-78521335D01*
X49620147Y-78798574D01*
X49728320Y-79059727D01*
X49885363Y-79294759D01*
X50085241Y-79494637D01*
X50317759Y-79650000D01*
X50085241Y-79805363D01*
X49885363Y-80005241D01*
X49728320Y-80240273D01*
X49620147Y-80501426D01*
X49565000Y-80778665D01*
X49565000Y-81061335D01*
X49620147Y-81338574D01*
X49728320Y-81599727D01*
X49885363Y-81834759D01*
X50085241Y-82034637D01*
X50245842Y-82141947D01*
X50250997Y-82194286D01*
X50261167Y-82227813D01*
X50085241Y-82345363D01*
X49885363Y-82545241D01*
X49728320Y-82780273D01*
X49620147Y-83041426D01*
X49565000Y-83318665D01*
X49565000Y-83601335D01*
X49620147Y-83878574D01*
X49710498Y-84096700D01*
X49260000Y-84547199D01*
X49260000Y-74718043D01*
X49414759Y-74614637D01*
X49614637Y-74414759D01*
X49750000Y-74212173D01*
X49885363Y-74414759D01*
X50085241Y-74614637D01*
X50320273Y-74771680D01*
X50581426Y-74879853D01*
X50858665Y-74935000D01*
X51141335Y-74935000D01*
X51418574Y-74879853D01*
X51679727Y-74771680D01*
X51914759Y-74614637D01*
X52114637Y-74414759D01*
X52271680Y-74179727D01*
X52379853Y-73918574D01*
X52435000Y-73641335D01*
X52435000Y-73358665D01*
X52379853Y-73081426D01*
X52271680Y-72820273D01*
X52114637Y-72585241D01*
X51914759Y-72385363D01*
X51679727Y-72228320D01*
X51418574Y-72120147D01*
X51141335Y-72065000D01*
X50858665Y-72065000D01*
X50581426Y-72120147D01*
X50320273Y-72228320D01*
X50085241Y-72385363D01*
X49885363Y-72585241D01*
X49750000Y-72787827D01*
X49614637Y-72585241D01*
X49414759Y-72385363D01*
X49179727Y-72228320D01*
X48918574Y-72120147D01*
X48641335Y-72065000D01*
X48358665Y-72065000D01*
X48081426Y-72120147D01*
X47820273Y-72228320D01*
X47585241Y-72385363D01*
X47385363Y-72585241D01*
X47228320Y-72820273D01*
X47120147Y-73081426D01*
X47065000Y-73358665D01*
X47065000Y-73641335D01*
X47120147Y-73918574D01*
X47228320Y-74179727D01*
X47385363Y-74414759D01*
X47585241Y-74614637D01*
X47740001Y-74718044D01*
X47740000Y-86605198D01*
X44658844Y-89686355D01*
X44551486Y-89665000D01*
X44288514Y-89665000D01*
X44030595Y-89716304D01*
X43787641Y-89816939D01*
X43568987Y-89963038D01*
X43383038Y-90148987D01*
X43236939Y-90367641D01*
X43136304Y-90610595D01*
X43085000Y-90868514D01*
X38185000Y-90868514D01*
X38185000Y-78238665D01*
X41945000Y-78238665D01*
X41945000Y-78521335D01*
X42000147Y-78798574D01*
X42108320Y-79059727D01*
X42265363Y-79294759D01*
X42465241Y-79494637D01*
X42697759Y-79650000D01*
X42465241Y-79805363D01*
X42265363Y-80005241D01*
X42108320Y-80240273D01*
X42000147Y-80501426D01*
X41945000Y-80778665D01*
X41945000Y-81061335D01*
X42000147Y-81338574D01*
X42108320Y-81599727D01*
X42265363Y-81834759D01*
X42465241Y-82034637D01*
X42697759Y-82190000D01*
X42465241Y-82345363D01*
X42265363Y-82545241D01*
X42108320Y-82780273D01*
X42000147Y-83041426D01*
X41945000Y-83318665D01*
X41945000Y-83601335D01*
X42000147Y-83878574D01*
X42108320Y-84139727D01*
X42265363Y-84374759D01*
X42465241Y-84574637D01*
X42697759Y-84730000D01*
X42465241Y-84885363D01*
X42265363Y-85085241D01*
X42108320Y-85320273D01*
X42000147Y-85581426D01*
X41945000Y-85858665D01*
X41945000Y-86141335D01*
X42000147Y-86418574D01*
X42108320Y-86679727D01*
X42265363Y-86914759D01*
X42465241Y-87114637D01*
X42700273Y-87271680D01*
X42961426Y-87379853D01*
X43238665Y-87435000D01*
X43521335Y-87435000D01*
X43798574Y-87379853D01*
X44059727Y-87271680D01*
X44294759Y-87114637D01*
X44494637Y-86914759D01*
X44651680Y-86679727D01*
X44759853Y-86418574D01*
X44815000Y-86141335D01*
X44815000Y-85858665D01*
X44759853Y-85581426D01*
X44651680Y-85320273D01*
X44494637Y-85085241D01*
X44294759Y-84885363D01*
X44062241Y-84730000D01*
X44294759Y-84574637D01*
X44494637Y-84374759D01*
X44651680Y-84139727D01*
X44759853Y-83878574D01*
X44815000Y-83601335D01*
X44815000Y-83318665D01*
X44759853Y-83041426D01*
X44651680Y-82780273D01*
X44494637Y-82545241D01*
X44294759Y-82345363D01*
X44062241Y-82190000D01*
X44294759Y-82034637D01*
X44494637Y-81834759D01*
X44651680Y-81599727D01*
X44759853Y-81338574D01*
X44815000Y-81061335D01*
X44815000Y-80778665D01*
X44759853Y-80501426D01*
X44651680Y-80240273D01*
X44494637Y-80005241D01*
X44294759Y-79805363D01*
X44062241Y-79650000D01*
X44294759Y-79494637D01*
X44494637Y-79294759D01*
X44651680Y-79059727D01*
X44759853Y-78798574D01*
X44815000Y-78521335D01*
X44815000Y-78238665D01*
X44759853Y-77961426D01*
X44651680Y-77700273D01*
X44494637Y-77465241D01*
X44294759Y-77265363D01*
X44059727Y-77108320D01*
X43798574Y-77000147D01*
X43521335Y-76945000D01*
X43238665Y-76945000D01*
X42961426Y-77000147D01*
X42700273Y-77108320D01*
X42465241Y-77265363D01*
X42265363Y-77465241D01*
X42108320Y-77700273D01*
X42000147Y-77961426D01*
X41945000Y-78238665D01*
X38185000Y-78238665D01*
X38185000Y-68868514D01*
X42665000Y-68868514D01*
X42665000Y-69131486D01*
X42716304Y-69389405D01*
X42816939Y-69632359D01*
X42963038Y-69851013D01*
X43148987Y-70036962D01*
X43367641Y-70183061D01*
X43610595Y-70283696D01*
X43868514Y-70335000D01*
X44131486Y-70335000D01*
X44389405Y-70283696D01*
X44632359Y-70183061D01*
X44851013Y-70036962D01*
X45036962Y-69851013D01*
X45183061Y-69632359D01*
X45283696Y-69389405D01*
X45335000Y-69131486D01*
X45335000Y-68948514D01*
X46665000Y-68948514D01*
X46665000Y-69211486D01*
X46716304Y-69469405D01*
X46816939Y-69712359D01*
X46963038Y-69931013D01*
X47148987Y-70116962D01*
X47367641Y-70263061D01*
X47610595Y-70363696D01*
X47868514Y-70415000D01*
X48131486Y-70415000D01*
X48389405Y-70363696D01*
X48632359Y-70263061D01*
X48851013Y-70116962D01*
X49036962Y-69931013D01*
X49183061Y-69712359D01*
X49283696Y-69469405D01*
X49335000Y-69211486D01*
X49335000Y-68948514D01*
X49283696Y-68690595D01*
X49183061Y-68447641D01*
X49036962Y-68228987D01*
X48851013Y-68043038D01*
X48632359Y-67896939D01*
X48389405Y-67796304D01*
X48131486Y-67745000D01*
X47868514Y-67745000D01*
X47610595Y-67796304D01*
X47367641Y-67896939D01*
X47148987Y-68043038D01*
X46963038Y-68228987D01*
X46816939Y-68447641D01*
X46716304Y-68690595D01*
X46665000Y-68948514D01*
X45335000Y-68948514D01*
X45335000Y-68868514D01*
X45313645Y-68761156D01*
X47440102Y-66634700D01*
X51926292Y-66634700D01*
X51700273Y-66728320D01*
X51465241Y-66885363D01*
X51265363Y-67085241D01*
X51108320Y-67320273D01*
X51000147Y-67581426D01*
X50945000Y-67858665D01*
X50945000Y-68141335D01*
X51000147Y-68418574D01*
X51108320Y-68679727D01*
X51265363Y-68914759D01*
X51465241Y-69114637D01*
X51700273Y-69271680D01*
X51961426Y-69379853D01*
X52238665Y-69435000D01*
X52521335Y-69435000D01*
X52798574Y-69379853D01*
X53059727Y-69271680D01*
X53294759Y-69114637D01*
X53494637Y-68914759D01*
X53651680Y-68679727D01*
X53759853Y-68418574D01*
X53815000Y-68141335D01*
X53815000Y-67858665D01*
X53759853Y-67581426D01*
X53651680Y-67320273D01*
X53494637Y-67085241D01*
X53294759Y-66885363D01*
X53059727Y-66728320D01*
X52833708Y-66634700D01*
X58685199Y-66634700D01*
X58776551Y-66726053D01*
X58748815Y-66748815D01*
X58669463Y-66845506D01*
X58610498Y-66955820D01*
X58574188Y-67075518D01*
X58561928Y-67200000D01*
X58561928Y-68800000D01*
X58574188Y-68924482D01*
X58610498Y-69044180D01*
X58669463Y-69154494D01*
X58748815Y-69251185D01*
X58845506Y-69330537D01*
X58955820Y-69389502D01*
X59075518Y-69425812D01*
X59200000Y-69438072D01*
X60800000Y-69438072D01*
X60924482Y-69425812D01*
X61044180Y-69389502D01*
X61154494Y-69330537D01*
X61251185Y-69251185D01*
X61330537Y-69154494D01*
X61389502Y-69044180D01*
X61425812Y-68924482D01*
X61438072Y-68800000D01*
X61438072Y-67200000D01*
X61427745Y-67095146D01*
X63695024Y-69362427D01*
X63716304Y-69469405D01*
X63816939Y-69712359D01*
X63963038Y-69931013D01*
X64031262Y-69999237D01*
X62332798Y-71697701D01*
X62303800Y-71721499D01*
X62280002Y-71750497D01*
X62280001Y-71750498D01*
X62208826Y-71837224D01*
X62138254Y-71969254D01*
X62094798Y-72112515D01*
X62087168Y-72189981D01*
X61918574Y-72120147D01*
X61641335Y-72065000D01*
X61358665Y-72065000D01*
X61081426Y-72120147D01*
X60820273Y-72228320D01*
X60585241Y-72385363D01*
X60385363Y-72585241D01*
X60228320Y-72820273D01*
X60120147Y-73081426D01*
X60065000Y-73358665D01*
X60065000Y-73641335D01*
X60120147Y-73918574D01*
X60228320Y-74179727D01*
X60385363Y-74414759D01*
X60585241Y-74614637D01*
X60820273Y-74771680D01*
X61081426Y-74879853D01*
X61358665Y-74935000D01*
X61641335Y-74935000D01*
X61918574Y-74879853D01*
X62083800Y-74811414D01*
X62083800Y-75971777D01*
X62080124Y-76009100D01*
X62083800Y-76046422D01*
X62083800Y-76046432D01*
X62094797Y-76158085D01*
X62123700Y-76253367D01*
X62138254Y-76301346D01*
X62208826Y-76433376D01*
X62214005Y-76439686D01*
X62303799Y-76549101D01*
X62332803Y-76572904D01*
X62365401Y-76605502D01*
X62365401Y-76989570D01*
X62141335Y-76945000D01*
X61858665Y-76945000D01*
X61581426Y-77000147D01*
X61320273Y-77108320D01*
X61085241Y-77265363D01*
X60885363Y-77465241D01*
X60728320Y-77700273D01*
X60620147Y-77961426D01*
X60565000Y-78238665D01*
X60565000Y-78521335D01*
X60620147Y-78798574D01*
X60728320Y-79059727D01*
X60885363Y-79294759D01*
X61085241Y-79494637D01*
X61317759Y-79650000D01*
X61085241Y-79805363D01*
X60885363Y-80005241D01*
X60728320Y-80240273D01*
X60620147Y-80501426D01*
X60565000Y-80778665D01*
X60565000Y-81061335D01*
X60620147Y-81338574D01*
X60728320Y-81599727D01*
X60885363Y-81834759D01*
X61085241Y-82034637D01*
X61261167Y-82152187D01*
X61250997Y-82185714D01*
X61245842Y-82238053D01*
X61085241Y-82345363D01*
X60885363Y-82545241D01*
X60728320Y-82780273D01*
X60620147Y-83041426D01*
X60565000Y-83318665D01*
X60565000Y-83601335D01*
X60620147Y-83878574D01*
X60728320Y-84139727D01*
X60885363Y-84374759D01*
X61085241Y-84574637D01*
X61317759Y-84730000D01*
X61085241Y-84885363D01*
X60885363Y-85085241D01*
X60728320Y-85320273D01*
X60620147Y-85581426D01*
X60565000Y-85858665D01*
X60565000Y-86141335D01*
X60620147Y-86418574D01*
X60728320Y-86679727D01*
X60885363Y-86914759D01*
X61085241Y-87114637D01*
X61320273Y-87271680D01*
X61581426Y-87379853D01*
X61858665Y-87435000D01*
X62141335Y-87435000D01*
X62418574Y-87379853D01*
X62679727Y-87271680D01*
X62914759Y-87114637D01*
X63114637Y-86914759D01*
X63240000Y-86727139D01*
X63240000Y-89685198D01*
X63238843Y-89686355D01*
X63131486Y-89665000D01*
X62868514Y-89665000D01*
X62610595Y-89716304D01*
X62367641Y-89816939D01*
X62148987Y-89963038D01*
X61963038Y-90148987D01*
X61816939Y-90367641D01*
X61716304Y-90610595D01*
X61665000Y-90868514D01*
X61665000Y-91131486D01*
X61716304Y-91389405D01*
X61816939Y-91632359D01*
X61963038Y-91851013D01*
X62148987Y-92036962D01*
X62367641Y-92183061D01*
X62610595Y-92283696D01*
X62868514Y-92335000D01*
X63131486Y-92335000D01*
X63389405Y-92283696D01*
X63632359Y-92183061D01*
X63851013Y-92036962D01*
X64036962Y-91851013D01*
X64183061Y-91632359D01*
X64283696Y-91389405D01*
X64335000Y-91131486D01*
X64335000Y-90868514D01*
X64313645Y-90761157D01*
X64511004Y-90563798D01*
X64540001Y-90540001D01*
X64634974Y-90424276D01*
X64705546Y-90292247D01*
X64749003Y-90148986D01*
X64760000Y-90037333D01*
X64760000Y-90037332D01*
X64763677Y-90000000D01*
X64760000Y-89962667D01*
X64760000Y-74718043D01*
X64914759Y-74614637D01*
X65114637Y-74414759D01*
X65271680Y-74179727D01*
X65379853Y-73918574D01*
X65435000Y-73641335D01*
X65435000Y-73358665D01*
X65379853Y-73081426D01*
X65271680Y-72820273D01*
X65114637Y-72585241D01*
X64914759Y-72385363D01*
X64679727Y-72228320D01*
X64418574Y-72120147D01*
X64141335Y-72065000D01*
X64115101Y-72065000D01*
X65511003Y-70669099D01*
X65540001Y-70645301D01*
X65634974Y-70529576D01*
X65705546Y-70397547D01*
X65749003Y-70254286D01*
X65756295Y-70180250D01*
X65851013Y-70116962D01*
X66036962Y-69931013D01*
X66183061Y-69712359D01*
X66283696Y-69469405D01*
X66335000Y-69211486D01*
X66335000Y-68948514D01*
X67665000Y-68948514D01*
X67665000Y-69211486D01*
X67716304Y-69469405D01*
X67816939Y-69712359D01*
X67963038Y-69931013D01*
X68148987Y-70116962D01*
X68367641Y-70263061D01*
X68610595Y-70363696D01*
X68868514Y-70415000D01*
X69131486Y-70415000D01*
X69389405Y-70363696D01*
X69632359Y-70263061D01*
X69851013Y-70116962D01*
X70036962Y-69931013D01*
X70183061Y-69712359D01*
X70283696Y-69469405D01*
X70335000Y-69211486D01*
X70335000Y-68948514D01*
X70283696Y-68690595D01*
X70183061Y-68447641D01*
X70036962Y-68228987D01*
X69851013Y-68043038D01*
X69632359Y-67896939D01*
X69389405Y-67796304D01*
X69131486Y-67745000D01*
X68868514Y-67745000D01*
X68610595Y-67796304D01*
X68367641Y-67896939D01*
X68148987Y-68043038D01*
X67963038Y-68228987D01*
X67816939Y-68447641D01*
X67716304Y-68690595D01*
X67665000Y-68948514D01*
X66335000Y-68948514D01*
X66283696Y-68690595D01*
X66183061Y-68447641D01*
X66036962Y-68228987D01*
X65851013Y-68043038D01*
X65632359Y-67896939D01*
X65389405Y-67796304D01*
X65131486Y-67745000D01*
X64868514Y-67745000D01*
X64610595Y-67796304D01*
X64375773Y-67893571D01*
X62260000Y-65777799D01*
X62260000Y-63868514D01*
X63665000Y-63868514D01*
X63665000Y-64131486D01*
X63716304Y-64389405D01*
X63816939Y-64632359D01*
X63963038Y-64851013D01*
X64148987Y-65036962D01*
X64367641Y-65183061D01*
X64610595Y-65283696D01*
X64868514Y-65335000D01*
X65131486Y-65335000D01*
X65389405Y-65283696D01*
X65632359Y-65183061D01*
X65851013Y-65036962D01*
X66036962Y-64851013D01*
X66183061Y-64632359D01*
X66283696Y-64389405D01*
X66335000Y-64131486D01*
X66335000Y-63868514D01*
X66283696Y-63610595D01*
X66183061Y-63367641D01*
X66036962Y-63148987D01*
X65851013Y-62963038D01*
X65632359Y-62816939D01*
X65389405Y-62716304D01*
X65131486Y-62665000D01*
X64868514Y-62665000D01*
X64610595Y-62716304D01*
X64367641Y-62816939D01*
X64148987Y-62963038D01*
X63963038Y-63148987D01*
X63816939Y-63367641D01*
X63716304Y-63610595D01*
X63665000Y-63868514D01*
X62260000Y-63868514D01*
X62260000Y-55718043D01*
X62414759Y-55614637D01*
X62614637Y-55414759D01*
X62771680Y-55179727D01*
X62879853Y-54918574D01*
X62935000Y-54641335D01*
X62935000Y-54358665D01*
X62879853Y-54081426D01*
X62771680Y-53820273D01*
X62614637Y-53585241D01*
X62414759Y-53385363D01*
X62212173Y-53250000D01*
X62414759Y-53114637D01*
X62614637Y-52914759D01*
X62771680Y-52679727D01*
X62879853Y-52418574D01*
X62935000Y-52141335D01*
X62935000Y-51858665D01*
X65065000Y-51858665D01*
X65065000Y-52141335D01*
X65120147Y-52418574D01*
X65228320Y-52679727D01*
X65385363Y-52914759D01*
X65585241Y-53114637D01*
X65787827Y-53250000D01*
X65585241Y-53385363D01*
X65385363Y-53585241D01*
X65228320Y-53820273D01*
X65120147Y-54081426D01*
X65065000Y-54358665D01*
X65065000Y-54641335D01*
X65120147Y-54918574D01*
X65228320Y-55179727D01*
X65385363Y-55414759D01*
X65585241Y-55614637D01*
X65820273Y-55771680D01*
X66081426Y-55879853D01*
X66358665Y-55935000D01*
X66641335Y-55935000D01*
X66918574Y-55879853D01*
X67179727Y-55771680D01*
X67414759Y-55614637D01*
X67614637Y-55414759D01*
X67771680Y-55179727D01*
X67879853Y-54918574D01*
X67935000Y-54641335D01*
X67935000Y-54509802D01*
X68240001Y-54814803D01*
X68240000Y-62902225D01*
X68148987Y-62963038D01*
X67963038Y-63148987D01*
X67816939Y-63367641D01*
X67716304Y-63610595D01*
X67665000Y-63868514D01*
X67665000Y-64131486D01*
X67716304Y-64389405D01*
X67816939Y-64632359D01*
X67963038Y-64851013D01*
X68148987Y-65036962D01*
X68367641Y-65183061D01*
X68610595Y-65283696D01*
X68868514Y-65335000D01*
X69131486Y-65335000D01*
X69389405Y-65283696D01*
X69632359Y-65183061D01*
X69851013Y-65036962D01*
X70036962Y-64851013D01*
X70183061Y-64632359D01*
X70283696Y-64389405D01*
X70335000Y-64131486D01*
X70335000Y-63868514D01*
X70283696Y-63610595D01*
X70183061Y-63367641D01*
X70036962Y-63148987D01*
X69851013Y-62963038D01*
X69760000Y-62902225D01*
X69760000Y-54537323D01*
X69763676Y-54500000D01*
X69760000Y-54462677D01*
X69760000Y-54462667D01*
X69749003Y-54351014D01*
X69705546Y-54207753D01*
X69646762Y-54097777D01*
X69634974Y-54075723D01*
X69563799Y-53988997D01*
X69540001Y-53959999D01*
X69511003Y-53936201D01*
X67898688Y-52323886D01*
X67935000Y-52141335D01*
X67935000Y-51858665D01*
X67879853Y-51581426D01*
X67771680Y-51320273D01*
X67614637Y-51085241D01*
X67414759Y-50885363D01*
X67179727Y-50728320D01*
X66918574Y-50620147D01*
X66641335Y-50565000D01*
X66358665Y-50565000D01*
X66081426Y-50620147D01*
X65820273Y-50728320D01*
X65585241Y-50885363D01*
X65385363Y-51085241D01*
X65228320Y-51320273D01*
X65120147Y-51581426D01*
X65065000Y-51858665D01*
X62935000Y-51858665D01*
X62879853Y-51581426D01*
X62771680Y-51320273D01*
X62614637Y-51085241D01*
X62414759Y-50885363D01*
X62260000Y-50781957D01*
X62260000Y-42266703D01*
X62629721Y-42113560D01*
X63020349Y-41852550D01*
X63352550Y-41520349D01*
X63613560Y-41129721D01*
X63793346Y-40695679D01*
X63885000Y-40234902D01*
X63885000Y-39765098D01*
X63793346Y-39304321D01*
X63613560Y-38870279D01*
X63352550Y-38479651D01*
X63020349Y-38147450D01*
X62629721Y-37886440D01*
X62195679Y-37706654D01*
X61734902Y-37615000D01*
X61265098Y-37615000D01*
X60804321Y-37706654D01*
X60370279Y-37886440D01*
X59979651Y-38147450D01*
X59647450Y-38479651D01*
X59386440Y-38870279D01*
X59206654Y-39304321D01*
X59115000Y-39765098D01*
X59115000Y-40234902D01*
X59206654Y-40695679D01*
X59386440Y-41129721D01*
X59647450Y-41520349D01*
X59979651Y-41852550D01*
X60370279Y-42113560D01*
X60740000Y-42266703D01*
X60740001Y-50781956D01*
X60585241Y-50885363D01*
X60385363Y-51085241D01*
X60228320Y-51320273D01*
X60120147Y-51581426D01*
X60065000Y-51858665D01*
X60065000Y-52141335D01*
X60120147Y-52418574D01*
X60228320Y-52679727D01*
X60385363Y-52914759D01*
X60585241Y-53114637D01*
X60787827Y-53250000D01*
X60585241Y-53385363D01*
X60385363Y-53585241D01*
X60228320Y-53820273D01*
X60120147Y-54081426D01*
X60065000Y-54358665D01*
X60065000Y-54641335D01*
X60120147Y-54918574D01*
X60228320Y-55179727D01*
X60385363Y-55414759D01*
X60585241Y-55614637D01*
X60740001Y-55718044D01*
X60740000Y-66055278D01*
X60736324Y-66092600D01*
X60740000Y-66129922D01*
X60740000Y-66129932D01*
X60750997Y-66241585D01*
X60788039Y-66363697D01*
X60794454Y-66384846D01*
X60865026Y-66516876D01*
X60902000Y-66561928D01*
X60910969Y-66572857D01*
X60800000Y-66561928D01*
X60694575Y-66561928D01*
X60634974Y-66450424D01*
X60563799Y-66363697D01*
X60540001Y-66334699D01*
X60511003Y-66310901D01*
X59760000Y-65559899D01*
X59760000Y-65097775D01*
X59851013Y-65036962D01*
X60036962Y-64851013D01*
X60183061Y-64632359D01*
X60283696Y-64389405D01*
X60335000Y-64131486D01*
X60335000Y-63868514D01*
X60283696Y-63610595D01*
X60183061Y-63367641D01*
X60036962Y-63148987D01*
X59851013Y-62963038D01*
X59632359Y-62816939D01*
X59389405Y-62716304D01*
X59131486Y-62665000D01*
X58868514Y-62665000D01*
X58610595Y-62716304D01*
X58367641Y-62816939D01*
X58148987Y-62963038D01*
X57963038Y-63148987D01*
X57816939Y-63367641D01*
X57716304Y-63610595D01*
X57665000Y-63868514D01*
X57665000Y-64131486D01*
X57716304Y-64389405D01*
X57816939Y-64632359D01*
X57963038Y-64851013D01*
X58148987Y-65036962D01*
X58240000Y-65097775D01*
X58240000Y-65114700D01*
X54654669Y-65114700D01*
X54771013Y-65036962D01*
X54956962Y-64851013D01*
X55103061Y-64632359D01*
X55203696Y-64389405D01*
X55255000Y-64131486D01*
X55255000Y-63868514D01*
X55203696Y-63610595D01*
X55103061Y-63367641D01*
X54956962Y-63148987D01*
X54771013Y-62963038D01*
X54552359Y-62816939D01*
X54309405Y-62716304D01*
X54051486Y-62665000D01*
X53788514Y-62665000D01*
X53530595Y-62716304D01*
X53287641Y-62816939D01*
X53068987Y-62963038D01*
X52883038Y-63148987D01*
X52736939Y-63367641D01*
X52636304Y-63610595D01*
X52585000Y-63868514D01*
X52585000Y-64131486D01*
X52636304Y-64389405D01*
X52736939Y-64632359D01*
X52883038Y-64851013D01*
X53068987Y-65036962D01*
X53185331Y-65114700D01*
X48734669Y-65114700D01*
X48851013Y-65036962D01*
X49036962Y-64851013D01*
X49183061Y-64632359D01*
X49283696Y-64389405D01*
X49335000Y-64131486D01*
X49335000Y-63868514D01*
X49283696Y-63610595D01*
X49183061Y-63367641D01*
X49036962Y-63148987D01*
X48851013Y-62963038D01*
X48760000Y-62902225D01*
X48760000Y-53537322D01*
X48763676Y-53499999D01*
X48760000Y-53462676D01*
X48760000Y-53462667D01*
X48749003Y-53351014D01*
X48705546Y-53207753D01*
X48634974Y-53075724D01*
X48540001Y-52959999D01*
X48511003Y-52936201D01*
X47898688Y-52323886D01*
X47935000Y-52141335D01*
X47935000Y-51858665D01*
X50065000Y-51858665D01*
X50065000Y-52141335D01*
X50120147Y-52418574D01*
X50228320Y-52679727D01*
X50385363Y-52914759D01*
X50585241Y-53114637D01*
X50787827Y-53250000D01*
X50585241Y-53385363D01*
X50385363Y-53585241D01*
X50228320Y-53820273D01*
X50120147Y-54081426D01*
X50065000Y-54358665D01*
X50065000Y-54641335D01*
X50120147Y-54918574D01*
X50228320Y-55179727D01*
X50385363Y-55414759D01*
X50585241Y-55614637D01*
X50820273Y-55771680D01*
X51081426Y-55879853D01*
X51358665Y-55935000D01*
X51641335Y-55935000D01*
X51918574Y-55879853D01*
X52179727Y-55771680D01*
X52414759Y-55614637D01*
X52614637Y-55414759D01*
X52771680Y-55179727D01*
X52879853Y-54918574D01*
X52935000Y-54641335D01*
X52935000Y-54358665D01*
X52879853Y-54081426D01*
X52771680Y-53820273D01*
X52614637Y-53585241D01*
X52414759Y-53385363D01*
X52212173Y-53250000D01*
X52414759Y-53114637D01*
X52614637Y-52914759D01*
X52771680Y-52679727D01*
X52879853Y-52418574D01*
X52935000Y-52141335D01*
X52935000Y-51858665D01*
X55065000Y-51858665D01*
X55065000Y-52141335D01*
X55120147Y-52418574D01*
X55228320Y-52679727D01*
X55385363Y-52914759D01*
X55585241Y-53114637D01*
X55787827Y-53250000D01*
X55585241Y-53385363D01*
X55385363Y-53585241D01*
X55228320Y-53820273D01*
X55120147Y-54081426D01*
X55065000Y-54358665D01*
X55065000Y-54641335D01*
X55120147Y-54918574D01*
X55228320Y-55179727D01*
X55385363Y-55414759D01*
X55585241Y-55614637D01*
X55820273Y-55771680D01*
X56081426Y-55879853D01*
X56358665Y-55935000D01*
X56641335Y-55935000D01*
X56918574Y-55879853D01*
X57179727Y-55771680D01*
X57414759Y-55614637D01*
X57614637Y-55414759D01*
X57771680Y-55179727D01*
X57879853Y-54918574D01*
X57935000Y-54641335D01*
X57935000Y-54358665D01*
X57879853Y-54081426D01*
X57771680Y-53820273D01*
X57614637Y-53585241D01*
X57414759Y-53385363D01*
X57212173Y-53250000D01*
X57414759Y-53114637D01*
X57614637Y-52914759D01*
X57771680Y-52679727D01*
X57879853Y-52418574D01*
X57935000Y-52141335D01*
X57935000Y-51858665D01*
X57879853Y-51581426D01*
X57771680Y-51320273D01*
X57614637Y-51085241D01*
X57414759Y-50885363D01*
X57179727Y-50728320D01*
X56918574Y-50620147D01*
X56641335Y-50565000D01*
X56358665Y-50565000D01*
X56081426Y-50620147D01*
X55820273Y-50728320D01*
X55585241Y-50885363D01*
X55385363Y-51085241D01*
X55228320Y-51320273D01*
X55120147Y-51581426D01*
X55065000Y-51858665D01*
X52935000Y-51858665D01*
X52879853Y-51581426D01*
X52771680Y-51320273D01*
X52614637Y-51085241D01*
X52414759Y-50885363D01*
X52179727Y-50728320D01*
X51918574Y-50620147D01*
X51641335Y-50565000D01*
X51358665Y-50565000D01*
X51081426Y-50620147D01*
X50820273Y-50728320D01*
X50585241Y-50885363D01*
X50385363Y-51085241D01*
X50228320Y-51320273D01*
X50120147Y-51581426D01*
X50065000Y-51858665D01*
X47935000Y-51858665D01*
X47879853Y-51581426D01*
X47771680Y-51320273D01*
X47614637Y-51085241D01*
X47414759Y-50885363D01*
X47179727Y-50728320D01*
X46944086Y-50630715D01*
X55434599Y-42140202D01*
X55804321Y-42293346D01*
X56265098Y-42385000D01*
X56734902Y-42385000D01*
X57195679Y-42293346D01*
X57629721Y-42113560D01*
X58020349Y-41852550D01*
X58352550Y-41520349D01*
X58613560Y-41129721D01*
X58793346Y-40695679D01*
X58885000Y-40234902D01*
X58885000Y-39765098D01*
X58793346Y-39304321D01*
X58613560Y-38870279D01*
X58352550Y-38479651D01*
X58020349Y-38147450D01*
X57629721Y-37886440D01*
X57195679Y-37706654D01*
X56734902Y-37615000D01*
X56265098Y-37615000D01*
X55804321Y-37706654D01*
X55370279Y-37886440D01*
X54979651Y-38147450D01*
X54647450Y-38479651D01*
X54386440Y-38870279D01*
X54206654Y-39304321D01*
X54115000Y-39765098D01*
X54115000Y-40234902D01*
X54206654Y-40695679D01*
X54359798Y-41065401D01*
X44823098Y-50602101D01*
X44794100Y-50625899D01*
X44770302Y-50654897D01*
X44770301Y-50654898D01*
X44699126Y-50741624D01*
X44628554Y-50873654D01*
X44585098Y-51016915D01*
X44570424Y-51165900D01*
X44574101Y-51203232D01*
X44574100Y-53296777D01*
X44570424Y-53334100D01*
X44574100Y-53371422D01*
X44574100Y-53371432D01*
X44585097Y-53483085D01*
X44616085Y-53585241D01*
X44628554Y-53626346D01*
X44699126Y-53758376D01*
X44726923Y-53792246D01*
X44794099Y-53874101D01*
X44823103Y-53897904D01*
X45101312Y-54176114D01*
X45065000Y-54358665D01*
X45065000Y-54641335D01*
X45120147Y-54918574D01*
X45228320Y-55179727D01*
X45385363Y-55414759D01*
X45585241Y-55614637D01*
X45820273Y-55771680D01*
X46081426Y-55879853D01*
X46358665Y-55935000D01*
X46641335Y-55935000D01*
X46918574Y-55879853D01*
X47179727Y-55771680D01*
X47240001Y-55731406D01*
X47240000Y-62902225D01*
X47148987Y-62963038D01*
X46963038Y-63148987D01*
X46816939Y-63367641D01*
X46716304Y-63610595D01*
X46665000Y-63868514D01*
X46665000Y-64131486D01*
X46716304Y-64389405D01*
X46816939Y-64632359D01*
X46963038Y-64851013D01*
X47148987Y-65036962D01*
X47265331Y-65114700D01*
X47162625Y-65114700D01*
X47125300Y-65111024D01*
X47087975Y-65114700D01*
X47087967Y-65114700D01*
X46976314Y-65125697D01*
X46833053Y-65169154D01*
X46701024Y-65239726D01*
X46585299Y-65334699D01*
X46561501Y-65363697D01*
X44238844Y-67686355D01*
X44131486Y-67665000D01*
X43868514Y-67665000D01*
X43610595Y-67716304D01*
X43367641Y-67816939D01*
X43148987Y-67963038D01*
X42963038Y-68148987D01*
X42816939Y-68367641D01*
X42716304Y-68610595D01*
X42665000Y-68868514D01*
X38185000Y-68868514D01*
X38185000Y-63788514D01*
X42665000Y-63788514D01*
X42665000Y-64051486D01*
X42716304Y-64309405D01*
X42816939Y-64552359D01*
X42963038Y-64771013D01*
X43148987Y-64956962D01*
X43367641Y-65103061D01*
X43610595Y-65203696D01*
X43868514Y-65255000D01*
X44131486Y-65255000D01*
X44389405Y-65203696D01*
X44632359Y-65103061D01*
X44851013Y-64956962D01*
X45036962Y-64771013D01*
X45183061Y-64552359D01*
X45283696Y-64309405D01*
X45335000Y-64051486D01*
X45335000Y-63788514D01*
X45283696Y-63530595D01*
X45183061Y-63287641D01*
X45036962Y-63068987D01*
X44851013Y-62883038D01*
X44632359Y-62736939D01*
X44389405Y-62636304D01*
X44131486Y-62585000D01*
X43868514Y-62585000D01*
X43610595Y-62636304D01*
X43367641Y-62736939D01*
X43148987Y-62883038D01*
X42963038Y-63068987D01*
X42816939Y-63287641D01*
X42716304Y-63530595D01*
X42665000Y-63788514D01*
X38185000Y-63788514D01*
X38185000Y-39765098D01*
X49115000Y-39765098D01*
X49115000Y-40234902D01*
X49206654Y-40695679D01*
X49386440Y-41129721D01*
X49647450Y-41520349D01*
X49979651Y-41852550D01*
X50370279Y-42113560D01*
X50804321Y-42293346D01*
X51265098Y-42385000D01*
X51734902Y-42385000D01*
X52195679Y-42293346D01*
X52629721Y-42113560D01*
X53020349Y-41852550D01*
X53352550Y-41520349D01*
X53613560Y-41129721D01*
X53793346Y-40695679D01*
X53885000Y-40234902D01*
X53885000Y-39765098D01*
X53793346Y-39304321D01*
X53613560Y-38870279D01*
X53352550Y-38479651D01*
X53020349Y-38147450D01*
X52629721Y-37886440D01*
X52195679Y-37706654D01*
X51734902Y-37615000D01*
X51265098Y-37615000D01*
X50804321Y-37706654D01*
X50370279Y-37886440D01*
X49979651Y-38147450D01*
X49647450Y-38479651D01*
X49386440Y-38870279D01*
X49206654Y-39304321D01*
X49115000Y-39765098D01*
X38185000Y-39765098D01*
X38185000Y-33185000D01*
X74315000Y-33185000D01*
X74315001Y-129315000D01*
%TA.AperFunction,Conductor*%
D19*
G36*
X74315001Y-129315000D02*
G01*
X38185000Y-129315000D01*
X38185000Y-118765098D01*
X43615000Y-118765098D01*
X43615000Y-119234902D01*
X43706654Y-119695679D01*
X43886440Y-120129721D01*
X44147450Y-120520349D01*
X44479651Y-120852550D01*
X44870279Y-121113560D01*
X45304321Y-121293346D01*
X45765098Y-121385000D01*
X46234902Y-121385000D01*
X46695679Y-121293346D01*
X47129721Y-121113560D01*
X47520349Y-120852550D01*
X47852550Y-120520349D01*
X48113560Y-120129721D01*
X48293346Y-119695679D01*
X48385000Y-119234902D01*
X48385000Y-118765098D01*
X49615000Y-118765098D01*
X49615000Y-119234902D01*
X49706654Y-119695679D01*
X49886440Y-120129721D01*
X50147450Y-120520349D01*
X50479651Y-120852550D01*
X50870279Y-121113560D01*
X51304321Y-121293346D01*
X51765098Y-121385000D01*
X52234902Y-121385000D01*
X52695679Y-121293346D01*
X53129721Y-121113560D01*
X53520349Y-120852550D01*
X53852550Y-120520349D01*
X54113560Y-120129721D01*
X54293346Y-119695679D01*
X54385000Y-119234902D01*
X54385000Y-118765098D01*
X56615000Y-118765098D01*
X56615000Y-119234902D01*
X56706654Y-119695679D01*
X56886440Y-120129721D01*
X57147450Y-120520349D01*
X57479651Y-120852550D01*
X57870279Y-121113560D01*
X58304321Y-121293346D01*
X58765098Y-121385000D01*
X59234902Y-121385000D01*
X59695679Y-121293346D01*
X60129721Y-121113560D01*
X60520349Y-120852550D01*
X60852550Y-120520349D01*
X61113560Y-120129721D01*
X61293346Y-119695679D01*
X61385000Y-119234902D01*
X61385000Y-118765098D01*
X61293346Y-118304321D01*
X61113560Y-117870279D01*
X60852550Y-117479651D01*
X60520349Y-117147450D01*
X60129721Y-116886440D01*
X59695679Y-116706654D01*
X59234902Y-116615000D01*
X58765098Y-116615000D01*
X58304321Y-116706654D01*
X57870279Y-116886440D01*
X57479651Y-117147450D01*
X57147450Y-117479651D01*
X56886440Y-117870279D01*
X56706654Y-118304321D01*
X56615000Y-118765098D01*
X54385000Y-118765098D01*
X54293346Y-118304321D01*
X54113560Y-117870279D01*
X53852550Y-117479651D01*
X53520349Y-117147450D01*
X53129721Y-116886440D01*
X52695679Y-116706654D01*
X52234902Y-116615000D01*
X51765098Y-116615000D01*
X51304321Y-116706654D01*
X50870279Y-116886440D01*
X50479651Y-117147450D01*
X50147450Y-117479651D01*
X49886440Y-117870279D01*
X49706654Y-118304321D01*
X49615000Y-118765098D01*
X48385000Y-118765098D01*
X48293346Y-118304321D01*
X48113560Y-117870279D01*
X47852550Y-117479651D01*
X47520349Y-117147450D01*
X47260000Y-116973490D01*
X47260000Y-114218043D01*
X47414759Y-114114637D01*
X47614637Y-113914759D01*
X47750000Y-113712173D01*
X47885363Y-113914759D01*
X48085241Y-114114637D01*
X48320273Y-114271680D01*
X48581426Y-114379853D01*
X48858665Y-114435000D01*
X49141335Y-114435000D01*
X49418574Y-114379853D01*
X49679727Y-114271680D01*
X49914759Y-114114637D01*
X50114637Y-113914759D01*
X50271680Y-113679727D01*
X50379853Y-113418574D01*
X50435000Y-113141335D01*
X50435000Y-112858665D01*
X50379853Y-112581426D01*
X50271680Y-112320273D01*
X50114637Y-112085241D01*
X49914759Y-111885363D01*
X49679727Y-111728320D01*
X49418574Y-111620147D01*
X49141335Y-111565000D01*
X48858665Y-111565000D01*
X48581426Y-111620147D01*
X48320273Y-111728320D01*
X48085241Y-111885363D01*
X47885363Y-112085241D01*
X47750000Y-112287827D01*
X47614637Y-112085241D01*
X47414759Y-111885363D01*
X47179727Y-111728320D01*
X46918574Y-111620147D01*
X46641335Y-111565000D01*
X46358665Y-111565000D01*
X46081426Y-111620147D01*
X45820273Y-111728320D01*
X45585241Y-111885363D01*
X45385363Y-112085241D01*
X45228320Y-112320273D01*
X45120147Y-112581426D01*
X45065000Y-112858665D01*
X45065000Y-113141335D01*
X45120147Y-113418574D01*
X45228320Y-113679727D01*
X45385363Y-113914759D01*
X45585241Y-114114637D01*
X45740001Y-114218044D01*
X45740000Y-116619992D01*
X45304321Y-116706654D01*
X44870279Y-116886440D01*
X44479651Y-117147450D01*
X44147450Y-117479651D01*
X43886440Y-117870279D01*
X43706654Y-118304321D01*
X43615000Y-118765098D01*
X38185000Y-118765098D01*
X38185000Y-109948514D01*
X45165000Y-109948514D01*
X45165000Y-110211486D01*
X45216304Y-110469405D01*
X45316939Y-110712359D01*
X45463038Y-110931013D01*
X45648987Y-111116962D01*
X45867641Y-111263061D01*
X46110595Y-111363696D01*
X46368514Y-111415000D01*
X46631486Y-111415000D01*
X46889405Y-111363696D01*
X47132359Y-111263061D01*
X47351013Y-111116962D01*
X47536962Y-110931013D01*
X47683061Y-110712359D01*
X47783696Y-110469405D01*
X47835000Y-110211486D01*
X47835000Y-109948514D01*
X47783696Y-109690595D01*
X47683061Y-109447641D01*
X47536962Y-109228987D01*
X47351013Y-109043038D01*
X47132359Y-108896939D01*
X46889405Y-108796304D01*
X46631486Y-108745000D01*
X46368514Y-108745000D01*
X46110595Y-108796304D01*
X45867641Y-108896939D01*
X45648987Y-109043038D01*
X45463038Y-109228987D01*
X45316939Y-109447641D01*
X45216304Y-109690595D01*
X45165000Y-109948514D01*
X38185000Y-109948514D01*
X38185000Y-97200000D01*
X44941928Y-97200000D01*
X44941928Y-98800000D01*
X44954188Y-98924482D01*
X44990498Y-99044180D01*
X45049463Y-99154494D01*
X45128815Y-99251185D01*
X45225506Y-99330537D01*
X45335820Y-99389502D01*
X45455518Y-99425812D01*
X45580000Y-99438072D01*
X45685425Y-99438072D01*
X45740000Y-99540173D01*
X45740000Y-100561928D01*
X45700000Y-100561928D01*
X45575518Y-100574188D01*
X45455820Y-100610498D01*
X45345506Y-100669463D01*
X45248815Y-100748815D01*
X45169463Y-100845506D01*
X45110498Y-100955820D01*
X45074188Y-101075518D01*
X45061928Y-101200000D01*
X45061928Y-102800000D01*
X45074188Y-102924482D01*
X45110498Y-103044180D01*
X45169463Y-103154494D01*
X45248815Y-103251185D01*
X45345506Y-103330537D01*
X45455820Y-103389502D01*
X45575518Y-103425812D01*
X45700000Y-103438072D01*
X45805425Y-103438072D01*
X45865026Y-103549576D01*
X45936201Y-103636302D01*
X45960000Y-103665301D01*
X45988998Y-103689099D01*
X46043850Y-103743951D01*
X45867641Y-103816939D01*
X45648987Y-103963038D01*
X45463038Y-104148987D01*
X45316939Y-104367641D01*
X45216304Y-104610595D01*
X45165000Y-104868514D01*
X45165000Y-105131486D01*
X45216304Y-105389405D01*
X45316939Y-105632359D01*
X45463038Y-105851013D01*
X45648987Y-106036962D01*
X45867641Y-106183061D01*
X46110595Y-106283696D01*
X46368514Y-106335000D01*
X46631486Y-106335000D01*
X46889405Y-106283696D01*
X47132359Y-106183061D01*
X47351013Y-106036962D01*
X47536962Y-105851013D01*
X47683061Y-105632359D01*
X47756049Y-105456151D01*
X48660000Y-106360102D01*
X48660000Y-106902225D01*
X48568987Y-106963038D01*
X48383038Y-107148987D01*
X48236939Y-107367641D01*
X48136304Y-107610595D01*
X48085000Y-107868514D01*
X48085000Y-108131486D01*
X48136304Y-108389405D01*
X48236939Y-108632359D01*
X48383038Y-108851013D01*
X48568987Y-109036962D01*
X48787641Y-109183061D01*
X49030595Y-109283696D01*
X49288514Y-109335000D01*
X49551486Y-109335000D01*
X49809405Y-109283696D01*
X50052359Y-109183061D01*
X50271013Y-109036962D01*
X50456962Y-108851013D01*
X50603061Y-108632359D01*
X50703696Y-108389405D01*
X50755000Y-108131486D01*
X50755000Y-107868514D01*
X53165000Y-107868514D01*
X53165000Y-108131486D01*
X53216304Y-108389405D01*
X53316939Y-108632359D01*
X53463038Y-108851013D01*
X53648987Y-109036962D01*
X53743706Y-109100251D01*
X53750998Y-109174285D01*
X53794454Y-109317546D01*
X53865026Y-109449576D01*
X53936201Y-109536302D01*
X53960000Y-109565301D01*
X53988998Y-109589099D01*
X56435251Y-112035353D01*
X56385363Y-112085241D01*
X56250000Y-112287827D01*
X56114637Y-112085241D01*
X55914759Y-111885363D01*
X55679727Y-111728320D01*
X55418574Y-111620147D01*
X55141335Y-111565000D01*
X54858665Y-111565000D01*
X54581426Y-111620147D01*
X54320273Y-111728320D01*
X54085241Y-111885363D01*
X53885363Y-112085241D01*
X53728320Y-112320273D01*
X53620147Y-112581426D01*
X53565000Y-112858665D01*
X53565000Y-113141335D01*
X53620147Y-113418574D01*
X53728320Y-113679727D01*
X53885363Y-113914759D01*
X54085241Y-114114637D01*
X54320273Y-114271680D01*
X54581426Y-114379853D01*
X54858665Y-114435000D01*
X55141335Y-114435000D01*
X55418574Y-114379853D01*
X55679727Y-114271680D01*
X55914759Y-114114637D01*
X56114637Y-113914759D01*
X56250000Y-113712173D01*
X56385363Y-113914759D01*
X56585241Y-114114637D01*
X56820273Y-114271680D01*
X57081426Y-114379853D01*
X57358665Y-114435000D01*
X57641335Y-114435000D01*
X57918574Y-114379853D01*
X58179727Y-114271680D01*
X58414759Y-114114637D01*
X58614637Y-113914759D01*
X58771680Y-113679727D01*
X58879853Y-113418574D01*
X58935000Y-113141335D01*
X58935000Y-112858665D01*
X62065000Y-112858665D01*
X62065000Y-113141335D01*
X62120147Y-113418574D01*
X62228320Y-113679727D01*
X62385363Y-113914759D01*
X62585241Y-114114637D01*
X62820273Y-114271680D01*
X63081426Y-114379853D01*
X63358665Y-114435000D01*
X63641335Y-114435000D01*
X63918574Y-114379853D01*
X64179727Y-114271680D01*
X64414759Y-114114637D01*
X64614637Y-113914759D01*
X64750000Y-113712173D01*
X64885363Y-113914759D01*
X65085241Y-114114637D01*
X65240001Y-114218044D01*
X65240000Y-116733296D01*
X64870279Y-116886440D01*
X64479651Y-117147450D01*
X64147450Y-117479651D01*
X63886440Y-117870279D01*
X63706654Y-118304321D01*
X63615000Y-118765098D01*
X63615000Y-119234902D01*
X63706654Y-119695679D01*
X63886440Y-120129721D01*
X64147450Y-120520349D01*
X64479651Y-120852550D01*
X64870279Y-121113560D01*
X65304321Y-121293346D01*
X65765098Y-121385000D01*
X66234902Y-121385000D01*
X66695679Y-121293346D01*
X67129721Y-121113560D01*
X67520349Y-120852550D01*
X67852550Y-120520349D01*
X68113560Y-120129721D01*
X68293346Y-119695679D01*
X68385000Y-119234902D01*
X68385000Y-118765098D01*
X68293346Y-118304321D01*
X68113560Y-117870279D01*
X67852550Y-117479651D01*
X67520349Y-117147450D01*
X67129721Y-116886440D01*
X66760000Y-116733297D01*
X66760000Y-114218043D01*
X66914759Y-114114637D01*
X67114637Y-113914759D01*
X67271680Y-113679727D01*
X67379853Y-113418574D01*
X67435000Y-113141335D01*
X67435000Y-112858665D01*
X67379853Y-112581426D01*
X67271680Y-112320273D01*
X67114637Y-112085241D01*
X66914759Y-111885363D01*
X66679727Y-111728320D01*
X66418574Y-111620147D01*
X66141335Y-111565000D01*
X65858665Y-111565000D01*
X65581426Y-111620147D01*
X65320273Y-111728320D01*
X65085241Y-111885363D01*
X64885363Y-112085241D01*
X64750000Y-112287827D01*
X64614637Y-112085241D01*
X64414759Y-111885363D01*
X64179727Y-111728320D01*
X63918574Y-111620147D01*
X63641335Y-111565000D01*
X63358665Y-111565000D01*
X63081426Y-111620147D01*
X62820273Y-111728320D01*
X62585241Y-111885363D01*
X62385363Y-112085241D01*
X62228320Y-112320273D01*
X62120147Y-112581426D01*
X62065000Y-112858665D01*
X58935000Y-112858665D01*
X58903556Y-112700587D01*
X58978976Y-112660274D01*
X59094701Y-112565301D01*
X59118504Y-112536297D01*
X62341157Y-109313645D01*
X62448514Y-109335000D01*
X62711486Y-109335000D01*
X62969405Y-109283696D01*
X63212359Y-109183061D01*
X63431013Y-109036962D01*
X63616962Y-108851013D01*
X63763061Y-108632359D01*
X63863696Y-108389405D01*
X63915000Y-108131486D01*
X63915000Y-107868514D01*
X63863696Y-107610595D01*
X63763061Y-107367641D01*
X63616962Y-107148987D01*
X63431013Y-106963038D01*
X63212359Y-106816939D01*
X62969405Y-106716304D01*
X62711486Y-106665000D01*
X62448514Y-106665000D01*
X62190595Y-106716304D01*
X61947641Y-106816939D01*
X61728987Y-106963038D01*
X61543038Y-107148987D01*
X61396939Y-107367641D01*
X61296304Y-107610595D01*
X61245000Y-107868514D01*
X61245000Y-108131486D01*
X61266355Y-108238843D01*
X58239899Y-111265300D01*
X57814802Y-111265300D01*
X55468738Y-108919237D01*
X55536962Y-108851013D01*
X55683061Y-108632359D01*
X55783696Y-108389405D01*
X55835000Y-108131486D01*
X55835000Y-107868514D01*
X56165000Y-107868514D01*
X56165000Y-108131486D01*
X56216304Y-108389405D01*
X56316939Y-108632359D01*
X56463038Y-108851013D01*
X56648987Y-109036962D01*
X56867641Y-109183061D01*
X57110595Y-109283696D01*
X57368514Y-109335000D01*
X57631486Y-109335000D01*
X57889405Y-109283696D01*
X58132359Y-109183061D01*
X58351013Y-109036962D01*
X58536962Y-108851013D01*
X58683061Y-108632359D01*
X58783696Y-108389405D01*
X58835000Y-108131486D01*
X58835000Y-107868514D01*
X58783696Y-107610595D01*
X58683061Y-107367641D01*
X58536962Y-107148987D01*
X58351013Y-106963038D01*
X58132359Y-106816939D01*
X57889405Y-106716304D01*
X57631486Y-106665000D01*
X57368514Y-106665000D01*
X57110595Y-106716304D01*
X56867641Y-106816939D01*
X56648987Y-106963038D01*
X56463038Y-107148987D01*
X56316939Y-107367641D01*
X56216304Y-107610595D01*
X56165000Y-107868514D01*
X55835000Y-107868514D01*
X55783696Y-107610595D01*
X55683061Y-107367641D01*
X55536962Y-107148987D01*
X55351013Y-106963038D01*
X55132359Y-106816939D01*
X54889405Y-106716304D01*
X54631486Y-106665000D01*
X54368514Y-106665000D01*
X54110595Y-106716304D01*
X53867641Y-106816939D01*
X53648987Y-106963038D01*
X53463038Y-107148987D01*
X53316939Y-107367641D01*
X53216304Y-107610595D01*
X53165000Y-107868514D01*
X50755000Y-107868514D01*
X50703696Y-107610595D01*
X50603061Y-107367641D01*
X50456962Y-107148987D01*
X50271013Y-106963038D01*
X50180000Y-106902225D01*
X50180000Y-106082633D01*
X50183677Y-106045300D01*
X50169003Y-105896314D01*
X50125546Y-105753053D01*
X50054974Y-105621024D01*
X49983799Y-105534297D01*
X49960001Y-105505299D01*
X49931004Y-105481502D01*
X47723449Y-103273947D01*
X47751185Y-103251185D01*
X47830537Y-103154494D01*
X47889502Y-103044180D01*
X47925812Y-102924482D01*
X47938072Y-102800000D01*
X47938072Y-101858665D01*
X52685000Y-101858665D01*
X52685000Y-102141335D01*
X52740147Y-102418574D01*
X52848320Y-102679727D01*
X53005363Y-102914759D01*
X53205241Y-103114637D01*
X53440273Y-103271680D01*
X53701426Y-103379853D01*
X53978665Y-103435000D01*
X54261335Y-103435000D01*
X54538574Y-103379853D01*
X54799727Y-103271680D01*
X55034759Y-103114637D01*
X55234637Y-102914759D01*
X55338043Y-102760000D01*
X57561928Y-102760000D01*
X57561928Y-102800000D01*
X57574188Y-102924482D01*
X57610498Y-103044180D01*
X57669463Y-103154494D01*
X57748815Y-103251185D01*
X57845506Y-103330537D01*
X57955820Y-103389502D01*
X58075518Y-103425812D01*
X58200000Y-103438072D01*
X59800000Y-103438072D01*
X59924482Y-103425812D01*
X60044180Y-103389502D01*
X60154494Y-103330537D01*
X60180057Y-103309558D01*
X65531262Y-108660763D01*
X65463038Y-108728987D01*
X65316939Y-108947641D01*
X65216304Y-109190595D01*
X65165000Y-109448514D01*
X65165000Y-109711486D01*
X65216304Y-109969405D01*
X65316939Y-110212359D01*
X65463038Y-110431013D01*
X65648987Y-110616962D01*
X65867641Y-110763061D01*
X66110595Y-110863696D01*
X66368514Y-110915000D01*
X66631486Y-110915000D01*
X66889405Y-110863696D01*
X67132359Y-110763061D01*
X67351013Y-110616962D01*
X67536962Y-110431013D01*
X67683061Y-110212359D01*
X67783696Y-109969405D01*
X67835000Y-109711486D01*
X67835000Y-109448514D01*
X67783696Y-109190595D01*
X67683061Y-108947641D01*
X67536962Y-108728987D01*
X67351013Y-108543038D01*
X67256295Y-108479750D01*
X67249003Y-108405714D01*
X67205546Y-108262453D01*
X67134974Y-108130424D01*
X67040001Y-108014699D01*
X67011003Y-107990901D01*
X63388616Y-104368514D01*
X65165000Y-104368514D01*
X65165000Y-104631486D01*
X65216304Y-104889405D01*
X65316939Y-105132359D01*
X65463038Y-105351013D01*
X65648987Y-105536962D01*
X65867641Y-105683061D01*
X66110595Y-105783696D01*
X66368514Y-105835000D01*
X66631486Y-105835000D01*
X66889405Y-105783696D01*
X67132359Y-105683061D01*
X67351013Y-105536962D01*
X67536962Y-105351013D01*
X67683061Y-105132359D01*
X67783696Y-104889405D01*
X67835000Y-104631486D01*
X67835000Y-104368514D01*
X67783696Y-104110595D01*
X67683061Y-103867641D01*
X67536962Y-103648987D01*
X67351013Y-103463038D01*
X67154594Y-103331796D01*
X67299727Y-103271680D01*
X67534759Y-103114637D01*
X67734637Y-102914759D01*
X67891680Y-102679727D01*
X67999853Y-102418574D01*
X68055000Y-102141335D01*
X68055000Y-101858665D01*
X67999853Y-101581426D01*
X67891680Y-101320273D01*
X67734637Y-101085241D01*
X67534759Y-100885363D01*
X67380000Y-100781957D01*
X67380000Y-99218043D01*
X67534759Y-99114637D01*
X67734637Y-98914759D01*
X67891680Y-98679727D01*
X67999853Y-98418574D01*
X68055000Y-98141335D01*
X68055000Y-97858665D01*
X67999853Y-97581426D01*
X67891680Y-97320273D01*
X67734637Y-97085241D01*
X67534759Y-96885363D01*
X67380000Y-96781957D01*
X67380000Y-92137865D01*
X67447641Y-92183061D01*
X67690595Y-92283696D01*
X67948514Y-92335000D01*
X68211486Y-92335000D01*
X68469405Y-92283696D01*
X68712359Y-92183061D01*
X68931013Y-92036962D01*
X69116962Y-91851013D01*
X69263061Y-91632359D01*
X69363696Y-91389405D01*
X69415000Y-91131486D01*
X69415000Y-90868514D01*
X69363696Y-90610595D01*
X69263061Y-90367641D01*
X69116962Y-90148987D01*
X68931013Y-89963038D01*
X68712359Y-89816939D01*
X68469405Y-89716304D01*
X68211486Y-89665000D01*
X67948514Y-89665000D01*
X67690595Y-89716304D01*
X67447641Y-89816939D01*
X67380000Y-89862135D01*
X67380000Y-82538801D01*
X68339754Y-81579048D01*
X68348320Y-81599727D01*
X68505363Y-81834759D01*
X68705241Y-82034637D01*
X68937759Y-82190000D01*
X68705241Y-82345363D01*
X68505363Y-82545241D01*
X68348320Y-82780273D01*
X68240147Y-83041426D01*
X68185000Y-83318665D01*
X68185000Y-83601335D01*
X68240147Y-83878574D01*
X68348320Y-84139727D01*
X68505363Y-84374759D01*
X68703961Y-84573357D01*
X68695518Y-84574188D01*
X68575820Y-84610498D01*
X68465506Y-84669463D01*
X68368815Y-84748815D01*
X68289463Y-84845506D01*
X68230498Y-84955820D01*
X68194188Y-85075518D01*
X68181928Y-85200000D01*
X68181928Y-86800000D01*
X68194188Y-86924482D01*
X68230498Y-87044180D01*
X68289463Y-87154494D01*
X68368815Y-87251185D01*
X68465506Y-87330537D01*
X68575820Y-87389502D01*
X68695518Y-87425812D01*
X68820000Y-87438072D01*
X70420000Y-87438072D01*
X70544482Y-87425812D01*
X70664180Y-87389502D01*
X70774494Y-87330537D01*
X70871185Y-87251185D01*
X70950537Y-87154494D01*
X71009502Y-87044180D01*
X71045812Y-86924482D01*
X71058072Y-86800000D01*
X71058072Y-85200000D01*
X71045812Y-85075518D01*
X71009502Y-84955820D01*
X70950537Y-84845506D01*
X70871185Y-84748815D01*
X70774494Y-84669463D01*
X70664180Y-84610498D01*
X70544482Y-84574188D01*
X70536039Y-84573357D01*
X70734637Y-84374759D01*
X70891680Y-84139727D01*
X70999853Y-83878574D01*
X71055000Y-83601335D01*
X71055000Y-83318665D01*
X70999853Y-83041426D01*
X70891680Y-82780273D01*
X70734637Y-82545241D01*
X70534759Y-82345363D01*
X70302241Y-82190000D01*
X70534759Y-82034637D01*
X70734637Y-81834759D01*
X70891680Y-81599727D01*
X70999853Y-81338574D01*
X71055000Y-81061335D01*
X71055000Y-80778665D01*
X70999853Y-80501426D01*
X70891680Y-80240273D01*
X70734637Y-80005241D01*
X70534759Y-79805363D01*
X70358833Y-79687813D01*
X70369003Y-79654286D01*
X70374158Y-79601947D01*
X70534759Y-79494637D01*
X70734637Y-79294759D01*
X70891680Y-79059727D01*
X70999853Y-78798574D01*
X71055000Y-78521335D01*
X71055000Y-78238665D01*
X70999853Y-77961426D01*
X70891680Y-77700273D01*
X70734637Y-77465241D01*
X70534759Y-77265363D01*
X70299727Y-77108320D01*
X70038574Y-77000147D01*
X69761335Y-76945000D01*
X69478665Y-76945000D01*
X69201426Y-77000147D01*
X68940273Y-77108320D01*
X68705241Y-77265363D01*
X68505363Y-77465241D01*
X68348320Y-77700273D01*
X68240147Y-77961426D01*
X68185000Y-78238665D01*
X68185000Y-78521335D01*
X68240147Y-78798574D01*
X68348320Y-79059727D01*
X68492976Y-79276221D01*
X66108998Y-81660201D01*
X66080000Y-81683999D01*
X66056202Y-81712997D01*
X66056201Y-81712998D01*
X65985026Y-81799724D01*
X65914454Y-81931754D01*
X65886169Y-82025000D01*
X65870998Y-82075014D01*
X65870248Y-82082633D01*
X65856324Y-82224000D01*
X65860001Y-82261333D01*
X65860000Y-96781957D01*
X65705241Y-96885363D01*
X65505363Y-97085241D01*
X65348320Y-97320273D01*
X65240147Y-97581426D01*
X65185000Y-97858665D01*
X65185000Y-98141335D01*
X65240147Y-98418574D01*
X65348320Y-98679727D01*
X65505363Y-98914759D01*
X65705241Y-99114637D01*
X65860001Y-99218044D01*
X65860000Y-100781956D01*
X65705241Y-100885363D01*
X65505363Y-101085241D01*
X65348320Y-101320273D01*
X65240147Y-101581426D01*
X65185000Y-101858665D01*
X65185000Y-102141335D01*
X65240147Y-102418574D01*
X65348320Y-102679727D01*
X65505363Y-102914759D01*
X65705241Y-103114637D01*
X65940273Y-103271680D01*
X65958589Y-103279267D01*
X65867641Y-103316939D01*
X65648987Y-103463038D01*
X65463038Y-103648987D01*
X65316939Y-103867641D01*
X65216304Y-104110595D01*
X65165000Y-104368514D01*
X63388616Y-104368514D01*
X60874651Y-101854550D01*
X60874303Y-101851014D01*
X60830846Y-101707753D01*
X60760274Y-101575724D01*
X60665301Y-101459999D01*
X60549576Y-101365026D01*
X60438072Y-101305425D01*
X60438072Y-101200000D01*
X60425812Y-101075518D01*
X60389502Y-100955820D01*
X60330537Y-100845506D01*
X60251185Y-100748815D01*
X60154494Y-100669463D01*
X60044180Y-100610498D01*
X59924482Y-100574188D01*
X59800000Y-100561928D01*
X58200000Y-100561928D01*
X58075518Y-100574188D01*
X57955820Y-100610498D01*
X57845506Y-100669463D01*
X57748815Y-100748815D01*
X57669463Y-100845506D01*
X57610498Y-100955820D01*
X57574188Y-101075518D01*
X57561928Y-101200000D01*
X57561928Y-101240000D01*
X55338043Y-101240000D01*
X55234637Y-101085241D01*
X55034759Y-100885363D01*
X54799727Y-100728320D01*
X54538574Y-100620147D01*
X54261335Y-100565000D01*
X53978665Y-100565000D01*
X53701426Y-100620147D01*
X53440273Y-100728320D01*
X53205241Y-100885363D01*
X53005363Y-101085241D01*
X52848320Y-101320273D01*
X52740147Y-101581426D01*
X52685000Y-101858665D01*
X47938072Y-101858665D01*
X47938072Y-101200000D01*
X47925812Y-101075518D01*
X47889502Y-100955820D01*
X47830537Y-100845506D01*
X47751185Y-100748815D01*
X47654494Y-100669463D01*
X47544180Y-100610498D01*
X47424482Y-100574188D01*
X47300000Y-100561928D01*
X47260000Y-100561928D01*
X47260000Y-99430193D01*
X47304482Y-99425812D01*
X47424180Y-99389502D01*
X47534494Y-99330537D01*
X47631185Y-99251185D01*
X47710537Y-99154494D01*
X47769502Y-99044180D01*
X47805812Y-98924482D01*
X47818072Y-98800000D01*
X47818072Y-97200000D01*
X47805812Y-97075518D01*
X47769502Y-96955820D01*
X47710537Y-96845506D01*
X47631185Y-96748815D01*
X47534494Y-96669463D01*
X47424180Y-96610498D01*
X47304482Y-96574188D01*
X47180000Y-96561928D01*
X45580000Y-96561928D01*
X45455518Y-96574188D01*
X45335820Y-96610498D01*
X45225506Y-96669463D01*
X45128815Y-96748815D01*
X45049463Y-96845506D01*
X44990498Y-96955820D01*
X44954188Y-97075518D01*
X44941928Y-97200000D01*
X38185000Y-97200000D01*
X38185000Y-90868514D01*
X43085000Y-90868514D01*
X43085000Y-91131486D01*
X43136304Y-91389405D01*
X43236939Y-91632359D01*
X43383038Y-91851013D01*
X43568987Y-92036962D01*
X43787641Y-92183061D01*
X44030595Y-92283696D01*
X44288514Y-92335000D01*
X44551486Y-92335000D01*
X44809405Y-92283696D01*
X45052359Y-92183061D01*
X45271013Y-92036962D01*
X45456962Y-91851013D01*
X45603061Y-91632359D01*
X45703696Y-91389405D01*
X45755000Y-91131486D01*
X45755000Y-90868514D01*
X45733645Y-90761156D01*
X48740001Y-87754801D01*
X48740000Y-89902225D01*
X48648987Y-89963038D01*
X48463038Y-90148987D01*
X48316939Y-90367641D01*
X48216304Y-90610595D01*
X48165000Y-90868514D01*
X48165000Y-91131486D01*
X48216304Y-91389405D01*
X48316939Y-91632359D01*
X48463038Y-91851013D01*
X48648987Y-92036962D01*
X48867641Y-92183061D01*
X49110595Y-92283696D01*
X49368514Y-92335000D01*
X49631486Y-92335000D01*
X49889405Y-92283696D01*
X50132359Y-92183061D01*
X50351013Y-92036962D01*
X50536962Y-91851013D01*
X50683061Y-91632359D01*
X50783696Y-91389405D01*
X50835000Y-91131486D01*
X50835000Y-90868514D01*
X50783696Y-90610595D01*
X50683061Y-90367641D01*
X50536962Y-90148987D01*
X50351013Y-89963038D01*
X50260000Y-89902225D01*
X50260000Y-87438072D01*
X51800000Y-87438072D01*
X51924482Y-87425812D01*
X52044180Y-87389502D01*
X52114700Y-87351808D01*
X52114701Y-95712068D01*
X52111024Y-95749400D01*
X52125698Y-95898385D01*
X52169154Y-96041646D01*
X52239726Y-96173676D01*
X52310901Y-96260402D01*
X52334700Y-96289401D01*
X52363698Y-96313199D01*
X53010551Y-96960053D01*
X52885363Y-97085241D01*
X52728320Y-97320273D01*
X52620147Y-97581426D01*
X52565000Y-97858665D01*
X52565000Y-98141335D01*
X52620147Y-98418574D01*
X52728320Y-98679727D01*
X52885363Y-98914759D01*
X53085241Y-99114637D01*
X53320273Y-99271680D01*
X53581426Y-99379853D01*
X53858665Y-99435000D01*
X54141335Y-99435000D01*
X54418574Y-99379853D01*
X54679727Y-99271680D01*
X54914759Y-99114637D01*
X55114637Y-98914759D01*
X55271680Y-98679727D01*
X55379853Y-98418574D01*
X55423868Y-98197300D01*
X56997199Y-98197300D01*
X57310900Y-98511002D01*
X57334699Y-98540001D01*
X57363697Y-98563799D01*
X57450423Y-98634974D01*
X57561928Y-98694575D01*
X57561928Y-98800000D01*
X57574188Y-98924482D01*
X57610498Y-99044180D01*
X57669463Y-99154494D01*
X57748815Y-99251185D01*
X57845506Y-99330537D01*
X57955820Y-99389502D01*
X58075518Y-99425812D01*
X58200000Y-99438072D01*
X59800000Y-99438072D01*
X59924482Y-99425812D01*
X60044180Y-99389502D01*
X60154494Y-99330537D01*
X60251185Y-99251185D01*
X60330537Y-99154494D01*
X60389502Y-99044180D01*
X60425812Y-98924482D01*
X60438072Y-98800000D01*
X60438072Y-97200000D01*
X60425812Y-97075518D01*
X60389502Y-96955820D01*
X60330537Y-96845506D01*
X60251185Y-96748815D01*
X60154494Y-96669463D01*
X60044180Y-96610498D01*
X59924482Y-96574188D01*
X59800000Y-96561928D01*
X58200000Y-96561928D01*
X58075518Y-96574188D01*
X57955820Y-96610498D01*
X57845506Y-96669463D01*
X57748815Y-96748815D01*
X57714467Y-96790669D01*
X57604247Y-96731754D01*
X57460986Y-96688297D01*
X57349333Y-96677300D01*
X57349322Y-96677300D01*
X57312000Y-96673624D01*
X57274678Y-96677300D01*
X54734317Y-96677300D01*
X54705546Y-96582453D01*
X54634974Y-96450424D01*
X54563799Y-96363697D01*
X54540001Y-96334699D01*
X54511003Y-96310901D01*
X53634700Y-95434599D01*
X53634700Y-85022675D01*
X53648987Y-85036962D01*
X53867641Y-85183061D01*
X54110595Y-85283696D01*
X54368514Y-85335000D01*
X54631486Y-85335000D01*
X54889405Y-85283696D01*
X55132359Y-85183061D01*
X55351013Y-85036962D01*
X55536962Y-84851013D01*
X55683061Y-84632359D01*
X55783696Y-84389405D01*
X55835000Y-84131486D01*
X55835000Y-83948514D01*
X57165000Y-83948514D01*
X57165000Y-84211486D01*
X57216304Y-84469405D01*
X57316939Y-84712359D01*
X57463038Y-84931013D01*
X57648987Y-85116962D01*
X57867641Y-85263061D01*
X58110595Y-85363696D01*
X58368514Y-85415000D01*
X58631486Y-85415000D01*
X58889405Y-85363696D01*
X59132359Y-85263061D01*
X59351013Y-85116962D01*
X59536962Y-84931013D01*
X59683061Y-84712359D01*
X59783696Y-84469405D01*
X59835000Y-84211486D01*
X59835000Y-83948514D01*
X59783696Y-83690595D01*
X59683061Y-83447641D01*
X59536962Y-83228987D01*
X59351013Y-83043038D01*
X59132359Y-82896939D01*
X58889405Y-82796304D01*
X58631486Y-82745000D01*
X58368514Y-82745000D01*
X58110595Y-82796304D01*
X57867641Y-82896939D01*
X57648987Y-83043038D01*
X57463038Y-83228987D01*
X57316939Y-83447641D01*
X57216304Y-83690595D01*
X57165000Y-83948514D01*
X55835000Y-83948514D01*
X55835000Y-83868514D01*
X55783696Y-83610595D01*
X55683061Y-83367641D01*
X55536962Y-83148987D01*
X55351013Y-82963038D01*
X55132359Y-82816939D01*
X54889405Y-82716304D01*
X54631486Y-82665000D01*
X54368514Y-82665000D01*
X54110595Y-82716304D01*
X53867641Y-82816939D01*
X53648987Y-82963038D01*
X53463038Y-83148987D01*
X53459904Y-83153678D01*
X53438499Y-83127596D01*
X53438495Y-83127592D01*
X53414701Y-83098599D01*
X53385709Y-83074806D01*
X52127063Y-81816162D01*
X52271680Y-81599727D01*
X52379853Y-81338574D01*
X52435000Y-81061335D01*
X52435000Y-80778665D01*
X52379853Y-80501426D01*
X52271680Y-80240273D01*
X52114637Y-80005241D01*
X51914759Y-79805363D01*
X51682241Y-79650000D01*
X51914759Y-79494637D01*
X52114637Y-79294759D01*
X52271680Y-79059727D01*
X52379853Y-78798574D01*
X52381854Y-78788514D01*
X53165000Y-78788514D01*
X53165000Y-79051486D01*
X53216304Y-79309405D01*
X53316939Y-79552359D01*
X53463038Y-79771013D01*
X53648987Y-79956962D01*
X53867641Y-80103061D01*
X54110595Y-80203696D01*
X54368514Y-80255000D01*
X54631486Y-80255000D01*
X54889405Y-80203696D01*
X55132359Y-80103061D01*
X55351013Y-79956962D01*
X55536962Y-79771013D01*
X55683061Y-79552359D01*
X55783696Y-79309405D01*
X55835000Y-79051486D01*
X55835000Y-78868514D01*
X57165000Y-78868514D01*
X57165000Y-79131486D01*
X57216304Y-79389405D01*
X57316939Y-79632359D01*
X57463038Y-79851013D01*
X57648987Y-80036962D01*
X57867641Y-80183061D01*
X58110595Y-80283696D01*
X58368514Y-80335000D01*
X58631486Y-80335000D01*
X58889405Y-80283696D01*
X59132359Y-80183061D01*
X59351013Y-80036962D01*
X59536962Y-79851013D01*
X59683061Y-79632359D01*
X59783696Y-79389405D01*
X59835000Y-79131486D01*
X59835000Y-78868514D01*
X59783696Y-78610595D01*
X59683061Y-78367641D01*
X59536962Y-78148987D01*
X59351013Y-77963038D01*
X59132359Y-77816939D01*
X58889405Y-77716304D01*
X58631486Y-77665000D01*
X58368514Y-77665000D01*
X58110595Y-77716304D01*
X57867641Y-77816939D01*
X57648987Y-77963038D01*
X57463038Y-78148987D01*
X57316939Y-78367641D01*
X57216304Y-78610595D01*
X57165000Y-78868514D01*
X55835000Y-78868514D01*
X55835000Y-78788514D01*
X55783696Y-78530595D01*
X55683061Y-78287641D01*
X55536962Y-78068987D01*
X55351013Y-77883038D01*
X55132359Y-77736939D01*
X54889405Y-77636304D01*
X54631486Y-77585000D01*
X54368514Y-77585000D01*
X54110595Y-77636304D01*
X53867641Y-77736939D01*
X53648987Y-77883038D01*
X53463038Y-78068987D01*
X53316939Y-78287641D01*
X53216304Y-78530595D01*
X53165000Y-78788514D01*
X52381854Y-78788514D01*
X52435000Y-78521335D01*
X52435000Y-78238665D01*
X52379853Y-77961426D01*
X52271680Y-77700273D01*
X52114637Y-77465241D01*
X51914759Y-77265363D01*
X51679727Y-77108320D01*
X51418574Y-77000147D01*
X51141335Y-76945000D01*
X50858665Y-76945000D01*
X50581426Y-77000147D01*
X50320273Y-77108320D01*
X50085241Y-77265363D01*
X49885363Y-77465241D01*
X49728320Y-77700273D01*
X49620147Y-77961426D01*
X49565000Y-78238665D01*
X49565000Y-78521335D01*
X49620147Y-78798574D01*
X49728320Y-79059727D01*
X49885363Y-79294759D01*
X50085241Y-79494637D01*
X50317759Y-79650000D01*
X50085241Y-79805363D01*
X49885363Y-80005241D01*
X49728320Y-80240273D01*
X49620147Y-80501426D01*
X49565000Y-80778665D01*
X49565000Y-81061335D01*
X49620147Y-81338574D01*
X49728320Y-81599727D01*
X49885363Y-81834759D01*
X50085241Y-82034637D01*
X50245842Y-82141947D01*
X50250997Y-82194286D01*
X50261167Y-82227813D01*
X50085241Y-82345363D01*
X49885363Y-82545241D01*
X49728320Y-82780273D01*
X49620147Y-83041426D01*
X49565000Y-83318665D01*
X49565000Y-83601335D01*
X49620147Y-83878574D01*
X49710498Y-84096700D01*
X49260000Y-84547199D01*
X49260000Y-74718043D01*
X49414759Y-74614637D01*
X49614637Y-74414759D01*
X49750000Y-74212173D01*
X49885363Y-74414759D01*
X50085241Y-74614637D01*
X50320273Y-74771680D01*
X50581426Y-74879853D01*
X50858665Y-74935000D01*
X51141335Y-74935000D01*
X51418574Y-74879853D01*
X51679727Y-74771680D01*
X51914759Y-74614637D01*
X52114637Y-74414759D01*
X52271680Y-74179727D01*
X52379853Y-73918574D01*
X52435000Y-73641335D01*
X52435000Y-73358665D01*
X52379853Y-73081426D01*
X52271680Y-72820273D01*
X52114637Y-72585241D01*
X51914759Y-72385363D01*
X51679727Y-72228320D01*
X51418574Y-72120147D01*
X51141335Y-72065000D01*
X50858665Y-72065000D01*
X50581426Y-72120147D01*
X50320273Y-72228320D01*
X50085241Y-72385363D01*
X49885363Y-72585241D01*
X49750000Y-72787827D01*
X49614637Y-72585241D01*
X49414759Y-72385363D01*
X49179727Y-72228320D01*
X48918574Y-72120147D01*
X48641335Y-72065000D01*
X48358665Y-72065000D01*
X48081426Y-72120147D01*
X47820273Y-72228320D01*
X47585241Y-72385363D01*
X47385363Y-72585241D01*
X47228320Y-72820273D01*
X47120147Y-73081426D01*
X47065000Y-73358665D01*
X47065000Y-73641335D01*
X47120147Y-73918574D01*
X47228320Y-74179727D01*
X47385363Y-74414759D01*
X47585241Y-74614637D01*
X47740001Y-74718044D01*
X47740000Y-86605198D01*
X44658844Y-89686355D01*
X44551486Y-89665000D01*
X44288514Y-89665000D01*
X44030595Y-89716304D01*
X43787641Y-89816939D01*
X43568987Y-89963038D01*
X43383038Y-90148987D01*
X43236939Y-90367641D01*
X43136304Y-90610595D01*
X43085000Y-90868514D01*
X38185000Y-90868514D01*
X38185000Y-78238665D01*
X41945000Y-78238665D01*
X41945000Y-78521335D01*
X42000147Y-78798574D01*
X42108320Y-79059727D01*
X42265363Y-79294759D01*
X42465241Y-79494637D01*
X42697759Y-79650000D01*
X42465241Y-79805363D01*
X42265363Y-80005241D01*
X42108320Y-80240273D01*
X42000147Y-80501426D01*
X41945000Y-80778665D01*
X41945000Y-81061335D01*
X42000147Y-81338574D01*
X42108320Y-81599727D01*
X42265363Y-81834759D01*
X42465241Y-82034637D01*
X42697759Y-82190000D01*
X42465241Y-82345363D01*
X42265363Y-82545241D01*
X42108320Y-82780273D01*
X42000147Y-83041426D01*
X41945000Y-83318665D01*
X41945000Y-83601335D01*
X42000147Y-83878574D01*
X42108320Y-84139727D01*
X42265363Y-84374759D01*
X42465241Y-84574637D01*
X42697759Y-84730000D01*
X42465241Y-84885363D01*
X42265363Y-85085241D01*
X42108320Y-85320273D01*
X42000147Y-85581426D01*
X41945000Y-85858665D01*
X41945000Y-86141335D01*
X42000147Y-86418574D01*
X42108320Y-86679727D01*
X42265363Y-86914759D01*
X42465241Y-87114637D01*
X42700273Y-87271680D01*
X42961426Y-87379853D01*
X43238665Y-87435000D01*
X43521335Y-87435000D01*
X43798574Y-87379853D01*
X44059727Y-87271680D01*
X44294759Y-87114637D01*
X44494637Y-86914759D01*
X44651680Y-86679727D01*
X44759853Y-86418574D01*
X44815000Y-86141335D01*
X44815000Y-85858665D01*
X44759853Y-85581426D01*
X44651680Y-85320273D01*
X44494637Y-85085241D01*
X44294759Y-84885363D01*
X44062241Y-84730000D01*
X44294759Y-84574637D01*
X44494637Y-84374759D01*
X44651680Y-84139727D01*
X44759853Y-83878574D01*
X44815000Y-83601335D01*
X44815000Y-83318665D01*
X44759853Y-83041426D01*
X44651680Y-82780273D01*
X44494637Y-82545241D01*
X44294759Y-82345363D01*
X44062241Y-82190000D01*
X44294759Y-82034637D01*
X44494637Y-81834759D01*
X44651680Y-81599727D01*
X44759853Y-81338574D01*
X44815000Y-81061335D01*
X44815000Y-80778665D01*
X44759853Y-80501426D01*
X44651680Y-80240273D01*
X44494637Y-80005241D01*
X44294759Y-79805363D01*
X44062241Y-79650000D01*
X44294759Y-79494637D01*
X44494637Y-79294759D01*
X44651680Y-79059727D01*
X44759853Y-78798574D01*
X44815000Y-78521335D01*
X44815000Y-78238665D01*
X44759853Y-77961426D01*
X44651680Y-77700273D01*
X44494637Y-77465241D01*
X44294759Y-77265363D01*
X44059727Y-77108320D01*
X43798574Y-77000147D01*
X43521335Y-76945000D01*
X43238665Y-76945000D01*
X42961426Y-77000147D01*
X42700273Y-77108320D01*
X42465241Y-77265363D01*
X42265363Y-77465241D01*
X42108320Y-77700273D01*
X42000147Y-77961426D01*
X41945000Y-78238665D01*
X38185000Y-78238665D01*
X38185000Y-68868514D01*
X42665000Y-68868514D01*
X42665000Y-69131486D01*
X42716304Y-69389405D01*
X42816939Y-69632359D01*
X42963038Y-69851013D01*
X43148987Y-70036962D01*
X43367641Y-70183061D01*
X43610595Y-70283696D01*
X43868514Y-70335000D01*
X44131486Y-70335000D01*
X44389405Y-70283696D01*
X44632359Y-70183061D01*
X44851013Y-70036962D01*
X45036962Y-69851013D01*
X45183061Y-69632359D01*
X45283696Y-69389405D01*
X45335000Y-69131486D01*
X45335000Y-68948514D01*
X46665000Y-68948514D01*
X46665000Y-69211486D01*
X46716304Y-69469405D01*
X46816939Y-69712359D01*
X46963038Y-69931013D01*
X47148987Y-70116962D01*
X47367641Y-70263061D01*
X47610595Y-70363696D01*
X47868514Y-70415000D01*
X48131486Y-70415000D01*
X48389405Y-70363696D01*
X48632359Y-70263061D01*
X48851013Y-70116962D01*
X49036962Y-69931013D01*
X49183061Y-69712359D01*
X49283696Y-69469405D01*
X49335000Y-69211486D01*
X49335000Y-68948514D01*
X49283696Y-68690595D01*
X49183061Y-68447641D01*
X49036962Y-68228987D01*
X48851013Y-68043038D01*
X48632359Y-67896939D01*
X48389405Y-67796304D01*
X48131486Y-67745000D01*
X47868514Y-67745000D01*
X47610595Y-67796304D01*
X47367641Y-67896939D01*
X47148987Y-68043038D01*
X46963038Y-68228987D01*
X46816939Y-68447641D01*
X46716304Y-68690595D01*
X46665000Y-68948514D01*
X45335000Y-68948514D01*
X45335000Y-68868514D01*
X45313645Y-68761156D01*
X47440102Y-66634700D01*
X51926292Y-66634700D01*
X51700273Y-66728320D01*
X51465241Y-66885363D01*
X51265363Y-67085241D01*
X51108320Y-67320273D01*
X51000147Y-67581426D01*
X50945000Y-67858665D01*
X50945000Y-68141335D01*
X51000147Y-68418574D01*
X51108320Y-68679727D01*
X51265363Y-68914759D01*
X51465241Y-69114637D01*
X51700273Y-69271680D01*
X51961426Y-69379853D01*
X52238665Y-69435000D01*
X52521335Y-69435000D01*
X52798574Y-69379853D01*
X53059727Y-69271680D01*
X53294759Y-69114637D01*
X53494637Y-68914759D01*
X53651680Y-68679727D01*
X53759853Y-68418574D01*
X53815000Y-68141335D01*
X53815000Y-67858665D01*
X53759853Y-67581426D01*
X53651680Y-67320273D01*
X53494637Y-67085241D01*
X53294759Y-66885363D01*
X53059727Y-66728320D01*
X52833708Y-66634700D01*
X58685199Y-66634700D01*
X58776551Y-66726053D01*
X58748815Y-66748815D01*
X58669463Y-66845506D01*
X58610498Y-66955820D01*
X58574188Y-67075518D01*
X58561928Y-67200000D01*
X58561928Y-68800000D01*
X58574188Y-68924482D01*
X58610498Y-69044180D01*
X58669463Y-69154494D01*
X58748815Y-69251185D01*
X58845506Y-69330537D01*
X58955820Y-69389502D01*
X59075518Y-69425812D01*
X59200000Y-69438072D01*
X60800000Y-69438072D01*
X60924482Y-69425812D01*
X61044180Y-69389502D01*
X61154494Y-69330537D01*
X61251185Y-69251185D01*
X61330537Y-69154494D01*
X61389502Y-69044180D01*
X61425812Y-68924482D01*
X61438072Y-68800000D01*
X61438072Y-67200000D01*
X61427745Y-67095146D01*
X63695024Y-69362427D01*
X63716304Y-69469405D01*
X63816939Y-69712359D01*
X63963038Y-69931013D01*
X64031262Y-69999237D01*
X62332798Y-71697701D01*
X62303800Y-71721499D01*
X62280002Y-71750497D01*
X62280001Y-71750498D01*
X62208826Y-71837224D01*
X62138254Y-71969254D01*
X62094798Y-72112515D01*
X62087168Y-72189981D01*
X61918574Y-72120147D01*
X61641335Y-72065000D01*
X61358665Y-72065000D01*
X61081426Y-72120147D01*
X60820273Y-72228320D01*
X60585241Y-72385363D01*
X60385363Y-72585241D01*
X60228320Y-72820273D01*
X60120147Y-73081426D01*
X60065000Y-73358665D01*
X60065000Y-73641335D01*
X60120147Y-73918574D01*
X60228320Y-74179727D01*
X60385363Y-74414759D01*
X60585241Y-74614637D01*
X60820273Y-74771680D01*
X61081426Y-74879853D01*
X61358665Y-74935000D01*
X61641335Y-74935000D01*
X61918574Y-74879853D01*
X62083800Y-74811414D01*
X62083800Y-75971777D01*
X62080124Y-76009100D01*
X62083800Y-76046422D01*
X62083800Y-76046432D01*
X62094797Y-76158085D01*
X62123700Y-76253367D01*
X62138254Y-76301346D01*
X62208826Y-76433376D01*
X62214005Y-76439686D01*
X62303799Y-76549101D01*
X62332803Y-76572904D01*
X62365401Y-76605502D01*
X62365401Y-76989570D01*
X62141335Y-76945000D01*
X61858665Y-76945000D01*
X61581426Y-77000147D01*
X61320273Y-77108320D01*
X61085241Y-77265363D01*
X60885363Y-77465241D01*
X60728320Y-77700273D01*
X60620147Y-77961426D01*
X60565000Y-78238665D01*
X60565000Y-78521335D01*
X60620147Y-78798574D01*
X60728320Y-79059727D01*
X60885363Y-79294759D01*
X61085241Y-79494637D01*
X61317759Y-79650000D01*
X61085241Y-79805363D01*
X60885363Y-80005241D01*
X60728320Y-80240273D01*
X60620147Y-80501426D01*
X60565000Y-80778665D01*
X60565000Y-81061335D01*
X60620147Y-81338574D01*
X60728320Y-81599727D01*
X60885363Y-81834759D01*
X61085241Y-82034637D01*
X61261167Y-82152187D01*
X61250997Y-82185714D01*
X61245842Y-82238053D01*
X61085241Y-82345363D01*
X60885363Y-82545241D01*
X60728320Y-82780273D01*
X60620147Y-83041426D01*
X60565000Y-83318665D01*
X60565000Y-83601335D01*
X60620147Y-83878574D01*
X60728320Y-84139727D01*
X60885363Y-84374759D01*
X61085241Y-84574637D01*
X61317759Y-84730000D01*
X61085241Y-84885363D01*
X60885363Y-85085241D01*
X60728320Y-85320273D01*
X60620147Y-85581426D01*
X60565000Y-85858665D01*
X60565000Y-86141335D01*
X60620147Y-86418574D01*
X60728320Y-86679727D01*
X60885363Y-86914759D01*
X61085241Y-87114637D01*
X61320273Y-87271680D01*
X61581426Y-87379853D01*
X61858665Y-87435000D01*
X62141335Y-87435000D01*
X62418574Y-87379853D01*
X62679727Y-87271680D01*
X62914759Y-87114637D01*
X63114637Y-86914759D01*
X63240000Y-86727139D01*
X63240000Y-89685198D01*
X63238843Y-89686355D01*
X63131486Y-89665000D01*
X62868514Y-89665000D01*
X62610595Y-89716304D01*
X62367641Y-89816939D01*
X62148987Y-89963038D01*
X61963038Y-90148987D01*
X61816939Y-90367641D01*
X61716304Y-90610595D01*
X61665000Y-90868514D01*
X61665000Y-91131486D01*
X61716304Y-91389405D01*
X61816939Y-91632359D01*
X61963038Y-91851013D01*
X62148987Y-92036962D01*
X62367641Y-92183061D01*
X62610595Y-92283696D01*
X62868514Y-92335000D01*
X63131486Y-92335000D01*
X63389405Y-92283696D01*
X63632359Y-92183061D01*
X63851013Y-92036962D01*
X64036962Y-91851013D01*
X64183061Y-91632359D01*
X64283696Y-91389405D01*
X64335000Y-91131486D01*
X64335000Y-90868514D01*
X64313645Y-90761157D01*
X64511004Y-90563798D01*
X64540001Y-90540001D01*
X64634974Y-90424276D01*
X64705546Y-90292247D01*
X64749003Y-90148986D01*
X64760000Y-90037333D01*
X64760000Y-90037332D01*
X64763677Y-90000000D01*
X64760000Y-89962667D01*
X64760000Y-74718043D01*
X64914759Y-74614637D01*
X65114637Y-74414759D01*
X65271680Y-74179727D01*
X65379853Y-73918574D01*
X65435000Y-73641335D01*
X65435000Y-73358665D01*
X65379853Y-73081426D01*
X65271680Y-72820273D01*
X65114637Y-72585241D01*
X64914759Y-72385363D01*
X64679727Y-72228320D01*
X64418574Y-72120147D01*
X64141335Y-72065000D01*
X64115101Y-72065000D01*
X65511003Y-70669099D01*
X65540001Y-70645301D01*
X65634974Y-70529576D01*
X65705546Y-70397547D01*
X65749003Y-70254286D01*
X65756295Y-70180250D01*
X65851013Y-70116962D01*
X66036962Y-69931013D01*
X66183061Y-69712359D01*
X66283696Y-69469405D01*
X66335000Y-69211486D01*
X66335000Y-68948514D01*
X67665000Y-68948514D01*
X67665000Y-69211486D01*
X67716304Y-69469405D01*
X67816939Y-69712359D01*
X67963038Y-69931013D01*
X68148987Y-70116962D01*
X68367641Y-70263061D01*
X68610595Y-70363696D01*
X68868514Y-70415000D01*
X69131486Y-70415000D01*
X69389405Y-70363696D01*
X69632359Y-70263061D01*
X69851013Y-70116962D01*
X70036962Y-69931013D01*
X70183061Y-69712359D01*
X70283696Y-69469405D01*
X70335000Y-69211486D01*
X70335000Y-68948514D01*
X70283696Y-68690595D01*
X70183061Y-68447641D01*
X70036962Y-68228987D01*
X69851013Y-68043038D01*
X69632359Y-67896939D01*
X69389405Y-67796304D01*
X69131486Y-67745000D01*
X68868514Y-67745000D01*
X68610595Y-67796304D01*
X68367641Y-67896939D01*
X68148987Y-68043038D01*
X67963038Y-68228987D01*
X67816939Y-68447641D01*
X67716304Y-68690595D01*
X67665000Y-68948514D01*
X66335000Y-68948514D01*
X66283696Y-68690595D01*
X66183061Y-68447641D01*
X66036962Y-68228987D01*
X65851013Y-68043038D01*
X65632359Y-67896939D01*
X65389405Y-67796304D01*
X65131486Y-67745000D01*
X64868514Y-67745000D01*
X64610595Y-67796304D01*
X64375773Y-67893571D01*
X62260000Y-65777799D01*
X62260000Y-63868514D01*
X63665000Y-63868514D01*
X63665000Y-64131486D01*
X63716304Y-64389405D01*
X63816939Y-64632359D01*
X63963038Y-64851013D01*
X64148987Y-65036962D01*
X64367641Y-65183061D01*
X64610595Y-65283696D01*
X64868514Y-65335000D01*
X65131486Y-65335000D01*
X65389405Y-65283696D01*
X65632359Y-65183061D01*
X65851013Y-65036962D01*
X66036962Y-64851013D01*
X66183061Y-64632359D01*
X66283696Y-64389405D01*
X66335000Y-64131486D01*
X66335000Y-63868514D01*
X66283696Y-63610595D01*
X66183061Y-63367641D01*
X66036962Y-63148987D01*
X65851013Y-62963038D01*
X65632359Y-62816939D01*
X65389405Y-62716304D01*
X65131486Y-62665000D01*
X64868514Y-62665000D01*
X64610595Y-62716304D01*
X64367641Y-62816939D01*
X64148987Y-62963038D01*
X63963038Y-63148987D01*
X63816939Y-63367641D01*
X63716304Y-63610595D01*
X63665000Y-63868514D01*
X62260000Y-63868514D01*
X62260000Y-55718043D01*
X62414759Y-55614637D01*
X62614637Y-55414759D01*
X62771680Y-55179727D01*
X62879853Y-54918574D01*
X62935000Y-54641335D01*
X62935000Y-54358665D01*
X62879853Y-54081426D01*
X62771680Y-53820273D01*
X62614637Y-53585241D01*
X62414759Y-53385363D01*
X62212173Y-53250000D01*
X62414759Y-53114637D01*
X62614637Y-52914759D01*
X62771680Y-52679727D01*
X62879853Y-52418574D01*
X62935000Y-52141335D01*
X62935000Y-51858665D01*
X65065000Y-51858665D01*
X65065000Y-52141335D01*
X65120147Y-52418574D01*
X65228320Y-52679727D01*
X65385363Y-52914759D01*
X65585241Y-53114637D01*
X65787827Y-53250000D01*
X65585241Y-53385363D01*
X65385363Y-53585241D01*
X65228320Y-53820273D01*
X65120147Y-54081426D01*
X65065000Y-54358665D01*
X65065000Y-54641335D01*
X65120147Y-54918574D01*
X65228320Y-55179727D01*
X65385363Y-55414759D01*
X65585241Y-55614637D01*
X65820273Y-55771680D01*
X66081426Y-55879853D01*
X66358665Y-55935000D01*
X66641335Y-55935000D01*
X66918574Y-55879853D01*
X67179727Y-55771680D01*
X67414759Y-55614637D01*
X67614637Y-55414759D01*
X67771680Y-55179727D01*
X67879853Y-54918574D01*
X67935000Y-54641335D01*
X67935000Y-54509802D01*
X68240001Y-54814803D01*
X68240000Y-62902225D01*
X68148987Y-62963038D01*
X67963038Y-63148987D01*
X67816939Y-63367641D01*
X67716304Y-63610595D01*
X67665000Y-63868514D01*
X67665000Y-64131486D01*
X67716304Y-64389405D01*
X67816939Y-64632359D01*
X67963038Y-64851013D01*
X68148987Y-65036962D01*
X68367641Y-65183061D01*
X68610595Y-65283696D01*
X68868514Y-65335000D01*
X69131486Y-65335000D01*
X69389405Y-65283696D01*
X69632359Y-65183061D01*
X69851013Y-65036962D01*
X70036962Y-64851013D01*
X70183061Y-64632359D01*
X70283696Y-64389405D01*
X70335000Y-64131486D01*
X70335000Y-63868514D01*
X70283696Y-63610595D01*
X70183061Y-63367641D01*
X70036962Y-63148987D01*
X69851013Y-62963038D01*
X69760000Y-62902225D01*
X69760000Y-54537323D01*
X69763676Y-54500000D01*
X69760000Y-54462677D01*
X69760000Y-54462667D01*
X69749003Y-54351014D01*
X69705546Y-54207753D01*
X69646762Y-54097777D01*
X69634974Y-54075723D01*
X69563799Y-53988997D01*
X69540001Y-53959999D01*
X69511003Y-53936201D01*
X67898688Y-52323886D01*
X67935000Y-52141335D01*
X67935000Y-51858665D01*
X67879853Y-51581426D01*
X67771680Y-51320273D01*
X67614637Y-51085241D01*
X67414759Y-50885363D01*
X67179727Y-50728320D01*
X66918574Y-50620147D01*
X66641335Y-50565000D01*
X66358665Y-50565000D01*
X66081426Y-50620147D01*
X65820273Y-50728320D01*
X65585241Y-50885363D01*
X65385363Y-51085241D01*
X65228320Y-51320273D01*
X65120147Y-51581426D01*
X65065000Y-51858665D01*
X62935000Y-51858665D01*
X62879853Y-51581426D01*
X62771680Y-51320273D01*
X62614637Y-51085241D01*
X62414759Y-50885363D01*
X62260000Y-50781957D01*
X62260000Y-42266703D01*
X62629721Y-42113560D01*
X63020349Y-41852550D01*
X63352550Y-41520349D01*
X63613560Y-41129721D01*
X63793346Y-40695679D01*
X63885000Y-40234902D01*
X63885000Y-39765098D01*
X63793346Y-39304321D01*
X63613560Y-38870279D01*
X63352550Y-38479651D01*
X63020349Y-38147450D01*
X62629721Y-37886440D01*
X62195679Y-37706654D01*
X61734902Y-37615000D01*
X61265098Y-37615000D01*
X60804321Y-37706654D01*
X60370279Y-37886440D01*
X59979651Y-38147450D01*
X59647450Y-38479651D01*
X59386440Y-38870279D01*
X59206654Y-39304321D01*
X59115000Y-39765098D01*
X59115000Y-40234902D01*
X59206654Y-40695679D01*
X59386440Y-41129721D01*
X59647450Y-41520349D01*
X59979651Y-41852550D01*
X60370279Y-42113560D01*
X60740000Y-42266703D01*
X60740001Y-50781956D01*
X60585241Y-50885363D01*
X60385363Y-51085241D01*
X60228320Y-51320273D01*
X60120147Y-51581426D01*
X60065000Y-51858665D01*
X60065000Y-52141335D01*
X60120147Y-52418574D01*
X60228320Y-52679727D01*
X60385363Y-52914759D01*
X60585241Y-53114637D01*
X60787827Y-53250000D01*
X60585241Y-53385363D01*
X60385363Y-53585241D01*
X60228320Y-53820273D01*
X60120147Y-54081426D01*
X60065000Y-54358665D01*
X60065000Y-54641335D01*
X60120147Y-54918574D01*
X60228320Y-55179727D01*
X60385363Y-55414759D01*
X60585241Y-55614637D01*
X60740001Y-55718044D01*
X60740000Y-66055278D01*
X60736324Y-66092600D01*
X60740000Y-66129922D01*
X60740000Y-66129932D01*
X60750997Y-66241585D01*
X60788039Y-66363697D01*
X60794454Y-66384846D01*
X60865026Y-66516876D01*
X60902000Y-66561928D01*
X60910969Y-66572857D01*
X60800000Y-66561928D01*
X60694575Y-66561928D01*
X60634974Y-66450424D01*
X60563799Y-66363697D01*
X60540001Y-66334699D01*
X60511003Y-66310901D01*
X59760000Y-65559899D01*
X59760000Y-65097775D01*
X59851013Y-65036962D01*
X60036962Y-64851013D01*
X60183061Y-64632359D01*
X60283696Y-64389405D01*
X60335000Y-64131486D01*
X60335000Y-63868514D01*
X60283696Y-63610595D01*
X60183061Y-63367641D01*
X60036962Y-63148987D01*
X59851013Y-62963038D01*
X59632359Y-62816939D01*
X59389405Y-62716304D01*
X59131486Y-62665000D01*
X58868514Y-62665000D01*
X58610595Y-62716304D01*
X58367641Y-62816939D01*
X58148987Y-62963038D01*
X57963038Y-63148987D01*
X57816939Y-63367641D01*
X57716304Y-63610595D01*
X57665000Y-63868514D01*
X57665000Y-64131486D01*
X57716304Y-64389405D01*
X57816939Y-64632359D01*
X57963038Y-64851013D01*
X58148987Y-65036962D01*
X58240000Y-65097775D01*
X58240000Y-65114700D01*
X54654669Y-65114700D01*
X54771013Y-65036962D01*
X54956962Y-64851013D01*
X55103061Y-64632359D01*
X55203696Y-64389405D01*
X55255000Y-64131486D01*
X55255000Y-63868514D01*
X55203696Y-63610595D01*
X55103061Y-63367641D01*
X54956962Y-63148987D01*
X54771013Y-62963038D01*
X54552359Y-62816939D01*
X54309405Y-62716304D01*
X54051486Y-62665000D01*
X53788514Y-62665000D01*
X53530595Y-62716304D01*
X53287641Y-62816939D01*
X53068987Y-62963038D01*
X52883038Y-63148987D01*
X52736939Y-63367641D01*
X52636304Y-63610595D01*
X52585000Y-63868514D01*
X52585000Y-64131486D01*
X52636304Y-64389405D01*
X52736939Y-64632359D01*
X52883038Y-64851013D01*
X53068987Y-65036962D01*
X53185331Y-65114700D01*
X48734669Y-65114700D01*
X48851013Y-65036962D01*
X49036962Y-64851013D01*
X49183061Y-64632359D01*
X49283696Y-64389405D01*
X49335000Y-64131486D01*
X49335000Y-63868514D01*
X49283696Y-63610595D01*
X49183061Y-63367641D01*
X49036962Y-63148987D01*
X48851013Y-62963038D01*
X48760000Y-62902225D01*
X48760000Y-53537322D01*
X48763676Y-53499999D01*
X48760000Y-53462676D01*
X48760000Y-53462667D01*
X48749003Y-53351014D01*
X48705546Y-53207753D01*
X48634974Y-53075724D01*
X48540001Y-52959999D01*
X48511003Y-52936201D01*
X47898688Y-52323886D01*
X47935000Y-52141335D01*
X47935000Y-51858665D01*
X50065000Y-51858665D01*
X50065000Y-52141335D01*
X50120147Y-52418574D01*
X50228320Y-52679727D01*
X50385363Y-52914759D01*
X50585241Y-53114637D01*
X50787827Y-53250000D01*
X50585241Y-53385363D01*
X50385363Y-53585241D01*
X50228320Y-53820273D01*
X50120147Y-54081426D01*
X50065000Y-54358665D01*
X50065000Y-54641335D01*
X50120147Y-54918574D01*
X50228320Y-55179727D01*
X50385363Y-55414759D01*
X50585241Y-55614637D01*
X50820273Y-55771680D01*
X51081426Y-55879853D01*
X51358665Y-55935000D01*
X51641335Y-55935000D01*
X51918574Y-55879853D01*
X52179727Y-55771680D01*
X52414759Y-55614637D01*
X52614637Y-55414759D01*
X52771680Y-55179727D01*
X52879853Y-54918574D01*
X52935000Y-54641335D01*
X52935000Y-54358665D01*
X52879853Y-54081426D01*
X52771680Y-53820273D01*
X52614637Y-53585241D01*
X52414759Y-53385363D01*
X52212173Y-53250000D01*
X52414759Y-53114637D01*
X52614637Y-52914759D01*
X52771680Y-52679727D01*
X52879853Y-52418574D01*
X52935000Y-52141335D01*
X52935000Y-51858665D01*
X55065000Y-51858665D01*
X55065000Y-52141335D01*
X55120147Y-52418574D01*
X55228320Y-52679727D01*
X55385363Y-52914759D01*
X55585241Y-53114637D01*
X55787827Y-53250000D01*
X55585241Y-53385363D01*
X55385363Y-53585241D01*
X55228320Y-53820273D01*
X55120147Y-54081426D01*
X55065000Y-54358665D01*
X55065000Y-54641335D01*
X55120147Y-54918574D01*
X55228320Y-55179727D01*
X55385363Y-55414759D01*
X55585241Y-55614637D01*
X55820273Y-55771680D01*
X56081426Y-55879853D01*
X56358665Y-55935000D01*
X56641335Y-55935000D01*
X56918574Y-55879853D01*
X57179727Y-55771680D01*
X57414759Y-55614637D01*
X57614637Y-55414759D01*
X57771680Y-55179727D01*
X57879853Y-54918574D01*
X57935000Y-54641335D01*
X57935000Y-54358665D01*
X57879853Y-54081426D01*
X57771680Y-53820273D01*
X57614637Y-53585241D01*
X57414759Y-53385363D01*
X57212173Y-53250000D01*
X57414759Y-53114637D01*
X57614637Y-52914759D01*
X57771680Y-52679727D01*
X57879853Y-52418574D01*
X57935000Y-52141335D01*
X57935000Y-51858665D01*
X57879853Y-51581426D01*
X57771680Y-51320273D01*
X57614637Y-51085241D01*
X57414759Y-50885363D01*
X57179727Y-50728320D01*
X56918574Y-50620147D01*
X56641335Y-50565000D01*
X56358665Y-50565000D01*
X56081426Y-50620147D01*
X55820273Y-50728320D01*
X55585241Y-50885363D01*
X55385363Y-51085241D01*
X55228320Y-51320273D01*
X55120147Y-51581426D01*
X55065000Y-51858665D01*
X52935000Y-51858665D01*
X52879853Y-51581426D01*
X52771680Y-51320273D01*
X52614637Y-51085241D01*
X52414759Y-50885363D01*
X52179727Y-50728320D01*
X51918574Y-50620147D01*
X51641335Y-50565000D01*
X51358665Y-50565000D01*
X51081426Y-50620147D01*
X50820273Y-50728320D01*
X50585241Y-50885363D01*
X50385363Y-51085241D01*
X50228320Y-51320273D01*
X50120147Y-51581426D01*
X50065000Y-51858665D01*
X47935000Y-51858665D01*
X47879853Y-51581426D01*
X47771680Y-51320273D01*
X47614637Y-51085241D01*
X47414759Y-50885363D01*
X47179727Y-50728320D01*
X46944086Y-50630715D01*
X55434599Y-42140202D01*
X55804321Y-42293346D01*
X56265098Y-42385000D01*
X56734902Y-42385000D01*
X57195679Y-42293346D01*
X57629721Y-42113560D01*
X58020349Y-41852550D01*
X58352550Y-41520349D01*
X58613560Y-41129721D01*
X58793346Y-40695679D01*
X58885000Y-40234902D01*
X58885000Y-39765098D01*
X58793346Y-39304321D01*
X58613560Y-38870279D01*
X58352550Y-38479651D01*
X58020349Y-38147450D01*
X57629721Y-37886440D01*
X57195679Y-37706654D01*
X56734902Y-37615000D01*
X56265098Y-37615000D01*
X55804321Y-37706654D01*
X55370279Y-37886440D01*
X54979651Y-38147450D01*
X54647450Y-38479651D01*
X54386440Y-38870279D01*
X54206654Y-39304321D01*
X54115000Y-39765098D01*
X54115000Y-40234902D01*
X54206654Y-40695679D01*
X54359798Y-41065401D01*
X44823098Y-50602101D01*
X44794100Y-50625899D01*
X44770302Y-50654897D01*
X44770301Y-50654898D01*
X44699126Y-50741624D01*
X44628554Y-50873654D01*
X44585098Y-51016915D01*
X44570424Y-51165900D01*
X44574101Y-51203232D01*
X44574100Y-53296777D01*
X44570424Y-53334100D01*
X44574100Y-53371422D01*
X44574100Y-53371432D01*
X44585097Y-53483085D01*
X44616085Y-53585241D01*
X44628554Y-53626346D01*
X44699126Y-53758376D01*
X44726923Y-53792246D01*
X44794099Y-53874101D01*
X44823103Y-53897904D01*
X45101312Y-54176114D01*
X45065000Y-54358665D01*
X45065000Y-54641335D01*
X45120147Y-54918574D01*
X45228320Y-55179727D01*
X45385363Y-55414759D01*
X45585241Y-55614637D01*
X45820273Y-55771680D01*
X46081426Y-55879853D01*
X46358665Y-55935000D01*
X46641335Y-55935000D01*
X46918574Y-55879853D01*
X47179727Y-55771680D01*
X47240001Y-55731406D01*
X47240000Y-62902225D01*
X47148987Y-62963038D01*
X46963038Y-63148987D01*
X46816939Y-63367641D01*
X46716304Y-63610595D01*
X46665000Y-63868514D01*
X46665000Y-64131486D01*
X46716304Y-64389405D01*
X46816939Y-64632359D01*
X46963038Y-64851013D01*
X47148987Y-65036962D01*
X47265331Y-65114700D01*
X47162625Y-65114700D01*
X47125300Y-65111024D01*
X47087975Y-65114700D01*
X47087967Y-65114700D01*
X46976314Y-65125697D01*
X46833053Y-65169154D01*
X46701024Y-65239726D01*
X46585299Y-65334699D01*
X46561501Y-65363697D01*
X44238844Y-67686355D01*
X44131486Y-67665000D01*
X43868514Y-67665000D01*
X43610595Y-67716304D01*
X43367641Y-67816939D01*
X43148987Y-67963038D01*
X42963038Y-68148987D01*
X42816939Y-68367641D01*
X42716304Y-68610595D01*
X42665000Y-68868514D01*
X38185000Y-68868514D01*
X38185000Y-63788514D01*
X42665000Y-63788514D01*
X42665000Y-64051486D01*
X42716304Y-64309405D01*
X42816939Y-64552359D01*
X42963038Y-64771013D01*
X43148987Y-64956962D01*
X43367641Y-65103061D01*
X43610595Y-65203696D01*
X43868514Y-65255000D01*
X44131486Y-65255000D01*
X44389405Y-65203696D01*
X44632359Y-65103061D01*
X44851013Y-64956962D01*
X45036962Y-64771013D01*
X45183061Y-64552359D01*
X45283696Y-64309405D01*
X45335000Y-64051486D01*
X45335000Y-63788514D01*
X45283696Y-63530595D01*
X45183061Y-63287641D01*
X45036962Y-63068987D01*
X44851013Y-62883038D01*
X44632359Y-62736939D01*
X44389405Y-62636304D01*
X44131486Y-62585000D01*
X43868514Y-62585000D01*
X43610595Y-62636304D01*
X43367641Y-62736939D01*
X43148987Y-62883038D01*
X42963038Y-63068987D01*
X42816939Y-63287641D01*
X42716304Y-63530595D01*
X42665000Y-63788514D01*
X38185000Y-63788514D01*
X38185000Y-39765098D01*
X49115000Y-39765098D01*
X49115000Y-40234902D01*
X49206654Y-40695679D01*
X49386440Y-41129721D01*
X49647450Y-41520349D01*
X49979651Y-41852550D01*
X50370279Y-42113560D01*
X50804321Y-42293346D01*
X51265098Y-42385000D01*
X51734902Y-42385000D01*
X52195679Y-42293346D01*
X52629721Y-42113560D01*
X53020349Y-41852550D01*
X53352550Y-41520349D01*
X53613560Y-41129721D01*
X53793346Y-40695679D01*
X53885000Y-40234902D01*
X53885000Y-39765098D01*
X53793346Y-39304321D01*
X53613560Y-38870279D01*
X53352550Y-38479651D01*
X53020349Y-38147450D01*
X52629721Y-37886440D01*
X52195679Y-37706654D01*
X51734902Y-37615000D01*
X51265098Y-37615000D01*
X50804321Y-37706654D01*
X50370279Y-37886440D01*
X49979651Y-38147450D01*
X49647450Y-38479651D01*
X49386440Y-38870279D01*
X49206654Y-39304321D01*
X49115000Y-39765098D01*
X38185000Y-39765098D01*
X38185000Y-33185000D01*
X74315000Y-33185000D01*
X74315001Y-129315000D01*
G37*
%TD.AperFunction*%
%TD*%
M02*
