%TF.GenerationSoftware,KiCad,Pcbnew,5.1.10*%
%TF.CreationDate,2021-07-20T18:15:19+02:00*%
%TF.ProjectId,double-gain,646f7562-6c65-42d6-9761-696e2e6b6963,rev?*%
%TF.SameCoordinates,Original*%
%TF.FileFunction,Soldermask,Bot*%
%TF.FilePolarity,Negative*%
%FSLAX46Y46*%
G04 Gerber Fmt 4.6, Leading zero omitted, Abs format (unit mm)*
G04 Created by KiCad (PCBNEW 5.1.10) date 2021-07-20 18:15:19*
%MOMM*%
%LPD*%
G01*
G04 APERTURE LIST*
%ADD10C,1.600000*%
%ADD11O,1.600000X1.600000*%
%ADD12R,1.600000X1.600000*%
%ADD13C,3.500000*%
%ADD14O,1.400000X1.400000*%
%ADD15C,1.400000*%
G04 APERTURE END LIST*
D10*
%TO.C,C1*%
X61500000Y-52000000D03*
X61500000Y-54500000D03*
%TD*%
%TO.C,C2*%
X56500000Y-54500000D03*
X56500000Y-52000000D03*
%TD*%
%TO.C,C3*%
X51500000Y-52000000D03*
X51500000Y-54500000D03*
%TD*%
%TO.C,C4*%
X46500000Y-54500000D03*
X46500000Y-52000000D03*
%TD*%
%TO.C,C5*%
X66500000Y-52000000D03*
X66500000Y-54500000D03*
%TD*%
%TO.C,C8*%
X57500000Y-113000000D03*
X55000000Y-113000000D03*
%TD*%
D11*
%TO.C,D1*%
X52380000Y-68000000D03*
D12*
X60000000Y-68000000D03*
%TD*%
%TO.C,D4*%
X46380000Y-98000000D03*
D11*
X54000000Y-98000000D03*
%TD*%
D12*
%TO.C,D5*%
X59000000Y-98000000D03*
D11*
X66620000Y-98000000D03*
%TD*%
D13*
%TO.C,J7*%
X42500000Y-125000000D03*
%TD*%
%TO.C,J8*%
X70000000Y-37500000D03*
%TD*%
%TO.C,J9*%
X42500000Y-37500000D03*
%TD*%
%TO.C,J10*%
X70000000Y-125000000D03*
%TD*%
D14*
%TO.C,R1*%
X65000000Y-69080000D03*
D15*
X65000000Y-64000000D03*
%TD*%
D14*
%TO.C,R11*%
X49250000Y-84750000D03*
D15*
X49250000Y-79670000D03*
%TD*%
%TO.C,R5*%
X44000000Y-69000000D03*
D14*
X44000000Y-63920000D03*
%TD*%
%TO.C,R6*%
X53920000Y-64000000D03*
D15*
X59000000Y-64000000D03*
%TD*%
%TO.C,R7*%
X48000000Y-64000000D03*
D14*
X48000000Y-69080000D03*
%TD*%
%TO.C,R2*%
X54500000Y-108000000D03*
D15*
X49420000Y-108000000D03*
%TD*%
D14*
%TO.C,R4*%
X46500000Y-110080000D03*
D15*
X46500000Y-105000000D03*
%TD*%
%TO.C,R8*%
X69000000Y-64000000D03*
D14*
X69000000Y-69080000D03*
%TD*%
D15*
%TO.C,R9*%
X44420000Y-91000000D03*
D14*
X49500000Y-91000000D03*
%TD*%
D15*
%TO.C,R10*%
X62580000Y-108000000D03*
D14*
X57500000Y-108000000D03*
%TD*%
D11*
%TO.C,D2*%
X54120000Y-102000000D03*
D12*
X46500000Y-102000000D03*
%TD*%
%TO.C,D3*%
X59000000Y-102000000D03*
D11*
X66620000Y-102000000D03*
%TD*%
D15*
%TO.C,R3*%
X66500000Y-104500000D03*
D14*
X66500000Y-109580000D03*
%TD*%
D15*
%TO.C,R12*%
X63000000Y-91000000D03*
D14*
X68080000Y-91000000D03*
%TD*%
%TO.C,R13*%
X64000000Y-84500000D03*
D15*
X64000000Y-79420000D03*
%TD*%
D10*
%TO.C,C6*%
X45000000Y-83000000D03*
X45000000Y-80500000D03*
%TD*%
%TO.C,C9*%
X68250000Y-80500000D03*
X68250000Y-83000000D03*
%TD*%
D12*
%TO.C,C7*%
X45500000Y-74500000D03*
D10*
X49000000Y-74500000D03*
%TD*%
%TO.C,C10*%
X65000000Y-74500000D03*
D12*
X68500000Y-74500000D03*
%TD*%
D13*
%TO.C,J1*%
X56000000Y-40000000D03*
%TD*%
%TO.C,J2*%
X66000000Y-118750000D03*
%TD*%
%TO.C,J3*%
X51000000Y-40000000D03*
%TD*%
%TO.C,J4*%
X55750000Y-118750000D03*
%TD*%
%TO.C,J5*%
X46000000Y-118750000D03*
%TD*%
%TO.C,J6*%
X61500000Y-40000000D03*
%TD*%
D12*
%TO.C,U1*%
X52750000Y-78000000D03*
D11*
X60370000Y-85620000D03*
X52750000Y-80540000D03*
X60370000Y-83080000D03*
X52750000Y-83080000D03*
X60370000Y-80540000D03*
X52750000Y-85620000D03*
X60370000Y-78000000D03*
%TD*%
M02*
