%TF.GenerationSoftware,KiCad,Pcbnew,5.1.10*%
%TF.CreationDate,2021-06-18T11:39:53+02:00*%
%TF.ProjectId,double-gain,646f7562-6c65-42d6-9761-696e2e6b6963,rev?*%
%TF.SameCoordinates,Original*%
%TF.FileFunction,Legend,Top*%
%TF.FilePolarity,Positive*%
%FSLAX46Y46*%
G04 Gerber Fmt 4.6, Leading zero omitted, Abs format (unit mm)*
G04 Created by KiCad (PCBNEW 5.1.10) date 2021-06-18 11:39:53*
%MOMM*%
%LPD*%
G01*
G04 APERTURE LIST*
%ADD10C,0.150000*%
%ADD11C,0.300000*%
%ADD12C,0.120000*%
G04 APERTURE END LIST*
D10*
X49285714Y-126357142D02*
X49238095Y-126404761D01*
X49095238Y-126452380D01*
X49000000Y-126452380D01*
X48857142Y-126404761D01*
X48761904Y-126309523D01*
X48714285Y-126214285D01*
X48666666Y-126023809D01*
X48666666Y-125880952D01*
X48714285Y-125690476D01*
X48761904Y-125595238D01*
X48857142Y-125500000D01*
X49000000Y-125452380D01*
X49095238Y-125452380D01*
X49238095Y-125500000D01*
X49285714Y-125547619D01*
X50285714Y-126357142D02*
X50238095Y-126404761D01*
X50095238Y-126452380D01*
X50000000Y-126452380D01*
X49857142Y-126404761D01*
X49761904Y-126309523D01*
X49714285Y-126214285D01*
X49666666Y-126023809D01*
X49666666Y-125880952D01*
X49714285Y-125690476D01*
X49761904Y-125595238D01*
X49857142Y-125500000D01*
X50000000Y-125452380D01*
X50095238Y-125452380D01*
X50238095Y-125500000D01*
X50285714Y-125547619D01*
X50714285Y-126071428D02*
X51476190Y-126071428D01*
X52285714Y-125928571D02*
X52428571Y-125976190D01*
X52476190Y-126023809D01*
X52523809Y-126119047D01*
X52523809Y-126261904D01*
X52476190Y-126357142D01*
X52428571Y-126404761D01*
X52333333Y-126452380D01*
X51952380Y-126452380D01*
X51952380Y-125452380D01*
X52285714Y-125452380D01*
X52380952Y-125500000D01*
X52428571Y-125547619D01*
X52476190Y-125642857D01*
X52476190Y-125738095D01*
X52428571Y-125833333D01*
X52380952Y-125880952D01*
X52285714Y-125928571D01*
X51952380Y-125928571D01*
X53142857Y-125976190D02*
X53142857Y-126452380D01*
X52809523Y-125452380D02*
X53142857Y-125976190D01*
X53476190Y-125452380D01*
X53809523Y-126071428D02*
X54571428Y-126071428D01*
X55476190Y-125785714D02*
X55476190Y-126452380D01*
X55238095Y-125404761D02*
X55000000Y-126119047D01*
X55619047Y-126119047D01*
X56000000Y-126357142D02*
X56047619Y-126404761D01*
X56000000Y-126452380D01*
X55952380Y-126404761D01*
X56000000Y-126357142D01*
X56000000Y-126452380D01*
X56666666Y-125452380D02*
X56761904Y-125452380D01*
X56857142Y-125500000D01*
X56904761Y-125547619D01*
X56952380Y-125642857D01*
X57000000Y-125833333D01*
X57000000Y-126071428D01*
X56952380Y-126261904D01*
X56904761Y-126357142D01*
X56857142Y-126404761D01*
X56761904Y-126452380D01*
X56666666Y-126452380D01*
X56571428Y-126404761D01*
X56523809Y-126357142D01*
X56476190Y-126261904D01*
X56428571Y-126071428D01*
X56428571Y-125833333D01*
X56476190Y-125642857D01*
X56523809Y-125547619D01*
X56571428Y-125500000D01*
X56666666Y-125452380D01*
X58666666Y-126452380D02*
X58190476Y-126452380D01*
X58190476Y-125452380D01*
X59000000Y-126452380D02*
X59000000Y-125785714D01*
X59000000Y-125452380D02*
X58952380Y-125500000D01*
X59000000Y-125547619D01*
X59047619Y-125500000D01*
X59000000Y-125452380D01*
X59000000Y-125547619D01*
X59904761Y-126404761D02*
X59809523Y-126452380D01*
X59619047Y-126452380D01*
X59523809Y-126404761D01*
X59476190Y-126357142D01*
X59428571Y-126261904D01*
X59428571Y-125976190D01*
X59476190Y-125880952D01*
X59523809Y-125833333D01*
X59619047Y-125785714D01*
X59809523Y-125785714D01*
X59904761Y-125833333D01*
X60714285Y-126404761D02*
X60619047Y-126452380D01*
X60428571Y-126452380D01*
X60333333Y-126404761D01*
X60285714Y-126309523D01*
X60285714Y-125928571D01*
X60333333Y-125833333D01*
X60428571Y-125785714D01*
X60619047Y-125785714D01*
X60714285Y-125833333D01*
X60761904Y-125928571D01*
X60761904Y-126023809D01*
X60285714Y-126119047D01*
X61190476Y-125785714D02*
X61190476Y-126452380D01*
X61190476Y-125880952D02*
X61238095Y-125833333D01*
X61333333Y-125785714D01*
X61476190Y-125785714D01*
X61571428Y-125833333D01*
X61619047Y-125928571D01*
X61619047Y-126452380D01*
X62047619Y-126404761D02*
X62142857Y-126452380D01*
X62333333Y-126452380D01*
X62428571Y-126404761D01*
X62476190Y-126309523D01*
X62476190Y-126261904D01*
X62428571Y-126166666D01*
X62333333Y-126119047D01*
X62190476Y-126119047D01*
X62095238Y-126071428D01*
X62047619Y-125976190D01*
X62047619Y-125928571D01*
X62095238Y-125833333D01*
X62190476Y-125785714D01*
X62333333Y-125785714D01*
X62428571Y-125833333D01*
X63285714Y-126404761D02*
X63190476Y-126452380D01*
X63000000Y-126452380D01*
X62904761Y-126404761D01*
X62857142Y-126309523D01*
X62857142Y-125928571D01*
X62904761Y-125833333D01*
X63000000Y-125785714D01*
X63190476Y-125785714D01*
X63285714Y-125833333D01*
X63333333Y-125928571D01*
X63333333Y-126023809D01*
X62857142Y-126119047D01*
D11*
X41178571Y-116999999D02*
X40464285Y-117499999D01*
X41178571Y-117857142D02*
X39678571Y-117857142D01*
X39678571Y-117285714D01*
X39750000Y-117142857D01*
X39821428Y-117071428D01*
X39964285Y-116999999D01*
X40178571Y-116999999D01*
X40321428Y-117071428D01*
X40392857Y-117142857D01*
X40464285Y-117285714D01*
X40464285Y-117857142D01*
X39821428Y-116428571D02*
X39750000Y-116357142D01*
X39678571Y-116214285D01*
X39678571Y-115857142D01*
X39750000Y-115714285D01*
X39821428Y-115642857D01*
X39964285Y-115571428D01*
X40107142Y-115571428D01*
X40321428Y-115642857D01*
X41178571Y-116499999D01*
X41178571Y-115571428D01*
X39750000Y-112999999D02*
X39678571Y-113142857D01*
X39678571Y-113357142D01*
X39750000Y-113571428D01*
X39892857Y-113714285D01*
X40035714Y-113785714D01*
X40321428Y-113857142D01*
X40535714Y-113857142D01*
X40821428Y-113785714D01*
X40964285Y-113714285D01*
X41107142Y-113571428D01*
X41178571Y-113357142D01*
X41178571Y-113214285D01*
X41107142Y-112999999D01*
X41035714Y-112928571D01*
X40535714Y-112928571D01*
X40535714Y-113214285D01*
X41178571Y-111642857D02*
X40392857Y-111642857D01*
X40250000Y-111714285D01*
X40178571Y-111857142D01*
X40178571Y-112142857D01*
X40250000Y-112285714D01*
X41107142Y-111642857D02*
X41178571Y-111785714D01*
X41178571Y-112142857D01*
X41107142Y-112285714D01*
X40964285Y-112357142D01*
X40821428Y-112357142D01*
X40678571Y-112285714D01*
X40607142Y-112142857D01*
X40607142Y-111785714D01*
X40535714Y-111642857D01*
X41178571Y-110928571D02*
X40178571Y-110928571D01*
X39678571Y-110928571D02*
X39750000Y-110999999D01*
X39821428Y-110928571D01*
X39750000Y-110857142D01*
X39678571Y-110928571D01*
X39821428Y-110928571D01*
X40178571Y-110214285D02*
X41178571Y-110214285D01*
X40321428Y-110214285D02*
X40250000Y-110142857D01*
X40178571Y-109999999D01*
X40178571Y-109785714D01*
X40250000Y-109642857D01*
X40392857Y-109571428D01*
X41178571Y-109571428D01*
X40178571Y-107857142D02*
X41178571Y-107499999D01*
X40178571Y-107142857D01*
X41178571Y-105928571D02*
X40392857Y-105928571D01*
X40250000Y-105999999D01*
X40178571Y-106142857D01*
X40178571Y-106428571D01*
X40250000Y-106571428D01*
X41107142Y-105928571D02*
X41178571Y-106071428D01*
X41178571Y-106428571D01*
X41107142Y-106571428D01*
X40964285Y-106642857D01*
X40821428Y-106642857D01*
X40678571Y-106571428D01*
X40607142Y-106428571D01*
X40607142Y-106071428D01*
X40535714Y-105928571D01*
X41178571Y-104999999D02*
X41107142Y-105142857D01*
X40964285Y-105214285D01*
X39678571Y-105214285D01*
X40178571Y-103785714D02*
X41178571Y-103785714D01*
X40178571Y-104428571D02*
X40964285Y-104428571D01*
X41107142Y-104357142D01*
X41178571Y-104214285D01*
X41178571Y-103999999D01*
X41107142Y-103857142D01*
X41035714Y-103785714D01*
X41107142Y-102499999D02*
X41178571Y-102642857D01*
X41178571Y-102928571D01*
X41107142Y-103071428D01*
X40964285Y-103142857D01*
X40392857Y-103142857D01*
X40250000Y-103071428D01*
X40178571Y-102928571D01*
X40178571Y-102642857D01*
X40250000Y-102499999D01*
X40392857Y-102428571D01*
X40535714Y-102428571D01*
X40678571Y-103142857D01*
X41107142Y-101857142D02*
X41178571Y-101714285D01*
X41178571Y-101428571D01*
X41107142Y-101285714D01*
X40964285Y-101214285D01*
X40892857Y-101214285D01*
X40750000Y-101285714D01*
X40678571Y-101428571D01*
X40678571Y-101642857D01*
X40607142Y-101785714D01*
X40464285Y-101857142D01*
X40392857Y-101857142D01*
X40250000Y-101785714D01*
X40178571Y-101642857D01*
X40178571Y-101428571D01*
X40250000Y-101285714D01*
X41178571Y-99428571D02*
X40178571Y-99428571D01*
X39678571Y-99428571D02*
X39750000Y-99499999D01*
X39821428Y-99428571D01*
X39750000Y-99357142D01*
X39678571Y-99428571D01*
X39821428Y-99428571D01*
X40178571Y-98714285D02*
X41178571Y-98714285D01*
X40321428Y-98714285D02*
X40250000Y-98642857D01*
X40178571Y-98499999D01*
X40178571Y-98285714D01*
X40250000Y-98142857D01*
X40392857Y-98071428D01*
X41178571Y-98071428D01*
X41178571Y-95571428D02*
X39678571Y-95571428D01*
X41107142Y-95571428D02*
X41178571Y-95714285D01*
X41178571Y-95999999D01*
X41107142Y-96142857D01*
X41035714Y-96214285D01*
X40892857Y-96285714D01*
X40464285Y-96285714D01*
X40321428Y-96214285D01*
X40250000Y-96142857D01*
X40178571Y-95999999D01*
X40178571Y-95714285D01*
X40250000Y-95571428D01*
X40392857Y-94357142D02*
X40464285Y-94142857D01*
X40535714Y-94071428D01*
X40678571Y-93999999D01*
X40892857Y-93999999D01*
X41035714Y-94071428D01*
X41107142Y-94142857D01*
X41178571Y-94285714D01*
X41178571Y-94857142D01*
X39678571Y-94857142D01*
X39678571Y-94357142D01*
X39750000Y-94214285D01*
X39821428Y-94142857D01*
X39964285Y-94071428D01*
X40107142Y-94071428D01*
X40250000Y-94142857D01*
X40321428Y-94214285D01*
X40392857Y-94357142D01*
X40392857Y-94857142D01*
X41035714Y-93357142D02*
X41107142Y-93285714D01*
X41178571Y-93357142D01*
X41107142Y-93428571D01*
X41035714Y-93357142D01*
X41178571Y-93357142D01*
X40250000Y-93357142D02*
X40321428Y-93285714D01*
X40392857Y-93357142D01*
X40321428Y-93428571D01*
X40250000Y-93357142D01*
X40392857Y-93357142D01*
X39821428Y-92714285D02*
X39750000Y-92642857D01*
X39678571Y-92499999D01*
X39678571Y-92142857D01*
X39750000Y-91999999D01*
X39821428Y-91928571D01*
X39964285Y-91857142D01*
X40107142Y-91857142D01*
X40321428Y-91928571D01*
X41178571Y-92785714D01*
X41178571Y-91857142D01*
X39678571Y-90928571D02*
X39678571Y-90785714D01*
X39750000Y-90642857D01*
X39821428Y-90571428D01*
X39964285Y-90499999D01*
X40250000Y-90428571D01*
X40607142Y-90428571D01*
X40892857Y-90499999D01*
X41035714Y-90571428D01*
X41107142Y-90642857D01*
X41178571Y-90785714D01*
X41178571Y-90928571D01*
X41107142Y-91071428D01*
X41035714Y-91142857D01*
X40892857Y-91214285D01*
X40607142Y-91285714D01*
X40250000Y-91285714D01*
X39964285Y-91214285D01*
X39821428Y-91142857D01*
X39750000Y-91071428D01*
X39678571Y-90928571D01*
X41178571Y-89785714D02*
X39678571Y-89785714D01*
X41178571Y-88928571D02*
X40321428Y-89571428D01*
X39678571Y-88928571D02*
X40535714Y-89785714D01*
X40392857Y-88285714D02*
X40392857Y-87142857D01*
X40821428Y-87142857D02*
X40821428Y-88285714D01*
X39821428Y-86499999D02*
X39750000Y-86428571D01*
X39678571Y-86285714D01*
X39678571Y-85928571D01*
X39750000Y-85785714D01*
X39821428Y-85714285D01*
X39964285Y-85642857D01*
X40107142Y-85642857D01*
X40321428Y-85714285D01*
X41178571Y-86571428D01*
X41178571Y-85642857D01*
X39678571Y-84357142D02*
X39678571Y-84642857D01*
X39750000Y-84785714D01*
X39821428Y-84857142D01*
X40035714Y-84999999D01*
X40321428Y-85071428D01*
X40892857Y-85071428D01*
X41035714Y-84999999D01*
X41107142Y-84928571D01*
X41178571Y-84785714D01*
X41178571Y-84499999D01*
X41107142Y-84357142D01*
X41035714Y-84285714D01*
X40892857Y-84214285D01*
X40535714Y-84214285D01*
X40392857Y-84285714D01*
X40321428Y-84357142D01*
X40250000Y-84499999D01*
X40250000Y-84785714D01*
X40321428Y-84928571D01*
X40392857Y-84999999D01*
X40535714Y-85071428D01*
X41107142Y-83500000D02*
X41178571Y-83500000D01*
X41321428Y-83571428D01*
X41392857Y-83642857D01*
X39678571Y-82999999D02*
X39678571Y-82071428D01*
X40250000Y-82571428D01*
X40250000Y-82357142D01*
X40321428Y-82214285D01*
X40392857Y-82142857D01*
X40535714Y-82071428D01*
X40892857Y-82071428D01*
X41035714Y-82142857D01*
X41107142Y-82214285D01*
X41178571Y-82357142D01*
X41178571Y-82785714D01*
X41107142Y-82928571D01*
X41035714Y-82999999D01*
X39678571Y-81142857D02*
X39678571Y-80999999D01*
X39750000Y-80857142D01*
X39821428Y-80785714D01*
X39964285Y-80714285D01*
X40250000Y-80642857D01*
X40607142Y-80642857D01*
X40892857Y-80714285D01*
X41035714Y-80785714D01*
X41107142Y-80857142D01*
X41178571Y-81000000D01*
X41178571Y-81142857D01*
X41107142Y-81285714D01*
X41035714Y-81357142D01*
X40892857Y-81428571D01*
X40607142Y-81500000D01*
X40250000Y-81499999D01*
X39964285Y-81428571D01*
X39821428Y-81357142D01*
X39750000Y-81285714D01*
X39678571Y-81142857D01*
X41178571Y-80000000D02*
X39678571Y-80000000D01*
X41178571Y-79142857D02*
X40321428Y-79785714D01*
X39678571Y-79142857D02*
X40535714Y-80000000D01*
X40392857Y-78500000D02*
X40392857Y-77357142D01*
X40821428Y-77357142D02*
X40821428Y-78500000D01*
X39821428Y-76714285D02*
X39750000Y-76642857D01*
X39678571Y-76500000D01*
X39678571Y-76142857D01*
X39750000Y-76000000D01*
X39821428Y-75928571D01*
X39964285Y-75857142D01*
X40107142Y-75857142D01*
X40321428Y-75928571D01*
X41178571Y-76785714D01*
X41178571Y-75857142D01*
X41178571Y-75142857D02*
X41178571Y-74857142D01*
X41107142Y-74714285D01*
X41035714Y-74642857D01*
X40821428Y-74500000D01*
X40535714Y-74428571D01*
X39964285Y-74428571D01*
X39821428Y-74500000D01*
X39750000Y-74571428D01*
X39678571Y-74714285D01*
X39678571Y-75000000D01*
X39750000Y-75142857D01*
X39821428Y-75214285D01*
X39964285Y-75285714D01*
X40321428Y-75285714D01*
X40464285Y-75214285D01*
X40535714Y-75142857D01*
X40607142Y-75000000D01*
X40607142Y-74714285D01*
X40535714Y-74571428D01*
X40464285Y-74500000D01*
X40321428Y-74428571D01*
X41107142Y-73714285D02*
X41178571Y-73714285D01*
X41321428Y-73785714D01*
X41392857Y-73857142D01*
X40178571Y-72428571D02*
X41178571Y-72428571D01*
X39607142Y-72785714D02*
X40678571Y-73142857D01*
X40678571Y-72214285D01*
X39678571Y-71357142D02*
X39678571Y-71214285D01*
X39750000Y-71071428D01*
X39821428Y-71000000D01*
X39964285Y-70928571D01*
X40250000Y-70857142D01*
X40607142Y-70857142D01*
X40892857Y-70928571D01*
X41035714Y-71000000D01*
X41107142Y-71071428D01*
X41178571Y-71214285D01*
X41178571Y-71357142D01*
X41107142Y-71500000D01*
X41035714Y-71571428D01*
X40892857Y-71642857D01*
X40607142Y-71714285D01*
X40250000Y-71714285D01*
X39964285Y-71642857D01*
X39821428Y-71571428D01*
X39750000Y-71500000D01*
X39678571Y-71357142D01*
X41178571Y-70214285D02*
X39678571Y-70214285D01*
X41178571Y-69357142D02*
X40321428Y-70000000D01*
X39678571Y-69357142D02*
X40535714Y-70214285D01*
X40392857Y-68714285D02*
X40392857Y-67571428D01*
X40821428Y-67571428D02*
X40821428Y-68714285D01*
X39678571Y-67000000D02*
X39678571Y-66071428D01*
X40250000Y-66571428D01*
X40250000Y-66357142D01*
X40321428Y-66214285D01*
X40392857Y-66142857D01*
X40535714Y-66071428D01*
X40892857Y-66071428D01*
X41035714Y-66142857D01*
X41107142Y-66214285D01*
X41178571Y-66357142D01*
X41178571Y-66785714D01*
X41107142Y-66928571D01*
X41035714Y-67000000D01*
X39821428Y-65500000D02*
X39750000Y-65428571D01*
X39678571Y-65285714D01*
X39678571Y-64928571D01*
X39750000Y-64785714D01*
X39821428Y-64714285D01*
X39964285Y-64642857D01*
X40107142Y-64642857D01*
X40321428Y-64714285D01*
X41178571Y-65571428D01*
X41178571Y-64642857D01*
X41107142Y-63928571D02*
X41178571Y-63928571D01*
X41321428Y-64000000D01*
X41392857Y-64071428D01*
X39678571Y-62571428D02*
X39678571Y-63285714D01*
X40392857Y-63357142D01*
X40321428Y-63285714D01*
X40250000Y-63142857D01*
X40250000Y-62785714D01*
X40321428Y-62642857D01*
X40392857Y-62571428D01*
X40535714Y-62500000D01*
X40892857Y-62500000D01*
X41035714Y-62571428D01*
X41107142Y-62642857D01*
X41178571Y-62785714D01*
X41178571Y-63142857D01*
X41107142Y-63285714D01*
X41035714Y-63357142D01*
X39678571Y-61571428D02*
X39678571Y-61428571D01*
X39750000Y-61285714D01*
X39821428Y-61214285D01*
X39964285Y-61142857D01*
X40250000Y-61071428D01*
X40607142Y-61071428D01*
X40892857Y-61142857D01*
X41035714Y-61214285D01*
X41107142Y-61285714D01*
X41178571Y-61428571D01*
X41178571Y-61571428D01*
X41107142Y-61714285D01*
X41035714Y-61785714D01*
X40892857Y-61857142D01*
X40607142Y-61928571D01*
X40250000Y-61928571D01*
X39964285Y-61857142D01*
X39821428Y-61785714D01*
X39750000Y-61714285D01*
X39678571Y-61571428D01*
X41178571Y-60428571D02*
X39678571Y-60428571D01*
X41178571Y-59571428D02*
X40321428Y-60214285D01*
X39678571Y-59571428D02*
X40535714Y-60428571D01*
X40392857Y-58928571D02*
X40392857Y-57785714D01*
X40821428Y-57785714D02*
X40821428Y-58928571D01*
X39678571Y-57214285D02*
X39678571Y-56285714D01*
X40250000Y-56785714D01*
X40250000Y-56571428D01*
X40321428Y-56428571D01*
X40392857Y-56357142D01*
X40535714Y-56285714D01*
X40892857Y-56285714D01*
X41035714Y-56357142D01*
X41107142Y-56428571D01*
X41178571Y-56571428D01*
X41178571Y-57000000D01*
X41107142Y-57142857D01*
X41035714Y-57214285D01*
X40178571Y-55000000D02*
X41178571Y-55000000D01*
X39607142Y-55357142D02*
X40678571Y-55714285D01*
X40678571Y-54785714D01*
X41107142Y-54142857D02*
X41178571Y-54142857D01*
X41321428Y-54214285D01*
X41392857Y-54285714D01*
X39678571Y-52857142D02*
X39678571Y-53142857D01*
X39750000Y-53285714D01*
X39821428Y-53357142D01*
X40035714Y-53500000D01*
X40321428Y-53571428D01*
X40892857Y-53571428D01*
X41035714Y-53500000D01*
X41107142Y-53428571D01*
X41178571Y-53285714D01*
X41178571Y-53000000D01*
X41107142Y-52857142D01*
X41035714Y-52785714D01*
X40892857Y-52714285D01*
X40535714Y-52714285D01*
X40392857Y-52785714D01*
X40321428Y-52857142D01*
X40250000Y-53000000D01*
X40250000Y-53285714D01*
X40321428Y-53428571D01*
X40392857Y-53500000D01*
X40535714Y-53571428D01*
X39678571Y-51785714D02*
X39678571Y-51642857D01*
X39750000Y-51500000D01*
X39821428Y-51428571D01*
X39964285Y-51357142D01*
X40250000Y-51285714D01*
X40607142Y-51285714D01*
X40892857Y-51357142D01*
X41035714Y-51428571D01*
X41107142Y-51500000D01*
X41178571Y-51642857D01*
X41178571Y-51785714D01*
X41107142Y-51928571D01*
X41035714Y-52000000D01*
X40892857Y-52071428D01*
X40607142Y-52142857D01*
X40250000Y-52142857D01*
X39964285Y-52071428D01*
X39821428Y-52000000D01*
X39750000Y-51928571D01*
X39678571Y-51785714D01*
X41178571Y-50642857D02*
X39678571Y-50642857D01*
X41178571Y-49785714D02*
X40321428Y-50428571D01*
X39678571Y-49785714D02*
X40535714Y-50642857D01*
X40392857Y-49142857D02*
X40392857Y-48000000D01*
X40821428Y-48000000D02*
X40821428Y-49142857D01*
X39678571Y-47428571D02*
X39678571Y-46500000D01*
X40250000Y-47000000D01*
X40250000Y-46785714D01*
X40321428Y-46642857D01*
X40392857Y-46571428D01*
X40535714Y-46500000D01*
X40892857Y-46500000D01*
X41035714Y-46571428D01*
X41107142Y-46642857D01*
X41178571Y-46785714D01*
X41178571Y-47214285D01*
X41107142Y-47357142D01*
X41035714Y-47428571D01*
X39678571Y-45142857D02*
X39678571Y-45857142D01*
X40392857Y-45928571D01*
X40321428Y-45857142D01*
X40250000Y-45714285D01*
X40250000Y-45357142D01*
X40321428Y-45214285D01*
X40392857Y-45142857D01*
X40535714Y-45071428D01*
X40892857Y-45071428D01*
X41035714Y-45142857D01*
X41107142Y-45214285D01*
X41178571Y-45357142D01*
X41178571Y-45714285D01*
X41107142Y-45857142D01*
X41035714Y-45928571D01*
D10*
X46785714Y-35571428D02*
X47547619Y-35571428D01*
X47166666Y-35952380D02*
X47166666Y-35190476D01*
X48452380Y-35285714D02*
X48452380Y-35952380D01*
X48214285Y-34904761D02*
X47976190Y-35619047D01*
X48595238Y-35619047D01*
X49119047Y-35380952D02*
X49023809Y-35333333D01*
X48976190Y-35285714D01*
X48928571Y-35190476D01*
X48928571Y-35142857D01*
X48976190Y-35047619D01*
X49023809Y-35000000D01*
X49119047Y-34952380D01*
X49309523Y-34952380D01*
X49404761Y-35000000D01*
X49452380Y-35047619D01*
X49500000Y-35142857D01*
X49500000Y-35190476D01*
X49452380Y-35285714D01*
X49404761Y-35333333D01*
X49309523Y-35380952D01*
X49119047Y-35380952D01*
X49023809Y-35428571D01*
X48976190Y-35476190D01*
X48928571Y-35571428D01*
X48928571Y-35761904D01*
X48976190Y-35857142D01*
X49023809Y-35904761D01*
X49119047Y-35952380D01*
X49309523Y-35952380D01*
X49404761Y-35904761D01*
X49452380Y-35857142D01*
X49500000Y-35761904D01*
X49500000Y-35571428D01*
X49452380Y-35476190D01*
X49404761Y-35428571D01*
X49309523Y-35380952D01*
X50547619Y-34952380D02*
X50880952Y-35952380D01*
X51214285Y-34952380D01*
X51738095Y-34952380D02*
X51928571Y-34952380D01*
X52023809Y-35000000D01*
X52119047Y-35095238D01*
X52166666Y-35285714D01*
X52166666Y-35619047D01*
X52119047Y-35809523D01*
X52023809Y-35904761D01*
X51928571Y-35952380D01*
X51738095Y-35952380D01*
X51642857Y-35904761D01*
X51547619Y-35809523D01*
X51500000Y-35619047D01*
X51500000Y-35285714D01*
X51547619Y-35095238D01*
X51642857Y-35000000D01*
X51738095Y-34952380D01*
X53071428Y-35952380D02*
X52595238Y-35952380D01*
X52595238Y-34952380D01*
X53261904Y-34952380D02*
X53833333Y-34952380D01*
X53547619Y-35952380D02*
X53547619Y-34952380D01*
X54928571Y-35952380D02*
X54928571Y-34952380D01*
X55309523Y-34952380D01*
X55404761Y-35000000D01*
X55452380Y-35047619D01*
X55500000Y-35142857D01*
X55500000Y-35285714D01*
X55452380Y-35380952D01*
X55404761Y-35428571D01*
X55309523Y-35476190D01*
X54928571Y-35476190D01*
X55928571Y-35952380D02*
X55928571Y-34952380D01*
X55928571Y-35428571D02*
X56500000Y-35428571D01*
X56500000Y-35952380D02*
X56500000Y-34952380D01*
X56928571Y-35666666D02*
X57404761Y-35666666D01*
X56833333Y-35952380D02*
X57166666Y-34952380D01*
X57500000Y-35952380D01*
X57833333Y-35952380D02*
X57833333Y-34952380D01*
X58404761Y-35952380D01*
X58404761Y-34952380D01*
X58738095Y-34952380D02*
X59309523Y-34952380D01*
X59023809Y-35952380D02*
X59023809Y-34952380D01*
X59833333Y-34952380D02*
X60023809Y-34952380D01*
X60119047Y-35000000D01*
X60214285Y-35095238D01*
X60261904Y-35285714D01*
X60261904Y-35619047D01*
X60214285Y-35809523D01*
X60119047Y-35904761D01*
X60023809Y-35952380D01*
X59833333Y-35952380D01*
X59738095Y-35904761D01*
X59642857Y-35809523D01*
X59595238Y-35619047D01*
X59595238Y-35285714D01*
X59642857Y-35095238D01*
X59738095Y-35000000D01*
X59833333Y-34952380D01*
X60690476Y-35952380D02*
X60690476Y-34952380D01*
X61023809Y-35666666D01*
X61357142Y-34952380D01*
X61357142Y-35952380D01*
X62595238Y-35952380D02*
X62595238Y-34952380D01*
X62976190Y-34952380D01*
X63071428Y-35000000D01*
X63119047Y-35047619D01*
X63166666Y-35142857D01*
X63166666Y-35285714D01*
X63119047Y-35380952D01*
X63071428Y-35428571D01*
X62976190Y-35476190D01*
X62595238Y-35476190D01*
X63785714Y-34952380D02*
X63976190Y-34952380D01*
X64071428Y-35000000D01*
X64166666Y-35095238D01*
X64214285Y-35285714D01*
X64214285Y-35619047D01*
X64166666Y-35809523D01*
X64071428Y-35904761D01*
X63976190Y-35952380D01*
X63785714Y-35952380D01*
X63690476Y-35904761D01*
X63595238Y-35809523D01*
X63547619Y-35619047D01*
X63547619Y-35285714D01*
X63595238Y-35095238D01*
X63690476Y-35000000D01*
X63785714Y-34952380D01*
X64547619Y-34952380D02*
X64785714Y-35952380D01*
X64976190Y-35238095D01*
X65166666Y-35952380D01*
X65404761Y-34952380D01*
X65785714Y-35428571D02*
X66119047Y-35428571D01*
X66261904Y-35952380D02*
X65785714Y-35952380D01*
X65785714Y-34952380D01*
X66261904Y-34952380D01*
X67261904Y-35952380D02*
X66928571Y-35476190D01*
X66690476Y-35952380D02*
X66690476Y-34952380D01*
X67071428Y-34952380D01*
X67166666Y-35000000D01*
X67214285Y-35047619D01*
X67261904Y-35142857D01*
X67261904Y-35285714D01*
X67214285Y-35380952D01*
X67166666Y-35428571D01*
X67071428Y-35476190D01*
X66690476Y-35476190D01*
X54952380Y-122452380D02*
X55619047Y-123452380D01*
X55619047Y-122452380D02*
X54952380Y-123452380D01*
X55857142Y-122452380D02*
X56428571Y-122452380D01*
X56142857Y-123452380D02*
X56142857Y-122452380D01*
X56714285Y-123166666D02*
X57190476Y-123166666D01*
X56619047Y-123452380D02*
X56952380Y-122452380D01*
X57285714Y-123452380D01*
X58095238Y-123452380D02*
X57619047Y-123452380D01*
X57619047Y-122452380D01*
D12*
%TO.C,C1*%
X60130000Y-55870000D02*
X60130000Y-50630000D01*
X62870000Y-55870000D02*
X62870000Y-50630000D01*
X60130000Y-55870000D02*
X62870000Y-55870000D01*
X60130000Y-50630000D02*
X62870000Y-50630000D01*
%TO.C,C2*%
X55130000Y-50630000D02*
X57870000Y-50630000D01*
X55130000Y-55870000D02*
X57870000Y-55870000D01*
X57870000Y-55870000D02*
X57870000Y-50630000D01*
X55130000Y-55870000D02*
X55130000Y-50630000D01*
%TO.C,C3*%
X50130000Y-55870000D02*
X50130000Y-50630000D01*
X52870000Y-55870000D02*
X52870000Y-50630000D01*
X50130000Y-55870000D02*
X52870000Y-55870000D01*
X50130000Y-50630000D02*
X52870000Y-50630000D01*
%TO.C,C4*%
X45130000Y-50630000D02*
X47870000Y-50630000D01*
X45130000Y-55870000D02*
X47870000Y-55870000D01*
X47870000Y-55870000D02*
X47870000Y-50630000D01*
X45130000Y-55870000D02*
X45130000Y-50630000D01*
%TO.C,C5*%
X55370000Y-113870000D02*
X50130000Y-113870000D01*
X55370000Y-111130000D02*
X50130000Y-111130000D01*
X55370000Y-113870000D02*
X55370000Y-111130000D01*
X50130000Y-113870000D02*
X50130000Y-111130000D01*
%TO.C,C6*%
X59630000Y-92870000D02*
X59630000Y-90130000D01*
X64870000Y-92870000D02*
X64870000Y-90130000D01*
X64870000Y-90130000D02*
X59630000Y-90130000D01*
X64870000Y-92870000D02*
X59630000Y-92870000D01*
%TO.C,C7*%
X65130000Y-55870000D02*
X65130000Y-50630000D01*
X67870000Y-55870000D02*
X67870000Y-50630000D01*
X65130000Y-55870000D02*
X67870000Y-55870000D01*
X65130000Y-50630000D02*
X67870000Y-50630000D01*
%TO.C,C8*%
X59130000Y-104370000D02*
X59130000Y-101630000D01*
X64370000Y-104370000D02*
X64370000Y-101630000D01*
X64370000Y-101630000D02*
X59130000Y-101630000D01*
X64370000Y-104370000D02*
X59130000Y-104370000D01*
%TO.C,D1*%
X58310000Y-69120000D02*
X58310000Y-66880000D01*
X58310000Y-66880000D02*
X54070000Y-66880000D01*
X54070000Y-66880000D02*
X54070000Y-69120000D01*
X54070000Y-69120000D02*
X58310000Y-69120000D01*
X58960000Y-68000000D02*
X58310000Y-68000000D01*
X53420000Y-68000000D02*
X54070000Y-68000000D01*
X57590000Y-69120000D02*
X57590000Y-66880000D01*
X57470000Y-69120000D02*
X57470000Y-66880000D01*
X57710000Y-69120000D02*
X57710000Y-66880000D01*
%TO.C,D2*%
X48670000Y-96880000D02*
X48670000Y-99120000D01*
X48910000Y-96880000D02*
X48910000Y-99120000D01*
X48790000Y-96880000D02*
X48790000Y-99120000D01*
X52960000Y-98000000D02*
X52310000Y-98000000D01*
X47420000Y-98000000D02*
X48070000Y-98000000D01*
X52310000Y-96880000D02*
X48070000Y-96880000D01*
X52310000Y-99120000D02*
X52310000Y-96880000D01*
X48070000Y-99120000D02*
X52310000Y-99120000D01*
X48070000Y-96880000D02*
X48070000Y-99120000D01*
%TO.C,D3*%
X61290000Y-96880000D02*
X61290000Y-99120000D01*
X61530000Y-96880000D02*
X61530000Y-99120000D01*
X61410000Y-96880000D02*
X61410000Y-99120000D01*
X65580000Y-98000000D02*
X64930000Y-98000000D01*
X60040000Y-98000000D02*
X60690000Y-98000000D01*
X64930000Y-96880000D02*
X60690000Y-96880000D01*
X64930000Y-99120000D02*
X64930000Y-96880000D01*
X60690000Y-99120000D02*
X64930000Y-99120000D01*
X60690000Y-96880000D02*
X60690000Y-99120000D01*
%TO.C,R1*%
X65920000Y-64620000D02*
X65920000Y-68460000D01*
X64080000Y-64620000D02*
X64080000Y-68460000D01*
%TO.C,R2*%
X54620000Y-70580000D02*
X58460000Y-70580000D01*
X54620000Y-72420000D02*
X58460000Y-72420000D01*
%TO.C,R3*%
X44920000Y-68380000D02*
X44920000Y-64540000D01*
X43080000Y-68380000D02*
X43080000Y-64540000D01*
%TO.C,R4*%
X58880000Y-64920000D02*
X55040000Y-64920000D01*
X58880000Y-63080000D02*
X55040000Y-63080000D01*
%TO.C,R5*%
X47080000Y-64620000D02*
X47080000Y-68460000D01*
X48920000Y-64620000D02*
X48920000Y-68460000D01*
%TO.C,R6*%
X49620000Y-107080000D02*
X53460000Y-107080000D01*
X49620000Y-108920000D02*
X53460000Y-108920000D01*
%TO.C,R7*%
X63380000Y-113420000D02*
X59540000Y-113420000D01*
X63380000Y-111580000D02*
X59540000Y-111580000D01*
%TO.C,R8*%
X68080000Y-64620000D02*
X68080000Y-68460000D01*
X69920000Y-64620000D02*
X69920000Y-68460000D01*
%TO.C,R9*%
X49620000Y-92420000D02*
X53460000Y-92420000D01*
X49620000Y-90580000D02*
X53460000Y-90580000D01*
%TO.C,R10*%
X63460000Y-107080000D02*
X59620000Y-107080000D01*
X63460000Y-108920000D02*
X59620000Y-108920000D01*
%TO.C,U1*%
X44050000Y-87390000D02*
X54330000Y-87390000D01*
X44050000Y-76990000D02*
X44050000Y-87390000D01*
X54330000Y-76990000D02*
X44050000Y-76990000D01*
X54330000Y-87390000D02*
X54330000Y-76990000D01*
X46540000Y-87330000D02*
X48190000Y-87330000D01*
X46540000Y-77050000D02*
X46540000Y-87330000D01*
X51840000Y-77050000D02*
X46540000Y-77050000D01*
X51840000Y-87330000D02*
X51840000Y-77050000D01*
X50190000Y-87330000D02*
X51840000Y-87330000D01*
X48190000Y-87330000D02*
G75*
G02*
X50190000Y-87330000I1000000J0D01*
G01*
%TO.C,U2*%
X62690000Y-87330000D02*
G75*
G02*
X64690000Y-87330000I1000000J0D01*
G01*
X64690000Y-87330000D02*
X66340000Y-87330000D01*
X66340000Y-87330000D02*
X66340000Y-77050000D01*
X66340000Y-77050000D02*
X61040000Y-77050000D01*
X61040000Y-77050000D02*
X61040000Y-87330000D01*
X61040000Y-87330000D02*
X62690000Y-87330000D01*
X68830000Y-87390000D02*
X68830000Y-76990000D01*
X68830000Y-76990000D02*
X58550000Y-76990000D01*
X58550000Y-76990000D02*
X58550000Y-87390000D01*
X58550000Y-87390000D02*
X68830000Y-87390000D01*
%TO.C,C1*%
D10*
X59357142Y-53416666D02*
X59404761Y-53464285D01*
X59452380Y-53607142D01*
X59452380Y-53702380D01*
X59404761Y-53845238D01*
X59309523Y-53940476D01*
X59214285Y-53988095D01*
X59023809Y-54035714D01*
X58880952Y-54035714D01*
X58690476Y-53988095D01*
X58595238Y-53940476D01*
X58500000Y-53845238D01*
X58452380Y-53702380D01*
X58452380Y-53607142D01*
X58500000Y-53464285D01*
X58547619Y-53416666D01*
X59452380Y-52464285D02*
X59452380Y-53035714D01*
X59452380Y-52750000D02*
X58452380Y-52750000D01*
X58595238Y-52845238D01*
X58690476Y-52940476D01*
X58738095Y-53035714D01*
%TO.C,C2*%
X54357142Y-53416666D02*
X54404761Y-53464285D01*
X54452380Y-53607142D01*
X54452380Y-53702380D01*
X54404761Y-53845238D01*
X54309523Y-53940476D01*
X54214285Y-53988095D01*
X54023809Y-54035714D01*
X53880952Y-54035714D01*
X53690476Y-53988095D01*
X53595238Y-53940476D01*
X53500000Y-53845238D01*
X53452380Y-53702380D01*
X53452380Y-53607142D01*
X53500000Y-53464285D01*
X53547619Y-53416666D01*
X53547619Y-53035714D02*
X53500000Y-52988095D01*
X53452380Y-52892857D01*
X53452380Y-52654761D01*
X53500000Y-52559523D01*
X53547619Y-52511904D01*
X53642857Y-52464285D01*
X53738095Y-52464285D01*
X53880952Y-52511904D01*
X54452380Y-53083333D01*
X54452380Y-52464285D01*
%TO.C,C3*%
X49357142Y-53416666D02*
X49404761Y-53464285D01*
X49452380Y-53607142D01*
X49452380Y-53702380D01*
X49404761Y-53845238D01*
X49309523Y-53940476D01*
X49214285Y-53988095D01*
X49023809Y-54035714D01*
X48880952Y-54035714D01*
X48690476Y-53988095D01*
X48595238Y-53940476D01*
X48500000Y-53845238D01*
X48452380Y-53702380D01*
X48452380Y-53607142D01*
X48500000Y-53464285D01*
X48547619Y-53416666D01*
X48452380Y-53083333D02*
X48452380Y-52464285D01*
X48833333Y-52797619D01*
X48833333Y-52654761D01*
X48880952Y-52559523D01*
X48928571Y-52511904D01*
X49023809Y-52464285D01*
X49261904Y-52464285D01*
X49357142Y-52511904D01*
X49404761Y-52559523D01*
X49452380Y-52654761D01*
X49452380Y-52940476D01*
X49404761Y-53035714D01*
X49357142Y-53083333D01*
%TO.C,C4*%
X44357142Y-53416666D02*
X44404761Y-53464285D01*
X44452380Y-53607142D01*
X44452380Y-53702380D01*
X44404761Y-53845238D01*
X44309523Y-53940476D01*
X44214285Y-53988095D01*
X44023809Y-54035714D01*
X43880952Y-54035714D01*
X43690476Y-53988095D01*
X43595238Y-53940476D01*
X43500000Y-53845238D01*
X43452380Y-53702380D01*
X43452380Y-53607142D01*
X43500000Y-53464285D01*
X43547619Y-53416666D01*
X43785714Y-52559523D02*
X44452380Y-52559523D01*
X43404761Y-52797619D02*
X44119047Y-53035714D01*
X44119047Y-52416666D01*
%TO.C,C5*%
X52583333Y-115357142D02*
X52535714Y-115404761D01*
X52392857Y-115452380D01*
X52297619Y-115452380D01*
X52154761Y-115404761D01*
X52059523Y-115309523D01*
X52011904Y-115214285D01*
X51964285Y-115023809D01*
X51964285Y-114880952D01*
X52011904Y-114690476D01*
X52059523Y-114595238D01*
X52154761Y-114500000D01*
X52297619Y-114452380D01*
X52392857Y-114452380D01*
X52535714Y-114500000D01*
X52583333Y-114547619D01*
X53488095Y-114452380D02*
X53011904Y-114452380D01*
X52964285Y-114928571D01*
X53011904Y-114880952D01*
X53107142Y-114833333D01*
X53345238Y-114833333D01*
X53440476Y-114880952D01*
X53488095Y-114928571D01*
X53535714Y-115023809D01*
X53535714Y-115261904D01*
X53488095Y-115357142D01*
X53440476Y-115404761D01*
X53345238Y-115452380D01*
X53107142Y-115452380D01*
X53011904Y-115404761D01*
X52964285Y-115357142D01*
%TO.C,C6*%
X62083333Y-94357142D02*
X62035714Y-94404761D01*
X61892857Y-94452380D01*
X61797619Y-94452380D01*
X61654761Y-94404761D01*
X61559523Y-94309523D01*
X61511904Y-94214285D01*
X61464285Y-94023809D01*
X61464285Y-93880952D01*
X61511904Y-93690476D01*
X61559523Y-93595238D01*
X61654761Y-93500000D01*
X61797619Y-93452380D01*
X61892857Y-93452380D01*
X62035714Y-93500000D01*
X62083333Y-93547619D01*
X62940476Y-93452380D02*
X62750000Y-93452380D01*
X62654761Y-93500000D01*
X62607142Y-93547619D01*
X62511904Y-93690476D01*
X62464285Y-93880952D01*
X62464285Y-94261904D01*
X62511904Y-94357142D01*
X62559523Y-94404761D01*
X62654761Y-94452380D01*
X62845238Y-94452380D01*
X62940476Y-94404761D01*
X62988095Y-94357142D01*
X63035714Y-94261904D01*
X63035714Y-94023809D01*
X62988095Y-93928571D01*
X62940476Y-93880952D01*
X62845238Y-93833333D01*
X62654761Y-93833333D01*
X62559523Y-93880952D01*
X62511904Y-93928571D01*
X62464285Y-94023809D01*
%TO.C,C7*%
X64357142Y-53416666D02*
X64404761Y-53464285D01*
X64452380Y-53607142D01*
X64452380Y-53702380D01*
X64404761Y-53845238D01*
X64309523Y-53940476D01*
X64214285Y-53988095D01*
X64023809Y-54035714D01*
X63880952Y-54035714D01*
X63690476Y-53988095D01*
X63595238Y-53940476D01*
X63500000Y-53845238D01*
X63452380Y-53702380D01*
X63452380Y-53607142D01*
X63500000Y-53464285D01*
X63547619Y-53416666D01*
X63452380Y-53083333D02*
X63452380Y-52416666D01*
X64452380Y-52845238D01*
%TO.C,C8*%
X61583333Y-105857142D02*
X61535714Y-105904761D01*
X61392857Y-105952380D01*
X61297619Y-105952380D01*
X61154761Y-105904761D01*
X61059523Y-105809523D01*
X61011904Y-105714285D01*
X60964285Y-105523809D01*
X60964285Y-105380952D01*
X61011904Y-105190476D01*
X61059523Y-105095238D01*
X61154761Y-105000000D01*
X61297619Y-104952380D01*
X61392857Y-104952380D01*
X61535714Y-105000000D01*
X61583333Y-105047619D01*
X62154761Y-105380952D02*
X62059523Y-105333333D01*
X62011904Y-105285714D01*
X61964285Y-105190476D01*
X61964285Y-105142857D01*
X62011904Y-105047619D01*
X62059523Y-105000000D01*
X62154761Y-104952380D01*
X62345238Y-104952380D01*
X62440476Y-105000000D01*
X62488095Y-105047619D01*
X62535714Y-105142857D01*
X62535714Y-105190476D01*
X62488095Y-105285714D01*
X62440476Y-105333333D01*
X62345238Y-105380952D01*
X62154761Y-105380952D01*
X62059523Y-105428571D01*
X62011904Y-105476190D01*
X61964285Y-105571428D01*
X61964285Y-105761904D01*
X62011904Y-105857142D01*
X62059523Y-105904761D01*
X62154761Y-105952380D01*
X62345238Y-105952380D01*
X62440476Y-105904761D01*
X62488095Y-105857142D01*
X62535714Y-105761904D01*
X62535714Y-105571428D01*
X62488095Y-105476190D01*
X62440476Y-105428571D01*
X62345238Y-105380952D01*
%TO.C,D1*%
X55451904Y-68452380D02*
X55451904Y-67452380D01*
X55690000Y-67452380D01*
X55832857Y-67500000D01*
X55928095Y-67595238D01*
X55975714Y-67690476D01*
X56023333Y-67880952D01*
X56023333Y-68023809D01*
X55975714Y-68214285D01*
X55928095Y-68309523D01*
X55832857Y-68404761D01*
X55690000Y-68452380D01*
X55451904Y-68452380D01*
X56975714Y-68452380D02*
X56404285Y-68452380D01*
X56690000Y-68452380D02*
X56690000Y-67452380D01*
X56594761Y-67595238D01*
X56499523Y-67690476D01*
X56404285Y-67738095D01*
X59738095Y-70252380D02*
X59738095Y-69252380D01*
X60309523Y-70252380D02*
X59880952Y-69680952D01*
X60309523Y-69252380D02*
X59738095Y-69823809D01*
%TO.C,D2*%
X49761904Y-98452380D02*
X49761904Y-97452380D01*
X50000000Y-97452380D01*
X50142857Y-97500000D01*
X50238095Y-97595238D01*
X50285714Y-97690476D01*
X50333333Y-97880952D01*
X50333333Y-98023809D01*
X50285714Y-98214285D01*
X50238095Y-98309523D01*
X50142857Y-98404761D01*
X50000000Y-98452380D01*
X49761904Y-98452380D01*
X50714285Y-97547619D02*
X50761904Y-97500000D01*
X50857142Y-97452380D01*
X51095238Y-97452380D01*
X51190476Y-97500000D01*
X51238095Y-97547619D01*
X51285714Y-97642857D01*
X51285714Y-97738095D01*
X51238095Y-97880952D01*
X50666666Y-98452380D01*
X51285714Y-98452380D01*
X46118095Y-96652380D02*
X46118095Y-95652380D01*
X46689523Y-96652380D02*
X46260952Y-96080952D01*
X46689523Y-95652380D02*
X46118095Y-96223809D01*
%TO.C,D3*%
X62261904Y-98452380D02*
X62261904Y-97452380D01*
X62500000Y-97452380D01*
X62642857Y-97500000D01*
X62738095Y-97595238D01*
X62785714Y-97690476D01*
X62833333Y-97880952D01*
X62833333Y-98023809D01*
X62785714Y-98214285D01*
X62738095Y-98309523D01*
X62642857Y-98404761D01*
X62500000Y-98452380D01*
X62261904Y-98452380D01*
X63166666Y-97452380D02*
X63785714Y-97452380D01*
X63452380Y-97833333D01*
X63595238Y-97833333D01*
X63690476Y-97880952D01*
X63738095Y-97928571D01*
X63785714Y-98023809D01*
X63785714Y-98261904D01*
X63738095Y-98357142D01*
X63690476Y-98404761D01*
X63595238Y-98452380D01*
X63309523Y-98452380D01*
X63214285Y-98404761D01*
X63166666Y-98357142D01*
X58738095Y-96652380D02*
X58738095Y-95652380D01*
X59309523Y-96652380D02*
X58880952Y-96080952D01*
X59309523Y-95652380D02*
X58738095Y-96223809D01*
%TO.C,J1*%
X53166666Y-115702380D02*
X53166666Y-116416666D01*
X53119047Y-116559523D01*
X53023809Y-116654761D01*
X52880952Y-116702380D01*
X52785714Y-116702380D01*
X54166666Y-116702380D02*
X53595238Y-116702380D01*
X53880952Y-116702380D02*
X53880952Y-115702380D01*
X53785714Y-115845238D01*
X53690476Y-115940476D01*
X53595238Y-115988095D01*
%TO.C,J2*%
X55119047Y-42535714D02*
X55119047Y-43535714D01*
X55119047Y-42583333D02*
X55214285Y-42535714D01*
X55404761Y-42535714D01*
X55500000Y-42583333D01*
X55547619Y-42630952D01*
X55595238Y-42726190D01*
X55595238Y-43011904D01*
X55547619Y-43107142D01*
X55500000Y-43154761D01*
X55404761Y-43202380D01*
X55214285Y-43202380D01*
X55119047Y-43154761D01*
X56023809Y-43202380D02*
X56023809Y-42535714D01*
X56023809Y-42202380D02*
X55976190Y-42250000D01*
X56023809Y-42297619D01*
X56071428Y-42250000D01*
X56023809Y-42202380D01*
X56023809Y-42297619D01*
X56500000Y-42535714D02*
X56500000Y-43202380D01*
X56500000Y-42630952D02*
X56547619Y-42583333D01*
X56642857Y-42535714D01*
X56785714Y-42535714D01*
X56880952Y-42583333D01*
X56928571Y-42678571D01*
X56928571Y-43202380D01*
X57357142Y-42297619D02*
X57404761Y-42250000D01*
X57500000Y-42202380D01*
X57738095Y-42202380D01*
X57833333Y-42250000D01*
X57880952Y-42297619D01*
X57928571Y-42392857D01*
X57928571Y-42488095D01*
X57880952Y-42630952D01*
X57309523Y-43202380D01*
X57928571Y-43202380D01*
%TO.C,J3*%
X59166666Y-115702380D02*
X59166666Y-116416666D01*
X59119047Y-116559523D01*
X59023809Y-116654761D01*
X58880952Y-116702380D01*
X58785714Y-116702380D01*
X59547619Y-115702380D02*
X60166666Y-115702380D01*
X59833333Y-116083333D01*
X59976190Y-116083333D01*
X60071428Y-116130952D01*
X60119047Y-116178571D01*
X60166666Y-116273809D01*
X60166666Y-116511904D01*
X60119047Y-116607142D01*
X60071428Y-116654761D01*
X59976190Y-116702380D01*
X59690476Y-116702380D01*
X59595238Y-116654761D01*
X59547619Y-116607142D01*
%TO.C,J4*%
X50119047Y-42535714D02*
X50119047Y-43535714D01*
X50119047Y-42583333D02*
X50214285Y-42535714D01*
X50404761Y-42535714D01*
X50500000Y-42583333D01*
X50547619Y-42630952D01*
X50595238Y-42726190D01*
X50595238Y-43011904D01*
X50547619Y-43107142D01*
X50500000Y-43154761D01*
X50404761Y-43202380D01*
X50214285Y-43202380D01*
X50119047Y-43154761D01*
X51023809Y-43202380D02*
X51023809Y-42535714D01*
X51023809Y-42202380D02*
X50976190Y-42250000D01*
X51023809Y-42297619D01*
X51071428Y-42250000D01*
X51023809Y-42202380D01*
X51023809Y-42297619D01*
X51500000Y-42535714D02*
X51500000Y-43202380D01*
X51500000Y-42630952D02*
X51547619Y-42583333D01*
X51642857Y-42535714D01*
X51785714Y-42535714D01*
X51880952Y-42583333D01*
X51928571Y-42678571D01*
X51928571Y-43202380D01*
X52309523Y-42202380D02*
X52928571Y-42202380D01*
X52595238Y-42583333D01*
X52738095Y-42583333D01*
X52833333Y-42630952D01*
X52880952Y-42678571D01*
X52928571Y-42773809D01*
X52928571Y-43011904D01*
X52880952Y-43107142D01*
X52833333Y-43154761D01*
X52738095Y-43202380D01*
X52452380Y-43202380D01*
X52357142Y-43154761D01*
X52309523Y-43107142D01*
%TO.C,J5*%
X60119047Y-42685714D02*
X60119047Y-43685714D01*
X60119047Y-42733333D02*
X60214285Y-42685714D01*
X60404761Y-42685714D01*
X60500000Y-42733333D01*
X60547619Y-42780952D01*
X60595238Y-42876190D01*
X60595238Y-43161904D01*
X60547619Y-43257142D01*
X60500000Y-43304761D01*
X60404761Y-43352380D01*
X60214285Y-43352380D01*
X60119047Y-43304761D01*
X61023809Y-43352380D02*
X61023809Y-42685714D01*
X61023809Y-42352380D02*
X60976190Y-42400000D01*
X61023809Y-42447619D01*
X61071428Y-42400000D01*
X61023809Y-42352380D01*
X61023809Y-42447619D01*
X61500000Y-42685714D02*
X61500000Y-43352380D01*
X61500000Y-42780952D02*
X61547619Y-42733333D01*
X61642857Y-42685714D01*
X61785714Y-42685714D01*
X61880952Y-42733333D01*
X61928571Y-42828571D01*
X61928571Y-43352380D01*
X62928571Y-43352380D02*
X62357142Y-43352380D01*
X62642857Y-43352380D02*
X62642857Y-42352380D01*
X62547619Y-42495238D01*
X62452380Y-42590476D01*
X62357142Y-42638095D01*
%TO.C,J6*%
X42166666Y-121702380D02*
X42166666Y-122416666D01*
X42119047Y-122559523D01*
X42023809Y-122654761D01*
X41880952Y-122702380D01*
X41785714Y-122702380D01*
X43071428Y-121702380D02*
X42880952Y-121702380D01*
X42785714Y-121750000D01*
X42738095Y-121797619D01*
X42642857Y-121940476D01*
X42595238Y-122130952D01*
X42595238Y-122511904D01*
X42642857Y-122607142D01*
X42690476Y-122654761D01*
X42785714Y-122702380D01*
X42976190Y-122702380D01*
X43071428Y-122654761D01*
X43119047Y-122607142D01*
X43166666Y-122511904D01*
X43166666Y-122273809D01*
X43119047Y-122178571D01*
X43071428Y-122130952D01*
X42976190Y-122083333D01*
X42785714Y-122083333D01*
X42690476Y-122130952D01*
X42642857Y-122178571D01*
X42595238Y-122273809D01*
%TO.C,J7*%
X69666666Y-34202380D02*
X69666666Y-34916666D01*
X69619047Y-35059523D01*
X69523809Y-35154761D01*
X69380952Y-35202380D01*
X69285714Y-35202380D01*
X70047619Y-34202380D02*
X70714285Y-34202380D01*
X70285714Y-35202380D01*
%TO.C,J8*%
X42166666Y-34202380D02*
X42166666Y-34916666D01*
X42119047Y-35059523D01*
X42023809Y-35154761D01*
X41880952Y-35202380D01*
X41785714Y-35202380D01*
X42785714Y-34630952D02*
X42690476Y-34583333D01*
X42642857Y-34535714D01*
X42595238Y-34440476D01*
X42595238Y-34392857D01*
X42642857Y-34297619D01*
X42690476Y-34250000D01*
X42785714Y-34202380D01*
X42976190Y-34202380D01*
X43071428Y-34250000D01*
X43119047Y-34297619D01*
X43166666Y-34392857D01*
X43166666Y-34440476D01*
X43119047Y-34535714D01*
X43071428Y-34583333D01*
X42976190Y-34630952D01*
X42785714Y-34630952D01*
X42690476Y-34678571D01*
X42642857Y-34726190D01*
X42595238Y-34821428D01*
X42595238Y-35011904D01*
X42642857Y-35107142D01*
X42690476Y-35154761D01*
X42785714Y-35202380D01*
X42976190Y-35202380D01*
X43071428Y-35154761D01*
X43119047Y-35107142D01*
X43166666Y-35011904D01*
X43166666Y-34821428D01*
X43119047Y-34726190D01*
X43071428Y-34678571D01*
X42976190Y-34630952D01*
%TO.C,J9*%
X69666666Y-121702380D02*
X69666666Y-122416666D01*
X69619047Y-122559523D01*
X69523809Y-122654761D01*
X69380952Y-122702380D01*
X69285714Y-122702380D01*
X70190476Y-122702380D02*
X70380952Y-122702380D01*
X70476190Y-122654761D01*
X70523809Y-122607142D01*
X70619047Y-122464285D01*
X70666666Y-122273809D01*
X70666666Y-121892857D01*
X70619047Y-121797619D01*
X70571428Y-121750000D01*
X70476190Y-121702380D01*
X70285714Y-121702380D01*
X70190476Y-121750000D01*
X70142857Y-121797619D01*
X70095238Y-121892857D01*
X70095238Y-122130952D01*
X70142857Y-122226190D01*
X70190476Y-122273809D01*
X70285714Y-122321428D01*
X70476190Y-122321428D01*
X70571428Y-122273809D01*
X70619047Y-122226190D01*
X70666666Y-122130952D01*
%TO.C,R1*%
X65452380Y-66666666D02*
X64976190Y-67000000D01*
X65452380Y-67238095D02*
X64452380Y-67238095D01*
X64452380Y-66857142D01*
X64500000Y-66761904D01*
X64547619Y-66714285D01*
X64642857Y-66666666D01*
X64785714Y-66666666D01*
X64880952Y-66714285D01*
X64928571Y-66761904D01*
X64976190Y-66857142D01*
X64976190Y-67238095D01*
X65452380Y-65714285D02*
X65452380Y-66285714D01*
X65452380Y-66000000D02*
X64452380Y-66000000D01*
X64595238Y-66095238D01*
X64690476Y-66190476D01*
X64738095Y-66285714D01*
%TO.C,R2*%
X56333333Y-71952380D02*
X56000000Y-71476190D01*
X55761904Y-71952380D02*
X55761904Y-70952380D01*
X56142857Y-70952380D01*
X56238095Y-71000000D01*
X56285714Y-71047619D01*
X56333333Y-71142857D01*
X56333333Y-71285714D01*
X56285714Y-71380952D01*
X56238095Y-71428571D01*
X56142857Y-71476190D01*
X55761904Y-71476190D01*
X56714285Y-71047619D02*
X56761904Y-71000000D01*
X56857142Y-70952380D01*
X57095238Y-70952380D01*
X57190476Y-71000000D01*
X57238095Y-71047619D01*
X57285714Y-71142857D01*
X57285714Y-71238095D01*
X57238095Y-71380952D01*
X56666666Y-71952380D01*
X57285714Y-71952380D01*
%TO.C,R3*%
X44452380Y-66166666D02*
X43976190Y-66500000D01*
X44452380Y-66738095D02*
X43452380Y-66738095D01*
X43452380Y-66357142D01*
X43500000Y-66261904D01*
X43547619Y-66214285D01*
X43642857Y-66166666D01*
X43785714Y-66166666D01*
X43880952Y-66214285D01*
X43928571Y-66261904D01*
X43976190Y-66357142D01*
X43976190Y-66738095D01*
X43452380Y-65833333D02*
X43452380Y-65214285D01*
X43833333Y-65547619D01*
X43833333Y-65404761D01*
X43880952Y-65309523D01*
X43928571Y-65261904D01*
X44023809Y-65214285D01*
X44261904Y-65214285D01*
X44357142Y-65261904D01*
X44404761Y-65309523D01*
X44452380Y-65404761D01*
X44452380Y-65690476D01*
X44404761Y-65785714D01*
X44357142Y-65833333D01*
%TO.C,R4*%
X56833333Y-64452380D02*
X56500000Y-63976190D01*
X56261904Y-64452380D02*
X56261904Y-63452380D01*
X56642857Y-63452380D01*
X56738095Y-63500000D01*
X56785714Y-63547619D01*
X56833333Y-63642857D01*
X56833333Y-63785714D01*
X56785714Y-63880952D01*
X56738095Y-63928571D01*
X56642857Y-63976190D01*
X56261904Y-63976190D01*
X57690476Y-63785714D02*
X57690476Y-64452380D01*
X57452380Y-63404761D02*
X57214285Y-64119047D01*
X57833333Y-64119047D01*
%TO.C,R5*%
X48452380Y-66666666D02*
X47976190Y-67000000D01*
X48452380Y-67238095D02*
X47452380Y-67238095D01*
X47452380Y-66857142D01*
X47500000Y-66761904D01*
X47547619Y-66714285D01*
X47642857Y-66666666D01*
X47785714Y-66666666D01*
X47880952Y-66714285D01*
X47928571Y-66761904D01*
X47976190Y-66857142D01*
X47976190Y-67238095D01*
X47452380Y-65761904D02*
X47452380Y-66238095D01*
X47928571Y-66285714D01*
X47880952Y-66238095D01*
X47833333Y-66142857D01*
X47833333Y-65904761D01*
X47880952Y-65809523D01*
X47928571Y-65761904D01*
X48023809Y-65714285D01*
X48261904Y-65714285D01*
X48357142Y-65761904D01*
X48404761Y-65809523D01*
X48452380Y-65904761D01*
X48452380Y-66142857D01*
X48404761Y-66238095D01*
X48357142Y-66285714D01*
%TO.C,R6*%
X51373333Y-108452380D02*
X51040000Y-107976190D01*
X50801904Y-108452380D02*
X50801904Y-107452380D01*
X51182857Y-107452380D01*
X51278095Y-107500000D01*
X51325714Y-107547619D01*
X51373333Y-107642857D01*
X51373333Y-107785714D01*
X51325714Y-107880952D01*
X51278095Y-107928571D01*
X51182857Y-107976190D01*
X50801904Y-107976190D01*
X52230476Y-107452380D02*
X52040000Y-107452380D01*
X51944761Y-107500000D01*
X51897142Y-107547619D01*
X51801904Y-107690476D01*
X51754285Y-107880952D01*
X51754285Y-108261904D01*
X51801904Y-108357142D01*
X51849523Y-108404761D01*
X51944761Y-108452380D01*
X52135238Y-108452380D01*
X52230476Y-108404761D01*
X52278095Y-108357142D01*
X52325714Y-108261904D01*
X52325714Y-108023809D01*
X52278095Y-107928571D01*
X52230476Y-107880952D01*
X52135238Y-107833333D01*
X51944761Y-107833333D01*
X51849523Y-107880952D01*
X51801904Y-107928571D01*
X51754285Y-108023809D01*
%TO.C,R7*%
X61293333Y-112952380D02*
X60960000Y-112476190D01*
X60721904Y-112952380D02*
X60721904Y-111952380D01*
X61102857Y-111952380D01*
X61198095Y-112000000D01*
X61245714Y-112047619D01*
X61293333Y-112142857D01*
X61293333Y-112285714D01*
X61245714Y-112380952D01*
X61198095Y-112428571D01*
X61102857Y-112476190D01*
X60721904Y-112476190D01*
X61626666Y-111952380D02*
X62293333Y-111952380D01*
X61864761Y-112952380D01*
%TO.C,R8*%
X69452380Y-66666666D02*
X68976190Y-67000000D01*
X69452380Y-67238095D02*
X68452380Y-67238095D01*
X68452380Y-66857142D01*
X68500000Y-66761904D01*
X68547619Y-66714285D01*
X68642857Y-66666666D01*
X68785714Y-66666666D01*
X68880952Y-66714285D01*
X68928571Y-66761904D01*
X68976190Y-66857142D01*
X68976190Y-67238095D01*
X68880952Y-66095238D02*
X68833333Y-66190476D01*
X68785714Y-66238095D01*
X68690476Y-66285714D01*
X68642857Y-66285714D01*
X68547619Y-66238095D01*
X68500000Y-66190476D01*
X68452380Y-66095238D01*
X68452380Y-65904761D01*
X68500000Y-65809523D01*
X68547619Y-65761904D01*
X68642857Y-65714285D01*
X68690476Y-65714285D01*
X68785714Y-65761904D01*
X68833333Y-65809523D01*
X68880952Y-65904761D01*
X68880952Y-66095238D01*
X68928571Y-66190476D01*
X68976190Y-66238095D01*
X69071428Y-66285714D01*
X69261904Y-66285714D01*
X69357142Y-66238095D01*
X69404761Y-66190476D01*
X69452380Y-66095238D01*
X69452380Y-65904761D01*
X69404761Y-65809523D01*
X69357142Y-65761904D01*
X69261904Y-65714285D01*
X69071428Y-65714285D01*
X68976190Y-65761904D01*
X68928571Y-65809523D01*
X68880952Y-65904761D01*
%TO.C,R9*%
X51373333Y-91952380D02*
X51040000Y-91476190D01*
X50801904Y-91952380D02*
X50801904Y-90952380D01*
X51182857Y-90952380D01*
X51278095Y-91000000D01*
X51325714Y-91047619D01*
X51373333Y-91142857D01*
X51373333Y-91285714D01*
X51325714Y-91380952D01*
X51278095Y-91428571D01*
X51182857Y-91476190D01*
X50801904Y-91476190D01*
X51849523Y-91952380D02*
X52040000Y-91952380D01*
X52135238Y-91904761D01*
X52182857Y-91857142D01*
X52278095Y-91714285D01*
X52325714Y-91523809D01*
X52325714Y-91142857D01*
X52278095Y-91047619D01*
X52230476Y-91000000D01*
X52135238Y-90952380D01*
X51944761Y-90952380D01*
X51849523Y-91000000D01*
X51801904Y-91047619D01*
X51754285Y-91142857D01*
X51754285Y-91380952D01*
X51801904Y-91476190D01*
X51849523Y-91523809D01*
X51944761Y-91571428D01*
X52135238Y-91571428D01*
X52230476Y-91523809D01*
X52278095Y-91476190D01*
X52325714Y-91380952D01*
%TO.C,R10*%
X60857142Y-108452380D02*
X60523809Y-107976190D01*
X60285714Y-108452380D02*
X60285714Y-107452380D01*
X60666666Y-107452380D01*
X60761904Y-107500000D01*
X60809523Y-107547619D01*
X60857142Y-107642857D01*
X60857142Y-107785714D01*
X60809523Y-107880952D01*
X60761904Y-107928571D01*
X60666666Y-107976190D01*
X60285714Y-107976190D01*
X61809523Y-108452380D02*
X61238095Y-108452380D01*
X61523809Y-108452380D02*
X61523809Y-107452380D01*
X61428571Y-107595238D01*
X61333333Y-107690476D01*
X61238095Y-107738095D01*
X62428571Y-107452380D02*
X62523809Y-107452380D01*
X62619047Y-107500000D01*
X62666666Y-107547619D01*
X62714285Y-107642857D01*
X62761904Y-107833333D01*
X62761904Y-108071428D01*
X62714285Y-108261904D01*
X62666666Y-108357142D01*
X62619047Y-108404761D01*
X62523809Y-108452380D01*
X62428571Y-108452380D01*
X62333333Y-108404761D01*
X62285714Y-108357142D01*
X62238095Y-108261904D01*
X62190476Y-108071428D01*
X62190476Y-107833333D01*
X62238095Y-107642857D01*
X62285714Y-107547619D01*
X62333333Y-107500000D01*
X62428571Y-107452380D01*
%TO.C,U1*%
X48428095Y-87782380D02*
X48428095Y-88591904D01*
X48475714Y-88687142D01*
X48523333Y-88734761D01*
X48618571Y-88782380D01*
X48809047Y-88782380D01*
X48904285Y-88734761D01*
X48951904Y-88687142D01*
X48999523Y-88591904D01*
X48999523Y-87782380D01*
X49999523Y-88782380D02*
X49428095Y-88782380D01*
X49713809Y-88782380D02*
X49713809Y-87782380D01*
X49618571Y-87925238D01*
X49523333Y-88020476D01*
X49428095Y-88068095D01*
%TO.C,U2*%
X62928095Y-87782380D02*
X62928095Y-88591904D01*
X62975714Y-88687142D01*
X63023333Y-88734761D01*
X63118571Y-88782380D01*
X63309047Y-88782380D01*
X63404285Y-88734761D01*
X63451904Y-88687142D01*
X63499523Y-88591904D01*
X63499523Y-87782380D01*
X63928095Y-87877619D02*
X63975714Y-87830000D01*
X64070952Y-87782380D01*
X64309047Y-87782380D01*
X64404285Y-87830000D01*
X64451904Y-87877619D01*
X64499523Y-87972857D01*
X64499523Y-88068095D01*
X64451904Y-88210952D01*
X63880476Y-88782380D01*
X64499523Y-88782380D01*
%TD*%
M02*
