%TF.GenerationSoftware,KiCad,Pcbnew,5.1.10*%
%TF.CreationDate,2021-06-26T04:08:14+02:00*%
%TF.ProjectId,double-gain,646f7562-6c65-42d6-9761-696e2e6b6963,rev?*%
%TF.SameCoordinates,Original*%
%TF.FileFunction,Legend,Top*%
%TF.FilePolarity,Positive*%
%FSLAX46Y46*%
G04 Gerber Fmt 4.6, Leading zero omitted, Abs format (unit mm)*
G04 Created by KiCad (PCBNEW 5.1.10) date 2021-06-26 04:08:14*
%MOMM*%
%LPD*%
G01*
G04 APERTURE LIST*
%ADD10C,0.150000*%
%ADD11C,0.300000*%
%ADD12C,0.120000*%
G04 APERTURE END LIST*
D10*
X60119047Y-36785714D02*
X60119047Y-37785714D01*
X60119047Y-36833333D02*
X60214285Y-36785714D01*
X60404761Y-36785714D01*
X60500000Y-36833333D01*
X60547619Y-36880952D01*
X60595238Y-36976190D01*
X60595238Y-37261904D01*
X60547619Y-37357142D01*
X60500000Y-37404761D01*
X60404761Y-37452380D01*
X60214285Y-37452380D01*
X60119047Y-37404761D01*
X61023809Y-37452380D02*
X61023809Y-36785714D01*
X61023809Y-36452380D02*
X60976190Y-36500000D01*
X61023809Y-36547619D01*
X61071428Y-36500000D01*
X61023809Y-36452380D01*
X61023809Y-36547619D01*
X61500000Y-36785714D02*
X61500000Y-37452380D01*
X61500000Y-36880952D02*
X61547619Y-36833333D01*
X61642857Y-36785714D01*
X61785714Y-36785714D01*
X61880952Y-36833333D01*
X61928571Y-36928571D01*
X61928571Y-37452380D01*
X62928571Y-37452380D02*
X62357142Y-37452380D01*
X62642857Y-37452380D02*
X62642857Y-36452380D01*
X62547619Y-36595238D01*
X62452380Y-36690476D01*
X62357142Y-36738095D01*
X54619047Y-36785714D02*
X54619047Y-37785714D01*
X54619047Y-36833333D02*
X54714285Y-36785714D01*
X54904761Y-36785714D01*
X55000000Y-36833333D01*
X55047619Y-36880952D01*
X55095238Y-36976190D01*
X55095238Y-37261904D01*
X55047619Y-37357142D01*
X55000000Y-37404761D01*
X54904761Y-37452380D01*
X54714285Y-37452380D01*
X54619047Y-37404761D01*
X55523809Y-37452380D02*
X55523809Y-36785714D01*
X55523809Y-36452380D02*
X55476190Y-36500000D01*
X55523809Y-36547619D01*
X55571428Y-36500000D01*
X55523809Y-36452380D01*
X55523809Y-36547619D01*
X56000000Y-36785714D02*
X56000000Y-37452380D01*
X56000000Y-36880952D02*
X56047619Y-36833333D01*
X56142857Y-36785714D01*
X56285714Y-36785714D01*
X56380952Y-36833333D01*
X56428571Y-36928571D01*
X56428571Y-37452380D01*
X56857142Y-36547619D02*
X56904761Y-36500000D01*
X57000000Y-36452380D01*
X57238095Y-36452380D01*
X57333333Y-36500000D01*
X57380952Y-36547619D01*
X57428571Y-36642857D01*
X57428571Y-36738095D01*
X57380952Y-36880952D01*
X56809523Y-37452380D01*
X57428571Y-37452380D01*
X49619047Y-36785714D02*
X49619047Y-37785714D01*
X49619047Y-36833333D02*
X49714285Y-36785714D01*
X49904761Y-36785714D01*
X50000000Y-36833333D01*
X50047619Y-36880952D01*
X50095238Y-36976190D01*
X50095238Y-37261904D01*
X50047619Y-37357142D01*
X50000000Y-37404761D01*
X49904761Y-37452380D01*
X49714285Y-37452380D01*
X49619047Y-37404761D01*
X50523809Y-37452380D02*
X50523809Y-36785714D01*
X50523809Y-36452380D02*
X50476190Y-36500000D01*
X50523809Y-36547619D01*
X50571428Y-36500000D01*
X50523809Y-36452380D01*
X50523809Y-36547619D01*
X51000000Y-36785714D02*
X51000000Y-37452380D01*
X51000000Y-36880952D02*
X51047619Y-36833333D01*
X51142857Y-36785714D01*
X51285714Y-36785714D01*
X51380952Y-36833333D01*
X51428571Y-36928571D01*
X51428571Y-37452380D01*
X51809523Y-36452380D02*
X52428571Y-36452380D01*
X52095238Y-36833333D01*
X52238095Y-36833333D01*
X52333333Y-36880952D01*
X52380952Y-36928571D01*
X52428571Y-37023809D01*
X52428571Y-37261904D01*
X52380952Y-37357142D01*
X52333333Y-37404761D01*
X52238095Y-37452380D01*
X51952380Y-37452380D01*
X51857142Y-37404761D01*
X51809523Y-37357142D01*
X64500000Y-122500000D02*
X66000000Y-122500000D01*
X60500000Y-122500000D02*
X59000000Y-122500000D01*
X51000000Y-123000000D02*
X53000000Y-123000000D01*
X47000000Y-123000000D02*
X45000000Y-123000000D01*
X65000000Y-123500000D02*
X66000000Y-123500000D01*
X64500000Y-121000000D02*
X64500000Y-124000000D01*
X61000000Y-123500000D02*
X61000000Y-121500000D01*
X64000000Y-121500000D02*
X64000000Y-123500000D01*
X61000000Y-121500000D02*
X64000000Y-121500000D01*
X65500000Y-123000000D02*
X65500000Y-124000000D01*
X60500000Y-121000000D02*
X60500000Y-124000000D01*
X61000000Y-123500000D02*
X64000000Y-123500000D01*
X46000000Y-123500000D02*
X46000000Y-124500000D01*
X45500000Y-124000000D02*
X46500000Y-124000000D01*
X51000000Y-121500000D02*
X51000000Y-124500000D01*
X47500000Y-124000000D02*
X50500000Y-124000000D01*
X50500000Y-122000000D02*
X50500000Y-124000000D01*
X47500000Y-122000000D02*
X50500000Y-122000000D01*
X47500000Y-124000000D02*
X47500000Y-122000000D01*
X47000000Y-121500000D02*
X47000000Y-124500000D01*
X49285714Y-126357142D02*
X49238095Y-126404761D01*
X49095238Y-126452380D01*
X49000000Y-126452380D01*
X48857142Y-126404761D01*
X48761904Y-126309523D01*
X48714285Y-126214285D01*
X48666666Y-126023809D01*
X48666666Y-125880952D01*
X48714285Y-125690476D01*
X48761904Y-125595238D01*
X48857142Y-125500000D01*
X49000000Y-125452380D01*
X49095238Y-125452380D01*
X49238095Y-125500000D01*
X49285714Y-125547619D01*
X50285714Y-126357142D02*
X50238095Y-126404761D01*
X50095238Y-126452380D01*
X50000000Y-126452380D01*
X49857142Y-126404761D01*
X49761904Y-126309523D01*
X49714285Y-126214285D01*
X49666666Y-126023809D01*
X49666666Y-125880952D01*
X49714285Y-125690476D01*
X49761904Y-125595238D01*
X49857142Y-125500000D01*
X50000000Y-125452380D01*
X50095238Y-125452380D01*
X50238095Y-125500000D01*
X50285714Y-125547619D01*
X50714285Y-126071428D02*
X51476190Y-126071428D01*
X52285714Y-125928571D02*
X52428571Y-125976190D01*
X52476190Y-126023809D01*
X52523809Y-126119047D01*
X52523809Y-126261904D01*
X52476190Y-126357142D01*
X52428571Y-126404761D01*
X52333333Y-126452380D01*
X51952380Y-126452380D01*
X51952380Y-125452380D01*
X52285714Y-125452380D01*
X52380952Y-125500000D01*
X52428571Y-125547619D01*
X52476190Y-125642857D01*
X52476190Y-125738095D01*
X52428571Y-125833333D01*
X52380952Y-125880952D01*
X52285714Y-125928571D01*
X51952380Y-125928571D01*
X53142857Y-125976190D02*
X53142857Y-126452380D01*
X52809523Y-125452380D02*
X53142857Y-125976190D01*
X53476190Y-125452380D01*
X53809523Y-126071428D02*
X54571428Y-126071428D01*
X55476190Y-125785714D02*
X55476190Y-126452380D01*
X55238095Y-125404761D02*
X55000000Y-126119047D01*
X55619047Y-126119047D01*
X56000000Y-126357142D02*
X56047619Y-126404761D01*
X56000000Y-126452380D01*
X55952380Y-126404761D01*
X56000000Y-126357142D01*
X56000000Y-126452380D01*
X56666666Y-125452380D02*
X56761904Y-125452380D01*
X56857142Y-125500000D01*
X56904761Y-125547619D01*
X56952380Y-125642857D01*
X57000000Y-125833333D01*
X57000000Y-126071428D01*
X56952380Y-126261904D01*
X56904761Y-126357142D01*
X56857142Y-126404761D01*
X56761904Y-126452380D01*
X56666666Y-126452380D01*
X56571428Y-126404761D01*
X56523809Y-126357142D01*
X56476190Y-126261904D01*
X56428571Y-126071428D01*
X56428571Y-125833333D01*
X56476190Y-125642857D01*
X56523809Y-125547619D01*
X56571428Y-125500000D01*
X56666666Y-125452380D01*
X58666666Y-126452380D02*
X58190476Y-126452380D01*
X58190476Y-125452380D01*
X59000000Y-126452380D02*
X59000000Y-125785714D01*
X59000000Y-125452380D02*
X58952380Y-125500000D01*
X59000000Y-125547619D01*
X59047619Y-125500000D01*
X59000000Y-125452380D01*
X59000000Y-125547619D01*
X59904761Y-126404761D02*
X59809523Y-126452380D01*
X59619047Y-126452380D01*
X59523809Y-126404761D01*
X59476190Y-126357142D01*
X59428571Y-126261904D01*
X59428571Y-125976190D01*
X59476190Y-125880952D01*
X59523809Y-125833333D01*
X59619047Y-125785714D01*
X59809523Y-125785714D01*
X59904761Y-125833333D01*
X60714285Y-126404761D02*
X60619047Y-126452380D01*
X60428571Y-126452380D01*
X60333333Y-126404761D01*
X60285714Y-126309523D01*
X60285714Y-125928571D01*
X60333333Y-125833333D01*
X60428571Y-125785714D01*
X60619047Y-125785714D01*
X60714285Y-125833333D01*
X60761904Y-125928571D01*
X60761904Y-126023809D01*
X60285714Y-126119047D01*
X61190476Y-125785714D02*
X61190476Y-126452380D01*
X61190476Y-125880952D02*
X61238095Y-125833333D01*
X61333333Y-125785714D01*
X61476190Y-125785714D01*
X61571428Y-125833333D01*
X61619047Y-125928571D01*
X61619047Y-126452380D01*
X62047619Y-126404761D02*
X62142857Y-126452380D01*
X62333333Y-126452380D01*
X62428571Y-126404761D01*
X62476190Y-126309523D01*
X62476190Y-126261904D01*
X62428571Y-126166666D01*
X62333333Y-126119047D01*
X62190476Y-126119047D01*
X62095238Y-126071428D01*
X62047619Y-125976190D01*
X62047619Y-125928571D01*
X62095238Y-125833333D01*
X62190476Y-125785714D01*
X62333333Y-125785714D01*
X62428571Y-125833333D01*
X63285714Y-126404761D02*
X63190476Y-126452380D01*
X63000000Y-126452380D01*
X62904761Y-126404761D01*
X62857142Y-126309523D01*
X62857142Y-125928571D01*
X62904761Y-125833333D01*
X63000000Y-125785714D01*
X63190476Y-125785714D01*
X63285714Y-125833333D01*
X63333333Y-125928571D01*
X63333333Y-126023809D01*
X62857142Y-126119047D01*
D11*
X40178571Y-124107142D02*
X39464285Y-124607142D01*
X40178571Y-124964285D02*
X38678571Y-124964285D01*
X38678571Y-124392857D01*
X38750000Y-124249999D01*
X38821428Y-124178571D01*
X38964285Y-124107142D01*
X39178571Y-124107142D01*
X39321428Y-124178571D01*
X39392857Y-124249999D01*
X39464285Y-124392857D01*
X39464285Y-124964285D01*
X38821428Y-123535714D02*
X38750000Y-123464285D01*
X38678571Y-123321428D01*
X38678571Y-122964285D01*
X38750000Y-122821428D01*
X38821428Y-122749999D01*
X38964285Y-122678571D01*
X39107142Y-122678571D01*
X39321428Y-122749999D01*
X40178571Y-123607142D01*
X40178571Y-122678571D01*
X40178571Y-120249999D02*
X39392857Y-120249999D01*
X39250000Y-120321428D01*
X39178571Y-120464285D01*
X39178571Y-120749999D01*
X39250000Y-120892857D01*
X40107142Y-120249999D02*
X40178571Y-120392857D01*
X40178571Y-120749999D01*
X40107142Y-120892857D01*
X39964285Y-120964285D01*
X39821428Y-120964285D01*
X39678571Y-120892857D01*
X39607142Y-120749999D01*
X39607142Y-120392857D01*
X39535714Y-120249999D01*
X39178571Y-119535714D02*
X40178571Y-119535714D01*
X39321428Y-119535714D02*
X39250000Y-119464285D01*
X39178571Y-119321428D01*
X39178571Y-119107142D01*
X39250000Y-118964285D01*
X39392857Y-118892857D01*
X40178571Y-118892857D01*
X40178571Y-117535714D02*
X38678571Y-117535714D01*
X40107142Y-117535714D02*
X40178571Y-117678571D01*
X40178571Y-117964285D01*
X40107142Y-118107142D01*
X40035714Y-118178571D01*
X39892857Y-118249999D01*
X39464285Y-118249999D01*
X39321428Y-118178571D01*
X39250000Y-118107142D01*
X39178571Y-117964285D01*
X39178571Y-117678571D01*
X39250000Y-117535714D01*
X40178571Y-114821428D02*
X39464285Y-115321428D01*
X40178571Y-115678571D02*
X38678571Y-115678571D01*
X38678571Y-115107142D01*
X38750000Y-114964285D01*
X38821428Y-114892857D01*
X38964285Y-114821428D01*
X39178571Y-114821428D01*
X39321428Y-114892857D01*
X39392857Y-114964285D01*
X39464285Y-115107142D01*
X39464285Y-115678571D01*
X40178571Y-113392857D02*
X40178571Y-114249999D01*
X40178571Y-113821428D02*
X38678571Y-113821428D01*
X38892857Y-113964285D01*
X39035714Y-114107142D01*
X39107142Y-114249999D01*
X38678571Y-112892857D02*
X38678571Y-111964285D01*
X39250000Y-112464285D01*
X39250000Y-112249999D01*
X39321428Y-112107142D01*
X39392857Y-112035714D01*
X39535714Y-111964285D01*
X39892857Y-111964285D01*
X40035714Y-112035714D01*
X40107142Y-112107142D01*
X40178571Y-112249999D01*
X40178571Y-112678571D01*
X40107142Y-112821428D01*
X40035714Y-112892857D01*
X38750000Y-109392857D02*
X38678571Y-109535714D01*
X38678571Y-109749999D01*
X38750000Y-109964285D01*
X38892857Y-110107142D01*
X39035714Y-110178571D01*
X39321428Y-110249999D01*
X39535714Y-110249999D01*
X39821428Y-110178571D01*
X39964285Y-110107142D01*
X40107142Y-109964285D01*
X40178571Y-109749999D01*
X40178571Y-109607142D01*
X40107142Y-109392857D01*
X40035714Y-109321428D01*
X39535714Y-109321428D01*
X39535714Y-109607142D01*
X40178571Y-108035714D02*
X39392857Y-108035714D01*
X39250000Y-108107142D01*
X39178571Y-108249999D01*
X39178571Y-108535714D01*
X39250000Y-108678571D01*
X40107142Y-108035714D02*
X40178571Y-108178571D01*
X40178571Y-108535714D01*
X40107142Y-108678571D01*
X39964285Y-108749999D01*
X39821428Y-108749999D01*
X39678571Y-108678571D01*
X39607142Y-108535714D01*
X39607142Y-108178571D01*
X39535714Y-108035714D01*
X40178571Y-107321428D02*
X39178571Y-107321428D01*
X38678571Y-107321428D02*
X38750000Y-107392857D01*
X38821428Y-107321428D01*
X38750000Y-107249999D01*
X38678571Y-107321428D01*
X38821428Y-107321428D01*
X39178571Y-106607142D02*
X40178571Y-106607142D01*
X39321428Y-106607142D02*
X39250000Y-106535714D01*
X39178571Y-106392857D01*
X39178571Y-106178571D01*
X39250000Y-106035714D01*
X39392857Y-105964285D01*
X40178571Y-105964285D01*
X39178571Y-104249999D02*
X40178571Y-103892857D01*
X39178571Y-103535714D01*
X40178571Y-102321428D02*
X39392857Y-102321428D01*
X39250000Y-102392857D01*
X39178571Y-102535714D01*
X39178571Y-102821428D01*
X39250000Y-102964285D01*
X40107142Y-102321428D02*
X40178571Y-102464285D01*
X40178571Y-102821428D01*
X40107142Y-102964285D01*
X39964285Y-103035714D01*
X39821428Y-103035714D01*
X39678571Y-102964285D01*
X39607142Y-102821428D01*
X39607142Y-102464285D01*
X39535714Y-102321428D01*
X40178571Y-101392857D02*
X40107142Y-101535714D01*
X39964285Y-101607142D01*
X38678571Y-101607142D01*
X39178571Y-100178571D02*
X40178571Y-100178571D01*
X39178571Y-100821428D02*
X39964285Y-100821428D01*
X40107142Y-100749999D01*
X40178571Y-100607142D01*
X40178571Y-100392857D01*
X40107142Y-100249999D01*
X40035714Y-100178571D01*
X40107142Y-98892857D02*
X40178571Y-99035714D01*
X40178571Y-99321428D01*
X40107142Y-99464285D01*
X39964285Y-99535714D01*
X39392857Y-99535714D01*
X39250000Y-99464285D01*
X39178571Y-99321428D01*
X39178571Y-99035714D01*
X39250000Y-98892857D01*
X39392857Y-98821428D01*
X39535714Y-98821428D01*
X39678571Y-99535714D01*
X40107142Y-98249999D02*
X40178571Y-98107142D01*
X40178571Y-97821428D01*
X40107142Y-97678571D01*
X39964285Y-97607142D01*
X39892857Y-97607142D01*
X39750000Y-97678571D01*
X39678571Y-97821428D01*
X39678571Y-98035714D01*
X39607142Y-98178571D01*
X39464285Y-98249999D01*
X39392857Y-98249999D01*
X39250000Y-98178571D01*
X39178571Y-98035714D01*
X39178571Y-97821428D01*
X39250000Y-97678571D01*
X40178571Y-95821428D02*
X39178571Y-95821428D01*
X38678571Y-95821428D02*
X38750000Y-95892857D01*
X38821428Y-95821428D01*
X38750000Y-95749999D01*
X38678571Y-95821428D01*
X38821428Y-95821428D01*
X39178571Y-95107142D02*
X40178571Y-95107142D01*
X39321428Y-95107142D02*
X39250000Y-95035714D01*
X39178571Y-94892857D01*
X39178571Y-94678571D01*
X39250000Y-94535714D01*
X39392857Y-94464285D01*
X40178571Y-94464285D01*
X40178571Y-91964285D02*
X38678571Y-91964285D01*
X40107142Y-91964285D02*
X40178571Y-92107142D01*
X40178571Y-92392857D01*
X40107142Y-92535714D01*
X40035714Y-92607142D01*
X39892857Y-92678571D01*
X39464285Y-92678571D01*
X39321428Y-92607142D01*
X39250000Y-92535714D01*
X39178571Y-92392857D01*
X39178571Y-92107142D01*
X39250000Y-91964285D01*
X39392857Y-90749999D02*
X39464285Y-90535714D01*
X39535714Y-90464285D01*
X39678571Y-90392857D01*
X39892857Y-90392857D01*
X40035714Y-90464285D01*
X40107142Y-90535714D01*
X40178571Y-90678571D01*
X40178571Y-91249999D01*
X38678571Y-91249999D01*
X38678571Y-90749999D01*
X38750000Y-90607142D01*
X38821428Y-90535714D01*
X38964285Y-90464285D01*
X39107142Y-90464285D01*
X39250000Y-90535714D01*
X39321428Y-90607142D01*
X39392857Y-90749999D01*
X39392857Y-91249999D01*
X40035714Y-89749999D02*
X40107142Y-89678571D01*
X40178571Y-89749999D01*
X40107142Y-89821428D01*
X40035714Y-89749999D01*
X40178571Y-89749999D01*
X39250000Y-89749999D02*
X39321428Y-89678571D01*
X39392857Y-89749999D01*
X39321428Y-89821428D01*
X39250000Y-89749999D01*
X39392857Y-89749999D01*
X38821428Y-87964285D02*
X38750000Y-87892857D01*
X38678571Y-87749999D01*
X38678571Y-87392857D01*
X38750000Y-87249999D01*
X38821428Y-87178571D01*
X38964285Y-87107142D01*
X39107142Y-87107142D01*
X39321428Y-87178571D01*
X40178571Y-88035714D01*
X40178571Y-87107142D01*
X40178571Y-86464285D02*
X38678571Y-86464285D01*
X40178571Y-85607142D02*
X39321428Y-86249999D01*
X38678571Y-85607142D02*
X39535714Y-86464285D01*
X39392857Y-84964285D02*
X39392857Y-83821428D01*
X39821428Y-83821428D02*
X39821428Y-84964285D01*
X38821428Y-83178571D02*
X38750000Y-83107142D01*
X38678571Y-82964285D01*
X38678571Y-82607142D01*
X38750000Y-82464285D01*
X38821428Y-82392857D01*
X38964285Y-82321428D01*
X39107142Y-82321428D01*
X39321428Y-82392857D01*
X40178571Y-83249999D01*
X40178571Y-82321428D01*
X38678571Y-81035714D02*
X38678571Y-81321428D01*
X38750000Y-81464285D01*
X38821428Y-81535714D01*
X39035714Y-81678571D01*
X39321428Y-81749999D01*
X39892857Y-81749999D01*
X40035714Y-81678571D01*
X40107142Y-81607142D01*
X40178571Y-81464285D01*
X40178571Y-81178571D01*
X40107142Y-81035714D01*
X40035714Y-80964285D01*
X39892857Y-80892857D01*
X39535714Y-80892857D01*
X39392857Y-80964285D01*
X39321428Y-81035714D01*
X39250000Y-81178571D01*
X39250000Y-81464285D01*
X39321428Y-81607142D01*
X39392857Y-81678571D01*
X39535714Y-81749999D01*
X40107142Y-80178571D02*
X40178571Y-80178571D01*
X40321428Y-80249999D01*
X40392857Y-80321428D01*
X38678571Y-79678571D02*
X38678571Y-78749999D01*
X39250000Y-79249999D01*
X39250000Y-79035714D01*
X39321428Y-78892857D01*
X39392857Y-78821428D01*
X39535714Y-78749999D01*
X39892857Y-78749999D01*
X40035714Y-78821428D01*
X40107142Y-78892857D01*
X40178571Y-79035714D01*
X40178571Y-79464285D01*
X40107142Y-79607142D01*
X40035714Y-79678571D01*
X40178571Y-78107142D02*
X38678571Y-78107142D01*
X40178571Y-77249999D02*
X39321428Y-77892857D01*
X38678571Y-77249999D02*
X39535714Y-78107142D01*
X39392857Y-76607142D02*
X39392857Y-75464285D01*
X39821428Y-75464285D02*
X39821428Y-76607142D01*
X38821428Y-74821428D02*
X38750000Y-74749999D01*
X38678571Y-74607142D01*
X38678571Y-74249999D01*
X38750000Y-74107142D01*
X38821428Y-74035714D01*
X38964285Y-73964285D01*
X39107142Y-73964285D01*
X39321428Y-74035714D01*
X40178571Y-74892857D01*
X40178571Y-73964285D01*
X40178571Y-73249999D02*
X40178571Y-72964285D01*
X40107142Y-72821428D01*
X40035714Y-72749999D01*
X39821428Y-72607142D01*
X39535714Y-72535714D01*
X38964285Y-72535714D01*
X38821428Y-72607142D01*
X38750000Y-72678571D01*
X38678571Y-72821428D01*
X38678571Y-73107142D01*
X38750000Y-73249999D01*
X38821428Y-73321428D01*
X38964285Y-73392857D01*
X39321428Y-73392857D01*
X39464285Y-73321428D01*
X39535714Y-73249999D01*
X39607142Y-73107142D01*
X39607142Y-72821428D01*
X39535714Y-72678571D01*
X39464285Y-72607142D01*
X39321428Y-72535714D01*
X40107142Y-71821428D02*
X40178571Y-71821428D01*
X40321428Y-71892857D01*
X40392857Y-71964285D01*
X39178571Y-70535714D02*
X40178571Y-70535714D01*
X38607142Y-70892857D02*
X39678571Y-71249999D01*
X39678571Y-70321428D01*
X40178571Y-69749999D02*
X38678571Y-69749999D01*
X40178571Y-68892857D02*
X39321428Y-69535714D01*
X38678571Y-68892857D02*
X39535714Y-69749999D01*
X39392857Y-68249999D02*
X39392857Y-67107142D01*
X39821428Y-67107142D02*
X39821428Y-68249999D01*
X38678571Y-66535714D02*
X38678571Y-65607142D01*
X39250000Y-66107142D01*
X39250000Y-65892857D01*
X39321428Y-65749999D01*
X39392857Y-65678571D01*
X39535714Y-65607142D01*
X39892857Y-65607142D01*
X40035714Y-65678571D01*
X40107142Y-65749999D01*
X40178571Y-65892857D01*
X40178571Y-66321428D01*
X40107142Y-66464285D01*
X40035714Y-66535714D01*
X38821428Y-65035714D02*
X38750000Y-64964285D01*
X38678571Y-64821428D01*
X38678571Y-64464285D01*
X38750000Y-64321428D01*
X38821428Y-64249999D01*
X38964285Y-64178571D01*
X39107142Y-64178571D01*
X39321428Y-64249999D01*
X40178571Y-65107142D01*
X40178571Y-64178571D01*
X40107142Y-63464285D02*
X40178571Y-63464285D01*
X40321428Y-63535714D01*
X40392857Y-63607142D01*
X38678571Y-62107142D02*
X38678571Y-62821428D01*
X39392857Y-62892857D01*
X39321428Y-62821428D01*
X39250000Y-62678571D01*
X39250000Y-62321428D01*
X39321428Y-62178571D01*
X39392857Y-62107142D01*
X39535714Y-62035714D01*
X39892857Y-62035714D01*
X40035714Y-62107142D01*
X40107142Y-62178571D01*
X40178571Y-62321428D01*
X40178571Y-62678571D01*
X40107142Y-62821428D01*
X40035714Y-62892857D01*
X40178571Y-61392857D02*
X38678571Y-61392857D01*
X40178571Y-60535714D02*
X39321428Y-61178571D01*
X38678571Y-60535714D02*
X39535714Y-61392857D01*
X39392857Y-59892857D02*
X39392857Y-58749999D01*
X39821428Y-58749999D02*
X39821428Y-59892857D01*
X38678571Y-58178571D02*
X38678571Y-57249999D01*
X39250000Y-57749999D01*
X39250000Y-57535714D01*
X39321428Y-57392857D01*
X39392857Y-57321428D01*
X39535714Y-57249999D01*
X39892857Y-57249999D01*
X40035714Y-57321428D01*
X40107142Y-57392857D01*
X40178571Y-57535714D01*
X40178571Y-57964285D01*
X40107142Y-58107142D01*
X40035714Y-58178571D01*
X39178571Y-55964285D02*
X40178571Y-55964285D01*
X38607142Y-56321428D02*
X39678571Y-56678571D01*
X39678571Y-55749999D01*
X40107142Y-55107142D02*
X40178571Y-55107142D01*
X40321428Y-55178571D01*
X40392857Y-55249999D01*
X38678571Y-53821428D02*
X38678571Y-54107142D01*
X38750000Y-54249999D01*
X38821428Y-54321428D01*
X39035714Y-54464285D01*
X39321428Y-54535714D01*
X39892857Y-54535714D01*
X40035714Y-54464285D01*
X40107142Y-54392857D01*
X40178571Y-54249999D01*
X40178571Y-53964285D01*
X40107142Y-53821428D01*
X40035714Y-53749999D01*
X39892857Y-53678571D01*
X39535714Y-53678571D01*
X39392857Y-53749999D01*
X39321428Y-53821428D01*
X39250000Y-53964285D01*
X39250000Y-54249999D01*
X39321428Y-54392857D01*
X39392857Y-54464285D01*
X39535714Y-54535714D01*
X40178571Y-53035714D02*
X38678571Y-53035714D01*
X40178571Y-52178571D02*
X39321428Y-52821428D01*
X38678571Y-52178571D02*
X39535714Y-53035714D01*
X39392857Y-51535714D02*
X39392857Y-50392857D01*
X39821428Y-50392857D02*
X39821428Y-51535714D01*
X38678571Y-49821428D02*
X38678571Y-48892857D01*
X39250000Y-49392857D01*
X39250000Y-49178571D01*
X39321428Y-49035714D01*
X39392857Y-48964285D01*
X39535714Y-48892857D01*
X39892857Y-48892857D01*
X40035714Y-48964285D01*
X40107142Y-49035714D01*
X40178571Y-49178571D01*
X40178571Y-49607142D01*
X40107142Y-49749999D01*
X40035714Y-49821428D01*
X38678571Y-47535714D02*
X38678571Y-48249999D01*
X39392857Y-48321428D01*
X39321428Y-48249999D01*
X39250000Y-48107142D01*
X39250000Y-47749999D01*
X39321428Y-47607142D01*
X39392857Y-47535714D01*
X39535714Y-47464285D01*
X39892857Y-47464285D01*
X40035714Y-47535714D01*
X40107142Y-47607142D01*
X40178571Y-47749999D01*
X40178571Y-48107142D01*
X40107142Y-48249999D01*
X40035714Y-48321428D01*
X40107142Y-46749999D02*
X40178571Y-46749999D01*
X40321428Y-46821428D01*
X40392857Y-46892857D01*
X38678571Y-45107142D02*
X38678571Y-44107142D01*
X40178571Y-44749999D01*
X40178571Y-43535714D02*
X38678571Y-43535714D01*
X40178571Y-42678571D02*
X39321428Y-43321428D01*
X38678571Y-42678571D02*
X39535714Y-43535714D01*
X39392857Y-42035714D02*
X39392857Y-40892857D01*
X39821428Y-40892857D02*
X39821428Y-42035714D01*
X38678571Y-40321428D02*
X38678571Y-39392857D01*
X39250000Y-39892857D01*
X39250000Y-39678571D01*
X39321428Y-39535714D01*
X39392857Y-39464285D01*
X39535714Y-39392857D01*
X39892857Y-39392857D01*
X40035714Y-39464285D01*
X40107142Y-39535714D01*
X40178571Y-39678571D01*
X40178571Y-40107142D01*
X40107142Y-40249999D01*
X40035714Y-40321428D01*
X38678571Y-38892857D02*
X38678571Y-37892857D01*
X40178571Y-38535714D01*
D10*
X46785714Y-35571428D02*
X47547619Y-35571428D01*
X47166666Y-35952380D02*
X47166666Y-35190476D01*
X48452380Y-35285714D02*
X48452380Y-35952380D01*
X48214285Y-34904761D02*
X47976190Y-35619047D01*
X48595238Y-35619047D01*
X49119047Y-35380952D02*
X49023809Y-35333333D01*
X48976190Y-35285714D01*
X48928571Y-35190476D01*
X48928571Y-35142857D01*
X48976190Y-35047619D01*
X49023809Y-35000000D01*
X49119047Y-34952380D01*
X49309523Y-34952380D01*
X49404761Y-35000000D01*
X49452380Y-35047619D01*
X49500000Y-35142857D01*
X49500000Y-35190476D01*
X49452380Y-35285714D01*
X49404761Y-35333333D01*
X49309523Y-35380952D01*
X49119047Y-35380952D01*
X49023809Y-35428571D01*
X48976190Y-35476190D01*
X48928571Y-35571428D01*
X48928571Y-35761904D01*
X48976190Y-35857142D01*
X49023809Y-35904761D01*
X49119047Y-35952380D01*
X49309523Y-35952380D01*
X49404761Y-35904761D01*
X49452380Y-35857142D01*
X49500000Y-35761904D01*
X49500000Y-35571428D01*
X49452380Y-35476190D01*
X49404761Y-35428571D01*
X49309523Y-35380952D01*
X50547619Y-34952380D02*
X50880952Y-35952380D01*
X51214285Y-34952380D01*
X51738095Y-34952380D02*
X51928571Y-34952380D01*
X52023809Y-35000000D01*
X52119047Y-35095238D01*
X52166666Y-35285714D01*
X52166666Y-35619047D01*
X52119047Y-35809523D01*
X52023809Y-35904761D01*
X51928571Y-35952380D01*
X51738095Y-35952380D01*
X51642857Y-35904761D01*
X51547619Y-35809523D01*
X51500000Y-35619047D01*
X51500000Y-35285714D01*
X51547619Y-35095238D01*
X51642857Y-35000000D01*
X51738095Y-34952380D01*
X53071428Y-35952380D02*
X52595238Y-35952380D01*
X52595238Y-34952380D01*
X53261904Y-34952380D02*
X53833333Y-34952380D01*
X53547619Y-35952380D02*
X53547619Y-34952380D01*
X54928571Y-35952380D02*
X54928571Y-34952380D01*
X55309523Y-34952380D01*
X55404761Y-35000000D01*
X55452380Y-35047619D01*
X55500000Y-35142857D01*
X55500000Y-35285714D01*
X55452380Y-35380952D01*
X55404761Y-35428571D01*
X55309523Y-35476190D01*
X54928571Y-35476190D01*
X55928571Y-35952380D02*
X55928571Y-34952380D01*
X55928571Y-35428571D02*
X56500000Y-35428571D01*
X56500000Y-35952380D02*
X56500000Y-34952380D01*
X56928571Y-35666666D02*
X57404761Y-35666666D01*
X56833333Y-35952380D02*
X57166666Y-34952380D01*
X57500000Y-35952380D01*
X57833333Y-35952380D02*
X57833333Y-34952380D01*
X58404761Y-35952380D01*
X58404761Y-34952380D01*
X58738095Y-34952380D02*
X59309523Y-34952380D01*
X59023809Y-35952380D02*
X59023809Y-34952380D01*
X59833333Y-34952380D02*
X60023809Y-34952380D01*
X60119047Y-35000000D01*
X60214285Y-35095238D01*
X60261904Y-35285714D01*
X60261904Y-35619047D01*
X60214285Y-35809523D01*
X60119047Y-35904761D01*
X60023809Y-35952380D01*
X59833333Y-35952380D01*
X59738095Y-35904761D01*
X59642857Y-35809523D01*
X59595238Y-35619047D01*
X59595238Y-35285714D01*
X59642857Y-35095238D01*
X59738095Y-35000000D01*
X59833333Y-34952380D01*
X60690476Y-35952380D02*
X60690476Y-34952380D01*
X61023809Y-35666666D01*
X61357142Y-34952380D01*
X61357142Y-35952380D01*
X62595238Y-35952380D02*
X62595238Y-34952380D01*
X62976190Y-34952380D01*
X63071428Y-35000000D01*
X63119047Y-35047619D01*
X63166666Y-35142857D01*
X63166666Y-35285714D01*
X63119047Y-35380952D01*
X63071428Y-35428571D01*
X62976190Y-35476190D01*
X62595238Y-35476190D01*
X63785714Y-34952380D02*
X63976190Y-34952380D01*
X64071428Y-35000000D01*
X64166666Y-35095238D01*
X64214285Y-35285714D01*
X64214285Y-35619047D01*
X64166666Y-35809523D01*
X64071428Y-35904761D01*
X63976190Y-35952380D01*
X63785714Y-35952380D01*
X63690476Y-35904761D01*
X63595238Y-35809523D01*
X63547619Y-35619047D01*
X63547619Y-35285714D01*
X63595238Y-35095238D01*
X63690476Y-35000000D01*
X63785714Y-34952380D01*
X64547619Y-34952380D02*
X64785714Y-35952380D01*
X64976190Y-35238095D01*
X65166666Y-35952380D01*
X65404761Y-34952380D01*
X65785714Y-35428571D02*
X66119047Y-35428571D01*
X66261904Y-35952380D02*
X65785714Y-35952380D01*
X65785714Y-34952380D01*
X66261904Y-34952380D01*
X67261904Y-35952380D02*
X66928571Y-35476190D01*
X66690476Y-35952380D02*
X66690476Y-34952380D01*
X67071428Y-34952380D01*
X67166666Y-35000000D01*
X67214285Y-35047619D01*
X67261904Y-35142857D01*
X67261904Y-35285714D01*
X67214285Y-35380952D01*
X67166666Y-35428571D01*
X67071428Y-35476190D01*
X66690476Y-35476190D01*
D12*
%TO.C,U2*%
X66810000Y-87330000D02*
X68460000Y-87330000D01*
X68460000Y-87330000D02*
X68460000Y-77050000D01*
X68460000Y-77050000D02*
X63160000Y-77050000D01*
X63160000Y-77050000D02*
X63160000Y-87330000D01*
X63160000Y-87330000D02*
X64810000Y-87330000D01*
X70950000Y-87390000D02*
X70950000Y-76990000D01*
X70950000Y-76990000D02*
X60670000Y-76990000D01*
X60670000Y-76990000D02*
X60670000Y-87390000D01*
X60670000Y-87390000D02*
X70950000Y-87390000D01*
X64810000Y-87330000D02*
G75*
G02*
X66810000Y-87330000I1000000J0D01*
G01*
%TO.C,C1*%
X60130000Y-55870000D02*
X60130000Y-50630000D01*
X62870000Y-55870000D02*
X62870000Y-50630000D01*
X60130000Y-55870000D02*
X62870000Y-55870000D01*
X60130000Y-50630000D02*
X62870000Y-50630000D01*
%TO.C,C2*%
X55130000Y-50630000D02*
X57870000Y-50630000D01*
X55130000Y-55870000D02*
X57870000Y-55870000D01*
X57870000Y-55870000D02*
X57870000Y-50630000D01*
X55130000Y-55870000D02*
X55130000Y-50630000D01*
%TO.C,C3*%
X50130000Y-55870000D02*
X50130000Y-50630000D01*
X52870000Y-55870000D02*
X52870000Y-50630000D01*
X50130000Y-55870000D02*
X52870000Y-55870000D01*
X50130000Y-50630000D02*
X52870000Y-50630000D01*
%TO.C,C4*%
X45130000Y-50630000D02*
X47870000Y-50630000D01*
X45130000Y-55870000D02*
X47870000Y-55870000D01*
X47870000Y-55870000D02*
X47870000Y-50630000D01*
X45130000Y-55870000D02*
X45130000Y-50630000D01*
%TO.C,C6*%
X47130000Y-74870000D02*
X47130000Y-72130000D01*
X52370000Y-74870000D02*
X52370000Y-72130000D01*
X52370000Y-72130000D02*
X47130000Y-72130000D01*
X52370000Y-74870000D02*
X47130000Y-74870000D01*
%TO.C,C7*%
X65130000Y-55870000D02*
X65130000Y-50630000D01*
X67870000Y-55870000D02*
X67870000Y-50630000D01*
X65130000Y-55870000D02*
X67870000Y-55870000D01*
X65130000Y-50630000D02*
X67870000Y-50630000D01*
%TO.C,C8*%
X53630000Y-114370000D02*
X53630000Y-111630000D01*
X58870000Y-114370000D02*
X58870000Y-111630000D01*
X58870000Y-111630000D02*
X53630000Y-111630000D01*
X58870000Y-114370000D02*
X53630000Y-114370000D01*
%TO.C,D1*%
X58310000Y-69120000D02*
X58310000Y-66880000D01*
X58310000Y-66880000D02*
X54070000Y-66880000D01*
X54070000Y-66880000D02*
X54070000Y-69120000D01*
X54070000Y-69120000D02*
X58310000Y-69120000D01*
X58960000Y-68000000D02*
X58310000Y-68000000D01*
X53420000Y-68000000D02*
X54070000Y-68000000D01*
X57590000Y-69120000D02*
X57590000Y-66880000D01*
X57470000Y-69120000D02*
X57470000Y-66880000D01*
X57710000Y-69120000D02*
X57710000Y-66880000D01*
%TO.C,D2*%
X48670000Y-96880000D02*
X48670000Y-99120000D01*
X48910000Y-96880000D02*
X48910000Y-99120000D01*
X48790000Y-96880000D02*
X48790000Y-99120000D01*
X52960000Y-98000000D02*
X52310000Y-98000000D01*
X47420000Y-98000000D02*
X48070000Y-98000000D01*
X52310000Y-96880000D02*
X48070000Y-96880000D01*
X52310000Y-99120000D02*
X52310000Y-96880000D01*
X48070000Y-99120000D02*
X52310000Y-99120000D01*
X48070000Y-96880000D02*
X48070000Y-99120000D01*
%TO.C,D3*%
X61290000Y-96880000D02*
X61290000Y-99120000D01*
X61530000Y-96880000D02*
X61530000Y-99120000D01*
X61410000Y-96880000D02*
X61410000Y-99120000D01*
X65580000Y-98000000D02*
X64930000Y-98000000D01*
X60040000Y-98000000D02*
X60690000Y-98000000D01*
X64930000Y-96880000D02*
X60690000Y-96880000D01*
X64930000Y-99120000D02*
X64930000Y-96880000D01*
X60690000Y-99120000D02*
X64930000Y-99120000D01*
X60690000Y-96880000D02*
X60690000Y-99120000D01*
%TO.C,R1*%
X65920000Y-64620000D02*
X65920000Y-68460000D01*
X64080000Y-64620000D02*
X64080000Y-68460000D01*
%TO.C,R2*%
X55420000Y-79540000D02*
X55420000Y-83380000D01*
X53580000Y-79540000D02*
X53580000Y-83380000D01*
%TO.C,R3*%
X44920000Y-68380000D02*
X44920000Y-64540000D01*
X43080000Y-68380000D02*
X43080000Y-64540000D01*
%TO.C,R4*%
X58380000Y-64920000D02*
X54540000Y-64920000D01*
X58380000Y-63080000D02*
X54540000Y-63080000D01*
%TO.C,R5*%
X47080000Y-64620000D02*
X47080000Y-68460000D01*
X48920000Y-64620000D02*
X48920000Y-68460000D01*
%TO.C,R6*%
X50040000Y-107080000D02*
X53880000Y-107080000D01*
X50040000Y-108920000D02*
X53880000Y-108920000D01*
%TO.C,R7*%
X47420000Y-105620000D02*
X47420000Y-109460000D01*
X45580000Y-105620000D02*
X45580000Y-109460000D01*
%TO.C,R8*%
X68080000Y-64620000D02*
X68080000Y-68460000D01*
X69920000Y-64620000D02*
X69920000Y-68460000D01*
%TO.C,R9*%
X45040000Y-91920000D02*
X48880000Y-91920000D01*
X45040000Y-90080000D02*
X48880000Y-90080000D01*
%TO.C,R10*%
X61960000Y-107080000D02*
X58120000Y-107080000D01*
X61960000Y-108920000D02*
X58120000Y-108920000D01*
%TO.C,U1*%
X42050000Y-87390000D02*
X52330000Y-87390000D01*
X42050000Y-76990000D02*
X42050000Y-87390000D01*
X52330000Y-76990000D02*
X42050000Y-76990000D01*
X52330000Y-87390000D02*
X52330000Y-76990000D01*
X44540000Y-87330000D02*
X46190000Y-87330000D01*
X44540000Y-77050000D02*
X44540000Y-87330000D01*
X49840000Y-77050000D02*
X44540000Y-77050000D01*
X49840000Y-87330000D02*
X49840000Y-77050000D01*
X48190000Y-87330000D02*
X49840000Y-87330000D01*
X46190000Y-87330000D02*
G75*
G02*
X48190000Y-87330000I1000000J0D01*
G01*
%TO.C,C10*%
X65370000Y-72130000D02*
X65370000Y-74870000D01*
X60130000Y-72130000D02*
X60130000Y-74870000D01*
X60130000Y-74870000D02*
X65370000Y-74870000D01*
X60130000Y-72130000D02*
X65370000Y-72130000D01*
%TO.C,D4*%
X48190000Y-100880000D02*
X48190000Y-103120000D01*
X48190000Y-103120000D02*
X52430000Y-103120000D01*
X52430000Y-103120000D02*
X52430000Y-100880000D01*
X52430000Y-100880000D02*
X48190000Y-100880000D01*
X47540000Y-102000000D02*
X48190000Y-102000000D01*
X53080000Y-102000000D02*
X52430000Y-102000000D01*
X48910000Y-100880000D02*
X48910000Y-103120000D01*
X49030000Y-100880000D02*
X49030000Y-103120000D01*
X48790000Y-100880000D02*
X48790000Y-103120000D01*
%TO.C,D5*%
X61290000Y-100880000D02*
X61290000Y-103120000D01*
X61530000Y-100880000D02*
X61530000Y-103120000D01*
X61410000Y-100880000D02*
X61410000Y-103120000D01*
X65580000Y-102000000D02*
X64930000Y-102000000D01*
X60040000Y-102000000D02*
X60690000Y-102000000D01*
X64930000Y-100880000D02*
X60690000Y-100880000D01*
X64930000Y-103120000D02*
X64930000Y-100880000D01*
X60690000Y-103120000D02*
X64930000Y-103120000D01*
X60690000Y-100880000D02*
X60690000Y-103120000D01*
%TO.C,R11*%
X65580000Y-105120000D02*
X65580000Y-108960000D01*
X67420000Y-105120000D02*
X67420000Y-108960000D01*
%TO.C,R12*%
X63620000Y-91920000D02*
X67460000Y-91920000D01*
X63620000Y-90080000D02*
X67460000Y-90080000D01*
%TO.C,R13*%
X59420000Y-79620000D02*
X59420000Y-83460000D01*
X57580000Y-79620000D02*
X57580000Y-83460000D01*
%TO.C,U2*%
D10*
X65048095Y-87782380D02*
X65048095Y-88591904D01*
X65095714Y-88687142D01*
X65143333Y-88734761D01*
X65238571Y-88782380D01*
X65429047Y-88782380D01*
X65524285Y-88734761D01*
X65571904Y-88687142D01*
X65619523Y-88591904D01*
X65619523Y-87782380D01*
X66048095Y-87877619D02*
X66095714Y-87830000D01*
X66190952Y-87782380D01*
X66429047Y-87782380D01*
X66524285Y-87830000D01*
X66571904Y-87877619D01*
X66619523Y-87972857D01*
X66619523Y-88068095D01*
X66571904Y-88210952D01*
X66000476Y-88782380D01*
X66619523Y-88782380D01*
%TO.C,C1*%
X61857142Y-57166666D02*
X61904761Y-57214285D01*
X61952380Y-57357142D01*
X61952380Y-57452380D01*
X61904761Y-57595238D01*
X61809523Y-57690476D01*
X61714285Y-57738095D01*
X61523809Y-57785714D01*
X61380952Y-57785714D01*
X61190476Y-57738095D01*
X61095238Y-57690476D01*
X61000000Y-57595238D01*
X60952380Y-57452380D01*
X60952380Y-57357142D01*
X61000000Y-57214285D01*
X61047619Y-57166666D01*
X61952380Y-56214285D02*
X61952380Y-56785714D01*
X61952380Y-56500000D02*
X60952380Y-56500000D01*
X61095238Y-56595238D01*
X61190476Y-56690476D01*
X61238095Y-56785714D01*
%TO.C,C2*%
X56857142Y-57166666D02*
X56904761Y-57214285D01*
X56952380Y-57357142D01*
X56952380Y-57452380D01*
X56904761Y-57595238D01*
X56809523Y-57690476D01*
X56714285Y-57738095D01*
X56523809Y-57785714D01*
X56380952Y-57785714D01*
X56190476Y-57738095D01*
X56095238Y-57690476D01*
X56000000Y-57595238D01*
X55952380Y-57452380D01*
X55952380Y-57357142D01*
X56000000Y-57214285D01*
X56047619Y-57166666D01*
X56047619Y-56785714D02*
X56000000Y-56738095D01*
X55952380Y-56642857D01*
X55952380Y-56404761D01*
X56000000Y-56309523D01*
X56047619Y-56261904D01*
X56142857Y-56214285D01*
X56238095Y-56214285D01*
X56380952Y-56261904D01*
X56952380Y-56833333D01*
X56952380Y-56214285D01*
%TO.C,C3*%
X51857142Y-57166666D02*
X51904761Y-57214285D01*
X51952380Y-57357142D01*
X51952380Y-57452380D01*
X51904761Y-57595238D01*
X51809523Y-57690476D01*
X51714285Y-57738095D01*
X51523809Y-57785714D01*
X51380952Y-57785714D01*
X51190476Y-57738095D01*
X51095238Y-57690476D01*
X51000000Y-57595238D01*
X50952380Y-57452380D01*
X50952380Y-57357142D01*
X51000000Y-57214285D01*
X51047619Y-57166666D01*
X50952380Y-56833333D02*
X50952380Y-56214285D01*
X51333333Y-56547619D01*
X51333333Y-56404761D01*
X51380952Y-56309523D01*
X51428571Y-56261904D01*
X51523809Y-56214285D01*
X51761904Y-56214285D01*
X51857142Y-56261904D01*
X51904761Y-56309523D01*
X51952380Y-56404761D01*
X51952380Y-56690476D01*
X51904761Y-56785714D01*
X51857142Y-56833333D01*
%TO.C,C4*%
X46857142Y-57166666D02*
X46904761Y-57214285D01*
X46952380Y-57357142D01*
X46952380Y-57452380D01*
X46904761Y-57595238D01*
X46809523Y-57690476D01*
X46714285Y-57738095D01*
X46523809Y-57785714D01*
X46380952Y-57785714D01*
X46190476Y-57738095D01*
X46095238Y-57690476D01*
X46000000Y-57595238D01*
X45952380Y-57452380D01*
X45952380Y-57357142D01*
X46000000Y-57214285D01*
X46047619Y-57166666D01*
X46285714Y-56309523D02*
X46952380Y-56309523D01*
X45904761Y-56547619D02*
X46619047Y-56785714D01*
X46619047Y-56166666D01*
%TO.C,C6*%
X49583333Y-71857142D02*
X49535714Y-71904761D01*
X49392857Y-71952380D01*
X49297619Y-71952380D01*
X49154761Y-71904761D01*
X49059523Y-71809523D01*
X49011904Y-71714285D01*
X48964285Y-71523809D01*
X48964285Y-71380952D01*
X49011904Y-71190476D01*
X49059523Y-71095238D01*
X49154761Y-71000000D01*
X49297619Y-70952380D01*
X49392857Y-70952380D01*
X49535714Y-71000000D01*
X49583333Y-71047619D01*
X50440476Y-70952380D02*
X50250000Y-70952380D01*
X50154761Y-71000000D01*
X50107142Y-71047619D01*
X50011904Y-71190476D01*
X49964285Y-71380952D01*
X49964285Y-71761904D01*
X50011904Y-71857142D01*
X50059523Y-71904761D01*
X50154761Y-71952380D01*
X50345238Y-71952380D01*
X50440476Y-71904761D01*
X50488095Y-71857142D01*
X50535714Y-71761904D01*
X50535714Y-71523809D01*
X50488095Y-71428571D01*
X50440476Y-71380952D01*
X50345238Y-71333333D01*
X50154761Y-71333333D01*
X50059523Y-71380952D01*
X50011904Y-71428571D01*
X49964285Y-71523809D01*
%TO.C,C7*%
X66857142Y-57166666D02*
X66904761Y-57214285D01*
X66952380Y-57357142D01*
X66952380Y-57452380D01*
X66904761Y-57595238D01*
X66809523Y-57690476D01*
X66714285Y-57738095D01*
X66523809Y-57785714D01*
X66380952Y-57785714D01*
X66190476Y-57738095D01*
X66095238Y-57690476D01*
X66000000Y-57595238D01*
X65952380Y-57452380D01*
X65952380Y-57357142D01*
X66000000Y-57214285D01*
X66047619Y-57166666D01*
X65952380Y-56833333D02*
X65952380Y-56166666D01*
X66952380Y-56595238D01*
%TO.C,C8*%
X56083333Y-115857142D02*
X56035714Y-115904761D01*
X55892857Y-115952380D01*
X55797619Y-115952380D01*
X55654761Y-115904761D01*
X55559523Y-115809523D01*
X55511904Y-115714285D01*
X55464285Y-115523809D01*
X55464285Y-115380952D01*
X55511904Y-115190476D01*
X55559523Y-115095238D01*
X55654761Y-115000000D01*
X55797619Y-114952380D01*
X55892857Y-114952380D01*
X56035714Y-115000000D01*
X56083333Y-115047619D01*
X56654761Y-115380952D02*
X56559523Y-115333333D01*
X56511904Y-115285714D01*
X56464285Y-115190476D01*
X56464285Y-115142857D01*
X56511904Y-115047619D01*
X56559523Y-115000000D01*
X56654761Y-114952380D01*
X56845238Y-114952380D01*
X56940476Y-115000000D01*
X56988095Y-115047619D01*
X57035714Y-115142857D01*
X57035714Y-115190476D01*
X56988095Y-115285714D01*
X56940476Y-115333333D01*
X56845238Y-115380952D01*
X56654761Y-115380952D01*
X56559523Y-115428571D01*
X56511904Y-115476190D01*
X56464285Y-115571428D01*
X56464285Y-115761904D01*
X56511904Y-115857142D01*
X56559523Y-115904761D01*
X56654761Y-115952380D01*
X56845238Y-115952380D01*
X56940476Y-115904761D01*
X56988095Y-115857142D01*
X57035714Y-115761904D01*
X57035714Y-115571428D01*
X56988095Y-115476190D01*
X56940476Y-115428571D01*
X56845238Y-115380952D01*
%TO.C,D1*%
X55451904Y-68452380D02*
X55451904Y-67452380D01*
X55690000Y-67452380D01*
X55832857Y-67500000D01*
X55928095Y-67595238D01*
X55975714Y-67690476D01*
X56023333Y-67880952D01*
X56023333Y-68023809D01*
X55975714Y-68214285D01*
X55928095Y-68309523D01*
X55832857Y-68404761D01*
X55690000Y-68452380D01*
X55451904Y-68452380D01*
X56975714Y-68452380D02*
X56404285Y-68452380D01*
X56690000Y-68452380D02*
X56690000Y-67452380D01*
X56594761Y-67595238D01*
X56499523Y-67690476D01*
X56404285Y-67738095D01*
X59738095Y-70252380D02*
X59738095Y-69252380D01*
X60309523Y-70252380D02*
X59880952Y-69680952D01*
X60309523Y-69252380D02*
X59738095Y-69823809D01*
%TO.C,D2*%
X49761904Y-98452380D02*
X49761904Y-97452380D01*
X50000000Y-97452380D01*
X50142857Y-97500000D01*
X50238095Y-97595238D01*
X50285714Y-97690476D01*
X50333333Y-97880952D01*
X50333333Y-98023809D01*
X50285714Y-98214285D01*
X50238095Y-98309523D01*
X50142857Y-98404761D01*
X50000000Y-98452380D01*
X49761904Y-98452380D01*
X50714285Y-97547619D02*
X50761904Y-97500000D01*
X50857142Y-97452380D01*
X51095238Y-97452380D01*
X51190476Y-97500000D01*
X51238095Y-97547619D01*
X51285714Y-97642857D01*
X51285714Y-97738095D01*
X51238095Y-97880952D01*
X50666666Y-98452380D01*
X51285714Y-98452380D01*
X46118095Y-96652380D02*
X46118095Y-95652380D01*
X46689523Y-96652380D02*
X46260952Y-96080952D01*
X46689523Y-95652380D02*
X46118095Y-96223809D01*
%TO.C,D3*%
X62261904Y-98452380D02*
X62261904Y-97452380D01*
X62500000Y-97452380D01*
X62642857Y-97500000D01*
X62738095Y-97595238D01*
X62785714Y-97690476D01*
X62833333Y-97880952D01*
X62833333Y-98023809D01*
X62785714Y-98214285D01*
X62738095Y-98309523D01*
X62642857Y-98404761D01*
X62500000Y-98452380D01*
X62261904Y-98452380D01*
X63166666Y-97452380D02*
X63785714Y-97452380D01*
X63452380Y-97833333D01*
X63595238Y-97833333D01*
X63690476Y-97880952D01*
X63738095Y-97928571D01*
X63785714Y-98023809D01*
X63785714Y-98261904D01*
X63738095Y-98357142D01*
X63690476Y-98404761D01*
X63595238Y-98452380D01*
X63309523Y-98452380D01*
X63214285Y-98404761D01*
X63166666Y-98357142D01*
X58738095Y-96652380D02*
X58738095Y-95652380D01*
X59309523Y-96652380D02*
X58880952Y-96080952D01*
X59309523Y-95652380D02*
X58738095Y-96223809D01*
%TO.C,R1*%
X65452380Y-66666666D02*
X64976190Y-67000000D01*
X65452380Y-67238095D02*
X64452380Y-67238095D01*
X64452380Y-66857142D01*
X64500000Y-66761904D01*
X64547619Y-66714285D01*
X64642857Y-66666666D01*
X64785714Y-66666666D01*
X64880952Y-66714285D01*
X64928571Y-66761904D01*
X64976190Y-66857142D01*
X64976190Y-67238095D01*
X65452380Y-65714285D02*
X65452380Y-66285714D01*
X65452380Y-66000000D02*
X64452380Y-66000000D01*
X64595238Y-66095238D01*
X64690476Y-66190476D01*
X64738095Y-66285714D01*
%TO.C,R2*%
X54952380Y-81586666D02*
X54476190Y-81920000D01*
X54952380Y-82158095D02*
X53952380Y-82158095D01*
X53952380Y-81777142D01*
X54000000Y-81681904D01*
X54047619Y-81634285D01*
X54142857Y-81586666D01*
X54285714Y-81586666D01*
X54380952Y-81634285D01*
X54428571Y-81681904D01*
X54476190Y-81777142D01*
X54476190Y-82158095D01*
X54047619Y-81205714D02*
X54000000Y-81158095D01*
X53952380Y-81062857D01*
X53952380Y-80824761D01*
X54000000Y-80729523D01*
X54047619Y-80681904D01*
X54142857Y-80634285D01*
X54238095Y-80634285D01*
X54380952Y-80681904D01*
X54952380Y-81253333D01*
X54952380Y-80634285D01*
%TO.C,R3*%
X44452380Y-66166666D02*
X43976190Y-66500000D01*
X44452380Y-66738095D02*
X43452380Y-66738095D01*
X43452380Y-66357142D01*
X43500000Y-66261904D01*
X43547619Y-66214285D01*
X43642857Y-66166666D01*
X43785714Y-66166666D01*
X43880952Y-66214285D01*
X43928571Y-66261904D01*
X43976190Y-66357142D01*
X43976190Y-66738095D01*
X43452380Y-65833333D02*
X43452380Y-65214285D01*
X43833333Y-65547619D01*
X43833333Y-65404761D01*
X43880952Y-65309523D01*
X43928571Y-65261904D01*
X44023809Y-65214285D01*
X44261904Y-65214285D01*
X44357142Y-65261904D01*
X44404761Y-65309523D01*
X44452380Y-65404761D01*
X44452380Y-65690476D01*
X44404761Y-65785714D01*
X44357142Y-65833333D01*
%TO.C,R4*%
X56333333Y-64452380D02*
X56000000Y-63976190D01*
X55761904Y-64452380D02*
X55761904Y-63452380D01*
X56142857Y-63452380D01*
X56238095Y-63500000D01*
X56285714Y-63547619D01*
X56333333Y-63642857D01*
X56333333Y-63785714D01*
X56285714Y-63880952D01*
X56238095Y-63928571D01*
X56142857Y-63976190D01*
X55761904Y-63976190D01*
X57190476Y-63785714D02*
X57190476Y-64452380D01*
X56952380Y-63404761D02*
X56714285Y-64119047D01*
X57333333Y-64119047D01*
%TO.C,R5*%
X48452380Y-66666666D02*
X47976190Y-67000000D01*
X48452380Y-67238095D02*
X47452380Y-67238095D01*
X47452380Y-66857142D01*
X47500000Y-66761904D01*
X47547619Y-66714285D01*
X47642857Y-66666666D01*
X47785714Y-66666666D01*
X47880952Y-66714285D01*
X47928571Y-66761904D01*
X47976190Y-66857142D01*
X47976190Y-67238095D01*
X47452380Y-65761904D02*
X47452380Y-66238095D01*
X47928571Y-66285714D01*
X47880952Y-66238095D01*
X47833333Y-66142857D01*
X47833333Y-65904761D01*
X47880952Y-65809523D01*
X47928571Y-65761904D01*
X48023809Y-65714285D01*
X48261904Y-65714285D01*
X48357142Y-65761904D01*
X48404761Y-65809523D01*
X48452380Y-65904761D01*
X48452380Y-66142857D01*
X48404761Y-66238095D01*
X48357142Y-66285714D01*
%TO.C,R6*%
X51793333Y-108452380D02*
X51460000Y-107976190D01*
X51221904Y-108452380D02*
X51221904Y-107452380D01*
X51602857Y-107452380D01*
X51698095Y-107500000D01*
X51745714Y-107547619D01*
X51793333Y-107642857D01*
X51793333Y-107785714D01*
X51745714Y-107880952D01*
X51698095Y-107928571D01*
X51602857Y-107976190D01*
X51221904Y-107976190D01*
X52650476Y-107452380D02*
X52460000Y-107452380D01*
X52364761Y-107500000D01*
X52317142Y-107547619D01*
X52221904Y-107690476D01*
X52174285Y-107880952D01*
X52174285Y-108261904D01*
X52221904Y-108357142D01*
X52269523Y-108404761D01*
X52364761Y-108452380D01*
X52555238Y-108452380D01*
X52650476Y-108404761D01*
X52698095Y-108357142D01*
X52745714Y-108261904D01*
X52745714Y-108023809D01*
X52698095Y-107928571D01*
X52650476Y-107880952D01*
X52555238Y-107833333D01*
X52364761Y-107833333D01*
X52269523Y-107880952D01*
X52221904Y-107928571D01*
X52174285Y-108023809D01*
%TO.C,R7*%
X46952380Y-107706666D02*
X46476190Y-108040000D01*
X46952380Y-108278095D02*
X45952380Y-108278095D01*
X45952380Y-107897142D01*
X46000000Y-107801904D01*
X46047619Y-107754285D01*
X46142857Y-107706666D01*
X46285714Y-107706666D01*
X46380952Y-107754285D01*
X46428571Y-107801904D01*
X46476190Y-107897142D01*
X46476190Y-108278095D01*
X45952380Y-107373333D02*
X45952380Y-106706666D01*
X46952380Y-107135238D01*
%TO.C,R8*%
X69452380Y-66666666D02*
X68976190Y-67000000D01*
X69452380Y-67238095D02*
X68452380Y-67238095D01*
X68452380Y-66857142D01*
X68500000Y-66761904D01*
X68547619Y-66714285D01*
X68642857Y-66666666D01*
X68785714Y-66666666D01*
X68880952Y-66714285D01*
X68928571Y-66761904D01*
X68976190Y-66857142D01*
X68976190Y-67238095D01*
X68880952Y-66095238D02*
X68833333Y-66190476D01*
X68785714Y-66238095D01*
X68690476Y-66285714D01*
X68642857Y-66285714D01*
X68547619Y-66238095D01*
X68500000Y-66190476D01*
X68452380Y-66095238D01*
X68452380Y-65904761D01*
X68500000Y-65809523D01*
X68547619Y-65761904D01*
X68642857Y-65714285D01*
X68690476Y-65714285D01*
X68785714Y-65761904D01*
X68833333Y-65809523D01*
X68880952Y-65904761D01*
X68880952Y-66095238D01*
X68928571Y-66190476D01*
X68976190Y-66238095D01*
X69071428Y-66285714D01*
X69261904Y-66285714D01*
X69357142Y-66238095D01*
X69404761Y-66190476D01*
X69452380Y-66095238D01*
X69452380Y-65904761D01*
X69404761Y-65809523D01*
X69357142Y-65761904D01*
X69261904Y-65714285D01*
X69071428Y-65714285D01*
X68976190Y-65761904D01*
X68928571Y-65809523D01*
X68880952Y-65904761D01*
%TO.C,R9*%
X46793333Y-91452380D02*
X46460000Y-90976190D01*
X46221904Y-91452380D02*
X46221904Y-90452380D01*
X46602857Y-90452380D01*
X46698095Y-90500000D01*
X46745714Y-90547619D01*
X46793333Y-90642857D01*
X46793333Y-90785714D01*
X46745714Y-90880952D01*
X46698095Y-90928571D01*
X46602857Y-90976190D01*
X46221904Y-90976190D01*
X47269523Y-91452380D02*
X47460000Y-91452380D01*
X47555238Y-91404761D01*
X47602857Y-91357142D01*
X47698095Y-91214285D01*
X47745714Y-91023809D01*
X47745714Y-90642857D01*
X47698095Y-90547619D01*
X47650476Y-90500000D01*
X47555238Y-90452380D01*
X47364761Y-90452380D01*
X47269523Y-90500000D01*
X47221904Y-90547619D01*
X47174285Y-90642857D01*
X47174285Y-90880952D01*
X47221904Y-90976190D01*
X47269523Y-91023809D01*
X47364761Y-91071428D01*
X47555238Y-91071428D01*
X47650476Y-91023809D01*
X47698095Y-90976190D01*
X47745714Y-90880952D01*
%TO.C,R10*%
X59357142Y-108452380D02*
X59023809Y-107976190D01*
X58785714Y-108452380D02*
X58785714Y-107452380D01*
X59166666Y-107452380D01*
X59261904Y-107500000D01*
X59309523Y-107547619D01*
X59357142Y-107642857D01*
X59357142Y-107785714D01*
X59309523Y-107880952D01*
X59261904Y-107928571D01*
X59166666Y-107976190D01*
X58785714Y-107976190D01*
X60309523Y-108452380D02*
X59738095Y-108452380D01*
X60023809Y-108452380D02*
X60023809Y-107452380D01*
X59928571Y-107595238D01*
X59833333Y-107690476D01*
X59738095Y-107738095D01*
X60928571Y-107452380D02*
X61023809Y-107452380D01*
X61119047Y-107500000D01*
X61166666Y-107547619D01*
X61214285Y-107642857D01*
X61261904Y-107833333D01*
X61261904Y-108071428D01*
X61214285Y-108261904D01*
X61166666Y-108357142D01*
X61119047Y-108404761D01*
X61023809Y-108452380D01*
X60928571Y-108452380D01*
X60833333Y-108404761D01*
X60785714Y-108357142D01*
X60738095Y-108261904D01*
X60690476Y-108071428D01*
X60690476Y-107833333D01*
X60738095Y-107642857D01*
X60785714Y-107547619D01*
X60833333Y-107500000D01*
X60928571Y-107452380D01*
%TO.C,U1*%
X46428095Y-87782380D02*
X46428095Y-88591904D01*
X46475714Y-88687142D01*
X46523333Y-88734761D01*
X46618571Y-88782380D01*
X46809047Y-88782380D01*
X46904285Y-88734761D01*
X46951904Y-88687142D01*
X46999523Y-88591904D01*
X46999523Y-87782380D01*
X47999523Y-88782380D02*
X47428095Y-88782380D01*
X47713809Y-88782380D02*
X47713809Y-87782380D01*
X47618571Y-87925238D01*
X47523333Y-88020476D01*
X47428095Y-88068095D01*
%TO.C,C10*%
X62107142Y-71357142D02*
X62059523Y-71404761D01*
X61916666Y-71452380D01*
X61821428Y-71452380D01*
X61678571Y-71404761D01*
X61583333Y-71309523D01*
X61535714Y-71214285D01*
X61488095Y-71023809D01*
X61488095Y-70880952D01*
X61535714Y-70690476D01*
X61583333Y-70595238D01*
X61678571Y-70500000D01*
X61821428Y-70452380D01*
X61916666Y-70452380D01*
X62059523Y-70500000D01*
X62107142Y-70547619D01*
X63059523Y-71452380D02*
X62488095Y-71452380D01*
X62773809Y-71452380D02*
X62773809Y-70452380D01*
X62678571Y-70595238D01*
X62583333Y-70690476D01*
X62488095Y-70738095D01*
X63678571Y-70452380D02*
X63773809Y-70452380D01*
X63869047Y-70500000D01*
X63916666Y-70547619D01*
X63964285Y-70642857D01*
X64011904Y-70833333D01*
X64011904Y-71071428D01*
X63964285Y-71261904D01*
X63916666Y-71357142D01*
X63869047Y-71404761D01*
X63773809Y-71452380D01*
X63678571Y-71452380D01*
X63583333Y-71404761D01*
X63535714Y-71357142D01*
X63488095Y-71261904D01*
X63440476Y-71071428D01*
X63440476Y-70833333D01*
X63488095Y-70642857D01*
X63535714Y-70547619D01*
X63583333Y-70500000D01*
X63678571Y-70452380D01*
%TO.C,D4*%
X49571904Y-102452380D02*
X49571904Y-101452380D01*
X49810000Y-101452380D01*
X49952857Y-101500000D01*
X50048095Y-101595238D01*
X50095714Y-101690476D01*
X50143333Y-101880952D01*
X50143333Y-102023809D01*
X50095714Y-102214285D01*
X50048095Y-102309523D01*
X49952857Y-102404761D01*
X49810000Y-102452380D01*
X49571904Y-102452380D01*
X51000476Y-101785714D02*
X51000476Y-102452380D01*
X50762380Y-101404761D02*
X50524285Y-102119047D01*
X51143333Y-102119047D01*
X46238095Y-100652380D02*
X46238095Y-99652380D01*
X46809523Y-100652380D02*
X46380952Y-100080952D01*
X46809523Y-99652380D02*
X46238095Y-100223809D01*
%TO.C,D5*%
X62071904Y-102452380D02*
X62071904Y-101452380D01*
X62310000Y-101452380D01*
X62452857Y-101500000D01*
X62548095Y-101595238D01*
X62595714Y-101690476D01*
X62643333Y-101880952D01*
X62643333Y-102023809D01*
X62595714Y-102214285D01*
X62548095Y-102309523D01*
X62452857Y-102404761D01*
X62310000Y-102452380D01*
X62071904Y-102452380D01*
X63548095Y-101452380D02*
X63071904Y-101452380D01*
X63024285Y-101928571D01*
X63071904Y-101880952D01*
X63167142Y-101833333D01*
X63405238Y-101833333D01*
X63500476Y-101880952D01*
X63548095Y-101928571D01*
X63595714Y-102023809D01*
X63595714Y-102261904D01*
X63548095Y-102357142D01*
X63500476Y-102404761D01*
X63405238Y-102452380D01*
X63167142Y-102452380D01*
X63071904Y-102404761D01*
X63024285Y-102357142D01*
X58738095Y-100652380D02*
X58738095Y-99652380D01*
X59309523Y-100652380D02*
X58880952Y-100080952D01*
X59309523Y-99652380D02*
X58738095Y-100223809D01*
%TO.C,R11*%
X66952380Y-107642857D02*
X66476190Y-107976190D01*
X66952380Y-108214285D02*
X65952380Y-108214285D01*
X65952380Y-107833333D01*
X66000000Y-107738095D01*
X66047619Y-107690476D01*
X66142857Y-107642857D01*
X66285714Y-107642857D01*
X66380952Y-107690476D01*
X66428571Y-107738095D01*
X66476190Y-107833333D01*
X66476190Y-108214285D01*
X66952380Y-106690476D02*
X66952380Y-107261904D01*
X66952380Y-106976190D02*
X65952380Y-106976190D01*
X66095238Y-107071428D01*
X66190476Y-107166666D01*
X66238095Y-107261904D01*
X66952380Y-105738095D02*
X66952380Y-106309523D01*
X66952380Y-106023809D02*
X65952380Y-106023809D01*
X66095238Y-106119047D01*
X66190476Y-106214285D01*
X66238095Y-106309523D01*
%TO.C,R12*%
X64897142Y-91452380D02*
X64563809Y-90976190D01*
X64325714Y-91452380D02*
X64325714Y-90452380D01*
X64706666Y-90452380D01*
X64801904Y-90500000D01*
X64849523Y-90547619D01*
X64897142Y-90642857D01*
X64897142Y-90785714D01*
X64849523Y-90880952D01*
X64801904Y-90928571D01*
X64706666Y-90976190D01*
X64325714Y-90976190D01*
X65849523Y-91452380D02*
X65278095Y-91452380D01*
X65563809Y-91452380D02*
X65563809Y-90452380D01*
X65468571Y-90595238D01*
X65373333Y-90690476D01*
X65278095Y-90738095D01*
X66230476Y-90547619D02*
X66278095Y-90500000D01*
X66373333Y-90452380D01*
X66611428Y-90452380D01*
X66706666Y-90500000D01*
X66754285Y-90547619D01*
X66801904Y-90642857D01*
X66801904Y-90738095D01*
X66754285Y-90880952D01*
X66182857Y-91452380D01*
X66801904Y-91452380D01*
%TO.C,R13*%
X58952380Y-82182857D02*
X58476190Y-82516190D01*
X58952380Y-82754285D02*
X57952380Y-82754285D01*
X57952380Y-82373333D01*
X58000000Y-82278095D01*
X58047619Y-82230476D01*
X58142857Y-82182857D01*
X58285714Y-82182857D01*
X58380952Y-82230476D01*
X58428571Y-82278095D01*
X58476190Y-82373333D01*
X58476190Y-82754285D01*
X58952380Y-81230476D02*
X58952380Y-81801904D01*
X58952380Y-81516190D02*
X57952380Y-81516190D01*
X58095238Y-81611428D01*
X58190476Y-81706666D01*
X58238095Y-81801904D01*
X57952380Y-80897142D02*
X57952380Y-80278095D01*
X58333333Y-80611428D01*
X58333333Y-80468571D01*
X58380952Y-80373333D01*
X58428571Y-80325714D01*
X58523809Y-80278095D01*
X58761904Y-80278095D01*
X58857142Y-80325714D01*
X58904761Y-80373333D01*
X58952380Y-80468571D01*
X58952380Y-80754285D01*
X58904761Y-80849523D01*
X58857142Y-80897142D01*
%TD*%
M02*
