%TF.GenerationSoftware,KiCad,Pcbnew,5.1.10*%
%TF.CreationDate,2021-06-22T19:33:50+02:00*%
%TF.ProjectId,double-gain,646f7562-6c65-42d6-9761-696e2e6b6963,rev?*%
%TF.SameCoordinates,Original*%
%TF.FileFunction,Other,User*%
%FSLAX46Y46*%
G04 Gerber Fmt 4.6, Leading zero omitted, Abs format (unit mm)*
G04 Created by KiCad (PCBNEW 5.1.10) date 2021-06-22 19:33:50*
%MOMM*%
%LPD*%
G01*
G04 APERTURE LIST*
%ADD10C,0.050000*%
G04 APERTURE END LIST*
D10*
%TO.C,U2*%
X60470000Y-87600000D02*
X71170000Y-87600000D01*
X60470000Y-76800000D02*
X60470000Y-87600000D01*
X71170000Y-76800000D02*
X60470000Y-76800000D01*
X71170000Y-87600000D02*
X71170000Y-76800000D01*
%TO.C,C1*%
X60000000Y-50500000D02*
X60000000Y-56000000D01*
X63000000Y-50500000D02*
X60000000Y-50500000D01*
X63000000Y-56000000D02*
X63000000Y-50500000D01*
X60000000Y-56000000D02*
X63000000Y-56000000D01*
%TO.C,C2*%
X55000000Y-56000000D02*
X58000000Y-56000000D01*
X58000000Y-56000000D02*
X58000000Y-50500000D01*
X58000000Y-50500000D02*
X55000000Y-50500000D01*
X55000000Y-50500000D02*
X55000000Y-56000000D01*
%TO.C,C3*%
X50000000Y-50500000D02*
X50000000Y-56000000D01*
X53000000Y-50500000D02*
X50000000Y-50500000D01*
X53000000Y-56000000D02*
X53000000Y-50500000D01*
X50000000Y-56000000D02*
X53000000Y-56000000D01*
%TO.C,C4*%
X45000000Y-56000000D02*
X48000000Y-56000000D01*
X48000000Y-56000000D02*
X48000000Y-50500000D01*
X48000000Y-50500000D02*
X45000000Y-50500000D01*
X45000000Y-50500000D02*
X45000000Y-56000000D01*
%TO.C,C5*%
X45000000Y-114500000D02*
X50500000Y-114500000D01*
X45000000Y-111500000D02*
X45000000Y-114500000D01*
X50500000Y-111500000D02*
X45000000Y-111500000D01*
X50500000Y-114500000D02*
X50500000Y-111500000D01*
%TO.C,C6*%
X52500000Y-75000000D02*
X52500000Y-72000000D01*
X52500000Y-72000000D02*
X47000000Y-72000000D01*
X47000000Y-72000000D02*
X47000000Y-75000000D01*
X47000000Y-75000000D02*
X52500000Y-75000000D01*
%TO.C,C7*%
X65000000Y-50500000D02*
X65000000Y-56000000D01*
X68000000Y-50500000D02*
X65000000Y-50500000D01*
X68000000Y-56000000D02*
X68000000Y-50500000D01*
X65000000Y-56000000D02*
X68000000Y-56000000D01*
%TO.C,C8*%
X59000000Y-114500000D02*
X59000000Y-111500000D01*
X59000000Y-111500000D02*
X53500000Y-111500000D01*
X53500000Y-111500000D02*
X53500000Y-114500000D01*
X53500000Y-114500000D02*
X59000000Y-114500000D01*
%TO.C,D1*%
X51330000Y-69250000D02*
X61050000Y-69250000D01*
X51330000Y-66750000D02*
X51330000Y-69250000D01*
X61050000Y-66750000D02*
X51330000Y-66750000D01*
X61050000Y-69250000D02*
X61050000Y-66750000D01*
%TO.C,D2*%
X45330000Y-96750000D02*
X45330000Y-99250000D01*
X45330000Y-99250000D02*
X55050000Y-99250000D01*
X55050000Y-99250000D02*
X55050000Y-96750000D01*
X55050000Y-96750000D02*
X45330000Y-96750000D01*
%TO.C,D3*%
X57950000Y-96750000D02*
X57950000Y-99250000D01*
X57950000Y-99250000D02*
X67670000Y-99250000D01*
X67670000Y-99250000D02*
X67670000Y-96750000D01*
X67670000Y-96750000D02*
X57950000Y-96750000D01*
%TO.C,J1*%
X48000000Y-119000000D02*
G75*
G03*
X48000000Y-119000000I-2000000J0D01*
G01*
%TO.C,J3*%
X54000000Y-119000000D02*
G75*
G03*
X54000000Y-119000000I-2000000J0D01*
G01*
%TO.C,J6*%
X44500000Y-125000000D02*
G75*
G03*
X44500000Y-125000000I-2000000J0D01*
G01*
%TO.C,J7*%
X72000000Y-37500000D02*
G75*
G03*
X72000000Y-37500000I-2000000J0D01*
G01*
%TO.C,J8*%
X44500000Y-37500000D02*
G75*
G03*
X44500000Y-37500000I-2000000J0D01*
G01*
%TO.C,J9*%
X72000000Y-125000000D02*
G75*
G03*
X72000000Y-125000000I-2000000J0D01*
G01*
%TO.C,R1*%
X66050000Y-70030000D02*
X66050000Y-63050000D01*
X63950000Y-70030000D02*
X66050000Y-70030000D01*
X63950000Y-63050000D02*
X63950000Y-70030000D01*
X66050000Y-63050000D02*
X63950000Y-63050000D01*
%TO.C,R2*%
X55550000Y-84950000D02*
X55550000Y-77970000D01*
X53450000Y-84950000D02*
X55550000Y-84950000D01*
X53450000Y-77970000D02*
X53450000Y-84950000D01*
X55550000Y-77970000D02*
X53450000Y-77970000D01*
%TO.C,R3*%
X42950000Y-69950000D02*
X45050000Y-69950000D01*
X45050000Y-69950000D02*
X45050000Y-62970000D01*
X45050000Y-62970000D02*
X42950000Y-62970000D01*
X42950000Y-62970000D02*
X42950000Y-69950000D01*
%TO.C,R4*%
X52970000Y-65050000D02*
X59950000Y-65050000D01*
X52970000Y-62950000D02*
X52970000Y-65050000D01*
X59950000Y-62950000D02*
X52970000Y-62950000D01*
X59950000Y-65050000D02*
X59950000Y-62950000D01*
%TO.C,R5*%
X49050000Y-63050000D02*
X46950000Y-63050000D01*
X46950000Y-63050000D02*
X46950000Y-70030000D01*
X46950000Y-70030000D02*
X49050000Y-70030000D01*
X49050000Y-70030000D02*
X49050000Y-63050000D01*
%TO.C,R6*%
X55450000Y-106950000D02*
X48470000Y-106950000D01*
X55450000Y-109050000D02*
X55450000Y-106950000D01*
X48470000Y-109050000D02*
X55450000Y-109050000D01*
X48470000Y-106950000D02*
X48470000Y-109050000D01*
%TO.C,R7*%
X47550000Y-111030000D02*
X47550000Y-104050000D01*
X45450000Y-111030000D02*
X47550000Y-111030000D01*
X45450000Y-104050000D02*
X45450000Y-111030000D01*
X47550000Y-104050000D02*
X45450000Y-104050000D01*
%TO.C,R8*%
X70050000Y-63050000D02*
X67950000Y-63050000D01*
X67950000Y-63050000D02*
X67950000Y-70030000D01*
X67950000Y-70030000D02*
X70050000Y-70030000D01*
X70050000Y-70030000D02*
X70050000Y-63050000D01*
%TO.C,R9*%
X43470000Y-89950000D02*
X43470000Y-92050000D01*
X43470000Y-92050000D02*
X50450000Y-92050000D01*
X50450000Y-92050000D02*
X50450000Y-89950000D01*
X50450000Y-89950000D02*
X43470000Y-89950000D01*
%TO.C,R10*%
X63530000Y-109050000D02*
X63530000Y-106950000D01*
X63530000Y-106950000D02*
X56550000Y-106950000D01*
X56550000Y-106950000D02*
X56550000Y-109050000D01*
X56550000Y-109050000D02*
X63530000Y-109050000D01*
%TO.C,U1*%
X52550000Y-87600000D02*
X52550000Y-76800000D01*
X52550000Y-76800000D02*
X41850000Y-76800000D01*
X41850000Y-76800000D02*
X41850000Y-87600000D01*
X41850000Y-87600000D02*
X52550000Y-87600000D01*
%TO.C,C9*%
X67500000Y-111500000D02*
X62000000Y-111500000D01*
X67500000Y-114500000D02*
X67500000Y-111500000D01*
X62000000Y-114500000D02*
X67500000Y-114500000D01*
X62000000Y-111500000D02*
X62000000Y-114500000D01*
%TO.C,C10*%
X60000000Y-72000000D02*
X60000000Y-75000000D01*
X60000000Y-75000000D02*
X65500000Y-75000000D01*
X65500000Y-75000000D02*
X65500000Y-72000000D01*
X65500000Y-72000000D02*
X60000000Y-72000000D01*
%TO.C,D4*%
X55170000Y-100750000D02*
X45450000Y-100750000D01*
X55170000Y-103250000D02*
X55170000Y-100750000D01*
X45450000Y-103250000D02*
X55170000Y-103250000D01*
X45450000Y-100750000D02*
X45450000Y-103250000D01*
%TO.C,D5*%
X57950000Y-100750000D02*
X57950000Y-103250000D01*
X57950000Y-103250000D02*
X67670000Y-103250000D01*
X67670000Y-103250000D02*
X67670000Y-100750000D01*
X67670000Y-100750000D02*
X57950000Y-100750000D01*
%TO.C,J10*%
X68000000Y-119000000D02*
G75*
G03*
X68000000Y-119000000I-2000000J0D01*
G01*
%TO.C,J11*%
X61000000Y-119000000D02*
G75*
G03*
X61000000Y-119000000I-2000000J0D01*
G01*
%TO.C,R11*%
X67550000Y-103550000D02*
X65450000Y-103550000D01*
X65450000Y-103550000D02*
X65450000Y-110530000D01*
X65450000Y-110530000D02*
X67550000Y-110530000D01*
X67550000Y-110530000D02*
X67550000Y-103550000D01*
%TO.C,R12*%
X62050000Y-89950000D02*
X62050000Y-92050000D01*
X62050000Y-92050000D02*
X69030000Y-92050000D01*
X69030000Y-92050000D02*
X69030000Y-89950000D01*
X69030000Y-89950000D02*
X62050000Y-89950000D01*
%TO.C,R13*%
X59550000Y-85030000D02*
X59550000Y-78050000D01*
X57450000Y-85030000D02*
X59550000Y-85030000D01*
X57450000Y-78050000D02*
X57450000Y-85030000D01*
X59550000Y-78050000D02*
X57450000Y-78050000D01*
%TO.C,J2*%
X58500000Y-40000000D02*
G75*
G03*
X58500000Y-40000000I-2000000J0D01*
G01*
%TO.C,J4*%
X53500000Y-40000000D02*
G75*
G03*
X53500000Y-40000000I-2000000J0D01*
G01*
%TO.C,J5*%
X63500000Y-40000000D02*
G75*
G03*
X63500000Y-40000000I-2000000J0D01*
G01*
%TD*%
M02*
