%TF.GenerationSoftware,KiCad,Pcbnew,5.1.10*%
%TF.CreationDate,2021-07-20T18:15:19+02:00*%
%TF.ProjectId,double-gain,646f7562-6c65-42d6-9761-696e2e6b6963,rev?*%
%TF.SameCoordinates,Original*%
%TF.FileFunction,Other,User*%
%FSLAX46Y46*%
G04 Gerber Fmt 4.6, Leading zero omitted, Abs format (unit mm)*
G04 Created by KiCad (PCBNEW 5.1.10) date 2021-07-20 18:15:19*
%MOMM*%
%LPD*%
G01*
G04 APERTURE LIST*
%ADD10C,0.050000*%
G04 APERTURE END LIST*
D10*
%TO.C,C1*%
X60000000Y-50500000D02*
X60000000Y-56000000D01*
X63000000Y-50500000D02*
X60000000Y-50500000D01*
X63000000Y-56000000D02*
X63000000Y-50500000D01*
X60000000Y-56000000D02*
X63000000Y-56000000D01*
%TO.C,C2*%
X55000000Y-56000000D02*
X58000000Y-56000000D01*
X58000000Y-56000000D02*
X58000000Y-50500000D01*
X58000000Y-50500000D02*
X55000000Y-50500000D01*
X55000000Y-50500000D02*
X55000000Y-56000000D01*
%TO.C,C3*%
X50000000Y-50500000D02*
X50000000Y-56000000D01*
X53000000Y-50500000D02*
X50000000Y-50500000D01*
X53000000Y-56000000D02*
X53000000Y-50500000D01*
X50000000Y-56000000D02*
X53000000Y-56000000D01*
%TO.C,C4*%
X45000000Y-56000000D02*
X48000000Y-56000000D01*
X48000000Y-56000000D02*
X48000000Y-50500000D01*
X48000000Y-50500000D02*
X45000000Y-50500000D01*
X45000000Y-50500000D02*
X45000000Y-56000000D01*
%TO.C,C5*%
X65000000Y-50500000D02*
X65000000Y-56000000D01*
X68000000Y-50500000D02*
X65000000Y-50500000D01*
X68000000Y-56000000D02*
X68000000Y-50500000D01*
X65000000Y-56000000D02*
X68000000Y-56000000D01*
%TO.C,C8*%
X59000000Y-114500000D02*
X59000000Y-111500000D01*
X59000000Y-111500000D02*
X53500000Y-111500000D01*
X53500000Y-111500000D02*
X53500000Y-114500000D01*
X53500000Y-114500000D02*
X59000000Y-114500000D01*
%TO.C,D1*%
X51330000Y-69250000D02*
X61050000Y-69250000D01*
X51330000Y-66750000D02*
X51330000Y-69250000D01*
X61050000Y-66750000D02*
X51330000Y-66750000D01*
X61050000Y-69250000D02*
X61050000Y-66750000D01*
%TO.C,D4*%
X45330000Y-96750000D02*
X45330000Y-99250000D01*
X45330000Y-99250000D02*
X55050000Y-99250000D01*
X55050000Y-99250000D02*
X55050000Y-96750000D01*
X55050000Y-96750000D02*
X45330000Y-96750000D01*
%TO.C,D5*%
X57950000Y-96750000D02*
X57950000Y-99250000D01*
X57950000Y-99250000D02*
X67670000Y-99250000D01*
X67670000Y-99250000D02*
X67670000Y-96750000D01*
X67670000Y-96750000D02*
X57950000Y-96750000D01*
%TO.C,J7*%
X44500000Y-125000000D02*
G75*
G03*
X44500000Y-125000000I-2000000J0D01*
G01*
%TO.C,J8*%
X72000000Y-37500000D02*
G75*
G03*
X72000000Y-37500000I-2000000J0D01*
G01*
%TO.C,J9*%
X44500000Y-37500000D02*
G75*
G03*
X44500000Y-37500000I-2000000J0D01*
G01*
%TO.C,J10*%
X72000000Y-125000000D02*
G75*
G03*
X72000000Y-125000000I-2000000J0D01*
G01*
%TO.C,R1*%
X66050000Y-70030000D02*
X66050000Y-63050000D01*
X63950000Y-70030000D02*
X66050000Y-70030000D01*
X63950000Y-63050000D02*
X63950000Y-70030000D01*
X66050000Y-63050000D02*
X63950000Y-63050000D01*
%TO.C,R11*%
X50300000Y-85700000D02*
X50300000Y-78720000D01*
X48200000Y-85700000D02*
X50300000Y-85700000D01*
X48200000Y-78720000D02*
X48200000Y-85700000D01*
X50300000Y-78720000D02*
X48200000Y-78720000D01*
%TO.C,R5*%
X42950000Y-69950000D02*
X45050000Y-69950000D01*
X45050000Y-69950000D02*
X45050000Y-62970000D01*
X45050000Y-62970000D02*
X42950000Y-62970000D01*
X42950000Y-62970000D02*
X42950000Y-69950000D01*
%TO.C,R6*%
X52970000Y-65050000D02*
X59950000Y-65050000D01*
X52970000Y-62950000D02*
X52970000Y-65050000D01*
X59950000Y-62950000D02*
X52970000Y-62950000D01*
X59950000Y-65050000D02*
X59950000Y-62950000D01*
%TO.C,R7*%
X49050000Y-63050000D02*
X46950000Y-63050000D01*
X46950000Y-63050000D02*
X46950000Y-70030000D01*
X46950000Y-70030000D02*
X49050000Y-70030000D01*
X49050000Y-70030000D02*
X49050000Y-63050000D01*
%TO.C,R2*%
X55450000Y-106950000D02*
X48470000Y-106950000D01*
X55450000Y-109050000D02*
X55450000Y-106950000D01*
X48470000Y-109050000D02*
X55450000Y-109050000D01*
X48470000Y-106950000D02*
X48470000Y-109050000D01*
%TO.C,R4*%
X47550000Y-111030000D02*
X47550000Y-104050000D01*
X45450000Y-111030000D02*
X47550000Y-111030000D01*
X45450000Y-104050000D02*
X45450000Y-111030000D01*
X47550000Y-104050000D02*
X45450000Y-104050000D01*
%TO.C,R8*%
X70050000Y-63050000D02*
X67950000Y-63050000D01*
X67950000Y-63050000D02*
X67950000Y-70030000D01*
X67950000Y-70030000D02*
X70050000Y-70030000D01*
X70050000Y-70030000D02*
X70050000Y-63050000D01*
%TO.C,R9*%
X43470000Y-89950000D02*
X43470000Y-92050000D01*
X43470000Y-92050000D02*
X50450000Y-92050000D01*
X50450000Y-92050000D02*
X50450000Y-89950000D01*
X50450000Y-89950000D02*
X43470000Y-89950000D01*
%TO.C,R10*%
X63530000Y-109050000D02*
X63530000Y-106950000D01*
X63530000Y-106950000D02*
X56550000Y-106950000D01*
X56550000Y-106950000D02*
X56550000Y-109050000D01*
X56550000Y-109050000D02*
X63530000Y-109050000D01*
%TO.C,D2*%
X55170000Y-100750000D02*
X45450000Y-100750000D01*
X55170000Y-103250000D02*
X55170000Y-100750000D01*
X45450000Y-103250000D02*
X55170000Y-103250000D01*
X45450000Y-100750000D02*
X45450000Y-103250000D01*
%TO.C,D3*%
X57950000Y-100750000D02*
X57950000Y-103250000D01*
X57950000Y-103250000D02*
X67670000Y-103250000D01*
X67670000Y-103250000D02*
X67670000Y-100750000D01*
X67670000Y-100750000D02*
X57950000Y-100750000D01*
%TO.C,R3*%
X67550000Y-103550000D02*
X65450000Y-103550000D01*
X65450000Y-103550000D02*
X65450000Y-110530000D01*
X65450000Y-110530000D02*
X67550000Y-110530000D01*
X67550000Y-110530000D02*
X67550000Y-103550000D01*
%TO.C,R12*%
X62050000Y-89950000D02*
X62050000Y-92050000D01*
X62050000Y-92050000D02*
X69030000Y-92050000D01*
X69030000Y-92050000D02*
X69030000Y-89950000D01*
X69030000Y-89950000D02*
X62050000Y-89950000D01*
%TO.C,R13*%
X65050000Y-85450000D02*
X65050000Y-78470000D01*
X62950000Y-85450000D02*
X65050000Y-85450000D01*
X62950000Y-78470000D02*
X62950000Y-85450000D01*
X65050000Y-78470000D02*
X62950000Y-78470000D01*
%TO.C,C6*%
X43500000Y-79000000D02*
X43500000Y-84500000D01*
X46500000Y-79000000D02*
X43500000Y-79000000D01*
X46500000Y-84500000D02*
X46500000Y-79000000D01*
X43500000Y-84500000D02*
X46500000Y-84500000D01*
%TO.C,C9*%
X66750000Y-84500000D02*
X69750000Y-84500000D01*
X69750000Y-84500000D02*
X69750000Y-79000000D01*
X69750000Y-79000000D02*
X66750000Y-79000000D01*
X66750000Y-79000000D02*
X66750000Y-84500000D01*
%TO.C,C7*%
X51500000Y-74500000D02*
G75*
G03*
X51500000Y-74500000I-4250000J0D01*
G01*
%TO.C,C10*%
X71000000Y-74500000D02*
G75*
G03*
X71000000Y-74500000I-4250000J0D01*
G01*
%TO.C,J1*%
X58000000Y-40000000D02*
G75*
G03*
X58000000Y-40000000I-2000000J0D01*
G01*
%TO.C,J2*%
X68000000Y-118750000D02*
G75*
G03*
X68000000Y-118750000I-2000000J0D01*
G01*
%TO.C,J3*%
X53000000Y-40000000D02*
G75*
G03*
X53000000Y-40000000I-2000000J0D01*
G01*
%TO.C,J4*%
X57750000Y-118750000D02*
G75*
G03*
X57750000Y-118750000I-2000000J0D01*
G01*
%TO.C,J5*%
X48000000Y-118750000D02*
G75*
G03*
X48000000Y-118750000I-2000000J0D01*
G01*
%TO.C,J6*%
X63500000Y-40000000D02*
G75*
G03*
X63500000Y-40000000I-2000000J0D01*
G01*
%TO.C,U1*%
X61450000Y-76450000D02*
X51650000Y-76450000D01*
X61450000Y-87150000D02*
X61450000Y-76450000D01*
X51650000Y-87150000D02*
X61450000Y-87150000D01*
X51650000Y-76450000D02*
X51650000Y-87150000D01*
%TD*%
M02*
