M48
; DRILL file {KiCad 5.1.10} date Sat Jul 17 19:54:34 2021
; FORMAT={-:-/ absolute / inch / decimal}
; #@! TF.CreationDate,2021-07-17T19:54:34+02:00
; #@! TF.GenerationSoftware,Kicad,Pcbnew,5.1.10
; #@! TF.FileFunction,Plated,1,2,PTH
FMAT,2
INCH
T1C0.0157
T2C0.0276
T3C0.0315
T4C0.0866
%
G90
G05
T1
X1.8602Y-3.2185
X1.939Y-3.002
X2.1457Y-2.9232
X2.1752Y-2.0965
X2.1949Y-3.8976
X2.5886Y-3.2087
T2
X1.7323Y-2.5165
X1.7323Y-2.7165
X1.7488Y-3.5827
X1.8307Y-4.1339
X1.8307Y-4.3339
X1.8898Y-2.5197
X1.8898Y-2.7197
X1.939Y-3.1366
X1.939Y-3.3366
X1.9457Y-4.252
X1.9488Y-3.5827
X2.1228Y-2.5197
X2.1457Y-4.252
X2.2638Y-4.252
X2.3228Y-2.5197
X2.4638Y-4.252
X2.4803Y-3.5827
X2.5197Y-3.1169
X2.5197Y-3.3169
X2.5591Y-2.5197
X2.5591Y-2.7197
X2.6181Y-4.1142
X2.6181Y-4.3142
X2.6803Y-3.5827
X2.7165Y-2.5197
X2.7165Y-2.7197
T3
X1.7717Y-3.1693
X1.7717Y-3.2677
X1.826Y-3.8583
X1.8307Y-2.0472
X1.8307Y-2.1457
X1.8307Y-4.0157
X1.9094Y-2.8937
X2.0079Y-2.8937
X2.0276Y-2.0472
X2.0276Y-2.1457
X2.0622Y-2.6772
X2.0768Y-3.0807
X2.0768Y-3.1807
X2.0768Y-3.2807
X2.0768Y-3.3807
X2.126Y-3.8583
X2.1307Y-4.0157
X2.1654Y-4.4488
X2.2244Y-2.0472
X2.2244Y-2.1457
X2.2638Y-4.4488
X2.3228Y-3.8583
X2.3228Y-4.0157
X2.3622Y-2.6772
X2.3768Y-3.0807
X2.3768Y-3.1807
X2.3768Y-3.2807
X2.3768Y-3.3807
X2.4213Y-2.0472
X2.4213Y-2.1457
X2.4213Y-2.8937
X2.5197Y-2.8937
X2.6181Y-2.0472
X2.6181Y-2.1457
X2.6228Y-3.8583
X2.6228Y-4.0157
X2.687Y-3.1594
X2.687Y-3.2579
T4
X1.6732Y-1.4764
X1.6732Y-4.9213
X1.811Y-4.685
X2.0Y-1.5669
X2.2047Y-1.5669
X2.2047Y-4.685
X2.4173Y-1.5669
X2.5984Y-4.685
X2.7559Y-1.4764
X2.7559Y-4.9213
T0
M30
