%FSLAX45Y45*%
G04 Gerber Fmt 4.5, Leading zero omitted, Abs format (unit mm)*
G04 Created by KiCad (PCBNEW 5.1.10) date 2021-06-18 11:38:28*
%MOMM*%
%LPD*%
G01*
G04 APERTURE LIST*
%ADD10C,0.200000*%
%ADD11C,0.300000*%
G04 APERTURE END LIST*
D10*
X4930000Y-7480000D02*
X4970000Y-7520000D01*
X4970000Y-7480000D02*
X4930000Y-7520000D01*
X5480000Y-7480000D02*
X5520000Y-7520000D01*
X5520000Y-7480000D02*
X5480000Y-7520000D01*
X5730000Y-8180000D02*
X5770000Y-8220000D01*
X5770000Y-8180000D02*
X5730000Y-8220000D01*
X6130000Y-8030000D02*
X6170000Y-8070000D01*
X6170000Y-8030000D02*
X6130000Y-8070000D01*
X4435000Y-6392000D02*
G75*
G03*
X4435000Y-6392000I-35000J0D01*
G01*
X4435000Y-6900000D02*
G75*
G03*
X4435000Y-6900000I-35000J0D01*
G01*
X4835000Y-6400000D02*
G75*
G03*
X4835000Y-6400000I-35000J0D01*
G01*
X4835000Y-6908000D02*
G75*
G03*
X4835000Y-6908000I-35000J0D01*
G01*
X4935000Y-9150000D02*
G75*
G03*
X4935000Y-9150000I-35000J0D01*
G01*
X4935000Y-10800000D02*
G75*
G03*
X4935000Y-10800000I-35000J0D01*
G01*
X5435000Y-7150000D02*
G75*
G03*
X5435000Y-7150000I-35000J0D01*
G01*
X5443000Y-9150000D02*
G75*
G03*
X5443000Y-9150000I-35000J0D01*
G01*
X5443000Y-10800000D02*
G75*
G03*
X5443000Y-10800000I-35000J0D01*
G01*
X5477000Y-6400000D02*
G75*
G03*
X5477000Y-6400000I-35000J0D01*
G01*
X5927000Y-11250000D02*
G75*
G03*
X5927000Y-11250000I-35000J0D01*
G01*
X5935000Y-10800000D02*
G75*
G03*
X5935000Y-10800000I-35000J0D01*
G01*
X5943000Y-7150000D02*
G75*
G03*
X5943000Y-7150000I-35000J0D01*
G01*
X5985000Y-6400000D02*
G75*
G03*
X5985000Y-6400000I-35000J0D01*
G01*
X6435000Y-11250000D02*
G75*
G03*
X6435000Y-11250000I-35000J0D01*
G01*
X6443000Y-10800000D02*
G75*
G03*
X6443000Y-10800000I-35000J0D01*
G01*
X6535000Y-6400000D02*
G75*
G03*
X6535000Y-6400000I-35000J0D01*
G01*
X6535000Y-6908000D02*
G75*
G03*
X6535000Y-6908000I-35000J0D01*
G01*
X6935000Y-6400000D02*
G75*
G03*
X6935000Y-6400000I-35000J0D01*
G01*
X6935000Y-6908000D02*
G75*
G03*
X6935000Y-6908000I-35000J0D01*
G01*
X4538000Y-7798000D02*
X4538000Y-7878000D01*
X4498000Y-7838000D02*
X4578000Y-7838000D01*
X4538000Y-8052000D02*
X4538000Y-8132000D01*
X4498000Y-8092000D02*
X4578000Y-8092000D01*
X4538000Y-8306000D02*
X4538000Y-8386000D01*
X4498000Y-8346000D02*
X4578000Y-8346000D01*
X4538000Y-8560000D02*
X4538000Y-8640000D01*
X4498000Y-8600000D02*
X4578000Y-8600000D01*
X4638000Y-9760000D02*
X4638000Y-9840000D01*
X4598000Y-9800000D02*
X4678000Y-9800000D01*
X4650000Y-5160000D02*
X4650000Y-5240000D01*
X4610000Y-5200000D02*
X4690000Y-5200000D01*
X4650000Y-5410000D02*
X4650000Y-5490000D01*
X4610000Y-5450000D02*
X4690000Y-5450000D01*
X5150000Y-5160000D02*
X5150000Y-5240000D01*
X5110000Y-5200000D02*
X5190000Y-5200000D01*
X5150000Y-5410000D02*
X5150000Y-5490000D01*
X5110000Y-5450000D02*
X5190000Y-5450000D01*
X5150000Y-11210000D02*
X5150000Y-11290000D01*
X5110000Y-11250000D02*
X5190000Y-11250000D01*
X5238000Y-6760000D02*
X5238000Y-6840000D01*
X5198000Y-6800000D02*
X5278000Y-6800000D01*
X5300000Y-7798000D02*
X5300000Y-7878000D01*
X5260000Y-7838000D02*
X5340000Y-7838000D01*
X5300000Y-8052000D02*
X5300000Y-8132000D01*
X5260000Y-8092000D02*
X5340000Y-8092000D01*
X5300000Y-8306000D02*
X5300000Y-8386000D01*
X5260000Y-8346000D02*
X5340000Y-8346000D01*
X5300000Y-8560000D02*
X5300000Y-8640000D01*
X5260000Y-8600000D02*
X5340000Y-8600000D01*
X5400000Y-9760000D02*
X5400000Y-9840000D01*
X5360000Y-9800000D02*
X5440000Y-9800000D01*
X5400000Y-11210000D02*
X5400000Y-11290000D01*
X5360000Y-11250000D02*
X5440000Y-11250000D01*
X5650000Y-5160000D02*
X5650000Y-5240000D01*
X5610000Y-5200000D02*
X5690000Y-5200000D01*
X5650000Y-5410000D02*
X5650000Y-5490000D01*
X5610000Y-5450000D02*
X5690000Y-5450000D01*
X5900000Y-9760000D02*
X5900000Y-9840000D01*
X5860000Y-9800000D02*
X5940000Y-9800000D01*
X5988000Y-7798000D02*
X5988000Y-7878000D01*
X5948000Y-7838000D02*
X6028000Y-7838000D01*
X5988000Y-8052000D02*
X5988000Y-8132000D01*
X5948000Y-8092000D02*
X6028000Y-8092000D01*
X5988000Y-8306000D02*
X5988000Y-8386000D01*
X5948000Y-8346000D02*
X6028000Y-8346000D01*
X5988000Y-8560000D02*
X5988000Y-8640000D01*
X5948000Y-8600000D02*
X6028000Y-8600000D01*
X6000000Y-6760000D02*
X6000000Y-6840000D01*
X5960000Y-6800000D02*
X6040000Y-6800000D01*
X6050000Y-10260000D02*
X6050000Y-10340000D01*
X6010000Y-10300000D02*
X6090000Y-10300000D01*
X6100000Y-9110000D02*
X6100000Y-9190000D01*
X6060000Y-9150000D02*
X6140000Y-9150000D01*
X6150000Y-5160000D02*
X6150000Y-5240000D01*
X6110000Y-5200000D02*
X6190000Y-5200000D01*
X6150000Y-5410000D02*
X6150000Y-5490000D01*
X6110000Y-5450000D02*
X6190000Y-5450000D01*
X6300000Y-10260000D02*
X6300000Y-10340000D01*
X6260000Y-10300000D02*
X6340000Y-10300000D01*
X6350000Y-9110000D02*
X6350000Y-9190000D01*
X6310000Y-9150000D02*
X6390000Y-9150000D01*
X6650000Y-5160000D02*
X6650000Y-5240000D01*
X6610000Y-5200000D02*
X6690000Y-5200000D01*
X6650000Y-5410000D02*
X6650000Y-5490000D01*
X6610000Y-5450000D02*
X6690000Y-5450000D01*
X6662000Y-9760000D02*
X6662000Y-9840000D01*
X6622000Y-9800000D02*
X6702000Y-9800000D01*
X6750000Y-7798000D02*
X6750000Y-7878000D01*
X6710000Y-7838000D02*
X6790000Y-7838000D01*
X6750000Y-8052000D02*
X6750000Y-8132000D01*
X6710000Y-8092000D02*
X6790000Y-8092000D01*
X6750000Y-8306000D02*
X6750000Y-8386000D01*
X6710000Y-8346000D02*
X6790000Y-8346000D01*
X6750000Y-8560000D02*
X6750000Y-8640000D01*
X6710000Y-8600000D02*
X6790000Y-8600000D01*
X4327783Y-3827782D02*
X4327783Y-3672217D01*
X4172217Y-3672217D01*
X4172217Y-3827782D01*
X4327783Y-3827782D01*
X4327783Y-12577782D02*
X4327783Y-12422217D01*
X4172217Y-12422217D01*
X4172217Y-12577782D01*
X4327783Y-12577782D01*
X5227783Y-4077782D02*
X5227783Y-3922217D01*
X5072218Y-3922217D01*
X5072218Y-4077782D01*
X5227783Y-4077782D01*
X5427783Y-11977782D02*
X5427783Y-11822217D01*
X5272218Y-11822217D01*
X5272218Y-11977782D01*
X5427783Y-11977782D01*
X5727782Y-4077782D02*
X5727782Y-3922217D01*
X5572218Y-3922217D01*
X5572218Y-4077782D01*
X5727782Y-4077782D01*
X6027782Y-11977782D02*
X6027782Y-11822217D01*
X5872217Y-11822217D01*
X5872217Y-11977782D01*
X6027782Y-11977782D01*
X6227782Y-4077782D02*
X6227782Y-3922217D01*
X6072217Y-3922217D01*
X6072217Y-4077782D01*
X6227782Y-4077782D01*
X7077782Y-3827782D02*
X7077782Y-3672217D01*
X6922217Y-3672217D01*
X6922217Y-3827782D01*
X7077782Y-3827782D01*
X7077782Y-12577782D02*
X7077782Y-12422217D01*
X6922217Y-12422217D01*
X6922217Y-12577782D01*
X7077782Y-12577782D01*
D11*
X286429Y-465714D02*
X286429Y-165714D01*
X357857Y-165714D01*
X400714Y-180000D01*
X429286Y-208571D01*
X443571Y-237143D01*
X457857Y-294286D01*
X457857Y-337143D01*
X443571Y-394286D01*
X429286Y-422857D01*
X400714Y-451428D01*
X357857Y-465714D01*
X286429Y-465714D01*
X586429Y-465714D02*
X586429Y-265714D01*
X586429Y-322857D02*
X600714Y-294286D01*
X615000Y-280000D01*
X643571Y-265714D01*
X672143Y-265714D01*
X772143Y-465714D02*
X772143Y-265714D01*
X772143Y-165714D02*
X757857Y-180000D01*
X772143Y-194286D01*
X786428Y-180000D01*
X772143Y-165714D01*
X772143Y-194286D01*
X957857Y-465714D02*
X929286Y-451428D01*
X915000Y-422857D01*
X915000Y-165714D01*
X1115000Y-465714D02*
X1086429Y-451428D01*
X1072143Y-422857D01*
X1072143Y-165714D01*
X1457857Y-465714D02*
X1457857Y-165714D01*
X1557857Y-380000D01*
X1657857Y-165714D01*
X1657857Y-465714D01*
X1929286Y-465714D02*
X1929286Y-308571D01*
X1915000Y-280000D01*
X1886428Y-265714D01*
X1829286Y-265714D01*
X1800714Y-280000D01*
X1929286Y-451428D02*
X1900714Y-465714D01*
X1829286Y-465714D01*
X1800714Y-451428D01*
X1786428Y-422857D01*
X1786428Y-394286D01*
X1800714Y-365714D01*
X1829286Y-351428D01*
X1900714Y-351428D01*
X1929286Y-337143D01*
X2072143Y-265714D02*
X2072143Y-565714D01*
X2072143Y-280000D02*
X2100714Y-265714D01*
X2157857Y-265714D01*
X2186429Y-280000D01*
X2200714Y-294286D01*
X2215000Y-322857D01*
X2215000Y-408571D01*
X2200714Y-437143D01*
X2186429Y-451428D01*
X2157857Y-465714D01*
X2100714Y-465714D01*
X2072143Y-451428D01*
X2343571Y-437143D02*
X2357857Y-451428D01*
X2343571Y-465714D01*
X2329286Y-451428D01*
X2343571Y-437143D01*
X2343571Y-465714D01*
X2343571Y-280000D02*
X2357857Y-294286D01*
X2343571Y-308571D01*
X2329286Y-294286D01*
X2343571Y-280000D01*
X2343571Y-308571D01*
X-40000Y-940000D02*
X0Y-980000D01*
X0Y-940000D02*
X-40000Y-980000D01*
X343571Y-795714D02*
X372143Y-795714D01*
X400714Y-810000D01*
X415000Y-824286D01*
X429286Y-852857D01*
X443571Y-910000D01*
X443571Y-981428D01*
X429286Y-1038571D01*
X415000Y-1067143D01*
X400714Y-1081429D01*
X372143Y-1095714D01*
X343571Y-1095714D01*
X315000Y-1081429D01*
X300714Y-1067143D01*
X286429Y-1038571D01*
X272143Y-981428D01*
X272143Y-910000D01*
X286429Y-852857D01*
X300714Y-824286D01*
X315000Y-810000D01*
X343571Y-795714D01*
X572143Y-1067143D02*
X586429Y-1081429D01*
X572143Y-1095714D01*
X557857Y-1081429D01*
X572143Y-1067143D01*
X572143Y-1095714D01*
X843571Y-895714D02*
X843571Y-1095714D01*
X772143Y-781428D02*
X700714Y-995714D01*
X886428Y-995714D01*
X1057857Y-795714D02*
X1086429Y-795714D01*
X1115000Y-810000D01*
X1129286Y-824286D01*
X1143571Y-852857D01*
X1157857Y-910000D01*
X1157857Y-981428D01*
X1143571Y-1038571D01*
X1129286Y-1067143D01*
X1115000Y-1081429D01*
X1086429Y-1095714D01*
X1057857Y-1095714D01*
X1029286Y-1081429D01*
X1015000Y-1067143D01*
X1000714Y-1038571D01*
X986428Y-981428D01*
X986428Y-910000D01*
X1000714Y-852857D01*
X1015000Y-824286D01*
X1029286Y-810000D01*
X1057857Y-795714D01*
X1343571Y-795714D02*
X1372143Y-795714D01*
X1400714Y-810000D01*
X1415000Y-824286D01*
X1429286Y-852857D01*
X1443571Y-910000D01*
X1443571Y-981428D01*
X1429286Y-1038571D01*
X1415000Y-1067143D01*
X1400714Y-1081429D01*
X1372143Y-1095714D01*
X1343571Y-1095714D01*
X1315000Y-1081429D01*
X1300714Y-1067143D01*
X1286429Y-1038571D01*
X1272143Y-981428D01*
X1272143Y-910000D01*
X1286429Y-852857D01*
X1300714Y-824286D01*
X1315000Y-810000D01*
X1343571Y-795714D01*
X1572143Y-1095714D02*
X1572143Y-895714D01*
X1572143Y-924286D02*
X1586428Y-910000D01*
X1615000Y-895714D01*
X1657857Y-895714D01*
X1686428Y-910000D01*
X1700714Y-938571D01*
X1700714Y-1095714D01*
X1700714Y-938571D02*
X1715000Y-910000D01*
X1743571Y-895714D01*
X1786428Y-895714D01*
X1815000Y-910000D01*
X1829286Y-938571D01*
X1829286Y-1095714D01*
X1972143Y-1095714D02*
X1972143Y-895714D01*
X1972143Y-924286D02*
X1986428Y-910000D01*
X2015000Y-895714D01*
X2057857Y-895714D01*
X2086428Y-910000D01*
X2100714Y-938571D01*
X2100714Y-1095714D01*
X2100714Y-938571D02*
X2115000Y-910000D01*
X2143571Y-895714D01*
X2186429Y-895714D01*
X2215000Y-910000D01*
X2229286Y-938571D01*
X2229286Y-1095714D01*
X2815000Y-781428D02*
X2557857Y-1167143D01*
X3200714Y-795714D02*
X3229286Y-795714D01*
X3257857Y-810000D01*
X3272143Y-824286D01*
X3286428Y-852857D01*
X3300714Y-910000D01*
X3300714Y-981428D01*
X3286428Y-1038571D01*
X3272143Y-1067143D01*
X3257857Y-1081429D01*
X3229286Y-1095714D01*
X3200714Y-1095714D01*
X3172143Y-1081429D01*
X3157857Y-1067143D01*
X3143571Y-1038571D01*
X3129286Y-981428D01*
X3129286Y-910000D01*
X3143571Y-852857D01*
X3157857Y-824286D01*
X3172143Y-810000D01*
X3200714Y-795714D01*
X3429286Y-1067143D02*
X3443571Y-1081429D01*
X3429286Y-1095714D01*
X3415000Y-1081429D01*
X3429286Y-1067143D01*
X3429286Y-1095714D01*
X3629286Y-795714D02*
X3657857Y-795714D01*
X3686428Y-810000D01*
X3700714Y-824286D01*
X3715000Y-852857D01*
X3729286Y-910000D01*
X3729286Y-981428D01*
X3715000Y-1038571D01*
X3700714Y-1067143D01*
X3686428Y-1081429D01*
X3657857Y-1095714D01*
X3629286Y-1095714D01*
X3600714Y-1081429D01*
X3586428Y-1067143D01*
X3572143Y-1038571D01*
X3557857Y-981428D01*
X3557857Y-910000D01*
X3572143Y-852857D01*
X3586428Y-824286D01*
X3600714Y-810000D01*
X3629286Y-795714D01*
X4015000Y-1095714D02*
X3843571Y-1095714D01*
X3929286Y-1095714D02*
X3929286Y-795714D01*
X3900714Y-838571D01*
X3872143Y-867143D01*
X3843571Y-881428D01*
X4286429Y-795714D02*
X4143571Y-795714D01*
X4129286Y-938571D01*
X4143571Y-924286D01*
X4172143Y-910000D01*
X4243571Y-910000D01*
X4272143Y-924286D01*
X4286429Y-938571D01*
X4300714Y-967143D01*
X4300714Y-1038571D01*
X4286429Y-1067143D01*
X4272143Y-1081429D01*
X4243571Y-1095714D01*
X4172143Y-1095714D01*
X4143571Y-1081429D01*
X4129286Y-1067143D01*
X4400714Y-795714D02*
X4600714Y-795714D01*
X4472143Y-1095714D01*
X4700714Y-795714D02*
X4700714Y-852857D01*
X4815000Y-795714D02*
X4815000Y-852857D01*
X5257857Y-1210000D02*
X5243571Y-1195714D01*
X5215000Y-1152857D01*
X5200714Y-1124286D01*
X5186429Y-1081429D01*
X5172143Y-1010000D01*
X5172143Y-952857D01*
X5186429Y-881428D01*
X5200714Y-838571D01*
X5215000Y-810000D01*
X5243571Y-767143D01*
X5257857Y-752857D01*
X5500714Y-895714D02*
X5500714Y-1095714D01*
X5429286Y-781428D02*
X5357857Y-995714D01*
X5543571Y-995714D01*
X5886428Y-1095714D02*
X5886428Y-795714D01*
X6015000Y-1095714D02*
X6015000Y-938571D01*
X6000714Y-910000D01*
X5972143Y-895714D01*
X5929286Y-895714D01*
X5900714Y-910000D01*
X5886428Y-924286D01*
X6200714Y-1095714D02*
X6172143Y-1081429D01*
X6157857Y-1067143D01*
X6143571Y-1038571D01*
X6143571Y-952857D01*
X6157857Y-924286D01*
X6172143Y-910000D01*
X6200714Y-895714D01*
X6243571Y-895714D01*
X6272143Y-910000D01*
X6286428Y-924286D01*
X6300714Y-952857D01*
X6300714Y-1038571D01*
X6286428Y-1067143D01*
X6272143Y-1081429D01*
X6243571Y-1095714D01*
X6200714Y-1095714D01*
X6472143Y-1095714D02*
X6443571Y-1081429D01*
X6429286Y-1052857D01*
X6429286Y-795714D01*
X6700714Y-1081429D02*
X6672143Y-1095714D01*
X6615000Y-1095714D01*
X6586428Y-1081429D01*
X6572143Y-1052857D01*
X6572143Y-938571D01*
X6586428Y-910000D01*
X6615000Y-895714D01*
X6672143Y-895714D01*
X6700714Y-910000D01*
X6715000Y-938571D01*
X6715000Y-967143D01*
X6572143Y-995714D01*
X6829286Y-1081429D02*
X6857857Y-1095714D01*
X6915000Y-1095714D01*
X6943571Y-1081429D01*
X6957857Y-1052857D01*
X6957857Y-1038571D01*
X6943571Y-1010000D01*
X6915000Y-995714D01*
X6872143Y-995714D01*
X6843571Y-981428D01*
X6829286Y-952857D01*
X6829286Y-938571D01*
X6843571Y-910000D01*
X6872143Y-895714D01*
X6915000Y-895714D01*
X6943571Y-910000D01*
X7057857Y-1210000D02*
X7072143Y-1195714D01*
X7100714Y-1152857D01*
X7115000Y-1124286D01*
X7129286Y-1081429D01*
X7143571Y-1010000D01*
X7143571Y-952857D01*
X7129286Y-881428D01*
X7115000Y-838571D01*
X7100714Y-810000D01*
X7072143Y-767143D01*
X7057857Y-752857D01*
X0Y-1356000D02*
G75*
G03*
X0Y-1356000I-35000J0D01*
G01*
X343571Y-1191714D02*
X372143Y-1191714D01*
X400714Y-1206000D01*
X415000Y-1220286D01*
X429286Y-1248857D01*
X443571Y-1306000D01*
X443571Y-1377429D01*
X429286Y-1434571D01*
X415000Y-1463143D01*
X400714Y-1477428D01*
X372143Y-1491714D01*
X343571Y-1491714D01*
X315000Y-1477428D01*
X300714Y-1463143D01*
X286429Y-1434571D01*
X272143Y-1377429D01*
X272143Y-1306000D01*
X286429Y-1248857D01*
X300714Y-1220286D01*
X315000Y-1206000D01*
X343571Y-1191714D01*
X572143Y-1463143D02*
X586429Y-1477428D01*
X572143Y-1491714D01*
X557857Y-1477428D01*
X572143Y-1463143D01*
X572143Y-1491714D01*
X686429Y-1191714D02*
X886428Y-1191714D01*
X757857Y-1491714D01*
X1057857Y-1191714D02*
X1086429Y-1191714D01*
X1115000Y-1206000D01*
X1129286Y-1220286D01*
X1143571Y-1248857D01*
X1157857Y-1306000D01*
X1157857Y-1377429D01*
X1143571Y-1434571D01*
X1129286Y-1463143D01*
X1115000Y-1477428D01*
X1086429Y-1491714D01*
X1057857Y-1491714D01*
X1029286Y-1477428D01*
X1015000Y-1463143D01*
X1000714Y-1434571D01*
X986428Y-1377429D01*
X986428Y-1306000D01*
X1000714Y-1248857D01*
X1015000Y-1220286D01*
X1029286Y-1206000D01*
X1057857Y-1191714D01*
X1343571Y-1191714D02*
X1372143Y-1191714D01*
X1400714Y-1206000D01*
X1415000Y-1220286D01*
X1429286Y-1248857D01*
X1443571Y-1306000D01*
X1443571Y-1377429D01*
X1429286Y-1434571D01*
X1415000Y-1463143D01*
X1400714Y-1477428D01*
X1372143Y-1491714D01*
X1343571Y-1491714D01*
X1315000Y-1477428D01*
X1300714Y-1463143D01*
X1286429Y-1434571D01*
X1272143Y-1377429D01*
X1272143Y-1306000D01*
X1286429Y-1248857D01*
X1300714Y-1220286D01*
X1315000Y-1206000D01*
X1343571Y-1191714D01*
X1572143Y-1491714D02*
X1572143Y-1291714D01*
X1572143Y-1320286D02*
X1586428Y-1306000D01*
X1615000Y-1291714D01*
X1657857Y-1291714D01*
X1686428Y-1306000D01*
X1700714Y-1334571D01*
X1700714Y-1491714D01*
X1700714Y-1334571D02*
X1715000Y-1306000D01*
X1743571Y-1291714D01*
X1786428Y-1291714D01*
X1815000Y-1306000D01*
X1829286Y-1334571D01*
X1829286Y-1491714D01*
X1972143Y-1491714D02*
X1972143Y-1291714D01*
X1972143Y-1320286D02*
X1986428Y-1306000D01*
X2015000Y-1291714D01*
X2057857Y-1291714D01*
X2086428Y-1306000D01*
X2100714Y-1334571D01*
X2100714Y-1491714D01*
X2100714Y-1334571D02*
X2115000Y-1306000D01*
X2143571Y-1291714D01*
X2186429Y-1291714D01*
X2215000Y-1306000D01*
X2229286Y-1334571D01*
X2229286Y-1491714D01*
X2815000Y-1177429D02*
X2557857Y-1563143D01*
X3200714Y-1191714D02*
X3229286Y-1191714D01*
X3257857Y-1206000D01*
X3272143Y-1220286D01*
X3286428Y-1248857D01*
X3300714Y-1306000D01*
X3300714Y-1377429D01*
X3286428Y-1434571D01*
X3272143Y-1463143D01*
X3257857Y-1477428D01*
X3229286Y-1491714D01*
X3200714Y-1491714D01*
X3172143Y-1477428D01*
X3157857Y-1463143D01*
X3143571Y-1434571D01*
X3129286Y-1377429D01*
X3129286Y-1306000D01*
X3143571Y-1248857D01*
X3157857Y-1220286D01*
X3172143Y-1206000D01*
X3200714Y-1191714D01*
X3429286Y-1463143D02*
X3443571Y-1477428D01*
X3429286Y-1491714D01*
X3415000Y-1477428D01*
X3429286Y-1463143D01*
X3429286Y-1491714D01*
X3629286Y-1191714D02*
X3657857Y-1191714D01*
X3686428Y-1206000D01*
X3700714Y-1220286D01*
X3715000Y-1248857D01*
X3729286Y-1306000D01*
X3729286Y-1377429D01*
X3715000Y-1434571D01*
X3700714Y-1463143D01*
X3686428Y-1477428D01*
X3657857Y-1491714D01*
X3629286Y-1491714D01*
X3600714Y-1477428D01*
X3586428Y-1463143D01*
X3572143Y-1434571D01*
X3557857Y-1377429D01*
X3557857Y-1306000D01*
X3572143Y-1248857D01*
X3586428Y-1220286D01*
X3600714Y-1206000D01*
X3629286Y-1191714D01*
X3843571Y-1220286D02*
X3857857Y-1206000D01*
X3886428Y-1191714D01*
X3957857Y-1191714D01*
X3986428Y-1206000D01*
X4000714Y-1220286D01*
X4015000Y-1248857D01*
X4015000Y-1277429D01*
X4000714Y-1320286D01*
X3829286Y-1491714D01*
X4015000Y-1491714D01*
X4115000Y-1191714D02*
X4315000Y-1191714D01*
X4186428Y-1491714D01*
X4557857Y-1191714D02*
X4500714Y-1191714D01*
X4472143Y-1206000D01*
X4457857Y-1220286D01*
X4429286Y-1263143D01*
X4415000Y-1320286D01*
X4415000Y-1434571D01*
X4429286Y-1463143D01*
X4443571Y-1477428D01*
X4472143Y-1491714D01*
X4529286Y-1491714D01*
X4557857Y-1477428D01*
X4572143Y-1463143D01*
X4586429Y-1434571D01*
X4586429Y-1363143D01*
X4572143Y-1334571D01*
X4557857Y-1320286D01*
X4529286Y-1306000D01*
X4472143Y-1306000D01*
X4443571Y-1320286D01*
X4429286Y-1334571D01*
X4415000Y-1363143D01*
X4700714Y-1191714D02*
X4700714Y-1248857D01*
X4815000Y-1191714D02*
X4815000Y-1248857D01*
X5257857Y-1606000D02*
X5243571Y-1591714D01*
X5215000Y-1548857D01*
X5200714Y-1520286D01*
X5186429Y-1477428D01*
X5172143Y-1406000D01*
X5172143Y-1348857D01*
X5186429Y-1277429D01*
X5200714Y-1234571D01*
X5215000Y-1206000D01*
X5243571Y-1163143D01*
X5257857Y-1148857D01*
X5357857Y-1220286D02*
X5372143Y-1206000D01*
X5400714Y-1191714D01*
X5472143Y-1191714D01*
X5500714Y-1206000D01*
X5515000Y-1220286D01*
X5529286Y-1248857D01*
X5529286Y-1277429D01*
X5515000Y-1320286D01*
X5343571Y-1491714D01*
X5529286Y-1491714D01*
X5715000Y-1191714D02*
X5743571Y-1191714D01*
X5772143Y-1206000D01*
X5786428Y-1220286D01*
X5800714Y-1248857D01*
X5815000Y-1306000D01*
X5815000Y-1377429D01*
X5800714Y-1434571D01*
X5786428Y-1463143D01*
X5772143Y-1477428D01*
X5743571Y-1491714D01*
X5715000Y-1491714D01*
X5686428Y-1477428D01*
X5672143Y-1463143D01*
X5657857Y-1434571D01*
X5643571Y-1377429D01*
X5643571Y-1306000D01*
X5657857Y-1248857D01*
X5672143Y-1220286D01*
X5686428Y-1206000D01*
X5715000Y-1191714D01*
X6172143Y-1491714D02*
X6172143Y-1191714D01*
X6300714Y-1491714D02*
X6300714Y-1334571D01*
X6286428Y-1306000D01*
X6257857Y-1291714D01*
X6215000Y-1291714D01*
X6186428Y-1306000D01*
X6172143Y-1320286D01*
X6486428Y-1491714D02*
X6457857Y-1477428D01*
X6443571Y-1463143D01*
X6429286Y-1434571D01*
X6429286Y-1348857D01*
X6443571Y-1320286D01*
X6457857Y-1306000D01*
X6486428Y-1291714D01*
X6529286Y-1291714D01*
X6557857Y-1306000D01*
X6572143Y-1320286D01*
X6586428Y-1348857D01*
X6586428Y-1434571D01*
X6572143Y-1463143D01*
X6557857Y-1477428D01*
X6529286Y-1491714D01*
X6486428Y-1491714D01*
X6757857Y-1491714D02*
X6729286Y-1477428D01*
X6715000Y-1448857D01*
X6715000Y-1191714D01*
X6986428Y-1477428D02*
X6957857Y-1491714D01*
X6900714Y-1491714D01*
X6872143Y-1477428D01*
X6857857Y-1448857D01*
X6857857Y-1334571D01*
X6872143Y-1306000D01*
X6900714Y-1291714D01*
X6957857Y-1291714D01*
X6986428Y-1306000D01*
X7000714Y-1334571D01*
X7000714Y-1363143D01*
X6857857Y-1391714D01*
X7115000Y-1477428D02*
X7143571Y-1491714D01*
X7200714Y-1491714D01*
X7229286Y-1477428D01*
X7243571Y-1448857D01*
X7243571Y-1434571D01*
X7229286Y-1406000D01*
X7200714Y-1391714D01*
X7157857Y-1391714D01*
X7129286Y-1377429D01*
X7115000Y-1348857D01*
X7115000Y-1334571D01*
X7129286Y-1306000D01*
X7157857Y-1291714D01*
X7200714Y-1291714D01*
X7229286Y-1306000D01*
X7343571Y-1606000D02*
X7357857Y-1591714D01*
X7386428Y-1548857D01*
X7400714Y-1520286D01*
X7415000Y-1477428D01*
X7429286Y-1406000D01*
X7429286Y-1348857D01*
X7415000Y-1277429D01*
X7400714Y-1234571D01*
X7386428Y-1206000D01*
X7357857Y-1163143D01*
X7343571Y-1148857D01*
X-40000Y-1712000D02*
X-40000Y-1792000D01*
X-80000Y-1752000D02*
X0Y-1752000D01*
X343571Y-1587714D02*
X372143Y-1587714D01*
X400714Y-1602000D01*
X415000Y-1616286D01*
X429286Y-1644857D01*
X443571Y-1702000D01*
X443571Y-1773428D01*
X429286Y-1830571D01*
X415000Y-1859143D01*
X400714Y-1873428D01*
X372143Y-1887714D01*
X343571Y-1887714D01*
X315000Y-1873428D01*
X300714Y-1859143D01*
X286429Y-1830571D01*
X272143Y-1773428D01*
X272143Y-1702000D01*
X286429Y-1644857D01*
X300714Y-1616286D01*
X315000Y-1602000D01*
X343571Y-1587714D01*
X572143Y-1859143D02*
X586429Y-1873428D01*
X572143Y-1887714D01*
X557857Y-1873428D01*
X572143Y-1859143D01*
X572143Y-1887714D01*
X757857Y-1716286D02*
X729286Y-1702000D01*
X715000Y-1687714D01*
X700714Y-1659143D01*
X700714Y-1644857D01*
X715000Y-1616286D01*
X729286Y-1602000D01*
X757857Y-1587714D01*
X815000Y-1587714D01*
X843571Y-1602000D01*
X857857Y-1616286D01*
X872143Y-1644857D01*
X872143Y-1659143D01*
X857857Y-1687714D01*
X843571Y-1702000D01*
X815000Y-1716286D01*
X757857Y-1716286D01*
X729286Y-1730571D01*
X715000Y-1744857D01*
X700714Y-1773428D01*
X700714Y-1830571D01*
X715000Y-1859143D01*
X729286Y-1873428D01*
X757857Y-1887714D01*
X815000Y-1887714D01*
X843571Y-1873428D01*
X857857Y-1859143D01*
X872143Y-1830571D01*
X872143Y-1773428D01*
X857857Y-1744857D01*
X843571Y-1730571D01*
X815000Y-1716286D01*
X1057857Y-1587714D02*
X1086429Y-1587714D01*
X1115000Y-1602000D01*
X1129286Y-1616286D01*
X1143571Y-1644857D01*
X1157857Y-1702000D01*
X1157857Y-1773428D01*
X1143571Y-1830571D01*
X1129286Y-1859143D01*
X1115000Y-1873428D01*
X1086429Y-1887714D01*
X1057857Y-1887714D01*
X1029286Y-1873428D01*
X1015000Y-1859143D01*
X1000714Y-1830571D01*
X986428Y-1773428D01*
X986428Y-1702000D01*
X1000714Y-1644857D01*
X1015000Y-1616286D01*
X1029286Y-1602000D01*
X1057857Y-1587714D01*
X1343571Y-1587714D02*
X1372143Y-1587714D01*
X1400714Y-1602000D01*
X1415000Y-1616286D01*
X1429286Y-1644857D01*
X1443571Y-1702000D01*
X1443571Y-1773428D01*
X1429286Y-1830571D01*
X1415000Y-1859143D01*
X1400714Y-1873428D01*
X1372143Y-1887714D01*
X1343571Y-1887714D01*
X1315000Y-1873428D01*
X1300714Y-1859143D01*
X1286429Y-1830571D01*
X1272143Y-1773428D01*
X1272143Y-1702000D01*
X1286429Y-1644857D01*
X1300714Y-1616286D01*
X1315000Y-1602000D01*
X1343571Y-1587714D01*
X1572143Y-1887714D02*
X1572143Y-1687714D01*
X1572143Y-1716286D02*
X1586428Y-1702000D01*
X1615000Y-1687714D01*
X1657857Y-1687714D01*
X1686428Y-1702000D01*
X1700714Y-1730571D01*
X1700714Y-1887714D01*
X1700714Y-1730571D02*
X1715000Y-1702000D01*
X1743571Y-1687714D01*
X1786428Y-1687714D01*
X1815000Y-1702000D01*
X1829286Y-1730571D01*
X1829286Y-1887714D01*
X1972143Y-1887714D02*
X1972143Y-1687714D01*
X1972143Y-1716286D02*
X1986428Y-1702000D01*
X2015000Y-1687714D01*
X2057857Y-1687714D01*
X2086428Y-1702000D01*
X2100714Y-1730571D01*
X2100714Y-1887714D01*
X2100714Y-1730571D02*
X2115000Y-1702000D01*
X2143571Y-1687714D01*
X2186429Y-1687714D01*
X2215000Y-1702000D01*
X2229286Y-1730571D01*
X2229286Y-1887714D01*
X2815000Y-1573428D02*
X2557857Y-1959143D01*
X3200714Y-1587714D02*
X3229286Y-1587714D01*
X3257857Y-1602000D01*
X3272143Y-1616286D01*
X3286428Y-1644857D01*
X3300714Y-1702000D01*
X3300714Y-1773428D01*
X3286428Y-1830571D01*
X3272143Y-1859143D01*
X3257857Y-1873428D01*
X3229286Y-1887714D01*
X3200714Y-1887714D01*
X3172143Y-1873428D01*
X3157857Y-1859143D01*
X3143571Y-1830571D01*
X3129286Y-1773428D01*
X3129286Y-1702000D01*
X3143571Y-1644857D01*
X3157857Y-1616286D01*
X3172143Y-1602000D01*
X3200714Y-1587714D01*
X3429286Y-1859143D02*
X3443571Y-1873428D01*
X3429286Y-1887714D01*
X3415000Y-1873428D01*
X3429286Y-1859143D01*
X3429286Y-1887714D01*
X3629286Y-1587714D02*
X3657857Y-1587714D01*
X3686428Y-1602000D01*
X3700714Y-1616286D01*
X3715000Y-1644857D01*
X3729286Y-1702000D01*
X3729286Y-1773428D01*
X3715000Y-1830571D01*
X3700714Y-1859143D01*
X3686428Y-1873428D01*
X3657857Y-1887714D01*
X3629286Y-1887714D01*
X3600714Y-1873428D01*
X3586428Y-1859143D01*
X3572143Y-1830571D01*
X3557857Y-1773428D01*
X3557857Y-1702000D01*
X3572143Y-1644857D01*
X3586428Y-1616286D01*
X3600714Y-1602000D01*
X3629286Y-1587714D01*
X3829286Y-1587714D02*
X4015000Y-1587714D01*
X3915000Y-1702000D01*
X3957857Y-1702000D01*
X3986428Y-1716286D01*
X4000714Y-1730571D01*
X4015000Y-1759143D01*
X4015000Y-1830571D01*
X4000714Y-1859143D01*
X3986428Y-1873428D01*
X3957857Y-1887714D01*
X3872143Y-1887714D01*
X3843571Y-1873428D01*
X3829286Y-1859143D01*
X4300714Y-1887714D02*
X4129286Y-1887714D01*
X4215000Y-1887714D02*
X4215000Y-1587714D01*
X4186428Y-1630571D01*
X4157857Y-1659143D01*
X4129286Y-1673428D01*
X4572143Y-1587714D02*
X4429286Y-1587714D01*
X4415000Y-1730571D01*
X4429286Y-1716286D01*
X4457857Y-1702000D01*
X4529286Y-1702000D01*
X4557857Y-1716286D01*
X4572143Y-1730571D01*
X4586429Y-1759143D01*
X4586429Y-1830571D01*
X4572143Y-1859143D01*
X4557857Y-1873428D01*
X4529286Y-1887714D01*
X4457857Y-1887714D01*
X4429286Y-1873428D01*
X4415000Y-1859143D01*
X4700714Y-1587714D02*
X4700714Y-1644857D01*
X4815000Y-1587714D02*
X4815000Y-1644857D01*
X5257857Y-2002000D02*
X5243571Y-1987714D01*
X5215000Y-1944857D01*
X5200714Y-1916286D01*
X5186429Y-1873428D01*
X5172143Y-1802000D01*
X5172143Y-1744857D01*
X5186429Y-1673428D01*
X5200714Y-1630571D01*
X5215000Y-1602000D01*
X5243571Y-1559143D01*
X5257857Y-1544857D01*
X5343571Y-1587714D02*
X5529286Y-1587714D01*
X5429286Y-1702000D01*
X5472143Y-1702000D01*
X5500714Y-1716286D01*
X5515000Y-1730571D01*
X5529286Y-1759143D01*
X5529286Y-1830571D01*
X5515000Y-1859143D01*
X5500714Y-1873428D01*
X5472143Y-1887714D01*
X5386429Y-1887714D01*
X5357857Y-1873428D01*
X5343571Y-1859143D01*
X5700714Y-1716286D02*
X5672143Y-1702000D01*
X5657857Y-1687714D01*
X5643571Y-1659143D01*
X5643571Y-1644857D01*
X5657857Y-1616286D01*
X5672143Y-1602000D01*
X5700714Y-1587714D01*
X5757857Y-1587714D01*
X5786428Y-1602000D01*
X5800714Y-1616286D01*
X5815000Y-1644857D01*
X5815000Y-1659143D01*
X5800714Y-1687714D01*
X5786428Y-1702000D01*
X5757857Y-1716286D01*
X5700714Y-1716286D01*
X5672143Y-1730571D01*
X5657857Y-1744857D01*
X5643571Y-1773428D01*
X5643571Y-1830571D01*
X5657857Y-1859143D01*
X5672143Y-1873428D01*
X5700714Y-1887714D01*
X5757857Y-1887714D01*
X5786428Y-1873428D01*
X5800714Y-1859143D01*
X5815000Y-1830571D01*
X5815000Y-1773428D01*
X5800714Y-1744857D01*
X5786428Y-1730571D01*
X5757857Y-1716286D01*
X6172143Y-1887714D02*
X6172143Y-1587714D01*
X6300714Y-1887714D02*
X6300714Y-1730571D01*
X6286428Y-1702000D01*
X6257857Y-1687714D01*
X6215000Y-1687714D01*
X6186428Y-1702000D01*
X6172143Y-1716286D01*
X6486428Y-1887714D02*
X6457857Y-1873428D01*
X6443571Y-1859143D01*
X6429286Y-1830571D01*
X6429286Y-1744857D01*
X6443571Y-1716286D01*
X6457857Y-1702000D01*
X6486428Y-1687714D01*
X6529286Y-1687714D01*
X6557857Y-1702000D01*
X6572143Y-1716286D01*
X6586428Y-1744857D01*
X6586428Y-1830571D01*
X6572143Y-1859143D01*
X6557857Y-1873428D01*
X6529286Y-1887714D01*
X6486428Y-1887714D01*
X6757857Y-1887714D02*
X6729286Y-1873428D01*
X6715000Y-1844857D01*
X6715000Y-1587714D01*
X6986428Y-1873428D02*
X6957857Y-1887714D01*
X6900714Y-1887714D01*
X6872143Y-1873428D01*
X6857857Y-1844857D01*
X6857857Y-1730571D01*
X6872143Y-1702000D01*
X6900714Y-1687714D01*
X6957857Y-1687714D01*
X6986428Y-1702000D01*
X7000714Y-1730571D01*
X7000714Y-1759143D01*
X6857857Y-1787714D01*
X7115000Y-1873428D02*
X7143571Y-1887714D01*
X7200714Y-1887714D01*
X7229286Y-1873428D01*
X7243571Y-1844857D01*
X7243571Y-1830571D01*
X7229286Y-1802000D01*
X7200714Y-1787714D01*
X7157857Y-1787714D01*
X7129286Y-1773428D01*
X7115000Y-1744857D01*
X7115000Y-1730571D01*
X7129286Y-1702000D01*
X7157857Y-1687714D01*
X7200714Y-1687714D01*
X7229286Y-1702000D01*
X7343571Y-2002000D02*
X7357857Y-1987714D01*
X7386428Y-1944857D01*
X7400714Y-1916286D01*
X7415000Y-1873428D01*
X7429286Y-1802000D01*
X7429286Y-1744857D01*
X7415000Y-1673428D01*
X7400714Y-1630571D01*
X7386428Y-1602000D01*
X7357857Y-1559143D01*
X7343571Y-1544857D01*
X-32217Y-2225783D02*
X-32217Y-2070217D01*
X-187782Y-2070217D01*
X-187782Y-2225783D01*
X-32217Y-2225783D01*
X272143Y-2012286D02*
X286429Y-1998000D01*
X315000Y-1983714D01*
X386428Y-1983714D01*
X415000Y-1998000D01*
X429286Y-2012286D01*
X443571Y-2040857D01*
X443571Y-2069428D01*
X429286Y-2112286D01*
X257857Y-2283714D01*
X443571Y-2283714D01*
X572143Y-2255143D02*
X586429Y-2269429D01*
X572143Y-2283714D01*
X557857Y-2269429D01*
X572143Y-2255143D01*
X572143Y-2283714D01*
X700714Y-2012286D02*
X715000Y-1998000D01*
X743571Y-1983714D01*
X815000Y-1983714D01*
X843571Y-1998000D01*
X857857Y-2012286D01*
X872143Y-2040857D01*
X872143Y-2069428D01*
X857857Y-2112286D01*
X686429Y-2283714D01*
X872143Y-2283714D01*
X1057857Y-1983714D02*
X1086429Y-1983714D01*
X1115000Y-1998000D01*
X1129286Y-2012286D01*
X1143571Y-2040857D01*
X1157857Y-2098000D01*
X1157857Y-2169429D01*
X1143571Y-2226571D01*
X1129286Y-2255143D01*
X1115000Y-2269429D01*
X1086429Y-2283714D01*
X1057857Y-2283714D01*
X1029286Y-2269429D01*
X1015000Y-2255143D01*
X1000714Y-2226571D01*
X986428Y-2169429D01*
X986428Y-2098000D01*
X1000714Y-2040857D01*
X1015000Y-2012286D01*
X1029286Y-1998000D01*
X1057857Y-1983714D01*
X1343571Y-1983714D02*
X1372143Y-1983714D01*
X1400714Y-1998000D01*
X1415000Y-2012286D01*
X1429286Y-2040857D01*
X1443571Y-2098000D01*
X1443571Y-2169429D01*
X1429286Y-2226571D01*
X1415000Y-2255143D01*
X1400714Y-2269429D01*
X1372143Y-2283714D01*
X1343571Y-2283714D01*
X1315000Y-2269429D01*
X1300714Y-2255143D01*
X1286429Y-2226571D01*
X1272143Y-2169429D01*
X1272143Y-2098000D01*
X1286429Y-2040857D01*
X1300714Y-2012286D01*
X1315000Y-1998000D01*
X1343571Y-1983714D01*
X1572143Y-2283714D02*
X1572143Y-2083714D01*
X1572143Y-2112286D02*
X1586428Y-2098000D01*
X1615000Y-2083714D01*
X1657857Y-2083714D01*
X1686428Y-2098000D01*
X1700714Y-2126571D01*
X1700714Y-2283714D01*
X1700714Y-2126571D02*
X1715000Y-2098000D01*
X1743571Y-2083714D01*
X1786428Y-2083714D01*
X1815000Y-2098000D01*
X1829286Y-2126571D01*
X1829286Y-2283714D01*
X1972143Y-2283714D02*
X1972143Y-2083714D01*
X1972143Y-2112286D02*
X1986428Y-2098000D01*
X2015000Y-2083714D01*
X2057857Y-2083714D01*
X2086428Y-2098000D01*
X2100714Y-2126571D01*
X2100714Y-2283714D01*
X2100714Y-2126571D02*
X2115000Y-2098000D01*
X2143571Y-2083714D01*
X2186429Y-2083714D01*
X2215000Y-2098000D01*
X2229286Y-2126571D01*
X2229286Y-2283714D01*
X2815000Y-1969428D02*
X2557857Y-2355143D01*
X3200714Y-1983714D02*
X3229286Y-1983714D01*
X3257857Y-1998000D01*
X3272143Y-2012286D01*
X3286428Y-2040857D01*
X3300714Y-2098000D01*
X3300714Y-2169429D01*
X3286428Y-2226571D01*
X3272143Y-2255143D01*
X3257857Y-2269429D01*
X3229286Y-2283714D01*
X3200714Y-2283714D01*
X3172143Y-2269429D01*
X3157857Y-2255143D01*
X3143571Y-2226571D01*
X3129286Y-2169429D01*
X3129286Y-2098000D01*
X3143571Y-2040857D01*
X3157857Y-2012286D01*
X3172143Y-1998000D01*
X3200714Y-1983714D01*
X3429286Y-2255143D02*
X3443571Y-2269429D01*
X3429286Y-2283714D01*
X3415000Y-2269429D01*
X3429286Y-2255143D01*
X3429286Y-2283714D01*
X3629286Y-1983714D02*
X3657857Y-1983714D01*
X3686428Y-1998000D01*
X3700714Y-2012286D01*
X3715000Y-2040857D01*
X3729286Y-2098000D01*
X3729286Y-2169429D01*
X3715000Y-2226571D01*
X3700714Y-2255143D01*
X3686428Y-2269429D01*
X3657857Y-2283714D01*
X3629286Y-2283714D01*
X3600714Y-2269429D01*
X3586428Y-2255143D01*
X3572143Y-2226571D01*
X3557857Y-2169429D01*
X3557857Y-2098000D01*
X3572143Y-2040857D01*
X3586428Y-2012286D01*
X3600714Y-1998000D01*
X3629286Y-1983714D01*
X3900714Y-2112286D02*
X3872143Y-2098000D01*
X3857857Y-2083714D01*
X3843571Y-2055143D01*
X3843571Y-2040857D01*
X3857857Y-2012286D01*
X3872143Y-1998000D01*
X3900714Y-1983714D01*
X3957857Y-1983714D01*
X3986428Y-1998000D01*
X4000714Y-2012286D01*
X4015000Y-2040857D01*
X4015000Y-2055143D01*
X4000714Y-2083714D01*
X3986428Y-2098000D01*
X3957857Y-2112286D01*
X3900714Y-2112286D01*
X3872143Y-2126571D01*
X3857857Y-2140857D01*
X3843571Y-2169429D01*
X3843571Y-2226571D01*
X3857857Y-2255143D01*
X3872143Y-2269429D01*
X3900714Y-2283714D01*
X3957857Y-2283714D01*
X3986428Y-2269429D01*
X4000714Y-2255143D01*
X4015000Y-2226571D01*
X4015000Y-2169429D01*
X4000714Y-2140857D01*
X3986428Y-2126571D01*
X3957857Y-2112286D01*
X4272143Y-1983714D02*
X4215000Y-1983714D01*
X4186428Y-1998000D01*
X4172143Y-2012286D01*
X4143571Y-2055143D01*
X4129286Y-2112286D01*
X4129286Y-2226571D01*
X4143571Y-2255143D01*
X4157857Y-2269429D01*
X4186428Y-2283714D01*
X4243571Y-2283714D01*
X4272143Y-2269429D01*
X4286429Y-2255143D01*
X4300714Y-2226571D01*
X4300714Y-2155143D01*
X4286429Y-2126571D01*
X4272143Y-2112286D01*
X4243571Y-2098000D01*
X4186428Y-2098000D01*
X4157857Y-2112286D01*
X4143571Y-2126571D01*
X4129286Y-2155143D01*
X4557857Y-1983714D02*
X4500714Y-1983714D01*
X4472143Y-1998000D01*
X4457857Y-2012286D01*
X4429286Y-2055143D01*
X4415000Y-2112286D01*
X4415000Y-2226571D01*
X4429286Y-2255143D01*
X4443571Y-2269429D01*
X4472143Y-2283714D01*
X4529286Y-2283714D01*
X4557857Y-2269429D01*
X4572143Y-2255143D01*
X4586429Y-2226571D01*
X4586429Y-2155143D01*
X4572143Y-2126571D01*
X4557857Y-2112286D01*
X4529286Y-2098000D01*
X4472143Y-2098000D01*
X4443571Y-2112286D01*
X4429286Y-2126571D01*
X4415000Y-2155143D01*
X4700714Y-1983714D02*
X4700714Y-2040857D01*
X4815000Y-1983714D02*
X4815000Y-2040857D01*
X5257857Y-2398000D02*
X5243571Y-2383714D01*
X5215000Y-2340857D01*
X5200714Y-2312286D01*
X5186429Y-2269429D01*
X5172143Y-2198000D01*
X5172143Y-2140857D01*
X5186429Y-2069428D01*
X5200714Y-2026571D01*
X5215000Y-1998000D01*
X5243571Y-1955143D01*
X5257857Y-1940857D01*
X5386429Y-2283714D02*
X5443571Y-2283714D01*
X5472143Y-2269429D01*
X5486429Y-2255143D01*
X5515000Y-2212286D01*
X5529286Y-2155143D01*
X5529286Y-2040857D01*
X5515000Y-2012286D01*
X5500714Y-1998000D01*
X5472143Y-1983714D01*
X5415000Y-1983714D01*
X5386429Y-1998000D01*
X5372143Y-2012286D01*
X5357857Y-2040857D01*
X5357857Y-2112286D01*
X5372143Y-2140857D01*
X5386429Y-2155143D01*
X5415000Y-2169429D01*
X5472143Y-2169429D01*
X5500714Y-2155143D01*
X5515000Y-2140857D01*
X5529286Y-2112286D01*
X5886428Y-2283714D02*
X5886428Y-1983714D01*
X6015000Y-2283714D02*
X6015000Y-2126571D01*
X6000714Y-2098000D01*
X5972143Y-2083714D01*
X5929286Y-2083714D01*
X5900714Y-2098000D01*
X5886428Y-2112286D01*
X6200714Y-2283714D02*
X6172143Y-2269429D01*
X6157857Y-2255143D01*
X6143571Y-2226571D01*
X6143571Y-2140857D01*
X6157857Y-2112286D01*
X6172143Y-2098000D01*
X6200714Y-2083714D01*
X6243571Y-2083714D01*
X6272143Y-2098000D01*
X6286428Y-2112286D01*
X6300714Y-2140857D01*
X6300714Y-2226571D01*
X6286428Y-2255143D01*
X6272143Y-2269429D01*
X6243571Y-2283714D01*
X6200714Y-2283714D01*
X6472143Y-2283714D02*
X6443571Y-2269429D01*
X6429286Y-2240857D01*
X6429286Y-1983714D01*
X6700714Y-2269429D02*
X6672143Y-2283714D01*
X6615000Y-2283714D01*
X6586428Y-2269429D01*
X6572143Y-2240857D01*
X6572143Y-2126571D01*
X6586428Y-2098000D01*
X6615000Y-2083714D01*
X6672143Y-2083714D01*
X6700714Y-2098000D01*
X6715000Y-2126571D01*
X6715000Y-2155143D01*
X6572143Y-2183714D01*
X6829286Y-2269429D02*
X6857857Y-2283714D01*
X6915000Y-2283714D01*
X6943571Y-2269429D01*
X6957857Y-2240857D01*
X6957857Y-2226571D01*
X6943571Y-2198000D01*
X6915000Y-2183714D01*
X6872143Y-2183714D01*
X6843571Y-2169429D01*
X6829286Y-2140857D01*
X6829286Y-2126571D01*
X6843571Y-2098000D01*
X6872143Y-2083714D01*
X6915000Y-2083714D01*
X6943571Y-2098000D01*
X7057857Y-2398000D02*
X7072143Y-2383714D01*
X7100714Y-2340857D01*
X7115000Y-2312286D01*
X7129286Y-2269429D01*
X7143571Y-2198000D01*
X7143571Y-2140857D01*
X7129286Y-2069428D01*
X7115000Y-2026571D01*
X7100714Y-1998000D01*
X7072143Y-1955143D01*
X7057857Y-1940857D01*
M02*
